<svg id="_2" data-name="2" xmlns="http://www.w3.org/2000/svg" xmlns:xlink="http://www.w3.org/1999/xlink" width="409" height="313" viewBox="0 0 409 313">
  <metadata><?xpacket begin="﻿" id="W5M0MpCehiHzreSzNTczkc9d"?>
<x:xmpmeta xmlns:x="adobe:ns:meta/" x:xmptk="Adobe XMP Core 5.6-c145 79.163499, 2018/08/13-16:40:22        ">
   <rdf:RDF xmlns:rdf="http://www.w3.org/1999/02/22-rdf-syntax-ns#">
      <rdf:Description rdf:about=""
            xmlns:xmp="http://ns.adobe.com/xap/1.0/">
         <xmp:CreatorTool>Adobe Photoshop CC 2019 (Windows)</xmp:CreatorTool>
      </rdf:Description>
   </rdf:RDF>
</x:xmpmeta>
                                                                                                    
                                                                                                    
                                                                                                    
                                                                                                    
                                                                                                    
                                                                                                    
                                                                                                    
                                                                                                    
                                                                                                    
                                                                                                    
                                                                                                    
                                                                                                    
                                                                                                    
                                                                                                    
                                                                                                    
                                                                                                    
                                                                                                    
                                                                                                    
                                                                                                    
                                                                                                    
                           
<?xpacket end="w"?></metadata>
<defs>
    <style>
      .cls-1 {
        fill: #de0015;
      }

      .cls-1, .cls-2, .cls-3, .cls-4, .cls-5 {
        fill-rule: evenodd;
      }

      .cls-2, .cls-3 {
        fill: #0d6efd;
      }

      .cls-2 {
        filter: url(#filter);
      }

      .cls-3 {
        filter: url(#filter-2);
      }

      .cls-4, .cls-6 {
        fill: #fff;
      }
    </style>
    <filter id="filter" x="203.5" y="71" width="135.5" height="208" filterUnits="userSpaceOnUse">
      <feFlood result="flood" flood-color="#fff"/>
      <feComposite result="composite" operator="in" in2="SourceGraphic"/>
      <feBlend result="blend" in2="SourceGraphic"/>
    </filter>
    <filter id="filter-2" x="68" y="71" width="135.5" height="208" filterUnits="userSpaceOnUse">
      <feFlood result="flood" flood-color="#fff"/>
      <feComposite result="composite" operator="in" in2="SourceGraphic"/>
      <feBlend result="blend" in2="SourceGraphic"/>
    </filter>
  </defs>
  <path id="Color_Fill_2" data-name="Color Fill 2" class="cls-1" d="M204,0c-0.022,1.14,0,312,0,312v1H397a8.028,8.028,0,0,0,4-1c14.344-8.622,5.216-17.867-2-29-0.041-.082-106.715-162.034-178-270h0s-3.731-5.371-5-7C213.3,2.63,207.351,0,204,0Z"/>
  <path id="Color_Fill_2_copy" data-name="Color Fill 2 copy" class="cls-1" d="M205,0c0.022,1.14,0,312,0,312v1H12a8.029,8.029,0,0,1-4-1c-14.344-8.622-5.216-17.867,2-29,0.041-.082,106.715-162.034,178-270h0s3.731-5.371,5-7C195.7,2.63,201.649,0,205,0Z"/>
  <path id="Color_Fill_2_copy_2" data-name="Color Fill 2 copy 2" class="cls-2" d="M203.5,71c-0.015.758,0,207.343,0,207.343v0.665H331.341a5.3,5.3,0,0,0,2.65-.665c9.5-5.73,3.455-11.873-1.325-19.272-0.027-.055-70.687-107.682-117.9-179.432h0s-2.472-3.569-3.312-4.652A12.4,12.4,0,0,0,203.5,71Z"/>
  <path id="Color_Fill_2_copy_2-2" data-name="Color Fill 2 copy 2" class="cls-3" d="M203.5,71c0.015,0.758,0,207.343,0,207.343v0.665H75.659a5.3,5.3,0,0,1-2.65-.665c-9.5-5.73-3.455-11.873,1.325-19.272,0.027-.055,70.687-107.682,117.9-179.432h0s2.471-3.569,3.312-4.652A12.4,12.4,0,0,1,203.5,71Z"/>
  <path id="Color_Fill_5" data-name="Color Fill 5" class="cls-4" d="M200,76l3-5h1l2,6-1,202h-3Z"/>
  <path id="Color_Fill_4" data-name="Color Fill 4" class="cls-5" d="M258,218c1.978-2.742,6.62,2.071,10,8,4.6-3.491-2.581-13.083-7-16-8.75-4.6-22.135-2.84-20,2,6.045-1.145,12.554-.559,13,2-18.883,49.042-92.3,34.3-96,4,0.84-3.491,8.812-4.6,7-8s-9.006-.607-14,2c-9.988,4.861-10.925,9.818-8,10,5.174-.457,6.765-3.87,8-2C169.066,259.929,219.39,282.875,258,218Z"/>
  <path class="cls-5" d="M188.5,173c7.456,0,13.5,8.507,13.5,19s-6.044,19-13.5,19S175,202.493,175,192,181.044,173,188.5,173Zm33-2c7.456,0,13.5,8.283,13.5,18.5S228.956,208,221.5,208,208,199.717,208,189.5,214.044,171,221.5,171Z"/>
  <ellipse class="cls-6" cx="187.5" cy="188" rx="3.5" ry="6"/>
  <ellipse id="Ellipse_2_copy" data-name="Ellipse 2 copy" class="cls-6" cx="220.5" cy="187" rx="3.5" ry="6"/>
</svg>
