<?xml version="1.0" encoding="utf-8"?>
<svg viewBox="1.443 0.902 480.011 489.527" width="480.011" height="489.527" xmlns="http://www.w3.org/2000/svg">
  <g transform="matrix(1.034513, 0, 0, -1.05503, -7.245006, 499.292206)" id="g4290" style="">
    <g id="g4292">
      <path id="path4298" style="fill:#c1121c;fill-opacity:1;fill-rule:nonzero;stroke:none" d="m 240.398,472.394 c -127.746,0 -232,-104.25 -232,-231.996 0,-127.747 104.254,-231.997 232,-231.997 127.747,0 231.997,104.25 231.997,231.997 0,127.746 -104.25,231.996 -231.997,231.996 z m 0,-64.317 c 92.989,0 167.684,-74.691 167.684,-167.679 0,-92.989 -74.695,-167.684 -167.684,-167.684 -92.988,0 -167.679,74.695 -167.679,167.684 0,92.988 74.691,167.679 167.679,167.679 z"/>
      <path id="path4350" style="fill: rgb(0, 0, 0); fill-opacity: 1; fill-rule: nonzero; stroke: none;" d="M 252.732 129.872 C 247.921 126.833 241.734 127.074 237.187 130.495 L 233.145 133.547 L 228.047 134.275 L 228.047 126.295 L 237.365 124.965 L 237.365 118.316 L 227.952 119.656 C 229.409 112.248 236.596 107.433 244.004 108.889 C 251.402 110.359 256.228 117.546 254.76 124.955 C 254.41 126.708 253.726 128.385 252.732 129.872 Z M 266.317 210.741 C 237.293 209.887 222.2 212.167 219.285 197.908 L 218.696 195.196 C 215.286 182.772 203.433 174.601 190.6 175.847 C 186.05 166.625 181.491 156.936 212.237 147.656 C 211.846 149.262 211.655 150.919 211.675 152.587 L 238.559 132.322 C 243.582 128.531 250.728 129.535 254.505 134.558 L 268.713 153.421 L 253.611 164.797 L 237.997 144.09 L 214.167 162.054 C 216.953 167.057 221.745 170.633 227.339 171.859 C 227.581 168.894 230.051 166.625 233.019 166.625 L 254.971 166.625 L 270.084 155.235 L 275.649 162.612 C 276.543 163.806 277.211 165.168 277.578 166.625 L 299.922 166.625 C 301.494 166.625 302.76 168.66 302.76 171.171 C 302.76 173.696 301.494 175.731 299.922 175.731 L 291.374 175.731 C 276.754 175.731 264.891 187.574 264.891 202.203 C 264.891 205.106 265.378 207.988 266.317 210.741 Z M 307.038 202.203 C 307.038 193.559 300.018 186.549 291.374 186.549 C 282.73 186.549 275.72 193.559 275.72 202.203 C 275.72 210.847 282.73 217.856 291.374 217.856 C 300.018 217.856 307.038 210.847 307.038 202.203 Z M 315.576 202.203 C 315.576 215.563 304.734 226.395 291.374 226.395 C 278.01 226.395 267.171 215.563 267.171 202.203 C 267.171 188.839 278.01 178 291.374 178 C 304.734 178 315.576 188.839 315.576 202.203 Z M 208.827 202.203 C 208.827 193.559 201.806 186.549 193.163 186.549 C 184.519 186.549 177.512 193.559 177.512 202.203 C 177.512 210.847 184.519 217.856 193.163 217.856 C 201.806 217.856 208.827 210.847 208.827 202.203 Z M 217.365 202.203 C 217.365 215.563 206.526 226.395 193.163 226.395 C 179.802 226.395 168.975 215.563 168.975 202.203 C 168.975 188.839 179.802 178 193.163 178 C 206.526 178 217.365 188.839 217.365 202.203" transform="matrix(-1, 0, 0, -1, 484.550995, 335.024391)"/>
      <path id="path4352" style="fill:#000000;fill-opacity:1;fill-rule:nonzero;stroke:none;" d="M 192.707 367.875 C 188.902 367.875 185.477 365.648 183.961 362.16 L 168.855 327.461 C 167.789 325.011 166.461 322.703 164.859 320.57 L 162.57 317.523 C 161.078 315.535 160.262 313.132 160.262 310.652 L 160.262 285.851 C 160.262 280.582 164.531 276.312 169.801 276.312 L 311 276.312 C 316.258 276.312 320.543 280.582 320.543 285.851 L 320.543 310.652 C 320.543 313.132 319.73 315.535 318.25 317.523 L 315.941 320.57 C 314.355 322.703 312.996 325.011 311.93 327.461 L 296.84 362.16 C 295.316 365.648 291.887 367.875 288.098 367.875 L 192.707 367.875 Z M 195.016 358.355 L 285.785 358.355 C 287.313 358.355 288.691 357.445 289.309 356.062 L 302.406 325.906 L 178.395 325.906 L 191.516 356.062 C 192.121 357.445 193.5 358.355 195.016 358.355 Z M 181.254 316.386 C 187.578 316.386 192.707 311.238 192.707 304.914 C 192.707 298.601 187.578 293.461 181.254 293.461 C 174.93 293.461 169.801 298.601 169.801 304.914 C 169.801 311.238 174.93 316.386 181.254 316.386 Z M 299.547 316.386 C 305.871 316.386 311 311.238 311 304.914 C 311 298.601 305.871 293.461 299.547 293.461 C 293.223 293.461 288.098 298.601 288.098 304.914 C 288.098 311.238 293.223 316.386 299.547 316.386 Z M 169.801 272.488 L 169.801 251.511 C 169.801 248.351 172.355 245.777 175.52 245.777 L 186.973 245.777 C 190.133 245.777 192.707 248.351 192.707 251.511 L 192.707 272.488 L 169.801 272.488 Z M 288.098 272.488 L 288.098 251.511 C 288.098 248.351 290.652 245.777 293.813 245.777 L 305.266 245.777 C 308.426 245.777 311 248.351 311 251.511 L 311 272.488 L 288.098 272.488 Z"/>
    </g>
  </g>
</svg>