<?xml version="1.0" encoding="utf-8"?>
<svg viewBox="0 0 500 500" width="500px" height="500px" xmlns="http://www.w3.org/2000/svg">
  <g id="layer1" transform="matrix(8.141567, 0, 0, 8.141567, 0.05706, -1921.894653)" style="">
    <circle style="opacity:1;fill:#dc0a14;fill-opacity:1;fill-rule:nonzero;stroke:none;stroke-width:0.18410923;stroke-linecap:square;stroke-linejoin:round;stroke-miterlimit:4;stroke-dasharray:none;stroke-opacity:1;paint-order:stroke fill markers" id="path17" cx="30.5" cy="266.5" r="30"/>
    <circle r="24" cy="266.5" cx="30.5" id="circle1748" style="opacity:1;fill:#ffffff;fill-opacity:1;fill-rule:nonzero;stroke:none;stroke-width:0.14728737;stroke-linecap:square;stroke-linejoin:round;stroke-miterlimit:4;stroke-dasharray:none;stroke-opacity:1;paint-order:stroke fill markers"/>
    <path style="opacity:1;fill:#000000;fill-opacity:1;fill-rule:nonzero;stroke:none;stroke-width:2.18211365;stroke-linecap:square;stroke-linejoin:round;stroke-miterlimit:4;stroke-dasharray:none;stroke-opacity:1;paint-order:stroke fill markers" d="M 21.456 254.819 L 21.3 267.832 L 49.5 267.832 L 49.5 254.532 C 49.5 254.532 21.452 254.794 21.456 254.819 Z M 13.7 259.536 C 13.003 260.746 12.071 262.918 11.526 264.31 L 11.5 271.732 L 49.5 271.732 L 49.5 268.432 L 20.7 268.432 L 20.7 258.832 C 20.7 258.832 16.956 258.821 13.7 259.536 Z" id="rect841"/>
    <path style="clip-rule:evenodd;fill:#ffffff;fill-opacity:1;fill-rule:evenodd;stroke:none;stroke-width:0.11549114" d="M 19.5 260.824 L 14.5 260.824 L 13.1 264.424 L 19.5 264.424 L 19.5 260.824 Z" id="path869"/>
    <circle style="opacity:1;fill:#ffffff;fill-opacity:1;fill-rule:nonzero;stroke:none;stroke-width:1.24239123;stroke-linecap:square;stroke-linejoin:round;stroke-miterlimit:4;stroke-dasharray:none;stroke-opacity:1;paint-order:stroke fill markers" id="path889" cx="16.9" cy="271.409" r="3.3"/>
    <circle r="3" cy="271.409" cx="16.9" id="circle891" style="opacity:1;fill:#000000;fill-opacity:1;fill-rule:nonzero;stroke:none;stroke-width:1.12944663;stroke-linecap:square;stroke-linejoin:round;stroke-miterlimit:4;stroke-dasharray:none;stroke-opacity:1;paint-order:stroke fill markers"/>
    <circle style="opacity:1;fill:#ffffff;fill-opacity:1;fill-rule:nonzero;stroke:none;stroke-width:0.56472325;stroke-linecap:square;stroke-linejoin:round;stroke-miterlimit:4;stroke-dasharray:none;stroke-opacity:1;paint-order:stroke fill markers" id="circle893" cx="16.9" cy="271.409" r="1.5"/>
    <circle r="3.3" cy="271.532" cx="41.5" id="circle895" style="opacity:1;fill:#ffffff;fill-opacity:1;fill-rule:nonzero;stroke:none;stroke-width:1.24239123;stroke-linecap:square;stroke-linejoin:round;stroke-miterlimit:4;stroke-dasharray:none;stroke-opacity:1;paint-order:stroke fill markers"/>
    <circle style="opacity:1;fill:#000000;fill-opacity:1;fill-rule:nonzero;stroke:none;stroke-width:1.12944663;stroke-linecap:square;stroke-linejoin:round;stroke-miterlimit:4;stroke-dasharray:none;stroke-opacity:1;paint-order:stroke fill markers" id="circle897" cx="41.5" cy="271.655" r="3"/>
    <circle r="1.5" cy="271.532" cx="41.5" id="circle899" style="opacity:1;fill:#ffffff;fill-opacity:1;fill-rule:nonzero;stroke:none;stroke-width:0.56472325;stroke-linecap:square;stroke-linejoin:round;stroke-miterlimit:4;stroke-dasharray:none;stroke-opacity:1;paint-order:stroke fill markers"/>
  </g>
  <path d="M 256.671 376.176 L 215.477 376.176 L 215.477 357.578 L 256.671 308.611 L 276.38 308.611 L 276.38 358.633 L 286.595 358.633 L 286.595 376.176 L 276.38 376.176 L 276.38 391.388 L 256.671 391.388 Z M 256.671 358.633 L 256.671 333.039 L 234.908 358.633 Z" style="stroke-miterlimit: 3; white-space: pre;"/>
  <path d="M 211.201 386.399 L 180.073 386.399 L 173.535 381.476 L 173.616 381.153 Q 174.558 381.314 175.607 381.422 Q 176.656 381.53 177.679 381.583 Q 178.701 381.637 179.656 381.664 Q 180.611 381.691 181.391 381.691 Q 185.023 381.664 188.951 379.216 Q 190.028 376.66 190.028 374.05 Q 190.028 367.97 187.149 357.423 L 185.642 356.67 Q 185.723 355.056 186.1 353.361 Q 186.476 351.666 187.23 350.213 L 187.687 350.374 Q 187.848 352.15 189.032 352.608 L 192.584 353.98 Q 192.53 355.244 192.22 356.536 Q 191.911 357.827 191.427 359.065 L 190.081 358.688 Q 191.158 362.266 191.642 365.078 Q 192.126 367.889 192.126 370.337 Q 192.126 371.629 191.911 373.31 Q 191.696 374.992 191.265 377.171 Q 193.633 375.799 195.126 374.992 Q 196.619 374.185 197.319 373.835 Q 201.247 371.952 204.125 371.952 Q 211.201 371.952 211.201 379.593 Z M 206.95 379.646 Q 206.95 376.848 201.489 376.848 Q 196.727 376.848 189.167 381.557 L 189.167 381.718 L 200.601 381.718 Q 206.95 381.718 206.95 379.646 Z" transform="matrix(1.147541, 0, 0, 1.073395, -34.819431, -20.491539)" style="white-space: pre;"/>
  <path d="M 300.533 353.386 L 300.533 362.5 L 305.586 362.5 L 305.586 369.2 L 300.533 369.2 L 300.533 377.704 Q 300.533 379.238 300.826 379.735 Q 301.277 380.502 302.405 380.502 Q 303.42 380.502 305.248 379.915 L 305.924 386.254 Q 302.518 386.998 299.563 386.998 Q 296.134 386.998 294.51 386.119 Q 292.886 385.239 292.107 383.445 Q 291.329 381.652 291.329 377.637 L 291.329 369.2 L 287.945 369.2 L 287.945 362.5 L 291.329 362.5 L 291.329 358.101 Z" transform="matrix(2.180789, 0, 0, 1.088819, -329.234283, -28.452721)" style="white-space: pre;"/>
</svg>