<?xml version="1.0" encoding="utf-8"?>
<svg viewBox="0 0 500 500" xmlns="http://www.w3.org/2000/svg">
  <g id="layer1" transform="matrix(8.141567, 0, 0, 8.141567, 0.05706, -1921.894653)" style="">
    <circle style="opacity:1;fill:#dc0a14;fill-opacity:1;fill-rule:nonzero;stroke:none;stroke-width:0.18410923;stroke-linecap:square;stroke-linejoin:round;stroke-miterlimit:4;stroke-dasharray:none;stroke-opacity:1;paint-order:stroke fill markers" id="path17" cx="30.5" cy="266.5" r="30"/>
    <circle r="24" cy="266.5" cx="30.5" id="circle1748" style="opacity:1;fill:#ffffff;fill-opacity:1;fill-rule:nonzero;stroke:none;stroke-width:0.14728737;stroke-linecap:square;stroke-linejoin:round;stroke-miterlimit:4;stroke-dasharray:none;stroke-opacity:1;paint-order:stroke fill markers"/>
    <path style="clip-rule:evenodd;fill:#ffffff;fill-opacity:1;fill-rule:evenodd;stroke:none;stroke-width:0.11549114" d="M 19.5 260.824 L 14.5 260.824 L 13.1 264.424 L 19.5 264.424 L 19.5 260.824 Z" id="path869"/>
  </g>
  <path d="M 340.563 176.598 L 279.477 184.14 Q 277.064 171.319 271.408 166.04 Q 265.752 160.761 257.456 160.761 Q 242.524 160.761 234.228 175.844 Q 228.195 186.704 225.329 222.3 Q 236.34 211.138 247.954 205.784 Q 259.568 200.429 274.801 200.429 Q 304.364 200.429 324.802 221.545 Q 345.239 242.662 345.239 275.09 Q 345.239 296.96 334.907 315.06 Q 324.575 333.16 306.25 342.436 Q 287.924 351.712 260.322 351.712 Q 227.139 351.712 207.079 340.4 Q 187.018 329.087 175.027 304.276 Q 163.036 279.464 163.036 238.589 Q 163.036 178.71 188.225 150.882 Q 213.414 123.053 258.059 123.053 Q 284.455 123.053 299.764 129.162 Q 315.073 135.271 325.179 147.035 Q 335.284 158.8 340.563 176.598 Z M 227.441 275.09 Q 227.441 293.039 236.491 303.22 Q 245.54 313.401 258.663 313.401 Q 270.729 313.401 278.874 304.2 Q 287.019 295 287.019 276.749 Q 287.019 258.046 278.572 248.242 Q 270.126 238.438 257.607 238.438 Q 244.786 238.438 236.114 247.941 Q 227.441 257.443 227.441 275.09 Z" style="stroke-miterlimit: 3; white-space: pre;"/>
  <path d="M 211.201 386.399 L 180.073 386.399 L 173.535 381.476 L 173.616 381.153 Q 174.558 381.314 175.607 381.422 Q 176.656 381.53 177.679 381.583 Q 178.701 381.637 179.656 381.664 Q 180.611 381.691 181.391 381.691 Q 185.023 381.664 188.951 379.216 Q 190.028 376.66 190.028 374.05 Q 190.028 367.97 187.149 357.423 L 185.642 356.67 Q 185.723 355.056 186.1 353.361 Q 186.476 351.666 187.23 350.213 L 187.687 350.374 Q 187.848 352.15 189.032 352.608 L 192.584 353.98 Q 192.53 355.244 192.22 356.536 Q 191.911 357.827 191.427 359.065 L 190.081 358.688 Q 191.158 362.266 191.642 365.078 Q 192.126 367.889 192.126 370.337 Q 192.126 371.629 191.911 373.31 Q 191.696 374.992 191.265 377.171 Q 193.633 375.799 195.126 374.992 Q 196.619 374.185 197.319 373.835 Q 201.247 371.952 204.125 371.952 Q 211.201 371.952 211.201 379.593 Z M 206.95 379.646 Q 206.95 376.848 201.489 376.848 Q 196.727 376.848 189.167 381.557 L 189.167 381.718 L 200.601 381.718 Q 206.95 381.718 206.95 379.646 Z" transform="matrix(1.77721, 0, 0, 1.487415, -226.076904, -282.97583)" style="white-space: pre;"/>
  <path d="M 300.533 353.386 L 300.533 362.5 L 305.586 362.5 L 305.586 369.2 L 300.533 369.2 L 300.533 377.704 Q 300.533 379.238 300.826 379.735 Q 301.277 380.502 302.405 380.502 Q 303.421 380.502 305.248 379.915 L 305.925 386.254 Q 302.518 386.998 299.563 386.998 Q 296.134 386.998 294.51 386.119 Q 292.886 385.239 292.107 383.445 Q 291.329 381.652 291.329 377.637 L 291.329 369.2 L 287.945 369.2 L 287.945 362.5 L 291.329 362.5 L 291.329 358.101 Z" transform="matrix(2.597569, 0, 0, 1.296908, -389.35434, -211.727585)" style="white-space: pre;"/>
</svg>