<?xml version="1.0" encoding="utf-8"?>
<svg viewBox="0 0 1253.9417 1253.9416" width="1253.942px" height="1253.942px" xmlns="http://www.w3.org/2000/svg">
  <g transform="matrix(10.622543, 0, 0, 10.622543, 493.406281, 638.917358)" id="layer1">
    <circle cx="12.573688" cy="-1.124642" r="59.022667" id="circle4853" style="fill:#b40a00;fill-opacity:1;stroke:none;stroke-width:0.52916664;stroke-linecap:round;stroke-linejoin:round;stroke-miterlimit:4;stroke-dasharray:none;stroke-opacity:1"/>
    <circle cx="12.962574" cy="-0.8718878" r="47.808811" id="circle4853-2" style="fill:#ffffff;fill-opacity:1;stroke:none;stroke-width:0.5291667;stroke-linecap:round;stroke-linejoin:round;stroke-miterlimit:4;stroke-dasharray:none;stroke-opacity:1"/>
    <g style="stroke-width:0.51085627;fill:#000000;fill-opacity:1" transform="matrix(0.22693658,0,0,0.22693658,-101.71355,-5.0829767)" id="layer1-3">
      <path style="fill:#000000;fill-opacity:1;fill-rule:evenodd;stroke:none;stroke-width:19.36740875;stroke-linecap:butt;stroke-linejoin:round;stroke-miterlimit:4;stroke-dasharray:none" d="m 704.78426,83.59237 c 6.67183,-20.40444 10.33547,-42.182293 10.33547,-64.806416 0,-23.6608815 -3.99644,-46.393891 -11.26659,-67.599709 l -65.64447,65.737513 z m -398.95661,-1e-5 66.57556,-66.668612 -65.64446,-65.737513 c -7.27014,21.205818 -11.26659,43.9388276 -11.26659,67.599709 0,22.624123 3.66355,44.401976 10.33549,64.806416 z" id="path3712"/>
      <path style="fill: rgb(0, 0, 0); fill-opacity: 1; stroke-width: 0.173772;" d="M 361.617 113.307 C 360.809 100.58 362.789 95.798 366.108 89.702 C 368.662 85.012 375.822 82.467 380.928 82.491 C 382.41 82.497 384.01 82.442 384.907 82.422 C 388.799 82.332 388.21 82.436 388.799 82.332 C 389.388 82.228 389.969 82.112 390.089 82.075 C 390.375 81.987 388.239 80.015 386.988 78.978 C 386.478 78.555 385.555 78.146 384.365 78.021 C 383.176 77.897 382.737 77.947 382.261 78.203 C 381.402 78.665 380.463 81.154 380.813 82.161 L 380.928 82.491 C 380.928 82.491 366.899 88.31 367.54 87.74 C 368.498 86.887 370.905 83.978 371.098 83.527 C 371.639 82.256 372.719 80.499 372.804 79.897 C 373.254 76.687 375.334 72.88 376.75 69.859 C 378.167 66.839 381.727 63.648 382.953 62.811 C 384.178 61.974 387.24 61.053 389.066 61.079 C 390.891 61.104 392.879 62.096 396.161 64.174 C 399.443 66.253 402.117 70.209 403.379 71.567 C 404.64 72.924 409.091 78.452 412.061 82.79 C 413.024 84.198 413.053 85.049 411.848 87.069 C 410.265 90.011 406.978 97.385 406.415 97.981 C 406.415 97.981 406.311 98.219 406.016 98.587 C 405.721 98.954 405.253 99.211 405.253 99.211 L 377.465 99.234 L 372.766 99.31 L 373.411 114.628 C 374.049 129.793 372.095 138.924 371.632 140.876 C 371.169 142.828 370.542 144.708 369.857 146.038 C 369.857 146.038 369.253 146.782 367.688 146.736 C 366.122 146.69 365.607 144.509 365.607 144.509 L 361.617 113.307 Z" id="path11421"/>
      <path d="M 606.881 -94.356 L 623.45 -94.356 L 623.45 -87.597 Q 627.026 -91.827 630.667 -93.615 Q 634.308 -95.402 639.453 -95.402 Q 644.99 -95.402 648.217 -93.44 Q 651.444 -91.478 653.493 -87.597 Q 657.679 -92.132 661.124 -93.767 Q 664.568 -95.402 669.626 -95.402 Q 677.083 -95.402 681.269 -90.977 Q 685.455 -86.551 685.455 -77.133 L 685.455 -48.049 L 667.664 -48.049 L 667.664 -74.429 Q 667.664 -77.569 666.443 -79.095 Q 664.656 -81.493 661.996 -81.493 Q 658.856 -81.493 656.938 -79.226 Q 655.019 -76.958 655.019 -71.944 L 655.019 -48.049 L 637.229 -48.049 L 637.229 -73.557 Q 637.229 -76.609 636.88 -77.699 Q 636.313 -79.444 634.918 -80.512 Q 633.523 -81.58 631.648 -81.58 Q 628.596 -81.58 626.633 -79.269 Q 624.671 -76.958 624.671 -71.682 L 624.671 -48.049 L 606.881 -48.049 Z" style="white-space: pre;"/>
      <path d="M 623.992 125.32 L 421.001 125.32 Q 424.49 95.254 442.181 68.758 Q 459.872 42.263 508.543 6.217 Q 538.277 -15.876 546.583 -27.338 Q 554.888 -38.8 554.888 -49.099 Q 554.888 -60.229 546.666 -68.119 Q 538.443 -76.009 525.985 -76.009 Q 513.028 -76.009 504.805 -67.87 Q 496.583 -59.73 493.759 -39.132 L 425.985 -44.614 Q 429.971 -73.185 440.602 -89.215 Q 451.234 -105.245 470.586 -113.8 Q 489.938 -122.355 524.157 -122.355 Q 559.872 -122.355 579.722 -114.215 Q 599.573 -106.076 610.952 -89.215 Q 622.33 -72.355 622.33 -51.425 Q 622.33 -29.165 609.291 -8.9 Q 596.251 11.366 561.865 35.619 Q 541.433 49.738 534.54 55.386 Q 527.646 61.034 518.344 70.17 L 623.992 70.17 Z" transform="matrix(0.868943, 0, 0, 1, 53.999546, 0)" style="white-space: pre;"/>
    </g>
  </g>
</svg>