<?xml version="1.0" encoding="utf-8"?>
<svg viewBox="0 0 61 61" width="61mm" height="61mm" xmlns="http://www.w3.org/2000/svg">
  <g id="layer1" transform="matrix(1, 0, 0, 1, -24.5, -236)">
    <circle r="29.5" cy="266.5" cx="54.999985" id="circle1748" style="opacity:1;fill:#ffffff;fill-opacity:1;fill-rule:nonzero;stroke:none;stroke-width:0.18104073;stroke-linecap:square;stroke-linejoin:round;stroke-miterlimit:4;stroke-dasharray:none;stroke-opacity:1;paint-order:stroke fill markers"/>
    <path style="fill:#ffffff;fill-opacity:1;fill-rule:nonzero;stroke:none;stroke-width:0.11187789" d="m 37.77296,264.67396 0.61059,-2.86727 c 0.12145,-0.47877 0.53296,-0.76239 0.90659,-0.82256 l 1.63279,-0.15445 c 0.70083,-0.077 2.34694,-0.11178 3.22706,-0.11563 0.88013,0.004 2.52624,0.0385 3.22706,0.11563 l 1.63312,0.15445 c 0.37363,0.06 0.784823,0.34379 0.906263,0.82256 l 0.6106,2.86727 c -2.499983,-0.21898 -4.867043,-0.26837 -6.377043,-0.29566 -1.51002,0.0275 -3.87706,0.0764 -6.37703,0.29566 z" id="path836"/>
    <path id="path837" d="m 72.227033,264.67396 -0.61059,-2.86727 c -0.121449,-0.47877 -0.532961,-0.76239 -0.906589,-0.82256 l -1.632792,-0.15445 c -0.700828,-0.077 -2.346938,-0.11178 -3.227059,-0.11563 -0.880129,0.004 -2.526239,0.0385 -3.227059,0.11563 l -1.633121,0.15445 c -0.37363,0.06 -0.784823,0.34379 -0.906263,0.82256 l -0.6106,2.86727 c 2.499983,-0.21898 4.867042,-0.26837 6.377043,-0.29566 1.510019,0.0275 3.877061,0.0764 6.37703,0.29566 z" style="fill:#ffffff;fill-opacity:1;fill-rule:nonzero;stroke:none;stroke-width:0.11187789"/>
    <path id="path839" d="M 72.882 242.558 L 76.072 245.428 L 78.942 248.552 L 37.383 290.508 L 33.928 287.572 L 31.52 284.778 L 72.882 242.558 Z" style="fill: rgb(0, 0, 0); fill-opacity: 1; fill-rule: nonzero; stroke: none; stroke-width: 0.105836; stroke-linecap: square; stroke-linejoin: round; stroke-miterlimit: 4; stroke-dasharray: none; stroke-opacity: 1; paint-order: stroke; opacity: 0.63;"/>
    <path id="path841" d="M 55.000236,236.50005 A 30,30 0 0 0 25,266.50029 30,30 0 0 0 55.000236,296.5 30,30 0 0 0 84.999953,266.50029 30,30 0 0 0 55.000236,236.50005 Z m 0,0.99994 a 29,29 0 0 1 28.99978,29.0003 29,29 0 0 1 -28.99978,28.99978 29,29 0 0 1 -29.000297,-28.99978 29,29 0 0 1 29.000297,-29.0003 z" style="opacity:1;fill:#000000;fill-opacity:1;fill-rule:nonzero;stroke:none;stroke-width:0.1841092;stroke-linecap:square;stroke-linejoin:round;stroke-miterlimit:4;stroke-dasharray:none;stroke-opacity:1;paint-order:stroke fill markers"/>
    <path d="M 36.671 252.762 L 53.905 252.762 L 53.905 258.554 L 42.231 258.554 L 41.608 262.475 Q 42.819 261.904 44.005 261.619 Q 45.19 261.334 46.348 261.334 Q 50.269 261.334 52.711 263.704 Q 55.152 266.075 55.152 269.675 Q 55.152 272.206 53.896 274.54 Q 52.639 276.875 50.332 278.105 Q 48.024 279.335 44.423 279.335 Q 41.839 279.335 39.995 278.844 Q 38.15 278.354 36.858 277.383 Q 35.566 276.412 34.764 275.182 Q 33.962 273.952 33.427 272.117 L 40.77 271.315 Q 41.037 273.079 42.017 273.997 Q 42.998 274.915 44.352 274.915 Q 45.867 274.915 46.856 273.765 Q 47.845 272.616 47.845 270.334 Q 47.845 268 46.847 266.912 Q 45.849 265.825 44.192 265.825 Q 43.14 265.825 42.16 266.342 Q 41.429 266.716 40.556 267.697 L 34.372 266.806 Z M 57.214 265.718 Q 57.214 258.269 59.897 255.292 Q 62.579 252.316 68.068 252.316 Q 70.706 252.316 72.399 252.967 Q 74.092 253.617 75.161 254.66 Q 76.231 255.702 76.846 256.852 Q 77.461 258.001 77.835 259.534 Q 78.566 262.457 78.566 265.629 Q 78.566 272.74 76.16 276.037 Q 73.754 279.335 67.872 279.335 Q 64.575 279.335 62.543 278.283 Q 60.512 277.232 59.211 275.2 Q 58.266 273.756 57.74 271.252 Q 57.214 268.748 57.214 265.718 Z M 64.415 265.736 Q 64.415 270.726 65.297 272.553 Q 66.179 274.38 67.854 274.38 Q 68.959 274.38 69.77 273.605 Q 70.581 272.829 70.964 271.154 Q 71.348 269.479 71.348 265.932 Q 71.348 260.728 70.465 258.937 Q 69.583 257.146 67.819 257.146 Q 66.019 257.146 65.217 258.973 Q 64.415 260.799 64.415 265.736 Z" style="white-space: pre; opacity: 0.73;"/>
  </g>
</svg>