<?xml version="1.0" encoding="utf-8"?>
<svg viewBox="0 0 1253.9417 1253.9416" width="500px" height="500px" xmlns="http://www.w3.org/2000/svg">
  <g transform="matrix(10.622543, 0, 0, 10.622543, 493.406281, 638.917358)" id="layer1">
    <circle cx="12.574" cy="-1.125" r="59.023" id="circle4853" style="fill:#b40a00;fill-opacity:1;stroke:none;stroke-width:0.52916664;stroke-linecap:round;stroke-linejoin:round;stroke-miterlimit:4;stroke-dasharray:none;stroke-opacity:1"/>
    <circle cx="12.962574" cy="-0.8718878" r="47.808811" id="circle4853-2" style="fill:#ffffff;fill-opacity:1;stroke:none;stroke-width:0.5291667;stroke-linecap:round;stroke-linejoin:round;stroke-miterlimit:4;stroke-dasharray:none;stroke-opacity:1"/>
    <g style="stroke-width:0.51085627" transform="matrix(0.22693658,0,0,0.22693658,-101.71355,-5.0829767)" id="layer1-3">
      <path d="m 103.7057,68.890899 c 0,6.302255 -1.05205,11.09161 -3.15614,14.411329 -2.09659,3.328334 -5.342894,4.97952 -9.723923,4.97952 -2.524907,0 -4.711664,-0.449512 -6.575286,-1.348615 -1.863631,-0.899064 -3.231291,-2.290942 -4.118015,-4.140986 -1.510436,2.887473 -3.411636,5.057356 -5.711107,6.527031 -2.314505,1.469637 -5.072368,2.204494 -8.296141,2.204494 1.615642,3.708701 2.772896,6.535642 3.46424,8.515358 1.262454,3.59633 2.239356,7.4261 2.915672,11.48063 0.676315,4.05454 1.014474,8.94765 1.014474,14.67069 0,3.19 -0.120238,6.27629 -0.360702,9.23291 -0.240478,2.95658 -0.89424,8.32516 -1.946288,16.07113 H 68.61994 c 0,-11.13484 -0.616198,-20.264 -1.841079,-27.39617 -1.232399,-7.13218 -3.328976,-14.06549 -6.312281,-20.8 C 58.182137,98.188993 54.176843,90.754243 48.428161,80.985328 l 4.81687,-18.102726 c 2.2619,4.322537 4.70415,7.598993 7.326753,9.812139 2.915674,2.46384 6.154475,3.700087 9.731432,3.700087 3.697193,0 6.597836,-1.461022 8.686897,-4.383067 1.78097,-2.524332 3.028393,-6.103398 3.727253,-10.745775 h 2.352073 c 0.353187,4.590499 1.134709,7.815116 2.37462,9.656507 1.239919,1.850045 3.005851,2.766414 5.305323,2.766414 4.636519,0 7.394388,-4.140987 8.288618,-12.431573 h 2.35208 c 0,1.106572 0.0601,2.576209 0.16533,4.426253 0.11272,1.841391 0.15029,2.913392 0.15029,3.207312 z" id="path1072" style="fill:#ffffff;fill-opacity:1;stroke-width:0.13516407"/>
      <path d="m 156.23547,107.06633 c 0,10.36271 -1.91837,18.90996 -5.72352,25.68243 -4.34157,7.72104 -10.48787,11.57648 -18.4579,11.57648 -4.48669,0 -8.02051,-1.25456 -10.62671,-3.77381 -2.96589,-2.8661 -4.44253,-7.02752 -4.44253,-12.47406 0,-4.85496 0.81406,-11.31129 2.45476,-19.3893 1.84893,-9.097998 4.07652,-16.574261 6.67008,-22.439003 3.18675,-7.180436 6.48077,-10.770689 9.8947,-10.770689 4.36047,0 8.82192,3.559625 13.39066,10.678904 4.55609,7.109079 6.84046,14.085588 6.84046,20.909048 z m -4.15225,9.66917 c 0,-3.41683 -1.47663,-7.09887 -4.42988,-11.05629 -2.48,-3.29448 -5.57839,-6.293128 -9.30783,-8.985796 -3.44549,-2.458115 -6.02014,-3.682038 -7.7555,-3.682038 -2.44213,0 -4.46772,2.702886 -6.09583,8.088234 -1.33149,4.3756 -1.98777,8.7206 -1.98777,13.035 0,4.90596 1.2684,8.50642 3.81778,10.79111 2.32224,2.10109 5.78032,3.16187 10.36169,3.16187 4.50559,0 8.19717,-1.09136 11.08103,-3.28428 2.87755,-2.21328 4.31631,-4.90595 4.31631,-8.06781 z" id="path1076-4" style="fill:#ffffff;fill-opacity:1;stroke-width:0.13516405"/>
      <path d="M 505.488 -120.48 L 355.433 14.576 L 396.357 14.576 L 396.357 137.349 L 478.205 137.349 L 478.205 41.859 C 498.965 10.099 538.748 36.877 532.771 41.859 L 532.771 137.349 L 614.62 137.349 L 614.62 14.576 L 655.543 14.576 L 505.488 -120.48 Z" style=""/>
    </g>
  </g>
  <path d="M 450.254 84.295 L 455.721 93.898 Q 456.745 95.698 457.63 95.998 Q 458.516 96.298 460.517 95.158 Q 461.439 94.633 462.603 93.852 L 465.432 98.822 Q 462.79 100.981 461.508 101.711 Q 457.325 104.093 454.655 103.483 Q 451.986 102.874 449.591 98.668 L 443.574 88.098 L 439.976 90.146 L 437.006 84.928 L 440.986 82.662 L 437.711 75.653 L 443.212 71.926 L 447.284 79.077 L 452.186 76.286 L 455.157 81.504 Z M 489.462 80.167 L 473.924 86.611 Q 474.167 87.266 474.366 87.744 Q 475.436 90.326 477.356 91.07 Q 479.276 91.815 481.188 91.022 Q 484.75 89.545 483.891 85.447 L 490.543 83.248 Q 491.312 92.735 483.041 96.165 Q 479.431 97.662 476.309 97.262 Q 473.188 96.861 470.4 94.767 Q 467.613 92.674 466.007 88.801 Q 463.618 83.04 465.437 78.139 Q 467.257 73.238 472.421 71.097 Q 477.082 69.163 481.78 71.067 Q 486.478 72.971 489.462 80.167 Z M 472.185 82.485 L 480.766 78.926 Q 478.37 74.093 474.617 75.649 Q 470.601 77.314 472.185 82.485 Z M 509.169 61.558 Q 515.118 60.972 518.836 64.532 Q 522.555 68.092 523.131 73.939 Q 523.699 79.707 520.614 83.899 Q 517.53 88.091 511.786 88.656 Q 506.224 89.204 502.513 85.721 Q 498.802 82.238 498.214 76.263 Q 497.805 72.117 499.026 69.071 Q 500.247 66.025 502.699 63.989 Q 505.151 61.954 509.169 61.558 Z M 509.87 66.56 Q 507.68 66.775 506.739 68.571 Q 505.798 70.367 506.293 75.389 Q 506.747 79.999 508.001 81.904 Q 509.255 83.809 511.495 83.588 Q 513.452 83.395 514.494 81.563 Q 515.536 79.732 515.061 74.916 Q 514.557 69.79 513.308 68.067 Q 512.059 66.344 509.87 66.56 Z M 538.998 84.484 L 531.631 85.774 L 527.125 60.027 L 534.084 58.809 L 534.923 63.602 Q 535.592 57.968 539.543 57.276 Q 540.104 57.178 540.933 57.112 L 542.245 64.606 Q 539.925 65.012 538.763 65.951 Q 537.6 66.89 537.108 68.881 Q 536.616 70.872 537.164 74.007 Z M 554.926 54.432 L 559.652 80.139 L 552.067 81.534 L 547.341 55.827 Z M 553.134 44.684 L 554.528 52.269 L 546.943 53.663 L 545.549 46.078 Z M 590.867 76.736 L 583.409 77.304 Q 582.93 75.784 582.737 73.255 Q 580.989 76.191 579.11 77.256 Q 577.232 78.32 574.755 78.509 Q 571.09 78.788 568.681 76.974 Q 566.272 75.159 566.016 71.804 Q 565.829 69.353 566.988 67.188 Q 568.146 65.024 570.973 63.627 Q 573.799 62.231 581.471 61.075 L 581.357 59.578 Q 581.068 55.785 577.275 56.074 Q 573.223 56.383 573.048 60.212 L 565.901 60.082 Q 566.259 55.591 569.627 53.465 Q 572.995 51.34 577.433 51.001 Q 580.091 50.799 582.486 51.239 Q 584.881 51.679 586.292 52.817 Q 587.702 53.956 588.272 55.301 Q 588.842 56.646 589.103 60.078 L 590.005 71.896 Q 590.264 75.302 590.867 76.736 Z M 581.76 64.868 Q 573.745 66.284 574.056 70.361 Q 574.16 71.729 575.087 72.657 Q 576.014 73.586 577.588 73.466 Q 579.627 73.31 580.879 71.515 Q 582.13 69.719 581.941 67.242 Z M 606.807 76.048 L 598.811 76.146 L 598.713 68.15 L 606.709 68.052 Z M 615.222 84.904 L 615.222 49.941 L 622.313 49.941 L 622.313 53.771 Q 624.28 49.398 629.197 49.398 Q 633.441 49.398 636.145 52.801 Q 638.85 56.204 638.85 62.7 Q 638.85 69.609 636.12 73.116 Q 633.389 76.622 629.016 76.622 Q 624.591 76.622 622.701 73.181 L 622.701 84.904 Z M 622.701 64.641 Q 622.701 67.41 623.038 68.471 Q 623.374 69.532 624.461 70.373 Q 625.548 71.214 626.816 71.214 Q 628.395 71.214 629.637 69.596 Q 630.879 67.979 630.879 62.467 Q 630.879 54.729 626.79 54.729 Q 625.237 54.729 623.969 56.1 Q 622.701 57.472 622.701 60.759 Z M 682.791 83.262 L 675.338 81.28 L 679.056 67.3 Q 679.84 64.348 679.901 63.414 Q 679.962 62.48 679.381 61.696 Q 678.799 60.912 677.499 60.566 Q 676.273 60.24 674.765 60.776 Q 673.257 61.313 672.153 65.464 L 668.436 79.445 L 661.008 77.47 L 664.725 63.489 Q 665.53 60.463 665.491 59.502 Q 665.452 58.541 664.835 57.788 Q 664.219 57.035 663.043 56.722 Q 661.117 56.21 659.857 57.174 Q 658.597 58.138 657.672 61.614 L 653.955 75.594 L 646.727 73.673 L 653.443 48.413 L 660.446 50.275 L 659.422 54.126 Q 662.362 50.221 667.689 51.638 Q 672.516 52.921 673.503 57.87 Q 676.767 54.052 681.994 55.442 Q 684.495 56.107 686.023 57.611 Q 687.551 59.115 687.888 60.972 Q 688.224 62.829 687.154 66.855 Z M 699.624 56.749 L 699.508 82.887 L 691.796 82.852 L 691.912 56.715 Z M 699.668 46.838 L 699.633 54.549 L 691.922 54.515 L 691.956 46.804 Z M 731.357 58.153 L 723.191 69.819 L 731.227 84.321 L 722.441 83.851 L 717.495 74.568 L 711.691 83.276 L 705.101 82.924 L 714.457 69.352 L 707.686 56.887 L 716.472 57.357 L 720.255 64.634 L 724.767 57.8 Z M 744.312 84.813 L 736.345 84.126 L 737.032 76.159 L 744.999 76.846 Z M 774.515 91.79 L 766.944 90.326 L 769.729 75.92 Q 770.235 73.303 770.219 72.298 Q 770.202 71.293 769.545 70.468 Q 768.887 69.642 767.693 69.411 Q 763.704 68.64 762.564 74.534 L 759.779 88.941 L 752.207 87.477 L 757.169 61.814 L 764.207 63.175 L 763.367 67.52 Q 765.72 64.759 767.594 64.199 Q 769.468 63.639 771.45 64.022 Q 775.109 64.73 776.964 67.131 Q 778.819 69.533 777.704 75.3 Z M 808.195 86.817 L 791.632 83.878 Q 791.485 84.561 791.394 85.071 Q 790.906 87.823 792.122 89.484 Q 793.339 91.145 795.377 91.507 Q 799.174 92.181 800.657 88.265 L 807.447 89.996 Q 802.985 98.403 794.168 96.838 Q 790.321 96.156 787.906 94.137 Q 785.491 92.118 784.271 88.853 Q 783.05 85.587 783.782 81.459 Q 784.872 75.318 789.045 72.169 Q 793.218 69.02 798.722 69.997 Q 803.691 70.879 806.624 75.013 Q 809.556 79.147 808.195 86.817 Z M 792.389 79.465 L 801.537 81.088 Q 802.121 75.725 798.12 75.015 Q 793.84 74.255 792.389 79.465 Z M 829.917 84.281 L 825.147 94.249 Q 824.253 96.116 824.512 97.015 Q 824.77 97.913 826.848 98.907 Q 827.805 99.365 829.11 99.875 L 826.642 105.034 Q 823.361 104.095 822.031 103.459 Q 817.689 101.381 816.667 98.84 Q 815.644 96.3 817.733 91.935 L 822.984 80.963 L 819.249 79.176 L 821.84 73.76 L 825.972 75.737 L 829.861 69.049 L 836.061 71.442 L 832.508 78.865 L 837.597 81.3 L 835.006 86.716 Z" transform="matrix(1, 0, 0, 1, -8.1513, -6.792749)" style="fill: rgb(51, 51, 51); white-space: pre; mix-blend-mode: color-dodge; opacity: 0.28;"/>
</svg>