<?xml version="1.0" encoding="utf-8"?>
<svg viewBox="0 0 683.37695 683.37695" width="683.377px" height="683.377px" xmlns="http://www.w3.org/2000/svg" xmlns:bx="https://boxy-svg.com">
  <g id="layer1" transform="matrix(5.789094, 0, 0, 5.789094, 268.898224, 348.199249)">
    <path id="circle4853" transform="matrix(0.17273859,0,0,0.17273859,73.158541,-109.65662)" style="fill: rgb(180, 10, 0); fill-opacity: 1; stroke: none; stroke-width: 3.0634; stroke-linecap: round; stroke-linejoin: round; stroke-miterlimit: 4; stroke-dasharray: none; stroke-opacity: 1;" d="m -350.73047,286.61328 c -188.71025,-9.1e-4 -341.69036,152.9792 -341.68945,341.68945 1.7e-4,188.70949 152.97996,341.68841 341.68945,341.6875 C -162.02174,969.99006 -9.0431345,817.01146 -9.0429688,628.30273 -9.0420575,439.59324 -162.02098,286.61345 -350.73047,286.61328 Z"/>
    <path id="circle4853-2" transform="matrix(0.17273859,0,0,0.17273859,73.158541,-109.65662)" style="fill-opacity: 1; stroke: none; stroke-width: 3.0634; stroke-linecap: round; stroke-linejoin: round; stroke-miterlimit: 4; stroke-dasharray: none; stroke-opacity: 1; fill: rgb(255, 255, 255);" d="m -348.48047,352.99609 c -152.85554,1.1e-4 -276.76942,123.91399 -276.76953,276.76953 10e-5,152.85555 123.91398,276.76943 276.76953,276.76954 152.85555,-1.1e-4 276.769427,-123.91399 276.769532,-276.76954 C -71.711048,476.91007 -195.62492,352.9962 -348.48047,352.99609 Z"/>
    <g id="g-1" transform="matrix(1.668308, 0, 0, 1.668308, -79.307884, -445.134613)" style="">
      <circle r="29.5" cy="266.5" cx="54.999985" id="circle1748" style="opacity: 1; fill: rgb(255, 255, 255); fill-opacity: 1; fill-rule: nonzero; stroke: none; stroke-width: 0.181041; stroke-linecap: square; stroke-linejoin: round; stroke-miterlimit: 4; stroke-dasharray: none; stroke-opacity: 1; paint-order: stroke; visibility: hidden;"/>
      <path style="fill:#ffffff;fill-opacity:1;fill-rule:nonzero;stroke:none;stroke-width:0.11187789" d="m 37.77296,264.67396 0.61059,-2.86727 c 0.12145,-0.47877 0.53296,-0.76239 0.90659,-0.82256 l 1.63279,-0.15445 c 0.70083,-0.077 2.34694,-0.11178 3.22706,-0.11563 0.88013,0.004 2.52624,0.0385 3.22706,0.11563 l 1.63312,0.15445 c 0.37363,0.06 0.784823,0.34379 0.906263,0.82256 l 0.6106,2.86727 c -2.499983,-0.21898 -4.867043,-0.26837 -6.377043,-0.29566 -1.51002,0.0275 -3.87706,0.0764 -6.37703,0.29566 z" id="path836"/>
      <path id="path837" d="m 72.227033,264.67396 -0.61059,-2.86727 c -0.121449,-0.47877 -0.532961,-0.76239 -0.906589,-0.82256 l -1.632792,-0.15445 c -0.700828,-0.077 -2.346938,-0.11178 -3.227059,-0.11563 -0.880129,0.004 -2.526239,0.0385 -3.227059,0.11563 l -1.633121,0.15445 c -0.37363,0.06 -0.784823,0.34379 -0.906263,0.82256 l -0.6106,2.86727 c 2.499983,-0.21898 4.867042,-0.26837 6.377043,-0.29566 1.510019,0.0275 3.877061,0.0764 6.37703,0.29566 z" style="fill:#ffffff;fill-opacity:1;fill-rule:nonzero;stroke:none;stroke-width:0.11187789"/>
      <rect x="35.867" y="246.904" width="38.86" height="38.86" style="fill: rgb(47, 70, 133);"/>
      <path d="M 55.146 248.583 L 73.764 282.746 L 36.527 282.746 L 55.146 248.583 Z" style="fill: rgb(255, 255, 255);" bx:shape="triangle 36.527 248.583 37.237 34.163 0.5 0 1@f074fcc7"/>
      <path d="M 36.671 252.762 L 53.905 252.762 L 53.905 258.554 L 42.231 258.554 L 41.608 262.475 Q 42.819 261.904 44.005 261.619 Q 45.19 261.334 46.348 261.334 Q 50.269 261.334 52.711 263.704 Q 55.152 266.075 55.152 269.675 Q 55.152 272.206 53.896 274.54 Q 52.639 276.875 50.332 278.105 Q 48.024 279.335 44.423 279.335 Q 41.839 279.335 39.995 278.844 Q 38.15 278.354 36.858 277.383 Q 35.566 276.412 34.764 275.182 Q 33.962 273.952 33.427 272.117 L 40.77 271.315 Q 41.037 273.079 42.017 273.997 Q 42.998 274.915 44.352 274.915 Q 45.867 274.915 46.856 273.765 Q 47.845 272.616 47.845 270.334 Q 47.845 268 46.847 266.912 Q 45.849 265.825 44.192 265.825 Q 43.14 265.825 42.16 266.342 Q 41.429 266.716 40.556 267.697 L 34.372 266.806 Z M 57.214 265.718 Q 57.214 258.269 59.897 255.292 Q 62.579 252.316 68.068 252.316 Q 70.706 252.316 72.399 252.967 Q 74.092 253.617 75.161 254.66 Q 76.231 255.702 76.846 256.852 Q 77.461 258.001 77.835 259.534 Q 78.566 262.457 78.566 265.629 Q 78.566 272.74 76.16 276.037 Q 73.754 279.335 67.872 279.335 Q 64.575 279.335 62.543 278.283 Q 60.512 277.232 59.211 275.2 Q 58.266 273.756 57.74 271.252 Q 57.214 268.748 57.214 265.718 Z M 64.415 265.736 Q 64.415 270.726 65.297 272.553 Q 66.179 274.38 67.854 274.38 Q 68.959 274.38 69.77 273.605 Q 70.581 272.829 70.964 271.154 Q 71.348 269.479 71.348 265.932 Q 71.348 260.728 70.465 258.937 Q 69.583 257.146 67.819 257.146 Q 66.019 257.146 65.217 258.973 Q 64.415 260.799 64.415 265.736 Z" style="visibility: hidden; white-space: pre; opacity: 0.73;"/>
      <path d="M 59.107 271.85 Q 59.107 272.078 59.067 272.32 Q 59.028 272.562 58.966 272.79 Q 58.905 273.019 58.83 273.221 Q 58.755 273.423 58.694 273.564 Q 58.272 273.827 57.67 274.086 Q 57.068 274.346 56.307 274.552 Q 55.547 274.759 54.651 274.886 Q 53.754 275.014 52.743 275.014 Q 52.163 275.014 51.64 274.877 Q 51.117 274.741 50.722 274.464 Q 50.326 274.188 50.093 273.77 Q 49.861 273.353 49.861 272.79 Q 49.861 272.421 49.957 272.096 Q 50.054 271.771 50.181 271.529 Q 50.309 271.287 50.423 271.142 Q 50.537 270.997 50.581 270.997 Q 50.634 270.997 50.634 271.05 Q 50.546 271.243 50.489 271.375 Q 50.432 271.507 50.388 271.683 Q 50.344 271.858 50.344 272.078 Q 50.344 272.456 50.529 272.799 Q 50.713 273.142 51.078 273.405 Q 51.443 273.669 51.983 273.823 Q 52.524 273.977 53.236 273.977 Q 53.912 273.977 54.673 273.867 Q 55.433 273.757 56.154 273.581 Q 56.874 273.405 57.503 273.177 Q 58.131 272.948 58.553 272.711 Q 58.553 272.333 58.447 271.981 Q 58.342 271.63 58.14 271.366 Q 58.14 271.261 58.179 271.098 Q 58.219 270.936 58.272 270.769 Q 58.324 270.602 58.386 270.448 Q 58.447 270.294 58.5 270.206 Q 58.571 270.276 58.676 270.448 Q 58.781 270.619 58.878 270.843 Q 58.975 271.067 59.041 271.327 Q 59.107 271.586 59.107 271.85 Z M 54.712 268.07 L 55.591 268.686 L 55.152 269.608 L 54.264 268.993 Z M 53.253 268.343 L 54.141 268.949 L 53.693 269.872 L 52.814 269.266 Z" transform="matrix(1.22739, 0.111128, -0.128062, 1.225857, 22.292294, -67.18766)" style="white-space: pre;"/>
    </g>
  </g>
  <g style="visibility: hidden;"/>
  <path d="M 210.687 56.494 L 214.686 63.506 C 215.186 64.382 215.652 64.893 216.084 65.039 C 216.516 65.185 217.22 64.981 218.196 64.425 C 218.645 64.17 219.154 63.852 219.722 63.472 L 221.791 67.101 C 220.504 68.152 219.546 68.855 218.92 69.21 C 216.881 70.369 215.209 70.8 213.907 70.503 C 212.605 70.207 211.37 69.036 210.202 66.988 L 205.8 59.271 L 203.168 60.766 L 200.995 56.956 L 203.907 55.302 L 201.511 50.185 L 205.535 47.463 L 208.514 52.685 L 212.1 50.647 L 214.274 54.456 L 210.687 56.494 Z M 239.372 53.481 L 228.004 58.185 C 228.123 58.504 228.231 58.78 228.328 59.013 C 228.85 60.27 229.579 61.079 230.516 61.441 C 231.452 61.804 232.386 61.792 233.319 61.406 C 235.056 60.688 235.716 59.33 235.296 57.335 L 240.163 55.73 C 240.538 60.347 238.708 63.492 234.675 65.16 C 232.913 65.889 231.272 66.157 229.75 65.962 C 228.226 65.767 226.786 65.16 225.426 64.14 C 224.067 63.122 222.996 61.67 222.212 59.784 C 221.047 56.981 220.907 54.386 221.795 52 C 222.683 49.614 224.386 47.902 226.905 46.859 C 229.178 45.917 231.461 45.91 233.752 46.837 C 236.044 47.764 237.917 49.978 239.372 53.481 Z M 226.732 55.173 L 233.01 52.574 C 231.841 50.223 230.342 49.425 228.511 50.182 C 226.552 50.992 225.959 52.656 226.732 55.173 Z M 253.79 39.894 C 256.692 39.609 259.049 40.333 260.862 42.065 C 262.676 43.799 263.724 46.087 264.005 48.934 C 264.282 51.741 263.668 54.165 262.163 56.205 C 260.66 58.246 258.506 59.404 255.705 59.678 C 252.992 59.946 250.73 59.231 248.921 57.535 C 247.111 55.84 246.062 53.539 245.775 50.631 C 245.575 48.612 245.774 46.862 246.369 45.38 C 246.964 43.897 247.86 42.66 249.056 41.669 C 250.252 40.679 251.83 40.087 253.79 39.894 Z M 254.303 43.546 C 253.235 43.651 252.471 44.14 252.012 45.015 C 251.554 45.889 251.444 47.548 251.686 49.992 C 251.908 52.237 252.324 53.822 252.936 54.749 C 253.548 55.676 254.4 56.086 255.492 55.978 C 256.447 55.884 257.178 55.392 257.686 54.5 C 258.195 53.609 258.332 51.991 258.101 49.647 C 257.855 47.152 257.428 45.485 256.818 44.646 C 256.209 43.808 255.37 43.441 254.303 43.546 Z M 275.613 56.633 L 270.224 57.574 L 266.927 38.776 L 272.019 37.887 L 272.632 41.386 C 272.958 38.644 274.085 37.105 276.012 36.768 C 276.286 36.721 276.624 36.68 277.029 36.648 L 277.989 42.12 C 276.857 42.317 276.008 42.644 275.441 43.102 C 274.875 43.558 274.471 44.272 274.23 45.24 C 273.99 46.21 274.005 47.457 274.272 48.983 L 275.613 56.633 Z M 287.267 34.691 L 290.724 53.46 L 285.175 54.478 L 281.717 35.71 L 287.267 34.691 Z M 285.955 27.574 L 286.975 33.113 L 281.426 34.13 L 280.406 28.592 L 285.955 27.574 Z M 313.561 50.975 L 308.105 51.391 C 307.872 50.651 307.708 49.665 307.614 48.434 C 306.761 49.864 305.876 50.837 304.96 51.355 C 304.044 51.874 302.981 52.178 301.774 52.27 C 299.986 52.406 298.505 52.033 297.33 51.149 C 296.155 50.266 295.505 49.008 295.38 47.374 C 295.288 46.182 295.526 45.059 296.091 44.004 C 296.656 42.952 297.628 42.085 299.007 41.405 C 300.385 40.726 302.945 40.105 306.687 39.541 L 306.603 38.448 C 306.462 36.602 305.468 35.75 303.618 35.89 C 301.641 36.041 300.61 37.048 300.525 38.911 L 295.296 38.817 C 295.471 36.631 296.38 35.021 298.022 33.985 C 299.664 32.951 301.568 32.352 303.733 32.186 C 305.029 32.088 306.261 32.146 307.429 32.361 C 308.598 32.575 309.526 32.959 310.214 33.513 C 310.902 34.067 311.385 34.672 311.663 35.326 C 311.941 35.981 312.144 37.143 312.271 38.813 L 312.931 47.442 C 313.058 49.1 313.268 50.278 313.561 50.975 Z M 306.899 42.311 C 302.989 43 301.111 44.337 301.262 46.321 C 301.313 46.987 301.565 47.546 302.017 47.998 C 302.469 48.45 303.079 48.646 303.846 48.588 C 304.84 48.512 305.643 48.037 306.254 47.164 C 306.864 46.29 307.124 45.25 307.031 44.044 L 306.899 42.311 Z M 325.223 50.473 L 319.374 50.545 L 319.301 44.707 L 325.152 44.636 L 325.223 50.473 Z M 331.38 56.939 L 331.38 31.412 L 336.567 31.412 L 336.567 34.209 C 337.527 32.08 339.206 31.016 341.604 31.016 C 343.674 31.016 345.368 31.845 346.687 33.5 C 348.007 35.158 348.666 37.567 348.666 40.728 C 348.666 44.091 348.001 46.626 346.669 48.333 C 345.337 50.04 343.604 50.892 341.472 50.892 C 339.313 50.892 337.773 50.055 336.851 48.38 L 336.851 56.939 L 331.38 56.939 Z M 336.851 42.145 C 336.851 43.493 336.933 44.425 337.098 44.941 C 337.262 45.458 337.609 45.921 338.139 46.33 C 338.67 46.74 339.244 46.944 339.863 46.944 C 340.633 46.944 341.321 46.55 341.926 45.763 C 342.532 44.976 342.835 43.241 342.835 40.558 C 342.835 36.792 341.838 34.908 339.843 34.908 C 339.086 34.908 338.397 35.242 337.78 35.91 C 337.162 36.578 336.851 37.711 336.851 39.31 L 336.851 42.145 Z M 380.814 55.74 L 375.361 54.293 L 378.082 44.086 C 378.464 42.65 378.67 41.704 378.7 41.249 C 378.73 40.795 378.603 40.377 378.32 39.995 C 378.036 39.614 377.577 39.339 376.943 39.17 C 376.345 39.012 375.678 39.063 374.943 39.324 C 374.207 39.585 373.57 40.726 373.032 42.746 L 370.312 52.953 L 364.878 51.511 L 367.597 41.304 C 367.989 39.831 368.176 38.861 368.158 38.393 C 368.138 37.926 367.978 37.509 367.677 37.142 C 367.377 36.775 366.94 36.516 366.367 36.364 C 365.427 36.114 364.65 36.224 364.036 36.693 C 363.421 37.163 362.888 38.244 362.437 39.935 L 359.717 50.141 L 354.429 48.739 L 359.343 30.297 L 364.466 31.656 L 363.717 34.468 C 365.151 32.568 367.168 31.962 369.766 32.652 C 372.12 33.277 373.538 34.793 374.019 37.202 C 375.611 35.344 377.682 34.753 380.231 35.429 C 381.451 35.753 382.434 36.281 383.179 37.012 C 383.924 37.745 384.378 38.562 384.543 39.466 C 384.707 40.37 384.528 41.802 384.006 43.761 L 380.814 55.74 Z M 393.13 36.383 L 393.044 55.467 L 387.403 55.441 L 387.487 36.358 L 393.13 36.383 Z M 393.162 29.147 L 393.136 34.777 L 387.494 34.752 L 387.519 29.122 L 393.162 29.147 Z M 416.346 37.408 L 410.371 45.925 L 416.251 56.514 L 409.823 56.17 L 406.204 49.393 L 401.958 55.75 L 397.136 55.493 L 403.981 45.585 L 399.028 36.483 L 405.456 36.827 L 408.224 42.14 L 411.524 37.151 L 416.346 37.408 Z M 425.824 56.873 L 419.995 56.371 L 420.498 50.554 L 426.326 51.056 L 425.824 56.873 Z M 447.921 61.967 L 442.382 60.898 L 444.419 50.379 C 444.666 49.107 444.786 48.224 444.778 47.736 C 444.77 47.247 444.605 46.801 444.284 46.399 C 443.964 45.997 443.512 45.74 442.93 45.627 C 440.984 45.253 439.733 46.499 439.177 49.368 L 437.14 59.886 L 431.6 58.817 L 435.231 40.081 L 440.379 41.074 L 439.765 44.247 C 440.913 42.903 441.944 42.095 442.857 41.823 C 443.771 41.55 444.712 41.507 445.678 41.693 C 447.463 42.038 448.807 42.795 449.713 43.963 C 450.618 45.133 450.798 47.121 450.254 49.927 L 447.921 61.967 Z M 472.561 58.336 L 460.444 56.19 C 460.372 56.523 460.315 56.813 460.27 57.061 C 460.032 58.401 460.209 59.475 460.802 60.283 C 461.396 61.091 462.19 61.584 463.184 61.76 C 465.036 62.088 466.323 61.3 467.047 59.393 L 472.015 60.657 C 469.838 64.749 466.6 66.414 462.3 65.652 C 460.423 65.321 458.896 64.662 457.718 63.68 C 456.54 62.698 455.653 61.411 455.058 59.822 C 454.463 58.233 454.344 56.433 454.701 54.424 C 455.233 51.435 456.516 49.174 458.552 47.641 C 460.587 46.109 462.947 45.581 465.631 46.056 C 468.055 46.485 469.982 47.706 471.413 49.717 C 472.842 51.73 473.225 54.603 472.561 58.336 Z M 460.998 52.968 L 467.691 54.153 C 467.975 51.543 467.142 50.065 465.191 49.719 C 463.104 49.35 461.706 50.432 460.998 52.968 Z M 488.454 56.484 L 484.964 63.762 C 484.528 64.671 484.373 65.344 484.499 65.781 C 484.626 66.218 485.195 66.679 486.209 67.162 C 486.675 67.386 487.227 67.621 487.863 67.869 L 486.058 71.636 C 484.458 71.179 483.333 70.796 482.684 70.487 C 480.566 69.475 479.258 68.351 478.76 67.114 C 478.261 65.878 478.521 64.197 479.54 62.073 L 483.382 54.061 L 480.649 52.757 L 482.544 48.802 L 485.568 50.246 L 488.412 45.364 L 492.949 47.111 L 490.349 52.53 L 494.073 54.307 L 492.177 58.262 L 488.454 56.484 Z" style="fill: rgb(51, 51, 51); white-space: pre; mix-blend-mode: color-dodge; opacity: 0.28;"/>
</svg>