<?xml version="1.0" encoding="utf-8"?>
<svg viewBox="0 0 200 300" width="200px" height="300px" xmlns="http://www.w3.org/2000/svg">
  <rect id="blauw_vlak" width="200" height="300" fill="#0e518d" style=""/>
  <path id="tram_zwart" d="M 74.651 85.602 L 50.136 68.805 L 70.347 54.963 L 33.574 54.963 L 34.255 50.648 L 30.396 35.903 L 30.396 17.066 L 42.084 17.066 L 43.111 21.605 L 82.592 21.605 L 83.619 17.066 L 115.839 17.066 L 116.866 21.605 L 156.347 21.605 L 157.374 17.066 L 169.063 17.066 L 169.063 35.903 L 165.203 50.648 L 165.884 54.963 L 78.955 54.963 L 99.167 68.805 L 74.651 85.602 Z M 74.651 81.743 L 93.501 68.829 L 93.501 68.793 L 74.651 55.866 L 55.801 68.793 L 55.801 68.829 L 74.651 81.743 Z M 36.642 50.648 L 47.081 50.648 L 47.081 35.903 L 32.782 35.903 L 36.642 50.648 Z M 49.802 50.648 L 67.502 50.648 L 67.502 35.903 L 49.802 35.903 L 49.802 50.648 Z M 70.224 50.648 L 87.924 50.648 L 87.924 35.903 L 70.224 35.903 L 70.224 50.648 Z M 90.657 50.648 L 108.814 50.648 L 108.814 35.903 L 90.657 35.903 L 90.657 50.648 Z M 111.535 50.648 L 129.234 50.648 L 129.234 35.903 L 111.535 35.903 L 111.535 50.648 Z M 131.956 50.648 L 149.657 50.648 L 149.657 35.903 L 131.956 35.903 L 131.956 50.648 Z M 152.376 50.648 L 162.816 50.648 L 166.675 35.903 L 152.376 35.903 L 152.376 50.648 Z M 46.711 18.661 L 46.711 17.115 C 46.711 13.738 49.455 11.005 52.833 11.005 C 55.545 11.005 57.846 12.772 58.646 15.223 L 67.169 15.223 C 67.967 12.772 70.269 11.005 72.98 11.005 C 76.358 11.005 79.105 13.738 79.105 17.115 L 79.079 18.661 L 46.711 18.661 Z M 120.379 18.661 L 120.354 17.115 C 120.354 13.738 123.099 11.005 126.476 11.005 C 129.189 11.005 131.49 12.772 132.289 15.223 L 140.812 15.223 C 141.61 12.772 143.914 11.005 146.626 11.005 C 150.003 11.005 152.748 13.738 152.748 17.115 L 152.748 18.661 L 120.379 18.661 Z" style="fill: rgb(255, 255, 255);" transform="matrix(-1, 0, 0, -1, 199.459, 96.607002)"/>
  <path id="bus_romp_zwart" d="M 59.858 150.673 C 47.567 150.669 39.051 150.654 38.198 150.636 C 37.177 150.613 37.003 148.253 36.777 147.778 C 37.218 146.773 37.645 145.754 38.064 144.736 L 31.1 127.111 C 31.1 127.111 33.147 122.912 34.081 121.656 C 35.337 119.979 35.155 109.737 34.785 105.292 C 34.685 104.043 33.152 103.264 33.152 103.264 L 33.152 99.851 L 143.903 99.776 C 143.903 99.776 166.221 100.825 169.619 102.645 C 173.015 104.459 169.619 106.554 169.619 106.554 L 169.619 125.651 L 166.724 144.984 C 166.724 144.984 168.834 146.406 168.901 148.447 C 168.954 150.187 167.603 150.636 167.603 150.636 C 167.603 150.636 96.731 150.683 59.858 150.673 Z M 59.177 144.984 L 78.175 144.984 L 78.175 125.651 L 59.177 125.651 L 59.177 144.984 Z M 82.542 144.984 L 102.901 144.984 L 102.901 125.651 L 82.542 125.651 L 82.542 144.984 Z M 106.921 144.984 L 128.367 144.984 L 128.367 125.651 L 106.921 125.651 L 106.921 144.984 Z M 132.14 144.984 L 149.445 144.984 L 149.445 125.651 L 132.14 125.651 L 132.14 144.984 Z M 153.984 144.984 L 161.604 144.984 L 164.51 125.651 L 153.984 125.651 L 153.984 144.984 Z M 42.158 142.905 L 54.131 142.905 L 54.131 122.931 L 54.131 122.918 L 35.713 122.918 L 35.193 127.111 L 42.158 142.905 Z" style="fill: rgb(255, 255, 255);" transform="matrix(-1, 0, 0, -1, 202.228333, 250.450394)"/>
  <path id="bus_wielen_zwart" style="stroke-width: 3.63; stroke: rgb(49, 79, 137); fill: rgb(255, 255, 255);" d="M 68.815 140.395 C 74.818 140.395 79.693 145.378 79.693 151.529 C 79.693 157.679 74.818 162.661 68.815 162.661 C 62.807 162.661 57.938 157.679 57.938 151.529 C 57.938 145.378 62.807 140.395 68.815 140.395 Z M 138.328 140.395 C 144.338 140.395 149.205 145.378 149.205 151.529 C 149.205 157.679 144.338 162.661 138.328 162.661 C 132.32 162.661 127.451 157.679 127.451 151.529 C 127.451 145.378 132.32 140.395 138.328 140.395" transform="matrix(-1, 0, 0, -1, 207.143005, 303.056)"/>
  <path style="stroke: rgb(0, 0, 0); fill: rgb(227, 207, 104);" d="M 45.385 213.115 C 45.385 213.115 54.992 213.09 68.738 213.058 C 95.674 212.994 138.504 212.899 156.095 212.899 C 155.092 177.582 139.173 178.011 100.181 177.469 C 60.074 176.911 46.119 178.307 45.385 213.115 Z"/>
  <path d="M 161.121 196.237 L 151.919 196.237 Q 151.476 196.237 151.188 195.995 Q 150.9 195.754 150.745 195.373 Q 150.021 196.237 148.598 196.237 L 147.097 196.237 L 147.097 194.883 L 148.598 194.883 Q 149.173 194.883 149.543 194.766 Q 149.912 194.65 150.146 194.448 Q 150.714 193.942 150.861 192.736 L 151.305 192.822 Q 151.266 193.141 151.246 193.398 Q 151.227 193.654 151.227 193.872 Q 151.227 194.393 151.406 194.638 Q 151.585 194.883 152.098 194.883 Q 152.728 194.883 153.63 194.588 Q 154.097 194.432 154.505 194.23 Q 154.914 194.028 155.264 193.779 Q 155.995 193.265 156.477 192.946 Q 156.959 192.627 157.208 192.495 Q 158.048 192.06 159.029 192.06 Q 161.121 192.06 161.121 194.269 Z M 159.853 194.284 Q 159.853 193.903 159.347 193.678 Q 158.873 193.475 158.274 193.475 Q 157.877 193.475 157.415 193.596 Q 156.952 193.716 156.392 193.996 L 154.712 194.852 L 154.712 194.883 L 158.227 194.883 Q 159.853 194.883 159.853 194.284 Z M 147.273 196.159 L 146.729 196.237 Q 146.192 196.237 145.869 195.848 Q 145.547 195.459 145.391 194.681 Q 145.204 193.716 145.111 191.787 Q 145.018 189.796 144.924 189.267 Q 144.761 188.357 144.232 187.859 L 145.15 186.413 L 145.204 186.413 Q 145.593 187.673 145.702 189.936 L 145.858 193.452 Q 145.928 194.168 146.2 194.556 Q 146.418 194.883 146.667 194.883 L 147.273 194.883 Z M 142.878 196.237 L 139.035 196.237 L 139.035 194.883 L 142.092 194.883 L 141.166 188.287 L 140.762 188.093 Q 140.762 187.564 140.859 187.093 Q 140.956 186.623 141.182 186.171 L 141.314 186.218 Q 141.322 186.444 141.411 186.603 Q 141.501 186.763 141.765 186.871 L 142.668 187.253 Q 142.668 187.665 142.57 188.062 Q 142.473 188.458 142.38 188.738 L 141.96 188.614 L 142.878 194.712 Z M 138.975 195.739 Q 138.975 196.042 138.924 196.392 Q 138.874 196.742 138.753 197.108 Q 138.633 197.473 138.438 197.835 Q 138.244 198.197 137.956 198.516 Q 137.287 199.262 136.614 199.612 Q 135.941 199.962 135.195 199.962 Q 134.806 199.962 134.358 199.881 Q 133.911 199.799 133.398 199.62 L 131.725 199.021 L 131.858 198.71 Q 132.651 198.889 133.199 198.978 Q 133.748 199.068 133.934 199.068 Q 134.627 199.068 135.284 198.858 Q 135.941 198.648 136.618 198.142 Q 136.836 197.979 137.096 197.749 Q 137.357 197.52 137.594 197.263 Q 137.831 197.007 138.022 196.742 Q 138.213 196.478 138.298 196.237 Q 137.707 196.237 137.252 196.19 Q 136.797 196.143 136.49 195.976 Q 136.182 195.809 136.027 195.482 Q 135.871 195.155 135.871 194.58 Q 135.871 194.401 135.918 194.148 Q 135.965 193.895 136.058 193.623 Q 136.151 193.351 136.284 193.082 Q 136.416 192.814 136.595 192.604 Q 136.774 192.394 136.987 192.262 Q 137.201 192.13 137.458 192.13 Q 137.769 192.13 138.045 192.285 Q 138.321 192.441 138.528 192.76 Q 138.734 193.079 138.854 193.58 Q 138.975 194.082 138.975 194.766 Z M 138.337 194.875 Q 138.244 194.494 138.119 194.23 Q 137.995 193.965 137.847 193.798 Q 137.699 193.631 137.536 193.553 Q 137.372 193.475 137.217 193.475 Q 136.968 193.475 136.785 193.646 Q 136.602 193.818 136.602 194.051 Q 136.602 194.502 137.019 194.689 Q 137.435 194.875 138.337 194.875 Z M 131.548 196.237 Q 131.548 197.077 131.275 197.625 Q 131.003 198.173 130.529 198.562 Q 130.249 198.796 129.891 198.994 Q 129.533 199.192 129.09 199.344 Q 128.646 199.496 128.121 199.581 Q 127.596 199.667 126.99 199.667 Q 123.707 199.667 123.707 197.287 Q 123.707 195.715 124.905 193.265 L 125.216 193.405 Q 124.322 195.241 124.322 196.353 Q 124.322 198.321 126.974 198.321 Q 128.468 198.321 129.588 197.8 Q 130.988 197.162 130.988 195.995 Q 130.988 194.455 130.179 193.46 L 130.801 191.912 L 130.855 191.912 Q 131.548 193.024 131.548 194.883 Z M 128.67 190.24 L 128.071 191.375 L 126.819 190.706 L 127.394 189.571 Z" transform="matrix(1.076967, 0, 0, 1.105315, -28.250113, -24.655151)" style="fill: rgb(51, 51, 51); white-space: pre;"/>
  <path transform="matrix(1.076967, 0, 0, 1.105315, -28.250113, -24.655151)" style="fill: rgb(51, 51, 51); white-space: pre;"/>
  <path d="M 159.807 204.783 Q 157.061 205.795 154.245 205.795 L 152.309 205.795 L 152.309 204.441 L 154.245 204.441 Q 153.996 204.029 153.868 203.663 Q 153.74 203.298 153.74 202.839 Q 153.74 202.652 153.779 202.442 Q 153.818 202.232 153.907 202.03 Q 153.996 201.828 154.133 201.637 Q 154.269 201.447 154.455 201.291 Q 154.868 200.964 155.299 200.758 Q 155.731 200.552 156.291 200.552 Q 156.82 200.552 157.236 200.696 Q 157.652 200.84 157.971 201.081 Q 158.096 201.174 158.325 201.384 Q 158.555 201.594 158.881 201.975 L 158.733 202.108 Q 157.668 201.812 156.882 201.812 Q 155.809 201.812 155.187 202.053 Q 154.891 202.178 154.677 202.341 Q 154.463 202.504 154.463 202.675 Q 154.463 202.854 154.595 203.072 Q 154.728 203.29 154.957 203.516 Q 155.187 203.741 155.49 203.955 Q 155.793 204.169 156.143 204.34 Q 156.664 204.262 157.174 204.165 Q 157.683 204.068 158.197 203.947 Q 158.71 203.827 159.239 203.683 Q 159.768 203.539 160.344 203.368 Z M 152.214 205.717 L 151.67 205.795 L 151.405 205.795 Q 150.075 205.795 148.901 204.815 Q 148.465 205.351 147.998 205.569 Q 147.485 205.795 146.606 205.795 L 145.393 205.795 L 145.393 204.441 L 146.583 204.441 Q 147.835 204.441 148.621 203.298 Q 149.087 202.613 149.795 202.1 Q 150.402 201.664 150.931 201.532 Q 152.214 203.484 152.214 204.441 Z M 151.32 204.262 Q 151.149 203.438 150.534 202.621 Q 149.951 202.777 149.5 203.523 Q 150.176 204.239 151.25 204.363 Z M 146.463 205.297 Q 146.463 205.6 146.413 205.95 Q 146.362 206.3 146.242 206.666 Q 146.121 207.031 145.927 207.393 Q 145.732 207.755 145.445 208.074 Q 144.776 208.82 144.103 209.17 Q 143.43 209.52 142.683 209.52 Q 142.294 209.52 141.847 209.439 Q 141.4 209.357 140.886 209.178 L 139.214 208.579 L 139.346 208.268 Q 140.14 208.447 140.688 208.536 Q 141.236 208.626 141.423 208.626 Q 142.115 208.626 142.773 208.416 Q 143.43 208.206 144.107 207.7 Q 144.324 207.537 144.585 207.307 Q 144.846 207.078 145.083 206.821 Q 145.32 206.565 145.511 206.3 Q 145.701 206.036 145.787 205.795 Q 145.196 205.795 144.741 205.748 Q 144.286 205.701 143.978 205.534 Q 143.671 205.367 143.515 205.04 Q 143.36 204.713 143.36 204.138 Q 143.36 203.959 143.407 203.706 Q 143.453 203.453 143.547 203.181 Q 143.64 202.909 143.772 202.64 Q 143.904 202.372 144.083 202.162 Q 144.262 201.952 144.476 201.82 Q 144.69 201.688 144.947 201.688 Q 145.258 201.688 145.534 201.843 Q 145.81 201.999 146.016 202.318 Q 146.222 202.637 146.343 203.138 Q 146.463 203.64 146.463 204.324 Z M 145.826 204.433 Q 145.732 204.052 145.608 203.788 Q 145.483 203.523 145.336 203.356 Q 145.188 203.189 145.024 203.111 Q 144.861 203.033 144.706 203.033 Q 144.457 203.033 144.274 203.204 Q 144.091 203.376 144.091 203.609 Q 144.091 204.06 144.507 204.247 Q 144.923 204.433 145.826 204.433 Z M 138.941 205.795 L 138.132 205.795 Q 136.81 205.795 135.627 204.815 Q 135.184 205.359 134.725 205.569 Q 134.227 205.795 133.333 205.795 L 132.119 205.795 L 132.119 204.441 L 133.309 204.441 Q 134.562 204.441 135.347 203.298 Q 135.814 202.613 136.522 202.108 Q 137.144 201.657 137.657 201.532 Q 138.941 203.477 138.941 204.441 Z M 138.046 204.262 Q 137.867 203.422 137.261 202.621 Q 136.685 202.769 136.226 203.523 Q 136.903 204.239 137.976 204.363 Z M 132.543 205.717 L 131.999 205.795 L 131.182 205.795 Q 128.779 205.795 128.779 206.339 Q 128.779 206.565 129.502 206.596 Q 129.696 206.604 130.027 206.631 Q 130.358 206.658 130.824 206.697 Q 131.563 206.782 131.563 207.218 Q 131.563 208.68 130.599 209.342 Q 129.556 210.057 127.161 210.057 Q 125.488 210.057 124.501 209.489 Q 123.45 208.883 123.45 207.763 Q 123.45 206.852 123.948 205.849 Q 124.049 205.647 124.283 205.258 Q 124.516 204.869 124.889 204.286 L 125.201 204.441 L 124.609 205.445 Q 124.174 206.292 124.174 206.845 Q 124.174 207.794 125.17 208.299 Q 126.111 208.774 127.775 208.774 Q 128.849 208.774 129.743 208.595 Q 130.778 208.385 130.778 208.027 Q 130.778 207.809 130.272 207.763 L 129.028 207.685 Q 128.117 207.63 128.117 207.171 Q 128.117 205.725 129.339 204.978 Q 130.21 204.441 131.182 204.441 L 132.543 204.441 Z M 129.556 211.201 L 128.95 212.321 L 127.721 211.667 L 127.301 212.461 L 126.041 211.807 L 126.616 210.679 L 127.861 211.317 L 128.273 210.539 Z" transform="matrix(1.076967, 0, 0, 1.105315, -28.250113, -24.655151)" style="fill: rgb(51, 51, 51); white-space: pre;"/>
  <path d="M 59.839 197.302 L 59.839 201.405 L 62.114 201.405 L 62.114 204.421 L 59.839 204.421 L 59.839 208.25 Q 59.839 208.941 59.971 209.164 Q 60.174 209.51 60.682 209.51 Q 61.139 209.51 61.962 209.246 L 62.266 212.1 Q 60.733 212.435 59.402 212.435 Q 57.858 212.435 57.127 212.039 Q 56.396 211.643 56.046 210.835 Q 55.695 210.028 55.695 208.22 L 55.695 204.421 L 54.172 204.421 L 54.172 201.405 L 55.695 201.405 L 55.695 199.425 Z M 68.233 204.899 L 64.283 204.482 Q 64.506 203.446 64.928 202.852 Q 65.349 202.258 66.141 201.821 Q 66.71 201.507 67.705 201.334 Q 68.701 201.161 69.858 201.161 Q 71.717 201.161 72.844 201.37 Q 73.972 201.578 74.723 202.238 Q 75.251 202.695 75.556 203.533 Q 75.861 204.371 75.861 205.132 L 75.861 209.896 Q 75.861 210.657 75.957 211.089 Q 76.054 211.521 76.379 212.191 L 72.499 212.191 Q 72.265 211.775 72.194 211.556 Q 72.123 211.338 72.052 210.871 Q 71.24 211.653 70.437 211.988 Q 69.34 212.435 67.888 212.435 Q 65.958 212.435 64.958 211.541 Q 63.958 210.647 63.958 209.337 Q 63.958 208.108 64.679 207.316 Q 65.4 206.524 67.34 206.138 Q 69.665 205.671 70.356 205.483 Q 71.047 205.295 71.819 204.99 Q 71.819 204.228 71.504 203.924 Q 71.189 203.619 70.397 203.619 Q 69.381 203.619 68.873 203.944 Q 68.477 204.198 68.233 204.899 Z M 71.819 207.072 Q 70.965 207.377 70.041 207.611 Q 68.782 207.946 68.447 208.271 Q 68.101 208.606 68.101 209.032 Q 68.101 209.52 68.442 209.83 Q 68.782 210.139 69.442 210.139 Q 70.133 210.139 70.727 209.804 Q 71.321 209.469 71.57 208.987 Q 71.819 208.504 71.819 207.732 Z M 77.807 201.405 L 82.712 201.405 L 84.429 204.411 L 86.419 201.405 L 90.979 201.405 L 87.303 206.544 L 91.244 212.191 L 86.419 212.191 L 84.429 208.718 L 82.083 212.191 L 77.604 212.191 L 81.524 206.544 Z M 93.153 197.302 L 97.287 197.302 L 97.287 200.115 L 93.153 200.115 Z M 93.153 201.405 L 97.287 201.405 L 97.287 212.191 L 93.153 212.191 Z" transform="matrix(0.949784, 0.000034, 0.002993, 0.999995, 1.055645, -9.113459)" style="fill: rgb(51, 51, 51); text-transform: lowercase; white-space: pre;"/>
  <g style="" transform="matrix(0.545526, 0, 0, 0.545526, -72.550262, 136.587708)">
    <path d="M 243.272 240.853 L 271.429 240.787 L 271.455 253.713 C 271.488 256.255 273.335 256.155 273.335 256.155 L 281.833 256.121 C 281.833 256.121 283.679 256.221 283.645 253.679 L 283.611 240.728 L 284.438 240.728 L 290.162 234.244 L 290.094 213.609 L 284.336 209.342 L 275.973 188.64 C 257.426 186.265 243.002 186.098 243.002 186.198 C 243.002 186.098 228.586 186.356 210.039 188.831 L 201.811 209.6 L 196.112 213.867 L 196.146 234.511 L 201.904 240.987 L 202.73 240.987 L 202.763 253.946 C 202.797 256.48 204.61 256.355 204.61 256.355 L 213.108 256.355 C 213.108 256.355 214.945 256.413 214.945 253.913 L 214.912 240.953 L 243.069 240.853 L 243.272 240.853" style="fill: rgb(255, 255, 255);"/>
    <path d="M 243.069 208.075 C 243.069 207.975 267.341 208.592 279.228 209.475 L 279.295 209.442 L 272.938 193.582 C 254.4 191.24 243.002 191.048 243.002 191.173 C 243.002 191.048 231.646 191.307 213.133 193.782 L 206.844 209.667 L 206.945 209.7 C 218.798 208.758 243.069 207.975 243.069 208.075" style="fill: rgb(49, 79, 137);"/>
    <path d="M 267.872 227.444 L 283.645 227.377 C 285.323 227.377 285.424 225.652 285.424 225.652 L 285.39 217.609 C 285.39 217.609 285.289 215.884 283.611 215.884 L 270.536 215.917 C 268.858 215.917 268.268 217.093 268.032 217.609 C 267.669 218.426 266.025 225.718 266.025 225.718 C 266.025 227.31 267.872 227.444 267.872 227.444" style="fill: rgb(49, 79, 137);"/>
    <path d="M 218.402 227.577 L 202.629 227.602 C 200.951 227.635 200.85 225.91 200.85 225.91 L 200.824 217.868 C 200.824 217.868 200.917 216.142 202.595 216.142 L 215.637 216.084 C 217.348 216.084 217.947 217.251 218.174 217.776 C 218.537 218.559 220.248 225.852 220.248 225.852 C 220.248 227.477 218.402 227.577 218.402 227.577" style="fill: rgb(49, 79, 137);"/>
    <path d="M 350.567 243.159 L 320.025 243.159 L 320.025 229.369 L 350.567 193.064 L 365.18 193.064 L 365.18 230.151 L 372.753 230.151 L 372.753 243.159 L 365.18 243.159 L 365.18 254.437 L 350.567 254.437 Z M 350.567 230.151 L 350.567 211.176 L 334.432 230.151 Z M 393.811 217.638 L 409.576 217.638 L 409.576 201.791 L 422.872 201.791 L 422.872 217.638 L 438.719 217.638 L 438.719 230.975 L 422.872 230.975 L 422.872 246.74 L 409.576 246.74 L 409.576 230.975 L 393.811 230.975 Z" style="fill: rgb(255, 255, 255); white-space: pre;"/>
  </g>
  <path d="M 10.337 14.699 L 11.599 16.91 C 11.756 17.187 11.903 17.348 12.039 17.394 C 12.176 17.44 12.398 17.375 12.706 17.2 C 12.847 17.12 13.008 17.02 13.187 16.9 L 13.84 18.044 C 13.434 18.376 13.131 18.597 12.934 18.709 C 12.291 19.075 11.764 19.21 11.353 19.117 C 10.943 19.023 10.553 18.654 10.185 18.008 L 8.797 15.575 L 7.967 16.046 L 7.281 14.845 L 8.2 14.323 L 7.444 12.71 L 8.713 11.851 L 9.652 13.498 L 10.783 12.855 L 11.469 14.056 L 10.337 14.699 Z M 19.384 13.749 L 15.799 15.233 C 15.836 15.333 15.87 15.42 15.901 15.494 C 16.066 15.89 16.295 16.145 16.591 16.259 C 16.886 16.374 17.181 16.37 17.475 16.248 C 18.023 16.022 18.231 15.593 18.098 14.965 L 19.633 14.458 C 19.752 15.914 19.174 16.906 17.902 17.432 C 17.347 17.662 16.829 17.746 16.349 17.685 C 15.869 17.624 15.415 17.432 14.986 17.111 C 14.557 16.79 14.219 16.332 13.972 15.737 C 13.605 14.853 13.56 14.034 13.841 13.282 C 14.12 12.529 14.658 11.99 15.452 11.661 C 16.169 11.364 16.889 11.361 17.612 11.654 C 18.334 11.946 18.925 12.644 19.384 13.749 Z M 15.398 14.283 L 17.377 13.463 C 17.009 12.721 16.536 12.47 15.959 12.709 C 15.341 12.964 15.154 13.489 15.398 14.283 Z M 23.93 9.464 C 24.846 9.374 25.589 9.603 26.161 10.149 C 26.733 10.695 27.063 11.417 27.152 12.315 C 27.239 13.2 27.046 13.965 26.571 14.608 C 26.097 15.251 25.418 15.617 24.534 15.703 C 23.679 15.788 22.965 15.563 22.395 15.027 C 21.824 14.493 21.493 13.767 21.403 12.85 C 21.34 12.214 21.402 11.662 21.59 11.194 C 21.778 10.726 22.061 10.336 22.437 10.024 C 22.815 9.712 23.312 9.525 23.93 9.464 Z M 24.092 10.616 C 23.755 10.649 23.515 10.803 23.37 11.079 C 23.225 11.355 23.19 11.878 23.267 12.648 C 23.337 13.357 23.468 13.857 23.661 14.149 C 23.854 14.441 24.123 14.571 24.467 14.536 C 24.768 14.507 24.999 14.352 25.159 14.07 C 25.319 13.789 25.363 13.279 25.29 12.54 C 25.212 11.753 25.078 11.227 24.885 10.963 C 24.693 10.699 24.429 10.583 24.092 10.616 Z M 30.813 14.743 L 29.113 15.04 L 28.074 9.112 L 29.679 8.831 L 29.873 9.935 C 29.975 9.07 30.331 8.585 30.938 8.478 C 31.025 8.464 31.132 8.451 31.259 8.441 L 31.562 10.166 C 31.205 10.228 30.937 10.331 30.758 10.476 C 30.58 10.62 30.452 10.845 30.376 11.15 C 30.301 11.456 30.305 11.849 30.39 12.331 L 30.813 14.743 Z M 34.488 7.823 L 35.578 13.743 L 33.828 14.064 L 32.738 8.145 L 34.488 7.823 Z M 34.074 5.579 L 34.395 7.326 L 32.645 7.647 L 32.324 5.9 L 34.074 5.579 Z M 42.78 12.959 L 41.059 13.09 C 40.986 12.856 40.934 12.546 40.904 12.157 C 40.635 12.608 40.356 12.915 40.067 13.079 C 39.778 13.242 39.443 13.338 39.062 13.367 C 38.498 13.41 38.032 13.292 37.661 13.014 C 37.291 12.735 37.086 12.338 37.046 11.823 C 37.017 11.447 37.092 11.093 37.27 10.761 C 37.449 10.428 37.755 10.155 38.19 9.941 C 38.625 9.727 39.432 9.531 40.612 9.353 L 40.586 9.008 C 40.541 8.426 40.227 8.158 39.644 8.202 C 39.02 8.249 38.695 8.567 38.669 9.154 L 37.02 9.125 C 37.075 8.435 37.361 7.928 37.879 7.601 C 38.397 7.275 38.998 7.086 39.68 7.033 C 40.089 7.002 40.477 7.021 40.846 7.088 C 41.214 7.156 41.507 7.277 41.724 7.452 C 41.941 7.627 42.093 7.817 42.181 8.024 C 42.269 8.23 42.333 8.597 42.373 9.123 L 42.581 11.845 C 42.621 12.368 42.688 12.739 42.78 12.959 Z M 40.679 10.227 C 39.446 10.444 38.853 10.865 38.901 11.491 C 38.917 11.701 38.997 11.877 39.139 12.02 C 39.282 12.162 39.474 12.224 39.716 12.206 C 40.029 12.182 40.283 12.032 40.475 11.757 C 40.668 11.481 40.75 11.153 40.72 10.773 L 40.679 10.227 Z M 46.457 12.8 L 44.613 12.823 L 44.59 10.982 L 46.435 10.96 L 46.457 12.8 Z M 48.399 14.839 L 48.399 6.789 L 50.035 6.789 L 50.035 7.672 C 50.337 7 50.867 6.665 51.623 6.665 C 52.276 6.665 52.81 6.926 53.226 7.448 C 53.643 7.971 53.85 8.73 53.85 9.727 C 53.85 10.788 53.64 11.587 53.221 12.125 C 52.8 12.664 52.254 12.933 51.582 12.933 C 50.901 12.933 50.415 12.668 50.124 12.14 L 50.124 14.839 L 48.399 14.839 Z M 50.124 10.174 C 50.124 10.599 50.15 10.893 50.202 11.056 C 50.254 11.219 50.363 11.365 50.531 11.494 C 50.698 11.623 50.879 11.687 51.074 11.687 C 51.317 11.687 51.534 11.563 51.725 11.315 C 51.916 11.067 52.011 10.519 52.011 9.674 C 52.011 8.486 51.697 7.892 51.068 7.892 C 50.829 7.892 50.612 7.997 50.417 8.208 C 50.223 8.419 50.124 8.776 50.124 9.28 L 50.124 10.174 Z M 63.988 14.461 L 62.269 14.005 L 63.127 10.787 C 63.247 10.334 63.312 10.035 63.322 9.892 C 63.331 9.748 63.291 9.616 63.202 9.496 C 63.112 9.376 62.968 9.289 62.768 9.236 C 62.579 9.186 62.369 9.202 62.137 9.285 C 61.905 9.367 61.704 9.727 61.534 10.364 L 60.676 13.583 L 58.963 13.128 L 59.82 9.909 C 59.944 9.444 60.003 9.139 59.997 8.991 C 59.991 8.843 59.94 8.712 59.845 8.596 C 59.751 8.48 59.613 8.399 59.432 8.351 C 59.136 8.272 58.891 8.307 58.697 8.455 C 58.503 8.603 58.335 8.944 58.193 9.477 L 57.335 12.696 L 55.667 12.253 L 57.217 6.438 L 58.833 6.866 L 58.597 7.753 C 59.049 7.154 59.685 6.963 60.504 7.181 C 61.247 7.378 61.694 7.856 61.845 8.616 C 62.347 8.03 63.001 7.843 63.804 8.056 C 64.189 8.158 64.499 8.325 64.734 8.555 C 64.969 8.787 65.113 9.044 65.164 9.329 C 65.216 9.614 65.159 10.066 64.995 10.684 L 63.988 14.461 Z M 67.872 8.357 L 67.845 14.375 L 66.066 14.367 L 66.093 8.349 L 67.872 8.357 Z M 67.883 6.075 L 67.874 7.85 L 66.095 7.843 L 66.103 6.067 L 67.883 6.075 Z M 75.194 8.68 L 73.309 11.366 L 75.163 14.705 L 73.136 14.597 L 71.995 12.46 L 70.656 14.465 L 69.136 14.384 L 71.294 11.259 L 69.732 8.389 L 71.759 8.497 L 72.632 10.172 L 73.673 8.599 L 75.194 8.68 Z M 78.182 14.819 L 76.344 14.661 L 76.503 12.826 L 78.341 12.984 L 78.182 14.819 Z M 85.151 16.425 L 83.404 16.088 L 84.046 12.771 C 84.125 12.37 84.162 12.091 84.16 11.937 C 84.157 11.783 84.105 11.642 84.004 11.516 C 83.903 11.389 83.761 11.308 83.577 11.272 C 82.963 11.154 82.569 11.547 82.393 12.452 L 81.751 15.769 L 80.004 15.432 L 81.149 9.523 L 82.772 9.836 L 82.579 10.837 C 82.941 10.413 83.266 10.158 83.554 10.073 C 83.842 9.987 84.139 9.973 84.444 10.032 C 85.006 10.14 85.431 10.379 85.716 10.747 C 86.002 11.116 86.058 11.743 85.887 12.628 L 85.151 16.425 Z M 92.922 15.28 L 89.1 14.603 C 89.077 14.709 89.06 14.8 89.045 14.878 C 88.97 15.301 89.026 15.639 89.213 15.894 C 89.401 16.149 89.651 16.304 89.964 16.36 C 90.548 16.464 90.954 16.215 91.183 15.613 L 92.749 16.012 C 92.063 17.303 91.041 17.827 89.685 17.587 C 89.093 17.483 88.612 17.275 88.24 16.966 C 87.869 16.656 87.589 16.25 87.402 15.749 C 87.214 15.248 87.177 14.68 87.289 14.047 C 87.457 13.104 87.861 12.391 88.504 11.908 C 89.145 11.424 89.889 11.258 90.736 11.408 C 91.5 11.543 92.108 11.928 92.559 12.562 C 93.01 13.197 93.131 14.103 92.922 15.28 Z M 89.275 13.587 L 91.386 13.961 C 91.475 13.138 91.212 12.672 90.597 12.562 C 89.939 12.446 89.498 12.788 89.275 13.587 Z M 97.933 14.696 L 96.833 16.991 C 96.695 17.278 96.646 17.49 96.686 17.628 C 96.726 17.766 96.905 17.911 97.225 18.063 C 97.372 18.134 97.546 18.208 97.747 18.286 L 97.178 19.474 C 96.673 19.33 96.318 19.209 96.114 19.112 C 95.446 18.793 95.033 18.439 94.876 18.048 C 94.719 17.658 94.801 17.128 95.122 16.459 L 96.334 13.932 L 95.472 13.521 L 96.07 12.273 L 97.023 12.729 L 97.92 11.189 L 99.351 11.74 L 98.531 13.449 L 99.705 14.01 L 99.107 15.257 L 97.933 14.696 Z" style="fill: rgb(51, 51, 51); white-space: pre; mix-blend-mode: color-dodge; opacity: 0.28;"/>
</svg>