<?xml version="1.0" encoding="UTF-8" standalone="no"?>
<!-- Created with Inkscape (http://www.inkscape.org/) -->

<svg
   xmlns:dc="http://purl.org/dc/elements/1.1/"
   xmlns:cc="http://creativecommons.org/ns#"
   xmlns:rdf="http://www.w3.org/1999/02/22-rdf-syntax-ns#"
   xmlns:svg="http://www.w3.org/2000/svg"
   xmlns="http://www.w3.org/2000/svg"
   xmlns:sodipodi="http://sodipodi.sourceforge.net/DTD/sodipodi-0.dtd"
   xmlns:inkscape="http://www.inkscape.org/namespaces/inkscape"
   version="1.1"
   id="svg10"
   width="602.30823"
   height="512.04199"
   viewBox="0 0 602.30823 512.04199"
   sodipodi:docname="Yield.svg"
   inkscape:version="0.92.4 (5da689c313, 2019-01-14)">
  <metadata
     id="metadata16">
    <rdf:RDF>
      <cc:Work
         rdf:about="">
        <dc:format>image/svg+xml</dc:format>
        <dc:type
           rdf:resource="http://purl.org/dc/dcmitype/StillImage" />
        <dc:title></dc:title>
      </cc:Work>
    </rdf:RDF>
  </metadata>
  <defs
     id="defs14">
    <clipPath
       id="clipPath2832">
      <path
         inkscape:connector-curvature="0"
         id="path2834"
         d="M -0.24,595.138 H 317.24 V -0.138 H -0.24 Z" />
    </clipPath>
    <clipPath
       id="clipPath2840">
      <path
         inkscape:connector-curvature="0"
         id="path2842"
         d="M 0.03,595.32 H 317.49 V 0 H 0.03 Z" />
    </clipPath>
    <clipPath
       id="clipPath2858">
      <path
         inkscape:connector-curvature="0"
         id="path2860"
         d="M -0.24,595.138 H 317.24 V -0.138 H -0.24 Z" />
    </clipPath>
    <clipPath
       id="clipPath2864">
      <path
         inkscape:connector-curvature="0"
         id="path2866"
         d="M 0.03,595.32 H 317.49 V 0 H 0.03 Z" />
    </clipPath>
    <clipPath
       id="clipPath3306">
      <path
         inkscape:connector-curvature="0"
         id="path3308"
         d="m 199.238,472.977 v -29.74 h 29.744 v 29.74" />
    </clipPath>
    <clipPath
       id="clipPath3322">
      <path
         inkscape:connector-curvature="0"
         id="path3324"
         d="M -0.24,595.138 H 317.24 V -0.138 H -0.24 Z" />
    </clipPath>
    <clipPath
       id="clipPath3330">
      <path
         inkscape:connector-curvature="0"
         id="path3332"
         d="M 0.03,595.32 H 317.49 V 0 H 0.03 Z" />
    </clipPath>
    <clipPath
       id="clipPath3344">
      <path
         inkscape:connector-curvature="0"
         id="path3346"
         d="m 88.233,387.221 v -28.335 h 32.08 v 28.335" />
    </clipPath>
    <clipPath
       id="clipPath3462">
      <path
         inkscape:connector-curvature="0"
         id="path3464"
         d="M -0.24,595.138 H 317.24 V -0.138 H -0.24 Z" />
    </clipPath>
    <clipPath
       id="clipPath3470">
      <path
         inkscape:connector-curvature="0"
         id="path3472"
         d="M 0.03,595.32 H 317.49 V 0 H 0.03 Z" />
    </clipPath>
    <clipPath
       id="clipPath3490">
      <path
         inkscape:connector-curvature="0"
         id="path3492"
         d="M -0.24,595.138 H 317.24 V -0.138 H -0.24 Z" />
    </clipPath>
    <clipPath
       id="clipPath3496">
      <path
         inkscape:connector-curvature="0"
         id="path3498"
         d="M 0.03,595.32 H 317.49 V 0 H 0.03 Z" />
    </clipPath>
    <clipPath
       id="clipPath3520">
      <path
         inkscape:connector-curvature="0"
         id="path3522"
         d="m 254.788,326.215 v -28.309 h 28.326 v 28.309" />
    </clipPath>
    <clipPath
       id="clipPath3544">
      <path
         inkscape:connector-curvature="0"
         id="path3546"
         d="m 145.049,326.142 v -28.333 h 28.342 v 28.333" />
    </clipPath>
    <clipPath
       id="clipPath3682">
      <path
         inkscape:connector-curvature="0"
         id="path3684"
         d="M -0.24,595.138 H 317.24 V -0.138 H -0.24 Z" />
    </clipPath>
    <clipPath
       id="clipPath3690">
      <path
         inkscape:connector-curvature="0"
         id="path3692"
         d="M 0.03,595.32 H 317.49 V 0 H 0.03 Z" />
    </clipPath>
    <clipPath
       id="clipPath3980">
      <path
         inkscape:connector-curvature="0"
         id="path3982"
         d="M -0.24,595.138 H 317.24 V -0.138 H -0.24 Z" />
    </clipPath>
    <clipPath
       id="clipPath3988">
      <path
         inkscape:connector-curvature="0"
         id="path3990"
         d="M 0.03,595.32 H 317.49 V 0 H 0.03 Z" />
    </clipPath>
    <clipPath
       id="clipPath4010">
      <path
         inkscape:connector-curvature="0"
         id="path4012"
         d="M -0.24,595.138 H 317.24 V -0.138 H -0.24 Z" />
    </clipPath>
    <clipPath
       id="clipPath4016">
      <path
         inkscape:connector-curvature="0"
         id="path4018"
         d="M 0.03,595.32 H 317.49 V 0 H 0.03 Z" />
    </clipPath>
    <clipPath
       id="clipPath4062">
      <path
         inkscape:connector-curvature="0"
         id="path4064"
         d="m 200.163,177.773 v -28.284 h 28.283 v 28.284" />
    </clipPath>
    <clipPath
       id="clipPath4090">
      <path
         inkscape:connector-curvature="0"
         id="path4092"
         d="m 34.886,177.515 v -51.632 h 30.367 v 51.632" />
    </clipPath>
    <clipPath
       id="clipPath4106">
      <path
         inkscape:connector-curvature="0"
         id="path4108"
         d="m 34.886,177.515 v -51.632 h 30.367 v 51.632" />
    </clipPath>
    <clipPath
       id="clipPath4272">
      <path
         inkscape:connector-curvature="0"
         id="path4274"
         d="m 34.886,177.515 v -51.632 h 30.367 v 51.632" />
    </clipPath>
    <clipPath
       id="clipPath4304">
      <path
         inkscape:connector-curvature="0"
         id="path4306"
         d="m 254.653,176.442 v -48.167 h 28.317 v 48.167" />
    </clipPath>
    <clipPath
       id="clipPath4310">
      <path
         inkscape:connector-curvature="0"
         id="path4312"
         d="m 253.565,177.983 h 31.181 V 128.8 h -31.181 z" />
    </clipPath>
    <clipPath
       id="clipPath4316">
      <path
         inkscape:connector-curvature="0"
         id="path4318"
         d="M -0.24,595.138 H 317.24 V -0.138 H -0.24 Z" />
    </clipPath>
    <clipPath
       id="clipPath4322">
      <path
         inkscape:connector-curvature="0"
         id="path4324"
         d="M 0.03,595.32 H 317.49 V 0 H 0.03 Z" />
    </clipPath>
    <clipPath
       id="clipPath4456">
      <path
         inkscape:connector-curvature="0"
         id="path4458"
         d="M -0.24,595.138 H 317.24 V -0.138 H -0.24 Z" />
    </clipPath>
    <clipPath
       id="clipPath4464">
      <path
         inkscape:connector-curvature="0"
         id="path4466"
         d="M 0.03,595.32 H 317.49 V 0 H 0.03 Z" />
    </clipPath>
  </defs>
  <sodipodi:namedview
     pagecolor="#ffffff"
     bordercolor="#666666"
     borderopacity="1"
     objecttolerance="10"
     gridtolerance="10"
     guidetolerance="10"
     inkscape:pageopacity="0"
     inkscape:pageshadow="2"
     inkscape:window-width="1920"
     inkscape:window-height="1027"
     id="namedview12"
     showgrid="false"
     inkscape:zoom="0.29791667"
     inkscape:cx="785.26241"
     inkscape:cy="90.989339"
     inkscape:window-x="-8"
     inkscape:window-y="-8"
     inkscape:window-maximized="1"
     inkscape:current-layer="svg10" />
  <g
     id="g214"
     transform="matrix(1.6227733,0,0,1.6227733,9.8377227,-0.16227733)">
    <path
       sodipodi:nodetypes="scccscscccss"
       inkscape:connector-curvature="0"
       id="path3101"
       d="m 17.815305,0.1 c -8.5855002,0 -16.4564802,4.5216 -20.6875002,11.90625 -4.25346,7.37342 -4.25346,16.47912 0,23.875 L 158.21388,303.76008 c 4.27593,7.37342 12.09803,11.875 20.59375,11.875 0.0312,0 0.0625,1.2e-4 0.0937,0 0.0312,1.2e-4 0.0625,0 0.0937,0 8.49572,0 16.31784,-4.50158 20.59375,-11.875 L 361.90742,35.88125 c 4.25347,-7.39588 4.25347,-16.50158 0,-23.875 C 357.6764,4.6216 349.80543,0.1 341.21992,0.1 Z"
       style="fill:#b70000;fill-opacity:1;fill-rule:evenodd;stroke:none" />
    <path
       sodipodi:nodetypes="cccc"
       d="M 329.9076,29.451977 H 32.825173 L 178.90154,278.39354 Z"
       id="path3121"
       style="fill:#ffffff;fill-opacity:1;fill-rule:evenodd;stroke:none"
       inkscape:connector-curvature="0" />
  </g>
</svg>
