<?xml version="1.0" encoding="utf-8"?>
<svg viewBox="0 0 1258.551 1258.5511" width="1258.551px" height="1258.551px" xmlns="http://www.w3.org/2000/svg">
  <path id="use11" d="M 1228.269 374.414 L 1228.269 874.591 L 874.592 1228.269 L 374.415 1228.269 L 20.737 874.591 L 20.737 374.414 L 374.415 20.736 L 874.592 20.736 L 1228.269 374.414 Z" style="fill-opacity: 0.994975; stroke-miterlimit: 4; stroke-dasharray: none; fill: rgb(255, 255, 255); stroke: rgb(180, 10, 0); stroke-width: 28px;"/>
  <path id="use15" style="stroke-width: 0.156369; fill-opacity: 1; fill: rgb(180, 10, 0);" d="M 397.363 73.363 L 76.049 394.668 L 76.049 849.057 L 397.363 1170.355 L 851.752 1170.355 L 1173.05 849.057 L 1173.05 394.668 L 851.752 73.363 L 397.363 73.363 Z M 623.967 224.467 C 651.348 224.145 657.017 256.788 654.246 256.255 L 654.863 322.052 C 660.181 326.092 660.11 330.716 665.429 325.804 C 670.248 322.978 667.203 308.821 670.199 288.14 C 673.805 263.229 726.231 264.35 724.674 293.031 L 726.799 317.225 C 728.308 320.269 738.579 606.324 745.972 618.987 C 764.592 650.913 782.349 617.682 780.391 618.026 C 780.391 618.026 783 546.925 814.358 486.57 C 845.716 426.217 887.088 451.852 887.088 451.852 L 874.656 495.67 C 874.656 495.67 861.082 543.269 869.653 626.717 C 878.038 708.252 873.204 792.703 798.23 848.019 C 772.407 867.065 751.235 884.716 744.638 904.78 C 727.044 958.322 745.581 1004.561 735.512 1019.784 L 515.664 1018.718 L 513.665 943.448 C 513.642 943.359 526.523 858.815 489.741 820.35 C 445.678 774.265 444.612 717.826 444.885 716.738 C 444.885 716.738 457.302 385.871 464.816 345.702 C 475.683 329.579 498.559 324.515 507.709 351.826 C 507.4 355.655 507.237 361.009 507.694 367.828 C 508.691 382.882 517.655 375.804 517.655 375.804 C 517.655 375.804 518.246 369.082 518.351 352.675 C 518.427 341.696 517.102 326.381 519.655 305.839 C 526.411 269.759 563.017 275.049 572.679 288.111 C 580.465 298.627 578.64 315.197 581.462 332.407 C 588.442 339.493 592.728 331.6 592.728 331.6 C 592.994 307.452 590.828 285.909 591.436 258.023 C 592.678 235.117 602.851 224.715 623.967 224.467 Z"/>
  <path d="M 483.723 115.385 L 487.586 122.16 C 488.069 123.006 488.519 123.501 488.936 123.642 C 489.354 123.782 490.034 123.585 490.977 123.048 C 491.411 122.802 491.903 122.495 492.452 122.127 L 494.451 125.634 C 493.207 126.65 492.281 127.328 491.677 127.671 C 489.706 128.791 488.091 129.207 486.833 128.921 C 485.575 128.635 484.382 127.504 483.254 125.525 L 479 118.069 L 476.457 119.513 L 474.358 115.832 L 477.172 114.234 L 474.857 109.29 L 478.744 106.66 L 481.622 111.706 L 485.087 109.736 L 487.188 113.416 L 483.723 115.385 Z M 511.437 112.475 L 500.453 117.02 C 500.568 117.328 500.672 117.594 500.767 117.819 C 501.271 119.034 501.975 119.815 502.88 120.165 C 503.784 120.516 504.687 120.504 505.589 120.131 C 507.267 119.438 507.904 118.126 507.499 116.198 L 512.201 114.647 C 512.563 119.109 510.795 122.147 506.899 123.759 C 505.197 124.463 503.611 124.722 502.14 124.534 C 500.667 124.345 499.277 123.759 497.963 122.773 C 496.65 121.789 495.615 120.386 494.857 118.565 C 493.732 115.856 493.596 113.349 494.455 111.044 C 495.313 108.738 496.958 107.084 499.392 106.076 C 501.588 105.167 503.793 105.16 506.007 106.056 C 508.221 106.951 510.031 109.09 511.437 112.475 Z M 499.224 114.109 L 505.29 111.599 C 504.161 109.327 502.712 108.556 500.943 109.287 C 499.05 110.069 498.477 111.678 499.224 114.109 Z M 525.367 99.347 C 528.171 99.072 530.448 99.771 532.2 101.444 C 533.953 103.12 534.966 105.33 535.237 108.081 C 535.505 110.794 534.911 113.136 533.457 115.107 C 532.005 117.078 529.924 118.197 527.218 118.462 C 524.596 118.721 522.411 118.03 520.663 116.391 C 518.915 114.754 517.901 112.53 517.623 109.72 C 517.43 107.77 517.622 106.079 518.197 104.647 C 518.772 103.214 519.638 102.019 520.794 101.062 C 521.949 100.105 523.473 99.534 525.367 99.347 Z M 525.863 102.875 C 524.831 102.977 524.093 103.449 523.65 104.295 C 523.207 105.139 523.101 106.742 523.335 109.103 C 523.549 111.272 523.951 112.804 524.542 113.7 C 525.133 114.595 525.957 114.992 527.011 114.887 C 527.934 114.797 528.641 114.321 529.131 113.459 C 529.623 112.598 529.756 111.035 529.533 108.77 C 529.295 106.36 528.883 104.749 528.293 103.939 C 527.704 103.129 526.894 102.774 525.863 102.875 Z M 546.452 115.52 L 541.246 116.429 L 538.06 98.267 L 542.98 97.408 L 543.572 100.788 C 543.887 98.139 544.976 96.653 546.837 96.326 C 547.102 96.281 547.429 96.242 547.82 96.211 L 548.748 101.498 C 547.654 101.688 546.833 102.004 546.286 102.446 C 545.739 102.887 545.349 103.577 545.116 104.513 C 544.884 105.449 544.899 106.654 545.157 108.129 L 546.452 115.52 Z M 557.712 94.32 L 561.052 112.454 L 555.69 113.438 L 552.35 95.305 L 557.712 94.32 Z M 556.445 87.444 L 557.43 92.795 L 552.068 93.778 L 551.083 88.427 L 556.445 87.444 Z M 583.117 110.053 L 577.845 110.455 C 577.62 109.74 577.462 108.788 577.371 107.599 C 576.547 108.98 575.692 109.92 574.807 110.42 C 573.922 110.922 572.895 111.216 571.728 111.304 C 570.001 111.436 568.57 111.075 567.434 110.221 C 566.3 109.369 565.671 108.153 565.55 106.574 C 565.462 105.422 565.692 104.337 566.237 103.318 C 566.783 102.302 567.723 101.464 569.055 100.807 C 570.387 100.151 572.859 99.551 576.476 99.006 L 576.394 97.95 C 576.258 96.166 575.297 95.343 573.51 95.478 C 571.6 95.625 570.604 96.597 570.521 98.398 L 565.469 98.307 C 565.639 96.195 566.517 94.639 568.103 93.638 C 569.69 92.639 571.529 92.06 573.621 91.899 C 574.873 91.805 576.063 91.861 577.192 92.069 C 578.322 92.276 579.218 92.647 579.883 93.182 C 580.548 93.717 581.015 94.302 581.283 94.933 C 581.552 95.566 581.748 96.689 581.87 98.303 L 582.508 106.639 C 582.631 108.242 582.833 109.38 583.117 110.053 Z M 576.68 101.682 C 572.902 102.348 571.088 103.639 571.234 105.557 C 571.283 106.2 571.526 106.74 571.963 107.177 C 572.399 107.614 572.989 107.803 573.73 107.747 C 574.691 107.674 575.467 107.215 576.056 106.371 C 576.646 105.526 576.898 104.521 576.808 103.357 L 576.68 101.682 Z M 594.384 109.568 L 588.733 109.638 L 588.663 103.997 L 594.315 103.929 L 594.384 109.568 Z M 600.333 115.815 L 600.333 91.152 L 605.345 91.152 L 605.345 93.855 C 606.272 91.797 607.895 90.77 610.211 90.77 C 612.211 90.77 613.848 91.57 615.122 93.169 C 616.398 94.772 617.034 97.099 617.034 100.153 C 617.034 103.403 616.392 105.851 615.105 107.501 C 613.818 109.15 612.143 109.973 610.084 109.973 C 607.998 109.973 606.51 109.165 605.619 107.546 L 605.619 115.815 L 600.333 115.815 Z M 605.619 101.522 C 605.619 102.825 605.699 103.725 605.857 104.223 C 606.016 104.723 606.352 105.171 606.863 105.565 C 607.376 105.961 607.931 106.159 608.529 106.159 C 609.273 106.159 609.938 105.778 610.522 105.018 C 611.108 104.257 611.401 102.581 611.401 99.988 C 611.401 96.35 610.438 94.53 608.51 94.53 C 607.779 94.53 607.113 94.853 606.516 95.498 C 605.92 96.143 605.619 97.238 605.619 98.783 L 605.619 101.522 Z M 648.096 114.657 L 642.826 113.26 L 645.455 103.398 C 645.824 102.01 646.023 101.095 646.053 100.656 C 646.082 100.217 645.959 99.814 645.685 99.444 C 645.411 99.077 644.968 98.811 644.355 98.648 C 643.778 98.495 643.132 98.544 642.423 98.796 C 641.711 99.049 641.096 100.151 640.577 102.102 L 637.948 111.964 L 632.698 110.571 L 635.325 100.709 C 635.704 99.286 635.885 98.349 635.867 97.897 C 635.848 97.445 635.694 97.043 635.402 96.688 C 635.113 96.333 634.691 96.084 634.137 95.936 C 633.229 95.695 632.478 95.801 631.885 96.254 C 631.29 96.708 630.775 97.753 630.34 99.387 L 627.712 109.248 L 622.603 107.893 L 627.35 90.075 L 632.3 91.388 L 631.577 94.105 C 632.962 92.269 634.911 91.683 637.421 92.35 C 639.695 92.954 641.065 94.419 641.53 96.746 C 643.068 94.951 645.069 94.38 647.532 95.033 C 648.711 95.346 649.66 95.857 650.38 96.562 C 651.099 97.271 651.539 98.06 651.698 98.934 C 651.857 99.807 651.683 101.191 651.179 103.083 L 648.096 114.657 Z M 659.994 95.955 L 659.912 114.393 L 654.461 114.368 L 654.542 95.931 L 659.994 95.955 Z M 660.026 88.964 L 660 94.403 L 654.549 94.379 L 654.573 88.939 L 660.026 88.964 Z M 682.425 96.945 L 676.653 105.175 L 682.333 115.405 L 676.123 115.072 L 672.626 108.525 L 668.524 114.667 L 663.865 114.418 L 670.478 104.846 L 665.693 96.051 L 671.904 96.384 L 674.578 101.518 L 677.767 96.697 L 682.425 96.945 Z M 691.583 115.752 L 685.951 115.266 L 686.437 109.646 L 692.067 110.132 L 691.583 115.752 Z M 712.933 120.674 L 707.581 119.641 L 709.548 109.478 C 709.787 108.249 709.903 107.395 709.895 106.924 C 709.888 106.451 709.729 106.021 709.419 105.632 C 709.109 105.244 708.672 104.995 708.11 104.886 C 706.23 104.524 705.021 105.729 704.484 108.501 L 702.516 118.663 L 697.163 117.63 L 700.672 99.528 L 705.646 100.487 L 705.052 103.553 C 706.161 102.254 707.158 101.474 708.04 101.21 C 708.923 100.947 709.832 100.905 710.765 101.085 C 712.49 101.418 713.788 102.15 714.664 103.279 C 715.538 104.408 715.712 106.33 715.187 109.041 L 712.933 120.674 Z M 736.739 117.165 L 725.032 115.092 C 724.962 115.414 724.908 115.694 724.864 115.933 C 724.634 117.228 724.805 118.266 725.377 119.046 C 725.951 119.827 726.719 120.304 727.68 120.473 C 729.469 120.79 730.712 120.029 731.412 118.187 L 736.212 119.408 C 734.109 123.361 730.98 124.97 726.825 124.234 C 725.012 123.914 723.536 123.277 722.398 122.329 C 721.26 121.38 720.403 120.136 719.828 118.601 C 719.253 117.066 719.138 115.327 719.483 113.385 C 719.997 110.497 721.237 108.313 723.204 106.832 C 725.17 105.352 727.451 104.842 730.043 105.3 C 732.385 105.715 734.247 106.895 735.63 108.837 C 737.01 110.783 737.381 113.559 736.739 117.165 Z M 725.567 111.979 L 732.033 113.124 C 732.308 110.603 731.503 109.174 729.618 108.839 C 727.602 108.484 726.252 109.528 725.567 111.979 Z M 752.094 115.376 L 748.723 122.408 C 748.301 123.286 748.152 123.936 748.274 124.358 C 748.397 124.78 748.946 125.226 749.926 125.693 C 750.376 125.909 750.909 126.136 751.523 126.376 L 749.78 130.015 C 748.234 129.574 747.147 129.203 746.519 128.905 C 744.473 127.928 743.209 126.842 742.729 125.647 C 742.246 124.452 742.498 122.828 743.482 120.776 L 747.194 113.035 L 744.553 111.775 L 746.385 107.953 L 749.306 109.349 L 752.054 104.632 L 756.438 106.32 L 753.926 111.556 L 757.523 113.272 L 755.692 117.094 L 752.094 115.376 Z" style="fill: rgb(51, 51, 51); white-space: pre; mix-blend-mode: color-dodge; opacity: 0.28;"/>
</svg>