<?xml version="1.0" encoding="utf-8"?>
<svg viewBox="0 0 683.37695 683.37695" width="683.377px" height="683.377px" xmlns="http://www.w3.org/2000/svg">
  <g id="layer1" transform="matrix(5.511535, 0, 0, 5.511535, 274.728485, 350.227417)" style="">
    <path id="circle4853" transform="matrix(0.17273859,0,0,0.17273859,73.158541,-109.65662)" style="fill-opacity: 1; stroke-linecap: round; stroke-linejoin: round; stroke-miterlimit: 4; stroke-dasharray: none; stroke-opacity: 1; stroke-width: 14px; fill: rgb(255, 255, 255); stroke: rgb(180, 10, 0);" d="m -350.73047,286.61328 c -188.71025,-9.1e-4 -341.69036,152.9792 -341.68945,341.68945 1.7e-4,188.70949 152.97996,341.68841 341.68945,341.6875 C -162.02174,969.99006 -9.0431345,817.01146 -9.0429688,628.30273 -9.0420575,439.59324 -162.02098,286.61345 -350.73047,286.61328 Z"/>
    <ellipse cx="13.521" cy="-0.457" rx="39.809" ry="39.809" style="fill: rgb(255, 255, 255); visibility: hidden; stroke: rgb(180, 10, 0);"/>
    <path id="circle4853-2" style="fill-opacity: 1; stroke-width: 3.0634; stroke-linecap: round; stroke-linejoin: round; stroke-miterlimit: 4; stroke-dasharray: none; stroke-opacity: 1; fill: rgb(226, 10, 22); visibility: hidden; stroke: rgb(180, 10, 0);" d="M 12.963 -48.681 C -13.442 -48.681 -34.846 -27.276 -34.846 -0.872 C -34.846 25.532 -13.442 46.937 12.963 46.937 C 39.367 46.937 60.771 25.532 60.771 -0.872 C 60.771 -27.276 39.367 -48.681 12.963 -48.681 Z"/>
  </g>
  <path d="M 210.687 56.494 L 214.686 63.506 C 215.186 64.382 215.652 64.893 216.084 65.039 C 216.516 65.185 217.22 64.981 218.196 64.425 C 218.645 64.17 219.154 63.852 219.722 63.472 L 221.791 67.101 C 220.504 68.152 219.546 68.855 218.92 69.21 C 216.881 70.369 215.209 70.8 213.907 70.503 C 212.605 70.207 211.37 69.036 210.202 66.988 L 205.8 59.271 L 203.168 60.766 L 200.995 56.956 L 203.907 55.302 L 201.511 50.185 L 205.535 47.463 L 208.514 52.685 L 212.1 50.647 L 214.274 54.456 L 210.687 56.494 Z M 239.372 53.481 L 228.004 58.185 C 228.123 58.504 228.231 58.78 228.328 59.013 C 228.85 60.27 229.579 61.079 230.516 61.441 C 231.452 61.804 232.386 61.792 233.319 61.406 C 235.056 60.688 235.716 59.33 235.296 57.335 L 240.163 55.73 C 240.538 60.347 238.708 63.492 234.675 65.16 C 232.913 65.889 231.272 66.157 229.75 65.962 C 228.226 65.767 226.786 65.16 225.426 64.14 C 224.067 63.122 222.996 61.67 222.212 59.784 C 221.047 56.981 220.907 54.386 221.795 52 C 222.683 49.614 224.386 47.902 226.905 46.859 C 229.178 45.917 231.461 45.91 233.752 46.837 C 236.044 47.764 237.917 49.978 239.372 53.481 Z M 226.732 55.173 L 233.01 52.574 C 231.841 50.223 230.342 49.425 228.511 50.182 C 226.552 50.992 225.959 52.656 226.732 55.173 Z M 253.79 39.894 C 256.692 39.609 259.049 40.333 260.862 42.065 C 262.676 43.799 263.724 46.087 264.005 48.934 C 264.282 51.741 263.668 54.165 262.163 56.205 C 260.66 58.246 258.506 59.404 255.705 59.678 C 252.992 59.946 250.73 59.231 248.921 57.535 C 247.111 55.84 246.062 53.539 245.775 50.631 C 245.575 48.612 245.774 46.862 246.369 45.38 C 246.964 43.897 247.86 42.66 249.056 41.669 C 250.252 40.679 251.83 40.087 253.79 39.894 Z M 254.303 43.546 C 253.235 43.651 252.471 44.14 252.012 45.015 C 251.554 45.889 251.444 47.548 251.686 49.992 C 251.908 52.237 252.324 53.822 252.936 54.749 C 253.548 55.676 254.4 56.086 255.492 55.978 C 256.447 55.884 257.178 55.392 257.686 54.5 C 258.195 53.609 258.332 51.991 258.101 49.647 C 257.855 47.152 257.428 45.485 256.818 44.646 C 256.209 43.808 255.37 43.441 254.303 43.546 Z M 275.613 56.633 L 270.224 57.574 L 266.927 38.776 L 272.019 37.887 L 272.632 41.386 C 272.958 38.644 274.085 37.105 276.012 36.768 C 276.286 36.721 276.624 36.68 277.029 36.648 L 277.989 42.12 C 276.857 42.317 276.008 42.644 275.441 43.102 C 274.875 43.558 274.471 44.272 274.23 45.24 C 273.99 46.21 274.005 47.457 274.272 48.983 L 275.613 56.633 Z M 287.267 34.691 L 290.724 53.46 L 285.175 54.478 L 281.717 35.71 L 287.267 34.691 Z M 285.955 27.574 L 286.975 33.113 L 281.426 34.13 L 280.406 28.592 L 285.955 27.574 Z M 313.561 50.975 L 308.105 51.391 C 307.872 50.651 307.708 49.665 307.614 48.434 C 306.761 49.864 305.876 50.837 304.96 51.355 C 304.044 51.874 302.981 52.178 301.774 52.27 C 299.986 52.406 298.505 52.033 297.33 51.149 C 296.155 50.266 295.505 49.008 295.38 47.374 C 295.288 46.182 295.526 45.059 296.091 44.004 C 296.656 42.952 297.628 42.085 299.007 41.405 C 300.385 40.726 302.945 40.105 306.687 39.541 L 306.603 38.448 C 306.462 36.602 305.468 35.75 303.618 35.89 C 301.641 36.041 300.61 37.048 300.525 38.911 L 295.296 38.817 C 295.471 36.631 296.38 35.021 298.022 33.985 C 299.664 32.951 301.568 32.352 303.733 32.186 C 305.029 32.088 306.261 32.146 307.429 32.361 C 308.598 32.575 309.526 32.959 310.214 33.513 C 310.902 34.067 311.385 34.672 311.663 35.326 C 311.941 35.981 312.144 37.143 312.271 38.813 L 312.931 47.442 C 313.058 49.1 313.268 50.278 313.561 50.975 Z M 306.899 42.311 C 302.989 43 301.111 44.337 301.262 46.321 C 301.313 46.987 301.565 47.546 302.017 47.998 C 302.469 48.45 303.079 48.646 303.846 48.588 C 304.84 48.512 305.643 48.037 306.254 47.164 C 306.864 46.29 307.124 45.25 307.031 44.044 L 306.899 42.311 Z M 325.223 50.473 L 319.374 50.545 L 319.301 44.707 L 325.152 44.636 L 325.223 50.473 Z M 331.38 56.939 L 331.38 31.412 L 336.567 31.412 L 336.567 34.209 C 337.527 32.08 339.206 31.016 341.604 31.016 C 343.674 31.016 345.368 31.845 346.687 33.5 C 348.007 35.158 348.666 37.567 348.666 40.728 C 348.666 44.091 348.001 46.626 346.669 48.333 C 345.337 50.04 343.604 50.892 341.472 50.892 C 339.313 50.892 337.773 50.055 336.851 48.38 L 336.851 56.939 L 331.38 56.939 Z M 336.851 42.145 C 336.851 43.493 336.933 44.425 337.098 44.941 C 337.262 45.458 337.609 45.921 338.139 46.33 C 338.67 46.74 339.244 46.944 339.863 46.944 C 340.633 46.944 341.321 46.55 341.926 45.763 C 342.532 44.976 342.835 43.241 342.835 40.558 C 342.835 36.792 341.838 34.908 339.843 34.908 C 339.086 34.908 338.397 35.242 337.78 35.91 C 337.162 36.578 336.851 37.711 336.851 39.31 L 336.851 42.145 Z M 380.814 55.74 L 375.361 54.293 L 378.082 44.086 C 378.464 42.65 378.67 41.704 378.7 41.249 C 378.73 40.795 378.603 40.377 378.32 39.995 C 378.036 39.614 377.577 39.339 376.943 39.17 C 376.345 39.012 375.678 39.063 374.943 39.324 C 374.207 39.585 373.57 40.726 373.032 42.746 L 370.312 52.953 L 364.878 51.511 L 367.597 41.304 C 367.989 39.831 368.176 38.861 368.158 38.393 C 368.138 37.926 367.978 37.509 367.677 37.142 C 367.377 36.775 366.94 36.516 366.367 36.364 C 365.427 36.114 364.65 36.224 364.036 36.693 C 363.421 37.163 362.888 38.244 362.437 39.935 L 359.717 50.141 L 354.429 48.739 L 359.343 30.297 L 364.466 31.656 L 363.717 34.468 C 365.151 32.568 367.168 31.962 369.766 32.652 C 372.12 33.277 373.538 34.793 374.019 37.202 C 375.611 35.344 377.682 34.753 380.231 35.429 C 381.451 35.753 382.434 36.281 383.179 37.012 C 383.924 37.745 384.378 38.562 384.543 39.466 C 384.707 40.37 384.528 41.802 384.006 43.761 L 380.814 55.74 Z M 393.13 36.383 L 393.044 55.467 L 387.403 55.441 L 387.487 36.358 L 393.13 36.383 Z M 393.162 29.147 L 393.136 34.777 L 387.494 34.752 L 387.519 29.122 L 393.162 29.147 Z M 416.346 37.408 L 410.371 45.925 L 416.251 56.514 L 409.823 56.17 L 406.204 49.393 L 401.958 55.75 L 397.136 55.493 L 403.981 45.585 L 399.028 36.483 L 405.456 36.827 L 408.224 42.14 L 411.524 37.151 L 416.346 37.408 Z M 425.824 56.873 L 419.995 56.371 L 420.498 50.554 L 426.326 51.056 L 425.824 56.873 Z M 447.921 61.967 L 442.382 60.898 L 444.419 50.379 C 444.666 49.107 444.786 48.224 444.778 47.736 C 444.77 47.247 444.605 46.801 444.284 46.399 C 443.964 45.997 443.512 45.74 442.93 45.627 C 440.984 45.253 439.733 46.499 439.177 49.368 L 437.14 59.886 L 431.6 58.817 L 435.231 40.081 L 440.379 41.074 L 439.765 44.247 C 440.913 42.903 441.944 42.095 442.857 41.823 C 443.771 41.55 444.712 41.507 445.678 41.693 C 447.463 42.038 448.807 42.795 449.713 43.963 C 450.618 45.133 450.798 47.121 450.254 49.927 L 447.921 61.967 Z M 472.561 58.336 L 460.444 56.19 C 460.372 56.523 460.315 56.813 460.27 57.061 C 460.032 58.401 460.209 59.475 460.802 60.283 C 461.396 61.091 462.19 61.584 463.184 61.76 C 465.036 62.088 466.323 61.3 467.047 59.393 L 472.015 60.657 C 469.838 64.749 466.6 66.414 462.3 65.652 C 460.423 65.321 458.896 64.662 457.718 63.68 C 456.54 62.698 455.653 61.411 455.058 59.822 C 454.463 58.233 454.344 56.433 454.701 54.424 C 455.233 51.435 456.516 49.174 458.552 47.641 C 460.587 46.109 462.947 45.581 465.631 46.056 C 468.055 46.485 469.982 47.706 471.413 49.717 C 472.842 51.73 473.225 54.603 472.561 58.336 Z M 460.998 52.968 L 467.691 54.153 C 467.975 51.543 467.142 50.065 465.191 49.719 C 463.104 49.35 461.706 50.432 460.998 52.968 Z M 488.454 56.484 L 484.964 63.762 C 484.528 64.671 484.373 65.344 484.499 65.781 C 484.626 66.218 485.195 66.679 486.209 67.162 C 486.675 67.386 487.227 67.621 487.863 67.869 L 486.058 71.636 C 484.458 71.179 483.333 70.796 482.684 70.487 C 480.566 69.475 479.258 68.351 478.76 67.114 C 478.261 65.878 478.521 64.197 479.54 62.073 L 483.382 54.061 L 480.649 52.757 L 482.544 48.802 L 485.568 50.246 L 488.412 45.364 L 492.949 47.111 L 490.349 52.53 L 494.073 54.307 L 492.177 58.262 L 488.454 56.484 Z" style="fill: rgb(51, 51, 51); white-space: pre; mix-blend-mode: color-dodge; opacity: 0.28; visibility: hidden;"/>
  <g/>
  <path id="use15" style="stroke-width: 0.156369; fill-opacity: 1; fill: rgb(180, 10, 0);" d="M 243.663 97.127 C 127.604 147.013 99.13 241.656 99.13 241.656 C 53.57 351.194 99.13 446.05 99.13 446.05 C 146.1 558.345 243.828 591.598 243.663 591.203 C 354.727 637.667 445.246 592.834 448.242 591.163 C 521.321 560.439 569.423 503.97 592.767 446.417 C 640.085 329.756 595.322 242.887 594.472 240.947 C 561.236 152.635 482.278 110.644 448.057 97.127 C 365.305 64.443 305.37 74.05 243.663 97.127 Z M 345.595 165.098 C 357.912 164.952 360.461 179.638 359.211 179.396 L 359.491 208.994 C 361.884 210.81 361.852 212.89 364.245 210.68 C 366.414 209.409 365.043 203.042 366.389 193.738 C 368.011 182.532 391.595 183.037 390.894 195.938 L 391.85 206.822 C 392.53 208.193 397.148 336.867 400.475 342.559 C 408.852 356.921 416.838 341.973 415.955 342.127 C 415.955 342.127 417.13 310.146 431.234 282.996 C 445.34 255.847 463.951 267.381 463.951 267.381 L 458.36 287.091 C 458.36 287.091 452.254 308.501 456.108 346.036 C 459.88 382.712 457.707 420.701 423.982 445.583 C 412.366 454.15 402.841 462.089 399.876 471.115 C 391.961 495.199 400.298 515.999 395.77 522.846 L 296.877 522.366 L 295.977 488.509 C 295.969 488.469 301.762 450.439 285.218 433.137 C 265.395 412.408 264.918 387.019 265.041 386.531 C 265.041 386.531 270.627 237.7 274.004 219.631 C 278.895 212.378 289.184 210.1 293.3 222.386 C 293.16 224.108 293.088 226.516 293.293 229.585 C 293.741 236.355 297.774 233.171 297.774 233.171 C 297.774 233.171 298.04 230.149 298.088 222.767 C 298.122 217.83 297.525 210.939 298.674 201.7 C 301.712 185.47 318.18 187.851 322.524 193.727 C 326.026 198.456 325.207 205.912 326.476 213.651 C 329.614 216.839 331.543 213.288 331.543 213.288 C 331.662 202.426 330.687 192.734 330.962 180.192 C 331.52 169.888 336.097 165.208 345.595 165.098 Z"/>
  <path d="M 285.511 101.413 L 287.359 104.655 C 287.59 105.06 287.806 105.297 288.003 105.365 C 288.205 105.431 288.53 105.338 288.982 105.082 C 289.187 104.965 289.423 104.817 289.687 104.641 L 290.645 106.319 C 290.05 106.804 289.605 107.131 289.318 107.293 C 288.372 107.829 287.599 108.03 286.998 107.893 C 286.397 107.756 285.825 107.215 285.284 106.266 L 283.249 102.699 L 282.031 103.387 L 281.026 101.626 L 282.373 100.861 L 281.265 98.497 L 283.125 97.236 L 284.504 99.653 L 286.162 98.708 L 287.169 100.47 L 285.511 101.413 Z M 298.776 100.02 L 293.518 102.196 C 293.572 102.343 293.622 102.47 293.666 102.576 C 293.91 103.16 294.247 103.532 294.681 103.702 C 295.111 103.868 295.546 103.864 295.976 103.684 C 296.779 103.353 297.083 102.725 296.891 101.802 L 299.141 101.06 C 299.315 103.196 298.468 104.649 296.602 105.422 C 295.789 105.757 295.03 105.884 294.326 105.792 C 293.62 105.703 292.956 105.422 292.324 104.95 C 291.696 104.479 291.201 103.807 290.839 102.934 C 290.301 101.64 290.234 100.438 290.645 99.334 C 291.056 98.233 291.844 97.437 293.009 96.957 C 294.061 96.523 295.114 96.52 296.177 96.947 C 297.235 97.377 298.102 98.399 298.776 100.02 Z M 292.929 100.802 L 295.834 99.601 C 295.292 98.512 294.599 98.144 293.75 98.493 C 292.845 98.869 292.571 99.639 292.929 100.802 Z M 305.443 93.737 C 306.785 93.605 307.876 93.939 308.712 94.74 C 309.552 95.54 310.038 96.6 310.168 97.916 C 310.295 99.215 310.013 100.336 309.316 101.28 C 308.62 102.225 307.623 102.758 306.328 102.886 C 305.073 103.011 304.028 102.68 303.191 101.895 C 302.355 101.112 301.871 100.047 301.737 98.7 C 301.644 97.769 301.737 96.957 302.012 96.272 C 302.287 95.589 302.701 95.016 303.254 94.556 C 303.806 94.098 304.536 93.825 305.443 93.737 Z M 305.682 95.425 C 305.187 95.474 304.833 95.699 304.62 96.104 C 304.409 96.51 304.358 97.276 304.471 98.407 C 304.573 99.443 304.765 100.177 305.049 100.606 C 305.332 101.034 305.726 101.225 306.229 101.174 C 306.67 101.131 307.01 100.903 307.246 100.491 C 307.481 100.077 307.542 99.331 307.438 98.246 C 307.323 97.093 307.127 96.32 306.844 95.933 C 306.563 95.547 306.175 95.378 305.682 95.425 Z M 315.537 101.477 L 313.045 101.912 L 311.518 93.219 L 313.876 92.807 L 314.159 94.427 C 314.308 93.159 314.829 92.447 315.722 92.289 C 315.847 92.269 316.004 92.248 316.191 92.234 L 316.635 94.765 C 316.111 94.858 315.719 95.01 315.457 95.218 C 315.196 95.43 315.008 95.759 314.897 96.208 C 314.785 96.657 314.794 97.234 314.915 97.94 L 315.537 101.477 Z M 320.925 91.33 L 322.525 100.011 L 319.957 100.481 L 318.359 91.802 L 320.925 91.33 Z M 320.319 88.039 L 320.793 90.599 L 318.223 91.068 L 317.754 88.508 L 320.319 88.039 Z M 333.087 98.862 L 330.565 99.052 C 330.457 98.711 330.38 98.256 330.336 97.685 C 329.944 98.349 329.533 98.796 329.109 99.037 C 328.687 99.276 328.194 99.417 327.637 99.46 C 326.808 99.521 326.124 99.349 325.579 98.941 C 325.038 98.533 324.736 97.949 324.678 97.195 C 324.636 96.644 324.747 96.123 325.006 95.637 C 325.268 95.15 325.72 94.749 326.356 94.435 C 326.994 94.121 328.177 93.833 329.909 93.573 L 329.869 93.067 C 329.803 92.212 329.344 91.819 328.488 91.882 C 327.576 91.954 327.098 92.42 327.058 93.282 L 324.641 93.239 C 324.72 92.227 325.142 91.482 325.9 91.003 C 326.661 90.525 327.54 90.247 328.541 90.17 C 329.141 90.125 329.711 90.153 330.251 90.25 C 330.793 90.352 331.221 90.528 331.538 90.784 C 331.859 91.041 332.08 91.32 332.208 91.623 C 332.338 91.925 332.431 92.462 332.489 93.237 L 332.796 97.228 C 332.856 97.993 332.949 98.538 333.087 98.862 Z M 330.006 94.854 C 328.197 95.172 327.331 95.79 327.398 96.708 C 327.422 97.016 327.539 97.273 327.747 97.483 C 327.957 97.695 328.239 97.784 328.594 97.756 C 329.055 97.721 329.425 97.5 329.707 97.098 C 329.988 96.693 330.11 96.214 330.068 95.655 L 330.006 94.854 Z M 338.481 98.628 L 335.776 98.661 L 335.741 95.963 L 338.449 95.93 L 338.481 98.628 Z M 341.327 101.619 L 341.327 89.813 L 343.726 89.813 L 343.726 91.106 C 344.171 90.122 344.946 89.629 346.056 89.629 C 347.014 89.629 347.797 90.014 348.408 90.778 C 349.018 91.547 349.323 92.66 349.323 94.122 C 349.323 95.679 349.015 96.849 348.4 97.64 C 347.783 98.428 346.981 98.822 345.997 98.822 C 344.998 98.822 344.283 98.435 343.858 97.661 L 343.858 101.619 L 341.327 101.619 Z M 343.858 94.778 C 343.858 95.4 343.897 95.83 343.971 96.069 C 344.049 96.31 344.208 96.524 344.455 96.712 C 344.699 96.903 344.966 96.995 345.253 96.995 C 345.609 96.995 345.928 96.814 346.206 96.45 C 346.487 96.087 346.626 95.283 346.626 94.044 C 346.626 92.301 346.165 91.43 345.242 91.43 C 344.893 91.43 344.573 91.584 344.286 91.894 C 344.004 92.201 343.858 92.726 343.858 93.464 L 343.858 94.778 Z M 364.191 101.063 L 361.669 100.395 L 362.928 95.676 C 363.102 95.011 363.198 94.573 363.215 94.362 C 363.227 94.153 363.17 93.96 363.038 93.782 C 362.906 93.607 362.693 93.479 362.4 93.401 C 362.123 93.329 361.815 93.351 361.476 93.471 C 361.135 93.593 360.841 94.121 360.593 95.053 L 359.335 99.776 L 356.823 99.108 L 358.079 94.387 C 358.26 93.706 358.347 93.258 358.339 93.043 C 358.327 92.824 358.254 92.633 358.116 92.462 C 357.976 92.292 357.776 92.173 357.51 92.102 C 357.075 91.987 356.716 92.039 356.432 92.256 C 356.148 92.473 355.899 92.973 355.692 93.754 L 354.435 98.476 L 351.988 97.827 L 354.262 89.297 L 356.631 89.925 L 356.285 91.226 C 356.949 90.347 357.88 90.067 359.081 90.386 C 360.169 90.676 360.826 91.377 361.05 92.491 C 361.786 91.632 362.742 91.359 363.922 91.671 C 364.486 91.823 364.94 92.065 365.286 92.402 C 365.629 92.744 365.839 93.119 365.916 93.537 C 365.991 93.956 365.668 95.524 365.668 95.524 L 364.191 101.063 Z M 369.887 92.112 L 369.872 95.422 L 369.848 100.939 L 367.239 100.925 L 367.277 92.101 L 369.887 92.112 Z M 369.902 88.765 L 369.89 91.368 L 367.282 91.358 L 367.294 88.754 L 369.902 88.765 Z M 380.625 92.586 L 377.862 96.526 L 380.58 101.422 L 377.608 101.262 L 375.933 98.13 L 373.97 101.069 L 371.742 100.949 L 374.906 96.367 L 372.616 92.159 L 375.588 92.318 L 376.867 94.775 L 378.395 92.468 L 380.625 92.586 Z M 385.008 101.588 L 382.312 101.356 L 382.545 98.668 L 385.241 98.9 L 385.008 101.588 Z M 395.228 103.945 L 392.666 103.45 L 393.608 98.585 C 393.722 97.997 393.778 97.587 393.773 97.362 C 393.77 97.136 393.694 96.93 393.546 96.744 C 393.398 96.558 393.189 96.439 392.92 96.387 C 392.019 96.214 391.442 96.791 391.185 98.119 L 390.242 102.982 L 387.681 102.487 L 389.358 93.823 L 391.741 94.281 L 391.455 95.749 C 391.986 95.127 392.464 94.754 392.887 94.629 C 393.309 94.501 393.744 94.481 394.191 94.568 C 395.017 94.727 395.639 95.078 396.056 95.616 C 396.475 96.16 396.56 97.081 396.306 98.377 L 395.228 103.945 Z M 406.624 102.265 L 401.02 101.274 C 400.987 101.427 400.96 101.561 400.939 101.676 C 400.829 102.295 400.91 102.791 401.185 103.164 C 401.461 103.538 401.829 103.767 402.287 103.847 C 403.144 104.001 403.74 103.635 404.074 102.753 L 406.371 103.339 C 405.365 105.232 403.868 106.001 401.879 105.649 C 401.011 105.495 400.303 105.191 399.759 104.736 C 399.215 104.281 398.805 103.686 398.528 102.952 C 398.254 102.217 398.2 101.385 398.366 100.455 C 398.61 99.072 399.203 98.027 400.145 97.318 C 401.085 96.61 402.178 96.365 403.419 96.584 C 404.54 96.784 405.432 97.349 406.091 98.278 C 406.755 99.209 406.932 100.538 406.624 102.265 Z M 401.276 99.782 L 404.372 100.33 C 404.504 99.124 404.118 98.439 403.214 98.28 C 402.251 98.111 401.603 98.608 401.276 99.782 Z M 413.975 101.41 L 412.36 104.774 C 412.156 105.196 412.087 105.506 412.146 105.708 C 412.204 105.909 412.467 106.123 412.935 106.347 C 413.151 106.451 413.407 106.56 413.702 106.675 L 412.866 108.415 C 412.126 108.204 411.607 108.025 411.306 107.884 C 410.326 107.416 409.72 106.898 409.492 106.327 C 409.26 105.753 409.379 104.976 409.853 103.994 L 411.628 100.289 L 410.365 99.684 L 411.242 97.856 L 412.64 98.522 L 413.954 96.266 L 416.055 97.073 L 414.851 99.579 L 416.573 100.403 L 415.698 102.232 L 413.975 101.41 Z" style="fill: rgb(51, 51, 51); white-space: pre; mix-blend-mode: color-dodge; opacity: 0.28;"/>
</svg>