<?xml version="1.0" encoding="utf-8"?>
<svg viewBox="0 0 683.37695 683.37695" width="683.377px" height="683.377px" xmlns="http://www.w3.org/2000/svg">
  <g id="layer1" transform="matrix(5.511535, 0, 0, 5.511535, 274.728485, 350.227417)" style="">
    <path id="circle4853" transform="matrix(0.17273859,0,0,0.17273859,73.158541,-109.65662)" style="fill-opacity: 1; stroke-linecap: round; stroke-linejoin: round; stroke-miterlimit: 4; stroke-dasharray: none; stroke-opacity: 1; stroke-width: 14px; fill: rgb(255, 255, 255); stroke: rgb(0, 135, 84);" d="m -350.73047,286.61328 c -188.71025,-9.1e-4 -341.69036,152.9792 -341.68945,341.68945 1.7e-4,188.70949 152.97996,341.68841 341.68945,341.6875 C -162.02174,969.99006 -9.0431345,817.01146 -9.0429688,628.30273 -9.0420575,439.59324 -162.02098,286.61345 -350.73047,286.61328 Z"/>
    <ellipse cx="12.501" cy="-1.201" rx="43.677" ry="43.677" style="fill: rgb(0, 135, 84);"/>
    <path id="circle4853-2" style="fill-opacity: 1; stroke-width: 3.0634; stroke-linecap: round; stroke-linejoin: round; stroke-miterlimit: 4; stroke-dasharray: none; stroke-opacity: 1; fill: rgb(226, 10, 22); visibility: hidden; stroke: rgb(180, 10, 0);" d="M 12.963 -48.681 C -13.442 -48.681 -34.846 -27.276 -34.846 -0.872 C -34.846 25.532 -13.442 46.937 12.963 46.937 C 39.367 46.937 60.771 25.532 60.771 -0.872 C 60.771 -27.276 39.367 -48.681 12.963 -48.681 Z"/>
    <path d="M 31.35 -18.06 L 30.935 -18.06 Q 30.315 -18.06 29.929 -18.387 Q 29.509 -18.06 28.845 -18.06 L 28.323 -18.06 Q 27.918 -18.06 27.405 -18.368 Q 27.171 -18.187 27 -18.133 Q 26.78 -18.06 26.34 -18.06 L 25.007 -18.06 L 25.007 -18.909 L 26.34 -18.909 Q 26.736 -18.909 26.907 -18.978 Q 27.19 -19.095 27.19 -19.427 Q 27.19 -19.715 27.122 -20.028 L 27.322 -20.321 Q 27.517 -19.666 27.703 -19.373 Q 27.991 -18.909 28.425 -18.909 L 28.958 -18.909 Q 29.695 -18.909 29.695 -19.427 Q 29.695 -19.696 29.622 -20.028 L 29.827 -20.321 Q 29.861 -20.159 29.929 -19.862 Q 30.154 -18.924 30.808 -18.924 Q 31.091 -18.924 31.091 -19.212 Q 31.091 -19.534 30.652 -20.106 L 30.969 -20.638 Q 31.174 -20.33 31.243 -20.116 Q 31.35 -19.788 31.35 -19.232 Z M 25.349 -18.06 Q 25.349 -17.269 24.421 -16.458 Q 23.567 -15.721 22.961 -15.721 Q 22.492 -15.721 21.872 -15.926 Q 21.35 -16.117 20.822 -16.312 L 20.905 -16.507 Q 21.926 -16.312 22.209 -16.312 Q 23.152 -16.312 24.094 -17.137 Q 24.997 -17.933 24.997 -18.646 Q 24.997 -19.349 24.265 -20.159 L 24.543 -20.926 Q 25.349 -20.184 25.349 -19.246 Z" transform="matrix(3.98524, 0, 0, 3.88685, -89.875809, 55.293381)" style="fill: rgb(255, 255, 255); white-space: pre;"/>
    <path transform="matrix(3.98524, 0, 0, 3.88685, -89.875809, 55.293381)" style="fill: rgb(255, 255, 255); white-space: pre;"/>
    <path d="M 5.433 18.638 L 5.433 14.275 L 15.448 14.275 L 15.448 23.216 Q 12.572 25.176 10.362 25.884 Q 8.151 26.593 5.118 26.593 Q 1.384 26.593 -0.969 25.319 Q -3.323 24.046 -4.617 21.528 Q -5.912 19.01 -5.912 15.748 Q -5.912 12.315 -4.496 9.775 Q -3.079 7.236 -0.347 5.92 Q 1.785 4.904 5.39 4.904 Q 8.867 4.904 10.591 5.533 Q 12.314 6.163 13.452 7.486 Q 14.589 8.81 15.162 10.841 L 8.91 11.957 Q 8.523 10.77 7.6 10.14 Q 6.678 9.511 5.247 9.511 Q 3.115 9.511 1.849 10.991 Q 0.583 12.472 0.583 15.677 Q 0.583 19.082 1.863 20.541 Q 3.144 22 5.433 22 Q 6.52 22 7.507 21.685 Q 8.495 21.371 9.768 20.612 L 9.768 18.638 Z M 16.575 18.681 Q 16.575 15.205 18.921 12.951 Q 21.267 10.698 25.259 10.698 Q 29.823 10.698 32.155 13.345 Q 34.029 15.476 34.029 18.595 Q 34.029 22.1 31.704 24.339 Q 29.379 26.578 25.273 26.578 Q 21.611 26.578 19.35 24.718 Q 16.575 22.415 16.575 18.681 Z M 22.412 18.667 Q 22.412 20.698 23.235 21.671 Q 24.057 22.644 25.302 22.644 Q 26.561 22.644 27.369 21.685 Q 28.178 20.727 28.178 18.61 Q 28.178 16.635 27.362 15.67 Q 26.547 14.704 25.345 14.704 Q 24.072 14.704 23.242 15.684 Q 22.412 16.664 22.412 18.667 Z" style="fill: rgb(255, 255, 255); white-space: pre;"/>
  </g>
  <path d="M 210.687 56.494 L 214.686 63.506 C 215.186 64.382 215.652 64.893 216.084 65.039 C 216.516 65.185 217.22 64.981 218.196 64.425 C 218.645 64.17 219.154 63.852 219.722 63.472 L 221.791 67.101 C 220.504 68.152 219.546 68.855 218.92 69.21 C 216.881 70.369 215.209 70.8 213.907 70.503 C 212.605 70.207 211.37 69.036 210.202 66.988 L 205.8 59.271 L 203.168 60.766 L 200.995 56.956 L 203.907 55.302 L 201.511 50.185 L 205.535 47.463 L 208.514 52.685 L 212.1 50.647 L 214.274 54.456 L 210.687 56.494 Z M 239.372 53.481 L 228.004 58.185 C 228.123 58.504 228.231 58.78 228.328 59.013 C 228.85 60.27 229.579 61.079 230.516 61.441 C 231.452 61.804 232.386 61.792 233.319 61.406 C 235.056 60.688 235.716 59.33 235.296 57.335 L 240.163 55.73 C 240.538 60.347 238.708 63.492 234.675 65.16 C 232.913 65.889 231.272 66.157 229.75 65.962 C 228.226 65.767 226.786 65.16 225.426 64.14 C 224.067 63.122 222.996 61.67 222.212 59.784 C 221.047 56.981 220.907 54.386 221.795 52 C 222.683 49.614 224.386 47.902 226.905 46.859 C 229.178 45.917 231.461 45.91 233.752 46.837 C 236.044 47.764 237.917 49.978 239.372 53.481 Z M 226.732 55.173 L 233.01 52.574 C 231.841 50.223 230.342 49.425 228.511 50.182 C 226.552 50.992 225.959 52.656 226.732 55.173 Z M 253.79 39.894 C 256.692 39.609 259.049 40.333 260.862 42.065 C 262.676 43.799 263.724 46.087 264.005 48.934 C 264.282 51.741 263.668 54.165 262.163 56.205 C 260.66 58.246 258.506 59.404 255.705 59.678 C 252.992 59.946 250.73 59.231 248.921 57.535 C 247.111 55.84 246.062 53.539 245.775 50.631 C 245.575 48.612 245.774 46.862 246.369 45.38 C 246.964 43.897 247.86 42.66 249.056 41.669 C 250.252 40.679 251.83 40.087 253.79 39.894 Z M 254.303 43.546 C 253.235 43.651 252.471 44.14 252.012 45.015 C 251.554 45.889 251.444 47.548 251.686 49.992 C 251.908 52.237 252.324 53.822 252.936 54.749 C 253.548 55.676 254.4 56.086 255.492 55.978 C 256.447 55.884 257.178 55.392 257.686 54.5 C 258.195 53.609 258.332 51.991 258.101 49.647 C 257.855 47.152 257.428 45.485 256.818 44.646 C 256.209 43.808 255.37 43.441 254.303 43.546 Z M 275.613 56.633 L 270.224 57.574 L 266.927 38.776 L 272.019 37.887 L 272.632 41.386 C 272.958 38.644 274.085 37.105 276.012 36.768 C 276.286 36.721 276.624 36.68 277.029 36.648 L 277.989 42.12 C 276.857 42.317 276.008 42.644 275.441 43.102 C 274.875 43.558 274.471 44.272 274.23 45.24 C 273.99 46.21 274.005 47.457 274.272 48.983 L 275.613 56.633 Z M 287.267 34.691 L 290.724 53.46 L 285.175 54.478 L 281.717 35.71 L 287.267 34.691 Z M 285.955 27.574 L 286.975 33.113 L 281.426 34.13 L 280.406 28.592 L 285.955 27.574 Z M 313.561 50.975 L 308.105 51.391 C 307.872 50.651 307.708 49.665 307.614 48.434 C 306.761 49.864 305.876 50.837 304.96 51.355 C 304.044 51.874 302.981 52.178 301.774 52.27 C 299.986 52.406 298.505 52.033 297.33 51.149 C 296.155 50.266 295.505 49.008 295.38 47.374 C 295.288 46.182 295.526 45.059 296.091 44.004 C 296.656 42.952 297.628 42.085 299.007 41.405 C 300.385 40.726 302.945 40.105 306.687 39.541 L 306.603 38.448 C 306.462 36.602 305.468 35.75 303.618 35.89 C 301.641 36.041 300.61 37.048 300.525 38.911 L 295.296 38.817 C 295.471 36.631 296.38 35.021 298.022 33.985 C 299.664 32.951 301.568 32.352 303.733 32.186 C 305.029 32.088 306.261 32.146 307.429 32.361 C 308.598 32.575 309.526 32.959 310.214 33.513 C 310.902 34.067 311.385 34.672 311.663 35.326 C 311.941 35.981 312.144 37.143 312.271 38.813 L 312.931 47.442 C 313.058 49.1 313.268 50.278 313.561 50.975 Z M 306.899 42.311 C 302.989 43 301.111 44.337 301.262 46.321 C 301.313 46.987 301.565 47.546 302.017 47.998 C 302.469 48.45 303.079 48.646 303.846 48.588 C 304.84 48.512 305.643 48.037 306.254 47.164 C 306.864 46.29 307.124 45.25 307.031 44.044 L 306.899 42.311 Z M 325.223 50.473 L 319.374 50.545 L 319.301 44.707 L 325.152 44.636 L 325.223 50.473 Z M 331.38 56.939 L 331.38 31.412 L 336.567 31.412 L 336.567 34.209 C 337.527 32.08 339.206 31.016 341.604 31.016 C 343.674 31.016 345.368 31.845 346.687 33.5 C 348.007 35.158 348.666 37.567 348.666 40.728 C 348.666 44.091 348.001 46.626 346.669 48.333 C 345.337 50.04 343.604 50.892 341.472 50.892 C 339.313 50.892 337.773 50.055 336.851 48.38 L 336.851 56.939 L 331.38 56.939 Z M 336.851 42.145 C 336.851 43.493 336.933 44.425 337.098 44.941 C 337.262 45.458 337.609 45.921 338.139 46.33 C 338.67 46.74 339.244 46.944 339.863 46.944 C 340.633 46.944 341.321 46.55 341.926 45.763 C 342.532 44.976 342.835 43.241 342.835 40.558 C 342.835 36.792 341.838 34.908 339.843 34.908 C 339.086 34.908 338.397 35.242 337.78 35.91 C 337.162 36.578 336.851 37.711 336.851 39.31 L 336.851 42.145 Z M 380.814 55.74 L 375.361 54.293 L 378.082 44.086 C 378.464 42.65 378.67 41.704 378.7 41.249 C 378.73 40.795 378.603 40.377 378.32 39.995 C 378.036 39.614 377.577 39.339 376.943 39.17 C 376.345 39.012 375.678 39.063 374.943 39.324 C 374.207 39.585 373.57 40.726 373.032 42.746 L 370.312 52.953 L 364.878 51.511 L 367.597 41.304 C 367.989 39.831 368.176 38.861 368.158 38.393 C 368.138 37.926 367.978 37.509 367.677 37.142 C 367.377 36.775 366.94 36.516 366.367 36.364 C 365.427 36.114 364.65 36.224 364.036 36.693 C 363.421 37.163 362.888 38.244 362.437 39.935 L 359.717 50.141 L 354.429 48.739 L 359.343 30.297 L 364.466 31.656 L 363.717 34.468 C 365.151 32.568 367.168 31.962 369.766 32.652 C 372.12 33.277 373.538 34.793 374.019 37.202 C 375.611 35.344 377.682 34.753 380.231 35.429 C 381.451 35.753 382.434 36.281 383.179 37.012 C 383.924 37.745 384.378 38.562 384.543 39.466 C 384.707 40.37 384.528 41.802 384.006 43.761 L 380.814 55.74 Z M 393.13 36.383 L 393.044 55.467 L 387.403 55.441 L 387.487 36.358 L 393.13 36.383 Z M 393.162 29.147 L 393.136 34.777 L 387.494 34.752 L 387.519 29.122 L 393.162 29.147 Z M 416.346 37.408 L 410.371 45.925 L 416.251 56.514 L 409.823 56.17 L 406.204 49.393 L 401.958 55.75 L 397.136 55.493 L 403.981 45.585 L 399.028 36.483 L 405.456 36.827 L 408.224 42.14 L 411.524 37.151 L 416.346 37.408 Z M 425.824 56.873 L 419.995 56.371 L 420.498 50.554 L 426.326 51.056 L 425.824 56.873 Z M 447.921 61.967 L 442.382 60.898 L 444.419 50.379 C 444.666 49.107 444.786 48.224 444.778 47.736 C 444.77 47.247 444.605 46.801 444.284 46.399 C 443.964 45.997 443.512 45.74 442.93 45.627 C 440.984 45.253 439.733 46.499 439.177 49.368 L 437.14 59.886 L 431.6 58.817 L 435.231 40.081 L 440.379 41.074 L 439.765 44.247 C 440.913 42.903 441.944 42.095 442.857 41.823 C 443.771 41.55 444.712 41.507 445.678 41.693 C 447.463 42.038 448.807 42.795 449.713 43.963 C 450.618 45.133 450.798 47.121 450.254 49.927 L 447.921 61.967 Z M 472.561 58.336 L 460.444 56.19 C 460.372 56.523 460.315 56.813 460.27 57.061 C 460.032 58.401 460.209 59.475 460.802 60.283 C 461.396 61.091 462.19 61.584 463.184 61.76 C 465.036 62.088 466.323 61.3 467.047 59.393 L 472.015 60.657 C 469.838 64.749 466.6 66.414 462.3 65.652 C 460.423 65.321 458.896 64.662 457.718 63.68 C 456.54 62.698 455.653 61.411 455.058 59.822 C 454.463 58.233 454.344 56.433 454.701 54.424 C 455.233 51.435 456.516 49.174 458.552 47.641 C 460.587 46.109 462.947 45.581 465.631 46.056 C 468.055 46.485 469.982 47.706 471.413 49.717 C 472.842 51.73 473.225 54.603 472.561 58.336 Z M 460.998 52.968 L 467.691 54.153 C 467.975 51.543 467.142 50.065 465.191 49.719 C 463.104 49.35 461.706 50.432 460.998 52.968 Z M 488.454 56.484 L 484.964 63.762 C 484.528 64.671 484.373 65.344 484.499 65.781 C 484.626 66.218 485.195 66.679 486.209 67.162 C 486.675 67.386 487.227 67.621 487.863 67.869 L 486.058 71.636 C 484.458 71.179 483.333 70.796 482.684 70.487 C 480.566 69.475 479.258 68.351 478.76 67.114 C 478.261 65.878 478.521 64.197 479.54 62.073 L 483.382 54.061 L 480.649 52.757 L 482.544 48.802 L 485.568 50.246 L 488.412 45.364 L 492.949 47.111 L 490.349 52.53 L 494.073 54.307 L 492.177 58.262 L 488.454 56.484 Z" style="fill: rgb(51, 51, 51); white-space: pre; mix-blend-mode: color-dodge; opacity: 0.28; visibility: hidden;"/>
  <g/>
  <path d="M 285.511 138.413 L 287.359 141.655 C 287.59 142.06 287.806 142.297 288.003 142.365 C 288.205 142.431 288.53 142.338 288.982 142.082 C 289.187 141.965 289.423 141.817 289.687 141.641 L 290.645 143.319 C 290.05 143.804 289.605 144.131 289.318 144.293 C 288.372 144.829 287.599 145.03 286.998 144.893 C 286.397 144.756 285.825 144.215 285.284 143.266 L 283.249 139.699 L 282.031 140.387 L 281.026 138.626 L 282.373 137.861 L 281.265 135.497 L 283.125 134.236 L 284.504 136.653 L 286.162 135.708 L 287.169 137.47 L 285.511 138.413 Z M 298.776 137.02 L 293.518 139.196 C 293.572 139.343 293.622 139.47 293.666 139.576 C 293.91 140.16 294.247 140.532 294.681 140.702 C 295.111 140.868 295.546 140.864 295.976 140.684 C 296.779 140.353 297.083 139.725 296.891 138.802 L 299.141 138.06 C 299.315 140.196 298.468 141.649 296.602 142.422 C 295.789 142.757 295.03 142.884 294.326 142.792 C 293.62 142.703 292.956 142.422 292.324 141.95 C 291.696 141.479 291.201 140.807 290.839 139.934 C 290.301 138.64 290.234 137.438 290.645 136.334 C 291.056 135.233 291.844 134.437 293.009 133.957 C 294.061 133.523 295.114 133.52 296.177 133.947 C 297.235 134.377 298.102 135.399 298.776 137.02 Z M 292.929 137.802 L 295.834 136.601 C 295.292 135.512 294.599 135.144 293.75 135.493 C 292.845 135.869 292.571 136.639 292.929 137.802 Z M 305.443 130.737 C 306.785 130.605 307.876 130.939 308.712 131.74 C 309.552 132.54 310.038 133.6 310.168 134.916 C 310.295 136.215 310.013 137.336 309.316 138.28 C 308.62 139.225 307.623 139.758 306.328 139.886 C 305.073 140.011 304.028 139.68 303.191 138.895 C 302.355 138.112 301.871 137.047 301.737 135.7 C 301.644 134.769 301.737 133.957 302.012 133.272 C 302.287 132.589 302.701 132.016 303.254 131.556 C 303.806 131.098 304.536 130.825 305.443 130.737 Z M 305.682 132.425 C 305.187 132.474 304.833 132.699 304.62 133.104 C 304.409 133.51 304.358 134.276 304.471 135.407 C 304.573 136.443 304.765 137.177 305.049 137.606 C 305.332 138.034 305.726 138.225 306.229 138.174 C 306.67 138.131 307.01 137.903 307.246 137.491 C 307.481 137.077 307.542 136.331 307.438 135.246 C 307.323 134.093 307.127 133.32 306.844 132.933 C 306.563 132.547 306.175 132.378 305.682 132.425 Z M 315.537 138.477 L 313.045 138.912 L 311.518 130.219 L 313.876 129.807 L 314.159 131.427 C 314.308 130.159 314.829 129.447 315.722 129.289 C 315.847 129.269 316.004 129.248 316.191 129.234 L 316.635 131.765 C 316.111 131.858 315.719 132.01 315.457 132.218 C 315.196 132.43 315.008 132.759 314.897 133.208 C 314.785 133.657 314.794 134.234 314.915 134.94 L 315.537 138.477 Z M 320.925 128.33 L 322.525 137.011 L 319.957 137.481 L 318.359 128.802 L 320.925 128.33 Z M 320.319 125.039 L 320.793 127.599 L 318.223 128.068 L 317.754 125.508 L 320.319 125.039 Z M 333.087 135.862 L 330.565 136.052 C 330.457 135.711 330.38 135.256 330.336 134.685 C 329.944 135.349 329.533 135.796 329.109 136.037 C 328.687 136.276 328.194 136.417 327.637 136.46 C 326.808 136.521 326.124 136.349 325.579 135.941 C 325.038 135.533 324.736 134.949 324.678 134.195 C 324.636 133.644 324.747 133.123 325.006 132.637 C 325.268 132.15 325.72 131.749 326.356 131.435 C 326.994 131.121 328.177 130.833 329.909 130.573 L 329.869 130.067 C 329.803 129.212 329.344 128.819 328.488 128.882 C 327.576 128.954 327.098 129.42 327.058 130.282 L 324.641 130.239 C 324.72 129.227 325.142 128.482 325.9 128.003 C 326.661 127.525 327.54 127.247 328.541 127.17 C 329.141 127.125 329.711 127.153 330.251 127.25 C 330.793 127.352 331.221 127.528 331.538 127.784 C 331.859 128.041 332.08 128.32 332.208 128.623 C 332.338 128.925 332.431 129.462 332.489 130.237 L 332.796 134.228 C 332.856 134.993 332.949 135.538 333.087 135.862 Z M 330.006 131.854 C 328.197 132.172 327.331 132.79 327.398 133.708 C 327.422 134.016 327.539 134.273 327.747 134.483 C 327.957 134.695 328.239 134.784 328.594 134.756 C 329.055 134.721 329.425 134.5 329.707 134.098 C 329.988 133.693 330.11 133.214 330.068 132.655 L 330.006 131.854 Z M 338.481 135.628 L 335.776 135.661 L 335.741 132.963 L 338.449 132.93 L 338.481 135.628 Z M 341.327 138.619 L 341.327 126.813 L 343.726 126.813 L 343.726 128.106 C 344.171 127.122 344.946 126.629 346.056 126.629 C 347.014 126.629 347.797 127.014 348.408 127.778 C 349.018 128.547 349.323 129.66 349.323 131.122 C 349.323 132.679 349.015 133.849 348.4 134.64 C 347.783 135.428 346.981 135.822 345.997 135.822 C 344.998 135.822 344.283 135.435 343.858 134.661 L 343.858 138.619 L 341.327 138.619 Z M 343.858 131.778 C 343.858 132.4 343.897 132.83 343.971 133.069 C 344.049 133.31 344.208 133.524 344.455 133.712 C 344.699 133.903 344.966 133.995 345.253 133.995 C 345.609 133.995 345.928 133.814 346.206 133.45 C 346.487 133.087 346.626 132.283 346.626 131.044 C 346.626 129.301 346.165 128.43 345.242 128.43 C 344.893 128.43 344.573 128.584 344.286 128.894 C 344.004 129.201 343.858 129.726 343.858 130.464 L 343.858 131.778 Z M 364.191 138.063 L 361.669 137.395 L 362.928 132.676 C 363.102 132.011 363.198 131.573 363.215 131.362 C 363.227 131.153 363.17 130.96 363.038 130.782 C 362.906 130.607 362.693 130.479 362.4 130.401 C 362.123 130.329 361.815 130.351 361.476 130.471 C 361.135 130.593 360.841 131.121 360.593 132.053 L 359.335 136.776 L 356.823 136.108 L 358.079 131.387 C 358.26 130.706 358.347 130.258 358.339 130.043 C 358.327 129.824 358.254 129.633 358.116 129.462 C 357.976 129.292 357.776 129.173 357.51 129.102 C 357.075 128.987 356.716 129.039 356.432 129.256 C 356.148 129.473 355.899 129.973 355.692 130.754 L 354.435 135.476 L 351.988 134.827 L 354.262 126.297 L 356.631 126.925 L 356.285 128.226 C 356.949 127.347 357.88 127.067 359.081 127.386 C 360.169 127.676 360.826 128.377 361.05 129.491 C 361.786 128.632 362.742 128.359 363.922 128.671 C 364.486 128.823 364.94 129.065 365.286 129.402 C 365.629 129.744 365.839 130.119 365.916 130.537 C 365.991 130.956 365.668 132.524 365.668 132.524 L 364.191 138.063 Z M 369.887 129.112 L 369.872 132.422 L 369.848 137.939 L 367.239 137.925 L 367.277 129.101 L 369.887 129.112 Z M 369.902 125.765 L 369.89 128.368 L 367.282 128.358 L 367.294 125.754 L 369.902 125.765 Z M 380.625 129.586 L 377.862 133.526 L 380.58 138.422 L 377.608 138.262 L 375.933 135.13 L 373.97 138.069 L 371.742 137.949 L 374.906 133.367 L 372.616 129.159 L 375.588 129.318 L 376.867 131.775 L 378.395 129.468 L 380.625 129.586 Z M 385.008 138.588 L 382.312 138.356 L 382.545 135.668 L 385.241 135.9 L 385.008 138.588 Z M 395.228 140.945 L 392.666 140.45 L 393.608 135.585 C 393.722 134.997 393.778 134.587 393.773 134.362 C 393.77 134.136 393.694 133.93 393.546 133.744 C 393.398 133.558 393.189 133.439 392.92 133.387 C 392.019 133.214 391.442 133.791 391.185 135.119 L 390.242 139.982 L 387.681 139.487 L 389.358 130.823 L 391.741 131.281 L 391.455 132.749 C 391.986 132.127 392.464 131.754 392.887 131.629 C 393.309 131.501 393.744 131.481 394.191 131.568 C 395.017 131.727 395.639 132.078 396.056 132.616 C 396.475 133.16 396.56 134.081 396.306 135.377 L 395.228 140.945 Z M 406.624 139.265 L 401.02 138.274 C 400.987 138.427 400.96 138.561 400.939 138.676 C 400.829 139.295 400.91 139.791 401.185 140.164 C 401.461 140.538 401.829 140.767 402.287 140.847 C 403.144 141.001 403.74 140.635 404.074 139.753 L 406.371 140.339 C 405.365 142.232 403.868 143.001 401.879 142.649 C 401.011 142.495 400.303 142.191 399.759 141.736 C 399.215 141.281 398.805 140.686 398.528 139.952 C 398.254 139.217 398.2 138.385 398.366 137.455 C 398.61 136.072 399.203 135.027 400.145 134.318 C 401.085 133.61 402.178 133.365 403.419 133.584 C 404.54 133.784 405.432 134.349 406.091 135.278 C 406.755 136.209 406.932 137.538 406.624 139.265 Z M 401.276 136.782 L 404.372 137.33 C 404.504 136.124 404.118 135.439 403.214 135.28 C 402.251 135.111 401.603 135.608 401.276 136.782 Z M 413.975 138.41 L 412.36 141.774 C 412.156 142.196 412.087 142.506 412.146 142.708 C 412.204 142.909 412.467 143.123 412.935 143.347 C 413.151 143.451 413.407 143.56 413.702 143.675 L 412.866 145.415 C 412.126 145.204 411.607 145.025 411.306 144.884 C 410.326 144.416 409.72 143.898 409.492 143.327 C 409.26 142.753 409.379 141.976 409.853 140.994 L 411.628 137.289 L 410.365 136.684 L 411.242 134.856 L 412.64 135.522 L 413.954 133.266 L 416.055 134.073 L 414.851 136.579 L 416.573 137.403 L 415.698 139.232 L 413.975 138.41 Z" style="fill: rgb(51, 51, 51); white-space: pre; mix-blend-mode: color-dodge; opacity: 0.28;"/>
</svg>