<?xml version="1.0" encoding="utf-8"?>
<svg viewBox="0 0 61.599998 61.599998" width="61.6mm" height="61.6mm" xmlns="http://www.w3.org/2000/svg">
  <g id="layer1" transform="matrix(1, 0, 0, 1, 0, -235.399994)">
    <circle style="opacity:1;fill:#000000;fill-opacity:1;fill-rule:nonzero;stroke:none;stroke-width:0.20635015;stroke-linecap:square;stroke-linejoin:round;stroke-miterlimit:4;stroke-dasharray:none;stroke-opacity:1;paint-order:stroke fill markers" id="path815" cx="30.799999" cy="266.20001" r="30.299999"/>
    <circle r="30" cy="266.20001" cx="30.799999" id="circle819" style="opacity:1;fill:#ffffff;fill-opacity:1;fill-rule:nonzero;stroke:none;stroke-width:0.20430708;stroke-linecap:square;stroke-linejoin:round;stroke-miterlimit:4;stroke-dasharray:none;stroke-opacity:1;paint-order:stroke fill markers"/>
    <circle style="opacity:1;fill:#003c82;fill-opacity:1;fill-rule:nonzero;stroke:none;stroke-width:0.19068664;stroke-linecap:square;stroke-linejoin:round;stroke-miterlimit:4;stroke-dasharray:none;stroke-opacity:1;paint-order:stroke fill markers" id="circle821" cx="30.799999" cy="266.20001" r="28"/>
    <path d="M 19.4 275.2 L 18.4 269.5 L 54.935 271.059 L 54.8 260.731 L 18.4 262.9 L 19.4 257.2 L 6.8 266.2 L 19.4 275.2 Z" id="path3807" style="fill:#ffffff;fill-opacity:1;fill-rule:nonzero;stroke:none;stroke-width:0.07544535" transform="matrix(-1, 0, 0, -1, 61.735003, 532.400024)"/>
    <path d="M 21.886 242.238 L 22.138 242.681 C 22.17 242.736 22.199 242.769 22.227 242.778 C 22.254 242.787 22.298 242.774 22.36 242.739 C 22.388 242.723 22.42 242.703 22.456 242.679 L 22.587 242.908 C 22.506 242.974 22.445 243.019 22.406 243.041 C 22.277 243.114 22.171 243.141 22.089 243.123 C 22.007 243.104 21.929 243.03 21.855 242.901 L 21.578 242.414 L 21.411 242.508 L 21.274 242.268 L 21.458 242.163 L 21.307 241.84 L 21.561 241.668 L 21.749 241.998 L 21.975 241.869 L 22.112 242.11 L 21.886 242.238 Z M 23.697 242.048 L 22.979 242.345 C 22.987 242.365 22.993 242.383 23 242.397 C 23.033 242.477 23.078 242.528 23.138 242.551 C 23.197 242.574 23.256 242.573 23.315 242.548 C 23.424 242.503 23.466 242.417 23.439 242.292 L 23.747 242.19 C 23.77 242.482 23.655 242.68 23.4 242.785 C 23.289 242.831 23.185 242.848 23.089 242.836 C 22.993 242.824 22.902 242.785 22.816 242.721 C 22.731 242.657 22.663 242.565 22.613 242.446 C 22.54 242.269 22.531 242.105 22.587 241.955 C 22.643 241.804 22.751 241.696 22.91 241.63 C 23.053 241.571 23.197 241.57 23.342 241.629 C 23.487 241.687 23.605 241.827 23.697 242.048 Z M 22.899 242.155 L 23.295 241.991 C 23.221 241.842 23.127 241.792 23.011 241.84 C 22.887 241.891 22.85 241.996 22.899 242.155 Z M 24.607 241.191 C 24.79 241.172 24.939 241.218 25.053 241.328 C 25.168 241.437 25.234 241.581 25.252 241.761 C 25.269 241.938 25.23 242.091 25.135 242.22 C 25.04 242.349 24.904 242.422 24.728 242.439 C 24.556 242.456 24.413 242.411 24.299 242.304 C 24.185 242.197 24.119 242.052 24.101 241.868 C 24.088 241.741 24.101 241.63 24.138 241.537 C 24.176 241.443 24.233 241.365 24.308 241.303 C 24.383 241.24 24.483 241.203 24.607 241.191 Z M 24.639 241.421 C 24.572 241.428 24.524 241.459 24.495 241.514 C 24.466 241.569 24.459 241.674 24.474 241.828 C 24.488 241.97 24.514 242.07 24.553 242.128 C 24.591 242.187 24.645 242.213 24.714 242.206 C 24.774 242.2 24.821 242.169 24.853 242.112 C 24.885 242.056 24.893 241.954 24.879 241.806 C 24.863 241.649 24.836 241.543 24.798 241.491 C 24.759 241.438 24.707 241.414 24.639 241.421 Z M 25.984 242.247 L 25.644 242.307 L 25.436 241.12 L 25.757 241.064 L 25.796 241.285 C 25.817 241.112 25.888 241.015 26.009 240.993 C 26.027 240.99 26.048 240.988 26.074 240.986 L 26.134 241.331 C 26.063 241.343 26.009 241.364 25.973 241.393 C 25.938 241.422 25.912 241.467 25.897 241.528 C 25.882 241.589 25.883 241.668 25.9 241.764 L 25.984 242.247 Z M 26.72 240.862 L 26.938 242.047 L 26.588 242.111 L 26.37 240.926 L 26.72 240.862 Z M 26.637 240.413 L 26.701 240.763 L 26.351 240.827 L 26.287 240.477 L 26.637 240.413 Z M 28.38 241.89 L 28.035 241.916 C 28.021 241.869 28.01 241.807 28.004 241.73 C 27.95 241.82 27.894 241.881 27.837 241.914 C 27.779 241.947 27.712 241.966 27.635 241.972 C 27.523 241.98 27.429 241.957 27.355 241.901 C 27.281 241.845 27.24 241.766 27.232 241.663 C 27.226 241.587 27.241 241.517 27.277 241.45 C 27.313 241.383 27.374 241.329 27.461 241.286 C 27.548 241.243 27.71 241.204 27.946 241.168 L 27.941 241.099 C 27.932 240.983 27.869 240.929 27.752 240.938 C 27.627 240.947 27.562 241.011 27.557 241.128 L 27.227 241.123 C 27.238 240.985 27.295 240.883 27.399 240.818 C 27.502 240.752 27.623 240.715 27.759 240.704 C 27.841 240.698 27.919 240.702 27.993 240.715 C 28.066 240.729 28.125 240.753 28.168 240.788 C 28.212 240.823 28.242 240.861 28.26 240.902 C 28.277 240.944 28.29 241.017 28.298 241.122 L 28.34 241.667 C 28.348 241.772 28.361 241.846 28.38 241.89 Z M 27.959 241.343 C 27.712 241.387 27.594 241.471 27.603 241.596 C 27.606 241.638 27.622 241.673 27.651 241.702 C 27.68 241.731 27.718 241.743 27.766 241.739 C 27.829 241.735 27.88 241.705 27.918 241.649 C 27.957 241.594 27.973 241.529 27.967 241.453 L 27.959 241.343 Z M 29.116 241.858 L 28.747 241.863 L 28.742 241.494 L 29.111 241.49 L 29.116 241.858 Z M 29.504 242.266 L 29.504 240.655 L 29.832 240.655 L 29.832 240.832 C 29.892 240.697 29.998 240.63 30.15 240.63 C 30.28 240.63 30.387 240.682 30.471 240.787 C 30.554 240.892 30.595 241.044 30.595 241.243 C 30.595 241.456 30.553 241.615 30.47 241.723 C 30.385 241.831 30.276 241.885 30.142 241.885 C 30.005 241.885 29.908 241.832 29.85 241.726 L 29.85 242.266 L 29.504 242.266 Z M 29.85 241.333 C 29.85 241.418 29.855 241.477 29.865 241.509 C 29.876 241.542 29.898 241.571 29.931 241.597 C 29.965 241.623 30.001 241.635 30.04 241.635 C 30.088 241.635 30.132 241.611 30.17 241.561 C 30.208 241.511 30.227 241.402 30.227 241.233 C 30.227 240.995 30.165 240.876 30.039 240.876 C 29.991 240.876 29.947 240.897 29.908 240.939 C 29.869 240.981 29.85 241.053 29.85 241.154 L 29.85 241.333 Z M 32.625 242.191 L 32.281 242.099 L 32.452 241.455 C 32.476 241.365 32.489 241.305 32.491 241.276 C 32.493 241.247 32.485 241.221 32.467 241.197 C 32.449 241.173 32.421 241.155 32.381 241.145 C 32.343 241.135 32.301 241.138 32.254 241.155 C 32.208 241.171 32.168 241.243 32.134 241.371 L 31.962 242.015 L 31.619 241.924 L 31.79 241.28 C 31.815 241.187 31.827 241.125 31.826 241.096 C 31.825 241.066 31.814 241.04 31.795 241.017 C 31.777 240.994 31.749 240.977 31.713 240.968 C 31.654 240.952 31.604 240.959 31.566 240.989 C 31.527 241.018 31.493 241.086 31.465 241.193 L 31.293 241.837 L 30.959 241.749 L 31.269 240.585 L 31.593 240.67 L 31.546 240.848 C 31.636 240.728 31.763 240.69 31.927 240.734 C 32.076 240.773 32.166 240.869 32.196 241.021 C 32.296 240.903 32.427 240.866 32.588 240.909 C 32.665 240.929 32.727 240.963 32.774 241.009 C 32.821 241.055 32.85 241.106 32.86 241.163 C 32.871 241.221 32.859 241.311 32.826 241.435 L 32.625 242.191 Z M 33.402 240.969 L 33.397 242.174 L 33.041 242.172 L 33.046 240.967 L 33.402 240.969 Z M 33.404 240.512 L 33.403 240.867 L 33.046 240.866 L 33.048 240.511 L 33.404 240.512 Z M 34.868 241.034 L 34.49 241.571 L 34.862 242.24 L 34.456 242.218 L 34.227 241.79 L 33.959 242.192 L 33.655 242.175 L 34.087 241.55 L 33.774 240.975 L 34.18 240.997 L 34.355 241.332 L 34.563 241.017 L 34.868 241.034 Z M 35.466 242.262 L 35.098 242.231 L 35.13 241.863 L 35.498 241.895 L 35.466 242.262 Z M 36.861 242.584 L 36.511 242.516 L 36.64 241.852 C 36.655 241.772 36.663 241.716 36.662 241.686 C 36.662 241.655 36.651 241.626 36.631 241.601 C 36.611 241.576 36.583 241.56 36.546 241.552 C 36.423 241.529 36.344 241.607 36.309 241.789 L 36.18 242.453 L 35.831 242.385 L 36.06 241.202 L 36.385 241.265 L 36.346 241.465 C 36.418 241.38 36.483 241.329 36.541 241.312 C 36.599 241.295 36.658 241.292 36.719 241.304 C 36.832 241.326 36.917 241.374 36.974 241.447 C 37.031 241.521 37.042 241.647 37.008 241.824 L 36.861 242.584 Z M 38.416 242.355 L 37.651 242.219 C 37.647 242.24 37.643 242.259 37.64 242.274 C 37.625 242.359 37.636 242.427 37.674 242.478 C 37.711 242.529 37.761 242.56 37.824 242.571 C 37.941 242.592 38.022 242.542 38.068 242.421 L 38.382 242.501 C 38.244 242.76 38.04 242.864 37.768 242.816 C 37.65 242.796 37.554 242.754 37.479 242.692 C 37.405 242.63 37.349 242.549 37.311 242.449 C 37.274 242.348 37.266 242.235 37.289 242.108 C 37.322 241.919 37.403 241.776 37.532 241.68 C 37.66 241.583 37.809 241.55 37.979 241.58 C 38.132 241.607 38.253 241.684 38.344 241.811 C 38.434 241.938 38.458 242.119 38.416 242.355 Z M 37.686 242.016 L 38.109 242.091 C 38.127 241.926 38.074 241.833 37.951 241.811 C 37.819 241.787 37.731 241.856 37.686 242.016 Z M 39.419 242.238 L 39.199 242.697 C 39.171 242.755 39.162 242.797 39.17 242.825 C 39.178 242.852 39.213 242.881 39.278 242.912 C 39.307 242.926 39.342 242.941 39.382 242.956 L 39.268 243.194 C 39.167 243.165 39.096 243.141 39.055 243.122 C 38.921 243.058 38.839 242.987 38.807 242.909 C 38.776 242.831 38.792 242.725 38.857 242.591 L 39.099 242.085 L 38.927 242.003 L 39.046 241.753 L 39.237 241.844 L 39.417 241.536 L 39.703 241.646 L 39.539 241.988 L 39.774 242.1 L 39.654 242.35 L 39.419 242.238 Z" style="fill: rgb(51, 51, 51); white-space: pre; mix-blend-mode: color-dodge; opacity: 0.28;"/>
  </g>
</svg>