<?xml version="1.0" encoding="utf-8"?>
<svg viewBox="0 0 61.599998 61.599998" width="61.6mm" height="61.6mm" xmlns="http://www.w3.org/2000/svg">
  <g id="layer1" transform="matrix(1, 0, 0, 1, 0, -235.399994)">
    <circle style="opacity:1;fill:#000000;fill-opacity:1;fill-rule:nonzero;stroke:none;stroke-width:0.20635015;stroke-linecap:square;stroke-linejoin:round;stroke-miterlimit:4;stroke-dasharray:none;stroke-opacity:1;paint-order:stroke fill markers" id="path815" cx="30.799999" cy="266.20001" r="30.299999"/>
    <circle r="30" cy="266.20001" cx="30.799999" id="circle819" style="opacity:1;fill:#ffffff;fill-opacity:1;fill-rule:nonzero;stroke:none;stroke-width:0.20430708;stroke-linecap:square;stroke-linejoin:round;stroke-miterlimit:4;stroke-dasharray:none;stroke-opacity:1;paint-order:stroke fill markers"/>
    <circle style="opacity:1;fill:#003c82;fill-opacity:1;fill-rule:nonzero;stroke:none;stroke-width:0.19068664;stroke-linecap:square;stroke-linejoin:round;stroke-miterlimit:4;stroke-dasharray:none;stroke-opacity:1;paint-order:stroke fill markers" id="circle821" cx="30.799999" cy="266.20001" r="28"/>
    <path d="M 19.4 257.2 L 18.4 262.9 L 54.935 261.341 L 54.8 271.669 L 18.4 269.5 L 19.4 275.2 L 6.8 266.2 L 19.4 257.2 Z" id="path3807" style="fill:#ffffff;fill-opacity:1;fill-rule:nonzero;stroke:none;stroke-width:0.07544535"/>
    <path d="M 21.886 242.238 L 22.138 242.681 C 22.17 242.736 22.199 242.769 22.227 242.778 C 22.254 242.787 22.298 242.774 22.36 242.739 C 22.388 242.723 22.42 242.703 22.456 242.679 L 22.587 242.908 C 22.506 242.974 22.445 243.019 22.406 243.041 C 22.277 243.114 22.171 243.141 22.089 243.123 C 22.007 243.104 21.929 243.03 21.855 242.901 L 21.578 242.414 L 21.411 242.508 L 21.274 242.268 L 21.458 242.163 L 21.307 241.84 L 21.561 241.668 L 21.749 241.998 L 21.975 241.869 L 22.112 242.11 L 21.886 242.238 Z M 23.697 242.048 L 22.979 242.345 C 22.987 242.365 22.993 242.383 23 242.397 C 23.033 242.477 23.078 242.528 23.138 242.551 C 23.197 242.574 23.256 242.573 23.315 242.548 C 23.424 242.503 23.466 242.417 23.439 242.292 L 23.747 242.19 C 23.77 242.482 23.655 242.68 23.4 242.785 C 23.289 242.831 23.185 242.848 23.089 242.836 C 22.993 242.824 22.902 242.785 22.816 242.721 C 22.731 242.657 22.663 242.565 22.613 242.446 C 22.54 242.269 22.531 242.105 22.587 241.955 C 22.643 241.804 22.751 241.696 22.91 241.63 C 23.053 241.571 23.197 241.57 23.342 241.629 C 23.487 241.687 23.605 241.827 23.697 242.048 Z M 22.899 242.155 L 23.295 241.991 C 23.221 241.842 23.127 241.792 23.011 241.84 C 22.887 241.891 22.85 241.996 22.899 242.155 Z M 24.607 241.191 C 24.79 241.172 24.939 241.218 25.053 241.328 C 25.168 241.437 25.234 241.581 25.252 241.761 C 25.269 241.938 25.23 242.091 25.135 242.22 C 25.04 242.349 24.904 242.422 24.728 242.439 C 24.556 242.456 24.413 242.411 24.299 242.304 C 24.185 242.197 24.119 242.052 24.101 241.868 C 24.088 241.741 24.101 241.63 24.138 241.537 C 24.176 241.443 24.233 241.365 24.308 241.303 C 24.383 241.24 24.483 241.203 24.607 241.191 Z M 24.639 241.421 C 24.572 241.428 24.524 241.459 24.495 241.514 C 24.466 241.569 24.459 241.674 24.474 241.828 C 24.488 241.97 24.514 242.07 24.553 242.128 C 24.591 242.187 24.645 242.213 24.714 242.206 C 24.774 242.2 24.821 242.169 24.853 242.112 C 24.885 242.056 24.893 241.954 24.879 241.806 C 24.863 241.649 24.836 241.543 24.798 241.491 C 24.759 241.438 24.707 241.414 24.639 241.421 Z M 25.984 242.247 L 25.644 242.307 L 25.436 241.12 L 25.757 241.064 L 25.796 241.285 C 25.817 241.112 25.888 241.015 26.009 240.993 C 26.027 240.99 26.048 240.988 26.074 240.986 L 26.134 241.331 C 26.063 241.343 26.009 241.364 25.973 241.393 C 25.938 241.422 25.912 241.467 25.897 241.528 C 25.882 241.589 25.883 241.668 25.9 241.764 L 25.984 242.247 Z M 26.72 240.862 L 26.938 242.047 L 26.588 242.111 L 26.37 240.926 L 26.72 240.862 Z M 26.637 240.413 L 26.701 240.763 L 26.351 240.827 L 26.287 240.477 L 26.637 240.413 Z M 28.38 241.89 L 28.035 241.916 C 28.021 241.869 28.01 241.807 28.004 241.73 C 27.95 241.82 27.894 241.881 27.837 241.914 C 27.779 241.947 27.712 241.966 27.635 241.972 C 27.523 241.98 27.429 241.957 27.355 241.901 C 27.281 241.845 27.24 241.766 27.232 241.663 C 27.226 241.587 27.241 241.517 27.277 241.45 C 27.313 241.383 27.374 241.329 27.461 241.286 C 27.548 241.243 27.71 241.204 27.946 241.168 L 27.941 241.099 C 27.932 240.983 27.869 240.929 27.752 240.938 C 27.627 240.947 27.562 241.011 27.557 241.128 L 27.227 241.123 C 27.238 240.985 27.295 240.883 27.399 240.818 C 27.502 240.752 27.623 240.715 27.759 240.704 C 27.841 240.698 27.919 240.702 27.993 240.715 C 28.066 240.729 28.125 240.753 28.168 240.788 C 28.212 240.823 28.242 240.861 28.26 240.902 C 28.277 240.944 28.29 241.017 28.298 241.122 L 28.34 241.667 C 28.348 241.772 28.361 241.846 28.38 241.89 Z M 27.959 241.343 C 27.712 241.387 27.594 241.471 27.603 241.596 C 27.606 241.638 27.622 241.673 27.651 241.702 C 27.68 241.731 27.718 241.743 27.766 241.739 C 27.829 241.735 27.88 241.705 27.918 241.649 C 27.957 241.594 27.973 241.529 27.967 241.453 L 27.959 241.343 Z M 29.116 241.858 L 28.747 241.863 L 28.742 241.494 L 29.111 241.49 L 29.116 241.858 Z M 29.504 242.266 L 29.504 240.655 L 29.832 240.655 L 29.832 240.832 C 29.892 240.697 29.998 240.63 30.15 240.63 C 30.28 240.63 30.387 240.682 30.471 240.787 C 30.554 240.892 30.595 241.044 30.595 241.243 C 30.595 241.456 30.553 241.615 30.47 241.723 C 30.385 241.831 30.276 241.885 30.142 241.885 C 30.005 241.885 29.908 241.832 29.85 241.726 L 29.85 242.266 L 29.504 242.266 Z M 29.85 241.333 C 29.85 241.418 29.855 241.477 29.865 241.509 C 29.876 241.542 29.898 241.571 29.931 241.597 C 29.965 241.623 30.001 241.635 30.04 241.635 C 30.088 241.635 30.132 241.611 30.17 241.561 C 30.208 241.511 30.227 241.402 30.227 241.233 C 30.227 240.995 30.165 240.876 30.039 240.876 C 29.991 240.876 29.947 240.897 29.908 240.939 C 29.869 240.981 29.85 241.053 29.85 241.154 L 29.85 241.333 Z M 32.625 242.191 L 32.281 242.099 L 32.452 241.455 C 32.476 241.365 32.489 241.305 32.491 241.276 C 32.493 241.247 32.485 241.221 32.467 241.197 C 32.449 241.173 32.421 241.155 32.381 241.145 C 32.343 241.135 32.301 241.138 32.254 241.155 C 32.208 241.171 32.168 241.243 32.134 241.371 L 31.962 242.015 L 31.619 241.924 L 31.79 241.28 C 31.815 241.187 31.827 241.125 31.826 241.096 C 31.825 241.066 31.814 241.04 31.795 241.017 C 31.777 240.994 31.749 240.977 31.713 240.968 C 31.654 240.952 31.604 240.959 31.566 240.989 C 31.527 241.018 31.493 241.086 31.465 241.193 L 31.293 241.837 L 30.959 241.749 L 31.269 240.585 L 31.593 240.67 L 31.546 240.848 C 31.636 240.728 31.763 240.69 31.927 240.734 C 32.076 240.773 32.166 240.869 32.196 241.021 C 32.296 240.903 32.427 240.866 32.588 240.909 C 32.665 240.929 32.727 240.963 32.774 241.009 C 32.821 241.055 32.85 241.106 32.86 241.163 C 32.871 241.221 32.859 241.311 32.826 241.435 L 32.625 242.191 Z M 33.402 240.969 L 33.397 242.174 L 33.041 242.172 L 33.046 240.967 L 33.402 240.969 Z M 33.404 240.512 L 33.403 240.867 L 33.046 240.866 L 33.048 240.511 L 33.404 240.512 Z M 34.868 241.034 L 34.49 241.571 L 34.862 242.24 L 34.456 242.218 L 34.227 241.79 L 33.959 242.192 L 33.655 242.175 L 34.087 241.55 L 33.774 240.975 L 34.18 240.997 L 34.355 241.332 L 34.563 241.017 L 34.868 241.034 Z M 35.466 242.262 L 35.098 242.231 L 35.13 241.863 L 35.498 241.895 L 35.466 242.262 Z M 36.861 242.584 L 36.511 242.516 L 36.64 241.852 C 36.655 241.772 36.663 241.716 36.662 241.686 C 36.662 241.655 36.651 241.626 36.631 241.601 C 36.611 241.576 36.583 241.56 36.546 241.552 C 36.423 241.529 36.344 241.607 36.309 241.789 L 36.18 242.453 L 35.831 242.385 L 36.06 241.202 L 36.385 241.265 L 36.346 241.465 C 36.418 241.38 36.483 241.329 36.541 241.312 C 36.599 241.295 36.658 241.292 36.719 241.304 C 36.832 241.326 36.917 241.374 36.974 241.447 C 37.031 241.521 37.042 241.647 37.008 241.824 L 36.861 242.584 Z M 38.416 242.355 L 37.651 242.219 C 37.647 242.24 37.643 242.259 37.64 242.274 C 37.625 242.359 37.636 242.427 37.674 242.478 C 37.711 242.529 37.761 242.56 37.824 242.571 C 37.941 242.592 38.022 242.542 38.068 242.421 L 38.382 242.501 C 38.244 242.76 38.04 242.864 37.768 242.816 C 37.65 242.796 37.554 242.754 37.479 242.692 C 37.405 242.63 37.349 242.549 37.311 242.449 C 37.274 242.348 37.266 242.235 37.289 242.108 C 37.322 241.919 37.403 241.776 37.532 241.68 C 37.66 241.583 37.809 241.55 37.979 241.58 C 38.132 241.607 38.253 241.684 38.344 241.811 C 38.434 241.938 38.458 242.119 38.416 242.355 Z M 37.686 242.016 L 38.109 242.091 C 38.127 241.926 38.074 241.833 37.951 241.811 C 37.819 241.787 37.731 241.856 37.686 242.016 Z M 39.419 242.238 L 39.199 242.697 C 39.171 242.755 39.162 242.797 39.17 242.825 C 39.178 242.852 39.213 242.881 39.278 242.912 C 39.307 242.926 39.342 242.941 39.382 242.956 L 39.268 243.194 C 39.167 243.165 39.096 243.141 39.055 243.122 C 38.921 243.058 38.839 242.987 38.807 242.909 C 38.776 242.831 38.792 242.725 38.857 242.591 L 39.099 242.085 L 38.927 242.003 L 39.046 241.753 L 39.237 241.844 L 39.417 241.536 L 39.703 241.646 L 39.539 241.988 L 39.774 242.1 L 39.654 242.35 L 39.419 242.238 Z" style="fill: rgb(51, 51, 51); white-space: pre; mix-blend-mode: color-dodge; opacity: 0.28;"/>
  </g>
  <g id="g-1" transform="matrix(-0.666219, 0, 0, 0.666219, 69.071121, -68.786789)" style="stroke-width: 0.510856;">
    <circle cx="57.604" cy="149.438" r="40.549" id="circle6" style="fill-opacity: 1; stroke: none; stroke-width: 0.128962; stroke-linecap: round; stroke-linejoin: round; stroke-miterlimit: 4; stroke-dasharray: none; stroke-opacity: 1; fill: rgb(0, 60, 130);"/>
    <g id="g12176" transform="matrix(-0.135164, 0, 0, 0.135164, 104.137558, 105.331772)" style="fill:#ffffff;fill-opacity:1">
      <g transform="matrix(0.69314235,0,0,0.69314235,-740.0344,-401.37917)" id="g12942" style="fill:#ffffff;fill-opacity:1">
        <path id="path3796" d="M 1617.127 838.956 C 1461.674 838.956 1348.217 842.912 1340.749 1054.711 L 1306.392 1341.265 L 1494.768 1344.189 L 1470.4 1103.075 C 1468.495 953.642 1535.4 959.683 1613.127 959.683 L 1675.387 959.683 L 1675.387 838.956 L 1617.127 838.956 Z" style="color:#000000;font-style:normal;font-variant:normal;font-weight:normal;font-stretch:normal;font-size:medium;line-height:normal;font-family:Sans;-inkscape-font-specification:Sans;text-indent:0;text-align:start;text-decoration:none;text-decoration-line:none;letter-spacing:normal;word-spacing:normal;text-transform:none;writing-mode:lr-tb;direction:ltr;baseline-shift:baseline;text-anchor:start;display:inline;overflow:visible;visibility:visible;fill:#ffffff;fill-opacity:1;fill-rule:evenodd;stroke:none;stroke-width:0;marker:none;enable-background:accumulate"/>
      </g>
      <path id="path4037-7" style="fill:#ffffff;fill-opacity:1;fill-rule:evenodd;stroke:none;stroke-width:5.87269878" d="M 590.109 223.131 L 589.692 222.785 L 589.695 222.774 L 418.96 340.504 C 418.96 340.504 427.503 268.647 427.994 264.656 L 427.98 264.649 L 360.233 263.62 L 359.86 180.137 L 428.883 180.068 L 428.8 180.275 L 428.81 180.249 L 414.532 97.718"/>
      <path d="M 272.143 43.813 L 273.951 46.98 C 274.176 47.377 274.386 47.608 274.581 47.674 C 274.777 47.739 275.095 47.646 275.536 47.396 C 275.738 47.281 275.969 47.138 276.225 46.966 L 277.161 48.605 C 276.579 49.08 276.145 49.397 275.863 49.557 C 274.942 50.081 274.187 50.275 273.598 50.142 C 273.011 50.007 272.452 49.478 271.925 48.553 L 269.937 45.068 L 268.748 45.743 L 267.766 44.022 L 269.082 43.275 L 267.999 40.964 L 269.817 39.734 L 271.162 42.093 L 272.782 41.172 L 273.765 42.892 L 272.143 43.813 Z M 285.102 42.452 L 279.967 44.578 C 280.02 44.721 280.069 44.846 280.113 44.952 C 280.349 45.519 280.677 45.885 281.101 46.048 C 281.524 46.213 281.946 46.207 282.368 46.032 C 283.153 45.708 283.45 45.094 283.26 44.194 L 285.459 43.468 C 285.629 45.554 284.801 46.975 282.979 47.728 C 282.184 48.057 281.442 48.178 280.755 48.09 C 280.067 48.003 279.417 47.728 278.802 47.268 C 278.188 46.808 277.704 46.152 277.35 45.3 C 276.824 44.034 276.76 42.861 277.162 41.784 C 277.562 40.705 278.332 39.933 279.47 39.462 C 280.497 39.036 281.528 39.032 282.564 39.452 C 283.598 39.87 284.445 40.87 285.102 42.452 Z M 279.392 43.217 L 282.227 42.043 C 281.7 40.98 281.023 40.62 280.196 40.963 C 279.311 41.328 279.043 42.08 279.392 43.217 Z M 291.614 36.315 C 292.926 36.186 293.99 36.514 294.81 37.296 C 295.629 38.078 296.102 39.112 296.229 40.398 C 296.354 41.666 296.077 42.762 295.397 43.683 C 294.718 44.604 293.745 45.128 292.479 45.251 C 291.254 45.373 290.232 45.051 289.415 44.283 C 288.597 43.518 288.123 42.478 287.994 41.165 C 287.904 40.254 287.993 39.463 288.262 38.793 C 288.531 38.122 288.937 37.564 289.475 37.117 C 290.017 36.67 290.729 36.402 291.614 36.315 Z M 291.846 37.965 C 291.363 38.012 291.019 38.233 290.812 38.628 C 290.604 39.023 290.554 39.772 290.664 40.875 C 290.764 41.891 290.952 42.607 291.229 43.025 C 291.505 43.444 291.89 43.63 292.383 43.58 C 292.814 43.538 293.145 43.316 293.374 42.912 C 293.603 42.51 293.666 41.779 293.562 40.721 C 293.45 39.593 293.258 38.84 292.982 38.462 C 292.707 38.084 292.329 37.917 291.846 37.965 Z M 301.473 43.876 L 299.038 44.302 L 297.55 35.81 L 299.849 35.408 L 300.127 36.989 C 300.273 35.75 300.783 35.055 301.652 34.902 C 301.777 34.882 301.93 34.864 302.112 34.849 L 302.546 37.32 C 302.035 37.409 301.651 37.556 301.394 37.764 C 301.139 37.97 300.956 38.293 300.847 38.73 C 300.74 39.168 300.745 39.731 300.867 40.421 L 301.473 43.876 Z M 306.737 33.964 L 308.299 42.444 L 305.792 42.904 L 304.231 34.425 L 306.737 33.964 Z M 306.144 30.75 L 306.604 33.252 L 304.097 33.712 L 303.638 31.209 L 306.144 30.75 Z M 318.615 41.321 L 316.15 41.508 C 316.045 41.173 315.971 40.729 315.928 40.172 C 315.542 40.818 315.143 41.258 314.729 41.493 C 314.315 41.726 313.835 41.864 313.289 41.905 C 312.481 41.967 311.814 41.798 311.282 41.4 C 310.752 41 310.459 40.431 310.401 39.694 C 310.36 39.155 310.467 38.648 310.722 38.172 C 310.979 37.695 311.417 37.304 312.04 36.998 C 312.663 36.691 313.819 36.411 315.509 36.156 L 315.472 35.661 C 315.408 34.828 314.958 34.444 314.123 34.507 C 313.229 34.574 312.763 35.03 312.726 35.87 L 310.364 35.829 C 310.443 34.841 310.853 34.114 311.595 33.646 C 312.337 33.179 313.197 32.908 314.174 32.832 C 314.76 32.788 315.316 32.815 315.845 32.911 C 316.372 33.009 316.791 33.182 317.102 33.433 C 317.413 33.683 317.631 33.955 317.757 34.252 C 317.883 34.547 317.975 35.073 318.032 35.826 L 318.33 39.725 C 318.387 40.474 318.483 41.006 318.615 41.321 Z M 315.605 37.407 C 313.839 37.718 312.99 38.321 313.058 39.218 C 313.081 39.519 313.196 39.771 313.399 39.976 C 313.604 40.179 313.879 40.268 314.226 40.242 C 314.674 40.208 315.038 39.993 315.313 39.599 C 315.59 39.204 315.707 38.734 315.664 38.19 L 315.605 37.407 Z M 323.882 41.093 L 321.24 41.126 L 321.207 38.489 L 323.85 38.457 L 323.882 41.093 Z M 326.664 44.014 L 326.664 32.483 L 329.007 32.483 L 329.007 33.748 C 329.44 32.785 330.199 32.305 331.282 32.305 C 332.217 32.305 332.982 32.679 333.578 33.427 C 334.175 34.176 334.472 35.263 334.472 36.691 C 334.472 38.211 334.171 39.356 333.571 40.126 C 332.968 40.898 332.186 41.284 331.223 41.284 C 330.247 41.284 329.551 40.904 329.134 40.148 L 329.134 44.014 L 326.664 44.014 Z M 329.134 37.332 C 329.134 37.94 329.172 38.361 329.246 38.595 C 329.321 38.828 329.477 39.038 329.717 39.222 C 329.957 39.407 330.216 39.499 330.495 39.499 C 330.843 39.499 331.154 39.321 331.428 38.966 C 331.701 38.611 331.837 37.826 331.837 36.615 C 331.837 34.914 331.388 34.063 330.487 34.063 C 330.144 34.063 329.833 34.213 329.554 34.515 C 329.276 34.818 329.134 35.329 329.134 36.051 L 329.134 37.332 Z M 348.993 43.472 L 346.531 42.819 L 347.76 38.21 C 347.932 37.561 348.025 37.132 348.039 36.928 C 348.052 36.721 347.995 36.532 347.868 36.36 C 347.739 36.188 347.532 36.064 347.246 35.988 C 346.975 35.916 346.674 35.939 346.342 36.058 C 346.01 36.176 345.722 36.691 345.478 37.604 L 344.249 42.215 L 341.796 41.563 L 343.023 36.952 C 343.201 36.286 343.285 35.849 343.277 35.637 C 343.268 35.425 343.195 35.237 343.059 35.071 C 342.924 34.905 342.727 34.789 342.467 34.72 C 342.043 34.607 341.692 34.657 341.415 34.869 C 341.137 35.081 340.896 35.57 340.693 36.333 L 339.464 40.944 L 337.074 40.31 L 339.295 31.98 L 341.609 32.593 L 341.271 33.864 C 341.919 33.006 342.83 32.732 344.003 33.044 C 345.067 33.327 345.707 34.011 345.924 35.1 C 346.643 34.26 347.58 33.993 348.73 34.298 C 349.281 34.444 349.725 34.683 350.062 35.012 C 350.399 35.345 350.605 35.713 350.678 36.121 C 350.752 36.529 350.671 37.177 350.436 38.062 L 348.993 43.472 Z M 354.557 34.729 L 354.518 43.349 L 351.97 43.338 L 352.009 34.717 L 354.557 34.729 Z M 354.573 31.46 L 354.56 34.003 L 352.012 33.993 L 352.023 31.449 L 354.573 31.46 Z M 365.045 35.192 L 362.345 39.039 L 365.001 43.822 L 362.097 43.667 L 360.463 40.606 L 358.545 43.478 L 356.368 43.362 L 359.459 38.886 L 357.221 34.775 L 360.125 34.929 L 361.375 37.329 L 362.866 35.076 L 365.045 35.192 Z M 369.325 43.985 L 366.692 43.759 L 366.92 41.13 L 369.553 41.357 L 369.325 43.985 Z M 379.308 46.286 L 376.805 45.803 L 377.725 41.052 C 377.838 40.477 377.891 40.077 377.888 39.857 C 377.884 39.636 377.809 39.434 377.665 39.254 C 377.52 39.072 377.317 38.956 377.053 38.904 C 376.173 38.735 375.609 39.298 375.357 40.595 L 374.437 45.346 L 371.935 44.863 L 373.575 36.399 L 375.9 36.847 L 375.623 38.281 C 376.142 37.674 376.608 37.309 377.02 37.187 C 377.433 37.064 377.858 37.044 378.295 37.128 C 379.1 37.283 379.709 37.625 380.117 38.152 C 380.527 38.681 380.607 39.579 380.362 40.847 L 379.308 46.286 Z M 390.439 44.645 L 384.964 43.676 C 384.931 43.828 384.907 43.958 384.885 44.07 C 384.778 44.676 384.858 45.16 385.126 45.525 C 385.395 45.89 385.753 46.112 386.202 46.192 C 387.038 46.341 387.62 45.985 387.948 45.122 L 390.191 45.694 C 389.208 47.543 387.745 48.294 385.802 47.95 C 384.954 47.801 384.265 47.503 383.732 47.061 C 383.201 46.616 382.8 46.035 382.532 45.317 C 382.263 44.6 382.21 43.786 382.37 42.879 C 382.611 41.529 383.189 40.507 384.111 39.815 C 385.029 39.122 386.094 38.884 387.308 39.099 C 388.402 39.293 389.273 39.844 389.919 40.752 C 390.565 41.662 390.738 42.96 390.439 44.645 Z M 385.215 42.22 L 388.239 42.756 C 388.366 41.577 387.989 40.91 387.109 40.752 C 386.166 40.586 385.534 41.076 385.215 42.22 Z M 397.617 43.809 L 396.041 47.096 C 395.843 47.507 395.773 47.811 395.831 48.009 C 395.888 48.206 396.144 48.414 396.603 48.632 C 396.813 48.734 397.062 48.84 397.35 48.951 L 396.535 50.653 C 395.812 50.447 395.303 50.273 395.011 50.134 C 394.054 49.678 393.463 49.17 393.238 48.61 C 393.013 48.052 393.13 47.293 393.59 46.334 L 395.326 42.715 L 394.092 42.126 L 394.948 40.338 L 396.313 40.991 L 397.598 38.785 L 399.648 39.575 L 398.473 42.023 L 400.155 42.826 L 399.298 44.613 L 397.617 43.809 Z" style="fill: rgb(51, 51, 51); white-space: pre; mix-blend-mode: color-dodge; opacity: 0.28;"/>
    </g>
  </g>
</svg>