<?xml version="1.0" encoding="utf-8"?>
<svg viewBox="0 0 61.599998 61.599998" width="61.6mm" height="61.6mm" xmlns="http://www.w3.org/2000/svg">
  <g id="layer1" transform="matrix(1, 0, 0, 1, 0, -235.399994)">
    <circle style="opacity:1;fill:#000000;fill-opacity:1;fill-rule:nonzero;stroke:none;stroke-width:0.20635015;stroke-linecap:square;stroke-linejoin:round;stroke-miterlimit:4;stroke-dasharray:none;stroke-opacity:1;paint-order:stroke fill markers" id="path815" cx="30.799999" cy="266.20001" r="30.299999"/>
    <circle r="30" cy="266.20001" cx="30.799999" id="circle819" style="opacity:1;fill:#ffffff;fill-opacity:1;fill-rule:nonzero;stroke:none;stroke-width:0.20430708;stroke-linecap:square;stroke-linejoin:round;stroke-miterlimit:4;stroke-dasharray:none;stroke-opacity:1;paint-order:stroke fill markers"/>
    <circle style="opacity:1;fill:#003c82;fill-opacity:1;fill-rule:nonzero;stroke:none;stroke-width:0.19068664;stroke-linecap:square;stroke-linejoin:round;stroke-miterlimit:4;stroke-dasharray:none;stroke-opacity:1;paint-order:stroke fill markers" id="circle821" cx="30.799999" cy="266.20001" r="28"/>
    <path d="M 19.4 257.2 L 18.4 262.9 L 54.935 261.341 L 54.8 271.669 L 18.4 269.5 L 19.4 275.2 L 6.8 266.2 L 19.4 257.2 Z" id="path3807" style="fill:#ffffff;fill-opacity:1;fill-rule:nonzero;stroke:none;stroke-width:0.07544535"/>
    <path d="M 21.886 242.238 L 22.138 242.681 C 22.17 242.736 22.199 242.769 22.227 242.778 C 22.254 242.787 22.298 242.774 22.36 242.739 C 22.388 242.723 22.42 242.703 22.456 242.679 L 22.587 242.908 C 22.506 242.974 22.445 243.019 22.406 243.041 C 22.277 243.114 22.171 243.141 22.089 243.123 C 22.007 243.104 21.929 243.03 21.855 242.901 L 21.578 242.414 L 21.411 242.508 L 21.274 242.268 L 21.458 242.163 L 21.307 241.84 L 21.561 241.668 L 21.749 241.998 L 21.975 241.869 L 22.112 242.11 L 21.886 242.238 Z M 23.697 242.048 L 22.979 242.345 C 22.987 242.365 22.993 242.383 23 242.397 C 23.033 242.477 23.078 242.528 23.138 242.551 C 23.197 242.574 23.256 242.573 23.315 242.548 C 23.424 242.503 23.466 242.417 23.439 242.292 L 23.747 242.19 C 23.77 242.482 23.655 242.68 23.4 242.785 C 23.289 242.831 23.185 242.848 23.089 242.836 C 22.993 242.824 22.902 242.785 22.816 242.721 C 22.731 242.657 22.663 242.565 22.613 242.446 C 22.54 242.269 22.531 242.105 22.587 241.955 C 22.643 241.804 22.751 241.696 22.91 241.63 C 23.053 241.571 23.197 241.57 23.342 241.629 C 23.487 241.687 23.605 241.827 23.697 242.048 Z M 22.899 242.155 L 23.295 241.991 C 23.221 241.842 23.127 241.792 23.011 241.84 C 22.887 241.891 22.85 241.996 22.899 242.155 Z M 24.607 241.191 C 24.79 241.172 24.939 241.218 25.053 241.328 C 25.168 241.437 25.234 241.581 25.252 241.761 C 25.269 241.938 25.23 242.091 25.135 242.22 C 25.04 242.349 24.904 242.422 24.728 242.439 C 24.556 242.456 24.413 242.411 24.299 242.304 C 24.185 242.197 24.119 242.052 24.101 241.868 C 24.088 241.741 24.101 241.63 24.138 241.537 C 24.176 241.443 24.233 241.365 24.308 241.303 C 24.383 241.24 24.483 241.203 24.607 241.191 Z M 24.639 241.421 C 24.572 241.428 24.524 241.459 24.495 241.514 C 24.466 241.569 24.459 241.674 24.474 241.828 C 24.488 241.97 24.514 242.07 24.553 242.128 C 24.591 242.187 24.645 242.213 24.714 242.206 C 24.774 242.2 24.821 242.169 24.853 242.112 C 24.885 242.056 24.893 241.954 24.879 241.806 C 24.863 241.649 24.836 241.543 24.798 241.491 C 24.759 241.438 24.707 241.414 24.639 241.421 Z M 25.984 242.247 L 25.644 242.307 L 25.436 241.12 L 25.757 241.064 L 25.796 241.285 C 25.817 241.112 25.888 241.015 26.009 240.993 C 26.027 240.99 26.048 240.988 26.074 240.986 L 26.134 241.331 C 26.063 241.343 26.009 241.364 25.973 241.393 C 25.938 241.422 25.912 241.467 25.897 241.528 C 25.882 241.589 25.883 241.668 25.9 241.764 L 25.984 242.247 Z M 26.72 240.862 L 26.938 242.047 L 26.588 242.111 L 26.37 240.926 L 26.72 240.862 Z M 26.637 240.413 L 26.701 240.763 L 26.351 240.827 L 26.287 240.477 L 26.637 240.413 Z M 28.38 241.89 L 28.035 241.916 C 28.021 241.869 28.01 241.807 28.004 241.73 C 27.95 241.82 27.894 241.881 27.837 241.914 C 27.779 241.947 27.712 241.966 27.635 241.972 C 27.523 241.98 27.429 241.957 27.355 241.901 C 27.281 241.845 27.24 241.766 27.232 241.663 C 27.226 241.587 27.241 241.517 27.277 241.45 C 27.313 241.383 27.374 241.329 27.461 241.286 C 27.548 241.243 27.71 241.204 27.946 241.168 L 27.941 241.099 C 27.932 240.983 27.869 240.929 27.752 240.938 C 27.627 240.947 27.562 241.011 27.557 241.128 L 27.227 241.123 C 27.238 240.985 27.295 240.883 27.399 240.818 C 27.502 240.752 27.623 240.715 27.759 240.704 C 27.841 240.698 27.919 240.702 27.993 240.715 C 28.066 240.729 28.125 240.753 28.168 240.788 C 28.212 240.823 28.242 240.861 28.26 240.902 C 28.277 240.944 28.29 241.017 28.298 241.122 L 28.34 241.667 C 28.348 241.772 28.361 241.846 28.38 241.89 Z M 27.959 241.343 C 27.712 241.387 27.594 241.471 27.603 241.596 C 27.606 241.638 27.622 241.673 27.651 241.702 C 27.68 241.731 27.718 241.743 27.766 241.739 C 27.829 241.735 27.88 241.705 27.918 241.649 C 27.957 241.594 27.973 241.529 27.967 241.453 L 27.959 241.343 Z M 29.116 241.858 L 28.747 241.863 L 28.742 241.494 L 29.111 241.49 L 29.116 241.858 Z M 29.504 242.266 L 29.504 240.655 L 29.832 240.655 L 29.832 240.832 C 29.892 240.697 29.998 240.63 30.15 240.63 C 30.28 240.63 30.387 240.682 30.471 240.787 C 30.554 240.892 30.595 241.044 30.595 241.243 C 30.595 241.456 30.553 241.615 30.47 241.723 C 30.385 241.831 30.276 241.885 30.142 241.885 C 30.005 241.885 29.908 241.832 29.85 241.726 L 29.85 242.266 L 29.504 242.266 Z M 29.85 241.333 C 29.85 241.418 29.855 241.477 29.865 241.509 C 29.876 241.542 29.898 241.571 29.931 241.597 C 29.965 241.623 30.001 241.635 30.04 241.635 C 30.088 241.635 30.132 241.611 30.17 241.561 C 30.208 241.511 30.227 241.402 30.227 241.233 C 30.227 240.995 30.165 240.876 30.039 240.876 C 29.991 240.876 29.947 240.897 29.908 240.939 C 29.869 240.981 29.85 241.053 29.85 241.154 L 29.85 241.333 Z M 32.625 242.191 L 32.281 242.099 L 32.452 241.455 C 32.476 241.365 32.489 241.305 32.491 241.276 C 32.493 241.247 32.485 241.221 32.467 241.197 C 32.449 241.173 32.421 241.155 32.381 241.145 C 32.343 241.135 32.301 241.138 32.254 241.155 C 32.208 241.171 32.168 241.243 32.134 241.371 L 31.962 242.015 L 31.619 241.924 L 31.79 241.28 C 31.815 241.187 31.827 241.125 31.826 241.096 C 31.825 241.066 31.814 241.04 31.795 241.017 C 31.777 240.994 31.749 240.977 31.713 240.968 C 31.654 240.952 31.604 240.959 31.566 240.989 C 31.527 241.018 31.493 241.086 31.465 241.193 L 31.293 241.837 L 30.959 241.749 L 31.269 240.585 L 31.593 240.67 L 31.546 240.848 C 31.636 240.728 31.763 240.69 31.927 240.734 C 32.076 240.773 32.166 240.869 32.196 241.021 C 32.296 240.903 32.427 240.866 32.588 240.909 C 32.665 240.929 32.727 240.963 32.774 241.009 C 32.821 241.055 32.85 241.106 32.86 241.163 C 32.871 241.221 32.859 241.311 32.826 241.435 L 32.625 242.191 Z M 33.402 240.969 L 33.397 242.174 L 33.041 242.172 L 33.046 240.967 L 33.402 240.969 Z M 33.404 240.512 L 33.403 240.867 L 33.046 240.866 L 33.048 240.511 L 33.404 240.512 Z M 34.868 241.034 L 34.49 241.571 L 34.862 242.24 L 34.456 242.218 L 34.227 241.79 L 33.959 242.192 L 33.655 242.175 L 34.087 241.55 L 33.774 240.975 L 34.18 240.997 L 34.355 241.332 L 34.563 241.017 L 34.868 241.034 Z M 35.466 242.262 L 35.098 242.231 L 35.13 241.863 L 35.498 241.895 L 35.466 242.262 Z M 36.861 242.584 L 36.511 242.516 L 36.64 241.852 C 36.655 241.772 36.663 241.716 36.662 241.686 C 36.662 241.655 36.651 241.626 36.631 241.601 C 36.611 241.576 36.583 241.56 36.546 241.552 C 36.423 241.529 36.344 241.607 36.309 241.789 L 36.18 242.453 L 35.831 242.385 L 36.06 241.202 L 36.385 241.265 L 36.346 241.465 C 36.418 241.38 36.483 241.329 36.541 241.312 C 36.599 241.295 36.658 241.292 36.719 241.304 C 36.832 241.326 36.917 241.374 36.974 241.447 C 37.031 241.521 37.042 241.647 37.008 241.824 L 36.861 242.584 Z M 38.416 242.355 L 37.651 242.219 C 37.647 242.24 37.643 242.259 37.64 242.274 C 37.625 242.359 37.636 242.427 37.674 242.478 C 37.711 242.529 37.761 242.56 37.824 242.571 C 37.941 242.592 38.022 242.542 38.068 242.421 L 38.382 242.501 C 38.244 242.76 38.04 242.864 37.768 242.816 C 37.65 242.796 37.554 242.754 37.479 242.692 C 37.405 242.63 37.349 242.549 37.311 242.449 C 37.274 242.348 37.266 242.235 37.289 242.108 C 37.322 241.919 37.403 241.776 37.532 241.68 C 37.66 241.583 37.809 241.55 37.979 241.58 C 38.132 241.607 38.253 241.684 38.344 241.811 C 38.434 241.938 38.458 242.119 38.416 242.355 Z M 37.686 242.016 L 38.109 242.091 C 38.127 241.926 38.074 241.833 37.951 241.811 C 37.819 241.787 37.731 241.856 37.686 242.016 Z M 39.419 242.238 L 39.199 242.697 C 39.171 242.755 39.162 242.797 39.17 242.825 C 39.178 242.852 39.213 242.881 39.278 242.912 C 39.307 242.926 39.342 242.941 39.382 242.956 L 39.268 243.194 C 39.167 243.165 39.096 243.141 39.055 243.122 C 38.921 243.058 38.839 242.987 38.807 242.909 C 38.776 242.831 38.792 242.725 38.857 242.591 L 39.099 242.085 L 38.927 242.003 L 39.046 241.753 L 39.237 241.844 L 39.417 241.536 L 39.703 241.646 L 39.539 241.988 L 39.774 242.1 L 39.654 242.35 L 39.419 242.238 Z" style="fill: rgb(51, 51, 51); white-space: pre; mix-blend-mode: color-dodge; opacity: 0.28;"/>
  </g>
  <g id="g-1" transform="matrix(0.666219, 0, 0, 0.666219, -6.682844, -68.786789)" style="stroke-width: 0.510856;">
    <circle cx="57.604156" cy="149.4375" r="40.549217" id="circle6" style="fill-opacity: 1; stroke: none; stroke-width: 0.128962; stroke-linecap: round; stroke-linejoin: round; stroke-miterlimit: 4; stroke-dasharray: none; stroke-opacity: 1; fill: rgb(0, 60, 130);"/>
    <g id="g12176" transform="matrix(-0.135164, 0, 0, 0.135164, 104.137558, 105.331772)" style="fill:#ffffff;fill-opacity:1">
      <g transform="matrix(0.69314235,0,0,0.69314235,-740.0344,-401.37917)" id="g12942" style="fill:#ffffff;fill-opacity:1">
        <path id="path3796" d="M 1617.127 838.956 C 1461.674 838.956 1348.217 842.912 1340.749 1054.711 L 1306.392 1341.265 L 1494.768 1344.189 L 1470.4 1103.075 C 1468.495 953.642 1535.4 959.683 1613.127 959.683 L 1675.387 959.683 L 1675.387 838.956 L 1617.127 838.956 Z" style="color:#000000;font-style:normal;font-variant:normal;font-weight:normal;font-stretch:normal;font-size:medium;line-height:normal;font-family:Sans;-inkscape-font-specification:Sans;text-indent:0;text-align:start;text-decoration:none;text-decoration-line:none;letter-spacing:normal;word-spacing:normal;text-transform:none;writing-mode:lr-tb;direction:ltr;baseline-shift:baseline;text-anchor:start;display:inline;overflow:visible;visibility:visible;fill:#ffffff;fill-opacity:1;fill-rule:evenodd;stroke:none;stroke-width:0;marker:none;enable-background:accumulate"/>
      </g>
      <path id="path4037-7" style="fill:#ffffff;fill-opacity:1;fill-rule:evenodd;stroke:none;stroke-width:5.87269878" d="M 590.109 223.131 L 589.692 222.785 L 589.695 222.774 L 418.96 340.504 C 418.96 340.504 427.503 268.647 427.994 264.656 L 427.98 264.649 L 360.233 263.62 L 359.86 180.137 L 428.883 180.068 L 428.8 180.275 L 428.81 180.249 L 414.532 97.718"/>
      <path d="M 314.485 47.5 L 316.293 44.333 C 316.518 43.936 316.728 43.705 316.923 43.639 C 317.119 43.574 317.437 43.667 317.878 43.917 C 318.08 44.032 318.311 44.175 318.567 44.347 L 319.503 42.708 C 318.921 42.233 318.487 41.916 318.205 41.756 C 317.284 41.232 316.529 41.038 315.94 41.171 C 315.353 41.306 314.794 41.835 314.267 42.76 L 312.279 46.245 L 311.09 45.57 L 310.108 47.291 L 311.424 48.038 L 310.341 50.349 L 312.159 51.579 L 313.504 49.22 L 315.124 50.141 L 316.107 48.421 L 314.485 47.5 Z M 327.444 48.861 L 322.309 46.735 C 322.362 46.592 322.411 46.467 322.455 46.361 C 322.691 45.794 323.019 45.428 323.443 45.265 C 323.866 45.1 324.288 45.106 324.71 45.281 C 325.495 45.605 325.792 46.219 325.602 47.119 L 327.801 47.845 C 327.971 45.759 327.143 44.338 325.321 43.585 C 324.526 43.256 323.784 43.135 323.097 43.223 C 322.409 43.31 321.759 43.585 321.144 44.045 C 320.53 44.505 320.046 45.161 319.692 46.013 C 319.166 47.279 319.102 48.452 319.504 49.529 C 319.904 50.608 320.674 51.38 321.812 51.851 C 322.839 52.277 323.87 52.281 324.906 51.861 C 325.94 51.443 326.787 50.443 327.444 48.861 Z M 321.734 48.096 L 324.569 49.27 C 324.042 50.333 323.365 50.693 322.538 50.35 C 321.653 49.985 321.385 49.233 321.734 48.096 Z M 333.956 54.998 C 335.268 55.127 336.332 54.799 337.152 54.017 C 337.971 53.235 338.444 52.201 338.571 50.915 C 338.696 49.647 338.419 48.551 337.739 47.63 C 337.06 46.709 336.087 46.185 334.821 46.062 C 333.596 45.94 332.574 46.262 331.757 47.03 C 330.939 47.795 330.465 48.835 330.336 50.148 C 330.246 51.059 330.335 51.85 330.604 52.52 C 330.873 53.191 331.279 53.749 331.817 54.196 C 332.359 54.643 333.071 54.911 333.956 54.998 Z M 334.188 53.348 C 333.705 53.301 333.361 53.08 333.154 52.685 C 332.946 52.29 332.896 51.541 333.006 50.438 C 333.106 49.422 333.294 48.706 333.571 48.288 C 333.847 47.869 334.232 47.683 334.725 47.733 C 335.156 47.775 335.487 47.997 335.716 48.401 C 335.945 48.803 336.008 49.534 335.904 50.592 C 335.792 51.72 335.6 52.473 335.324 52.851 C 335.049 53.229 334.671 53.396 334.188 53.348 Z M 343.815 47.437 L 341.38 47.011 L 339.892 55.503 L 342.191 55.905 L 342.469 54.324 C 342.615 55.563 343.125 56.258 343.994 56.411 C 344.119 56.431 344.272 56.449 344.454 56.464 L 344.888 53.993 C 344.377 53.904 343.993 53.757 343.736 53.549 C 343.481 53.343 343.298 53.02 343.189 52.583 C 343.082 52.145 343.087 51.582 343.209 50.892 L 343.815 47.437 Z M 349.079 57.349 L 350.641 48.869 L 348.134 48.409 L 346.573 56.888 L 349.079 57.349 Z M 348.486 60.563 L 348.946 58.061 L 346.439 57.601 L 345.98 60.104 L 348.486 60.563 Z M 360.957 49.992 L 358.492 49.805 C 358.387 50.14 358.313 50.584 358.27 51.141 C 357.884 50.495 357.485 50.055 357.071 49.82 C 356.657 49.587 356.177 49.449 355.631 49.408 C 354.823 49.346 354.156 49.515 353.624 49.913 C 353.094 50.313 352.801 50.882 352.743 51.619 C 352.702 52.158 352.809 52.665 353.064 53.141 C 353.321 53.618 353.759 54.009 354.382 54.315 C 355.005 54.622 356.161 54.902 357.851 55.157 L 357.814 55.652 C 357.75 56.485 357.3 56.869 356.465 56.806 C 355.571 56.739 355.105 56.283 355.068 55.443 L 352.706 55.484 C 352.785 56.472 353.195 57.199 353.937 57.667 C 354.679 58.134 355.539 58.405 356.516 58.481 C 357.102 58.525 357.658 58.498 358.187 58.402 C 358.714 58.304 359.133 58.131 359.444 57.88 C 359.755 57.63 359.973 57.358 360.099 57.061 C 360.225 56.766 360.317 56.24 360.374 55.487 L 360.672 51.588 C 360.729 50.839 360.825 50.307 360.957 49.992 Z M 357.947 53.906 C 356.181 53.595 355.332 52.992 355.4 52.095 C 355.423 51.794 355.538 51.542 355.741 51.337 C 355.946 51.134 356.221 51.045 356.568 51.071 C 357.016 51.105 357.38 51.32 357.655 51.714 C 357.932 52.109 358.049 52.579 358.006 53.123 L 357.947 53.906 Z M 366.224 50.22 L 363.582 50.187 L 363.549 52.824 L 366.192 52.856 L 366.224 50.22 Z M 369.006 47.299 L 369.006 58.83 L 371.349 58.83 L 371.349 57.565 C 371.782 58.528 372.541 59.008 373.624 59.008 C 374.559 59.008 375.324 58.634 375.92 57.886 C 376.517 57.137 376.814 56.05 376.814 54.622 C 376.814 53.102 376.513 51.957 375.913 51.187 C 375.31 50.415 374.528 50.029 373.565 50.029 C 372.589 50.029 371.893 50.409 371.476 51.165 L 371.476 47.299 L 369.006 47.299 Z M 371.476 53.981 C 371.476 53.373 371.514 52.952 371.588 52.718 C 371.663 52.485 371.819 52.275 372.059 52.091 C 372.299 51.906 372.558 51.814 372.837 51.814 C 373.185 51.814 373.496 51.992 373.77 52.347 C 374.043 52.702 374.179 53.487 374.179 54.698 C 374.179 56.399 373.73 57.25 372.829 57.25 C 372.486 57.25 372.175 57.1 371.896 56.798 C 371.618 56.495 371.476 55.984 371.476 55.262 L 371.476 53.981 Z M 391.335 47.841 L 388.873 48.494 L 390.102 53.103 C 390.274 53.752 390.367 54.181 390.381 54.385 C 390.394 54.592 390.337 54.781 390.21 54.953 C 390.081 55.125 389.874 55.249 389.588 55.325 C 389.317 55.397 389.016 55.374 388.684 55.255 C 388.352 55.137 388.064 54.622 387.82 53.709 L 386.591 49.098 L 384.138 49.75 L 385.365 54.361 C 385.543 55.027 385.627 55.464 385.619 55.676 C 385.61 55.888 385.537 56.076 385.401 56.242 C 385.266 56.408 385.069 56.524 384.809 56.593 C 384.385 56.706 384.034 56.656 383.757 56.444 C 383.479 56.232 383.238 55.743 383.035 54.98 L 381.806 50.369 L 379.416 51.003 L 381.637 59.333 L 383.951 58.72 L 383.613 57.449 C 384.261 58.307 385.172 58.581 386.345 58.269 C 387.409 57.986 388.049 57.302 388.266 56.213 C 388.985 57.053 389.922 57.32 391.072 57.015 C 391.623 56.869 392.067 56.63 392.404 56.301 C 392.741 55.968 392.947 55.6 393.02 55.192 C 393.094 54.784 393.013 54.136 392.778 53.251 L 391.335 47.841 Z M 396.899 56.584 L 396.86 47.964 L 394.312 47.975 L 394.351 56.596 L 396.899 56.584 Z M 396.915 59.853 L 396.902 57.31 L 394.354 57.32 L 394.365 59.864 L 396.915 59.853 Z M 407.387 56.121 L 404.687 52.274 L 407.343 47.491 L 404.439 47.646 L 402.805 50.707 L 400.887 47.835 L 398.71 47.951 L 401.801 52.427 L 399.563 56.538 L 402.467 56.384 L 403.717 53.984 L 405.208 56.237 L 407.387 56.121 Z M 411.667 47.328 L 409.034 47.554 L 409.262 50.183 L 411.895 49.956 L 411.667 47.328 Z M 421.65 45.027 L 419.147 45.51 L 420.067 50.261 C 420.18 50.836 420.233 51.236 420.23 51.456 C 420.226 51.677 420.151 51.879 420.007 52.059 C 419.862 52.241 419.659 52.357 419.395 52.409 C 418.515 52.578 417.951 52.015 417.699 50.718 L 416.779 45.967 L 414.277 46.45 L 415.917 54.914 L 418.242 54.466 L 417.965 53.032 C 418.484 53.639 418.95 54.004 419.362 54.126 C 419.775 54.249 420.2 54.269 420.637 54.185 C 421.442 54.03 422.051 53.688 422.459 53.161 C 422.869 52.632 422.949 51.734 422.704 50.466 L 421.65 45.027 Z M 432.781 46.668 L 427.306 47.637 C 427.273 47.485 427.249 47.355 427.227 47.243 C 427.12 46.637 427.2 46.153 427.468 45.788 C 427.737 45.423 428.095 45.201 428.544 45.121 C 429.38 44.972 429.962 45.328 430.29 46.191 L 432.533 45.619 C 431.55 43.77 430.087 43.019 428.144 43.363 C 427.296 43.512 426.607 43.81 426.074 44.252 C 425.543 44.697 425.142 45.278 424.874 45.996 C 424.605 46.713 424.552 47.527 424.712 48.434 C 424.953 49.784 425.531 50.806 426.453 51.498 C 427.371 52.191 428.436 52.429 429.65 52.214 C 430.744 52.02 431.615 51.469 432.261 50.561 C 432.907 49.651 433.08 48.353 432.781 46.668 Z M 427.557 49.093 L 430.581 48.557 C 430.708 49.736 430.331 50.403 429.451 50.561 C 428.508 50.727 427.876 50.237 427.557 49.093 Z M 439.959 47.504 L 438.383 44.217 C 438.185 43.806 438.115 43.502 438.173 43.304 C 438.23 43.107 438.486 42.899 438.945 42.681 C 439.155 42.579 439.404 42.473 439.692 42.362 L 438.877 40.66 C 438.154 40.866 437.645 41.04 437.353 41.179 C 436.396 41.635 435.805 42.143 435.58 42.703 C 435.355 43.261 435.472 44.02 435.932 44.979 L 437.668 48.598 L 436.434 49.187 L 437.29 50.975 L 438.655 50.322 L 439.94 52.528 L 441.99 51.738 L 440.815 49.29 L 442.497 48.487 L 441.64 46.7 L 439.959 47.504 Z" style="fill: rgb(51, 51, 51); white-space: pre; mix-blend-mode: color-dodge; opacity: 0.28;" transform="matrix(-1, 0, 0, -1, 752.605011, 101.223)"/>
    </g>
  </g>
</svg>