<?xml version="1.0" encoding="utf-8"?>
<svg viewBox="0 0 61.599998 61.599998" width="61.6mm" height="61.6mm" xmlns="http://www.w3.org/2000/svg">
  <g id="layer1" transform="matrix(1, 0, 0, 1, 0, -235.399994)">
    <circle style="opacity:1;fill:#000000;fill-opacity:1;fill-rule:nonzero;stroke:none;stroke-width:0.20635015;stroke-linecap:square;stroke-linejoin:round;stroke-miterlimit:4;stroke-dasharray:none;stroke-opacity:1;paint-order:stroke fill markers" id="path815" cx="30.799999" cy="266.20001" r="30.299999"/>
    <circle r="30" cy="266.20001" cx="30.799999" id="circle819" style="opacity:1;fill:#ffffff;fill-opacity:1;fill-rule:nonzero;stroke:none;stroke-width:0.20430708;stroke-linecap:square;stroke-linejoin:round;stroke-miterlimit:4;stroke-dasharray:none;stroke-opacity:1;paint-order:stroke fill markers"/>
    <circle style="opacity:1;fill:#003c82;fill-opacity:1;fill-rule:nonzero;stroke:none;stroke-width:0.19068664;stroke-linecap:square;stroke-linejoin:round;stroke-miterlimit:4;stroke-dasharray:none;stroke-opacity:1;paint-order:stroke fill markers" id="circle821" cx="30.799999" cy="266.20001" r="28"/>
    <path d="M 39.8 254.8 L 34.1 253.8 L 36.81 290.336 L 24.857 290.2 L 27.5 253.8 L 21.8 254.8 L 30.8 242.2 L 39.8 254.8 Z" id="path3807" style="fill:#ffffff;fill-opacity:1;fill-rule:nonzero;stroke:none;stroke-width:0.07544535"/>
    <path d="M 23.333 241.227 L 23.545 241.598 C 23.571 241.645 23.595 241.671 23.618 241.679 C 23.641 241.687 23.678 241.676 23.73 241.647 C 23.754 241.633 23.78 241.616 23.811 241.596 L 23.92 241.788 C 23.852 241.843 23.801 241.88 23.768 241.899 C 23.661 241.961 23.572 241.984 23.503 241.968 C 23.435 241.952 23.369 241.89 23.307 241.782 L 23.075 241.374 L 22.936 241.453 L 22.821 241.251 L 22.975 241.165 L 22.848 240.894 L 23.061 240.75 L 23.218 241.026 L 23.408 240.918 L 23.522 241.12 L 23.333 241.227 Z M 24.849 241.068 L 24.248 241.317 C 24.255 241.333 24.26 241.348 24.265 241.36 C 24.293 241.427 24.331 241.469 24.381 241.489 C 24.43 241.508 24.48 241.507 24.529 241.487 C 24.621 241.449 24.656 241.377 24.633 241.272 L 24.89 241.187 C 24.91 241.431 24.814 241.597 24.601 241.685 C 24.508 241.724 24.421 241.738 24.341 241.728 C 24.26 241.717 24.184 241.685 24.112 241.632 C 24.04 241.578 23.983 241.501 23.942 241.401 C 23.881 241.253 23.873 241.116 23.92 240.99 C 23.967 240.863 24.057 240.774 24.19 240.718 C 24.31 240.668 24.431 240.668 24.552 240.717 C 24.673 240.766 24.772 240.883 24.849 241.068 Z M 24.181 241.157 L 24.513 241.02 C 24.451 240.896 24.372 240.854 24.275 240.894 C 24.171 240.937 24.14 241.024 24.181 241.157 Z M 25.611 240.35 C 25.764 240.335 25.889 240.373 25.985 240.465 C 26.08 240.556 26.136 240.677 26.151 240.828 C 26.165 240.976 26.133 241.104 26.053 241.212 C 25.974 241.32 25.86 241.381 25.712 241.395 C 25.569 241.41 25.45 241.372 25.353 241.282 C 25.258 241.193 25.202 241.071 25.187 240.917 C 25.177 240.811 25.187 240.718 25.219 240.64 C 25.25 240.561 25.298 240.496 25.361 240.444 C 25.424 240.392 25.507 240.361 25.611 240.35 Z M 25.638 240.543 C 25.581 240.549 25.541 240.574 25.517 240.62 C 25.493 240.667 25.487 240.754 25.5 240.883 C 25.511 241.002 25.534 241.086 25.566 241.135 C 25.598 241.184 25.643 241.206 25.701 241.2 C 25.751 241.195 25.79 241.169 25.817 241.122 C 25.843 241.075 25.851 240.989 25.839 240.865 C 25.826 240.734 25.803 240.645 25.771 240.601 C 25.739 240.557 25.694 240.538 25.638 240.543 Z M 26.764 241.234 L 26.479 241.284 L 26.306 240.291 L 26.574 240.244 L 26.607 240.429 C 26.624 240.284 26.684 240.202 26.786 240.185 C 26.8 240.183 26.818 240.18 26.839 240.178 L 26.89 240.467 C 26.83 240.478 26.785 240.495 26.755 240.519 C 26.725 240.544 26.704 240.581 26.691 240.633 C 26.679 240.684 26.679 240.749 26.694 240.831 L 26.764 241.234 Z M 27.38 240.075 L 27.563 241.067 L 27.27 241.121 L 27.087 240.129 L 27.38 240.075 Z M 27.311 239.699 L 27.364 239.992 L 27.071 240.046 L 27.018 239.753 L 27.311 239.699 Z M 28.77 240.936 L 28.481 240.957 C 28.469 240.918 28.46 240.866 28.455 240.801 C 28.411 240.877 28.364 240.928 28.315 240.956 C 28.267 240.983 28.211 240.999 28.146 241.004 C 28.052 241.011 27.974 240.992 27.912 240.945 C 27.85 240.898 27.815 240.831 27.809 240.745 C 27.804 240.682 27.817 240.623 27.847 240.567 C 27.877 240.512 27.928 240.466 28 240.43 C 28.074 240.394 28.208 240.361 28.406 240.331 L 28.402 240.274 C 28.394 240.176 28.342 240.131 28.244 240.138 C 28.139 240.146 28.085 240.2 28.081 240.298 L 27.805 240.293 C 27.814 240.178 27.862 240.093 27.948 240.038 C 28.035 239.983 28.136 239.952 28.25 239.943 C 28.319 239.938 28.384 239.94 28.446 239.952 C 28.507 239.963 28.557 239.984 28.593 240.013 C 28.629 240.042 28.655 240.074 28.669 240.108 C 28.684 240.143 28.695 240.205 28.701 240.293 L 28.736 240.749 C 28.743 240.837 28.755 240.899 28.77 240.936 Z M 28.418 240.478 C 28.211 240.514 28.112 240.585 28.119 240.69 C 28.122 240.725 28.136 240.754 28.159 240.779 C 28.183 240.802 28.215 240.813 28.256 240.809 C 28.309 240.806 28.352 240.78 28.384 240.734 C 28.416 240.688 28.43 240.633 28.425 240.569 L 28.418 240.478 Z M 29.386 240.909 L 29.077 240.913 L 29.073 240.604 L 29.382 240.601 L 29.386 240.909 Z M 29.711 241.251 L 29.711 239.902 L 29.985 239.902 L 29.985 240.05 C 30.036 239.937 30.125 239.881 30.252 239.881 C 30.361 239.881 30.45 239.925 30.52 240.012 C 30.59 240.1 30.625 240.227 30.625 240.394 C 30.625 240.572 30.59 240.706 30.519 240.796 C 30.449 240.886 30.358 240.931 30.245 240.931 C 30.13 240.931 30.049 240.887 30 240.799 L 30 241.251 L 29.711 241.251 Z M 30 240.469 C 30 240.54 30.005 240.589 30.014 240.617 C 30.022 240.644 30.041 240.669 30.068 240.69 C 30.096 240.712 30.127 240.722 30.16 240.722 C 30.2 240.722 30.237 240.702 30.269 240.66 C 30.301 240.618 30.316 240.526 30.316 240.385 C 30.316 240.186 30.264 240.086 30.159 240.086 C 30.118 240.086 30.082 240.104 30.049 240.14 C 30.017 240.175 30 240.235 30 240.319 L 30 240.469 Z M 32.324 241.187 L 32.035 241.111 L 32.179 240.572 C 32.199 240.496 32.211 240.446 32.212 240.422 C 32.213 240.398 32.207 240.376 32.192 240.356 C 32.177 240.335 32.153 240.321 32.119 240.312 C 32.087 240.304 32.053 240.306 32.013 240.32 C 31.975 240.333 31.941 240.394 31.912 240.501 L 31.768 241.04 L 31.481 240.964 L 31.625 240.425 C 31.646 240.346 31.656 240.296 31.655 240.271 C 31.654 240.246 31.645 240.224 31.63 240.205 C 31.614 240.185 31.59 240.172 31.56 240.163 C 31.511 240.15 31.469 240.156 31.437 240.181 C 31.404 240.206 31.377 240.263 31.352 240.352 L 31.209 240.892 L 30.929 240.817 L 31.189 239.843 L 31.46 239.915 L 31.42 240.064 C 31.496 239.963 31.602 239.931 31.74 239.967 C 31.865 240 31.939 240.081 31.965 240.208 C 32.049 240.11 32.159 240.079 32.293 240.114 C 32.357 240.131 32.409 240.159 32.448 240.197 C 32.488 240.237 32.513 240.279 32.521 240.327 C 32.53 240.375 32.52 240.451 32.493 240.554 L 32.324 241.187 Z M 32.975 240.165 L 32.97 241.173 L 32.672 241.172 L 32.676 240.163 L 32.975 240.165 Z M 32.976 239.782 L 32.975 240.079 L 32.677 240.079 L 32.678 239.781 L 32.976 239.782 Z M 34.202 240.219 L 33.886 240.669 L 34.196 241.228 L 33.856 241.21 L 33.666 240.852 L 33.441 241.188 L 33.186 241.175 L 33.548 240.651 L 33.286 240.17 L 33.626 240.188 L 33.772 240.469 L 33.947 240.205 L 34.202 240.219 Z M 34.702 241.247 L 34.394 241.221 L 34.421 240.913 L 34.729 240.94 L 34.702 241.247 Z M 35.87 241.516 L 35.578 241.46 L 35.685 240.904 C 35.698 240.837 35.704 240.79 35.704 240.764 C 35.704 240.739 35.695 240.715 35.678 240.694 C 35.661 240.672 35.637 240.659 35.606 240.653 C 35.504 240.633 35.437 240.699 35.408 240.851 L 35.301 241.407 L 35.008 241.35 L 35.199 240.36 L 35.472 240.413 L 35.439 240.58 C 35.5 240.509 35.554 240.467 35.603 240.452 C 35.651 240.437 35.701 240.435 35.751 240.445 C 35.846 240.463 35.917 240.504 35.965 240.565 C 36.013 240.627 36.022 240.732 35.994 240.88 L 35.87 241.516 Z M 37.172 241.325 L 36.532 241.211 C 36.528 241.229 36.525 241.244 36.523 241.257 C 36.51 241.328 36.52 241.385 36.551 241.427 C 36.582 241.47 36.624 241.496 36.676 241.506 C 36.775 241.523 36.842 241.481 36.881 241.38 L 37.144 241.447 C 37.028 241.664 36.857 241.751 36.63 241.711 C 36.53 241.694 36.45 241.659 36.388 241.608 C 36.325 241.556 36.278 241.487 36.247 241.403 C 36.216 241.319 36.21 241.224 36.229 241.118 C 36.256 240.96 36.324 240.841 36.432 240.759 C 36.54 240.678 36.664 240.65 36.806 240.676 C 36.934 240.698 37.036 240.763 37.112 240.869 C 37.187 240.976 37.208 241.128 37.172 241.325 Z M 36.561 241.041 L 36.915 241.103 C 36.93 240.966 36.886 240.888 36.783 240.869 C 36.672 240.85 36.599 240.907 36.561 241.041 Z M 38.012 241.227 L 37.828 241.611 C 37.805 241.66 37.797 241.695 37.803 241.718 C 37.81 241.741 37.84 241.766 37.894 241.791 C 37.918 241.803 37.948 241.815 37.981 241.828 L 37.886 242.028 C 37.801 242.003 37.742 241.983 37.708 241.967 C 37.595 241.913 37.526 241.854 37.5 241.788 C 37.473 241.723 37.488 241.635 37.541 241.522 L 37.744 241.099 L 37.599 241.03 L 37.7 240.821 L 37.859 240.897 L 38.01 240.639 L 38.25 240.732 L 38.112 241.018 L 38.309 241.112 L 38.209 241.321 L 38.012 241.227 Z" style="fill: rgb(51, 51, 51); white-space: pre; mix-blend-mode: color-dodge; opacity: 0.28;"/>
  </g>
</svg>