<?xml version="1.0" encoding="utf-8"?>
<svg viewBox="0 0 61.599998 61.599998" width="61.6mm" height="61.6mm" xmlns="http://www.w3.org/2000/svg">
  <g id="layer1" transform="matrix(1, 0, 0, 1, 0, -235.399994)">
    <circle style="opacity:1;fill:#000000;fill-opacity:1;fill-rule:nonzero;stroke:none;stroke-width:0.20635015;stroke-linecap:square;stroke-linejoin:round;stroke-miterlimit:4;stroke-dasharray:none;stroke-opacity:1;paint-order:stroke fill markers" id="path815" cx="-30.8" cy="266.2" r="30.3" transform="matrix(-1, 0, 0, 1, 0, 0)"/>
    <circle r="30" cy="266.2" cx="-30.8" id="circle819" style="opacity:1;fill:#ffffff;fill-opacity:1;fill-rule:nonzero;stroke:none;stroke-width:0.20430708;stroke-linecap:square;stroke-linejoin:round;stroke-miterlimit:4;stroke-dasharray:none;stroke-opacity:1;paint-order:stroke fill markers" transform="matrix(-1, 0, 0, 1, 0, 0)"/>
    <circle style="opacity:1;fill:#003c82;fill-opacity:1;fill-rule:nonzero;stroke:none;stroke-width:0.19068664;stroke-linecap:square;stroke-linejoin:round;stroke-miterlimit:4;stroke-dasharray:none;stroke-opacity:1;paint-order:stroke fill markers" id="circle821" cx="-30.8" cy="266.2" r="28" transform="matrix(-1, 0, 0, 1, 0, 0)"/>
    <path d="M 19.843 242.45 L 20.143 242.977 C 20.181 243.043 20.216 243.081 20.248 243.092 C 20.281 243.103 20.334 243.088 20.407 243.046 C 20.441 243.027 20.479 243.003 20.522 242.975 L 20.677 243.247 C 20.58 243.326 20.508 243.379 20.461 243.406 C 20.308 243.493 20.183 243.525 20.085 243.503 C 19.987 243.48 19.894 243.392 19.807 243.239 L 19.476 242.659 L 19.278 242.771 L 19.115 242.485 L 19.334 242.361 L 19.154 241.977 L 19.456 241.772 L 19.68 242.164 L 19.949 242.011 L 20.112 242.297 L 19.843 242.45 Z M 21.998 242.224 L 21.144 242.578 C 21.153 242.601 21.161 242.622 21.168 242.64 C 21.207 242.734 21.262 242.795 21.332 242.822 C 21.403 242.849 21.473 242.848 21.543 242.819 C 21.674 242.766 21.723 242.663 21.691 242.514 L 22.057 242.393 C 22.085 242.74 21.948 242.976 21.645 243.101 C 21.513 243.156 21.389 243.176 21.275 243.162 C 21.16 243.147 21.052 243.101 20.95 243.025 C 20.848 242.948 20.767 242.839 20.709 242.698 C 20.621 242.487 20.61 242.292 20.677 242.113 C 20.744 241.934 20.872 241.805 21.061 241.727 C 21.232 241.656 21.403 241.655 21.576 241.725 C 21.748 241.795 21.888 241.961 21.998 242.224 Z M 21.048 242.351 L 21.52 242.156 C 21.432 241.979 21.319 241.919 21.182 241.976 C 21.035 242.037 20.99 242.162 21.048 242.351 Z M 23.08 241.203 C 23.299 241.182 23.476 241.237 23.612 241.367 C 23.748 241.497 23.827 241.669 23.848 241.883 C 23.869 242.093 23.823 242.276 23.71 242.429 C 23.597 242.582 23.435 242.669 23.224 242.69 C 23.021 242.71 22.851 242.656 22.715 242.529 C 22.579 242.401 22.5 242.228 22.479 242.01 C 22.464 241.859 22.478 241.727 22.523 241.616 C 22.568 241.504 22.635 241.411 22.725 241.337 C 22.815 241.263 22.933 241.218 23.08 241.203 Z M 23.119 241.478 C 23.039 241.486 22.982 241.522 22.947 241.588 C 22.913 241.654 22.904 241.778 22.923 241.962 C 22.939 242.131 22.97 242.25 23.016 242.319 C 23.062 242.389 23.126 242.42 23.208 242.412 C 23.28 242.405 23.335 242.368 23.373 242.301 C 23.411 242.234 23.422 242.112 23.404 241.936 C 23.386 241.749 23.354 241.623 23.308 241.561 C 23.262 241.498 23.199 241.47 23.119 241.478 Z M 24.72 242.461 L 24.315 242.532 L 24.068 241.12 L 24.45 241.053 L 24.496 241.316 C 24.52 241.11 24.605 240.994 24.75 240.969 C 24.77 240.965 24.796 240.962 24.826 240.96 L 24.898 241.371 C 24.813 241.385 24.749 241.41 24.707 241.445 C 24.664 241.479 24.634 241.532 24.616 241.605 C 24.598 241.678 24.599 241.772 24.619 241.886 L 24.72 242.461 Z M 25.595 240.813 L 25.855 242.223 L 25.438 242.299 L 25.178 240.889 L 25.595 240.813 Z M 25.497 240.278 L 25.573 240.694 L 25.156 240.771 L 25.08 240.355 L 25.497 240.278 Z M 27.57 242.036 L 27.16 242.067 C 27.143 242.011 27.131 241.938 27.124 241.845 C 27.059 241.952 26.993 242.025 26.924 242.065 C 26.855 242.103 26.776 242.126 26.685 242.133 C 26.55 242.143 26.439 242.115 26.351 242.049 C 26.263 241.983 26.214 241.888 26.205 241.765 C 26.198 241.676 26.216 241.592 26.258 241.512 C 26.301 241.433 26.373 241.368 26.477 241.317 C 26.581 241.266 26.773 241.219 27.054 241.177 L 27.048 241.095 C 27.037 240.956 26.962 240.892 26.823 240.903 C 26.675 240.914 26.597 240.99 26.591 241.13 L 26.198 241.123 C 26.211 240.958 26.28 240.838 26.403 240.76 C 26.526 240.682 26.67 240.637 26.832 240.624 C 26.929 240.617 27.022 240.622 27.11 240.638 C 27.197 240.654 27.267 240.683 27.319 240.724 C 27.371 240.766 27.407 240.811 27.428 240.861 C 27.449 240.91 27.464 240.997 27.473 241.122 L 27.523 241.771 C 27.532 241.895 27.548 241.984 27.57 242.036 Z M 27.07 241.385 C 26.776 241.437 26.635 241.537 26.646 241.686 C 26.65 241.736 26.669 241.778 26.703 241.812 C 26.737 241.846 26.783 241.861 26.841 241.857 C 26.915 241.851 26.976 241.815 27.021 241.75 C 27.067 241.684 27.087 241.606 27.08 241.515 L 27.07 241.385 Z M 28.446 241.998 L 28.007 242.004 L 28.001 241.565 L 28.441 241.56 L 28.446 241.998 Z M 28.909 242.484 L 28.909 240.566 L 29.298 240.566 L 29.298 240.777 C 29.37 240.617 29.497 240.537 29.677 240.537 C 29.832 240.537 29.959 240.599 30.058 240.723 C 30.158 240.848 30.207 241.029 30.207 241.266 C 30.207 241.519 30.157 241.709 30.057 241.837 C 29.957 241.966 29.827 242.03 29.667 242.03 C 29.505 242.03 29.389 241.967 29.32 241.841 L 29.32 242.484 L 28.909 242.484 Z M 29.32 241.373 C 29.32 241.474 29.326 241.544 29.338 241.583 C 29.351 241.622 29.377 241.656 29.417 241.687 C 29.456 241.718 29.499 241.733 29.546 241.733 C 29.604 241.733 29.655 241.703 29.701 241.644 C 29.746 241.585 29.769 241.455 29.769 241.254 C 29.769 240.971 29.694 240.829 29.544 240.829 C 29.488 240.829 29.436 240.854 29.389 240.904 C 29.343 240.955 29.32 241.04 29.32 241.16 L 29.32 241.373 Z M 32.622 242.394 L 32.212 242.285 L 32.417 241.519 C 32.445 241.411 32.461 241.34 32.463 241.305 C 32.465 241.271 32.456 241.24 32.435 241.211 C 32.413 241.183 32.379 241.162 32.331 241.149 C 32.286 241.137 32.236 241.141 32.181 241.161 C 32.126 241.18 32.078 241.266 32.037 241.418 L 31.833 242.185 L 31.425 242.076 L 31.629 241.309 C 31.659 241.199 31.673 241.126 31.671 241.091 C 31.67 241.056 31.658 241.024 31.635 240.997 C 31.613 240.969 31.58 240.95 31.537 240.938 C 31.466 240.92 31.408 240.928 31.362 240.963 C 31.315 240.998 31.275 241.08 31.242 241.207 L 31.037 241.973 L 30.64 241.868 L 31.009 240.483 L 31.394 240.585 L 31.338 240.796 C 31.445 240.653 31.597 240.608 31.792 240.66 C 31.969 240.707 32.075 240.82 32.111 241.002 C 32.231 240.862 32.387 240.817 32.578 240.868 C 32.67 240.892 32.744 240.932 32.8 240.987 C 32.856 241.042 32.89 241.103 32.902 241.171 C 32.914 241.239 32.901 241.347 32.862 241.494 L 32.622 242.394 Z M 33.547 240.94 L 33.541 242.373 L 33.117 242.371 L 33.123 240.938 L 33.547 240.94 Z M 33.55 240.396 L 33.547 240.819 L 33.124 240.817 L 33.126 240.394 L 33.55 240.396 Z M 35.291 241.017 L 34.842 241.657 L 35.284 242.452 L 34.801 242.426 L 34.529 241.917 L 34.21 242.395 L 33.848 242.375 L 34.362 241.631 L 33.99 240.947 L 34.473 240.973 L 34.681 241.372 L 34.929 240.997 L 35.291 241.017 Z M 36.003 242.479 L 35.565 242.441 L 35.603 242.004 L 36.041 242.042 L 36.003 242.479 Z M 37.663 242.862 L 37.247 242.781 L 37.399 241.991 C 37.418 241.896 37.427 241.829 37.427 241.793 C 37.426 241.756 37.413 241.722 37.389 241.692 C 37.365 241.662 37.332 241.643 37.288 241.634 C 37.141 241.606 37.048 241.7 37.006 241.915 L 36.853 242.705 L 36.437 242.625 L 36.709 241.218 L 37.096 241.292 L 37.05 241.531 C 37.136 241.43 37.214 241.369 37.282 241.349 C 37.351 241.328 37.422 241.325 37.494 241.339 C 37.628 241.365 37.729 241.421 37.797 241.509 C 37.865 241.597 37.879 241.746 37.838 241.957 L 37.663 242.862 Z M 39.514 242.589 L 38.603 242.428 C 38.598 242.453 38.594 242.474 38.59 242.493 C 38.572 242.594 38.586 242.674 38.63 242.735 C 38.675 242.796 38.734 242.833 38.809 242.846 C 38.948 242.871 39.045 242.812 39.099 242.668 L 39.472 242.763 C 39.309 243.071 39.066 243.195 38.743 243.138 C 38.602 243.114 38.487 243.064 38.398 242.99 C 38.31 242.917 38.243 242.82 38.199 242.701 C 38.154 242.581 38.145 242.446 38.172 242.295 C 38.212 242.071 38.308 241.901 38.461 241.786 C 38.614 241.67 38.791 241.631 38.993 241.667 C 39.175 241.699 39.32 241.79 39.427 241.941 C 39.535 242.093 39.563 242.308 39.514 242.589 Z M 38.645 242.186 L 39.148 242.275 C 39.169 242.079 39.106 241.968 38.96 241.941 C 38.803 241.914 38.698 241.995 38.645 242.186 Z M 40.707 242.45 L 40.445 242.996 C 40.412 243.065 40.401 243.115 40.41 243.148 C 40.42 243.181 40.462 243.215 40.539 243.252 C 40.574 243.269 40.615 243.286 40.663 243.305 L 40.527 243.588 C 40.407 243.553 40.322 243.525 40.274 243.502 C 40.115 243.426 40.016 243.341 39.979 243.248 C 39.942 243.155 39.961 243.029 40.038 242.87 L 40.326 242.268 L 40.121 242.17 L 40.263 241.873 L 40.49 241.981 L 40.704 241.614 L 41.045 241.746 L 40.85 242.153 L 41.129 242.286 L 40.987 242.583 L 40.707 242.45 Z" style="fill: rgb(51, 51, 51); white-space: pre; mix-blend-mode: color-dodge; opacity: 0.28;"/>
    <path d="M 45.8 273.6 L 40.1 274.6 L 40.1 246.2 L 33.5 246.2 L 33.5 274.6 L 27.8 273.6 L 36.8 286.2 L 45.8 273.6 Z" id="path3807" style="fill: rgb(255, 255, 255); fill-opacity: 1; fill-rule: nonzero; stroke: none; stroke-width: 0.0754453; visibility: hidden;" transform="matrix(-1, 0, 0, -1, 73.599998, 532.400009)"/>
    <path style="fill: rgb(255, 255, 255); fill-opacity: 1; fill-rule: nonzero; stroke: none; stroke-width: 0.0754453;" id="path822" d="M 4.83 270.425 L 5.83 264.725 L 5.83 258.125 L 4.83 252.425 L 17.43 261.425 L 4.83 270.425 Z" transform="matrix(-1, 0, 0, -1, 22.26, 522.849991)"/>
    <path style="opacity: 1; fill: rgb(255, 255, 255); fill-opacity: 1; fill-rule: nonzero; stroke: none; stroke-width: 3.49091; stroke-linecap: square; stroke-linejoin: round; stroke-miterlimit: 4; stroke-dasharray: none; stroke-opacity: 1; paint-order: stroke;" d="M 9.981 247.215 L 11.675 267.784 C 15.972 271.549 14.234 275.913 22.975 275.425 L 34.475 275.425 L 34.475 268.824 L 22.975 268.824 C 20.371 268.824 18.343 267.27 18.343 264.667 L 19.833 247.215 L 9.981 247.215 Z" id="rect836" transform="matrix(-1, 0, 0, -1, 45.404999, 533.549988)"/>
    <path style="fill: rgb(255, 255, 255); fill-opacity: 1; fill-rule: nonzero; stroke: none; stroke-width: 0.0754453; visibility: hidden;" id="path-1" d="M 43.56 252.532 L 44.56 258.232 L 44.56 264.832 L 43.56 270.532 L 56.16 261.532 L 43.56 252.532 Z"/>
    <path style="opacity: 1; fill: rgb(255, 255, 255); fill-opacity: 1; fill-rule: nonzero; stroke: none; stroke-width: 3.49091; stroke-linecap: square; stroke-linejoin: round; stroke-miterlimit: 4; stroke-dasharray: none; stroke-opacity: 1; paint-order: stroke; visibility: hidden;" d="M 27.193 275.532 L 27.26 265.873 C 27.26 259.613 32.3 258.232 38.56 258.232 L 50.06 258.232 L 50.06 264.833 L 38.56 264.833 C 35.956 264.833 34.062 266.75 34.062 270.142 C 33.067 273.63 34.667 276.743 34.667 276.743 L 27.193 275.532 Z" id="path-2"/>
    <path style="fill: rgb(255, 255, 255); fill-opacity: 1; fill-rule: nonzero; stroke: none; stroke-width: 0.0754453;" id="path-3" d="M 44.095 252.432 L 45.095 258.132 L 45.095 264.732 L 44.095 270.432 L 56.695 261.432 L 44.095 252.432 Z"/>
    <path style="opacity: 1; fill: rgb(255, 255, 255); fill-opacity: 1; fill-rule: nonzero; stroke: none; stroke-width: 3.49091; stroke-linecap: square; stroke-linejoin: round; stroke-miterlimit: 4; stroke-dasharray: none; stroke-opacity: 1; paint-order: stroke;" d="M 26.101 286.342 L 27.795 265.773 C 32.297 258.247 33.314 258.052 39.095 258.132 L 50.595 258.132 L 50.595 264.733 L 39.095 264.733 C 36.491 264.733 34.463 266.287 34.463 268.89 L 35.953 286.342 L 26.101 286.342 Z" id="path-4"/>
  </g>
</svg>