<?xml version="1.0" encoding="utf-8"?>
<svg viewBox="0 0 61.599998 61.599998" width="61.6mm" height="61.6mm" xmlns="http://www.w3.org/2000/svg">
  <g id="layer1" transform="matrix(1, 0, 0, 1, 0, -235.399994)">
    <circle style="opacity:1;fill:#000000;fill-opacity:1;fill-rule:nonzero;stroke:none;stroke-width:0.20635015;stroke-linecap:square;stroke-linejoin:round;stroke-miterlimit:4;stroke-dasharray:none;stroke-opacity:1;paint-order:stroke fill markers" id="path815" cx="30.799999" cy="266.20001" r="30.299999"/>
    <circle r="30" cy="266.20001" cx="30.799999" id="circle819" style="opacity:1;fill:#ffffff;fill-opacity:1;fill-rule:nonzero;stroke:none;stroke-width:0.20430708;stroke-linecap:square;stroke-linejoin:round;stroke-miterlimit:4;stroke-dasharray:none;stroke-opacity:1;paint-order:stroke fill markers"/>
    <circle style="opacity:1;fill:#003c82;fill-opacity:1;fill-rule:nonzero;stroke:none;stroke-width:0.19068664;stroke-linecap:square;stroke-linejoin:round;stroke-miterlimit:4;stroke-dasharray:none;stroke-opacity:1;paint-order:stroke fill markers" id="circle821" cx="30.799999" cy="266.20001" r="28"/>
    <path id="circle7883" style="opacity:1;fill:#ffffff;fill-opacity:1;fill-rule:nonzero;stroke:none;stroke-width:7.99999952;stroke-miterlimit:4;stroke-dasharray:none;stroke-opacity:1" d="m -34.041429,284.58309 a 18.666666,18.666666 0 0 1 -15.425232,-18.38308 l 18.666666,0 z" transform="scale(-1,1)"/>
    <path d="m 242.69459,-88.043375 a 18.666666,18.666666 0 0 1 -15.42524,-18.383075 l 18.66667,0 z" style="opacity:1;fill:#ffffff;fill-opacity:1;fill-rule:nonzero;stroke:none;stroke-width:7.99999952;stroke-miterlimit:4;stroke-dasharray:none;stroke-opacity:1" id="path7888" transform="matrix(0.5,0.8660254,0.8660254,-0.5,0,0)"/>
    <path transform="matrix(0.5,-0.8660254,-0.8660254,-0.5,0,0)" id="path7894" style="opacity:1;fill:#ffffff;fill-opacity:1;fill-rule:nonzero;stroke:none;stroke-width:7.99999952;stroke-miterlimit:4;stroke-dasharray:none;stroke-opacity:1" d="m -218.37736,-141.39056 a 18.666666,18.666666 0 0 1 -15.42523,-18.38308 l 18.66666,0 z"/>
    <circle r="13.8" cy="266.20001" cx="30.799995" id="circle7916" style="opacity:1;fill:#003c82;fill-opacity:1;fill-rule:nonzero;stroke:none;stroke-width:1.60000002;stroke-linecap:square;stroke-linejoin:miter;stroke-miterlimit:4;stroke-dasharray:none;stroke-opacity:0.65326634;paint-order:fill markers stroke"/>
    <path id="path7945" d="m 47.706603,258.41344 -6.946922,8.64451 c -0.445529,0.56432 0.02191,1.38414 0.734441,1.2882 l 5.50508,-0.75994 5.3233,1.59517 c 0.689531,0.20419 1.277239,-0.53449 0.92329,-1.16048 z" style="color:#000000;font-style:normal;font-variant:normal;font-weight:normal;font-stretch:normal;font-size:medium;line-height:normal;font-family:sans-serif;font-variant-ligatures:normal;font-variant-position:normal;font-variant-caps:normal;font-variant-numeric:normal;font-variant-alternates:normal;font-feature-settings:normal;text-indent:0;text-align:start;text-decoration:none;text-decoration-line:none;text-decoration-style:solid;text-decoration-color:#000000;letter-spacing:normal;word-spacing:normal;text-transform:none;writing-mode:lr-tb;direction:ltr;text-orientation:mixed;dominant-baseline:auto;baseline-shift:baseline;text-anchor:start;white-space:normal;shape-padding:0;clip-rule:nonzero;display:inline;overflow:visible;visibility:visible;opacity:1;isolation:auto;mix-blend-mode:normal;color-interpolation:sRGB;color-interpolation-filters:linearRGB;solid-color:#000000;solid-opacity:1;vector-effect:none;fill:#ffffff;fill-opacity:1;fill-rule:nonzero;stroke:none;stroke-width:1.5999999;stroke-linecap:butt;stroke-linejoin:round;stroke-miterlimit:4;stroke-dasharray:none;stroke-dashoffset:0;stroke-opacity:1;color-rendering:auto;image-rendering:auto;shape-rendering:auto;text-rendering:auto;enable-background:accumulate"/>
    <path style="color:#000000;font-style:normal;font-variant:normal;font-weight:normal;font-stretch:normal;font-size:medium;line-height:normal;font-family:sans-serif;font-variant-ligatures:normal;font-variant-position:normal;font-variant-caps:normal;font-variant-numeric:normal;font-variant-alternates:normal;font-feature-settings:normal;text-indent:0;text-align:start;text-decoration:none;text-decoration-line:none;text-decoration-style:solid;text-decoration-color:#000000;letter-spacing:normal;word-spacing:normal;text-transform:none;writing-mode:lr-tb;direction:ltr;text-orientation:mixed;dominant-baseline:auto;baseline-shift:baseline;text-anchor:start;white-space:normal;shape-padding:0;clip-rule:nonzero;display:inline;overflow:visible;visibility:visible;opacity:1;isolation:auto;mix-blend-mode:normal;color-interpolation:sRGB;color-interpolation-filters:linearRGB;solid-color:#000000;solid-opacity:1;vector-effect:none;fill:#ffffff;fill-opacity:1;fill-rule:nonzero;stroke:none;stroke-width:1.5999999;stroke-linecap:butt;stroke-linejoin:round;stroke-miterlimit:4;stroke-dasharray:none;stroke-dashoffset:0;stroke-opacity:1;color-rendering:auto;image-rendering:auto;shape-rendering:auto;text-rendering:auto;enable-background:accumulate" d="m 15.603311,255.45176 10.95982,1.69395 c 0.71148,0.10368 1.18776,-0.71102 0.74839,-1.28014 l -3.41067,-4.38757 -1.28019,-5.4077 c -0.16792,-0.69925 -1.10149,-0.83888 -1.46664,-0.21936 z" id="path7947"/>
    <path id="path7949" d="m 29.090061,284.73487 -4.0129,-10.33846 c -0.26596,-0.668 -1.20964,-0.67312 -1.48284,-0.008 l -2.09441,5.1475 -4.04311,3.81253 c -0.5216,0.49505 -0.17574,1.37336 0.54336,1.37983 z" style="color:#000000;font-style:normal;font-variant:normal;font-weight:normal;font-stretch:normal;font-size:medium;line-height:normal;font-family:sans-serif;font-variant-ligatures:normal;font-variant-position:normal;font-variant-caps:normal;font-variant-numeric:normal;font-variant-alternates:normal;font-feature-settings:normal;text-indent:0;text-align:start;text-decoration:none;text-decoration-line:none;text-decoration-style:solid;text-decoration-color:#000000;letter-spacing:normal;word-spacing:normal;text-transform:none;writing-mode:lr-tb;direction:ltr;text-orientation:mixed;dominant-baseline:auto;baseline-shift:baseline;text-anchor:start;white-space:normal;shape-padding:0;clip-rule:nonzero;display:inline;overflow:visible;visibility:visible;opacity:1;isolation:auto;mix-blend-mode:normal;color-interpolation:sRGB;color-interpolation-filters:linearRGB;solid-color:#000000;solid-opacity:1;vector-effect:none;fill:#ffffff;fill-opacity:1;fill-rule:nonzero;stroke:none;stroke-width:1.5999999;stroke-linecap:butt;stroke-linejoin:round;stroke-miterlimit:4;stroke-dasharray:none;stroke-dashoffset:0;stroke-opacity:1;color-rendering:auto;image-rendering:auto;shape-rendering:auto;text-rendering:auto;enable-background:accumulate"/>
  </g>
  <path d="M 21.974 6.735 L 22.23 7.186 C 22.262 7.243 22.292 7.276 22.32 7.285 C 22.347 7.294 22.394 7.28 22.456 7.245 C 22.485 7.229 22.517 7.208 22.554 7.184 L 22.687 7.418 C 22.604 7.484 22.542 7.529 22.502 7.552 C 22.371 7.628 22.264 7.654 22.181 7.636 C 22.097 7.617 22.017 7.541 21.943 7.41 L 21.66 6.914 L 21.49 7.01 L 21.351 6.766 L 21.538 6.659 L 21.383 6.33 L 21.643 6.156 L 21.833 6.491 L 22.065 6.36 L 22.204 6.605 L 21.974 6.735 Z M 23.817 6.542 L 23.086 6.845 C 23.094 6.865 23.1 6.882 23.107 6.897 C 23.14 6.977 23.188 7.03 23.248 7.053 C 23.307 7.076 23.367 7.076 23.427 7.052 C 23.539 7.005 23.582 6.917 23.554 6.789 L 23.868 6.687 C 23.891 6.984 23.773 7.184 23.514 7.293 C 23.401 7.339 23.296 7.356 23.199 7.344 C 23.1 7.331 23.007 7.293 22.921 7.226 C 22.833 7.161 22.765 7.069 22.714 6.947 C 22.639 6.767 22.63 6.601 22.687 6.448 C 22.744 6.293 22.854 6.183 23.015 6.117 C 23.162 6.057 23.308 6.055 23.455 6.115 C 23.602 6.174 23.722 6.316 23.817 6.542 Z M 23.004 6.651 L 23.407 6.483 C 23.333 6.333 23.236 6.281 23.118 6.33 C 22.993 6.383 22.955 6.489 23.004 6.651 Z M 24.742 5.669 C 24.929 5.65 25.08 5.697 25.198 5.808 C 25.314 5.919 25.382 6.068 25.398 6.25 C 25.417 6.431 25.377 6.587 25.281 6.716 C 25.184 6.848 25.046 6.922 24.866 6.94 C 24.691 6.957 24.546 6.911 24.43 6.803 C 24.314 6.693 24.246 6.545 24.228 6.36 C 24.215 6.23 24.228 6.117 24.266 6.021 C 24.305 5.925 24.362 5.847 24.439 5.783 C 24.515 5.72 24.617 5.681 24.742 5.669 Z M 24.776 5.904 C 24.706 5.91 24.659 5.942 24.629 5.998 C 24.598 6.054 24.592 6.16 24.608 6.318 C 24.621 6.461 24.649 6.563 24.688 6.624 C 24.726 6.682 24.782 6.71 24.852 6.702 C 24.913 6.696 24.96 6.665 24.994 6.607 C 25.026 6.55 25.034 6.446 25.02 6.296 C 25.005 6.136 24.977 6.027 24.937 5.975 C 24.898 5.921 24.844 5.898 24.776 5.904 Z M 26.145 6.744 L 25.799 6.804 L 25.587 5.598 L 25.914 5.541 L 25.953 5.765 C 25.975 5.589 26.047 5.49 26.171 5.468 C 26.188 5.465 26.21 5.462 26.236 5.46 L 26.298 5.813 C 26.225 5.825 26.171 5.845 26.134 5.874 C 26.097 5.904 26.072 5.95 26.057 6.012 C 26.041 6.075 26.041 6.156 26.058 6.253 L 26.145 6.744 Z M 26.894 5.335 L 27.116 6.54 L 26.76 6.607 L 26.537 5.4 L 26.894 5.335 Z M 26.809 4.878 L 26.875 5.233 L 26.519 5.298 L 26.452 4.943 L 26.809 4.878 Z M 28.582 6.381 L 28.232 6.407 C 28.218 6.36 28.207 6.296 28.201 6.217 C 28.147 6.31 28.09 6.372 28.031 6.406 C 27.972 6.438 27.903 6.458 27.825 6.465 C 27.711 6.472 27.615 6.449 27.54 6.392 C 27.466 6.335 27.424 6.254 27.415 6.149 C 27.408 6.074 27.424 6.001 27.461 5.933 C 27.496 5.865 27.56 5.81 27.648 5.766 C 27.736 5.723 27.901 5.683 28.142 5.646 L 28.136 5.576 C 28.127 5.457 28.063 5.403 27.944 5.413 C 27.818 5.422 27.751 5.487 27.745 5.606 L 27.41 5.599 C 27.421 5.459 27.479 5.355 27.584 5.289 C 27.69 5.223 27.813 5.184 27.952 5.173 C 28.036 5.167 28.114 5.172 28.188 5.185 C 28.264 5.199 28.324 5.224 28.368 5.26 C 28.412 5.295 28.443 5.334 28.46 5.375 C 28.479 5.417 28.493 5.493 28.501 5.599 L 28.542 6.154 C 28.55 6.261 28.564 6.336 28.582 6.381 Z M 28.155 5.825 C 27.904 5.868 27.784 5.955 27.793 6.081 C 27.796 6.125 27.813 6.16 27.841 6.19 C 27.87 6.219 27.909 6.231 27.958 6.228 C 28.023 6.222 28.074 6.193 28.113 6.136 C 28.153 6.08 28.17 6.013 28.164 5.936 L 28.155 5.825 Z M 29.332 6.349 L 28.956 6.353 L 28.952 5.978 L 29.327 5.973 L 29.332 6.349 Z M 29.729 6.764 L 29.729 5.124 L 30.061 5.124 L 30.061 5.304 C 30.123 5.167 30.231 5.099 30.385 5.099 C 30.518 5.099 30.626 5.151 30.711 5.258 C 30.796 5.365 30.838 5.519 30.838 5.723 C 30.838 5.939 30.796 6.102 30.71 6.211 C 30.625 6.321 30.513 6.375 30.376 6.375 C 30.237 6.375 30.138 6.322 30.079 6.214 L 30.079 6.764 L 29.729 6.764 Z M 30.079 5.814 C 30.079 5.901 30.084 5.959 30.095 5.993 C 30.106 6.026 30.129 6.057 30.163 6.083 C 30.197 6.109 30.234 6.122 30.272 6.122 C 30.322 6.122 30.367 6.097 30.405 6.046 C 30.444 5.995 30.464 5.884 30.464 5.712 C 30.464 5.47 30.399 5.349 30.272 5.349 C 30.223 5.349 30.178 5.371 30.14 5.413 C 30.099 5.456 30.079 5.528 30.079 5.632 L 30.079 5.814 Z M 32.903 6.687 L 32.554 6.594 L 32.729 5.938 C 32.754 5.847 32.766 5.785 32.769 5.755 C 32.771 5.726 32.763 5.7 32.744 5.675 C 32.726 5.65 32.696 5.633 32.656 5.623 C 32.618 5.612 32.574 5.615 32.526 5.632 C 32.48 5.649 32.438 5.723 32.404 5.853 L 32.23 6.508 L 31.881 6.415 L 32.055 5.76 C 32.08 5.664 32.092 5.603 32.091 5.573 C 32.089 5.542 32.08 5.516 32.06 5.493 C 32.041 5.468 32.012 5.453 31.976 5.442 C 31.916 5.426 31.865 5.433 31.827 5.463 C 31.786 5.493 31.752 5.562 31.723 5.672 L 31.549 6.327 L 31.209 6.237 L 31.524 5.053 L 31.854 5.139 L 31.805 5.32 C 31.898 5.198 32.027 5.159 32.194 5.204 C 32.346 5.244 32.437 5.341 32.468 5.496 C 32.57 5.377 32.703 5.338 32.866 5.382 C 32.945 5.403 33.008 5.437 33.056 5.484 C 33.104 5.531 33.134 5.584 33.144 5.641 C 33.154 5.7 33.143 5.791 33.109 5.918 L 32.903 6.687 Z M 33.696 5.443 L 33.69 6.67 L 33.327 6.668 L 33.333 5.442 L 33.696 5.443 Z M 33.697 4.978 L 33.696 5.34 L 33.333 5.338 L 33.334 4.977 L 33.697 4.978 Z M 35.187 5.51 L 34.804 6.057 L 35.18 6.736 L 34.768 6.715 L 34.535 6.279 L 34.263 6.689 L 33.952 6.672 L 34.393 6.035 L 34.074 5.45 L 34.487 5.471 L 34.664 5.813 L 34.878 5.493 L 35.187 5.51 Z M 35.795 6.76 L 35.421 6.727 L 35.454 6.353 L 35.828 6.386 L 35.795 6.76 Z M 37.215 7.087 L 36.86 7.019 L 36.991 6.343 C 37.006 6.261 37.014 6.203 37.014 6.173 C 37.013 6.142 37.003 6.112 36.982 6.088 C 36.962 6.061 36.932 6.044 36.895 6.037 C 36.77 6.013 36.69 6.094 36.654 6.278 L 36.523 6.954 L 36.168 6.885 L 36.401 5.681 L 36.731 5.745 L 36.691 5.949 C 36.765 5.862 36.832 5.811 36.891 5.793 C 36.949 5.776 37.01 5.772 37.071 5.785 C 37.186 5.806 37.272 5.856 37.331 5.93 C 37.39 6.006 37.4 6.134 37.366 6.313 L 37.215 7.087 Z M 38.799 6.854 L 38.02 6.716 C 38.015 6.738 38.012 6.757 38.009 6.772 C 37.994 6.858 38.006 6.926 38.043 6.979 C 38.082 7.032 38.133 7.062 38.196 7.073 C 38.315 7.095 38.398 7.044 38.445 6.922 L 38.765 7.004 C 38.624 7.266 38.415 7.373 38.139 7.323 C 38.018 7.303 37.921 7.26 37.845 7.197 C 37.77 7.133 37.712 7.052 37.674 6.95 C 37.637 6.848 37.629 6.732 37.651 6.602 C 37.686 6.41 37.768 6.265 37.899 6.166 C 38.029 6.068 38.181 6.035 38.354 6.064 C 38.51 6.092 38.633 6.171 38.724 6.301 C 38.817 6.429 38.842 6.614 38.799 6.854 Z M 38.055 6.509 L 38.486 6.585 C 38.503 6.418 38.451 6.322 38.326 6.301 C 38.191 6.276 38.102 6.346 38.055 6.509 Z M 39.82 6.735 L 39.596 7.203 C 39.568 7.262 39.557 7.303 39.566 7.333 C 39.574 7.361 39.611 7.39 39.676 7.421 C 39.705 7.435 39.741 7.45 39.783 7.466 L 39.667 7.708 C 39.563 7.679 39.491 7.654 39.449 7.634 C 39.313 7.569 39.23 7.498 39.197 7.418 C 39.165 7.339 39.182 7.231 39.247 7.095 L 39.494 6.579 L 39.319 6.495 L 39.44 6.241 L 39.634 6.335 L 39.817 6.02 L 40.109 6.132 L 39.942 6.482 L 40.181 6.596 L 40.059 6.849 L 39.82 6.735 Z" style="fill: rgb(51, 51, 51); white-space: pre; mix-blend-mode: color-dodge; opacity: 0.28;"/>
</svg>