<?xml version="1.0" encoding="utf-8"?>
<svg viewBox="0 0 683.37695 683.37695" width="683.377px" height="683.377px" xmlns="http://www.w3.org/2000/svg">
  <g id="layer1" transform="matrix(5.789094, 0, 0, 5.789094, 268.898224, 348.199249)">
    <path id="circle4853" transform="matrix(0.17273859,0,0,0.17273859,73.158541,-109.65662)" style="fill: rgb(180, 10, 0); fill-opacity: 1; stroke: none; stroke-width: 3.0634; stroke-linecap: round; stroke-linejoin: round; stroke-miterlimit: 4; stroke-dasharray: none;" d="m -350.73047,286.61328 c -188.71025,-9.1e-4 -341.69036,152.9792 -341.68945,341.68945 1.7e-4,188.70949 152.97996,341.68841 341.68945,341.6875 C -162.02174,969.99006 -9.0431345,817.01146 -9.0429688,628.30273 -9.0420575,439.59324 -162.02098,286.61345 -350.73047,286.61328 Z"/>
    <path id="circle4853-2" transform="matrix(0.17273859,0,0,0.17273859,73.158541,-109.65662)" style="fill: rgb(255, 255, 255); fill-opacity: 1; stroke: none; stroke-width: 3.0634; stroke-linecap: round; stroke-linejoin: round; stroke-miterlimit: 4; stroke-dasharray: none;" d="m -348.48047,352.99609 c -152.85554,1.1e-4 -276.76942,123.91399 -276.76953,276.76953 10e-5,152.85555 123.91398,276.76943 276.76953,276.76954 152.85555,-1.1e-4 276.769427,-123.91399 276.769532,-276.76954 C -71.711048,476.91007 -195.62492,352.9962 -348.48047,352.99609 Z"/>
  </g>
  <path style="color:#000000;font-style:normal;font-variant:normal;font-weight:normal;font-stretch:normal;font-size:medium;line-height:normal;font-family:Sans;-inkscape-font-specification:Sans;text-indent:0;text-align:start;text-decoration:none;text-decoration-line:none;letter-spacing:normal;word-spacing:normal;text-transform:none;writing-mode:lr-tb;direction:ltr;baseline-shift:baseline;text-anchor:start;display:inline;overflow:visible;visibility:visible;fill:#000000;fill-opacity:1;fill-rule:evenodd;stroke:none;stroke-width:0;marker:none;enable-background:accumulate" d="M 198.59 272.223 L 199.396 406.993 C 199.888 489.159 258.734 547.78 341.627 547.78 C 424.502 547.78 486.464 486.552 486.464 404.388 L 486.464 121.75 L 395.805 121.75 L 395.805 386.717 C 395.805 427.799 383.065 461.03 341.627 461.03 C 300.181 461.03 282.238 426.498 282.238 385.414 L 283.013 273.526 L 198.59 272.223 Z" id="path3774-2" transform="matrix(-1, 0, 0, -1, 685.054016, 669.530029)"/>
  <path id="rect825" style="fill:#b40a00;fill-opacity:1" d="M 93.706887,158.01415 534.34311,598.72579 592.00043,542.79677 152.21327,98.68891 Z"/>
  <path d="M 548.395 437.217 L 445.091 552.792 L 342.931 433.884 C 339.84 428.474 341.07 421.26 345.664 417.826 C 348.732 415.55 351.912 416.066 355.645 417.318 L 402.109 429.51 L 402.01 390.708 L 486.433 390.708 L 486.575 429.51 L 535.397 420.003 C 539.556 418.81 542.627 418.363 545.811 420.985 C 550.38 424.734 551.532 432.032 548.392 437.218" style="fill:#000000;fill-opacity:1;fill-rule:evenodd;stroke:none;stroke-width:5.69285536" id="path4037-7-9-5"/>
  <path style="color:#000000;font-style:normal;font-variant:normal;font-weight:normal;font-stretch:normal;font-size:medium;line-height:normal;font-family:Sans;-inkscape-font-specification:Sans;text-indent:0;text-align:start;text-decoration:none;text-decoration-line:none;letter-spacing:normal;word-spacing:normal;text-transform:none;writing-mode:lr-tb;direction:ltr;baseline-shift:baseline;text-anchor:start;display:inline;overflow:visible;visibility:visible;fill:#000000;fill-opacity:1;fill-rule:evenodd;stroke:none;stroke-width:0;marker:none;enable-background:accumulate" d="M 198.573 271.752 L 199.379 406.522 C 246.342 401.943 265.886 394.765 282.221 384.943 L 282.996 273.055 L 198.573 271.752 Z" id="path-1" transform="matrix(-1, 0, 0, -1, 685.019958, 668.588013)"/>
  <path d="M 264.339 42.373 L 266.632 46.391 C 266.918 46.894 267.185 47.187 267.432 47.27 C 267.681 47.354 268.084 47.236 268.644 46.918 C 268.9 46.772 269.193 46.591 269.518 46.373 L 270.705 48.451 C 269.967 49.055 269.416 49.456 269.058 49.66 C 267.89 50.325 266.932 50.57 266.185 50.401 C 265.44 50.231 264.732 49.56 264.063 48.386 L 261.54 43.965 L 260.032 44.821 L 258.785 42.638 L 260.455 41.689 L 259.082 38.758 L 261.388 37.197 L 263.094 40.19 L 265.149 39.022 L 266.396 41.204 L 264.339 42.373 Z M 280.78 40.646 L 274.265 43.343 C 274.332 43.525 274.394 43.683 274.45 43.817 C 274.75 44.537 275.166 45.001 275.704 45.208 C 276.24 45.417 276.776 45.409 277.311 45.188 C 278.306 44.777 278.684 43.997 278.443 42.856 L 281.232 41.935 C 281.448 44.581 280.398 46.383 278.087 47.339 C 277.078 47.757 276.137 47.91 275.264 47.799 C 274.392 47.688 273.567 47.339 272.787 46.756 C 272.008 46.173 271.394 45.34 270.945 44.259 C 270.278 42.653 270.196 41.164 270.707 39.798 C 271.214 38.429 272.191 37.45 273.634 36.852 C 274.937 36.312 276.246 36.307 277.56 36.839 C 278.872 37.37 279.946 38.638 280.78 40.646 Z M 273.536 41.617 L 277.132 40.127 C 276.464 38.778 275.604 38.322 274.556 38.756 C 273.433 39.22 273.093 40.174 273.536 41.617 Z M 289.041 32.859 C 290.706 32.696 292.056 33.112 293.095 34.104 C 294.135 35.096 294.734 36.409 294.896 38.04 C 295.054 39.649 294.704 41.039 293.84 42.207 C 292.979 43.376 291.745 44.041 290.139 44.197 C 288.585 44.352 287.287 43.943 286.251 42.969 C 285.214 41.998 284.612 40.679 284.449 39.013 C 284.334 37.857 284.447 36.854 284.789 36.003 C 285.13 35.153 285.645 34.444 286.328 33.877 C 287.015 33.31 287.918 32.97 289.041 32.859 Z M 289.335 34.953 C 288.723 35.013 288.287 35.293 288.023 35.794 C 287.76 36.296 287.696 37.246 287.836 38.646 C 287.963 39.934 288.201 40.843 288.552 41.373 C 288.903 41.904 289.392 42.14 290.017 42.077 C 290.564 42.024 290.984 41.742 291.274 41.23 C 291.565 40.719 291.645 39.792 291.512 38.449 C 291.371 37.019 291.127 36.063 290.776 35.583 C 290.428 35.104 289.948 34.893 289.335 34.953 Z M 301.549 42.453 L 298.46 42.992 L 296.572 32.22 L 299.488 31.709 L 299.841 33.715 C 300.026 32.143 300.673 31.262 301.776 31.068 C 301.934 31.042 302.129 31.019 302.36 31 L 302.91 34.135 C 302.262 34.248 301.775 34.435 301.449 34.698 C 301.126 34.96 300.893 35.369 300.755 35.923 C 300.619 36.479 300.626 37.194 300.78 38.069 L 301.549 42.453 Z M 308.228 29.877 L 310.208 40.635 L 307.028 41.219 L 305.047 30.462 L 308.228 29.877 Z M 307.475 25.799 L 308.059 28.974 L 304.878 29.557 L 304.295 26.383 L 307.475 25.799 Z M 323.296 39.211 L 320.169 39.449 C 320.036 39.024 319.942 38.46 319.887 37.753 C 319.398 38.573 318.891 39.131 318.366 39.429 C 317.841 39.725 317.232 39.899 316.54 39.952 C 315.515 40.03 314.668 39.816 313.994 39.311 C 313.321 38.804 312.949 38.082 312.876 37.146 C 312.823 36.463 312.96 35.82 313.283 35.216 C 313.609 34.611 314.165 34.115 314.955 33.726 C 315.746 33.337 317.212 32.981 319.357 32.658 L 319.309 32.031 C 319.227 30.973 318.657 30.486 317.597 30.566 C 316.463 30.651 315.873 31.229 315.826 32.296 L 312.829 32.243 C 312.929 30.989 313.449 30.068 314.39 29.474 C 315.331 28.881 316.423 28.538 317.663 28.442 C 318.406 28.385 319.111 28.42 319.782 28.542 C 320.451 28.665 320.983 28.885 321.377 29.203 C 321.772 29.521 322.048 29.866 322.208 30.243 C 322.368 30.617 322.484 31.284 322.557 32.24 L 322.935 37.186 C 323.007 38.137 323.129 38.811 323.296 39.211 Z M 319.478 34.246 C 317.238 34.64 316.16 35.405 316.247 36.543 C 316.276 36.925 316.422 37.244 316.68 37.504 C 316.94 37.762 317.288 37.875 317.728 37.842 C 318.297 37.799 318.759 37.526 319.108 37.026 C 319.458 36.525 319.607 35.929 319.553 35.238 L 319.478 34.246 Z M 329.978 38.922 L 326.627 38.964 L 326.586 35.618 L 329.938 35.578 L 329.978 38.922 Z M 333.508 42.627 L 333.508 27.998 L 336.481 27.998 L 336.481 29.603 C 337.029 28.382 337.993 27.773 339.366 27.773 C 340.553 27.773 341.523 28.247 342.279 29.196 C 343.037 30.146 343.413 31.526 343.413 33.337 C 343.413 35.265 343.032 36.717 342.27 37.695 C 341.505 38.675 340.513 39.163 339.292 39.163 C 338.054 39.163 337.171 38.682 336.642 37.722 L 336.642 42.627 L 333.508 42.627 Z M 336.642 34.15 C 336.642 34.922 336.69 35.456 336.784 35.752 C 336.879 36.049 337.077 36.314 337.382 36.548 C 337.685 36.783 338.014 36.899 338.369 36.899 C 338.81 36.899 339.205 36.674 339.552 36.223 C 339.899 35.772 340.071 34.777 340.071 33.241 C 340.071 31.082 339.501 30.003 338.358 30.003 C 337.923 30.003 337.529 30.193 337.175 30.577 C 336.822 30.96 336.642 31.609 336.642 32.525 L 336.642 34.15 Z M 361.837 41.94 L 358.713 41.112 L 360.272 35.264 C 360.49 34.44 360.608 33.897 360.626 33.637 C 360.643 33.376 360.57 33.136 360.408 32.918 C 360.245 32.699 359.983 32.541 359.62 32.445 C 359.276 32.354 358.895 32.383 358.473 32.534 C 358.051 32.683 357.686 33.337 357.377 34.495 L 355.818 40.345 L 352.705 39.518 L 354.262 33.668 C 354.488 32.823 354.595 32.269 354.584 32 C 354.573 31.731 354.481 31.493 354.308 31.282 C 354.137 31.071 353.886 30.924 353.557 30.837 C 353.019 30.693 352.574 30.757 352.222 31.026 C 351.869 31.295 351.564 31.914 351.306 32.883 L 349.747 38.733 L 346.715 37.928 L 349.532 27.36 L 352.469 28.138 L 352.04 29.75 C 352.861 28.662 354.017 28.314 355.505 28.711 C 356.856 29.069 357.668 29.937 357.942 31.318 C 358.855 30.253 360.043 29.914 361.502 30.301 C 362.202 30.486 362.765 30.79 363.192 31.208 C 363.62 31.629 363.881 32.096 363.974 32.614 C 364.068 33.132 363.965 33.953 363.667 35.076 L 361.837 41.94 Z M 368.895 30.848 L 368.846 41.784 L 365.613 41.769 L 365.662 30.833 L 368.895 30.848 Z M 368.915 26.701 L 368.899 29.926 L 365.666 29.914 L 365.68 26.686 L 368.915 26.701 Z M 382.201 31.435 L 378.775 36.316 L 382.145 42.384 L 378.461 42.187 L 376.388 38.304 L 373.954 41.948 L 371.192 41.8 L 375.114 36.121 L 372.275 30.906 L 375.959 31.102 L 377.545 34.146 L 379.437 31.287 L 382.201 31.435 Z M 387.631 42.591 L 384.291 42.304 L 384.58 38.969 L 387.92 39.256 L 387.631 42.591 Z M 400.295 45.509 L 397.121 44.897 L 398.287 38.869 C 398.431 38.14 398.498 37.633 398.495 37.353 C 398.489 37.074 398.395 36.817 398.211 36.588 C 398.028 36.358 397.769 36.21 397.435 36.145 C 396.319 35.931 395.603 36.645 395.283 38.289 L 394.117 44.317 L 390.942 43.705 L 393.023 32.967 L 395.972 33.535 L 395.621 35.355 C 396.279 34.584 396.87 34.121 397.393 33.966 C 397.917 33.81 398.456 33.784 399.011 33.892 C 400.032 34.088 400.804 34.522 401.322 35.191 C 401.842 35.862 401.944 37.001 401.633 38.609 L 400.295 45.509 Z M 414.417 43.429 L 407.472 42.198 C 407.43 42.391 407.399 42.556 407.372 42.698 C 407.236 43.467 407.337 44.081 407.677 44.544 C 408.019 45.008 408.473 45.289 409.042 45.391 C 410.103 45.58 410.841 45.128 411.257 44.034 L 414.103 44.759 C 412.856 47.105 410.999 48.057 408.535 47.621 C 407.459 47.432 406.585 47.054 405.909 46.492 C 405.235 45.929 404.726 45.191 404.386 44.281 C 404.044 43.37 403.977 42.338 404.181 41.188 C 404.486 39.474 405.22 38.179 406.389 37.301 C 407.554 36.421 408.906 36.12 410.445 36.392 C 411.833 36.637 412.938 37.337 413.758 38.489 C 414.577 39.643 414.797 41.29 414.417 43.429 Z M 407.79 40.352 L 411.626 41.032 C 411.788 39.536 411.31 38.689 410.192 38.489 C 408.997 38.278 408.195 38.9 407.79 40.352 Z M 423.524 42.367 L 421.525 46.538 C 421.274 47.059 421.185 47.445 421.258 47.696 C 421.33 47.946 421.656 48.21 422.237 48.486 C 422.504 48.615 422.82 48.75 423.186 48.891 L 422.152 51.05 C 421.234 50.788 420.589 50.569 420.218 50.392 C 419.004 49.813 418.254 49.169 417.968 48.459 C 417.683 47.75 417.832 46.787 418.415 45.571 L 420.618 40.979 L 419.051 40.232 L 420.138 37.964 L 421.87 38.793 L 423.5 35.994 L 426.101 36.995 L 424.61 40.101 L 426.744 41.121 L 425.657 43.387 L 423.524 42.367 Z" style="fill: rgb(51, 51, 51); white-space: pre; mix-blend-mode: color-dodge; opacity: 0.28; fill-opacity: 0.76;"/>
</svg>