<?xml version="1.0" encoding="utf-8"?>
<svg viewBox="0 0 61.599998 61.599998" width="61.6mm" height="61.6mm" xmlns="http://www.w3.org/2000/svg">
  <g id="layer1" transform="matrix(1, 0, 0, 1, 0, -235.399994)">
    <circle style="opacity:1;fill:#000000;fill-opacity:1;fill-rule:nonzero;stroke:none;stroke-width:0.20635015;stroke-linecap:square;stroke-linejoin:round;stroke-miterlimit:4;stroke-dasharray:none;stroke-opacity:1;paint-order:stroke fill markers" id="path815" cx="30.799999" cy="266.20001" r="30.299999"/>
    <circle r="30" cy="266.20001" cx="30.799999" id="circle819" style="opacity:1;fill:#ffffff;fill-opacity:1;fill-rule:nonzero;stroke:none;stroke-width:0.20430708;stroke-linecap:square;stroke-linejoin:round;stroke-miterlimit:4;stroke-dasharray:none;stroke-opacity:1;paint-order:stroke fill markers"/>
    <circle style="opacity:1;fill:#003c82;fill-opacity:1;fill-rule:nonzero;stroke:none;stroke-width:0.19068664;stroke-linecap:square;stroke-linejoin:round;stroke-miterlimit:4;stroke-dasharray:none;stroke-opacity:1;paint-order:stroke fill markers" id="circle821" cx="30.799999" cy="266.20001" r="28"/>
    <path d="M 13.553 255.019 L 27.765 255.019 L 27.765 259.795 L 18.138 259.795 L 17.624 263.029 Q 18.623 262.559 19.601 262.323 Q 20.578 262.088 21.533 262.088 Q 24.767 262.088 26.78 264.043 Q 28.794 265.998 28.794 268.967 Q 28.794 271.054 27.758 272.979 Q 26.721 274.904 24.818 275.918 Q 22.915 276.932 19.946 276.932 Q 17.815 276.932 16.294 276.528 Q 14.772 276.124 13.707 275.323 Q 12.641 274.522 11.98 273.508 Q 11.319 272.494 10.878 270.98 L 16.933 270.319 Q 17.153 271.774 17.962 272.531 Q 18.77 273.288 19.887 273.288 Q 21.136 273.288 21.952 272.34 Q 22.768 271.392 22.768 269.51 Q 22.768 267.585 21.945 266.688 Q 21.122 265.792 19.755 265.792 Q 18.888 265.792 18.079 266.218 Q 17.477 266.527 16.757 267.335 L 11.657 266.6 Z M 35.883 255.019 L 50.095 255.019 L 50.095 259.795 L 40.469 259.795 L 39.954 263.029 Q 40.954 262.559 41.931 262.323 Q 42.908 262.088 43.864 262.088 Q 47.097 262.088 49.111 264.043 Q 51.124 265.998 51.124 268.967 Q 51.124 271.054 50.088 272.979 Q 49.052 274.904 47.148 275.918 Q 45.245 276.932 42.276 276.932 Q 40.145 276.932 38.624 276.528 Q 37.103 276.124 36.037 275.323 Q 34.972 274.522 34.31 273.508 Q 33.649 272.494 33.208 270.98 L 39.263 270.319 Q 39.484 271.774 40.292 272.531 Q 41.101 273.288 42.218 273.288 Q 43.467 273.288 44.282 272.34 Q 45.098 271.392 45.098 269.51 Q 45.098 267.585 44.275 266.688 Q 43.452 265.792 42.085 265.792 Q 41.218 265.792 40.41 266.218 Q 39.807 266.527 39.087 267.335 L 33.987 266.6 Z" style="fill: rgb(255, 255, 255); white-space: pre;"/>
  </g>
  <path d="M 21.205 7.338 L 21.48 7.818 C 21.514 7.879 21.547 7.914 21.577 7.923 C 21.607 7.934 21.654 7.92 21.721 7.882 C 21.752 7.864 21.788 7.843 21.826 7.816 L 21.967 8.066 C 21.88 8.137 21.814 8.186 21.771 8.21 C 21.632 8.29 21.516 8.318 21.427 8.299 C 21.338 8.278 21.253 8.198 21.173 8.057 L 20.871 7.528 L 20.69 7.631 L 20.54 7.369 L 20.741 7.255 L 20.576 6.904 L 20.852 6.717 L 21.057 7.077 L 21.303 6.935 L 21.452 7.197 L 21.205 7.338 Z M 23.175 7.13 L 22.394 7.454 C 22.403 7.475 22.41 7.494 22.416 7.51 C 22.453 7.596 22.502 7.651 22.568 7.677 C 22.631 7.702 22.695 7.7 22.759 7.674 C 22.878 7.625 22.924 7.533 22.894 7.394 L 23.229 7.285 C 23.255 7.602 23.129 7.818 22.853 7.932 C 22.731 7.983 22.618 8 22.514 7.987 C 22.41 7.974 22.311 7.932 22.217 7.862 C 22.125 7.793 22.051 7.693 21.997 7.564 C 21.917 7.371 21.907 7.192 21.969 7.029 C 22.028 6.866 22.146 6.748 22.32 6.675 C 22.475 6.612 22.631 6.61 22.789 6.674 C 22.946 6.738 23.074 6.889 23.175 7.13 Z M 22.308 7.247 L 22.738 7.068 C 22.658 6.907 22.554 6.852 22.429 6.904 C 22.294 6.959 22.254 7.074 22.308 7.247 Z M 24.164 6.199 C 24.363 6.178 24.525 6.228 24.65 6.347 C 24.773 6.466 24.846 6.624 24.866 6.818 C 24.885 7.011 24.842 7.178 24.739 7.317 C 24.635 7.457 24.488 7.537 24.295 7.556 C 24.109 7.574 23.953 7.525 23.83 7.409 C 23.705 7.292 23.634 7.134 23.615 6.935 C 23.6 6.796 23.613 6.677 23.655 6.574 C 23.695 6.472 23.757 6.387 23.839 6.32 C 23.921 6.252 24.029 6.211 24.164 6.199 Z M 24.2 6.448 C 24.126 6.456 24.074 6.49 24.043 6.549 C 24.01 6.61 24.002 6.723 24.02 6.891 C 24.035 7.045 24.063 7.154 24.105 7.218 C 24.148 7.282 24.206 7.31 24.28 7.302 C 24.347 7.295 24.396 7.262 24.432 7.2 C 24.466 7.139 24.476 7.028 24.46 6.867 C 24.444 6.696 24.414 6.582 24.372 6.524 C 24.331 6.466 24.273 6.441 24.2 6.448 Z M 25.662 7.347 L 25.292 7.411 L 25.066 6.121 L 25.415 6.061 L 25.458 6.301 C 25.479 6.113 25.558 6.007 25.69 5.983 C 25.708 5.98 25.731 5.977 25.76 5.976 L 25.825 6.35 C 25.748 6.364 25.688 6.387 25.65 6.419 C 25.611 6.45 25.583 6.499 25.567 6.566 C 25.55 6.631 25.552 6.717 25.57 6.823 L 25.662 7.347 Z M 26.462 5.841 L 26.698 7.129 L 26.318 7.198 L 26.081 5.911 L 26.462 5.841 Z M 26.372 5.352 L 26.442 5.732 L 26.061 5.802 L 25.991 5.422 L 26.372 5.352 Z M 28.267 6.959 L 27.891 6.987 C 27.876 6.937 27.865 6.869 27.859 6.784 C 27.799 6.882 27.738 6.949 27.676 6.984 C 27.614 7.02 27.541 7.041 27.458 7.047 C 27.334 7.057 27.233 7.031 27.153 6.971 C 27.071 6.91 27.027 6.824 27.018 6.711 C 27.012 6.629 27.028 6.552 27.067 6.481 C 27.107 6.408 27.172 6.349 27.267 6.301 C 27.362 6.255 27.538 6.212 27.795 6.173 L 27.789 6.099 C 27.78 5.971 27.712 5.913 27.584 5.924 C 27.449 5.934 27.377 6.003 27.371 6.13 L 27.013 6.124 C 27.025 5.974 27.088 5.863 27.201 5.793 C 27.312 5.722 27.443 5.68 27.591 5.668 C 27.68 5.662 27.765 5.667 27.845 5.68 C 27.925 5.695 27.989 5.722 28.037 5.76 C 28.084 5.798 28.117 5.839 28.136 5.885 C 28.156 5.93 28.169 6.009 28.178 6.124 L 28.223 6.716 C 28.231 6.83 28.246 6.91 28.267 6.959 Z M 27.81 6.364 C 27.541 6.411 27.411 6.503 27.422 6.64 C 27.426 6.684 27.443 6.723 27.474 6.754 C 27.505 6.785 27.547 6.799 27.6 6.794 C 27.668 6.79 27.723 6.757 27.765 6.696 C 27.807 6.637 27.824 6.566 27.818 6.482 L 27.81 6.364 Z M 29.066 6.924 L 28.665 6.93 L 28.661 6.528 L 29.062 6.524 L 29.066 6.924 Z M 29.49 7.368 L 29.49 5.616 L 29.846 5.616 L 29.846 5.808 C 29.911 5.662 30.026 5.588 30.191 5.588 C 30.333 5.588 30.449 5.646 30.54 5.759 C 30.63 5.873 30.675 6.038 30.675 6.255 C 30.675 6.487 30.63 6.661 30.538 6.777 C 30.448 6.894 30.329 6.953 30.182 6.953 C 30.033 6.953 29.928 6.895 29.865 6.781 L 29.865 7.368 L 29.49 7.368 Z M 29.865 6.353 C 29.865 6.445 29.87 6.509 29.882 6.545 C 29.894 6.58 29.917 6.612 29.953 6.64 C 29.99 6.668 30.029 6.681 30.072 6.681 C 30.124 6.681 30.171 6.655 30.213 6.601 C 30.255 6.546 30.275 6.427 30.275 6.243 C 30.275 5.985 30.207 5.856 30.07 5.856 C 30.018 5.856 29.971 5.879 29.929 5.925 C 29.886 5.97 29.865 6.049 29.865 6.159 L 29.865 6.353 Z M 32.882 7.286 L 32.508 7.186 L 32.695 6.485 C 32.72 6.387 32.735 6.322 32.737 6.291 C 32.74 6.26 32.731 6.231 32.711 6.205 C 32.692 6.179 32.659 6.16 32.616 6.148 C 32.575 6.138 32.53 6.141 32.48 6.159 C 32.429 6.176 32.385 6.255 32.347 6.393 L 32.162 7.094 L 31.789 6.995 L 31.975 6.295 C 32.001 6.194 32.015 6.127 32.013 6.095 C 32.012 6.064 32.001 6.034 31.981 6.009 C 31.96 5.983 31.93 5.965 31.89 5.955 C 31.826 5.939 31.773 5.946 31.731 5.979 C 31.688 6.01 31.652 6.084 31.621 6.2 L 31.434 6.901 L 31.072 6.805 L 31.409 5.539 L 31.761 5.633 L 31.709 5.826 C 31.807 5.695 31.945 5.654 32.123 5.701 C 32.285 5.744 32.383 5.848 32.416 6.013 C 32.524 5.885 32.667 5.845 32.842 5.891 C 32.925 5.913 32.994 5.951 33.044 6 C 33.096 6.05 33.127 6.107 33.138 6.169 C 33.15 6.231 33.136 6.329 33.101 6.463 L 32.882 7.286 Z M 33.727 5.957 L 33.721 7.267 L 33.334 7.265 L 33.34 5.955 L 33.727 5.957 Z M 33.73 5.46 L 33.727 5.847 L 33.341 5.845 L 33.343 5.459 L 33.73 5.46 Z M 35.321 6.028 L 34.911 6.612 L 35.314 7.338 L 34.873 7.316 L 34.625 6.849 L 34.333 7.286 L 34.002 7.268 L 34.472 6.589 L 34.131 5.964 L 34.573 5.988 L 34.763 6.352 L 34.99 6.01 L 35.321 6.028 Z M 35.97 7.363 L 35.571 7.329 L 35.605 6.93 L 36.006 6.964 L 35.97 7.363 Z M 37.488 7.712 L 37.108 7.64 L 37.248 6.918 C 37.264 6.83 37.273 6.769 37.272 6.736 C 37.272 6.702 37.26 6.673 37.237 6.644 C 37.217 6.618 37.185 6.6 37.145 6.591 C 37.012 6.566 36.926 6.652 36.887 6.848 L 36.747 7.57 L 36.367 7.497 L 36.617 6.211 L 36.97 6.279 L 36.928 6.497 C 37.007 6.405 37.077 6.349 37.141 6.331 C 37.203 6.312 37.267 6.309 37.334 6.322 C 37.456 6.346 37.549 6.398 37.61 6.478 C 37.673 6.558 37.685 6.693 37.647 6.886 L 37.488 7.712 Z M 39.179 7.464 L 38.347 7.316 C 38.343 7.339 38.338 7.359 38.335 7.377 C 38.319 7.469 38.331 7.541 38.372 7.598 C 38.412 7.653 38.467 7.687 38.536 7.699 C 38.662 7.721 38.751 7.668 38.8 7.536 L 39.142 7.623 C 38.992 7.904 38.769 8.018 38.475 7.966 C 38.346 7.943 38.242 7.898 38.16 7.831 C 38.08 7.763 38.019 7.675 37.977 7.565 C 37.937 7.457 37.928 7.334 37.953 7.195 C 37.989 6.99 38.078 6.834 38.218 6.73 C 38.357 6.625 38.519 6.588 38.704 6.621 C 38.87 6.65 39.002 6.735 39.1 6.872 C 39.198 7.01 39.225 7.207 39.179 7.464 Z M 38.386 7.096 L 38.845 7.176 C 38.864 6.998 38.808 6.897 38.672 6.872 C 38.53 6.846 38.433 6.922 38.386 7.096 Z M 40.269 7.337 L 40.03 7.836 C 40 7.898 39.99 7.944 39.999 7.975 C 40.006 8.005 40.046 8.036 40.116 8.069 C 40.147 8.085 40.186 8.101 40.229 8.118 L 40.106 8.376 C 39.996 8.345 39.919 8.318 39.874 8.298 C 39.728 8.228 39.638 8.151 39.604 8.066 C 39.57 7.981 39.587 7.865 39.657 7.72 L 39.922 7.17 L 39.734 7.081 L 39.864 6.809 L 40.072 6.909 L 40.266 6.573 L 40.578 6.693 L 40.4 7.065 L 40.655 7.188 L 40.525 7.458 L 40.269 7.337 Z" style="fill: rgb(51, 51, 51); white-space: pre; mix-blend-mode: color-dodge; opacity: 0.28;"/>
</svg>