<?xml version="1.0" encoding="utf-8"?>
<svg viewBox="0 -0.573 493.231 601.787" width="493.231px" height="601.787px" xmlns="http://www.w3.org/2000/svg">
  <g transform="matrix(1.025853, 0, 0, -1.25, -0.000001, 601.001587)" id="g3976" style="">
    <g id="g3978">
      <path id="path3980" style="fill: rgb(255, 255, 255); fill-opacity: 1; fill-rule: nonzero; stroke: none; stroke-opacity: 0;" d="M 29.199,480.403 C 0.336,480.418 0.398,451.598 0.398,451.598 l 0,-422.398 c 0,0 -0.062,-28.825 28.801,-28.797 l 422.403,0 C 480.648,0.372 480.398,29.2 480.398,29.2 l 0,422.398 c 0,0 0.239,28.899 -28.796,28.805 l -422.403,0 z"/>
      <path id="path3982" style="fill: rgb(21, 72, 137); fill-opacity: 1; fill-rule: nonzero; stroke: none; stroke-opacity: 0;" d="M 29.199,470.801 C 18.602,470.801 10,462.208 10,451.602 L 10,29.2 C 10,18.59 18.602,10 29.199,10 l 422.403,0 c 10.601,0 19.199,8.59 19.199,19.2 l 0,422.402 c 0,10.606 -8.598,19.199 -19.199,19.199 l -422.403,0 z"/>
      <path id="path3984" style="fill: rgb(0, 0, 0); fill-opacity: 1; fill-rule: nonzero; stroke: none; stroke-opacity: 0;" d="M 29.199,480.801 C 14.633,480.809 7.258,473.485 3.617,466.184 -0.023,458.883 0,451.594 0,451.594 L 0,29.2 C 0,29.2 -0.02,21.911 3.617,14.614 7.258,7.313 14.633,-0.011 29.199,0 l 422.403,0 c 14.656,-0.015 22.035,7.313 25.652,14.614 3.613,7.297 3.547,14.582 3.547,14.586 l 0,422.398 c 0,0.004 0.062,7.309 -3.555,14.613 -3.617,7.305 -10.996,14.637 -25.644,14.59 l -422.403,0 z m 0,-0.398 422.403,0 c 29.035,0.094 28.796,-28.805 28.796,-28.805 l 0,-422.398 c 0,0 0.25,-28.828 -28.796,-28.797 l -422.403,0 C 0.336,0.375 0.398,29.2 0.398,29.2 l 0,422.398 c 0,0 -0.062,28.82 28.801,28.805 z"/>
      <path id="path3986" style="fill: rgb(255, 255, 255); fill-opacity: 1; fill-rule: nonzero; stroke: none; stroke-opacity: 0;" d="m 252.34,305.418 -4.711,122.793 21.672,0 42.515,-122.793 -59.476,0 z m -83.34,0 42.512,122.793 21.676,0 -4.723,-122.793 -59.465,0 z m -76.68,-50.585 0,21.679 -39.722,0 0,14.453 375.609,0 0,-14.453 -39.727,0 0,-21.679 -36.113,0 0,21.679 -223.929,0 0,-21.679 -36.118,0 z m 169.75,-202.247 -7.765,202.247 75.004,0 70.015,-202.247 -137.254,0 z m -180.593,0 70.015,202.247 75.02,0 -7.782,-202.247"/>
      <path d="M 195.11 452.881 L 196.34 451.112 C 196.493 450.891 196.636 450.762 196.769 450.725 C 196.902 450.688 197.119 450.74 197.419 450.88 C 197.557 450.944 197.714 451.024 197.888 451.12 L 198.525 450.205 C 198.129 449.94 197.833 449.763 197.641 449.673 C 197.015 449.38 196.501 449.272 196.1 449.347 C 195.701 449.422 195.32 449.717 194.962 450.234 L 193.609 452.18 L 192.8 451.804 L 192.131 452.764 L 193.027 453.182 L 192.29 454.472 L 193.527 455.16 L 194.442 453.842 L 195.545 454.356 L 196.213 453.396 L 195.11 452.881 Z M 203.929 453.641 L 200.434 452.454 C 200.47 452.374 200.503 452.304 200.534 452.245 C 200.694 451.928 200.918 451.724 201.206 451.633 C 201.494 451.541 201.781 451.544 202.068 451.642 C 202.602 451.823 202.805 452.166 202.675 452.668 L 204.172 453.074 C 204.288 451.909 203.724 451.116 202.484 450.695 C 201.943 450.511 201.438 450.444 200.97 450.492 C 200.502 450.541 200.06 450.695 199.642 450.952 C 199.223 451.208 198.894 451.575 198.653 452.051 C 198.295 452.758 198.252 453.413 198.526 454.015 C 198.797 454.617 199.322 455.048 200.096 455.312 C 200.795 455.549 201.497 455.552 202.201 455.317 C 202.905 455.084 203.481 454.525 203.929 453.641 Z M 200.043 453.214 L 201.972 453.87 C 201.614 454.464 201.153 454.664 200.59 454.473 C 199.988 454.269 199.805 453.849 200.043 453.214 Z M 208.36 457.069 C 209.253 457.141 209.977 456.958 210.535 456.521 C 211.093 456.084 211.414 455.507 211.501 454.788 C 211.586 454.08 211.398 453.468 210.935 452.954 C 210.473 452.44 209.811 452.147 208.949 452.078 C 208.116 452.01 207.42 452.19 206.864 452.619 C 206.307 453.046 205.985 453.627 205.897 454.36 C 205.836 454.869 205.896 455.311 206.079 455.685 C 206.263 456.06 206.538 456.372 206.905 456.621 C 207.273 456.871 207.758 457.02 208.36 457.069 Z M 208.518 456.148 C 208.19 456.121 207.956 455.998 207.814 455.777 C 207.673 455.556 207.639 455.138 207.714 454.522 C 207.782 453.955 207.91 453.555 208.098 453.321 C 208.286 453.088 208.548 452.984 208.884 453.012 C 209.177 453.035 209.402 453.159 209.558 453.384 C 209.714 453.609 209.757 454.017 209.686 454.608 C 209.61 455.238 209.479 455.659 209.291 455.87 C 209.104 456.081 208.847 456.174 208.518 456.148 Z M 215.07 452.846 L 213.413 452.608 L 212.4 457.351 L 213.964 457.576 L 214.153 456.692 C 214.253 457.384 214.6 457.772 215.192 457.858 C 215.276 457.869 215.381 457.88 215.505 457.888 L 215.8 456.508 C 215.452 456.458 215.191 456.376 215.016 456.26 C 214.843 456.144 214.718 455.964 214.644 455.72 C 214.571 455.476 214.575 455.161 214.657 454.776 L 215.07 452.846 Z M 218.652 458.382 L 219.715 453.646 L 218.009 453.389 L 216.946 458.124 L 218.652 458.382 Z M 218.249 460.177 L 218.562 458.78 L 216.856 458.523 L 216.543 459.92 L 218.249 460.177 Z M 226.735 454.273 L 225.058 454.168 C 224.986 454.356 224.936 454.604 224.906 454.915 C 224.644 454.554 224.372 454.308 224.091 454.177 C 223.809 454.047 223.482 453.97 223.111 453.947 C 222.561 453.912 222.107 454.007 221.745 454.229 C 221.385 454.452 221.185 454.77 221.146 455.182 C 221.117 455.483 221.191 455.766 221.364 456.032 C 221.539 456.298 221.837 456.516 222.261 456.688 C 222.685 456.859 223.472 457.016 224.622 457.158 L 224.597 457.434 C 224.553 457.9 224.247 458.114 223.678 458.079 C 223.07 458.041 222.753 457.787 222.728 457.317 L 221.12 457.34 C 221.174 457.892 221.453 458.298 221.958 458.56 C 222.463 458.82 223.049 458.972 223.713 459.014 C 224.112 459.039 224.49 459.024 224.85 458.97 C 225.209 458.916 225.494 458.819 225.706 458.679 C 225.917 458.539 226.066 458.387 226.151 458.221 C 226.237 458.056 226.299 457.763 226.338 457.342 L 226.541 455.164 C 226.58 454.746 226.646 454.449 226.735 454.273 Z M 224.687 456.459 C 223.485 456.285 222.907 455.948 222.954 455.448 C 222.97 455.28 223.048 455.139 223.186 455.024 C 223.325 454.911 223.513 454.861 223.748 454.876 C 224.054 454.895 224.301 455.015 224.488 455.235 C 224.676 455.456 224.756 455.718 224.727 456.022 L 224.687 456.459 Z M 230.32 454.4 L 228.522 454.382 L 228.5 455.855 L 230.298 455.872 L 230.32 454.4 Z M 232.213 452.769 L 232.213 459.209 L 233.807 459.209 L 233.807 458.503 C 234.102 459.04 234.618 459.308 235.355 459.308 C 235.992 459.308 236.512 459.1 236.918 458.682 C 237.324 458.264 237.526 457.656 237.526 456.859 C 237.526 456.01 237.322 455.371 236.913 454.94 C 236.503 454.509 235.97 454.294 235.315 454.294 C 234.652 454.294 234.178 454.506 233.894 454.928 L 233.894 452.769 L 232.213 452.769 Z M 233.894 456.501 C 233.894 456.161 233.919 455.926 233.97 455.796 C 234.021 455.665 234.127 455.548 234.291 455.445 C 234.454 455.342 234.63 455.291 234.82 455.291 C 235.057 455.291 235.269 455.39 235.455 455.588 C 235.641 455.787 235.734 456.225 235.734 456.901 C 235.734 457.852 235.428 458.327 234.814 458.327 C 234.581 458.327 234.37 458.243 234.18 458.074 C 233.991 457.905 233.894 457.62 233.894 457.216 L 233.894 456.501 Z M 247.409 453.072 L 245.733 453.436 L 246.569 456.011 C 246.686 456.373 246.75 456.612 246.76 456.727 C 246.768 456.842 246.729 456.948 246.643 457.044 C 246.555 457.14 246.414 457.209 246.219 457.252 C 246.035 457.292 245.831 457.279 245.604 457.212 C 245.378 457.147 245.182 456.859 245.017 456.349 L 244.18 453.774 L 242.51 454.138 L 243.346 456.713 C 243.467 457.085 243.524 457.329 243.518 457.448 C 243.512 457.566 243.463 457.671 243.37 457.764 C 243.279 457.856 243.144 457.921 242.968 457.96 C 242.679 458.023 242.44 457.995 242.251 457.876 C 242.062 457.758 241.898 457.485 241.76 457.059 L 240.923 454.484 L 239.297 454.838 L 240.808 459.49 L 242.384 459.148 L 242.154 458.438 C 242.594 458.917 243.214 459.07 244.013 458.896 C 244.737 458.738 245.173 458.356 245.32 457.748 C 245.809 458.216 246.447 458.366 247.229 458.196 C 247.605 458.114 247.907 457.98 248.136 457.796 C 248.365 457.611 248.505 457.405 248.555 457.177 C 248.606 456.949 248.55 456.588 248.39 456.093 L 247.409 453.072 Z M 251.195 457.955 L 251.169 453.14 L 249.434 453.147 L 249.461 457.961 L 251.195 457.955 Z M 251.206 459.78 L 251.197 458.36 L 249.463 458.366 L 249.47 459.787 L 251.206 459.78 Z M 258.332 457.696 L 256.495 455.548 L 258.302 452.876 L 256.326 452.963 L 255.214 454.672 L 253.909 453.068 L 252.427 453.133 L 254.531 455.633 L 253.008 457.929 L 254.984 457.843 L 255.835 456.503 L 256.85 457.761 L 258.332 457.696 Z M 261.245 452.785 L 259.453 452.912 L 259.608 454.38 L 261.4 454.253 L 261.245 452.785 Z M 268.038 451.5 L 266.335 451.77 L 266.961 454.424 C 267.038 454.744 267.074 454.968 267.072 455.091 C 267.069 455.214 267.019 455.327 266.92 455.428 C 266.822 455.529 266.683 455.594 266.504 455.623 C 265.906 455.717 265.521 455.403 265.35 454.679 L 264.724 452.025 L 263.021 452.295 L 264.137 457.022 L 265.719 456.772 L 265.531 455.971 C 265.884 456.31 266.201 456.514 266.482 456.582 C 266.762 456.651 267.052 456.662 267.349 456.615 C 267.897 456.528 268.311 456.337 268.589 456.043 C 268.868 455.748 268.923 455.246 268.756 454.538 L 268.038 451.5 Z M 275.614 452.416 L 271.888 452.958 C 271.865 452.873 271.849 452.8 271.834 452.738 C 271.761 452.4 271.816 452.129 271.998 451.925 C 272.181 451.721 272.425 451.597 272.73 451.552 C 273.299 451.469 273.695 451.668 273.918 452.15 L 275.445 451.831 C 274.776 450.798 273.78 450.379 272.458 450.571 C 271.881 450.654 271.412 450.82 271.05 451.068 C 270.688 451.316 270.415 451.64 270.233 452.041 C 270.049 452.442 270.013 452.896 270.123 453.403 C 270.286 454.157 270.68 454.728 271.307 455.114 C 271.932 455.501 272.657 455.634 273.483 455.514 C 274.227 455.406 274.82 455.098 275.26 454.591 C 275.699 454.083 275.817 453.358 275.614 452.416 Z M 272.058 453.771 L 274.116 453.472 C 274.203 454.13 273.947 454.503 273.347 454.591 C 272.706 454.684 272.276 454.41 272.058 453.771 Z M 280.498 452.884 L 279.426 451.048 C 279.291 450.818 279.244 450.648 279.283 450.538 C 279.322 450.428 279.496 450.312 279.808 450.19 C 279.951 450.133 280.121 450.074 280.317 450.012 L 279.762 449.061 C 279.27 449.176 278.924 449.273 278.725 449.351 C 278.074 449.606 277.671 449.889 277.518 450.202 C 277.365 450.514 277.445 450.938 277.758 451.473 L 278.94 453.495 L 278.099 453.824 L 278.682 454.822 L 279.611 454.457 L 280.486 455.689 L 281.881 455.248 L 281.081 453.881 L 282.226 453.432 L 281.643 452.435 L 280.498 452.884 Z" style="fill: rgb(51, 51, 51); white-space: pre; mix-blend-mode: color-dodge; opacity: 0.28; stroke-opacity: 0;"/>
      <path style="stroke: rgb(0, 0, 0); stroke-opacity: 0; opacity: 0.91;" d="M 425.209 480.551 C 469.54 483.824 482.002 476.536 480.542 442.337 L 40.287 0.118 C 9.733 -2.389 -1.583 11.57 0.315 38.892 L 425.209 480.551 Z"/>
    </g>
  </g>
</svg>