<?xml version="1.0" encoding="utf-8"?>
<svg viewBox="1.013 1.021 477.974 711.266" width="477.974px" height="711.266px" xmlns="http://www.w3.org/2000/svg">
  <g id="layer1" transform="matrix(1, 0, 0, 1, 0, -339.062195)">
    <g id="g3048" transform="matrix(1.0174609,0,0,1.0174609,-30.353904,470.92496)">
      <path id="path3669" style="fill:#ffcc33;fill-opacity:1;fill-rule:evenodd;stroke:#000000;stroke-width:1.99081528;stroke-linecap:butt;stroke-linejoin:miter;stroke-miterlimit:4;stroke-opacity:1;stroke-dasharray:none" d="m 56.92021,-128.59638 420.01304,0 c 10.81602,0.78342 23.07234,11.735 23.66692,24.63643 l 0,649.78711 c 0,11.61435 -9.93977,24.63644 -25.16484,24.63644 l -419.413865,0 c -13.939126,0 -24.86525,-11.9913 -24.86525,-24.93327 L 30.8284,-103.89487 c 0,-14.05686 11.732534,-24.70151 26.09181,-24.70151 z"/>
      <path id="path2774" style="fill:#ffcc33;fill-opacity:1;fill-rule:evenodd;stroke:#000000;stroke-width:13;stroke-linecap:butt;stroke-linejoin:miter;stroke-miterlimit:4;stroke-opacity:1;stroke-dasharray:none" d="m 419.7112,-116.20334 -309.35547,0 -49.624534,0.0309 c -11.775334,-0.50833 -18.496293,7.42305 -18.05382,20.114426 l 0,634.622474 c 0.04661,8.55634 3.732838,18.82657 15.707135,19.03464 l 414.956239,0.52447 c 11.97429,-0.20811 15.69182,-10.4783 15.73842,-19.03466 l 0,-635.208624 c 0.44246,-12.691376 -6.27848,-20.622766 -18.05382,-20.114426 l -51.31415,0.0309 z"/>
      <path d="M 447.368 -38.895 L 431.641 -38.895 L 431.641 -44.434 L 444.152 -44.434 L 440.364 -71.431 L 438.709 -72.227 C 438.709 -73.67 438.841 -75.034 439.106 -76.318 C 439.371 -77.602 439.812 -78.86 440.428 -80.091 L 440.969 -79.9 C 440.99 -79.284 441.123 -78.759 441.367 -78.324 C 441.611 -77.889 442.093 -77.522 442.815 -77.225 L 446.508 -75.665 C 446.508 -74.54 446.375 -73.437 446.11 -72.354 C 445.844 -71.272 445.584 -70.349 445.33 -69.585 L 443.611 -70.094 L 447.368 -45.135 L 447.368 -38.895 Z M 432.088 -39.213 L 429.859 -38.895 L 416.361 -38.895 L 416.361 -44.434 L 428.872 -44.434 L 424.288 -76.111 L 426.453 -80.186 L 426.994 -80.186 L 432.088 -45.135 L 432.088 -39.213 Z M 423.467 -39.213 L 421.238 -38.895 L 385.805 -38.895 C 384.595 -38.895 383.597 -39.224 382.812 -39.882 C 382.026 -40.54 381.422 -41.389 380.998 -42.429 C 379.024 -40.073 376.095 -38.895 372.211 -38.895 L 366.066 -38.895 L 366.066 -44.434 L 372.211 -44.434 C 373.781 -44.434 375.071 -44.593 376.079 -44.912 C 377.087 -45.23 377.909 -45.665 378.546 -46.217 C 380.095 -47.596 381.071 -49.931 381.475 -53.221 L 383.29 -52.871 C 383.184 -52.001 383.104 -51.216 383.051 -50.515 C 382.997 -49.814 382.971 -49.167 382.971 -48.573 C 382.971 -47.151 383.215 -46.106 383.704 -45.437 C 384.192 -44.768 385.136 -44.434 386.537 -44.434 C 388.256 -44.434 390.347 -44.837 392.809 -45.644 C 394.082 -46.069 395.276 -46.557 396.39 -47.109 C 397.504 -47.66 398.539 -48.276 399.494 -48.955 C 401.489 -50.356 403.145 -51.491 404.461 -52.361 C 405.776 -53.232 406.773 -53.847 407.453 -54.208 C 409.745 -55.397 412.228 -55.991 414.903 -55.991 C 420.612 -55.991 423.467 -52.977 423.467 -46.949 L 423.467 -39.213 Z M 418.277 -46.886 C 418.277 -47.926 417.587 -48.754 416.208 -49.369 C 414.913 -49.921 413.449 -50.197 411.815 -50.197 C 410.732 -50.197 409.559 -50.032 408.297 -49.703 C 407.034 -49.374 405.638 -48.828 404.11 -48.064 L 397.234 -44.562 L 397.234 -44.434 L 411.624 -44.434 C 416.059 -44.434 418.277 -45.251 418.277 -46.886 Z M 367.978 -39.213 L 365.749 -38.895 C 364.284 -38.895 363.111 -39.426 362.231 -40.487 C 361.35 -41.548 360.697 -43.139 360.273 -45.262 C 359.763 -47.894 359.381 -51.842 359.127 -57.105 C 358.872 -62.538 358.617 -65.977 358.363 -67.42 C 357.917 -69.903 356.973 -71.824 355.53 -73.182 L 359.286 -79.104 L 359.509 -79.104 C 360.57 -75.665 361.249 -70.858 361.547 -64.682 L 362.183 -50.292 C 362.374 -48.339 362.841 -46.832 363.584 -45.771 C 364.178 -44.88 364.815 -44.434 365.494 -44.434 L 367.978 -44.434 L 367.978 -39.213 Z M 351.233 -38.895 L 335.506 -38.895 L 335.506 -44.434 L 348.017 -44.434 L 344.229 -71.431 L 342.574 -72.227 C 342.574 -73.67 342.706 -75.034 342.971 -76.318 C 343.236 -77.602 343.677 -78.86 344.293 -80.091 L 344.834 -79.9 C 344.855 -79.284 344.988 -78.759 345.232 -78.324 C 345.476 -77.889 345.958 -77.522 346.68 -77.225 L 350.373 -75.665 C 350.373 -74.54 350.24 -73.437 349.975 -72.354 C 349.709 -71.272 349.449 -70.349 349.195 -69.585 L 347.476 -70.094 L 351.233 -45.135 L 351.233 -38.895 Z M 336.501 -40.932 C 336.501 -40.105 336.432 -39.213 336.294 -38.258 C 336.156 -37.303 335.922 -36.326 335.593 -35.329 C 335.264 -34.332 334.834 -33.34 334.304 -32.353 C 333.773 -31.366 333.115 -30.437 332.33 -29.567 C 330.504 -27.53 328.674 -26.033 326.838 -25.078 C 325.002 -24.123 323.066 -23.645 321.028 -23.645 C 319.967 -23.645 318.826 -23.757 317.606 -23.98 C 316.385 -24.203 315.074 -24.558 313.674 -25.046 L 306.83 -27.498 L 307.371 -28.771 C 309.535 -28.283 311.366 -27.917 312.862 -27.673 C 314.358 -27.429 315.361 -27.307 315.871 -27.307 C 317.759 -27.307 319.6 -27.593 321.394 -28.166 C 323.188 -28.739 325.008 -29.716 326.854 -31.095 C 327.448 -31.541 328.101 -32.077 328.812 -32.703 C 329.523 -33.329 330.202 -33.992 330.85 -34.692 C 331.497 -35.393 332.081 -36.104 332.601 -36.825 C 333.121 -37.547 333.497 -38.237 333.731 -38.895 C 332.117 -38.895 330.69 -38.959 329.449 -39.086 C 328.207 -39.213 327.167 -39.505 326.329 -39.961 C 325.49 -40.418 324.859 -41.092 324.435 -41.983 C 324.01 -42.874 323.798 -44.105 323.798 -45.676 C 323.798 -46.164 323.861 -46.753 323.989 -47.443 C 324.116 -48.132 324.307 -48.849 324.562 -49.592 C 324.816 -50.335 325.124 -51.072 325.485 -51.804 C 325.846 -52.537 326.271 -53.189 326.759 -53.762 C 327.247 -54.335 327.783 -54.802 328.367 -55.163 C 328.95 -55.524 329.592 -55.704 330.293 -55.704 C 331.141 -55.704 331.942 -55.492 332.696 -55.067 C 333.449 -54.643 334.107 -53.996 334.67 -53.125 C 335.232 -52.255 335.678 -51.136 336.007 -49.767 C 336.336 -48.398 336.501 -46.779 336.501 -44.912 L 336.501 -40.932 Z M 333.89 -44.466 C 333.635 -45.506 333.338 -46.387 332.999 -47.109 C 332.659 -47.83 332.287 -48.419 331.884 -48.875 C 331.481 -49.332 331.057 -49.666 330.611 -49.878 C 330.165 -50.091 329.73 -50.197 329.306 -50.197 C 328.626 -50.197 328.037 -49.963 327.539 -49.496 C 327.04 -49.029 326.791 -48.478 326.791 -47.841 C 326.791 -46.61 327.358 -45.739 328.494 -45.23 C 329.629 -44.721 331.428 -44.466 333.89 -44.466 Z M 307.338 -38.895 C 307.338 -36.603 306.966 -34.709 306.224 -33.212 C 305.48 -31.716 304.462 -30.437 303.168 -29.376 C 302.403 -28.739 301.533 -28.15 300.557 -27.609 C 299.581 -27.068 298.488 -26.59 297.278 -26.176 C 296.068 -25.763 294.746 -25.439 293.314 -25.205 C 291.881 -24.972 290.337 -24.855 288.682 -24.855 C 279.725 -24.855 275.247 -28.102 275.247 -34.597 C 275.247 -38.884 276.881 -44.371 280.15 -51.056 L 281.424 -50.483 C 278.982 -45.474 277.762 -41.452 277.762 -38.417 C 277.762 -33.048 281.38 -30.363 288.618 -30.363 C 292.693 -30.363 296.259 -31.074 299.315 -32.496 C 303.135 -34.236 305.046 -36.698 305.046 -39.882 C 305.046 -44.084 303.942 -47.543 301.735 -50.26 L 304.282 -56.596 L 304.505 -56.596 C 306.393 -53.561 307.338 -49.507 307.338 -44.434 L 307.338 -38.895 Z M 295.559 -63.44 L 293.107 -58.792 L 287.982 -61.53 L 290.338 -66.178 L 295.559 -63.44 Z M 248.742 -47.013 C 248.742 -44.551 247.744 -41.558 245.75 -38.035 L 245.177 -38.354 C 245.261 -39.203 245.325 -39.94 245.368 -40.566 C 245.41 -41.192 245.431 -41.707 245.431 -42.11 C 245.431 -44.954 245.176 -48.976 244.667 -54.176 C 244.157 -59.376 243.404 -65.743 242.407 -73.278 C 242.767 -74.105 243.186 -74.997 243.664 -75.952 C 244.142 -76.907 244.656 -77.925 245.208 -79.008 L 245.431 -79.008 C 246.535 -71.325 247.362 -64.831 247.914 -59.525 C 248.466 -54.219 248.742 -50.048 248.742 -47.013 Z M 236.455 -38.895 L 220.728 -38.895 L 220.728 -44.434 L 233.239 -44.434 L 229.451 -71.431 L 227.795 -72.227 C 227.795 -73.67 227.927 -75.034 228.193 -76.318 C 228.458 -77.602 228.898 -78.86 229.514 -80.091 L 230.056 -79.9 C 230.076 -79.284 230.209 -78.759 230.453 -78.324 C 230.697 -77.889 231.18 -77.522 231.902 -77.225 L 235.595 -75.665 C 235.595 -74.54 235.462 -73.437 235.197 -72.354 C 234.931 -71.272 234.671 -70.349 234.417 -69.585 L 232.698 -70.094 L 236.455 -45.135 L 236.455 -38.895 Z M 225.151 -39.213 L 222.923 -38.895 L 220.472 -38.895 C 219.028 -38.895 217.617 -39.224 216.237 -39.882 C 214.581 -40.667 213.361 -41.76 212.576 -43.161 C 209.35 -40.317 205.19 -38.895 200.097 -38.895 L 197.231 -38.895 L 197.231 -44.434 L 200.097 -44.434 C 203.811 -44.434 207.175 -45.336 210.189 -47.14 L 208.438 -49.273 C 208.225 -49.528 207.912 -49.724 207.498 -49.862 C 207.084 -50 206.708 -50.069 206.368 -50.069 C 205.646 -50.069 205.031 -49.698 204.522 -48.955 L 203.758 -49.178 L 204.108 -50.833 C 204.341 -51.937 204.696 -52.908 205.174 -53.746 C 205.652 -54.585 206.198 -55.216 206.814 -55.641 C 207.366 -56.044 208.045 -56.367 208.851 -56.612 C 209.657 -56.856 210.644 -56.978 211.812 -56.978 C 214.698 -56.978 216.821 -56.553 218.179 -55.704 C 219.537 -54.855 220.217 -53.635 220.217 -52.043 C 220.217 -51.3 219.893 -50.446 219.246 -49.48 C 218.598 -48.515 217.542 -47.427 216.078 -46.217 C 216.418 -45.708 217.108 -45.273 218.148 -44.912 C 219.039 -44.593 219.814 -44.434 220.472 -44.434 L 225.151 -44.434 L 225.151 -39.213 Z M 198.092 -39.213 L 195.864 -38.895 L 194.781 -38.895 C 191.151 -38.895 187.734 -40.232 184.53 -42.906 C 183.341 -41.441 182.11 -40.412 180.837 -39.818 C 179.436 -39.203 177.537 -38.895 175.139 -38.895 L 170.172 -38.895 L 170.172 -44.434 L 175.043 -44.434 C 178.46 -44.434 181.24 -45.994 183.384 -49.114 C 184.657 -50.982 186.259 -52.616 188.191 -54.017 C 189.847 -55.206 191.396 -55.98 192.839 -56.341 C 196.341 -51.014 198.092 -47.045 198.092 -44.434 L 198.092 -39.213 Z M 194.431 -45.167 C 193.964 -47.416 192.892 -49.655 191.216 -51.884 C 189.624 -51.459 188.212 -50.228 186.982 -48.191 C 188.828 -46.238 191.215 -45.092 194.145 -44.753 L 194.431 -45.167 Z M 175.774 -40.932 C 175.774 -40.105 175.705 -39.213 175.567 -38.258 C 175.429 -37.303 175.195 -36.326 174.867 -35.329 C 174.537 -34.332 174.107 -33.34 173.577 -32.353 C 173.046 -31.366 172.388 -30.437 171.603 -29.567 C 169.778 -27.53 167.948 -26.033 166.112 -25.078 C 164.276 -24.123 162.339 -23.645 160.302 -23.645 C 159.24 -23.645 158.099 -23.757 156.879 -23.98 C 155.659 -24.203 154.348 -24.558 152.948 -25.046 L 146.103 -27.498 L 146.644 -28.771 C 148.808 -28.283 150.639 -27.917 152.136 -27.673 C 153.632 -27.429 154.634 -27.307 155.144 -27.307 C 157.033 -27.307 158.874 -27.593 160.668 -28.166 C 162.461 -28.739 164.281 -29.716 166.128 -31.095 C 166.722 -31.541 167.374 -32.077 168.086 -32.703 C 168.796 -33.329 169.475 -33.992 170.123 -34.692 C 170.77 -35.393 171.354 -36.104 171.874 -36.825 C 172.394 -37.547 172.77 -38.237 173.004 -38.895 C 171.391 -38.895 169.964 -38.959 168.722 -39.086 C 167.48 -39.213 166.44 -39.505 165.602 -39.961 C 164.764 -40.418 164.132 -41.092 163.708 -41.983 C 163.283 -42.874 163.071 -44.105 163.071 -45.676 C 163.071 -46.164 163.134 -46.753 163.262 -47.443 C 163.389 -48.132 163.58 -48.849 163.835 -49.592 C 164.09 -50.335 164.398 -51.072 164.759 -51.804 C 165.119 -52.537 165.544 -53.189 166.032 -53.762 C 166.52 -54.335 167.056 -54.802 167.64 -55.163 C 168.223 -55.524 168.865 -55.704 169.566 -55.704 C 170.414 -55.704 171.216 -55.492 171.97 -55.067 C 172.723 -54.643 173.381 -53.996 173.943 -53.125 C 174.505 -52.255 174.951 -51.136 175.281 -49.767 C 175.609 -48.398 175.774 -46.779 175.774 -44.912 L 175.774 -40.932 Z M 173.163 -44.466 C 172.908 -45.506 172.611 -46.387 172.272 -47.109 C 171.932 -47.83 171.561 -48.419 171.158 -48.875 C 170.754 -49.332 170.33 -49.666 169.884 -49.878 C 169.438 -50.091 169.003 -50.197 168.579 -50.197 C 167.899 -50.197 167.31 -49.963 166.812 -49.496 C 166.313 -49.029 166.064 -48.478 166.064 -47.841 C 166.064 -46.61 166.631 -45.739 167.767 -45.23 C 168.902 -44.721 170.701 -44.466 173.163 -44.466 Z M 146.247 -38.895 L 142.936 -38.895 C 139.328 -38.895 135.911 -40.232 132.685 -42.906 C 131.475 -41.421 130.244 -40.391 128.992 -39.818 C 127.633 -39.203 125.733 -38.895 123.293 -38.895 L 118.327 -38.895 L 118.327 -44.434 L 123.198 -44.434 C 126.614 -44.434 129.395 -45.994 131.539 -49.114 C 132.812 -50.982 134.414 -52.606 136.346 -53.985 C 138.044 -55.216 139.593 -56.002 140.994 -56.341 C 144.496 -51.035 146.247 -47.066 146.247 -44.434 L 146.247 -38.895 Z M 142.586 -45.167 C 142.098 -47.459 141.026 -49.698 139.37 -51.884 C 137.8 -51.481 136.388 -50.25 135.136 -48.191 C 136.982 -46.238 139.37 -45.092 142.299 -44.753 L 142.586 -45.167 Z M 121.278 -39.213 L 119.049 -38.895 L 115.706 -38.895 C 109.148 -38.895 105.869 -38.152 105.869 -36.666 C 105.869 -36.051 106.856 -35.701 108.83 -35.616 C 109.36 -35.595 110.077 -35.547 110.979 -35.472 C 111.881 -35.398 112.968 -35.308 114.242 -35.202 C 116.258 -34.969 117.266 -34.258 117.266 -33.069 C 117.266 -29.079 115.95 -26.182 113.319 -24.378 C 110.475 -22.425 105.784 -21.449 99.247 -21.449 C 94.683 -21.449 91.054 -22.224 88.359 -23.773 C 85.493 -25.428 84.061 -27.784 84.061 -30.84 C 84.061 -33.323 84.74 -35.934 86.099 -38.672 C 86.375 -39.224 86.831 -40.031 87.468 -41.092 C 88.104 -42.153 88.932 -43.479 89.951 -45.071 L 91.225 -44.434 L 88.805 -40.327 C 87.616 -38.014 87.022 -36.104 87.022 -34.597 C 87.022 -32.008 88.38 -30.023 91.097 -28.644 C 93.665 -27.349 97.22 -26.702 101.762 -26.702 C 104.691 -26.702 107.376 -26.946 109.817 -27.434 C 112.639 -28.007 114.051 -28.781 114.051 -29.758 C 114.051 -30.352 113.361 -30.713 111.982 -30.84 L 106.888 -31.159 C 104.404 -31.308 103.163 -32.008 103.163 -33.26 C 103.163 -37.207 104.829 -40.2 108.161 -42.238 C 110.538 -43.702 113.053 -44.434 115.706 -44.434 L 121.278 -44.434 L 121.278 -39.213 Z M 109.053 -16.769 L 106.569 -12.184 L 101.539 -14.859 L 99.82 -11.611 L 94.663 -14.286 L 97.019 -18.902 L 102.112 -16.291 L 103.8 -19.475 L 109.053 -16.769 Z" style="white-space: pre;"/>
      <path d="M 192.237 12.197 L 241.857 12.197 L 241.857 25.242 L 225.209 25.242 L 225.209 65.025 L 208.885 65.025 L 208.885 25.242 L 192.237 25.242 L 192.237 12.197 Z M 268.043 56.304 L 249.448 56.304 L 246.89 65.025 L 230.206 65.025 L 250.061 12.197 L 267.862 12.197 L 287.718 65.025 L 270.637 65.025 L 268.043 56.304 Z M 264.619 44.881 L 258.782 25.891 L 252.98 44.881 L 264.619 44.881 Z M 285.188 12.197 L 303.17 12.197 L 312.539 28.449 L 321.62 12.197 L 339.421 12.197 L 322.989 37.782 L 340.971 65.025 L 322.629 65.025 L 312.215 48.052 L 301.764 65.025 L 283.531 65.025 L 301.764 37.494 L 285.188 12.197 Z M 338.696 12.197 L 355.056 12.197 L 355.056 65.025 L 338.696 65.025 L 338.696 12.197 Z" style="white-space: pre;"/>
      <path style="line-height: 83.3447px; white-space: pre;" transform="matrix(1.094015, 0, 0, 1.094015, -60.121132, -24.040997)"/>
      <g id="g-1" transform="matrix(2.074034, 0, 0, 2.074034, 239.636063, 239.031525)" style="">
        <path id="circle4853" transform="matrix(0.17273859,0,0,0.17273859,73.158541,-109.65662)" style="fill:#b40a00;fill-opacity:1;stroke:none;stroke-width:3.06339574;stroke-linecap:round;stroke-linejoin:round;stroke-miterlimit:4;stroke-dasharray:none;stroke-opacity:1" d="m -350.73047,286.61328 c -188.71025,-9.1e-4 -341.69036,152.9792 -341.68945,341.68945 1.7e-4,188.70949 152.97996,341.68841 341.68945,341.6875 C -162.02174,969.99006 -9.0431345,817.01146 -9.0429688,628.30273 -9.0420575,439.59324 -162.02098,286.61345 -350.73047,286.61328 Z"/>
        <path id="circle4853-2" transform="matrix(0.17273859,0,0,0.17273859,73.158541,-109.65662)" style="fill:#0013a5;fill-opacity:1;stroke:none;stroke-width:3.06339598;stroke-linecap:round;stroke-linejoin:round;stroke-miterlimit:4;stroke-dasharray:none;stroke-opacity:1" d="m -348.48047,352.99609 c -152.85554,1.1e-4 -276.76942,123.91399 -276.76953,276.76953 10e-5,152.85555 123.91398,276.76943 276.76953,276.76954 152.85555,-1.1e-4 276.769427,-123.91399 276.769532,-276.76954 C -71.711048,476.91007 -195.62492,352.9962 -348.48047,352.99609 Z"/>
      </g>
      <path id="rect825" style="fill: rgb(180, 10, 0); fill-opacity: 1;" d="M 172.996 170.895 L 330.861 328.787 L 351.518 308.749 L 193.957 149.64 L 172.996 170.895 Z"/>
      <path d="M 210.945 -96.645 L 212.437 -96.645 L 212.437 -95.613 L 210.945 -95.613 L 210.945 -90.841 C 210.945 -90.549 210.971 -90.331 211.023 -90.188 C 211.075 -90.044 211.153 -89.949 211.257 -89.902 C 211.361 -89.855 211.504 -89.831 211.687 -89.831 C 211.865 -89.831 212.115 -89.863 212.437 -89.928 L 212.615 -88.815 C 212.234 -88.726 211.85 -88.681 211.465 -88.681 C 210.985 -88.681 210.615 -88.751 210.355 -88.892 C 210.095 -89.033 209.903 -89.243 209.78 -89.52 C 209.666 -89.787 209.609 -90.269 209.609 -90.967 L 209.609 -95.613 L 208.481 -95.613 L 208.481 -96.645 L 209.609 -96.645 L 209.609 -98.456 L 210.945 -99.413 L 210.945 -96.645 Z M 216.982 -89.683 C 217.487 -89.683 217.923 -89.831 218.292 -90.128 C 218.661 -90.425 218.917 -90.819 219.06 -91.308 L 220.366 -91.108 C 220.143 -90.311 219.726 -89.692 219.115 -89.249 C 218.504 -88.806 217.771 -88.584 216.915 -88.584 C 216.163 -88.584 215.509 -88.75 214.952 -89.082 C 214.395 -89.413 213.966 -89.885 213.664 -90.496 C 213.362 -91.107 213.211 -91.823 213.211 -92.644 C 213.211 -93.49 213.36 -94.227 213.657 -94.856 C 213.954 -95.485 214.38 -95.97 214.937 -96.311 C 215.494 -96.652 216.148 -96.823 216.9 -96.823 C 217.627 -96.823 218.261 -96.661 218.8 -96.337 C 219.339 -96.012 219.755 -95.536 220.047 -94.908 C 220.339 -94.279 220.485 -93.525 220.485 -92.644 L 220.485 -92.37 L 214.592 -92.37 C 214.621 -91.806 214.738 -91.322 214.941 -90.919 C 215.144 -90.516 215.419 -90.209 215.768 -89.998 C 216.117 -89.788 216.521 -89.683 216.982 -89.683 Z M 216.885 -95.732 C 216.489 -95.732 216.133 -95.638 215.816 -95.45 C 215.499 -95.262 215.238 -94.997 215.033 -94.656 C 214.828 -94.314 214.695 -93.918 214.636 -93.468 L 219.075 -93.468 C 218.996 -94.195 218.767 -94.754 218.388 -95.145 C 218.009 -95.536 217.508 -95.732 216.885 -95.732 Z M 221.535 -92.704 C 221.535 -93.56 221.688 -94.297 221.995 -94.915 C 222.302 -95.534 222.733 -96.006 223.29 -96.333 C 223.847 -96.66 224.491 -96.823 225.224 -96.823 C 225.961 -96.823 226.606 -96.665 227.161 -96.348 C 227.715 -96.031 228.147 -95.565 228.456 -94.949 C 228.765 -94.333 228.92 -93.589 228.92 -92.718 C 228.92 -91.853 228.764 -91.109 228.452 -90.488 C 228.14 -89.867 227.706 -89.395 227.15 -89.071 C 226.593 -88.746 225.951 -88.584 225.224 -88.584 C 224.501 -88.584 223.863 -88.741 223.309 -89.056 C 222.754 -89.37 222.32 -89.836 222.006 -90.455 C 221.692 -91.073 221.535 -91.823 221.535 -92.704 Z M 225.216 -95.724 C 224.771 -95.724 224.374 -95.609 224.025 -95.379 C 223.676 -95.149 223.402 -94.808 223.201 -94.355 C 223 -93.902 222.9 -93.352 222.9 -92.704 C 222.9 -92.055 222.999 -91.505 223.197 -91.052 C 223.395 -90.599 223.668 -90.258 224.017 -90.028 C 224.366 -89.798 224.769 -89.683 225.224 -89.683 C 225.694 -89.683 226.105 -89.802 226.456 -90.039 C 226.807 -90.276 227.078 -90.623 227.268 -91.078 C 227.459 -91.533 227.554 -92.08 227.554 -92.718 C 227.554 -93.361 227.455 -93.908 227.257 -94.359 C 227.059 -94.809 226.784 -95.149 226.433 -95.379 C 226.082 -95.609 225.676 -95.724 225.216 -95.724 Z M 233.581 -95.457 C 233.012 -95.457 232.578 -95.238 232.279 -94.8 C 231.98 -94.362 231.83 -93.752 231.83 -92.971 L 231.83 -88.77 L 230.494 -88.77 L 230.494 -96.645 L 231.741 -96.645 L 231.741 -95.457 C 232.033 -95.952 232.33 -96.303 232.631 -96.511 C 232.933 -96.719 233.297 -96.823 233.722 -96.823 C 233.96 -96.823 234.182 -96.794 234.387 -96.737 C 234.592 -96.68 234.801 -96.588 235.014 -96.459 L 234.554 -95.227 C 234.267 -95.38 233.942 -95.457 233.581 -95.457 Z M 237.312 -98.136 L 235.976 -98.136 L 235.976 -99.65 L 237.312 -99.65 L 237.312 -98.136 Z M 237.312 -88.77 L 235.976 -88.77 L 235.976 -96.645 L 237.312 -96.645 L 237.312 -88.77 Z M 245.708 -88.77 L 244.313 -88.77 C 244.234 -88.938 244.179 -89.074 244.15 -89.178 C 244.12 -89.282 244.083 -89.47 244.039 -89.742 C 243.658 -89.337 243.254 -89.042 242.829 -88.859 C 242.404 -88.676 241.916 -88.584 241.367 -88.584 C 240.872 -88.584 240.436 -88.679 240.057 -88.87 C 239.678 -89.061 239.386 -89.328 239.181 -89.672 C 238.976 -90.016 238.873 -90.411 238.873 -90.856 C 238.873 -91.533 239.093 -92.073 239.533 -92.474 C 239.974 -92.875 240.699 -93.152 241.708 -93.305 C 242.757 -93.463 243.505 -93.614 243.95 -93.757 L 243.95 -93.965 C 243.95 -94.406 243.893 -94.753 243.779 -95.008 C 243.665 -95.263 243.483 -95.447 243.233 -95.561 C 242.983 -95.675 242.645 -95.732 242.22 -95.732 C 241.686 -95.732 241.264 -95.611 240.955 -95.368 C 240.646 -95.125 240.441 -94.744 240.342 -94.225 L 239.036 -94.425 C 239.195 -95.222 239.55 -95.821 240.101 -96.222 C 240.653 -96.623 241.384 -96.823 242.294 -96.823 C 242.992 -96.823 243.559 -96.735 243.994 -96.559 C 244.429 -96.384 244.753 -96.097 244.966 -95.698 C 245.179 -95.3 245.285 -94.764 245.285 -94.091 L 245.285 -91.264 C 245.285 -90.774 245.296 -90.395 245.319 -90.128 C 245.341 -89.861 245.381 -89.631 245.438 -89.438 C 245.495 -89.245 245.585 -89.023 245.708 -88.77 Z M 241.767 -92.184 C 241.238 -92.09 240.851 -91.934 240.606 -91.716 C 240.361 -91.499 240.239 -91.212 240.239 -90.856 C 240.239 -90.475 240.361 -90.176 240.606 -89.961 C 240.851 -89.746 241.203 -89.638 241.664 -89.638 C 242.049 -89.638 242.452 -89.762 242.873 -90.009 C 243.165 -90.182 243.387 -90.369 243.538 -90.57 C 243.689 -90.77 243.795 -91.014 243.857 -91.301 C 243.919 -91.588 243.95 -91.961 243.95 -92.422 L 243.95 -92.704 C 243.831 -92.649 243.562 -92.573 243.144 -92.474 C 242.726 -92.375 242.267 -92.278 241.767 -92.184 Z M 249.017 -88.77 L 247.339 -88.77 L 247.339 -90.44 L 249.017 -90.44 L 249.017 -88.77 Z M 252.491 -89.668 L 252.454 -89.668 L 252.454 -85.757 L 251.118 -85.757 L 251.118 -96.645 L 252.365 -96.645 L 252.365 -95.643 L 252.395 -95.643 C 252.667 -96.024 253 -96.315 253.393 -96.518 C 253.786 -96.721 254.235 -96.823 254.74 -96.823 C 255.448 -96.823 256.067 -96.655 256.596 -96.318 C 257.125 -95.981 257.533 -95.503 257.82 -94.882 C 258.107 -94.261 258.251 -93.535 258.251 -92.704 C 258.251 -91.883 258.11 -91.161 257.828 -90.54 C 257.546 -89.919 257.148 -89.438 256.633 -89.097 C 256.118 -88.755 255.522 -88.584 254.844 -88.584 C 253.859 -88.584 253.075 -88.945 252.491 -89.668 Z M 254.621 -95.732 C 254.166 -95.732 253.768 -95.606 253.427 -95.353 C 253.085 -95.101 252.823 -94.755 252.64 -94.314 C 252.457 -93.874 252.365 -93.377 252.365 -92.822 C 252.365 -92.169 252.46 -91.608 252.651 -91.138 C 252.842 -90.667 253.111 -90.307 253.46 -90.058 C 253.809 -89.808 254.218 -89.683 254.688 -89.683 C 255.148 -89.683 255.543 -89.812 255.872 -90.069 C 256.201 -90.326 256.451 -90.683 256.622 -91.138 C 256.793 -91.593 256.878 -92.117 256.878 -92.711 C 256.878 -93.34 256.784 -93.881 256.596 -94.336 C 256.408 -94.791 256.144 -95.138 255.805 -95.375 C 255.466 -95.613 255.072 -95.732 254.621 -95.732 Z M 267.929 -96.823 C 268.77 -96.823 269.409 -96.603 269.844 -96.162 C 270.279 -95.722 270.497 -95.079 270.497 -94.232 L 270.497 -88.77 L 269.161 -88.77 L 269.161 -93.824 C 269.161 -94.492 269.042 -94.967 268.805 -95.249 C 268.568 -95.531 268.204 -95.672 267.714 -95.672 C 267.358 -95.672 267.036 -95.583 266.749 -95.405 C 266.462 -95.227 266.235 -94.95 266.067 -94.574 C 265.898 -94.198 265.814 -93.728 265.814 -93.164 L 265.814 -88.77 L 264.478 -88.77 L 264.478 -93.943 C 264.478 -94.532 264.357 -94.967 264.115 -95.249 C 263.872 -95.531 263.511 -95.672 263.031 -95.672 C 262.684 -95.672 262.368 -95.588 262.081 -95.42 C 261.794 -95.252 261.564 -94.981 261.391 -94.607 C 261.218 -94.234 261.131 -93.753 261.131 -93.164 L 261.131 -88.77 L 259.795 -88.77 L 259.795 -96.645 L 261.042 -96.645 L 261.042 -95.546 C 261.596 -96.397 262.333 -96.823 263.254 -96.823 C 263.882 -96.823 264.389 -96.708 264.775 -96.478 C 265.161 -96.247 265.443 -95.902 265.621 -95.442 C 265.948 -95.957 266.292 -96.315 266.653 -96.518 C 267.014 -96.721 267.44 -96.823 267.929 -96.823 Z M 273.862 -98.136 L 272.526 -98.136 L 272.526 -99.65 L 273.862 -99.65 L 273.862 -98.136 Z M 273.862 -88.77 L 272.526 -88.77 L 272.526 -96.645 L 273.862 -96.645 L 273.862 -88.77 Z M 278.028 -94.863 C 278.271 -94.497 278.476 -94.153 278.644 -93.832 C 278.822 -94.149 279.02 -94.468 279.238 -94.789 L 280.485 -96.645 L 282.036 -96.645 L 279.416 -92.874 L 282.244 -88.77 L 280.633 -88.77 L 279.334 -90.722 C 279.112 -91.059 278.877 -91.447 278.629 -91.887 C 278.436 -91.566 278.261 -91.284 278.102 -91.041 L 276.574 -88.77 L 275.008 -88.77 L 277.85 -92.845 L 275.238 -96.645 L 276.848 -96.645 L 278.028 -94.863 Z M 285.09 -88.77 L 283.413 -88.77 L 283.413 -90.44 L 285.09 -90.44 L 285.09 -88.77 Z M 292.261 -88.77 L 292.261 -93.921 C 292.261 -94.495 292.117 -94.93 291.83 -95.227 C 291.543 -95.524 291.138 -95.672 290.613 -95.672 C 289.95 -95.672 289.434 -95.472 289.065 -95.071 C 288.697 -94.67 288.513 -94.032 288.513 -93.156 L 288.513 -88.77 L 287.177 -88.77 L 287.177 -96.645 L 288.423 -96.645 L 288.423 -95.546 C 288.686 -95.942 289.026 -96.254 289.444 -96.481 C 289.862 -96.709 290.326 -96.823 290.836 -96.823 C 291.746 -96.823 292.434 -96.588 292.899 -96.118 C 293.364 -95.648 293.597 -94.975 293.597 -94.099 L 293.597 -88.77 L 292.261 -88.77 Z M 298.896 -89.683 C 299.401 -89.683 299.837 -89.831 300.206 -90.128 C 300.575 -90.425 300.831 -90.819 300.974 -91.308 L 302.28 -91.108 C 302.057 -90.311 301.641 -89.692 301.03 -89.249 C 300.419 -88.806 299.685 -88.584 298.829 -88.584 C 298.077 -88.584 297.423 -88.75 296.866 -89.082 C 296.309 -89.413 295.88 -89.885 295.578 -90.496 C 295.277 -91.107 295.126 -91.823 295.126 -92.644 C 295.126 -93.49 295.274 -94.227 295.571 -94.856 C 295.868 -95.485 296.294 -95.97 296.851 -96.311 C 297.408 -96.652 298.062 -96.823 298.814 -96.823 C 299.541 -96.823 300.175 -96.661 300.714 -96.337 C 301.253 -96.012 301.669 -95.536 301.961 -94.908 C 302.253 -94.279 302.399 -93.525 302.399 -92.644 L 302.399 -92.37 L 296.506 -92.37 C 296.536 -91.806 296.652 -91.322 296.855 -90.919 C 297.058 -90.516 297.334 -90.209 297.683 -89.998 C 298.032 -89.788 298.436 -89.683 298.896 -89.683 Z M 298.8 -95.732 C 298.404 -95.732 298.048 -95.638 297.731 -95.45 C 297.414 -95.262 297.153 -94.997 296.948 -94.656 C 296.743 -94.314 296.61 -93.918 296.551 -93.468 L 300.989 -93.468 C 300.91 -94.195 300.681 -94.754 300.302 -95.145 C 299.924 -95.536 299.423 -95.732 298.8 -95.732 Z M 305.345 -96.645 L 306.836 -96.645 L 306.836 -95.613 L 305.345 -95.613 L 305.345 -90.841 C 305.345 -90.549 305.371 -90.331 305.423 -90.188 C 305.474 -90.044 305.552 -89.949 305.656 -89.902 C 305.76 -89.855 305.904 -89.831 306.087 -89.831 C 306.265 -89.831 306.515 -89.863 306.836 -89.928 L 307.015 -88.815 C 306.634 -88.726 306.25 -88.681 305.864 -88.681 C 305.384 -88.681 305.014 -88.751 304.755 -88.892 C 304.495 -89.033 304.303 -89.243 304.179 -89.52 C 304.066 -89.787 304.009 -90.269 304.009 -90.967 L 304.009 -95.613 L 302.881 -95.613 L 302.881 -96.645 L 304.009 -96.645 L 304.009 -98.456 L 305.345 -99.413 L 305.345 -96.645 Z" style="fill: rgb(51, 51, 51); white-space: pre; mix-blend-mode: color-dodge; opacity: 0.32;"/>
      <path d="M 453.188 409.499 C 453.24 410.414 453.655 411.045 454.432 411.391 L 457.671 412.894 C 457.619 413.775 457.477 414.617 457.244 415.42 C 457.011 416.223 456.721 417.022 456.375 417.817 L 454.691 417.144 C 454.691 417.265 454.691 417.42 454.691 417.61 C 454.691 417.8 454.7 418.033 454.717 418.31 C 454.734 418.586 454.743 418.819 454.743 419.009 C 454.743 419.2 454.743 419.364 454.743 419.502 C 454.743 424.909 453.413 429.85 450.752 434.325 C 452.065 436.726 452.721 438.782 452.721 440.493 C 452.721 441.098 452.695 441.663 452.644 442.19 C 452.592 442.717 452.523 443.223 452.436 443.706 C 448.497 444.587 444.515 445.028 440.49 445.028 C 440.49 444.631 440.542 444.06 440.645 443.317 C 440.749 442.574 440.913 441.65 441.138 440.545 C 442.606 439.75 443.958 438.848 445.193 437.837 C 446.428 436.826 447.556 435.69 448.575 434.429 C 446.83 431.112 444.714 427.596 442.226 423.881 C 440.999 422.084 440.075 421.186 439.453 421.186 C 439.315 421.186 439.168 421.216 439.013 421.277 C 438.857 421.338 438.697 421.407 438.533 421.484 C 438.369 421.562 438.209 421.631 438.054 421.692 C 437.898 421.752 437.76 421.782 437.639 421.782 C 436.672 421.782 435.169 420.357 433.13 417.506 C 432.387 416.487 432.016 415.407 432.016 414.267 C 432.016 411.676 432.439 410.38 433.285 410.38 C 434.322 410.38 436.006 411.779 438.339 414.578 C 439.306 415.735 440.274 416.997 441.241 418.362 C 442.208 419.727 443.202 421.204 444.221 422.793 C 444.826 423.743 445.599 425.004 446.541 426.577 C 447.482 428.149 448.584 430.049 449.845 432.278 C 451.866 428.218 452.877 422.88 452.877 416.263 L 451.4 415.407 C 451.4 414.302 451.512 413.226 451.737 412.181 C 451.962 411.136 452.273 410.19 452.67 409.343 L 453.188 409.499 Z M 450.648 439.456 C 450.648 438.817 450.251 437.754 449.456 436.269 C 448.299 437.772 446.606 439.24 444.377 440.674 L 444.377 440.856 C 448.558 440.821 450.648 440.355 450.648 439.456 Z M 447.616 451.999 C 447.616 452.863 446.597 453.649 444.558 454.357 L 438.546 456.43 C 438.546 455.428 439.626 454.547 441.785 453.787 C 440.317 453.044 439.583 452.284 439.583 451.507 C 439.583 450.85 440.162 449.9 441.319 448.656 C 442.58 447.343 443.695 446.686 444.662 446.686 C 445.733 446.686 446.269 447.213 446.269 448.267 C 446.269 448.699 446.018 449.356 445.517 450.237 C 444.86 449.632 444.135 449.33 443.34 449.33 C 442.857 449.33 442.386 449.429 441.928 449.628 C 441.47 449.827 441.241 450.055 441.241 450.314 C 441.241 450.643 441.733 451.083 442.718 451.636 C 443.703 452.189 444.567 452.465 445.31 452.465 C 446.053 452.465 446.821 452.31 447.616 451.999 Z M 423.369 441.633 L 392.712 441.633 C 391.727 441.633 390.915 441.365 390.276 440.83 C 389.637 440.294 389.144 439.603 388.799 438.756 C 387.192 440.674 384.808 441.633 381.646 441.633 L 376.645 441.633 L 376.645 437.124 L 381.646 437.124 C 382.925 437.124 383.974 436.994 384.795 436.735 C 385.616 436.476 386.285 436.122 386.803 435.673 C 388.064 434.55 388.859 432.649 389.188 429.971 L 390.665 430.256 C 390.578 430.965 390.513 431.604 390.47 432.174 C 390.427 432.744 390.406 433.271 390.406 433.755 C 390.406 434.912 390.605 435.763 391.002 436.308 C 391.399 436.852 392.168 437.124 393.308 437.124 C 394.707 437.124 396.409 436.796 398.413 436.139 C 399.45 435.794 400.422 435.396 401.329 434.947 C 402.236 434.498 403.078 433.997 403.855 433.444 C 405.479 432.304 406.827 431.38 407.898 430.671 C 408.969 429.963 409.781 429.462 410.334 429.168 C 412.2 428.201 414.221 427.717 416.398 427.717 C 421.045 427.717 423.369 430.17 423.369 435.077 L 423.369 441.633 Z M 419.145 435.128 C 419.145 434.282 418.584 433.608 417.461 433.107 C 416.407 432.658 415.215 432.433 413.884 432.433 C 413.003 432.433 412.049 432.567 411.021 432.835 C 409.993 433.103 408.857 433.548 407.613 434.17 L 402.015 437.02 L 402.015 437.124 L 413.729 437.124 C 417.34 437.124 419.145 436.459 419.145 435.128 Z M 380.253 441.374 L 378.439 441.633 L 376.443 441.633 C 375.268 441.633 374.119 441.365 372.996 440.83 C 371.649 440.191 370.655 439.301 370.016 438.16 C 367.39 440.475 364.004 441.633 359.858 441.633 L 357.525 441.633 L 357.525 437.124 L 359.858 437.124 C 362.881 437.124 365.62 436.39 368.073 434.921 L 366.647 433.185 C 366.474 432.978 366.22 432.818 365.883 432.705 C 365.546 432.593 365.24 432.537 364.963 432.537 C 364.376 432.537 363.875 432.839 363.46 433.444 L 362.838 433.263 L 363.123 431.915 C 363.313 431.016 363.602 430.226 363.991 429.544 C 364.38 428.861 364.825 428.347 365.326 428.002 C 365.775 427.674 366.328 427.41 366.984 427.211 C 367.641 427.012 368.444 426.913 369.394 426.913 C 371.744 426.913 373.472 427.259 374.577 427.95 C 375.683 428.641 376.236 429.635 376.236 430.93 C 376.236 431.535 375.972 432.23 375.445 433.016 C 374.918 433.802 374.059 434.688 372.867 435.673 C 373.144 436.088 373.705 436.442 374.551 436.735 C 375.277 436.994 375.908 437.124 376.443 437.124 L 380.253 437.124 L 380.253 441.374 Z M 359.08 441.374 L 357.266 441.633 C 356.074 441.633 355.12 441.201 354.403 440.337 C 353.686 439.474 353.154 438.178 352.809 436.45 C 352.394 434.308 352.083 431.095 351.876 426.81 C 351.669 422.387 351.461 419.588 351.254 418.413 C 350.891 416.392 350.123 414.828 348.948 413.723 L 352.005 408.903 L 352.187 408.903 C 353.051 411.702 353.604 415.615 353.845 420.642 L 354.364 432.356 C 354.519 433.945 354.899 435.172 355.504 436.035 C 355.988 436.761 356.506 437.124 357.059 437.124 L 359.08 437.124 L 359.08 441.374 Z M 346.625 441.633 L 335.015 441.633 C 334.048 441.633 333.167 441.348 332.372 440.778 C 331.577 440.208 331.179 439.534 331.179 438.756 C 331.179 437.495 331.343 436.312 331.672 435.206 L 332.268 435.206 C 332.613 436.485 333.529 437.124 335.015 437.124 L 345.044 437.124 C 345.044 430.403 342.824 426.352 338.384 424.97 L 338.772 419.942 C 341.779 421.411 343.904 423.752 345.147 426.965 C 346.132 429.54 346.625 432.926 346.625 437.124 L 346.625 441.633 Z M 318.634 439.974 C 318.634 440.648 318.578 441.374 318.466 442.151 C 318.354 442.928 318.164 443.723 317.896 444.535 C 317.628 445.347 317.278 446.155 316.846 446.958 C 316.414 447.762 315.879 448.518 315.24 449.226 C 313.754 450.885 312.264 452.103 310.769 452.88 C 309.275 453.657 307.699 454.046 306.04 454.046 C 305.176 454.046 304.247 453.955 303.254 453.774 C 302.261 453.593 301.194 453.303 300.054 452.906 L 294.482 450.91 L 294.923 449.874 C 296.685 450.271 298.175 450.569 299.393 450.768 C 300.611 450.967 301.427 451.066 301.842 451.066 C 303.379 451.066 304.878 450.833 306.338 450.366 C 307.798 449.9 309.271 449.097 310.756 447.956 C 311.257 447.576 311.797 447.131 312.376 446.622 C 312.955 446.112 313.512 445.559 314.048 444.963 C 314.583 444.367 315.063 443.749 315.486 443.11 C 315.909 442.471 316.216 441.831 316.406 441.192 L 316.302 441.115 C 315.87 441.253 315.404 441.374 314.903 441.478 C 314.402 441.581 313.754 441.633 312.959 441.633 C 311.525 441.633 310.389 441.192 309.551 440.311 C 308.713 439.43 308.294 438.031 308.294 436.113 C 308.294 435.716 308.346 435.236 308.45 434.675 C 308.553 434.114 308.709 433.531 308.916 432.926 C 309.123 432.321 309.374 431.721 309.668 431.125 C 309.962 430.529 310.308 429.998 310.705 429.531 C 311.102 429.064 311.538 428.684 312.013 428.391 C 312.488 428.097 313.011 427.95 313.581 427.95 C 314.272 427.95 314.925 428.123 315.538 428.468 C 316.151 428.814 316.687 429.341 317.144 430.049 C 317.602 430.758 317.965 431.669 318.233 432.783 C 318.5 433.898 318.634 435.215 318.634 436.735 L 318.634 439.974 Z M 316.458 436.606 C 316.268 435.863 316.03 435.223 315.745 434.688 C 315.46 434.153 315.153 433.721 314.825 433.392 C 314.497 433.064 314.156 432.822 313.801 432.667 C 313.447 432.511 313.106 432.433 312.778 432.433 C 312.501 432.433 312.238 432.489 311.987 432.602 C 311.737 432.714 311.521 432.861 311.339 433.042 C 311.158 433.223 311.011 433.435 310.899 433.677 C 310.786 433.919 310.73 434.178 310.73 434.455 C 310.73 435.215 310.959 435.824 311.417 436.282 C 311.875 436.739 312.596 436.968 313.581 436.968 C 314.307 436.968 314.881 436.934 315.304 436.865 C 315.727 436.796 316.112 436.709 316.458 436.606 Z M 292.723 437.305 C 292.723 439.465 291.911 442.108 290.287 445.235 L 289.821 444.95 C 289.89 444.173 289.942 443.508 289.977 442.955 C 290.011 442.402 290.028 441.944 290.028 441.581 C 290.028 439.007 289.825 435.405 289.419 430.775 C 289.013 426.145 288.404 420.435 287.592 413.645 C 287.886 412.954 288.227 412.224 288.616 411.455 C 289.005 410.686 289.424 409.861 289.873 408.98 L 290.054 408.98 C 290.935 415.787 291.601 421.541 292.05 426.24 C 292.499 430.939 292.723 434.627 292.723 437.305 Z M 292.672 459.773 C 292.672 460.654 291.653 461.441 289.614 462.132 L 283.602 464.205 C 283.602 463.203 284.682 462.322 286.841 461.561 C 285.372 460.818 284.638 460.058 284.638 459.281 C 284.638 458.607 285.217 457.665 286.374 456.456 C 287.653 455.126 288.767 454.461 289.717 454.461 C 290.788 454.461 291.324 454.988 291.324 456.042 C 291.324 456.439 291.074 457.096 290.573 458.011 C 289.916 457.406 289.191 457.104 288.396 457.104 C 288.154 457.104 287.908 457.13 287.657 457.182 C 287.406 457.234 287.182 457.307 286.983 457.402 C 286.784 457.497 286.62 457.605 286.491 457.726 C 286.362 457.847 286.297 457.968 286.297 458.089 C 286.297 458.434 286.789 458.875 287.774 459.41 C 288.793 459.963 289.657 460.24 290.365 460.24 C 291.091 460.24 291.86 460.084 292.672 459.773 Z M 282.75 441.633 L 267.979 441.633 L 267.979 437.124 L 280.858 437.124 C 280.858 435.051 280.616 433.496 280.133 432.459 C 279.96 432.079 279.67 431.626 279.264 431.099 C 278.858 430.572 278.336 429.954 277.697 429.246 L 279.64 425.177 L 279.822 425.177 C 280.997 426.663 281.739 427.846 282.05 428.727 C 282.517 430.075 282.75 432.269 282.75 435.31 L 282.75 441.633 Z M 280.314 418.362 L 278.319 422.145 L 274.146 419.917 L 276.064 416.133 L 280.314 418.362 Z M 272.291 440.823 L 272.165 439.731 L 274.438 440.182 L 271.635 439.902 L 273.392 438.7 L 272.291 440.823 Z M 244.068 435.025 C 244.068 437.029 243.256 439.465 241.632 442.333 L 241.165 442.074 C 241.234 441.383 241.286 440.782 241.321 440.272 C 241.355 439.763 241.372 439.344 241.372 439.016 C 241.372 436.701 241.165 433.427 240.751 429.194 C 240.336 424.961 239.723 419.778 238.911 413.645 C 239.204 412.971 239.545 412.245 239.934 411.468 C 240.323 410.691 240.742 409.861 241.191 408.98 L 241.372 408.98 C 242.271 415.235 242.945 420.521 243.394 424.84 C 243.843 429.159 244.068 432.554 244.068 435.025 Z M 238.448 438.42 C 238.448 440.251 238.094 441.815 237.385 443.11 C 236.677 444.406 235.701 445.477 234.457 446.324 C 233.161 447.205 231.645 447.848 229.909 448.254 C 228.172 448.66 226.259 448.863 224.169 448.863 C 216.999 448.863 213.414 446.237 213.414 440.985 C 213.414 437.495 214.908 433.038 217.897 427.613 L 218.727 428.106 C 216.481 432.114 215.358 435.388 215.358 437.927 C 215.358 440.035 216.153 441.65 217.742 442.773 C 219.279 443.844 221.404 444.38 224.117 444.38 C 227.054 444.38 229.757 443.879 232.228 442.877 C 234.958 441.754 236.323 440.432 236.323 438.912 C 236.323 435.647 235.26 427.691 233.135 415.045 L 231.943 414.423 C 231.943 413.282 232.055 412.194 232.28 411.157 C 232.505 410.12 232.867 409.101 233.368 408.099 L 233.809 408.255 C 233.844 408.842 233.956 409.287 234.146 409.589 C 234.336 409.892 234.621 410.121 235.001 410.276 L 238.318 411.702 C 238.318 412.583 238.21 413.464 237.994 414.345 C 237.778 415.226 237.566 415.994 237.359 416.651 L 235.882 416.185 L 237.23 425.618 C 237.645 428.572 237.951 431.107 238.15 433.224 C 238.349 435.34 238.448 437.072 238.448 438.42 Z M 191.777 435.025 C 191.777 437.029 190.965 439.465 189.341 442.333 L 188.875 442.074 C 188.944 441.383 188.995 440.782 189.03 440.272 C 189.065 439.763 189.082 439.344 189.082 439.016 C 189.082 436.701 188.875 433.427 188.46 429.194 C 188.045 424.961 187.432 419.778 186.62 413.645 C 186.913 412.971 187.255 412.245 187.644 411.468 C 188.033 410.691 188.451 409.861 188.9 408.98 L 189.082 408.98 C 189.98 415.235 190.654 420.521 191.103 424.84 C 191.552 429.159 191.777 432.554 191.777 435.025 Z M 181.774 441.633 L 168.972 441.633 L 168.972 437.124 L 179.156 437.124 L 176.073 415.148 L 174.725 414.5 C 174.725 413.325 174.833 412.215 175.049 411.17 C 175.265 410.125 175.623 409.101 176.124 408.099 L 176.565 408.255 C 176.582 408.756 176.69 409.183 176.889 409.538 C 177.088 409.892 177.481 410.19 178.068 410.432 L 181.074 411.702 C 181.074 412.617 180.966 413.516 180.75 414.397 C 180.534 415.278 180.322 416.029 180.115 416.651 L 178.716 416.237 L 181.774 436.554 L 181.774 441.633 Z M 172.053 440.486 L 172.6 439.968 L 172.257 439.747 L 173.792 438.495 L 174.661 438.678 L 172.053 440.486 Z M 149.805 441.633 L 127.078 441.633 L 127.078 437.124 L 146.799 437.124 C 144.64 433.876 141.158 430.818 136.355 427.95 L 135.5 428.753 C 134.999 428.356 134.49 427.963 133.971 427.574 C 133.453 427.185 132.943 426.792 132.442 426.395 C 131.371 425.514 130.836 424.823 130.836 424.322 C 130.836 421.351 131.57 419.027 133.038 417.351 C 134.386 415.796 136.701 414.388 139.983 413.127 L 152.137 408.488 L 152.137 412.971 L 141.875 416.574 C 139.37 417.455 137.448 418.197 136.109 418.802 C 134.77 419.407 134.101 419.882 134.101 420.227 C 134.101 420.4 134.187 420.608 134.36 420.849 C 134.533 421.091 134.818 421.359 135.215 421.653 L 137.858 423.622 C 140.657 425.713 143.037 427.872 144.998 430.101 C 146.959 432.33 148.561 434.671 149.805 437.124 L 149.805 441.633 Z M 128.633 441.374 L 126.819 441.633 C 125.627 441.633 124.672 441.201 123.955 440.337 C 123.238 439.474 122.707 438.178 122.361 436.45 C 121.946 434.308 121.635 431.095 121.428 426.81 C 121.221 422.387 121.013 419.588 120.806 418.413 C 120.443 416.392 119.675 414.828 118.5 413.723 L 121.558 408.903 L 121.739 408.903 C 122.603 411.702 123.156 415.615 123.398 420.642 L 123.916 432.356 C 124.071 433.945 124.451 435.172 125.056 436.035 C 125.54 436.761 126.058 437.124 126.611 437.124 L 128.633 437.124 L 128.633 441.374 Z M 119.853 441.633 L 95.13 441.633 C 87.373 441.633 83.495 438.782 83.495 433.081 C 83.495 431.457 83.858 429.816 84.583 428.157 C 84.825 427.604 85.447 426.456 86.449 424.711 L 87.226 425.203 L 86.112 427.587 C 85.611 428.831 85.361 429.928 85.361 430.878 C 85.361 432.934 86.432 434.515 88.574 435.621 C 90.475 436.623 92.902 437.124 95.856 437.124 L 117.806 437.124 L 117.806 436.424 C 117.806 432.779 116.778 430.161 114.722 428.572 L 116.717 424.348 C 117.201 424.953 117.603 425.484 117.922 425.942 C 118.242 426.399 118.471 426.792 118.609 427.121 C 119.438 428.97 119.853 431.457 119.853 434.584 L 119.853 441.633 Z M 104.952 447.904 L 102.957 451.688 L 98.784 449.459 L 100.702 445.676 L 104.952 447.904 Z" style="line-height: 78.6271px; white-space: pre;"/>
      <path style="line-height: 78.6271px; white-space: pre;"/>
      <path d="M 288.756 481.915 L 286.76 485.698 L 282.588 483.47 L 284.506 479.686 L 288.756 481.915 Z M 292.202 510.628 L 276.187 510.628 L 276.187 506.119 L 289.999 506.119 C 289.999 504.582 289.818 503.139 289.455 501.791 C 287.521 502.413 286.13 502.724 285.283 502.724 C 284.022 502.724 282.994 502.404 282.199 501.765 C 281.284 501.04 280.826 499.995 280.826 498.63 C 280.826 496.246 281.267 494.147 282.147 492.332 C 283.115 490.328 284.368 489.326 285.905 489.326 C 288.013 489.326 289.637 490.985 290.777 494.302 C 291.727 497.015 292.202 500.211 292.202 503.89 L 292.202 510.628 Z M 287.978 497.153 C 287.736 496.548 287.348 495.918 286.812 495.261 C 286.087 494.397 285.396 493.965 284.739 493.965 C 284.273 493.965 283.888 494.164 283.586 494.561 C 283.284 494.958 283.132 495.416 283.132 495.935 C 283.132 497.317 283.893 498.008 285.413 498.008 C 286.259 498.008 287.114 497.723 287.978 497.153 Z M 268.498 483.029 L 269.742 480.438 L 273.577 482.64 L 271.763 486.372 L 268.083 484.195 L 266.813 486.839 L 263.056 484.662 L 264.766 480.904 L 268.498 483.029 Z M 258.987 506.119 C 259.281 506.119 259.657 506.106 260.114 506.08 C 260.572 506.054 261.086 506.002 261.656 505.925 C 262.226 505.847 262.831 505.739 263.47 505.601 C 264.11 505.462 264.758 505.281 265.414 505.057 C 265.069 504.59 264.771 504.094 264.52 503.567 C 264.27 503.04 264.144 502.526 264.144 502.025 C 264.144 500.832 264.343 499.644 264.74 498.461 C 265.138 497.278 265.669 496.207 266.334 495.248 C 267 494.289 267.768 493.512 268.64 492.916 C 269.513 492.32 270.424 492.022 271.374 492.022 C 271.962 492.022 272.489 492.216 272.955 492.605 C 273.422 492.994 273.819 493.529 274.147 494.211 C 274.476 494.894 274.731 495.706 274.912 496.647 C 275.094 497.589 275.184 498.604 275.184 499.692 C 275.184 500.781 274.916 501.783 274.38 502.698 C 273.845 503.614 273.154 504.461 272.307 505.238 C 272.739 505.497 273.163 505.709 273.577 505.873 C 273.992 506.037 274.381 506.119 274.743 506.119 L 274.743 510.369 L 272.903 510.628 C 272.558 510.628 272.191 510.555 271.802 510.408 C 271.414 510.261 271.016 510.067 270.61 509.825 C 270.204 509.583 269.794 509.307 269.379 508.996 C 268.965 508.685 268.576 508.374 268.213 508.063 C 266.433 509.03 264.757 509.7 263.185 510.071 C 261.613 510.442 260.214 510.628 258.987 510.628 L 258.987 506.119 Z M 272.8 500.159 C 272.766 500.003 272.675 499.744 272.527 499.381 C 272.381 499.018 272.191 498.647 271.957 498.267 C 271.725 497.887 271.466 497.55 271.18 497.256 C 270.895 496.963 270.597 496.816 270.286 496.816 C 269.958 496.816 269.599 496.894 269.21 497.049 C 268.822 497.204 268.446 497.399 268.083 497.632 C 267.721 497.865 267.405 498.112 267.137 498.371 C 266.87 498.63 266.693 498.871 266.606 499.096 C 266.796 499.805 267.125 500.461 267.591 501.066 C 268.057 501.671 268.481 502.146 268.861 502.491 L 269.431 503.035 C 270.364 502.448 271.12 501.895 271.698 501.377 C 272.277 500.858 272.644 500.452 272.8 500.159 Z M 263.885 510.369 L 262.097 510.628 L 233.901 510.628 L 227.604 505.886 L 227.682 505.575 C 228.287 505.678 228.926 505.765 229.599 505.834 C 230.273 505.903 230.939 505.955 231.595 505.99 C 232.252 506.024 232.887 506.05 233.5 506.067 C 234.114 506.084 234.671 506.093 235.171 506.093 C 237.504 506.076 239.931 505.281 242.453 503.709 C 243.145 502.068 243.49 500.409 243.49 498.733 C 243.49 494.829 242.566 489.491 240.717 482.718 L 239.266 481.993 C 239.318 480.956 239.464 479.894 239.706 478.805 C 239.948 477.716 240.311 476.706 240.795 475.773 L 241.235 475.928 C 241.339 477.069 241.771 477.786 242.531 478.079 L 245.952 479.401 C 245.918 480.213 245.801 481.034 245.602 481.863 C 245.404 482.692 245.149 483.504 244.837 484.299 L 243.542 483.936 C 244.233 486.234 244.734 488.286 245.045 490.091 C 245.356 491.896 245.511 493.585 245.511 495.157 C 245.511 495.986 245.442 496.941 245.304 498.021 C 245.166 499.1 244.958 500.34 244.682 501.74 C 246.202 500.859 247.442 500.159 248.401 499.64 C 249.36 499.122 250.064 498.751 250.513 498.526 C 253.035 497.317 255.221 496.712 257.069 496.712 C 261.613 496.712 263.885 499.165 263.885 504.072 L 263.885 510.369 Z M 259.79 504.124 C 259.79 502.327 258.037 501.429 254.529 501.429 C 251.472 501.429 247.516 502.941 242.66 505.964 L 242.66 506.119 L 253.674 506.119 C 257.752 506.119 259.79 505.454 259.79 504.124 Z" style="line-height: 78.6271px; white-space: pre;"/>
      <path d="M 170.75 444.624 Q 170.75 448.223 166.529 451.911 Q 162.641 455.266 159.886 455.266 Q 157.753 455.266 154.932 454.333 Q 152.555 453.466 150.155 452.578 L 150.533 451.689 Q 155.176 452.578 156.465 452.578 Q 160.753 452.578 165.04 448.823 Q 169.151 445.202 169.151 441.958 Q 169.151 438.759 165.818 435.071 L 167.084 431.583 Q 170.75 434.96 170.75 439.225 Z" style="white-space: pre;"/>
      <path d="M 269.857 444.508 Q 269.857 448.21 265.515 452.003 Q 261.516 455.454 258.683 455.454 Q 256.489 455.454 253.587 454.494 Q 251.142 453.603 248.674 452.689 L 249.062 451.775 Q 253.838 452.689 255.163 452.689 Q 259.574 452.689 263.984 448.827 Q 268.212 445.102 268.212 441.766 Q 268.212 438.475 264.784 434.682 L 266.087 431.094 Q 269.857 434.568 269.857 438.955 Z M 266.429 423.233 L 264.67 426.57 L 260.991 424.604 L 262.682 421.268 Z" style="line-height: 88.0623px; white-space: pre;"/>
      <polyline style="" points="277.895 508.412 278.466 508.411 276.853 508.452 277.609 506.859 277.65 506.125 274.056 506.084 272.689 510.616 276.221 510.636 279.753 508.697"/>
    </g>
  </g>
</svg>