<?xml version="1.0" encoding="utf-8"?>
<svg viewBox="1.013 1.021 477.974 711.266" width="477.974px" height="711.266px" xmlns="http://www.w3.org/2000/svg">
  <g id="layer1" transform="matrix(1, 0, 0, 1, 0, -339.062195)" style="">
    <g id="g3048" transform="matrix(1.0174609,0,0,1.0174609,-30.353904,470.92496)" style="">
      <path id="path3669" style="fill-opacity: 1; fill-rule: evenodd; stroke: rgb(0, 0, 0); stroke-width: 1.99082; stroke-linecap: butt; stroke-linejoin: miter; stroke-miterlimit: 4; stroke-opacity: 1; stroke-dasharray: none; fill: rgb(0, 24, 204);" d="m 56.92021,-128.59638 420.01304,0 c 10.81602,0.78342 23.07234,11.735 23.66692,24.63643 l 0,649.78711 c 0,11.61435 -9.93977,24.63644 -25.16484,24.63644 l -419.413865,0 c -13.939126,0 -24.86525,-11.9913 -24.86525,-24.93327 L 30.8284,-103.89487 c 0,-14.05686 11.732534,-24.70151 26.09181,-24.70151 z"/>
      <path id="path2774" style="fill-opacity: 1; fill-rule: evenodd; stroke: rgb(0, 0, 0); stroke-width: 13; stroke-linecap: butt; stroke-linejoin: miter; stroke-miterlimit: 4; stroke-opacity: 1; stroke-dasharray: none; fill: rgb(0, 27, 235);" d="m 419.7112,-116.20334 -309.35547,0 -49.624534,0.0309 c -11.775334,-0.50833 -18.496293,7.42305 -18.05382,20.114426 l 0,634.622474 c 0.04661,8.55634 3.732838,18.82657 15.707135,19.03464 l 414.956239,0.52447 c 11.97429,-0.20811 15.69182,-10.4783 15.73842,-19.03466 l 0,-635.208624 c 0.44246,-12.691376 -6.27848,-20.622766 -18.05382,-20.114426 l -51.31415,0.0309 z"/>
      <path style="line-height: 83.3447px; white-space: pre;" transform="matrix(1.094015, 0, 0, 1.094015, -60.121132, -24.040997)"/>
      <g id="g-1" transform="matrix(2.074034, 0, 0, 2.074034, 243.233093, 215.129562)" style="">
        <path id="circle4853" transform="matrix(0.17273859,0,0,0.17273859,73.158541,-109.65662)" style="fill: rgb(180, 10, 0); fill-opacity: 1; stroke: none; stroke-width: 3.0634; stroke-linecap: round; stroke-linejoin: round; stroke-miterlimit: 4; stroke-dasharray: none; stroke-opacity: 1;" d="m -350.73047,286.61328 c -188.71025,-9.1e-4 -341.69036,152.9792 -341.68945,341.68945 1.7e-4,188.70949 152.97996,341.68841 341.68945,341.6875 C -162.02174,969.99006 -9.0431345,817.01146 -9.0429688,628.30273 -9.0420575,439.59324 -162.02098,286.61345 -350.73047,286.61328 Z"/>
        <path id="circle4853-2" transform="matrix(0.17273859,0,0,0.17273859,73.158541,-109.65662)" style="fill: rgb(0, 19, 165); fill-opacity: 1; stroke: none; stroke-width: 3.0634; stroke-linecap: round; stroke-linejoin: round; stroke-miterlimit: 4; stroke-dasharray: none; stroke-opacity: 1;" d="m -348.48047,352.99609 c -152.85554,1.1e-4 -276.76942,123.91399 -276.76953,276.76953 10e-5,152.85555 123.91398,276.76943 276.76953,276.76954 152.85555,-1.1e-4 276.769427,-123.91399 276.769532,-276.76954 C -71.711048,476.91007 -195.62492,352.9962 -348.48047,352.99609 Z"/>
      </g>
      <path id="rect825" style="fill: rgb(180, 10, 0); fill-opacity: 1;" d="M 176.593 146.99 L 334.458 304.882 L 355.115 284.844 L 197.554 125.735 L 176.593 146.99 Z"/>
      <path d="M 214.542 -120.55 L 216.034 -120.55 L 216.034 -119.518 L 214.542 -119.518 L 214.542 -114.746 C 214.542 -114.454 214.568 -114.236 214.62 -114.093 C 214.672 -113.949 214.75 -113.854 214.854 -113.807 C 214.958 -113.76 215.101 -113.736 215.284 -113.736 C 215.462 -113.736 215.712 -113.768 216.034 -113.833 L 216.212 -112.72 C 215.831 -112.631 215.447 -112.586 215.062 -112.586 C 214.582 -112.586 214.212 -112.656 213.952 -112.797 C 213.692 -112.938 213.5 -113.148 213.377 -113.425 C 213.263 -113.692 213.206 -114.174 213.206 -114.872 L 213.206 -119.518 L 212.078 -119.518 L 212.078 -120.55 L 213.206 -120.55 L 213.206 -122.361 L 214.542 -123.318 L 214.542 -120.55 Z M 220.579 -113.588 C 221.084 -113.588 221.52 -113.736 221.889 -114.033 C 222.258 -114.33 222.514 -114.724 222.657 -115.213 L 223.963 -115.013 C 223.74 -114.216 223.323 -113.597 222.712 -113.154 C 222.101 -112.711 221.368 -112.489 220.512 -112.489 C 219.76 -112.489 219.106 -112.655 218.549 -112.987 C 217.992 -113.318 217.563 -113.79 217.261 -114.401 C 216.959 -115.012 216.808 -115.728 216.808 -116.549 C 216.808 -117.395 216.957 -118.132 217.254 -118.761 C 217.551 -119.39 217.977 -119.875 218.534 -120.216 C 219.091 -120.557 219.745 -120.728 220.497 -120.728 C 221.224 -120.728 221.858 -120.566 222.397 -120.242 C 222.936 -119.917 223.352 -119.441 223.644 -118.813 C 223.936 -118.184 224.082 -117.43 224.082 -116.549 L 224.082 -116.275 L 218.189 -116.275 C 218.218 -115.711 218.335 -115.227 218.538 -114.824 C 218.741 -114.421 219.016 -114.114 219.365 -113.903 C 219.714 -113.693 220.118 -113.588 220.579 -113.588 Z M 220.482 -119.637 C 220.086 -119.637 219.73 -119.543 219.413 -119.355 C 219.096 -119.167 218.835 -118.902 218.63 -118.561 C 218.425 -118.219 218.292 -117.823 218.233 -117.373 L 222.672 -117.373 C 222.593 -118.1 222.364 -118.659 221.985 -119.05 C 221.606 -119.441 221.105 -119.637 220.482 -119.637 Z M 225.132 -116.609 C 225.132 -117.465 225.285 -118.202 225.592 -118.82 C 225.899 -119.439 226.33 -119.911 226.887 -120.238 C 227.444 -120.565 228.088 -120.728 228.821 -120.728 C 229.558 -120.728 230.203 -120.57 230.758 -120.253 C 231.312 -119.936 231.744 -119.47 232.053 -118.854 C 232.362 -118.238 232.517 -117.494 232.517 -116.623 C 232.517 -115.758 232.361 -115.014 232.049 -114.393 C 231.737 -113.772 231.303 -113.3 230.747 -112.976 C 230.19 -112.651 229.548 -112.489 228.821 -112.489 C 228.098 -112.489 227.46 -112.646 226.906 -112.961 C 226.351 -113.275 225.917 -113.741 225.603 -114.36 C 225.289 -114.978 225.132 -115.728 225.132 -116.609 Z M 228.813 -119.629 C 228.368 -119.629 227.971 -119.514 227.622 -119.284 C 227.273 -119.054 226.999 -118.713 226.798 -118.26 C 226.597 -117.807 226.497 -117.257 226.497 -116.609 C 226.497 -115.96 226.596 -115.41 226.794 -114.957 C 226.992 -114.504 227.265 -114.163 227.614 -113.933 C 227.963 -113.703 228.366 -113.588 228.821 -113.588 C 229.291 -113.588 229.702 -113.707 230.053 -113.944 C 230.404 -114.181 230.675 -114.528 230.865 -114.983 C 231.056 -115.438 231.151 -115.985 231.151 -116.623 C 231.151 -117.266 231.052 -117.813 230.854 -118.264 C 230.656 -118.714 230.381 -119.054 230.03 -119.284 C 229.679 -119.514 229.273 -119.629 228.813 -119.629 Z M 237.178 -119.362 C 236.609 -119.362 236.175 -119.143 235.876 -118.705 C 235.577 -118.267 235.427 -117.657 235.427 -116.876 L 235.427 -112.675 L 234.091 -112.675 L 234.091 -120.55 L 235.338 -120.55 L 235.338 -119.362 C 235.63 -119.857 235.927 -120.208 236.228 -120.416 C 236.53 -120.624 236.894 -120.728 237.319 -120.728 C 237.557 -120.728 237.779 -120.699 237.984 -120.642 C 238.189 -120.585 238.398 -120.493 238.611 -120.364 L 238.151 -119.132 C 237.864 -119.285 237.539 -119.362 237.178 -119.362 Z M 240.909 -122.041 L 239.573 -122.041 L 239.573 -123.555 L 240.909 -123.555 L 240.909 -122.041 Z M 240.909 -112.675 L 239.573 -112.675 L 239.573 -120.55 L 240.909 -120.55 L 240.909 -112.675 Z M 249.305 -112.675 L 247.91 -112.675 C 247.831 -112.843 247.776 -112.979 247.747 -113.083 C 247.717 -113.187 247.68 -113.375 247.636 -113.647 C 247.255 -113.242 246.851 -112.947 246.426 -112.764 C 246.001 -112.581 245.513 -112.489 244.964 -112.489 C 244.469 -112.489 244.033 -112.584 243.654 -112.775 C 243.275 -112.966 242.983 -113.233 242.778 -113.577 C 242.573 -113.921 242.47 -114.316 242.47 -114.761 C 242.47 -115.438 242.69 -115.978 243.13 -116.379 C 243.571 -116.78 244.296 -117.057 245.305 -117.21 C 246.354 -117.368 247.102 -117.519 247.547 -117.662 L 247.547 -117.87 C 247.547 -118.311 247.49 -118.658 247.376 -118.913 C 247.262 -119.168 247.08 -119.352 246.83 -119.466 C 246.58 -119.58 246.242 -119.637 245.817 -119.637 C 245.283 -119.637 244.861 -119.516 244.552 -119.273 C 244.243 -119.03 244.038 -118.649 243.939 -118.13 L 242.633 -118.33 C 242.792 -119.127 243.147 -119.726 243.698 -120.127 C 244.25 -120.528 244.981 -120.728 245.891 -120.728 C 246.589 -120.728 247.156 -120.64 247.591 -120.464 C 248.026 -120.289 248.35 -120.002 248.563 -119.603 C 248.776 -119.205 248.882 -118.669 248.882 -117.996 L 248.882 -115.169 C 248.882 -114.679 248.893 -114.3 248.916 -114.033 C 248.938 -113.766 248.978 -113.536 249.035 -113.343 C 249.092 -113.15 249.182 -112.928 249.305 -112.675 Z M 245.364 -116.089 C 244.835 -115.995 244.448 -115.839 244.203 -115.621 C 243.958 -115.404 243.836 -115.117 243.836 -114.761 C 243.836 -114.38 243.958 -114.081 244.203 -113.866 C 244.448 -113.651 244.8 -113.543 245.261 -113.543 C 245.646 -113.543 246.049 -113.667 246.47 -113.914 C 246.762 -114.087 246.984 -114.274 247.135 -114.475 C 247.286 -114.675 247.392 -114.919 247.454 -115.206 C 247.516 -115.493 247.547 -115.866 247.547 -116.327 L 247.547 -116.609 C 247.428 -116.554 247.159 -116.478 246.741 -116.379 C 246.323 -116.28 245.864 -116.183 245.364 -116.089 Z M 252.614 -112.675 L 250.936 -112.675 L 250.936 -114.345 L 252.614 -114.345 L 252.614 -112.675 Z M 256.088 -113.573 L 256.051 -113.573 L 256.051 -109.662 L 254.715 -109.662 L 254.715 -120.55 L 255.962 -120.55 L 255.962 -119.548 L 255.992 -119.548 C 256.264 -119.929 256.597 -120.22 256.99 -120.423 C 257.383 -120.626 257.832 -120.728 258.337 -120.728 C 259.045 -120.728 259.664 -120.56 260.193 -120.223 C 260.722 -119.886 261.13 -119.408 261.417 -118.787 C 261.704 -118.166 261.848 -117.44 261.848 -116.609 C 261.848 -115.788 261.707 -115.066 261.425 -114.445 C 261.143 -113.824 260.745 -113.343 260.23 -113.002 C 259.715 -112.66 259.119 -112.489 258.441 -112.489 C 257.456 -112.489 256.672 -112.85 256.088 -113.573 Z M 258.218 -119.637 C 257.763 -119.637 257.365 -119.511 257.024 -119.258 C 256.682 -119.006 256.42 -118.66 256.237 -118.219 C 256.054 -117.779 255.962 -117.282 255.962 -116.727 C 255.962 -116.074 256.057 -115.513 256.248 -115.043 C 256.439 -114.572 256.708 -114.212 257.057 -113.963 C 257.406 -113.713 257.815 -113.588 258.285 -113.588 C 258.745 -113.588 259.14 -113.717 259.469 -113.974 C 259.798 -114.231 260.048 -114.588 260.219 -115.043 C 260.39 -115.498 260.475 -116.022 260.475 -116.616 C 260.475 -117.245 260.381 -117.786 260.193 -118.241 C 260.005 -118.696 259.741 -119.043 259.402 -119.28 C 259.063 -119.518 258.669 -119.637 258.218 -119.637 Z M 271.526 -120.728 C 272.367 -120.728 273.006 -120.508 273.441 -120.067 C 273.876 -119.627 274.094 -118.984 274.094 -118.137 L 274.094 -112.675 L 272.758 -112.675 L 272.758 -117.729 C 272.758 -118.397 272.639 -118.872 272.402 -119.154 C 272.165 -119.436 271.801 -119.577 271.311 -119.577 C 270.955 -119.577 270.633 -119.488 270.346 -119.31 C 270.059 -119.132 269.832 -118.855 269.664 -118.479 C 269.495 -118.103 269.411 -117.633 269.411 -117.069 L 269.411 -112.675 L 268.075 -112.675 L 268.075 -117.848 C 268.075 -118.437 267.954 -118.872 267.712 -119.154 C 267.469 -119.436 267.108 -119.577 266.628 -119.577 C 266.281 -119.577 265.965 -119.493 265.678 -119.325 C 265.391 -119.157 265.161 -118.886 264.988 -118.512 C 264.815 -118.139 264.728 -117.658 264.728 -117.069 L 264.728 -112.675 L 263.392 -112.675 L 263.392 -120.55 L 264.639 -120.55 L 264.639 -119.451 C 265.193 -120.302 265.93 -120.728 266.851 -120.728 C 267.479 -120.728 267.986 -120.613 268.372 -120.383 C 268.758 -120.152 269.04 -119.807 269.218 -119.347 C 269.545 -119.862 269.889 -120.22 270.25 -120.423 C 270.611 -120.626 271.037 -120.728 271.526 -120.728 Z M 277.459 -122.041 L 276.123 -122.041 L 276.123 -123.555 L 277.459 -123.555 L 277.459 -122.041 Z M 277.459 -112.675 L 276.123 -112.675 L 276.123 -120.55 L 277.459 -120.55 L 277.459 -112.675 Z M 281.625 -118.768 C 281.868 -118.402 282.073 -118.058 282.241 -117.737 C 282.419 -118.054 282.617 -118.373 282.835 -118.694 L 284.082 -120.55 L 285.633 -120.55 L 283.013 -116.779 L 285.841 -112.675 L 284.23 -112.675 L 282.931 -114.627 C 282.709 -114.964 282.474 -115.352 282.226 -115.792 C 282.033 -115.471 281.858 -115.189 281.699 -114.946 L 280.171 -112.675 L 278.605 -112.675 L 281.447 -116.75 L 278.835 -120.55 L 280.445 -120.55 L 281.625 -118.768 Z M 288.687 -112.675 L 287.01 -112.675 L 287.01 -114.345 L 288.687 -114.345 L 288.687 -112.675 Z M 295.858 -112.675 L 295.858 -117.826 C 295.858 -118.4 295.714 -118.835 295.427 -119.132 C 295.14 -119.429 294.735 -119.577 294.21 -119.577 C 293.547 -119.577 293.031 -119.377 292.662 -118.976 C 292.294 -118.575 292.11 -117.937 292.11 -117.061 L 292.11 -112.675 L 290.774 -112.675 L 290.774 -120.55 L 292.02 -120.55 L 292.02 -119.451 C 292.283 -119.847 292.623 -120.159 293.041 -120.386 C 293.459 -120.614 293.923 -120.728 294.433 -120.728 C 295.343 -120.728 296.031 -120.493 296.496 -120.023 C 296.961 -119.553 297.194 -118.88 297.194 -118.004 L 297.194 -112.675 L 295.858 -112.675 Z M 302.493 -113.588 C 302.998 -113.588 303.434 -113.736 303.803 -114.033 C 304.172 -114.33 304.428 -114.724 304.571 -115.213 L 305.877 -115.013 C 305.654 -114.216 305.238 -113.597 304.627 -113.154 C 304.016 -112.711 303.282 -112.489 302.426 -112.489 C 301.674 -112.489 301.02 -112.655 300.463 -112.987 C 299.906 -113.318 299.477 -113.79 299.175 -114.401 C 298.874 -115.012 298.723 -115.728 298.723 -116.549 C 298.723 -117.395 298.871 -118.132 299.168 -118.761 C 299.465 -119.39 299.891 -119.875 300.448 -120.216 C 301.005 -120.557 301.659 -120.728 302.411 -120.728 C 303.138 -120.728 303.772 -120.566 304.311 -120.242 C 304.85 -119.917 305.266 -119.441 305.558 -118.813 C 305.85 -118.184 305.996 -117.43 305.996 -116.549 L 305.996 -116.275 L 300.103 -116.275 C 300.133 -115.711 300.249 -115.227 300.452 -114.824 C 300.655 -114.421 300.931 -114.114 301.28 -113.903 C 301.629 -113.693 302.033 -113.588 302.493 -113.588 Z M 302.397 -119.637 C 302.001 -119.637 301.645 -119.543 301.328 -119.355 C 301.011 -119.167 300.75 -118.902 300.545 -118.561 C 300.34 -118.219 300.207 -117.823 300.148 -117.373 L 304.586 -117.373 C 304.507 -118.1 304.278 -118.659 303.899 -119.05 C 303.521 -119.441 303.02 -119.637 302.397 -119.637 Z M 308.942 -120.55 L 310.433 -120.55 L 310.433 -119.518 L 308.942 -119.518 L 308.942 -114.746 C 308.942 -114.454 308.968 -114.236 309.02 -114.093 C 309.071 -113.949 309.149 -113.854 309.253 -113.807 C 309.357 -113.76 309.501 -113.736 309.684 -113.736 C 309.862 -113.736 310.112 -113.768 310.433 -113.833 L 310.612 -112.72 C 310.231 -112.631 309.847 -112.586 309.461 -112.586 C 308.981 -112.586 308.611 -112.656 308.352 -112.797 C 308.092 -112.938 307.9 -113.148 307.776 -113.425 C 307.663 -113.692 307.606 -114.174 307.606 -114.872 L 307.606 -119.518 L 306.478 -119.518 L 306.478 -120.55 L 307.606 -120.55 L 307.606 -122.361 L 308.942 -123.318 L 308.942 -120.55 Z" style="fill: rgb(51, 51, 51); white-space: pre; mix-blend-mode: color-dodge; opacity: 0.32;"/>
      <path style="line-height: 78.6271px; white-space: pre;"/>
      <path d="M 453.005 -17.901 L 450.308 -17.901 Q 445.901 -17.901 441.96 -21.168 Q 440.482 -19.353 438.952 -18.653 Q 437.293 -17.901 434.311 -17.901 L 430.266 -17.901 L 430.266 -22.412 L 434.233 -22.412 Q 438.408 -22.412 441.026 -26.223 Q 442.582 -28.505 444.941 -30.19 Q 447.016 -31.694 448.727 -32.109 Q 453.005 -25.627 453.005 -22.412 Z M 450.023 -23.008 Q 449.427 -25.809 447.405 -28.479 Q 445.486 -27.987 443.956 -25.472 Q 446.212 -23.086 449.79 -22.671 Z M 432.157 -18.16 L 430.602 -17.901 L 402.47 -17.901 L 402.47 -22.412 L 423.342 -22.412 Q 419.349 -25.523 416.808 -26.794 Q 413.593 -28.401 410.508 -28.401 Q 409.834 -28.401 409.172 -28.363 Q 408.511 -28.324 407.837 -28.22 Q 409.704 -32.991 414.267 -32.991 Q 416.912 -32.991 420.516 -30.398 Q 421.32 -29.827 422.772 -28.596 Q 424.223 -27.364 426.35 -25.446 Q 429.409 -22.645 430.602 -22.412 L 432.157 -22.412 Z M 407.384 -18.16 L 405.569 -17.901 L 374.689 -17.901 L 374.689 -22.412 L 378.656 -22.412 Q 382.079 -22.412 385.942 -24.823 Q 386.979 -27.312 386.979 -29.802 Q 386.979 -35.713 384.205 -45.825 L 382.753 -46.551 Q 382.856 -48.184 383.194 -49.714 Q 383.531 -51.244 384.283 -52.773 L 384.723 -52.618 Q 384.905 -50.855 386.072 -50.44 L 389.442 -49.144 Q 389.39 -47.925 389.118 -46.81 Q 388.846 -45.695 388.327 -44.243 L 387.031 -44.606 Q 388.068 -41.184 388.535 -38.474 Q 389.001 -35.765 389.001 -33.38 Q 389.001 -32.135 388.794 -30.515 Q 388.587 -28.894 388.172 -26.794 Q 390.427 -28.09 391.879 -28.881 Q 393.331 -29.672 394.005 -30.009 Q 397.817 -31.824 400.565 -31.824 Q 407.384 -31.824 407.384 -24.46 Z M 403.288 -24.409 Q 403.288 -27.105 398.024 -27.105 Q 393.435 -27.105 386.149 -22.568 L 386.149 -22.412 L 397.169 -22.412 Q 403.288 -22.412 403.288 -24.409 Z M 365.149 -33.587 L 364.994 -33.587 Q 364.76 -32.835 364.358 -32.381 Q 363.956 -31.928 363.308 -31.539 L 358.045 -28.298 L 358.045 -28.038 Q 358.408 -27.883 359.121 -27.74 Q 359.834 -27.598 360.69 -27.481 Q 361.545 -27.364 362.427 -27.299 Q 363.308 -27.235 364.034 -27.235 Q 364.864 -27.235 365.279 -27.585 Q 365.694 -27.935 365.927 -28.298 Z M 374.379 -22.412 L 374.379 -18.16 L 372.564 -17.901 L 371.475 -17.901 Q 370.827 -17.901 370.348 -17.978 Q 369.868 -18.056 369.479 -18.238 Q 369.09 -18.419 368.766 -18.691 Q 368.442 -18.964 368.131 -19.353 Q 367.82 -19.742 367.547 -20.571 Q 367.275 -21.401 367.042 -22.425 Q 366.808 -23.449 366.601 -24.525 Q 366.394 -25.601 366.238 -26.509 L 366.031 -26.509 L 363.23 -22.853 Q 362.53 -22.853 361.753 -22.892 Q 360.975 -22.931 360.223 -22.983 Q 359.471 -23.034 358.771 -23.125 Q 358.071 -23.216 357.5 -23.346 Q 356.541 -23.527 355.893 -23.734 Q 355.245 -23.942 354.856 -24.136 Q 354.467 -24.331 354.298 -24.525 Q 354.13 -24.72 354.13 -24.927 Q 354.13 -25.368 354.506 -26.159 Q 354.882 -26.949 355.374 -27.792 Q 355.867 -28.635 356.373 -29.374 Q 356.878 -30.113 357.163 -30.476 Q 357.345 -30.709 357.85 -31.085 Q 358.356 -31.461 359.056 -31.902 Q 359.756 -32.342 360.573 -32.835 Q 361.39 -33.328 362.193 -33.794 L 364.812 -35.35 L 364.371 -38.254 L 366.186 -41.391 L 366.445 -41.391 L 369.557 -24.694 Q 369.686 -23.942 369.933 -23.501 Q 370.179 -23.06 370.542 -22.814 Q 370.905 -22.568 371.411 -22.49 Q 371.916 -22.412 372.564 -22.412 Z M 368.96 -46.992 L 366.938 -43.258 L 362.842 -45.436 L 361.441 -42.791 L 357.241 -44.969 L 359.16 -48.729 L 363.308 -46.603 L 364.682 -49.195 Z M 341.58 -17.901 L 310.908 -17.901 Q 309.43 -17.901 308.471 -18.704 Q 307.511 -19.508 306.993 -20.779 Q 304.582 -17.901 299.837 -17.901 L 294.833 -17.901 L 294.833 -22.412 L 299.837 -22.412 Q 301.755 -22.412 302.987 -22.801 Q 304.219 -23.19 304.996 -23.864 Q 306.889 -25.549 307.382 -29.568 L 308.86 -29.283 Q 308.73 -28.22 308.665 -27.364 Q 308.6 -26.509 308.6 -25.783 Q 308.6 -24.046 309.197 -23.229 Q 309.793 -22.412 311.504 -22.412 Q 313.604 -22.412 316.612 -23.397 Q 318.168 -23.916 319.529 -24.59 Q 320.89 -25.264 322.057 -26.094 Q 324.494 -27.805 326.102 -28.868 Q 327.709 -29.931 328.539 -30.372 Q 331.339 -31.824 334.606 -31.824 Q 341.58 -31.824 341.58 -24.46 Z M 337.354 -24.409 Q 337.354 -25.679 335.669 -26.431 Q 334.087 -27.105 332.091 -27.105 Q 330.769 -27.105 329.226 -26.703 Q 327.683 -26.301 325.816 -25.368 L 320.216 -22.516 L 320.216 -22.412 L 331.935 -22.412 Q 337.354 -22.412 337.354 -24.409 Z M 296.395 -18.16 L 294.58 -17.901 Q 292.791 -17.901 291.715 -19.197 Q 290.639 -20.493 290.12 -23.086 Q 289.498 -26.301 289.187 -32.731 Q 288.875 -39.369 288.564 -41.132 Q 288.02 -44.165 286.257 -45.825 L 289.316 -50.647 L 289.498 -50.647 Q 290.794 -46.447 291.157 -38.902 L 291.676 -27.183 Q 291.909 -24.797 292.816 -23.501 Q 293.542 -22.412 294.372 -22.412 L 296.395 -22.412 Z M 282.763 -17.901 L 269.954 -17.901 L 269.954 -22.412 L 280.144 -22.412 L 277.059 -44.399 L 275.71 -45.047 Q 275.71 -46.81 276.034 -48.379 Q 276.358 -49.947 277.11 -51.451 L 277.551 -51.296 Q 277.577 -50.544 277.875 -50.012 Q 278.173 -49.481 279.055 -49.118 L 282.063 -47.847 Q 282.063 -46.473 281.739 -45.151 Q 281.414 -43.828 281.103 -42.895 L 279.703 -43.31 L 282.763 -22.983 Z M 270.758 -19.56 Q 270.758 -18.549 270.59 -17.382 Q 270.421 -16.215 270.019 -14.997 Q 269.618 -13.778 268.969 -12.573 Q 268.321 -11.367 267.362 -10.304 Q 265.132 -7.815 262.889 -6.648 Q 260.647 -5.481 258.157 -5.481 Q 256.861 -5.481 255.37 -5.754 Q 253.879 -6.026 252.168 -6.622 L 246.594 -8.619 L 247.035 -9.656 Q 249.679 -9.059 251.507 -8.761 Q 253.335 -8.463 253.957 -8.463 Q 256.265 -8.463 258.456 -9.163 Q 260.647 -9.863 262.902 -11.548 Q 263.628 -12.093 264.497 -12.858 Q 265.365 -13.623 266.156 -14.478 Q 266.947 -15.334 267.582 -16.215 Q 268.217 -17.097 268.503 -17.901 Q 266.532 -17.901 265.015 -18.056 Q 263.499 -18.212 262.474 -18.769 Q 261.45 -19.327 260.932 -20.416 Q 260.413 -21.505 260.413 -23.423 Q 260.413 -24.02 260.569 -24.862 Q 260.724 -25.705 261.035 -26.612 Q 261.347 -27.52 261.787 -28.414 Q 262.228 -29.309 262.824 -30.009 Q 263.421 -30.709 264.134 -31.15 Q 264.847 -31.591 265.702 -31.591 Q 266.74 -31.591 267.66 -31.072 Q 268.58 -30.553 269.268 -29.49 Q 269.955 -28.427 270.356 -26.755 Q 270.758 -25.083 270.758 -22.801 Z M 268.632 -22.438 Q 268.321 -23.708 267.906 -24.59 Q 267.491 -25.472 266.999 -26.029 Q 266.506 -26.586 265.962 -26.846 Q 265.417 -27.105 264.899 -27.105 Q 264.069 -27.105 263.46 -26.535 Q 262.85 -25.964 262.85 -25.186 Q 262.85 -23.683 264.238 -23.06 Q 265.625 -22.438 268.632 -22.438 Z M 247.004 -17.901 Q 247.004 -15.1 246.096 -13.273 Q 245.189 -11.445 243.607 -10.148 Q 242.674 -9.37 241.481 -8.709 Q 240.288 -8.048 238.81 -7.543 Q 237.332 -7.037 235.582 -6.752 Q 233.832 -6.467 231.81 -6.467 Q 220.868 -6.467 220.868 -14.4 Q 220.868 -19.638 224.861 -27.805 L 225.898 -27.338 Q 222.917 -21.219 222.917 -17.512 Q 222.917 -10.952 231.758 -10.952 Q 236.736 -10.952 240.47 -12.689 Q 245.137 -14.815 245.137 -18.704 Q 245.137 -23.838 242.44 -27.157 L 244.514 -32.316 L 244.696 -32.316 Q 247.004 -28.609 247.004 -22.412 Z M 237.41 -37.891 L 235.414 -34.106 L 231.239 -36.335 L 233.158 -40.121 Z M 196.694 -21.271 Q 187.542 -17.901 178.156 -17.901 L 171.7 -17.901 L 171.7 -22.412 L 178.156 -22.412 Q 177.326 -23.786 176.899 -25.005 Q 176.471 -26.223 176.471 -27.753 Q 176.471 -28.375 176.6 -29.076 Q 176.73 -29.776 177.028 -30.45 Q 177.326 -31.124 177.78 -31.759 Q 178.234 -32.394 178.856 -32.913 Q 180.23 -34.002 181.669 -34.689 Q 183.108 -35.376 184.975 -35.376 Q 186.738 -35.376 188.125 -34.896 Q 189.512 -34.417 190.575 -33.613 Q 190.99 -33.302 191.755 -32.602 Q 192.52 -31.902 193.609 -30.631 L 193.116 -30.19 Q 189.564 -31.176 186.946 -31.176 Q 183.368 -31.176 181.293 -30.372 Q 180.308 -29.957 179.595 -29.413 Q 178.882 -28.868 178.882 -28.298 Q 178.882 -27.701 179.323 -26.975 Q 179.764 -26.249 180.528 -25.498 Q 181.293 -24.746 182.305 -24.033 Q 183.316 -23.32 184.482 -22.749 Q 186.22 -23.008 187.918 -23.333 Q 189.616 -23.657 191.327 -24.059 Q 193.039 -24.46 194.802 -24.94 Q 196.565 -25.42 198.483 -25.99 Z M 172.401 -18.16 L 170.586 -17.901 L 169.705 -17.901 Q 165.271 -17.901 161.356 -21.168 Q 159.904 -19.379 158.349 -18.653 Q 156.637 -17.901 153.708 -17.901 L 149.663 -17.901 L 149.663 -22.412 L 153.63 -22.412 Q 157.804 -22.412 160.423 -26.223 Q 161.978 -28.505 164.338 -30.216 Q 166.36 -31.668 168.123 -32.109 Q 172.401 -25.601 172.401 -22.412 Z M 169.42 -23.008 Q 168.849 -25.757 166.801 -28.479 Q 164.856 -27.961 163.353 -25.472 Q 165.608 -23.086 169.186 -22.671 Z M 154.229 -19.56 Q 154.229 -18.549 154.061 -17.382 Q 153.892 -16.215 153.49 -14.997 Q 153.088 -13.778 152.44 -12.573 Q 151.792 -11.367 150.833 -10.304 Q 148.603 -7.815 146.36 -6.648 Q 144.117 -5.481 141.628 -5.481 Q 140.332 -5.481 138.841 -5.754 Q 137.35 -6.026 135.639 -6.622 L 130.065 -8.619 L 130.505 -9.656 Q 133.15 -9.059 134.978 -8.761 Q 136.806 -8.463 137.428 -8.463 Q 139.736 -8.463 141.927 -9.163 Q 144.117 -9.863 146.373 -11.548 Q 147.099 -12.093 147.968 -12.858 Q 148.836 -13.623 149.627 -14.478 Q 150.418 -15.334 151.053 -16.215 Q 151.688 -17.097 151.974 -17.901 Q 150.003 -17.901 148.486 -18.056 Q 146.97 -18.212 145.945 -18.769 Q 144.921 -19.327 144.403 -20.416 Q 143.884 -21.505 143.884 -23.423 Q 143.884 -24.02 144.04 -24.862 Q 144.195 -25.705 144.506 -26.612 Q 144.818 -27.52 145.258 -28.414 Q 145.699 -29.309 146.295 -30.009 Q 146.892 -30.709 147.605 -31.15 Q 148.318 -31.591 149.173 -31.591 Q 150.21 -31.591 151.131 -31.072 Q 152.051 -30.553 152.738 -29.49 Q 153.426 -28.427 153.827 -26.755 Q 154.229 -25.083 154.229 -22.801 Z M 152.103 -22.438 Q 151.792 -23.708 151.377 -24.59 Q 150.962 -25.472 150.47 -26.029 Q 149.977 -26.586 149.433 -26.846 Q 148.888 -27.105 148.37 -27.105 Q 147.54 -27.105 146.931 -26.535 Q 146.321 -25.964 146.321 -25.186 Q 146.321 -23.683 147.708 -23.06 Q 149.096 -22.438 152.103 -22.438 Z M 130.17 -17.901 L 127.473 -17.901 Q 123.065 -17.901 119.124 -21.168 Q 117.646 -19.353 116.117 -18.653 Q 114.457 -17.901 111.476 -17.901 L 107.431 -17.901 L 107.431 -22.412 L 111.398 -22.412 Q 115.572 -22.412 118.191 -26.223 Q 119.747 -28.505 122.106 -30.19 Q 124.18 -31.694 125.892 -32.109 Q 130.17 -25.627 130.17 -22.412 Z M 127.188 -23.008 Q 126.592 -25.809 124.569 -28.479 Q 122.651 -27.987 121.121 -25.472 Q 123.377 -23.086 126.955 -22.671 Z M 109.836 -18.16 L 108.021 -17.901 L 105.299 -17.901 Q 97.287 -17.901 97.287 -16.086 Q 97.287 -15.334 99.698 -15.23 Q 100.347 -15.204 101.449 -15.113 Q 102.551 -15.023 104.106 -14.893 Q 106.569 -14.608 106.569 -13.156 Q 106.569 -8.281 103.354 -6.078 Q 99.88 -3.692 91.894 -3.692 Q 86.32 -3.692 83.027 -5.585 Q 79.527 -7.607 79.527 -11.341 Q 79.527 -14.375 81.186 -17.719 Q 81.523 -18.393 82.301 -19.69 Q 83.079 -20.986 84.323 -22.931 L 85.36 -22.412 L 83.39 -19.067 Q 81.938 -16.241 81.938 -14.4 Q 81.938 -11.237 85.257 -9.552 Q 88.394 -7.97 93.943 -7.97 Q 97.521 -7.97 100.502 -8.567 Q 103.951 -9.267 103.951 -10.459 Q 103.951 -11.185 102.265 -11.341 L 98.117 -11.6 Q 95.083 -11.782 95.083 -13.311 Q 95.083 -18.134 99.154 -20.623 Q 102.058 -22.412 105.299 -22.412 L 109.836 -22.412 Z M 99.88 0.119 L 97.858 3.853 L 93.761 1.675 L 92.361 4.319 L 88.161 2.141 L 90.079 -1.618 L 94.228 0.508 L 95.602 -2.085 Z" style="fill: rgb(255, 255, 255); white-space: pre;"/>
      <path d="M 390.546 433.463 L 360.104 433.463 Q 358.637 433.463 357.685 432.665 Q 356.733 431.867 356.219 430.606 Q 353.826 433.463 349.116 433.463 L 344.15 433.463 L 344.15 428.985 L 349.116 428.985 Q 351.021 428.985 352.243 428.599 Q 353.465 428.213 354.237 427.544 Q 356.116 425.871 356.605 421.883 L 358.071 422.166 Q 357.943 423.221 357.878 424.07 Q 357.814 424.919 357.814 425.64 Q 357.814 427.364 358.406 428.175 Q 358.998 428.985 360.696 428.985 Q 362.78 428.985 365.765 428.007 Q 367.309 427.493 368.66 426.824 Q 370.011 426.155 371.169 425.331 Q 373.588 423.633 375.183 422.578 Q 376.779 421.523 377.602 421.085 Q 380.381 419.644 383.624 419.644 Q 390.546 419.644 390.546 426.952 Z M 386.351 427.004 Q 386.351 425.743 384.679 424.997 Q 383.109 424.328 381.128 424.328 Q 379.815 424.328 378.284 424.726 Q 376.753 425.125 374.9 426.052 L 369.342 428.882 L 369.342 428.985 L 380.973 428.985 Q 386.351 428.985 386.351 427.004 Z M 345.96 433.205 L 344.158 433.463 Q 342.383 433.463 341.315 432.176 Q 340.247 430.889 339.732 428.316 Q 339.115 425.125 338.806 418.744 Q 338.497 412.156 338.188 410.406 Q 337.648 407.396 335.898 405.749 L 338.935 400.962 L 339.115 400.962 Q 340.401 405.131 340.762 412.619 L 341.276 424.25 Q 341.508 426.618 342.409 427.904 Q 343.129 428.985 343.953 428.985 L 345.96 428.985 Z M 333.872 433.463 L 321.161 433.463 L 321.161 428.985 L 331.274 428.985 L 328.211 407.164 L 326.873 406.521 Q 326.873 404.771 327.195 403.214 Q 327.517 401.657 328.263 400.165 L 328.7 400.319 Q 328.726 401.065 329.022 401.593 Q 329.318 402.12 330.193 402.481 L 333.178 403.742 Q 333.178 405.105 332.856 406.418 Q 332.534 407.73 332.226 408.656 L 330.836 408.245 L 333.872 428.419 Z M 326.692 431.816 Q 326.692 432.819 326.525 433.977 Q 326.358 435.135 325.959 436.345 Q 325.56 437.554 324.917 438.751 Q 324.274 439.947 323.321 441.002 Q 321.108 443.472 318.883 444.63 Q 316.657 445.788 314.186 445.788 Q 312.9 445.788 311.42 445.518 Q 309.941 445.248 308.242 444.656 L 302.71 442.675 L 303.147 441.645 Q 305.772 442.237 307.586 442.533 Q 309.4 442.829 310.018 442.829 Q 312.308 442.829 314.482 442.134 Q 316.657 441.44 318.895 439.767 Q 319.616 439.227 320.478 438.467 Q 321.34 437.708 322.125 436.859 Q 322.91 436.01 323.54 435.135 Q 324.171 434.26 324.454 433.463 Q 322.498 433.463 320.993 433.308 Q 319.487 433.154 318.471 432.6 Q 317.454 432.047 316.94 430.966 Q 316.425 429.886 316.425 427.982 Q 316.425 427.39 316.58 426.553 Q 316.734 425.717 317.043 424.816 Q 317.352 423.916 317.789 423.028 Q 318.226 422.14 318.818 421.445 Q 319.41 420.751 320.118 420.313 Q 320.825 419.876 321.675 419.876 Q 322.704 419.876 323.617 420.39 Q 324.531 420.905 325.213 421.96 Q 325.895 423.015 326.294 424.675 Q 326.692 426.335 326.692 428.599 Z M 324.582 428.959 Q 324.274 427.698 323.862 426.824 Q 323.45 425.949 322.961 425.395 Q 322.472 424.842 321.932 424.585 Q 321.392 424.328 320.877 424.328 Q 320.053 424.328 319.449 424.894 Q 318.844 425.46 318.844 426.232 Q 318.844 427.724 320.221 428.342 Q 321.597 428.959 324.582 428.959 Z M 303.916 433.463 L 289.249 433.463 L 289.249 428.985 L 302.038 428.985 Q 302.038 425.897 301.317 424.353 Q 301.06 423.787 300.455 423.002 Q 299.851 422.217 298.898 421.162 L 300.828 417.122 L 301.008 417.122 Q 302.758 419.335 303.221 420.648 Q 303.916 422.655 303.916 427.184 Z M 301.497 410.355 L 299.516 414.112 L 295.373 411.899 L 297.277 408.142 Z M 291.058 433.205 L 289.257 433.463 Q 287.481 433.463 286.414 432.176 Q 285.346 430.889 284.831 428.316 Q 284.213 425.125 283.905 418.744 Q 283.596 412.156 283.287 410.406 Q 282.747 407.396 280.997 405.749 L 284.033 400.962 L 284.213 400.962 Q 285.5 405.131 285.86 412.619 L 286.375 424.25 Q 286.607 426.618 287.507 427.904 Q 288.228 428.985 289.051 428.985 L 291.058 428.985 Z M 278.965 433.463 L 254.416 433.463 Q 242.863 433.463 242.863 424.971 Q 242.863 422.552 243.943 420.082 Q 244.304 419.258 245.796 416.659 L 246.568 417.148 L 245.462 419.516 Q 244.715 421.368 244.715 422.784 Q 244.715 425.846 247.906 427.493 Q 250.737 428.985 255.137 428.985 L 276.932 428.985 L 276.932 428.29 Q 276.932 422.861 273.87 420.493 L 275.852 416.299 Q 276.572 417.2 277.048 417.882 Q 277.524 418.563 277.73 419.052 Q 278.965 421.806 278.965 426.463 Z M 266.459 411.976 L 264.452 415.681 L 260.386 413.52 L 258.997 416.145 L 254.828 413.983 L 256.732 410.252 L 260.85 412.362 L 262.213 409.789 Z M 219.947 430.117 Q 210.863 433.463 201.548 433.463 L 195.141 433.463 L 195.141 428.985 L 201.548 428.985 Q 200.725 427.621 200.3 426.412 Q 199.876 425.202 199.876 423.684 Q 199.876 423.067 200.004 422.372 Q 200.133 421.677 200.429 421.008 Q 200.725 420.339 201.175 419.709 Q 201.626 419.078 202.243 418.563 Q 203.607 417.483 205.035 416.801 Q 206.463 416.119 208.316 416.119 Q 210.066 416.119 211.442 416.595 Q 212.819 417.071 213.874 417.869 Q 214.286 418.177 215.045 418.872 Q 215.804 419.567 216.885 420.828 L 216.396 421.265 Q 212.871 420.288 210.272 420.288 Q 206.721 420.288 204.662 421.085 Q 203.684 421.497 202.976 422.037 Q 202.269 422.578 202.269 423.144 Q 202.269 423.736 202.706 424.456 Q 203.144 425.177 203.903 425.923 Q 204.662 426.669 205.666 427.377 Q 206.669 428.084 207.827 428.651 Q 209.551 428.393 211.237 428.072 Q 212.922 427.75 214.62 427.351 Q 216.319 426.952 218.069 426.476 Q 219.818 426 221.723 425.434 Z M 196.946 433.205 L 195.144 433.463 L 194.269 433.463 Q 189.869 433.463 185.984 430.22 Q 184.543 431.996 182.999 432.716 Q 181.3 433.463 178.393 433.463 L 174.378 433.463 L 174.378 428.985 L 178.315 428.985 Q 182.458 428.985 185.057 425.202 Q 186.601 422.938 188.943 421.24 Q 190.95 419.799 192.7 419.361 Q 196.946 425.82 196.946 428.985 Z M 193.986 428.393 Q 193.42 425.666 191.387 422.964 Q 189.457 423.478 187.965 425.949 Q 190.204 428.316 193.755 428.728 Z M 179.91 431.816 Q 179.91 432.819 179.743 433.977 Q 179.575 435.135 179.177 436.345 Q 178.778 437.554 178.134 438.751 Q 177.491 439.947 176.539 441.002 Q 174.326 443.472 172.1 444.63 Q 169.874 445.788 167.404 445.788 Q 166.117 445.788 164.638 445.518 Q 163.158 445.248 161.46 444.656 L 155.927 442.675 L 156.365 441.645 Q 158.99 442.237 160.804 442.533 Q 162.618 442.829 163.235 442.829 Q 165.526 442.829 167.7 442.134 Q 169.874 441.44 172.113 439.767 Q 172.834 439.227 173.696 438.467 Q 174.558 437.708 175.342 436.859 Q 176.127 436.01 176.758 435.135 Q 177.388 434.26 177.671 433.463 Q 175.716 433.463 174.21 433.308 Q 172.705 433.154 171.688 432.6 Q 170.672 432.047 170.157 430.966 Q 169.643 429.886 169.643 427.982 Q 169.643 427.39 169.797 426.553 Q 169.952 425.717 170.26 424.816 Q 170.569 423.916 171.007 423.028 Q 171.444 422.14 172.036 421.445 Q 172.628 420.751 173.335 420.313 Q 174.043 419.876 174.892 419.876 Q 175.921 419.876 176.835 420.39 Q 177.748 420.905 178.43 421.96 Q 179.112 423.015 179.511 424.675 Q 179.91 426.335 179.91 428.599 Z M 177.8 428.959 Q 177.491 427.698 177.079 426.824 Q 176.668 425.949 176.179 425.395 Q 175.69 424.842 175.15 424.585 Q 174.609 424.328 174.094 424.328 Q 173.271 424.328 172.666 424.894 Q 172.062 425.46 172.062 426.232 Q 172.062 427.724 173.438 428.342 Q 174.815 428.959 177.8 428.959 Z M 157.14 433.463 L 154.464 433.463 Q 150.089 433.463 146.178 430.22 Q 144.711 432.022 143.193 432.716 Q 141.546 433.463 138.587 433.463 L 134.573 433.463 L 134.573 428.985 L 138.51 428.985 Q 142.653 428.985 145.252 425.202 Q 146.796 422.938 149.137 421.265 Q 151.196 419.773 152.894 419.361 Q 157.14 425.794 157.14 428.985 Z M 154.181 428.393 Q 153.589 425.614 151.582 422.964 Q 149.678 423.453 148.16 425.949 Q 150.398 428.316 153.949 428.728 Z M 136.376 433.205 L 134.575 433.463 L 131.873 433.463 Q 123.921 433.463 123.921 435.264 Q 123.921 436.01 126.314 436.113 Q 126.958 436.139 128.051 436.229 Q 129.145 436.319 130.689 436.447 Q 133.134 436.731 133.134 438.172 Q 133.134 443.009 129.943 445.197 Q 126.495 447.564 118.569 447.564 Q 113.037 447.564 109.769 445.685 Q 106.295 443.678 106.295 439.973 Q 106.295 436.962 107.942 433.643 Q 108.276 432.974 109.048 431.687 Q 109.82 430.4 111.055 428.47 L 112.084 428.985 L 110.129 432.305 Q 108.688 435.109 108.688 436.936 Q 108.688 440.076 111.982 441.748 Q 115.095 443.318 120.602 443.318 Q 124.153 443.318 127.112 442.726 Q 130.535 442.031 130.535 440.848 Q 130.535 440.127 128.862 439.973 L 124.745 439.716 Q 121.734 439.535 121.734 438.017 Q 121.734 433.231 125.774 430.761 Q 128.656 428.985 131.873 428.985 L 136.376 428.985 Z M 126.495 451.347 L 124.487 455.052 L 120.422 452.891 L 119.032 455.515 L 114.864 453.354 L 116.768 449.622 L 120.885 451.733 L 122.249 449.159 Z" style="fill: rgb(255, 255, 255); white-space: pre;"/>
      <path d="M 212.307 474.898 L 246.463 474.898 L 246.463 483.878 L 235.003 483.878 L 235.003 511.262 L 223.767 511.262 L 223.767 483.878 L 212.307 483.878 Z M 264.479 505.259 L 251.68 505.259 L 249.919 511.262 L 238.434 511.262 L 252.101 474.898 L 264.355 474.898 L 278.022 511.262 L 266.265 511.262 Z M 262.122 497.396 L 258.104 484.324 L 254.111 497.396 Z M 273.477 474.898 L 285.855 474.898 L 292.304 486.085 L 298.555 474.898 L 310.808 474.898 L 299.498 492.51 L 311.875 511.262 L 299.249 511.262 L 292.081 499.579 L 284.888 511.262 L 272.336 511.262 L 284.888 492.311 Z M 310.322 474.898 L 321.583 474.898 L 321.583 511.262 L 310.322 511.262 Z" style="fill: rgb(255, 255, 255); white-space: pre;"/>
      <path d="M 443.634 407.092 L 432.164 408.508 Q 431.711 406.101 430.649 405.11 Q 429.587 404.118 428.029 404.118 Q 425.225 404.118 423.668 406.951 Q 422.535 408.99 421.997 415.673 Q 424.064 413.577 426.245 412.572 Q 428.426 411.567 431.286 411.567 Q 436.837 411.567 440.674 415.532 Q 444.511 419.496 444.511 425.585 Q 444.511 429.692 442.572 433.09 Q 440.632 436.489 437.191 438.23 Q 433.75 439.972 428.567 439.972 Q 422.337 439.972 418.57 437.848 Q 414.803 435.724 412.552 431.065 Q 410.301 426.407 410.301 418.732 Q 410.301 407.489 415.03 402.264 Q 419.76 397.038 428.142 397.038 Q 433.098 397.038 435.973 398.185 Q 438.847 399.332 440.745 401.541 Q 442.642 403.75 443.634 407.092 Z M 422.393 425.585 Q 422.393 428.955 424.093 430.867 Q 425.792 432.779 428.256 432.779 Q 430.521 432.779 432.051 431.051 Q 433.58 429.324 433.58 425.897 Q 433.58 422.385 431.994 420.544 Q 430.408 418.703 428.057 418.703 Q 425.65 418.703 424.022 420.488 Q 422.393 422.272 422.393 425.585 Z" style="fill: rgb(255, 255, 255); white-space: pre;"/>
      <path d="M 195.368 -87.55 L 197.425 -83.946 C 197.681 -83.494 197.921 -83.232 198.143 -83.157 C 198.366 -83.082 198.728 -83.188 199.23 -83.473 C 199.46 -83.604 199.722 -83.767 200.014 -83.962 L 201.078 -82.097 C 200.417 -81.556 199.923 -81.196 199.602 -81.014 C 198.553 -80.417 197.694 -80.197 197.024 -80.348 C 196.356 -80.501 195.72 -81.103 195.12 -82.156 L 192.858 -86.122 L 191.505 -85.354 L 190.387 -87.312 L 191.885 -88.162 L 190.653 -90.792 L 192.721 -92.192 L 194.252 -89.508 L 196.095 -90.555 L 197.214 -88.598 L 195.368 -87.55 Z M 210.115 -89.099 L 204.272 -86.679 C 204.332 -86.516 204.387 -86.374 204.438 -86.254 C 204.707 -85.608 205.08 -85.193 205.562 -85.007 C 206.044 -84.82 206.524 -84.826 207.004 -85.025 C 207.897 -85.393 208.236 -86.093 208.019 -87.116 L 210.521 -87.943 C 210.715 -85.57 209.773 -83.952 207.699 -83.095 C 206.795 -82.72 205.95 -82.583 205.168 -82.682 C 204.386 -82.782 203.645 -83.095 202.946 -83.618 C 202.247 -84.141 201.696 -84.888 201.294 -85.858 C 200.695 -87.299 200.622 -88.634 201.08 -89.86 C 201.535 -91.087 202.412 -91.966 203.706 -92.502 C 204.875 -92.986 206.048 -92.991 207.227 -92.513 C 208.404 -92.037 209.367 -90.9 210.115 -89.099 Z M 203.618 -88.228 L 206.844 -89.564 C 206.244 -90.774 205.473 -91.183 204.533 -90.794 C 203.525 -90.378 203.22 -89.522 203.618 -88.228 Z M 217.525 -96.083 C 219.018 -96.23 220.23 -95.856 221.162 -94.966 C 222.094 -94.077 222.632 -92.9 222.777 -91.436 C 222.919 -89.994 222.605 -88.746 221.83 -87.698 C 221.058 -86.65 219.951 -86.054 218.51 -85.913 C 217.116 -85.775 215.953 -86.142 215.023 -87.015 C 214.092 -87.885 213.553 -89.069 213.406 -90.564 C 213.304 -91.601 213.404 -92.5 213.711 -93.263 C 214.018 -94.026 214.479 -94.662 215.092 -95.17 C 215.708 -95.679 216.518 -95.984 217.525 -96.083 Z M 217.79 -94.205 C 217.24 -94.151 216.849 -93.901 216.612 -93.45 C 216.376 -93.001 216.319 -92.148 216.445 -90.893 C 216.559 -89.737 216.772 -88.922 217.087 -88.447 C 217.402 -87.97 217.84 -87.758 218.4 -87.816 C 218.891 -87.863 219.268 -88.115 219.529 -88.575 C 219.79 -89.033 219.861 -89.865 219.742 -91.069 C 219.615 -92.352 219.397 -93.209 219.082 -93.64 C 218.769 -94.07 218.339 -94.259 217.79 -94.205 Z M 228.745 -87.478 L 225.974 -86.994 L 224.28 -96.657 L 226.896 -97.115 L 227.213 -95.316 C 227.379 -96.725 227.959 -97.516 228.949 -97.69 C 229.09 -97.713 229.265 -97.734 229.472 -97.751 L 229.966 -94.939 C 229.384 -94.838 228.947 -94.67 228.655 -94.434 C 228.365 -94.199 228.157 -93.832 228.032 -93.335 C 227.911 -92.836 227.917 -92.195 228.056 -91.41 L 228.745 -87.478 Z M 234.735 -98.758 L 236.512 -89.108 L 233.659 -88.585 L 231.883 -98.233 L 234.735 -98.758 Z M 234.061 -102.416 L 234.584 -99.568 L 231.731 -99.045 L 231.208 -101.892 L 234.061 -102.416 Z M 248.251 -90.386 L 245.446 -90.173 C 245.327 -90.554 245.242 -91.059 245.193 -91.693 C 244.755 -90.958 244.3 -90.458 243.829 -90.191 C 243.358 -89.925 242.812 -89.768 242.191 -89.721 C 241.272 -89.651 240.512 -89.843 239.907 -90.296 C 239.304 -90.751 238.97 -91.398 238.905 -92.238 C 238.858 -92.851 238.98 -93.428 239.27 -93.969 C 239.562 -94.512 240.061 -94.957 240.769 -95.305 C 241.479 -95.655 242.794 -95.974 244.718 -96.264 L 244.675 -96.827 C 244.602 -97.775 244.09 -98.212 243.14 -98.14 C 242.122 -98.064 241.593 -97.545 241.55 -96.588 L 238.863 -96.636 C 238.952 -97.76 239.418 -98.587 240.263 -99.12 C 241.107 -99.651 242.086 -99.959 243.198 -100.046 C 243.865 -100.096 244.497 -100.065 245.099 -99.956 C 245.699 -99.845 246.176 -99.648 246.53 -99.363 C 246.884 -99.077 247.131 -98.768 247.275 -98.43 C 247.419 -98.095 247.523 -97.496 247.588 -96.639 L 247.927 -92.202 C 247.992 -91.349 248.102 -90.745 248.251 -90.386 Z M 244.827 -94.839 C 242.817 -94.486 241.85 -93.8 241.928 -92.779 C 241.955 -92.437 242.085 -92.15 242.316 -91.917 C 242.55 -91.686 242.863 -91.584 243.257 -91.613 C 243.767 -91.653 244.181 -91.897 244.494 -92.345 C 244.809 -92.795 244.943 -93.33 244.894 -93.949 L 244.827 -94.839 Z M 254.245 -90.646 L 251.24 -90.608 L 251.202 -93.609 L 254.209 -93.644 L 254.245 -90.646 Z M 257.411 -87.322 L 257.411 -100.443 L 260.077 -100.443 L 260.077 -99.004 C 260.569 -100.1 261.433 -100.646 262.666 -100.646 C 263.73 -100.646 264.601 -100.22 265.279 -99.369 C 265.959 -98.517 266.296 -97.28 266.296 -95.655 C 266.296 -93.925 265.953 -92.622 265.27 -91.746 C 264.584 -90.867 263.694 -90.428 262.599 -90.428 C 261.489 -90.428 260.697 -90.86 260.223 -91.721 L 260.223 -87.322 L 257.411 -87.322 Z M 260.223 -94.926 C 260.223 -94.233 260.265 -93.754 260.35 -93.488 C 260.434 -93.222 260.612 -92.984 260.886 -92.774 C 261.158 -92.564 261.453 -92.459 261.771 -92.459 C 262.167 -92.459 262.521 -92.662 262.832 -93.066 C 263.143 -93.47 263.298 -94.363 263.298 -95.741 C 263.298 -97.677 262.786 -98.646 261.761 -98.646 C 261.372 -98.646 261.018 -98.474 260.7 -98.131 C 260.384 -97.787 260.223 -97.205 260.223 -96.383 L 260.223 -94.926 Z M 282.821 -87.938 L 280.019 -88.681 L 281.418 -93.927 C 281.614 -94.665 281.719 -95.153 281.735 -95.385 C 281.75 -95.62 281.685 -95.836 281.54 -96.031 C 281.393 -96.227 281.159 -96.368 280.833 -96.455 C 280.525 -96.536 280.182 -96.51 279.804 -96.375 C 279.426 -96.241 279.098 -95.655 278.821 -94.616 L 277.422 -89.369 L 274.63 -90.111 L 276.027 -95.358 C 276.23 -96.116 276.326 -96.613 276.316 -96.854 C 276.306 -97.095 276.223 -97.309 276.068 -97.498 C 275.915 -97.687 275.69 -97.819 275.395 -97.897 C 274.913 -98.026 274.513 -97.969 274.197 -97.728 C 273.88 -97.486 273.607 -96.93 273.375 -96.062 L 271.976 -90.815 L 269.257 -91.537 L 271.784 -101.015 L 274.418 -100.318 L 274.034 -98.872 C 274.77 -99.848 275.807 -100.16 277.142 -99.805 C 278.353 -99.483 279.082 -98.704 279.328 -97.465 C 280.146 -98.421 281.212 -98.725 282.521 -98.378 C 283.149 -98.212 283.654 -97.939 284.037 -97.565 C 284.42 -97.187 284.655 -96.767 284.738 -96.303 C 284.823 -95.839 284.73 -95.102 284.463 -94.095 L 282.821 -87.938 Z M 289.152 -97.888 L 289.108 -88.078 L 286.208 -88.091 L 286.253 -97.901 L 289.152 -97.888 Z M 289.17 -101.607 L 289.155 -98.714 L 286.256 -98.725 L 286.269 -101.62 L 289.17 -101.607 Z M 301.088 -97.361 L 298.015 -92.983 L 301.037 -87.54 L 297.733 -87.716 L 295.873 -91.2 L 293.69 -87.931 L 291.213 -88.063 L 294.73 -93.157 L 292.184 -97.836 L 295.488 -97.659 L 296.911 -94.929 L 298.608 -97.493 L 301.088 -97.361 Z M 305.958 -87.354 L 302.962 -87.612 L 303.221 -90.603 L 306.217 -90.345 L 305.958 -87.354 Z M 317.317 -84.737 L 314.47 -85.286 L 315.517 -90.693 C 315.645 -91.346 315.705 -91.801 315.702 -92.052 C 315.698 -92.303 315.613 -92.533 315.448 -92.738 C 315.283 -92.945 315.052 -93.077 314.752 -93.136 C 313.751 -93.329 313.109 -92.688 312.822 -91.213 L 311.776 -85.806 L 308.928 -86.355 L 310.794 -95.987 L 313.44 -95.477 L 313.125 -93.845 C 313.715 -94.536 314.245 -94.952 314.714 -95.09 C 315.184 -95.231 315.668 -95.253 316.165 -95.157 C 317.082 -94.981 317.774 -94.591 318.239 -93.992 C 318.705 -93.39 318.796 -92.368 318.517 -90.926 L 317.317 -84.737 Z M 329.985 -86.603 L 323.755 -87.706 C 323.717 -87.534 323.69 -87.385 323.665 -87.258 C 323.543 -86.568 323.634 -86.018 323.939 -85.602 C 324.245 -85.186 324.653 -84.934 325.163 -84.842 C 326.115 -84.673 326.777 -85.079 327.15 -86.06 L 329.703 -85.41 C 328.585 -83.305 326.919 -82.451 324.708 -82.842 C 323.743 -83.012 322.959 -83.351 322.353 -83.854 C 321.748 -84.36 321.292 -85.021 320.987 -85.838 C 320.68 -86.655 320.62 -87.581 320.803 -88.613 C 321.076 -90.15 321.735 -91.312 322.783 -92.099 C 323.828 -92.888 325.041 -93.159 326.422 -92.914 C 327.667 -92.695 328.658 -92.066 329.393 -91.033 C 330.128 -89.998 330.326 -88.521 329.985 -86.603 Z M 324.04 -89.362 L 327.481 -88.753 C 327.626 -90.094 327.197 -90.854 326.195 -91.033 C 325.122 -91.222 324.404 -90.665 324.04 -89.362 Z M 338.153 -87.555 L 336.36 -83.814 C 336.135 -83.346 336.055 -83.001 336.12 -82.775 C 336.185 -82.55 336.477 -82.314 336.999 -82.066 C 337.239 -81.951 337.522 -81.83 337.849 -81.703 L 336.922 -79.766 C 336.099 -80.001 335.52 -80.199 335.188 -80.356 C 334.099 -80.876 333.426 -81.454 333.17 -82.091 C 332.914 -82.726 333.047 -83.59 333.571 -84.681 L 335.547 -88.8 L 334.141 -89.47 L 335.116 -91.504 L 336.67 -90.761 L 338.132 -93.271 L 340.464 -92.373 L 339.128 -89.588 L 341.041 -88.673 L 340.067 -86.64 L 338.153 -87.555 Z" style="fill: rgb(51, 51, 51); white-space: pre; mix-blend-mode: color-dodge; opacity: 0.47;"/>
      <g id="g-2" transform="matrix(2.090677, 0, 0, 2.090677, 239.426788, 221.282608)" style="visibility: hidden;">
        <path id="path-1" transform="matrix(0.17273859,0,0,0.17273859,73.158541,-109.65662)" style="fill: rgb(180, 10, 0); fill-opacity: 1; stroke: none; stroke-width: 3.0634; stroke-linecap: round; stroke-linejoin: round; stroke-miterlimit: 4; stroke-dasharray: none; stroke-opacity: 1;" d="m -350.73047,286.61328 c -188.71025,-9.1e-4 -341.69036,152.9792 -341.68945,341.68945 1.7e-4,188.70949 152.97996,341.68841 341.68945,341.6875 C -162.02174,969.99006 -9.0431345,817.01146 -9.0429688,628.30273 -9.0420575,439.59324 -162.02098,286.61345 -350.73047,286.61328 Z"/>
        <path id="path-3" transform="matrix(0.17273859,0,0,0.17273859,73.158541,-109.65662)" style="fill-opacity: 1; stroke: none; stroke-width: 3.0634; stroke-linecap: round; stroke-linejoin: round; stroke-miterlimit: 4; stroke-dasharray: none; stroke-opacity: 1; fill: rgb(0, 19, 165);" d="m -348.48047,352.99609 c -152.85554,1.1e-4 -276.76942,123.91399 -276.76953,276.76953 10e-5,152.85555 123.91398,276.76943 276.76953,276.76954 152.85555,-1.1e-4 276.769427,-123.91399 276.769532,-276.76954 C -71.711048,476.91007 -195.62492,352.9962 -348.48047,352.99609 Z"/>
      </g>
      <g id="g-3" transform="matrix(2.967024, 0, 0, 2.40812, 194.645248, -489.422913)" style="visibility: hidden;">
        <path id="path-4" style="fill: rgb(180, 10, 0); fill-opacity: 1;" d="M -6.231 265.707 L 47.403 331.8 L 54.421 323.412 L 0.89 256.81 L -6.231 265.707 Z"/>
        <path id="path-2" style="fill-opacity: 1; stroke-width: 0px; opacity: 0.81;" d="M -9.041 325.198 L 48.616 252.097 C 51.971 255.35 53.917 258.044 55.908 261.215 L -1.237 334.106 C -4.897 330.651 -6.585 328.904 -9.041 325.198 Z" transform="matrix(-1, 0, 0, -1, 46.860996, 586.529007)"/>
      </g>
      <path d="M 227.086 115.937 L 228.53 118.468 C 228.712 118.784 228.88 118.97 229.036 119.023 C 229.192 119.075 229.446 119.001 229.799 118.8 C 229.96 118.709 230.144 118.594 230.349 118.456 L 231.096 119.767 C 230.632 120.147 230.286 120.401 230.059 120.529 C 229.324 120.947 228.72 121.103 228.25 120.996 C 227.779 120.889 227.333 120.466 226.911 119.726 L 225.322 116.939 L 224.37 117.479 L 223.586 116.103 L 224.638 115.505 L 223.773 113.658 L 225.226 112.675 L 226.302 114.561 L 227.597 113.824 L 228.382 115.2 L 227.086 115.937 Z M 237.445 114.848 L 233.34 116.548 C 233.383 116.663 233.422 116.762 233.457 116.847 C 233.645 117.3 233.91 117.593 234.247 117.722 C 234.586 117.855 234.923 117.849 235.26 117.71 C 235.887 117.451 236.125 116.96 235.973 116.24 L 237.731 115.66 C 237.867 117.328 237.206 118.463 235.75 119.066 C 235.113 119.329 234.521 119.426 233.971 119.356 C 233.42 119.286 232.901 119.066 232.41 118.697 C 231.919 118.329 231.532 117.806 231.249 117.124 C 230.828 116.113 230.778 115.175 231.098 114.314 C 231.419 113.451 232.034 112.834 232.943 112.457 C 233.764 112.117 234.588 112.114 235.416 112.449 C 236.244 112.783 236.92 113.584 237.445 114.848 Z M 232.881 115.459 L 235.148 114.521 C 234.726 113.672 234.185 113.384 233.524 113.656 C 232.816 113.95 232.602 114.55 232.881 115.459 Z M 242.653 109.941 C 243.7 109.839 244.552 110.1 245.207 110.725 C 245.862 111.352 246.24 112.178 246.342 113.207 C 246.442 114.22 246.22 115.095 245.676 115.832 C 245.134 116.569 244.356 116.987 243.345 117.086 C 242.364 117.183 241.547 116.925 240.895 116.312 C 240.24 115.7 239.862 114.869 239.759 113.819 C 239.686 113.09 239.757 112.458 239.973 111.922 C 240.187 111.387 240.511 110.941 240.943 110.582 C 241.375 110.225 241.945 110.011 242.653 109.941 Z M 242.838 111.261 C 242.452 111.298 242.177 111.475 242.01 111.791 C 241.845 112.106 241.805 112.705 241.892 113.589 C 241.973 114.398 242.124 114.971 242.345 115.306 C 242.565 115.64 242.872 115.789 243.268 115.75 C 243.612 115.716 243.876 115.539 244.06 115.216 C 244.244 114.894 244.293 114.31 244.21 113.463 C 244.121 112.562 243.966 111.961 243.747 111.658 C 243.526 111.355 243.223 111.223 242.838 111.261 Z M 250.533 115.987 L 248.588 116.327 L 247.397 109.537 L 249.236 109.216 L 249.457 110.481 C 249.574 109.49 249.982 108.934 250.678 108.813 C 250.777 108.795 250.898 108.781 251.045 108.769 L 251.392 110.745 C 250.983 110.817 250.676 110.934 250.471 111.1 C 250.268 111.265 250.122 111.523 250.035 111.872 C 249.947 112.223 249.953 112.672 250.049 113.224 L 250.533 115.987 Z M 254.742 108.063 L 255.991 114.84 L 253.987 115.208 L 252.738 108.43 L 254.742 108.063 Z M 254.269 105.493 L 254.638 107.493 L 252.633 107.86 L 252.265 105.86 L 254.269 105.493 Z M 264.238 113.943 L 262.268 114.094 C 262.184 113.826 262.124 113.47 262.091 113.025 C 261.783 113.543 261.463 113.893 261.132 114.081 C 260.801 114.267 260.418 114.377 259.981 114.412 C 259.336 114.461 258.802 114.326 258.377 114.006 C 257.952 113.687 257.718 113.233 257.672 112.643 C 257.639 112.212 257.725 111.807 257.93 111.426 C 258.134 111.045 258.484 110.733 258.983 110.487 C 259.48 110.242 260.405 110.018 261.756 109.814 L 261.726 109.42 C 261.674 108.753 261.316 108.445 260.648 108.495 C 259.934 108.549 259.561 108.913 259.53 109.586 L 257.642 109.552 C 257.705 108.764 258.033 108.182 258.627 107.807 C 259.22 107.434 259.907 107.217 260.689 107.158 C 261.157 107.122 261.602 107.143 262.024 107.221 C 262.446 107.298 262.782 107.437 263.03 107.637 C 263.278 107.836 263.452 108.056 263.553 108.291 C 263.653 108.528 263.727 108.948 263.772 109.551 L 264.01 112.667 C 264.057 113.266 264.132 113.692 264.238 113.943 Z M 261.832 110.814 C 260.421 111.063 259.742 111.547 259.796 112.262 C 259.815 112.503 259.906 112.705 260.07 112.868 C 260.233 113.032 260.454 113.102 260.73 113.081 C 261.089 113.053 261.38 112.883 261.599 112.566 C 261.82 112.252 261.914 111.876 261.881 111.441 L 261.832 110.814 Z M 268.451 113.762 L 266.338 113.789 L 266.312 111.68 L 268.424 111.654 L 268.451 113.762 Z M 270.674 116.097 L 270.674 106.879 L 272.547 106.879 L 272.547 107.888 C 272.894 107.12 273.499 106.735 274.366 106.735 C 275.113 106.735 275.725 107.035 276.202 107.633 C 276.678 108.231 276.916 109.101 276.916 110.242 C 276.916 111.457 276.676 112.373 276.195 112.99 C 275.714 113.606 275.088 113.913 274.318 113.913 C 273.539 113.913 272.982 113.611 272.649 113.006 L 272.649 116.097 L 270.674 116.097 Z M 272.649 110.754 C 272.649 111.241 272.679 111.578 272.739 111.764 C 272.798 111.951 272.923 112.118 273.114 112.266 C 273.306 112.414 273.514 112.487 273.737 112.487 C 274.015 112.487 274.264 112.346 274.482 112.061 C 274.702 111.777 274.81 111.15 274.81 110.182 C 274.81 108.821 274.45 108.141 273.73 108.141 C 273.457 108.141 273.208 108.261 272.985 108.503 C 272.761 108.744 272.649 109.153 272.649 109.731 L 272.649 110.754 Z M 288.527 115.664 L 286.557 115.142 L 287.54 111.455 C 287.677 110.937 287.751 110.596 287.763 110.43 C 287.774 110.266 287.728 110.115 287.626 109.978 C 287.523 109.84 287.357 109.741 287.128 109.68 C 286.913 109.623 286.671 109.642 286.406 109.736 C 286.14 109.83 285.91 110.242 285.716 110.971 L 284.733 114.658 L 282.771 114.136 L 283.753 110.45 C 283.894 109.918 283.962 109.568 283.955 109.4 C 283.949 109.231 283.89 109.08 283.782 108.948 C 283.674 108.815 283.516 108.721 283.308 108.667 C 282.97 108.576 282.688 108.616 282.467 108.785 C 282.245 108.955 282.052 109.346 281.889 109.957 L 280.908 113.642 L 278.998 113.135 L 280.772 106.475 L 282.622 106.966 L 282.352 107.982 C 282.869 107.295 283.598 107.077 284.536 107.326 C 285.386 107.552 285.898 108.1 286.073 108.969 C 286.647 108.298 287.396 108.085 288.316 108.329 C 288.757 108.446 289.111 108.637 289.381 108.901 C 289.649 109.166 289.814 109.461 289.873 109.787 C 289.933 110.113 289.868 110.63 289.679 111.338 L 288.527 115.664 Z M 292.973 108.674 L 292.943 115.565 L 290.906 115.556 L 290.936 108.664 L 292.973 108.674 Z M 292.985 106.06 L 292.976 108.093 L 290.939 108.084 L 290.947 106.051 L 292.985 106.06 Z M 301.358 109.044 L 299.201 112.119 L 301.324 115.943 L 299.002 115.819 L 297.695 113.372 L 296.162 115.668 L 294.42 115.574 L 296.893 111.996 L 295.104 108.709 L 297.426 108.834 L 298.426 110.753 L 299.617 108.952 L 301.358 109.044 Z M 304.781 116.073 L 302.677 115.892 L 302.858 113.791 L 304.962 113.972 L 304.781 116.073 Z M 312.761 117.913 L 310.761 117.527 L 311.496 113.728 C 311.586 113.269 311.629 112.95 311.626 112.774 C 311.623 112.597 311.564 112.435 311.448 112.291 C 311.332 112.146 311.168 112.053 310.959 112.012 C 310.256 111.877 309.805 112.327 309.604 113.363 L 308.868 117.161 L 306.867 116.775 L 308.178 110.008 L 310.038 110.368 L 309.815 111.514 C 310.231 111.028 310.602 110.736 310.933 110.638 C 311.262 110.54 311.602 110.524 311.951 110.592 C 312.596 110.716 313.081 110.99 313.409 111.41 C 313.736 111.834 313.801 112.552 313.604 113.565 L 312.761 117.913 Z M 321.66 116.602 L 317.283 115.827 C 317.258 115.947 317.237 116.052 317.221 116.142 C 317.135 116.624 317.199 117.013 317.413 117.304 C 317.627 117.597 317.914 117.775 318.274 117.839 C 318.942 117.956 319.408 117.672 319.668 116.983 L 321.463 117.439 C 320.676 118.918 319.507 119.519 317.954 119.243 C 317.277 119.124 316.725 118.886 316.299 118.532 C 315.875 118.177 315.553 117.712 315.339 117.138 C 315.123 116.565 315.081 115.914 315.209 115.189 C 315.402 114.11 315.865 113.293 316.601 112.74 C 317.336 112.185 318.188 111.995 319.158 112.167 C 320.033 112.322 320.729 112.762 321.245 113.488 C 321.762 114.216 321.899 115.253 321.66 116.602 Z M 317.484 114.663 L 319.901 115.091 C 320.004 114.148 319.702 113.614 318.999 113.49 C 318.245 113.356 317.74 113.748 317.484 114.663 Z M 327.399 115.933 L 326.139 118.561 C 325.981 118.889 325.926 119.132 325.971 119.29 C 326.017 119.448 326.222 119.615 326.588 119.79 C 326.756 119.87 326.956 119.955 327.186 120.045 L 326.534 121.405 C 325.956 121.239 325.55 121.102 325.316 120.989 C 324.55 120.624 324.078 120.218 323.898 119.771 C 323.718 119.325 323.812 118.718 324.18 117.951 L 325.567 115.058 L 324.581 114.586 L 325.266 113.159 L 326.357 113.68 L 327.385 111.917 L 329.022 112.548 L 328.084 114.504 L 329.428 115.147 L 328.744 116.576 L 327.399 115.933 Z" style="fill: rgb(51, 51, 51); white-space: pre; mix-blend-mode: color-dodge; opacity: 0.28;"/>
    </g>
  </g>
</svg>