<?xml version="1.0" encoding="utf-8"?>
<svg viewBox="0 0 61 61" width="61mm" height="61mm" xmlns="http://www.w3.org/2000/svg">
  <g id="layer1" transform="matrix(1, 0, 0, 1, 0, -236)" style="">
    <circle style="opacity:1;fill:#dc0a14;fill-opacity:1;fill-rule:nonzero;stroke:none;stroke-width:0.18410923;stroke-linecap:square;stroke-linejoin:round;stroke-miterlimit:4;stroke-dasharray:none;stroke-opacity:1;paint-order:stroke fill markers" id="path17" cx="30.500002" cy="266.5" r="30.000002"/>
    <circle r="24" cy="266.5" cx="30.500002" id="circle1748" style="opacity:1;fill:#ffffff;fill-opacity:1;fill-rule:nonzero;stroke:none;stroke-width:0.14728737;stroke-linecap:square;stroke-linejoin:round;stroke-miterlimit:4;stroke-dasharray:none;stroke-opacity:1;paint-order:stroke fill markers"/>
    <path d="M 19.623 241.216 L 19.956 241.878 C 19.999 241.96 20.037 242.009 20.073 242.022 C 20.109 242.037 20.168 242.017 20.249 241.965 C 20.287 241.941 20.329 241.911 20.377 241.874 L 20.55 242.217 C 20.442 242.316 20.362 242.382 20.31 242.416 C 20.14 242.525 20 242.566 19.892 242.538 C 19.783 242.509 19.68 242.4 19.583 242.207 L 19.216 241.479 L 18.997 241.619 L 18.815 241.26 L 19.058 241.104 L 18.858 240.621 L 19.194 240.364 L 19.442 240.857 L 19.741 240.665 L 19.923 241.023 L 19.623 241.216 Z M 22.016 240.932 L 21.067 241.376 C 21.078 241.406 21.086 241.432 21.095 241.454 C 21.139 241.572 21.199 241.649 21.277 241.683 C 21.356 241.718 21.433 241.716 21.511 241.68 C 21.656 241.612 21.711 241.484 21.676 241.296 L 22.082 241.144 C 22.113 241.58 21.96 241.876 21.624 242.034 C 21.477 242.103 21.34 242.128 21.213 242.109 C 21.086 242.091 20.966 242.034 20.853 241.937 C 20.739 241.842 20.65 241.704 20.584 241.526 C 20.487 241.263 20.476 241.017 20.55 240.792 C 20.624 240.567 20.766 240.406 20.976 240.307 C 21.165 240.218 21.356 240.217 21.547 240.305 C 21.738 240.393 21.894 240.601 22.016 240.932 Z M 20.962 241.092 L 21.485 240.846 C 21.388 240.624 21.262 240.55 21.11 240.62 C 20.947 240.697 20.897 240.854 20.962 241.092 Z M 23.218 239.65 C 23.461 239.623 23.657 239.691 23.808 239.855 C 23.96 240.018 24.047 240.234 24.071 240.503 C 24.093 240.767 24.043 240.997 23.916 241.189 C 23.791 241.381 23.612 241.491 23.378 241.517 C 23.152 241.542 22.963 241.475 22.813 241.314 C 22.661 241.154 22.574 240.937 22.55 240.663 C 22.533 240.473 22.55 240.308 22.6 240.168 C 22.649 240.028 22.724 239.911 22.824 239.817 C 22.923 239.724 23.054 239.668 23.218 239.65 Z M 23.261 239.994 C 23.172 240.004 23.109 240.051 23.07 240.133 C 23.032 240.216 23.022 240.372 23.043 240.603 C 23.062 240.814 23.096 240.964 23.147 241.052 C 23.198 241.139 23.269 241.178 23.361 241.168 C 23.44 241.159 23.501 241.112 23.543 241.028 C 23.585 240.944 23.597 240.791 23.578 240.57 C 23.557 240.334 23.522 240.178 23.471 240.099 C 23.42 240.019 23.35 239.985 23.261 239.994 Z M 25.038 241.23 L 24.589 241.318 L 24.314 239.544 L 24.739 239.46 L 24.79 239.791 C 24.817 239.532 24.912 239.387 25.072 239.355 C 25.095 239.35 25.123 239.347 25.157 239.344 L 25.236 239.86 C 25.143 239.878 25.071 239.909 25.024 239.953 C 24.977 239.996 24.943 240.063 24.923 240.155 C 24.903 240.246 24.905 240.364 24.926 240.508 L 25.038 241.23 Z M 26.011 239.159 L 26.299 240.93 L 25.836 241.026 L 25.548 239.256 L 26.011 239.159 Z M 25.901 238.488 L 25.986 239.01 L 25.523 239.106 L 25.438 238.583 L 25.901 238.488 Z M 28.204 240.696 L 27.749 240.735 C 27.729 240.665 27.715 240.572 27.707 240.456 C 27.636 240.59 27.563 240.682 27.487 240.731 C 27.41 240.78 27.321 240.809 27.22 240.818 C 27.071 240.83 26.948 240.795 26.85 240.712 C 26.752 240.628 26.697 240.51 26.687 240.356 C 26.679 240.243 26.7 240.137 26.747 240.038 C 26.794 239.939 26.874 239.857 26.989 239.792 C 27.105 239.729 27.318 239.67 27.631 239.617 L 27.624 239.513 C 27.612 239.34 27.529 239.259 27.375 239.273 C 27.209 239.287 27.123 239.381 27.116 239.557 L 26.68 239.549 C 26.695 239.342 26.77 239.19 26.907 239.093 C 27.044 238.995 27.203 238.939 27.384 238.923 C 27.492 238.913 27.595 238.919 27.692 238.94 C 27.79 238.959 27.867 238.995 27.924 239.048 C 27.982 239.101 28.022 239.157 28.046 239.219 C 28.068 239.28 28.086 239.39 28.096 239.548 L 28.151 240.363 C 28.161 240.519 28.179 240.63 28.204 240.696 Z M 27.648 239.878 C 27.322 239.943 27.165 240.069 27.178 240.256 C 27.182 240.319 27.203 240.372 27.241 240.415 C 27.278 240.457 27.329 240.476 27.393 240.47 C 27.476 240.463 27.543 240.419 27.594 240.336 C 27.646 240.254 27.667 240.155 27.659 240.041 L 27.648 239.878 Z M 29.176 240.648 L 28.688 240.655 L 28.682 240.104 L 29.171 240.098 L 29.176 240.648 Z M 29.69 241.258 L 29.69 238.85 L 30.123 238.85 L 30.123 239.114 C 30.203 238.913 30.343 238.813 30.542 238.813 C 30.715 238.813 30.856 238.891 30.967 239.047 C 31.077 239.203 31.132 239.43 31.132 239.729 C 31.132 240.046 31.076 240.285 30.965 240.446 C 30.854 240.607 30.71 240.688 30.532 240.688 C 30.351 240.688 30.223 240.609 30.146 240.45 L 30.146 241.258 L 29.69 241.258 Z M 30.146 239.862 C 30.146 239.99 30.153 240.078 30.167 240.126 C 30.181 240.175 30.21 240.218 30.253 240.257 C 30.298 240.296 30.346 240.315 30.397 240.315 C 30.462 240.315 30.519 240.278 30.57 240.203 C 30.62 240.13 30.645 239.966 30.645 239.713 C 30.645 239.358 30.562 239.18 30.396 239.18 C 30.332 239.18 30.275 239.211 30.224 239.274 C 30.172 239.337 30.146 239.444 30.146 239.595 L 30.146 239.862 Z M 33.813 241.145 L 33.358 241.008 L 33.586 240.046 C 33.617 239.91 33.634 239.821 33.637 239.778 C 33.64 239.735 33.629 239.696 33.605 239.66 C 33.582 239.623 33.543 239.598 33.49 239.582 C 33.441 239.567 33.385 239.572 33.323 239.597 C 33.262 239.621 33.209 239.729 33.164 239.919 L 32.937 240.883 L 32.484 240.746 L 32.71 239.784 C 32.743 239.644 32.759 239.552 32.757 239.508 C 32.756 239.464 32.742 239.425 32.717 239.39 C 32.692 239.356 32.656 239.331 32.608 239.317 C 32.529 239.293 32.465 239.304 32.413 239.348 C 32.363 239.392 32.318 239.495 32.28 239.654 L 32.053 240.617 L 31.613 240.484 L 32.022 238.745 L 32.449 238.873 L 32.387 239.138 C 32.507 238.959 32.675 238.901 32.892 238.967 C 33.088 239.025 33.207 239.169 33.246 239.397 C 33.379 239.221 33.552 239.165 33.764 239.229 C 33.866 239.259 33.948 239.309 34.011 239.378 C 34.072 239.447 34.111 239.524 34.124 239.61 C 34.137 239.695 34.123 239.83 34.08 240.015 L 33.813 241.145 Z M 34.841 239.319 L 34.833 241.119 L 34.363 241.117 L 34.37 239.317 L 34.841 239.319 Z M 34.843 238.636 L 34.841 239.167 L 34.37 239.165 L 34.372 238.634 L 34.843 238.636 Z M 36.777 239.415 L 36.278 240.219 L 36.769 241.218 L 36.233 241.185 L 35.93 240.546 L 35.576 241.147 L 35.175 241.122 L 35.746 240.187 L 35.332 239.328 L 35.868 239.361 L 36.099 239.861 L 36.374 239.391 L 36.777 239.415 Z M 37.567 241.252 L 37.081 241.205 L 37.123 240.656 L 37.609 240.703 L 37.567 241.252 Z M 39.41 241.733 L 38.948 241.632 L 39.118 240.639 C 39.139 240.519 39.149 240.436 39.148 240.39 C 39.147 240.344 39.133 240.302 39.107 240.264 C 39.08 240.225 39.042 240.202 38.994 240.191 C 38.832 240.155 38.728 240.273 38.681 240.544 L 38.511 241.536 L 38.049 241.435 L 38.352 239.668 L 38.781 239.761 L 38.73 240.061 C 38.826 239.934 38.912 239.858 38.988 239.832 C 39.064 239.807 39.143 239.802 39.223 239.82 C 39.372 239.853 39.484 239.923 39.56 240.034 C 39.635 240.144 39.65 240.332 39.605 240.597 L 39.41 241.733 Z M 41.466 241.39 L 40.455 241.187 C 40.449 241.219 40.444 241.247 40.44 241.27 C 40.42 241.396 40.435 241.497 40.485 241.573 C 40.535 241.65 40.6 241.696 40.683 241.713 C 40.838 241.744 40.945 241.67 41.006 241.489 L 41.42 241.609 C 41.239 241.995 40.968 242.152 40.609 242.08 C 40.452 242.049 40.326 241.987 40.227 241.895 C 40.129 241.802 40.055 241.681 40.005 241.53 C 39.956 241.38 39.946 241.21 39.976 241.021 C 40.02 240.739 40.127 240.526 40.297 240.381 C 40.467 240.236 40.663 240.186 40.888 240.232 C 41.09 240.272 41.25 240.388 41.369 240.577 C 41.489 240.767 41.521 241.038 41.466 241.39 Z M 40.501 240.883 L 41.059 240.995 C 41.083 240.749 41.013 240.61 40.851 240.577 C 40.676 240.543 40.56 240.644 40.501 240.883 Z M 42.791 241.216 L 42.5 241.902 C 42.464 241.988 42.45 242.052 42.461 242.092 C 42.472 242.134 42.519 242.177 42.604 242.223 C 42.642 242.244 42.688 242.266 42.742 242.289 L 42.591 242.645 C 42.458 242.602 42.364 242.565 42.31 242.536 C 42.133 242.441 42.024 242.335 41.982 242.218 C 41.941 242.101 41.963 241.943 42.047 241.743 L 42.368 240.987 L 42.14 240.864 L 42.298 240.49 L 42.55 240.627 L 42.787 240.166 L 43.166 240.331 L 42.949 240.842 L 43.259 241.01 L 43.101 241.383 L 42.791 241.216 Z" style="fill: rgb(51, 51, 51); white-space: pre; mix-blend-mode: color-dodge; opacity: 0.28;"/>
  </g>
  <g transform="matrix(-0.002131, 0, 0, -0.002131, 44.32188, 42.076752)" fill="#000000" stroke="none" style="">
    <path d="M11703 10478 c-11 -13 -44 -61 -73 -108 -84 -135 -164 -230 -194 -230 -12 0 -5 58 19 160 25 108 31 175 16 184 -13 9 -59 -30 -220 -186 -117 -113 -160 -148 -184 -152 -18 -3 -111 -10 -207 -16 -535 -33 -826 -119 -1235 -365 -262 -157 -412 -274 -606 -472 -163 -166 -247 -267 -581 -698 -415 -534 -461 -577 -758 -711 -310 -139 -664 -219 -1185 -266 -221 -20 -845 -17 -1025 5 -312 39 -519 79 -1065 208 -563 133 -751 156 -1175 146 -396 -10 -598 -39 -962 -137 -191 -52 -273 -67 -443 -80 -563 -42 -665 -55 -827 -106 -103 -32 -261 -110 -347 -171 -365 -257 -553 -752 -633 -1658 -17 -198 -17 -2194 0 -2505 20 -356 42 -500 92 -619 l29 -66 11 30 c17 45 27 106 42 260 l13 140 6 -315 c6 -295 18 -433 39 -454 13 -13 27 28 66 199 52 230 52 229 51 10 -1 -259 20 -360 78 -387 30 -14 84 15 103 55 7 15 22 102 33 195 11 92 24 181 29 197 16 59 10 -137 -9 -260 -10 -66 -17 -121 -16 -122 0 -2 19 20 40 48 21 28 55 62 75 74 25 16 44 39 58 72 22 52 85 292 206 788 41 171 87 352 100 403 41 153 46 266 81 1952 22 1040 28 1091 152 1404 125 317 215 444 275 389 34 -31 21 -105 -35 -194 -64 -104 -160 -307 -197 -418 -43 -129 -56 -291 -41 -540 18 -320 57 -494 231 -1026 166 -510 194 -632 187 -815 -10 -267 -122 -507 -376 -810 -206 -245 -218 -267 -231 -432 -12 -154 -27 -572 -40 -1104 l-10 -410 -54 -235 c-100 -430 -115 -534 -87 -587 14 -26 85 -61 175 -87 82 -24 88 -36 84 -191 -4 -153 5 -178 92 -264 105 -105 229 -146 415 -137 197 9 274 42 261 112 -24 126 -247 425 -428 572 -92 76 -108 109 -120 247 -12 127 -4 671 12 858 47 543 379 1189 859 1669 170 170 255 235 272 208 12 -18 5 -60 -43 -254 -52 -211 -60 -331 -28 -437 12 -40 77 -188 145 -328 68 -140 128 -273 134 -295 14 -55 23 -117 80 -536 58 -424 92 -632 126 -777 38 -158 59 -190 166 -253 110 -64 114 -70 232 -383 13 -35 39 -78 62 -102 50 -52 94 -63 295 -71 167 -7 193 0 255 69 27 30 34 44 29 61 -20 66 -176 245 -368 422 -64 59 -124 121 -133 138 -9 17 -44 103 -78 192 -34 88 -95 240 -134 337 -108 269 -141 400 -156 628 -18 250 67 886 176 1325 113 455 280 900 484 1295 53 103 155 217 227 255 33 17 43 18 94 7 102 -21 223 -73 452 -192 465 -243 729 -338 1102 -399 313 -51 573 -69 1650 -116 357 -16 650 -34 661 -41 39 -24 54 -850 25 -1359 -35 -599 -76 -1086 -137 -1620 -22 -192 -42 -406 -46 -476 -7 -156 1 -189 60 -221 67 -38 90 -97 126 -335 14 -91 28 -122 60 -131 14 -4 105 -7 201 -6 190 1 268 14 369 60 l54 24 -24 28 c-13 15 -56 61 -95 102 -266 279 -313 372 -335 652 -15 189 -6 558 16 679 36 204 159 588 181 567 8 -9 33 -224 43 -378 6 -85 17 -306 26 -490 35 -782 45 -853 113 -887 61 -30 84 -81 129 -292 13 -63 29 -122 36 -130 28 -34 98 -53 216 -58 254 -12 441 38 441 117 0 57 -81 139 -301 305 -197 150 -234 198 -293 384 -45 144 -60 257 -60 476 -1 274 27 458 111 740 82 273 141 555 163 776 14 134 22 163 178 660 137 436 174 560 241 823 l41 158 102 107 c156 163 213 248 256 379 55 167 91 405 132 877 58 679 55 660 144 865 85 194 118 294 156 475 81 386 262 1009 337 1158 23 46 36 56 48 38 7 -12 204 -89 450 -176 330 -117 413 -164 579 -324 130 -127 188 -206 227 -311 17 -47 43 -106 57 -133 31 -57 113 -137 142 -137 11 0 46 13 76 30 53 28 60 29 143 24 121 -8 156 11 231 129 30 47 82 126 115 175 34 49 69 114 80 145 l19 57 -23 47 c-13 27 -85 154 -161 283 -330 563 -443 802 -536 1133 -66 237 -96 284 -283 452 -129 117 -171 167 -171 204 0 13 14 51 30 85 56 114 106 373 86 450 -8 32 -16 33 -43 4z"/>
  </g>
</svg>