<?xml version="1.0" encoding="utf-8"?>
<svg viewBox="0 0 683.37695 683.37695" width="683.377px" height="683.377px" xmlns="http://www.w3.org/2000/svg">
  <g id="layer1" transform="matrix(5.511535, 0, 0, 5.511535, 274.728485, 350.227417)" style="">
    <path id="circle4853" transform="matrix(0.17273859,0,0,0.17273859,73.158541,-109.65662)" style="fill-opacity: 1; stroke-linecap: round; stroke-linejoin: round; stroke-miterlimit: 4; stroke-dasharray: none; stroke-opacity: 1; stroke-width: 14px; fill: none; stroke: rgb(0, 19, 165);" d="m -350.73047,286.61328 c -188.71025,-9.1e-4 -341.69036,152.9792 -341.68945,341.68945 1.7e-4,188.70949 152.97996,341.68841 341.68945,341.6875 C -162.02174,969.99006 -9.0431345,817.01146 -9.0429688,628.30273 -9.0420575,439.59324 -162.02098,286.61345 -350.73047,286.61328 Z"/>
    <ellipse cx="12.501" cy="-1.201" rx="55.677" ry="55.677" style="stroke: rgb(0, 19, 165); fill: rgb(0, 19, 165);"/>
    <path id="circle4853-2" style="fill-opacity: 1; stroke-width: 3.0634; stroke-linecap: round; stroke-linejoin: round; stroke-miterlimit: 4; stroke-dasharray: none; stroke-opacity: 1; fill: rgb(226, 10, 22); visibility: hidden; stroke: rgb(0, 19, 165);" d="M 12.963 -48.681 C -13.442 -48.681 -34.846 -27.276 -34.846 -0.872 C -34.846 25.532 -13.442 46.937 12.963 46.937 C 39.367 46.937 60.771 25.532 60.771 -0.872 C 60.771 -27.276 39.367 -48.681 12.963 -48.681 Z"/>
  </g>
  <g/>
  <path d="M 244.211 82.01 L 246.887 86.704 C 247.221 87.291 247.534 87.634 247.819 87.732 C 248.112 87.828 248.582 87.693 249.237 87.323 C 249.534 87.153 249.875 86.939 250.258 86.684 L 251.645 89.114 C 250.783 89.816 250.139 90.29 249.723 90.524 C 248.353 91.3 247.234 91.591 246.364 91.393 C 245.494 91.195 244.665 90.411 243.882 89.037 L 240.935 83.872 L 239.171 84.868 L 237.716 82.318 L 239.667 81.21 L 238.062 77.787 L 240.755 75.961 L 242.752 79.461 L 245.153 78.093 L 246.611 80.644 L 244.211 82.01 Z M 263.419 79.993 L 255.805 83.144 C 255.883 83.356 255.956 83.54 256.019 83.694 C 256.373 84.539 256.861 85.078 257.489 85.324 C 258.112 85.565 258.742 85.559 259.364 85.298 C 260.527 84.819 260.967 83.91 260.689 82.573 L 263.948 81.499 C 264.2 84.592 262.973 86.696 260.271 87.815 C 259.094 88.3 257.995 88.484 256.975 88.351 C 255.953 88.222 254.991 87.815 254.076 87.131 C 253.167 86.449 252.45 85.476 251.926 84.212 C 251.147 82.338 251.05 80.598 251.645 78.999 C 252.24 77.405 253.381 76.252 255.068 75.557 C 256.591 74.929 258.116 74.924 259.656 75.543 C 261.188 76.165 262.443 77.645 263.419 79.993 Z M 254.952 81.125 L 259.159 79.386 C 258.374 77.809 257.37 77.276 256.141 77.781 C 254.831 78.326 254.434 79.441 254.952 81.125 Z M 273.073 70.894 C 275.017 70.703 276.596 71.187 277.807 72.347 C 279.023 73.505 279.727 75.04 279.915 76.946 C 280.099 78.827 279.691 80.45 278.682 81.817 C 277.674 83.186 276.23 83.957 274.355 84.143 C 272.537 84.324 271.024 83.844 269.812 82.708 C 268.602 81.574 267.901 80.032 267.707 78.081 C 267.572 76.733 267.707 75.557 268.105 74.565 C 268.503 73.576 269.103 72.746 269.903 72.08 C 270.703 71.417 271.76 71.022 273.073 70.894 Z M 273.419 73.339 C 272.703 73.41 272.19 73.735 271.881 74.322 C 271.576 74.91 271.502 76.019 271.666 77.657 C 271.813 79.157 272.091 80.22 272.503 80.841 C 272.913 81.461 273.483 81.737 274.211 81.664 C 274.85 81.601 275.342 81.271 275.684 80.675 C 276.024 80.075 276.113 78.995 275.962 77.424 C 275.796 75.754 275.512 74.635 275.102 74.074 C 274.695 73.515 274.133 73.271 273.419 73.339 Z M 287.69 82.102 L 284.081 82.732 L 281.87 70.144 L 285.285 69.548 L 285.695 71.894 C 285.91 70.057 286.665 69.026 287.958 68.798 C 288.139 68.769 288.366 68.738 288.637 68.718 L 289.28 72.383 C 288.521 72.518 287.954 72.738 287.574 73.039 C 287.196 73.346 286.924 73.822 286.763 74.473 C 286.601 75.123 286.614 75.958 286.789 76.981 L 287.69 82.102 Z M 295.492 67.409 L 297.809 79.98 L 294.09 80.66 L 291.776 68.092 L 295.492 67.409 Z M 294.615 62.643 L 295.301 66.35 L 291.579 67.03 L 290.9 63.322 L 294.615 62.643 Z M 313.103 78.316 L 309.451 78.591 C 309.295 78.097 309.184 77.438 309.12 76.611 C 308.552 77.573 307.957 78.22 307.343 78.569 C 306.732 78.915 306.018 79.119 305.211 79.182 C 304.011 79.27 303.021 79.021 302.231 78.43 C 301.448 77.839 301.011 76.994 300.927 75.902 C 300.866 75.104 301.027 74.349 301.402 73.646 C 301.781 72.94 302.436 72.36 303.357 71.905 C 304.28 71.45 305.993 71.033 308.501 70.657 L 308.444 69.924 C 308.348 68.686 307.683 68.117 306.444 68.208 C 305.123 68.312 304.431 68.987 304.373 70.236 L 300.873 70.173 C 300.987 68.708 301.599 67.629 302.696 66.935 C 303.798 66.243 305.071 65.841 306.521 65.729 C 307.389 65.664 308.215 65.705 308.997 65.845 C 309.782 65.993 310.401 66.248 310.86 66.618 C 311.325 66.99 311.645 67.394 311.831 67.833 C 312.019 68.27 312.153 69.048 312.237 70.17 L 312.682 75.95 C 312.769 77.057 312.904 77.847 313.103 78.316 Z M 308.642 72.512 C 306.022 72.972 304.768 73.867 304.865 75.197 C 304.9 75.643 305.07 76.015 305.371 76.319 C 305.675 76.626 306.083 76.755 306.597 76.714 C 307.265 76.663 307.801 76.343 308.209 75.761 C 308.616 75.175 308.793 74.481 308.732 73.672 L 308.642 72.512 Z M 320.914 77.977 L 316.997 78.025 L 316.947 74.118 L 320.868 74.07 L 320.914 77.977 Z M 325.035 82.308 L 325.035 65.212 L 328.509 65.212 L 328.509 67.085 C 329.154 65.66 330.276 64.946 331.883 64.946 C 333.271 64.946 334.404 65.503 335.289 66.61 C 336.172 67.723 336.614 69.335 336.614 71.452 C 336.614 73.707 336.168 75.401 335.278 76.546 C 334.384 77.687 333.223 78.258 331.798 78.258 C 330.351 78.258 329.316 77.697 328.7 76.577 L 328.7 82.308 L 325.035 82.308 Z M 328.7 72.402 C 328.7 73.302 328.757 73.925 328.864 74.271 C 328.977 74.62 329.207 74.93 329.565 75.202 C 329.918 75.479 330.305 75.612 330.721 75.612 C 331.236 75.612 331.698 75.35 332.101 74.823 C 332.507 74.297 332.709 73.133 332.709 71.339 C 332.709 68.815 332.041 67.554 330.705 67.554 C 330.199 67.554 329.736 67.777 329.32 68.226 C 328.912 68.67 328.7 69.43 328.7 70.499 L 328.7 72.402 Z M 358.144 81.503 L 354.492 80.536 L 356.315 73.702 C 356.567 72.739 356.706 72.105 356.731 71.799 C 356.748 71.497 356.665 71.217 356.474 70.96 C 356.283 70.706 355.975 70.521 355.55 70.408 C 355.149 70.304 354.703 70.335 354.212 70.509 C 353.719 70.686 353.293 71.45 352.934 72.8 L 351.112 79.639 L 347.475 78.672 L 349.293 71.836 C 349.555 70.849 349.681 70.201 349.67 69.889 C 349.652 69.572 349.547 69.296 349.347 69.048 C 349.144 68.802 348.855 68.63 348.469 68.527 C 347.839 68.36 347.32 68.436 346.908 68.75 C 346.497 69.064 346.137 69.788 345.837 70.919 L 344.017 77.757 L 340.473 76.817 L 343.766 64.465 L 347.197 65.374 L 346.695 67.258 C 347.657 65.985 349.005 65.58 350.744 66.042 C 352.32 66.462 353.271 67.477 353.595 69.09 C 354.661 67.846 356.046 67.451 357.754 67.903 C 358.571 68.123 359.228 68.473 359.729 68.961 C 360.226 69.456 360.53 69.999 360.642 70.605 C 360.75 71.212 360.283 73.482 360.283 73.482 L 358.144 81.503 Z M 366.392 68.541 L 366.37 73.334 L 366.336 81.323 L 362.558 81.303 L 362.613 68.525 L 366.392 68.541 Z M 366.414 63.695 L 366.396 67.464 L 362.62 67.449 L 362.637 63.679 L 366.414 63.695 Z M 381.941 69.228 L 377.94 74.933 L 381.876 82.023 L 377.572 81.791 L 375.147 77.256 L 372.304 81.512 L 369.078 81.338 L 373.66 74.703 L 370.344 68.609 L 374.647 68.84 L 376.499 72.397 L 378.712 69.057 L 381.941 69.228 Z M 388.288 82.263 L 384.384 81.927 L 384.722 78.035 L 388.626 78.371 L 388.288 82.263 Z M 403.087 85.676 L 399.377 84.959 L 400.741 77.915 C 400.907 77.063 400.988 76.469 400.98 76.144 C 400.976 75.816 400.866 75.518 400.652 75.249 C 400.437 74.979 400.135 74.807 399.745 74.732 C 398.44 74.481 397.605 75.317 397.233 77.24 L 395.867 84.282 L 392.159 83.565 L 394.587 71.019 L 398.038 71.682 L 397.624 73.808 C 398.393 72.907 399.085 72.367 399.697 72.186 C 400.308 72.001 400.938 71.972 401.586 72.098 C 402.782 72.328 403.682 72.836 404.286 73.615 C 404.893 74.403 405.016 75.737 404.648 77.613 L 403.087 85.676 Z M 419.589 83.243 L 411.474 81.808 C 411.427 82.03 411.388 82.224 411.357 82.391 C 411.198 83.287 411.315 84.005 411.713 84.545 C 412.113 85.087 412.646 85.418 413.309 85.534 C 414.55 85.757 415.413 85.227 415.897 83.95 L 419.223 84.799 C 417.766 87.54 415.599 88.653 412.718 88.144 C 411.461 87.921 410.436 87.48 409.648 86.822 C 408.861 86.163 408.267 85.301 407.866 84.238 C 407.469 83.174 407.391 81.969 407.631 80.622 C 407.985 78.62 408.843 77.107 410.207 76.08 C 411.569 75.055 413.151 74.7 414.948 75.017 C 416.572 75.307 417.863 76.125 418.818 77.47 C 419.779 78.818 420.035 80.743 419.589 83.243 Z M 411.845 79.648 L 416.328 80.441 C 416.519 78.695 415.961 77.703 414.651 77.473 C 413.257 77.228 412.319 77.948 411.845 79.648 Z M 430.234 82.005 L 427.895 86.877 C 427.6 87.488 427.5 87.937 427.586 88.229 C 427.67 88.52 428.05 88.83 428.728 89.154 C 429.041 89.305 429.412 89.463 429.839 89.629 L 428.628 92.149 C 427.557 91.843 426.805 91.584 426.369 91.38 C 424.95 90.702 424.073 89.952 423.742 89.125 C 423.406 88.294 423.579 87.169 424.265 85.747 L 426.835 80.382 L 425.007 79.506 L 426.277 76.859 L 428.301 77.823 L 430.204 74.557 L 433.246 75.725 L 431.503 79.354 L 433.996 80.547 L 432.729 83.196 L 430.234 82.005 Z" style="fill: rgb(51, 51, 51); white-space: pre; mix-blend-mode: color-dodge; opacity: 0.44;"/>
  <path style="fill-rule: nonzero; stroke: none; stroke-width: 0.515336; fill-opacity: 1; fill: rgb(255, 255, 255);" d="M 304.251 416.578 C 298.918 416.726 293.791 419.037 290.142 423.139 C 285.271 428.605 283.852 436.324 286.436 443.168 L 265.568 494.869 C 256.19 489.164 245.45 486.069 234.47 485.921 L 234.47 488.505 C 206.568 488.108 182.216 507.351 176.13 534.608 C 170.039 561.867 183.9 589.655 209.308 601.178 C 234.725 612.703 264.741 604.794 281.194 582.241 L 283.282 583.759 C 302.962 556.782 297.547 519.023 271.09 498.666 L 274.663 489.809 L 339.269 546.017 C 336.363 552.027 336.949 559.144 340.796 564.592 C 344.643 570.048 351.147 572.97 357.769 572.236 L 361.607 584.792 L 357.586 584.792 L 357.586 591.339 L 374.262 591.339 L 374.262 584.792 L 368.451 584.792 L 364.043 570.361 C 369.574 567.555 373.305 562.132 373.966 555.965 L 373.973 555.965 L 385.019 555.238 C 389.014 585.303 415.15 607.445 445.438 606.396 C 475.733 605.355 500.284 581.473 502.201 551.201 L 504.784 551.392 C 505.865 534.418 499.889 517.752 488.265 505.352 C 476.642 492.947 460.405 485.912 443.416 485.912 C 433.864 485.912 424.445 488.141 415.908 492.416 L 399.094 463.261 L 405.334 449.242 L 422.398 441.458 C 424.849 440.336 426.188 437.669 425.625 435.035 C 425.065 432.411 422.736 430.52 420.054 430.511 C 405.93 430.041 391.804 429.827 377.68 429.876 C 375.733 429.786 373.99 431.073 373.486 432.956 C 372.983 434.838 373.857 436.81 375.575 437.719 C 382.988 441.789 390.575 445.52 398.319 448.913 L 392.201 462.665 L 285.627 462.665 L 293.585 442.951 C 290.853 438.412 291.134 432.666 294.287 428.406 C 297.448 424.148 302.864 422.216 307.999 423.511 L 308.048 423.529 L 319.58 426.467 L 322.751 427.268 L 324.361 420.919 L 321.191 420.119 L 309.617 417.172 L 309.592 417.172 C 307.816 416.717 306.026 416.528 304.251 416.578 Z M 282.978 469.221 L 389.286 469.221 L 359.551 536.079 C 357.561 535.658 355.515 535.575 353.501 535.822 L 349.852 523.893 L 354.969 523.893 L 354.969 517.34 L 338.286 517.34 L 338.286 523.893 L 343.009 523.893 L 347.251 537.78 C 345.749 538.563 344.371 539.553 343.14 540.717 L 277.256 483.385 L 282.978 469.221 Z M 395.807 470.657 L 410.222 495.646 C 395.775 504.924 385.861 519.815 382.864 536.731 C 382.155 540.743 381.841 544.804 381.94 548.874 L 373.495 549.427 C 372.329 544.936 369.516 541.049 365.61 538.556 L 395.082 472.291 L 395.807 470.657 Z M 233.967 498.121 C 243.263 498.179 252.631 500.862 260.928 506.385 L 249.255 535.295 C 246.34 541.188 240.19 544.763 233.637 544.375 C 232.473 544.375 231.391 544.994 230.804 546 C 230.218 547.009 230.218 548.255 230.797 549.27 C 231.382 550.278 232.456 550.904 233.628 550.904 C 243.237 551.301 252.077 545.629 255.735 536.722 L 255.735 536.731 L 266.302 510.528 C 286.189 528.162 288.541 558.392 271.627 578.889 C 254.703 599.387 224.605 602.779 203.554 586.567 C 182.512 570.346 178.087 540.353 193.55 518.735 C 203.216 505.23 218.481 498.03 233.967 498.121 Z M 444.579 498.138 C 457.293 498.444 469.724 503.661 478.954 513.27 C 493.713 528.648 496.942 551.779 486.946 570.618 C 476.949 589.447 455.997 599.725 434.996 596.084 C 414.003 592.444 397.723 575.712 394.646 554.603 L 437.851 551.772 C 439.85 554.364 443.375 555.231 446.347 553.869 C 449.318 552.506 450.96 549.27 450.308 546.059 C 449.649 542.848 446.875 540.52 443.605 540.429 L 422.027 503.016 C 429.224 499.542 436.952 497.956 444.579 498.138 Z M 416.331 506.244 L 437.728 543.327 L 436.728 545.283 L 394.125 548.073 C 393.918 531.257 402.289 515.481 416.331 506.244 Z" id="path19"/>
  <path style="display: inline; fill-opacity: 1; stroke-width: 0.552775; fill: rgb(255, 255, 255);" d="M 404.415 147.079 C 404.415 147.079 416.428 136.335 416.428 124.32 C 416.428 112.306 407.575 107.248 400.621 107.248 C 393.667 107.248 380.094 112.941 380.238 124.32 C 380.389 136.33 388.606 145.814 388.606 145.814 L 388.953 152.488 C 388.953 152.488 377.226 154.032 368.375 155.931 C 359.524 157.829 350.044 167.312 346.249 179.955 C 342.455 192.6 332.97 227.372 327.914 234.327 C 322.857 241.282 322.857 241.282 322.857 241.282 L 322.223 248.237 C 322.223 248.237 307.68 248.87 301.991 248.237 C 296.304 247.602 289.346 243.178 289.346 240.017 C 289.346 236.858 293.161 234.231 294.287 233.104 C 295.412 231.975 297.214 227.247 297.214 222.287 C 297.214 217.329 295.19 207.417 283.47 207.417 C 271.755 207.417 269.053 215.078 269.053 223.414 C 269.053 231.751 276.712 234.68 276.712 237.834 C 276.712 240.988 276.712 243.016 275.135 243.242 C 273.56 243.466 255.764 251.801 250.58 272.756 C 245.398 293.704 244.721 311.956 244.721 311.956 C 244.721 311.956 240.665 314.887 240.44 316.24 C 240.216 317.592 241.343 321.418 244.721 322.547 C 248.1 323.671 252.383 323.671 252.383 320.07 C 252.383 316.465 251.481 313.084 251.481 313.084 C 251.481 313.084 255.086 305.879 257.788 298.668 C 260.492 291.458 262.743 277.038 262.743 277.038 C 262.743 277.038 267.022 271.853 267.022 276.133 C 267.022 280.415 269.727 338.543 269.727 345.301 C 269.727 352.061 268.826 359.267 267.923 362.875 C 267.02 366.478 266.571 368.51 266.571 368.51 C 266.571 368.51 258.233 372.339 258.684 375.494 C 259.137 378.647 261.391 384.054 269.05 380 C 276.71 375.946 281.215 369.863 281.215 369.863 L 288.651 316.69 L 295.637 367.157 L 304.874 377.073 C 304.874 377.073 308.477 379.774 311.631 379.774 C 314.782 379.774 318.615 378.648 318.615 375.721 C 318.615 372.794 308.702 365.582 308.702 365.582 C 308.702 365.582 310.728 317.817 310.728 302.496 C 310.728 287.177 309.827 263.744 309.827 263.744 C 309.827 263.744 316.359 258.79 321.99 257.665 C 327.622 256.538 329.201 254.511 329.201 254.511 C 329.201 254.511 334.603 256.538 337.084 254.511 C 339.565 252.482 341.59 247.977 341.819 245.725 C 342.044 243.471 341.368 241.668 341.368 241.668 C 341.368 241.668 351.505 225.674 354.435 218.463 C 357.363 211.254 359.617 201.791 359.617 201.791 C 359.617 201.791 360.067 199.538 361.644 199.538 C 363.22 199.538 364.797 204.496 365.7 205.396 C 366.603 206.296 366.828 207.649 366.828 207.649 C 366.828 207.649 367.048 262.396 367.729 267.802 C 368.408 273.21 369.079 309.479 369.982 328.404 C 370.884 347.331 374.036 376.618 374.036 376.618 C 374.036 376.618 367.278 382.476 367.051 385.406 C 366.829 388.335 371.33 389.461 376.064 389.234 C 380.794 389.01 391.384 377.519 391.384 377.519 C 391.384 377.519 391.157 360.625 391.157 353.866 C 391.157 347.105 389.353 338.543 389.353 325.929 C 389.353 313.309 390.479 306.098 391.606 296.864 C 392.739 287.626 396.793 278.388 396.793 278.388 C 396.793 278.388 403.1 306.549 404 324.122 C 404.902 341.698 404.902 375.718 404.902 375.718 C 404.902 375.718 411.662 382.03 413.238 383.377 C 414.815 384.73 418.872 388.785 421.802 388.785 C 424.729 388.785 430.814 387.886 430.814 384.053 C 430.814 380.219 422.926 373.013 422.926 373.013 C 422.926 373.013 424.505 355.889 424.729 353.189 C 424.956 350.482 424.505 321.872 424.729 305.648 C 424.956 289.426 426.757 242.343 427.209 231.303 C 427.659 220.262 428.334 204.041 428.334 204.041 L 430.59 201.335 C 430.59 201.335 440.504 218.686 441.854 224.769 C 443.205 230.85 445.456 257.662 445.233 260.367 C 445.008 263.069 445.456 265.774 445.456 265.774 L 446.358 267.352 C 446.358 267.352 445.908 269.154 444.107 270.956 C 442.304 272.76 440.279 279.521 447.713 279.521 C 455.146 279.521 454.019 276.814 454.019 273.663 C 454.019 270.506 452.668 269.154 452.668 269.154 L 454.919 264.648 C 454.919 264.648 454.919 236.26 454.919 228.603 C 454.919 220.943 447.939 189.399 444.332 180.162 C 440.727 170.925 436.448 159.658 433.968 157.631 C 431.491 155.605 423.601 153.578 415.718 152.448 C 407.834 151.322 404.902 153.581 404.902 151.33 C 404.902 149.079 404.415 147.079 404.415 147.079 Z" id="path5465"/>
</svg>