<?xml version="1.0" encoding="utf-8"?>
<svg viewBox="0 0 683.37695 683.37695" width="683.377px" height="683.377px" xmlns="http://www.w3.org/2000/svg">
  <g id="layer1" transform="matrix(5.511535, 0, 0, 5.511535, 274.728485, 350.227417)" style="">
    <path id="circle4853" transform="matrix(0.17273859,0,0,0.17273859,73.158541,-109.65662)" style="fill-opacity: 1; stroke-linecap: round; stroke-linejoin: round; stroke-miterlimit: 4; stroke-dasharray: none; stroke-opacity: 1; stroke-width: 14px; fill: none; stroke: rgb(0, 19, 165);" d="m -350.73047,286.61328 c -188.71025,-9.1e-4 -341.69036,152.9792 -341.68945,341.68945 1.7e-4,188.70949 152.97996,341.68841 341.68945,341.6875 C -162.02174,969.99006 -9.0431345,817.01146 -9.0429688,628.30273 -9.0420575,439.59324 -162.02098,286.61345 -350.73047,286.61328 Z"/>
    <ellipse cx="12.501" cy="-1.201" rx="55.677" ry="55.677" style="stroke: rgb(0, 19, 165); fill: rgb(0, 19, 165);"/>
    <path id="circle4853-2" style="fill-opacity: 1; stroke-width: 3.0634; stroke-linecap: round; stroke-linejoin: round; stroke-miterlimit: 4; stroke-dasharray: none; stroke-opacity: 1; fill: rgb(226, 10, 22); visibility: hidden; stroke: rgb(0, 19, 165);" d="M 12.963 -48.681 C -13.442 -48.681 -34.846 -27.276 -34.846 -0.872 C -34.846 25.532 -13.442 46.937 12.963 46.937 C 39.367 46.937 60.771 25.532 60.771 -0.872 C 60.771 -27.276 39.367 -48.681 12.963 -48.681 Z"/>
  </g>
  <g/>
  <path d="M 244.211 74.01 L 246.887 78.704 C 247.221 79.291 247.534 79.634 247.819 79.732 C 248.112 79.828 248.582 79.693 249.237 79.323 C 249.534 79.153 249.875 78.939 250.258 78.684 L 251.645 81.114 C 250.783 81.816 250.139 82.29 249.723 82.524 C 248.353 83.3 247.234 83.591 246.364 83.393 C 245.494 83.195 244.665 82.411 243.882 81.037 L 240.935 75.872 L 239.171 76.868 L 237.716 74.318 L 239.667 73.21 L 238.062 69.787 L 240.755 67.961 L 242.752 71.461 L 245.153 70.093 L 246.611 72.644 L 244.211 74.01 Z M 263.419 71.993 L 255.805 75.144 C 255.883 75.356 255.956 75.54 256.019 75.694 C 256.373 76.539 256.861 77.078 257.489 77.324 C 258.112 77.565 258.742 77.559 259.364 77.298 C 260.527 76.819 260.967 75.91 260.689 74.573 L 263.948 73.499 C 264.2 76.592 262.973 78.696 260.271 79.815 C 259.094 80.3 257.995 80.484 256.975 80.351 C 255.953 80.222 254.991 79.815 254.076 79.131 C 253.167 78.449 252.45 77.476 251.926 76.212 C 251.147 74.338 251.05 72.598 251.645 70.999 C 252.24 69.405 253.381 68.252 255.068 67.557 C 256.591 66.929 258.116 66.924 259.656 67.543 C 261.188 68.165 262.443 69.645 263.419 71.993 Z M 254.952 73.125 L 259.159 71.386 C 258.374 69.809 257.37 69.276 256.141 69.781 C 254.831 70.326 254.434 71.441 254.952 73.125 Z M 273.073 62.894 C 275.017 62.703 276.596 63.187 277.807 64.347 C 279.023 65.505 279.727 67.04 279.915 68.946 C 280.099 70.827 279.691 72.45 278.682 73.817 C 277.674 75.186 276.23 75.957 274.355 76.143 C 272.537 76.324 271.024 75.844 269.812 74.708 C 268.602 73.574 267.901 72.032 267.707 70.081 C 267.572 68.733 267.707 67.557 268.105 66.565 C 268.503 65.576 269.103 64.746 269.903 64.08 C 270.703 63.417 271.76 63.022 273.073 62.894 Z M 273.419 65.339 C 272.703 65.41 272.19 65.735 271.881 66.322 C 271.576 66.91 271.502 68.019 271.666 69.657 C 271.813 71.157 272.091 72.22 272.503 72.841 C 272.913 73.461 273.483 73.737 274.211 73.664 C 274.85 73.601 275.342 73.271 275.684 72.675 C 276.024 72.075 276.113 70.995 275.962 69.424 C 275.796 67.754 275.512 66.635 275.102 66.074 C 274.695 65.515 274.133 65.271 273.419 65.339 Z M 287.69 74.102 L 284.081 74.732 L 281.87 62.144 L 285.285 61.548 L 285.695 63.894 C 285.91 62.057 286.665 61.026 287.958 60.798 C 288.139 60.769 288.366 60.738 288.637 60.718 L 289.28 64.383 C 288.521 64.518 287.954 64.738 287.574 65.039 C 287.196 65.346 286.924 65.822 286.763 66.473 C 286.601 67.123 286.614 67.958 286.789 68.981 L 287.69 74.102 Z M 295.492 59.409 L 297.809 71.98 L 294.09 72.66 L 291.776 60.092 L 295.492 59.409 Z M 294.615 54.643 L 295.301 58.35 L 291.579 59.03 L 290.9 55.322 L 294.615 54.643 Z M 313.103 70.316 L 309.451 70.591 C 309.295 70.097 309.184 69.438 309.12 68.611 C 308.552 69.573 307.957 70.22 307.343 70.569 C 306.732 70.915 306.018 71.119 305.211 71.182 C 304.011 71.27 303.021 71.021 302.231 70.43 C 301.448 69.839 301.011 68.994 300.927 67.902 C 300.866 67.104 301.027 66.349 301.402 65.646 C 301.781 64.94 302.436 64.36 303.357 63.905 C 304.28 63.45 305.993 63.033 308.501 62.657 L 308.444 61.924 C 308.348 60.686 307.683 60.117 306.444 60.208 C 305.123 60.312 304.431 60.987 304.373 62.236 L 300.873 62.173 C 300.987 60.708 301.599 59.629 302.696 58.935 C 303.798 58.243 305.071 57.841 306.521 57.729 C 307.389 57.664 308.215 57.705 308.997 57.845 C 309.782 57.993 310.401 58.248 310.86 58.618 C 311.325 58.99 311.645 59.394 311.831 59.833 C 312.019 60.27 312.153 61.048 312.237 62.17 L 312.682 67.95 C 312.769 69.057 312.904 69.847 313.103 70.316 Z M 308.642 64.512 C 306.022 64.972 304.768 65.867 304.865 67.197 C 304.9 67.643 305.07 68.015 305.371 68.319 C 305.675 68.626 306.083 68.755 306.597 68.714 C 307.265 68.663 307.801 68.343 308.209 67.761 C 308.616 67.175 308.793 66.481 308.732 65.672 L 308.642 64.512 Z M 320.914 69.977 L 316.997 70.025 L 316.947 66.118 L 320.868 66.07 L 320.914 69.977 Z M 325.035 74.308 L 325.035 57.212 L 328.509 57.212 L 328.509 59.085 C 329.154 57.66 330.276 56.946 331.883 56.946 C 333.271 56.946 334.404 57.503 335.289 58.61 C 336.172 59.723 336.614 61.335 336.614 63.452 C 336.614 65.707 336.168 67.401 335.278 68.546 C 334.384 69.687 333.223 70.258 331.798 70.258 C 330.351 70.258 329.316 69.697 328.7 68.577 L 328.7 74.308 L 325.035 74.308 Z M 328.7 64.402 C 328.7 65.302 328.757 65.925 328.864 66.271 C 328.977 66.62 329.207 66.93 329.565 67.202 C 329.918 67.479 330.305 67.612 330.721 67.612 C 331.236 67.612 331.698 67.35 332.101 66.823 C 332.507 66.297 332.709 65.133 332.709 63.339 C 332.709 60.815 332.041 59.554 330.705 59.554 C 330.199 59.554 329.736 59.777 329.32 60.226 C 328.912 60.67 328.7 61.43 328.7 62.499 L 328.7 64.402 Z M 358.144 73.503 L 354.492 72.536 L 356.315 65.702 C 356.567 64.739 356.706 64.105 356.731 63.799 C 356.748 63.497 356.665 63.217 356.474 62.96 C 356.283 62.706 355.975 62.521 355.55 62.408 C 355.149 62.304 354.703 62.335 354.212 62.509 C 353.719 62.686 353.293 63.45 352.934 64.8 L 351.112 71.639 L 347.475 70.672 L 349.293 63.836 C 349.555 62.849 349.681 62.201 349.67 61.889 C 349.652 61.572 349.547 61.296 349.347 61.048 C 349.144 60.802 348.855 60.63 348.469 60.527 C 347.839 60.36 347.32 60.436 346.908 60.75 C 346.497 61.064 346.137 61.788 345.837 62.919 L 344.017 69.757 L 340.473 68.817 L 343.766 56.465 L 347.197 57.374 L 346.695 59.258 C 347.657 57.985 349.005 57.58 350.744 58.042 C 352.32 58.462 353.271 59.477 353.595 61.09 C 354.661 59.846 356.046 59.451 357.754 59.903 C 358.571 60.123 359.228 60.473 359.729 60.961 C 360.226 61.456 360.53 61.999 360.642 62.605 C 360.75 63.212 360.283 65.482 360.283 65.482 L 358.144 73.503 Z M 366.392 60.541 L 366.37 65.334 L 366.336 73.323 L 362.558 73.303 L 362.613 60.525 L 366.392 60.541 Z M 366.414 55.695 L 366.396 59.464 L 362.62 59.449 L 362.637 55.679 L 366.414 55.695 Z M 381.941 61.228 L 377.94 66.933 L 381.876 74.023 L 377.572 73.791 L 375.147 69.256 L 372.304 73.512 L 369.078 73.338 L 373.66 66.703 L 370.344 60.609 L 374.647 60.84 L 376.499 64.397 L 378.712 61.057 L 381.941 61.228 Z M 388.288 74.263 L 384.384 73.927 L 384.722 70.035 L 388.626 70.371 L 388.288 74.263 Z M 403.087 77.676 L 399.377 76.959 L 400.741 69.915 C 400.907 69.063 400.988 68.469 400.98 68.144 C 400.976 67.816 400.866 67.518 400.652 67.249 C 400.437 66.979 400.135 66.807 399.745 66.732 C 398.44 66.481 397.605 67.317 397.233 69.24 L 395.867 76.282 L 392.159 75.565 L 394.587 63.019 L 398.038 63.682 L 397.624 65.808 C 398.393 64.907 399.085 64.367 399.697 64.186 C 400.308 64.001 400.938 63.972 401.586 64.098 C 402.782 64.328 403.682 64.836 404.286 65.615 C 404.893 66.403 405.016 67.737 404.648 69.613 L 403.087 77.676 Z M 419.589 75.243 L 411.474 73.808 C 411.427 74.03 411.388 74.224 411.357 74.391 C 411.198 75.287 411.315 76.005 411.713 76.545 C 412.113 77.087 412.646 77.418 413.309 77.534 C 414.55 77.757 415.413 77.227 415.897 75.95 L 419.223 76.799 C 417.766 79.54 415.599 80.653 412.718 80.144 C 411.461 79.921 410.436 79.48 409.648 78.822 C 408.861 78.163 408.267 77.301 407.866 76.238 C 407.469 75.174 407.391 73.969 407.631 72.622 C 407.985 70.62 408.843 69.107 410.207 68.08 C 411.569 67.055 413.151 66.7 414.948 67.017 C 416.572 67.307 417.863 68.125 418.818 69.47 C 419.779 70.818 420.035 72.743 419.589 75.243 Z M 411.845 71.648 L 416.328 72.441 C 416.519 70.695 415.961 69.703 414.651 69.473 C 413.257 69.228 412.319 69.948 411.845 71.648 Z M 430.234 74.005 L 427.895 78.877 C 427.6 79.488 427.5 79.937 427.586 80.229 C 427.67 80.52 428.05 80.83 428.728 81.154 C 429.041 81.305 429.412 81.463 429.839 81.629 L 428.628 84.149 C 427.557 83.843 426.805 83.584 426.369 83.38 C 424.95 82.702 424.073 81.952 423.742 81.125 C 423.406 80.294 423.579 79.169 424.265 77.747 L 426.835 72.382 L 425.007 71.506 L 426.277 68.859 L 428.301 69.823 L 430.204 66.557 L 433.246 67.725 L 431.503 71.354 L 433.996 72.547 L 432.729 75.196 L 430.234 74.005 Z" style="fill: rgb(51, 51, 51); white-space: pre; mix-blend-mode: color-dodge; opacity: 0.44;"/>
  <path style="fill-rule: nonzero; stroke: none; stroke-width: 0.515336; fill-opacity: 1; fill: rgb(255, 255, 255);" d="M 141.222 285.013 C 137.494 285.116 133.909 286.732 131.358 289.599 C 127.953 293.42 126.961 298.817 128.768 303.601 L 114.179 339.744 C 107.624 335.756 100.116 333.592 92.44 333.488 L 92.44 335.295 C 72.934 335.017 55.91 348.47 51.656 367.524 C 47.398 386.58 57.088 406.006 74.85 414.061 C 92.618 422.118 113.601 416.589 125.103 400.823 L 126.563 401.884 C 140.321 383.025 136.535 356.629 118.04 342.398 L 120.538 336.206 L 165.702 375.5 C 163.67 379.701 164.08 384.677 166.769 388.485 C 169.459 392.299 174.005 394.342 178.635 393.829 L 181.318 402.606 L 178.507 402.606 L 178.507 407.183 L 190.164 407.183 L 190.164 402.606 L 186.102 402.606 L 183.021 392.518 C 186.887 390.556 189.495 386.765 189.958 382.454 L 189.962 382.454 L 197.684 381.946 C 200.477 402.964 218.748 418.442 239.922 417.709 C 261.1 416.981 278.263 400.286 279.603 379.124 L 281.409 379.257 C 282.164 367.391 277.987 355.741 269.861 347.072 C 261.735 338.4 250.385 333.482 238.508 333.482 C 231.831 333.482 225.246 335.04 219.278 338.029 L 207.524 317.647 L 211.886 307.847 L 223.815 302.406 C 225.528 301.621 226.464 299.757 226.071 297.915 C 225.679 296.081 224.051 294.759 222.176 294.753 C 212.303 294.424 202.428 294.275 192.554 294.309 C 191.193 294.246 189.974 295.146 189.622 296.462 C 189.27 297.778 189.881 299.156 191.082 299.792 C 196.265 302.637 201.568 305.245 206.982 307.617 L 202.705 317.231 L 128.202 317.231 L 133.765 303.449 C 131.856 300.276 132.052 296.259 134.256 293.281 C 136.466 290.305 140.252 288.954 143.842 289.859 L 143.876 289.872 L 151.938 291.926 L 154.155 292.486 L 155.28 288.047 L 153.064 287.488 L 144.973 285.428 L 144.955 285.428 C 143.714 285.11 142.463 284.978 141.222 285.013 Z M 126.35 321.814 L 200.667 321.814 L 179.88 368.553 C 178.489 368.258 177.059 368.2 175.651 368.373 L 173.1 360.034 L 176.677 360.034 L 176.677 355.453 L 165.015 355.453 L 165.015 360.034 L 168.316 360.034 L 171.282 369.742 C 170.232 370.289 169.268 370.981 168.408 371.795 L 122.35 331.716 L 126.35 321.814 Z M 205.226 322.818 L 215.303 340.287 C 205.204 346.773 198.273 357.183 196.178 369.008 C 195.682 371.813 195.463 374.652 195.532 377.497 L 189.628 377.884 C 188.813 374.744 186.847 372.027 184.116 370.284 L 204.719 323.96 L 205.226 322.818 Z M 92.088 342.017 C 98.587 342.058 105.136 343.933 110.936 347.794 L 102.776 368.004 C 100.738 372.124 96.438 374.623 91.857 374.352 C 91.044 374.352 90.287 374.785 89.877 375.488 C 89.467 376.193 89.467 377.064 89.872 377.774 C 90.281 378.479 91.032 378.916 91.851 378.916 C 98.569 379.194 104.748 375.229 107.306 369.002 L 107.306 369.008 L 114.693 350.691 C 128.595 363.018 130.239 384.151 118.415 398.48 C 106.584 412.809 85.543 415.181 70.827 403.847 C 56.117 392.508 53.024 371.54 63.834 356.428 C 70.591 346.987 81.262 341.954 92.088 342.017 Z M 239.321 342.029 C 248.209 342.243 256.899 345.89 263.352 352.607 C 273.669 363.358 275.927 379.528 268.939 392.698 C 261.95 405.861 247.303 413.046 232.622 410.5 C 217.946 407.956 206.565 396.259 204.414 381.502 L 234.618 379.523 C 236.015 381.335 238.479 381.941 240.557 380.989 C 242.634 380.036 243.782 377.774 243.326 375.529 C 242.865 373.285 240.926 371.657 238.64 371.593 L 223.556 345.439 C 228.587 343.011 233.989 341.902 239.321 342.029 Z M 219.574 347.696 L 234.532 373.619 L 233.833 374.987 L 204.05 376.937 C 203.905 365.182 209.757 354.153 219.574 347.696 Z" id="path19"/>
  <path style="display: inline; fill-opacity: 1; stroke-width: 0.552775; fill: rgb(255, 255, 255);" d="M 552.346 220.343 C 552.346 220.343 562.254 211.481 562.254 201.572 C 562.254 191.663 554.952 187.491 549.217 187.491 C 543.482 187.491 532.287 192.187 532.406 201.572 C 532.53 211.477 539.308 219.299 539.308 219.299 L 539.594 224.804 C 539.594 224.804 529.922 226.077 522.622 227.643 C 515.322 229.209 507.503 237.03 504.373 247.457 C 501.244 257.887 493.421 286.565 489.251 292.301 C 485.08 298.038 485.08 298.038 485.08 298.038 L 484.557 303.774 C 484.557 303.774 472.563 304.296 467.871 303.774 C 463.18 303.25 457.442 299.601 457.442 296.994 C 457.442 294.389 460.588 292.222 461.517 291.293 C 462.445 290.362 463.931 286.462 463.931 282.371 C 463.931 278.282 462.261 270.107 452.595 270.107 C 442.933 270.107 440.705 276.426 440.705 283.301 C 440.705 290.177 447.021 292.593 447.021 295.194 C 447.021 297.795 447.021 299.468 445.721 299.654 C 444.422 299.839 429.744 306.713 425.469 323.996 C 421.195 341.273 420.637 356.327 420.637 356.327 C 420.637 356.327 417.291 358.744 417.106 359.86 C 416.921 360.975 417.85 364.131 420.637 365.062 C 423.423 365.989 426.956 365.989 426.956 363.019 C 426.956 360.046 426.212 357.257 426.212 357.257 C 426.212 357.257 429.185 351.315 431.414 345.367 C 433.644 339.421 435.5 327.528 435.5 327.528 C 435.5 327.528 439.03 323.251 439.03 326.781 C 439.03 330.313 441.261 378.255 441.261 383.829 C 441.261 389.404 440.517 395.347 439.773 398.323 C 439.028 401.295 438.658 402.971 438.658 402.971 C 438.658 402.971 431.781 406.129 432.153 408.731 C 432.526 411.331 434.385 415.791 440.702 412.447 C 447.02 409.104 450.735 404.086 450.735 404.086 L 456.868 360.231 L 462.63 401.855 L 470.248 410.033 C 470.248 410.033 473.22 412.261 475.821 412.261 C 478.42 412.261 481.582 411.332 481.582 408.918 C 481.582 406.504 473.406 400.556 473.406 400.556 C 473.406 400.556 475.077 361.161 475.077 348.525 C 475.077 335.89 474.334 316.563 474.334 316.563 C 474.334 316.563 479.721 312.478 484.365 311.55 C 489.01 310.62 490.312 308.948 490.312 308.948 C 490.312 308.948 494.768 310.62 496.814 308.948 C 498.86 307.275 500.53 303.559 500.719 301.702 C 500.905 299.843 500.347 298.356 500.347 298.356 C 500.347 298.356 508.708 285.165 511.125 279.217 C 513.539 273.272 515.398 265.467 515.398 265.467 C 515.398 265.467 515.77 263.609 517.07 263.609 C 518.37 263.609 519.671 267.698 520.415 268.44 C 521.16 269.182 521.346 270.298 521.346 270.298 C 521.346 270.298 521.527 315.452 522.089 319.91 C 522.649 324.371 523.202 354.284 523.947 369.893 C 524.691 385.503 527.291 409.658 527.291 409.658 C 527.291 409.658 521.717 414.489 521.53 416.906 C 521.347 419.321 525.059 420.25 528.963 420.063 C 532.864 419.878 541.599 410.401 541.599 410.401 C 541.599 410.401 541.411 396.467 541.411 390.893 C 541.411 385.317 539.924 378.255 539.924 367.851 C 539.924 357.443 540.852 351.495 541.782 343.88 C 542.716 336.26 546.06 328.641 546.06 328.641 C 546.06 328.641 551.262 351.867 552.004 366.361 C 552.748 380.857 552.748 408.915 552.748 408.915 C 552.748 408.915 558.323 414.121 559.623 415.232 C 560.924 416.348 564.27 419.693 566.686 419.693 C 569.1 419.693 574.119 418.951 574.119 415.79 C 574.119 412.628 567.613 406.684 567.613 406.684 C 567.613 406.684 568.916 392.561 569.1 390.334 C 569.288 388.102 568.916 364.505 569.1 351.124 C 569.288 337.745 570.773 298.913 571.146 289.807 C 571.517 280.701 572.074 267.323 572.074 267.323 L 573.934 265.091 C 573.934 265.091 582.111 279.401 583.224 284.418 C 584.339 289.434 586.195 311.547 586.011 313.778 C 585.826 316.007 586.195 318.238 586.195 318.238 L 586.939 319.539 C 586.939 319.539 586.568 321.025 585.083 322.512 C 583.596 324 581.925 329.576 588.057 329.576 C 594.187 329.576 593.258 327.343 593.258 324.744 C 593.258 322.141 592.143 321.025 592.143 321.025 L 594 317.309 C 594 317.309 594 293.896 594 287.58 C 594 281.263 588.243 255.246 585.268 247.628 C 582.295 240.01 578.766 230.717 576.72 229.045 C 574.677 227.374 568.17 225.703 561.668 224.771 C 555.166 223.842 552.748 225.705 552.748 223.849 C 552.748 221.992 552.346 220.343 552.346 220.343 Z" id="path5465"/>
  <rect x="335.673" y="86.456" width="11.277" height="554.069" style="stroke: rgb(0, 0, 0); fill: rgb(255, 255, 255);"/>
  <rect x="325.9" y="127.052" width="30.072" height="27.064" style="fill: rgb(0, 19, 165);"/>
  <rect x="327.404" y="222.53" width="29.32" height="33.079" style="fill: rgb(0, 19, 165);"/>
  <rect x="326.652" y="327.029" width="28.568" height="33.831" style="fill: rgb(0, 19, 165);"/>
  <rect x="327.404" y="433.031" width="28.568" height="33.079" style="fill: rgb(0, 19, 165);"/>
  <rect x="327.404" y="529.26" width="30.072" height="32.327" style="fill: rgb(0, 19, 165);"/>
  <rect x="330.411" y="628.496" width="24.057" height="15.036" style="fill: rgb(0, 19, 165);"/>
</svg>