<?xml version="1.0" encoding="utf-8"?>
<svg viewBox="0 0 683.37695 683.37695" width="683.377px" height="683.377px" xmlns="http://www.w3.org/2000/svg">
  <g id="layer1" transform="matrix(5.511535, 0, 0, 5.511535, 274.728485, 350.227417)" style="">
    <path id="circle4853" transform="matrix(0.17273859,0,0,0.17273859,73.158541,-109.65662)" style="fill-opacity: 1; stroke-linecap: round; stroke-linejoin: round; stroke-miterlimit: 4; stroke-dasharray: none; stroke-opacity: 1; stroke-width: 14px; fill: none; stroke: rgb(0, 19, 165);" d="m -350.73047,286.61328 c -188.71025,-9.1e-4 -341.69036,152.9792 -341.68945,341.68945 1.7e-4,188.70949 152.97996,341.68841 341.68945,341.6875 C -162.02174,969.99006 -9.0431345,817.01146 -9.0429688,628.30273 -9.0420575,439.59324 -162.02098,286.61345 -350.73047,286.61328 Z"/>
    <ellipse cx="12.501" cy="-1.201" rx="55.677" ry="55.677" style="stroke: rgb(0, 19, 165); fill: rgb(0, 19, 165);"/>
    <path id="circle4853-2" style="fill-opacity: 1; stroke-width: 3.0634; stroke-linecap: round; stroke-linejoin: round; stroke-miterlimit: 4; stroke-dasharray: none; stroke-opacity: 1; fill: rgb(226, 10, 22); visibility: hidden; stroke: rgb(0, 19, 165);" d="M 12.963 -48.681 C -13.442 -48.681 -34.846 -27.276 -34.846 -0.872 C -34.846 25.532 -13.442 46.937 12.963 46.937 C 39.367 46.937 60.771 25.532 60.771 -0.872 C 60.771 -27.276 39.367 -48.681 12.963 -48.681 Z"/>
  </g>
  <g/>
  <path d="M 244.211 82.01 L 246.887 86.704 C 247.221 87.291 247.534 87.634 247.819 87.732 C 248.112 87.828 248.582 87.693 249.237 87.323 C 249.534 87.153 249.875 86.939 250.258 86.684 L 251.645 89.114 C 250.783 89.816 250.139 90.29 249.723 90.524 C 248.353 91.3 247.234 91.591 246.364 91.393 C 245.494 91.195 244.665 90.411 243.882 89.037 L 240.935 83.872 L 239.171 84.868 L 237.716 82.318 L 239.667 81.21 L 238.062 77.787 L 240.755 75.961 L 242.752 79.461 L 245.153 78.093 L 246.611 80.644 L 244.211 82.01 Z M 263.419 79.993 L 255.805 83.144 C 255.883 83.356 255.956 83.54 256.019 83.694 C 256.373 84.539 256.861 85.078 257.489 85.324 C 258.112 85.565 258.742 85.559 259.364 85.298 C 260.527 84.819 260.967 83.91 260.689 82.573 L 263.948 81.499 C 264.2 84.592 262.973 86.696 260.271 87.815 C 259.094 88.3 257.995 88.484 256.975 88.351 C 255.953 88.222 254.991 87.815 254.076 87.131 C 253.167 86.449 252.45 85.476 251.926 84.212 C 251.147 82.338 251.05 80.598 251.645 78.999 C 252.24 77.405 253.381 76.252 255.068 75.557 C 256.591 74.929 258.116 74.924 259.656 75.543 C 261.188 76.165 262.443 77.645 263.419 79.993 Z M 254.952 81.125 L 259.159 79.386 C 258.374 77.809 257.37 77.276 256.141 77.781 C 254.831 78.326 254.434 79.441 254.952 81.125 Z M 273.073 70.894 C 275.017 70.703 276.596 71.187 277.807 72.347 C 279.023 73.505 279.727 75.04 279.915 76.946 C 280.099 78.827 279.691 80.45 278.682 81.817 C 277.674 83.186 276.23 83.957 274.355 84.143 C 272.537 84.324 271.024 83.844 269.812 82.708 C 268.602 81.574 267.901 80.032 267.707 78.081 C 267.572 76.733 267.707 75.557 268.105 74.565 C 268.503 73.576 269.103 72.746 269.903 72.08 C 270.703 71.417 271.76 71.022 273.073 70.894 Z M 273.419 73.339 C 272.703 73.41 272.19 73.735 271.881 74.322 C 271.576 74.91 271.502 76.019 271.666 77.657 C 271.813 79.157 272.091 80.22 272.503 80.841 C 272.913 81.461 273.483 81.737 274.211 81.664 C 274.85 81.601 275.342 81.271 275.684 80.675 C 276.024 80.075 276.113 78.995 275.962 77.424 C 275.796 75.754 275.512 74.635 275.102 74.074 C 274.695 73.515 274.133 73.271 273.419 73.339 Z M 287.69 82.102 L 284.081 82.732 L 281.87 70.144 L 285.285 69.548 L 285.695 71.894 C 285.91 70.057 286.665 69.026 287.958 68.798 C 288.139 68.769 288.366 68.738 288.637 68.718 L 289.28 72.383 C 288.521 72.518 287.954 72.738 287.574 73.039 C 287.196 73.346 286.924 73.822 286.763 74.473 C 286.601 75.123 286.614 75.958 286.789 76.981 L 287.69 82.102 Z M 295.492 67.409 L 297.809 79.98 L 294.09 80.66 L 291.776 68.092 L 295.492 67.409 Z M 294.615 62.643 L 295.301 66.35 L 291.579 67.03 L 290.9 63.322 L 294.615 62.643 Z M 313.103 78.316 L 309.451 78.591 C 309.295 78.097 309.184 77.438 309.12 76.611 C 308.552 77.573 307.957 78.22 307.343 78.569 C 306.732 78.915 306.018 79.119 305.211 79.182 C 304.011 79.27 303.021 79.021 302.231 78.43 C 301.448 77.839 301.011 76.994 300.927 75.902 C 300.866 75.104 301.027 74.349 301.402 73.646 C 301.781 72.94 302.436 72.36 303.357 71.905 C 304.28 71.45 305.993 71.033 308.501 70.657 L 308.444 69.924 C 308.348 68.686 307.683 68.117 306.444 68.208 C 305.123 68.312 304.431 68.987 304.373 70.236 L 300.873 70.173 C 300.987 68.708 301.599 67.629 302.696 66.935 C 303.798 66.243 305.071 65.841 306.521 65.729 C 307.389 65.664 308.215 65.705 308.997 65.845 C 309.782 65.993 310.401 66.248 310.86 66.618 C 311.325 66.99 311.645 67.394 311.831 67.833 C 312.019 68.27 312.153 69.048 312.237 70.17 L 312.682 75.95 C 312.769 77.057 312.904 77.847 313.103 78.316 Z M 308.642 72.512 C 306.022 72.972 304.768 73.867 304.865 75.197 C 304.9 75.643 305.07 76.015 305.371 76.319 C 305.675 76.626 306.083 76.755 306.597 76.714 C 307.265 76.663 307.801 76.343 308.209 75.761 C 308.616 75.175 308.793 74.481 308.732 73.672 L 308.642 72.512 Z M 320.914 77.977 L 316.997 78.025 L 316.947 74.118 L 320.868 74.07 L 320.914 77.977 Z M 325.035 82.308 L 325.035 65.212 L 328.509 65.212 L 328.509 67.085 C 329.154 65.66 330.276 64.946 331.883 64.946 C 333.271 64.946 334.404 65.503 335.289 66.61 C 336.172 67.723 336.614 69.335 336.614 71.452 C 336.614 73.707 336.168 75.401 335.278 76.546 C 334.384 77.687 333.223 78.258 331.798 78.258 C 330.351 78.258 329.316 77.697 328.7 76.577 L 328.7 82.308 L 325.035 82.308 Z M 328.7 72.402 C 328.7 73.302 328.757 73.925 328.864 74.271 C 328.977 74.62 329.207 74.93 329.565 75.202 C 329.918 75.479 330.305 75.612 330.721 75.612 C 331.236 75.612 331.698 75.35 332.101 74.823 C 332.507 74.297 332.709 73.133 332.709 71.339 C 332.709 68.815 332.041 67.554 330.705 67.554 C 330.199 67.554 329.736 67.777 329.32 68.226 C 328.912 68.67 328.7 69.43 328.7 70.499 L 328.7 72.402 Z M 358.144 81.503 L 354.492 80.536 L 356.315 73.702 C 356.567 72.739 356.706 72.105 356.731 71.799 C 356.748 71.497 356.665 71.217 356.474 70.96 C 356.283 70.706 355.975 70.521 355.55 70.408 C 355.149 70.304 354.703 70.335 354.212 70.509 C 353.719 70.686 353.293 71.45 352.934 72.8 L 351.112 79.639 L 347.475 78.672 L 349.293 71.836 C 349.555 70.849 349.681 70.201 349.67 69.889 C 349.652 69.572 349.547 69.296 349.347 69.048 C 349.144 68.802 348.855 68.63 348.469 68.527 C 347.839 68.36 347.32 68.436 346.908 68.75 C 346.497 69.064 346.137 69.788 345.837 70.919 L 344.017 77.757 L 340.473 76.817 L 343.766 64.465 L 347.197 65.374 L 346.695 67.258 C 347.657 65.985 349.005 65.58 350.744 66.042 C 352.32 66.462 353.271 67.477 353.595 69.09 C 354.661 67.846 356.046 67.451 357.754 67.903 C 358.571 68.123 359.228 68.473 359.729 68.961 C 360.226 69.456 360.53 69.999 360.642 70.605 C 360.75 71.212 360.283 73.482 360.283 73.482 L 358.144 81.503 Z M 366.392 68.541 L 366.37 73.334 L 366.336 81.323 L 362.558 81.303 L 362.613 68.525 L 366.392 68.541 Z M 366.414 63.695 L 366.396 67.464 L 362.62 67.449 L 362.637 63.679 L 366.414 63.695 Z M 381.941 69.228 L 377.94 74.933 L 381.876 82.023 L 377.572 81.791 L 375.147 77.256 L 372.304 81.512 L 369.078 81.338 L 373.66 74.703 L 370.344 68.609 L 374.647 68.84 L 376.499 72.397 L 378.712 69.057 L 381.941 69.228 Z M 388.288 82.263 L 384.384 81.927 L 384.722 78.035 L 388.626 78.371 L 388.288 82.263 Z M 403.087 85.676 L 399.377 84.959 L 400.741 77.915 C 400.907 77.063 400.988 76.469 400.98 76.144 C 400.976 75.816 400.866 75.518 400.652 75.249 C 400.437 74.979 400.135 74.807 399.745 74.732 C 398.44 74.481 397.605 75.317 397.233 77.24 L 395.867 84.282 L 392.159 83.565 L 394.587 71.019 L 398.038 71.682 L 397.624 73.808 C 398.393 72.907 399.085 72.367 399.697 72.186 C 400.308 72.001 400.938 71.972 401.586 72.098 C 402.782 72.328 403.682 72.836 404.286 73.615 C 404.893 74.403 405.016 75.737 404.648 77.613 L 403.087 85.676 Z M 419.589 83.243 L 411.474 81.808 C 411.427 82.03 411.388 82.224 411.357 82.391 C 411.198 83.287 411.315 84.005 411.713 84.545 C 412.113 85.087 412.646 85.418 413.309 85.534 C 414.55 85.757 415.413 85.227 415.897 83.95 L 419.223 84.799 C 417.766 87.54 415.599 88.653 412.718 88.144 C 411.461 87.921 410.436 87.48 409.648 86.822 C 408.861 86.163 408.267 85.301 407.866 84.238 C 407.469 83.174 407.391 81.969 407.631 80.622 C 407.985 78.62 408.843 77.107 410.207 76.08 C 411.569 75.055 413.151 74.7 414.948 75.017 C 416.572 75.307 417.863 76.125 418.818 77.47 C 419.779 78.818 420.035 80.743 419.589 83.243 Z M 411.845 79.648 L 416.328 80.441 C 416.519 78.695 415.961 77.703 414.651 77.473 C 413.257 77.228 412.319 77.948 411.845 79.648 Z M 430.234 82.005 L 427.895 86.877 C 427.6 87.488 427.5 87.937 427.586 88.229 C 427.67 88.52 428.05 88.83 428.728 89.154 C 429.041 89.305 429.412 89.463 429.839 89.629 L 428.628 92.149 C 427.557 91.843 426.805 91.584 426.369 91.38 C 424.95 90.702 424.073 89.952 423.742 89.125 C 423.406 88.294 423.579 87.169 424.265 85.747 L 426.835 80.382 L 425.007 79.506 L 426.277 76.859 L 428.301 77.823 L 430.204 74.557 L 433.246 75.725 L 431.503 79.354 L 433.996 80.547 L 432.729 83.196 L 430.234 82.005 Z" style="fill: rgb(51, 51, 51); white-space: pre; mix-blend-mode: color-dodge; opacity: 0.44;"/>
  <path style="fill-rule: nonzero; stroke: none; stroke-width: 0.515336; fill-opacity: 1; fill: rgb(255, 255, 255);" d="M 300.379 202.151 C 292.846 202.361 285.603 205.625 280.449 211.421 C 273.568 219.142 271.562 230.046 275.213 239.715 L 245.732 312.753 C 232.484 304.694 217.312 300.32 201.802 300.111 L 201.802 303.761 C 162.385 303.201 127.982 330.385 119.386 368.892 C 110.78 407.4 130.361 446.655 166.256 462.934 C 202.163 479.215 244.565 468.042 267.807 436.182 L 270.758 438.327 C 298.56 400.216 290.91 346.875 253.534 318.116 L 258.583 305.603 L 349.85 385.009 C 345.745 393.499 346.572 403.552 352.008 411.25 C 357.442 418.957 366.631 423.085 375.984 422.049 L 381.407 439.785 L 375.727 439.785 L 375.727 449.034 L 399.284 449.034 L 399.284 439.785 L 391.075 439.785 L 384.848 419.4 C 392.661 415.435 397.931 407.774 398.865 399.062 L 398.876 399.062 L 414.479 398.036 C 420.124 440.508 457.045 471.786 499.834 470.305 C 542.632 468.836 577.314 435.097 580.021 392.332 L 583.671 392.601 C 585.198 368.624 576.755 345.079 560.335 327.563 C 543.915 310.036 520.977 300.099 496.977 300.099 C 483.483 300.099 470.177 303.248 458.118 309.288 L 434.364 268.099 L 443.18 248.296 L 467.285 237.299 C 470.748 235.715 472.638 231.947 471.844 228.226 C 471.052 224.519 467.763 221.848 463.973 221.835 C 444.02 221.172 424.066 220.868 404.112 220.938 C 401.361 220.81 398.899 222.629 398.188 225.288 C 397.477 227.947 398.712 230.734 401.139 232.017 C 411.611 237.766 422.328 243.037 433.268 247.831 L 424.625 267.259 L 274.07 267.259 L 285.313 239.41 C 281.452 232.996 281.85 224.879 286.304 218.862 C 290.77 212.845 298.421 210.116 305.675 211.947 L 305.744 211.971 L 322.036 216.122 L 326.515 217.253 L 328.789 208.284 L 324.31 207.154 L 307.96 202.991 L 307.925 202.991 C 305.417 202.348 302.887 202.081 300.379 202.151 Z M 270.327 276.519 L 420.509 276.519 L 378.502 370.969 C 375.691 370.375 372.8 370.257 369.955 370.607 L 364.8 353.755 L 372.03 353.755 L 372.03 344.497 L 348.461 344.497 L 348.461 353.755 L 355.133 353.755 L 361.126 373.371 C 359.004 374.478 357.057 375.878 355.319 377.522 L 262.245 296.53 L 270.327 276.519 Z M 429.721 278.548 L 450.083 313.849 C 429.676 326.957 415.669 347.994 411.436 371.89 C 410.434 377.558 409.99 383.295 410.13 389.045 L 398.2 389.826 C 396.554 383.482 392.58 377.989 387.062 374.468 L 428.696 280.856 L 429.721 278.548 Z M 201.09 317.347 C 214.222 317.428 227.457 321.218 239.178 329.021 L 222.689 369.861 C 218.57 378.188 209.883 383.237 200.624 382.689 C 198.98 382.689 197.452 383.564 196.624 384.985 C 195.795 386.41 195.795 388.171 196.612 389.605 C 197.439 391.027 198.957 391.913 200.612 391.913 C 214.186 392.473 226.676 384.461 231.842 371.877 L 231.842 371.89 L 246.77 334.875 C 274.864 359.784 278.188 402.491 254.292 431.447 C 230.385 460.404 187.865 465.196 158.127 442.293 C 128.401 419.377 122.15 377.008 143.994 346.468 C 157.649 327.389 179.213 317.219 201.09 317.347 Z M 498.621 317.37 C 516.58 317.802 534.143 325.173 547.181 338.747 C 568.031 360.472 572.593 393.149 558.47 419.762 C 544.348 446.362 514.749 460.882 485.081 455.738 C 455.424 450.596 432.428 426.958 428.079 397.138 L 489.116 393.138 C 491.938 396.801 496.919 398.025 501.117 396.1 C 505.314 394.176 507.635 389.605 506.714 385.069 C 505.781 380.531 501.863 377.243 497.244 377.114 L 466.76 324.263 C 476.929 319.354 487.845 317.114 498.621 317.37 Z M 458.713 328.823 L 488.942 381.208 L 487.53 383.972 L 427.343 387.913 C 427.051 364.158 438.876 341.872 458.713 328.823 Z" id="path19"/>
</svg>