<?xml version="1.0" encoding="utf-8"?>
<svg viewBox="0 0 61 61" width="61mm" height="61mm" xmlns="http://www.w3.org/2000/svg">
  <g id="layer1" transform="matrix(1, 0, 0, 1, 0, -236)">
    <circle style="opacity:1;fill:#dc0a14;fill-opacity:1;fill-rule:nonzero;stroke:none;stroke-width:0.18410923;stroke-linecap:square;stroke-linejoin:round;stroke-miterlimit:4;stroke-dasharray:none;stroke-opacity:1;paint-order:stroke fill markers" id="path17" cx="30.500002" cy="266.5" r="30.000002"/>
    <circle r="24" cy="266.5" cx="30.500002" id="circle1748" style="opacity:1;fill:#ffffff;fill-opacity:1;fill-rule:nonzero;stroke:none;stroke-width:0.14728737;stroke-linecap:square;stroke-linejoin:round;stroke-miterlimit:4;stroke-dasharray:none;stroke-opacity:1;paint-order:stroke fill markers"/>
    <path id="path962" d="m 25.471283,274.51958 c 0.09675,-0.25144 3.415226,-7.15007 3.498968,-7.73727 0.08373,-0.57435 -0.61207,-5.40133 -0.721635,-5.50459 -0.115946,-0.11612 -5.148055,3.71703 -5.354256,3.72992 -0.212747,0 -0.431544,-0.25802 -0.547643,-0.25147 -0.09021,0.006 -0.670101,0.5743 -0.960037,0.7098 -0.09675,0.0514 -0.206188,0.0838 -0.328687,0.0902 -0.451201,0.0186 -0.837595,-0.39383 -0.856946,-0.90989 -0.01405,-0.30343 0.11594,-0.61307 0.231899,-0.74213 0.122514,-0.12925 0.309059,-0.29689 0.457271,-0.33574 0.148218,-0.0469 0.341323,-0.0514 0.451206,-0.11616 0.09675,-0.0514 0.09022,-0.50335 0.09022,-0.50335 0,0 4.387767,-3.14913 4.587553,-3.34918 0.206194,-0.19997 1.855614,-4.62049 2.164896,-4.94313 0.302966,-0.3161 1.584982,-1.56812 1.584982,-1.56812 l 0.0188,-0.54208 c 0,0 -1.146887,-0.36809 -1.230622,-0.55496 -0.07715,-0.1934 -0.734538,-2.47802 -0.734538,-2.47802 l -1.288634,-0.39992 -0.05149,-0.38728 1.591417,-0.72275 0.0328,-0.92276 c 0,0 1.256428,-0.65179 2.113368,-0.57434 0.850485,0.0838 1.694525,0.49043 1.707445,0.71628 0.0048,0.23228 0.03287,1.02606 0.03287,1.02606 l 1.758956,0.72922 -0.01887,0.38071 -1.655906,0.96155 0.180473,2.58122 c 0,0 3.189362,1.46488 3.376197,1.68428 0.180484,0.22572 4.010737,4.62695 4.133186,4.85922 0.109425,0.21962 1.172634,6.06598 1.056633,6.06598 -0.09678,0.006 -0.508977,0.37416 -0.508977,0.37416 0,0 0.154757,1.21967 -0.141664,1.65202 -0.014,0.0234 -0.03278,0.0375 -0.04678,0.0514 -0.148225,0.27115 -0.412398,0.45797 -0.734536,0.47109 -0.489675,0.0186 -0.914922,-0.3999 -0.93427,-0.94219 0,-0.12268 0.01401,-0.23882 0.04668,-0.34842 l 0.05793,-0.47108 -0.360953,-0.3292 c 0,0 -0.657206,-4.70436 -0.805371,-4.81403 -0.14823,-0.10301 -2.915438,-2.64581 -2.915438,-2.64581 l 1.043781,8.51176 c 0.01877,0.45796 -0.257618,0.85176 -0.644294,0.97439 l 4.822001,15.5263 c 0.122499,0.31609 0.014,0.68403 -0.270715,0.83889 l -4.130044,2.09086 c -0.231892,0.1227 -0.509021,0.006 -0.624983,-0.25148 -0.109406,-0.25148 0.328702,-0.83243 0.238456,-0.71629 0.05793,-0.0838 0.251083,-0.34185 0.496134,-0.71629 0.341328,-0.52272 0.225357,-0.9486 -0.07108,-1.61329 0,0 -3.475398,-11.24139 -3.623602,-11.24139 -0.148221,0 -2.790253,4.83343 -2.938408,4.99472 l -0.01402,0.0139 -2.912357,8.15035 c -0.122493,0.32266 -0.360951,0.56141 -0.670052,0.50983 l -4.471532,-0.91639 c -0.264177,-0.0514 -0.431558,-0.31609 -0.386669,-0.60016 0.04664,-0.2777 0.257617,-0.33574 0.547706,-0.41959 0.289874,-0.0838 0.386662,-0.11612 1.069526,-0.28376 0.650743,-0.0903 0.985798,-0.52272 1.140473,-1.12287 0,0 2.319514,-7.47271 2.422608,-7.71797" style="fill:#000000;fill-opacity:1;fill-rule:nonzero;stroke:none;stroke-width:0.02975632"/>
    <path d="M 21.866 240.378 L 22.128 240.838 C 22.161 240.896 22.192 240.929 22.22 240.939 C 22.249 240.948 22.295 240.935 22.359 240.898 C 22.388 240.882 22.422 240.861 22.459 240.836 L 22.595 241.074 C 22.511 241.143 22.447 241.189 22.406 241.212 C 22.273 241.288 22.163 241.317 22.077 241.297 C 21.992 241.277 21.911 241.201 21.835 241.067 L 21.546 240.561 L 21.373 240.658 L 21.231 240.409 L 21.422 240.3 L 21.265 239.965 L 21.528 239.786 L 21.724 240.128 L 21.959 239.995 L 22.102 240.245 L 21.866 240.378 Z M 23.748 240.181 L 23.002 240.489 C 23.01 240.51 23.017 240.528 23.023 240.544 C 23.057 240.626 23.105 240.679 23.167 240.703 C 23.228 240.727 23.289 240.726 23.35 240.701 C 23.465 240.653 23.508 240.564 23.48 240.434 L 23.8 240.328 C 23.824 240.631 23.704 240.838 23.439 240.947 C 23.324 240.994 23.216 241.012 23.116 240.999 C 23.016 240.986 22.922 240.947 22.833 240.88 C 22.744 240.813 22.674 240.718 22.622 240.594 C 22.546 240.41 22.537 240.24 22.595 240.084 C 22.653 239.927 22.765 239.815 22.93 239.746 C 23.079 239.685 23.229 239.684 23.379 239.745 C 23.529 239.806 23.652 239.951 23.748 240.181 Z M 22.919 240.292 L 23.33 240.121 C 23.253 239.967 23.156 239.915 23.035 239.964 C 22.907 240.017 22.868 240.127 22.919 240.292 Z M 24.693 239.29 C 24.884 239.271 25.038 239.319 25.157 239.432 C 25.276 239.546 25.344 239.696 25.363 239.883 C 25.381 240.066 25.341 240.226 25.242 240.359 C 25.144 240.493 25.002 240.569 24.819 240.587 C 24.641 240.605 24.492 240.558 24.374 240.447 C 24.255 240.335 24.186 240.184 24.168 239.994 C 24.155 239.861 24.167 239.747 24.206 239.649 C 24.246 239.552 24.304 239.471 24.383 239.406 C 24.461 239.342 24.564 239.302 24.693 239.29 Z M 24.727 239.529 C 24.657 239.536 24.607 239.568 24.577 239.625 C 24.546 239.683 24.539 239.791 24.555 239.952 C 24.569 240.099 24.597 240.203 24.637 240.264 C 24.677 240.324 24.733 240.352 24.805 240.345 C 24.867 240.338 24.915 240.306 24.949 240.248 C 24.982 240.189 24.991 240.083 24.975 239.929 C 24.959 239.766 24.932 239.657 24.892 239.601 C 24.852 239.546 24.797 239.522 24.727 239.529 Z M 26.124 240.388 L 25.771 240.449 L 25.554 239.216 L 25.888 239.158 L 25.929 239.388 C 25.95 239.207 26.024 239.107 26.15 239.085 C 26.168 239.082 26.191 239.079 26.217 239.077 L 26.28 239.436 C 26.205 239.449 26.15 239.47 26.113 239.501 C 26.076 239.53 26.049 239.577 26.033 239.64 C 26.018 239.704 26.019 239.786 26.036 239.886 L 26.124 240.388 Z M 26.889 238.949 L 27.115 240.179 L 26.751 240.246 L 26.525 239.016 L 26.889 238.949 Z M 26.803 238.482 L 26.869 238.845 L 26.505 238.912 L 26.439 238.548 L 26.803 238.482 Z M 28.613 240.017 L 28.255 240.044 C 28.24 239.995 28.229 239.931 28.223 239.85 C 28.167 239.944 28.109 240.007 28.049 240.041 C 27.989 240.075 27.919 240.095 27.84 240.101 C 27.723 240.11 27.626 240.086 27.548 240.028 C 27.471 239.97 27.429 239.888 27.42 239.78 C 27.414 239.702 27.43 239.628 27.467 239.56 C 27.504 239.49 27.568 239.433 27.658 239.389 C 27.749 239.344 27.917 239.304 28.162 239.266 L 28.156 239.195 C 28.147 239.074 28.082 239.018 27.961 239.027 C 27.831 239.037 27.763 239.103 27.758 239.225 L 27.415 239.219 C 27.427 239.075 27.486 238.97 27.594 238.902 C 27.701 238.835 27.826 238.795 27.968 238.784 C 28.053 238.778 28.134 238.782 28.21 238.795 C 28.287 238.81 28.348 238.835 28.393 238.871 C 28.439 238.908 28.47 238.947 28.488 238.99 C 28.506 239.033 28.519 239.11 28.528 239.219 L 28.571 239.785 C 28.58 239.893 28.594 239.971 28.613 240.017 Z M 28.176 239.448 C 27.919 239.493 27.796 239.581 27.806 239.711 C 27.809 239.755 27.826 239.791 27.855 239.821 C 27.885 239.85 27.925 239.864 27.976 239.86 C 28.04 239.855 28.094 239.823 28.134 239.767 C 28.174 239.709 28.191 239.641 28.184 239.562 L 28.176 239.448 Z M 29.378 239.983 L 28.994 239.988 L 28.989 239.605 L 29.372 239.601 L 29.378 239.983 Z M 29.781 240.407 L 29.781 238.734 L 30.121 238.734 L 30.121 238.917 C 30.184 238.777 30.295 238.708 30.452 238.708 C 30.587 238.708 30.699 238.762 30.785 238.871 C 30.871 238.979 30.914 239.137 30.914 239.344 C 30.914 239.565 30.871 239.731 30.784 239.843 C 30.696 239.955 30.583 240.011 30.443 240.011 C 30.301 240.011 30.201 239.956 30.14 239.846 L 30.14 240.407 L 29.781 240.407 Z M 30.14 239.437 C 30.14 239.526 30.145 239.587 30.156 239.621 C 30.167 239.654 30.19 239.685 30.225 239.712 C 30.259 239.739 30.297 239.752 30.338 239.752 C 30.388 239.752 30.433 239.727 30.473 239.675 C 30.513 239.623 30.532 239.509 30.532 239.334 C 30.532 239.086 30.467 238.962 30.336 238.962 C 30.287 238.962 30.242 238.984 30.201 239.029 C 30.161 239.073 30.14 239.147 30.14 239.251 L 30.14 239.437 Z M 33.023 240.329 L 32.666 240.234 L 32.844 239.565 C 32.869 239.471 32.882 239.409 32.884 239.379 C 32.887 239.349 32.878 239.321 32.86 239.296 C 32.841 239.272 32.811 239.253 32.769 239.242 C 32.73 239.232 32.686 239.235 32.638 239.253 C 32.59 239.269 32.548 239.344 32.513 239.477 L 32.334 240.146 L 31.978 240.052 L 32.156 239.382 C 32.182 239.285 32.194 239.222 32.193 239.191 C 32.192 239.161 32.181 239.133 32.161 239.109 C 32.142 239.085 32.113 239.068 32.076 239.058 C 32.014 239.042 31.963 239.049 31.923 239.08 C 31.883 239.11 31.848 239.182 31.818 239.293 L 31.639 239.962 L 31.293 239.869 L 31.615 238.661 L 31.951 238.75 L 31.902 238.934 C 31.996 238.809 32.128 238.77 32.298 238.815 C 32.453 238.856 32.546 238.955 32.577 239.113 C 32.682 238.992 32.818 238.953 32.985 238.997 C 33.064 239.018 33.129 239.053 33.178 239.101 C 33.227 239.149 33.257 239.202 33.267 239.261 C 33.278 239.321 33.266 239.415 33.232 239.544 L 33.023 240.329 Z M 33.831 239.059 L 33.825 240.311 L 33.455 240.309 L 33.46 239.058 L 33.831 239.059 Z M 33.833 238.585 L 33.831 238.954 L 33.461 238.953 L 33.463 238.583 L 33.833 238.585 Z M 35.353 239.126 L 34.962 239.685 L 35.346 240.38 L 34.925 240.357 L 34.688 239.912 L 34.41 240.329 L 34.093 240.313 L 34.542 239.663 L 34.217 239.066 L 34.639 239.089 L 34.821 239.437 L 35.037 239.11 L 35.353 239.126 Z M 35.975 240.403 L 35.592 240.37 L 35.626 239.989 L 36.008 240.022 L 35.975 240.403 Z M 37.424 240.737 L 37.06 240.667 L 37.194 239.977 C 37.211 239.894 37.218 239.836 37.218 239.804 C 37.217 239.772 37.206 239.743 37.185 239.716 C 37.164 239.69 37.135 239.673 37.096 239.666 C 36.969 239.641 36.887 239.723 36.851 239.911 L 36.716 240.601 L 36.353 240.531 L 36.592 239.302 L 36.929 239.367 L 36.889 239.575 C 36.964 239.487 37.032 239.434 37.092 239.417 C 37.152 239.398 37.214 239.396 37.277 239.408 C 37.394 239.431 37.482 239.48 37.541 239.557 C 37.601 239.633 37.612 239.764 37.577 239.947 L 37.424 240.737 Z M 39.04 240.499 L 38.245 240.359 C 38.24 240.38 38.236 240.399 38.234 240.415 C 38.218 240.504 38.23 240.574 38.269 240.627 C 38.307 240.68 38.36 240.712 38.425 240.724 C 38.546 240.745 38.63 240.693 38.678 240.569 L 39.003 240.652 C 38.861 240.92 38.648 241.029 38.366 240.979 C 38.244 240.957 38.143 240.914 38.066 240.85 C 37.989 240.785 37.931 240.701 37.892 240.597 C 37.853 240.493 37.845 240.375 37.868 240.243 C 37.903 240.047 37.987 239.899 38.121 239.798 C 38.254 239.697 38.409 239.663 38.585 239.694 C 38.744 239.722 38.871 239.802 38.964 239.934 C 39.058 240.066 39.083 240.254 39.04 240.499 Z M 38.282 240.147 L 38.721 240.225 C 38.739 240.054 38.684 239.957 38.557 239.934 C 38.419 239.91 38.328 239.981 38.282 240.147 Z M 40.082 240.378 L 39.853 240.855 C 39.824 240.915 39.814 240.959 39.822 240.987 C 39.831 241.016 39.868 241.046 39.934 241.078 C 39.965 241.093 40.002 241.108 40.043 241.124 L 39.925 241.371 C 39.82 241.341 39.746 241.316 39.703 241.296 C 39.565 241.23 39.479 241.156 39.446 241.075 C 39.413 240.994 39.431 240.884 39.497 240.744 L 39.749 240.219 L 39.57 240.133 L 39.695 239.874 L 39.892 239.969 L 40.079 239.649 L 40.376 239.763 L 40.206 240.118 L 40.45 240.235 L 40.326 240.494 L 40.082 240.378 Z" style="fill: rgb(51, 51, 51); white-space: pre; mix-blend-mode: color-dodge; opacity: 0.28;"/>
  </g>
</svg>