<?xml version="1.0" encoding="UTF-8" standalone="no"?>
<!-- Created with Inkscape (http://www.inkscape.org/) -->

<svg
   xmlns:dc="http://purl.org/dc/elements/1.1/"
   xmlns:cc="http://creativecommons.org/ns#"
   xmlns:rdf="http://www.w3.org/1999/02/22-rdf-syntax-ns#"
   xmlns:svg="http://www.w3.org/2000/svg"
   xmlns="http://www.w3.org/2000/svg"
   xmlns:sodipodi="http://sodipodi.sourceforge.net/DTD/sodipodi-0.dtd"
   xmlns:inkscape="http://www.inkscape.org/namespaces/inkscape"
   width="61mm"
   height="61mm"
   viewBox="0 0 61 61"
   version="1.1"
   id="svg2000"
   inkscape:version="0.92.2 (5c3e80d, 2017-08-06)"
   sodipodi:docname="11.svg">
  <defs
     id="defs1994" />
  <sodipodi:namedview
     id="base"
     pagecolor="#ffffff"
     bordercolor="#666666"
     borderopacity="1.0"
     inkscape:pageopacity="0.0"
     inkscape:pageshadow="2"
     inkscape:zoom="1.979899"
     inkscape:cx="109.25452"
     inkscape:cy="110.28617"
     inkscape:document-units="mm"
     inkscape:current-layer="layer1"
     showgrid="false"
     inkscape:window-width="1920"
     inkscape:window-height="1057"
     inkscape:window-x="-8"
     inkscape:window-y="-8"
     inkscape:window-maximized="1"
     fit-margin-top="0"
     fit-margin-left="0"
     fit-margin-right="0"
     fit-margin-bottom="0" />
  <metadata
     id="metadata1997">
    <rdf:RDF>
      <cc:Work
         rdf:about="">
        <dc:format>image/svg+xml</dc:format>
        <dc:type
           rdf:resource="http://purl.org/dc/dcmitype/StillImage" />
        <dc:title></dc:title>
      </cc:Work>
    </rdf:RDF>
  </metadata>
  <g
     inkscape:label="Layer 1"
     inkscape:groupmode="layer"
     id="layer1"
     transform="translate(-24.5,-236)">
    <circle
       r="29.5"
       cy="266.5"
       cx="54.999985"
       id="circle1748"
       style="opacity:1;fill:#ffffff;fill-opacity:1;fill-rule:nonzero;stroke:none;stroke-width:0.18104073;stroke-linecap:square;stroke-linejoin:round;stroke-miterlimit:4;stroke-dasharray:none;stroke-opacity:1;paint-order:stroke fill markers" />
    <path
       style="fill:#969696;fill-opacity:1;fill-rule:nonzero;stroke:none;stroke-width:0.11187789"
       d="m 42.97996,259.74977 c -1.55265,0.0135 -2.78693,0.15085 -3.68982,0.23786 -0.75908,0.0801 -1.63119,0.63226 -1.89025,1.66503 l -0.82288,3.18852 c -0.41181,0.18049 -0.96218,0.81347 -0.97701,1.86434 l 0.25713,3.03436 c 0.0612,0.56834 0.26777,1.23777 0.70726,1.49792 v 2.01218 h 1.9929 v -1.9929 c 1.2836,0.0922 5.08118,0.13234 5.5927,0.12857 0.51152,0.004 4.30943,-0.0359 5.59303,-0.12857 v 1.9929 h 1.992583 v -2.01218 c 0.43949,-0.26015 0.64606,-0.92958 0.70726,-1.49792 l 0.25713,-3.03436 c -0.0149,-1.05087 -0.56522,-1.68385 -0.97702,-1.86434 l -0.82287,-3.18852 c -0.25907,-1.03277 -1.131183,-1.58505 -1.890263,-1.66503 -0.90289,-0.0869 -2.13716,-0.22442 -3.68981,-0.23786 z"
       id="path834"
       inkscape:connector-curvature="0"
       sodipodi:nodetypes="cccccccccccccccccccccc" />
    <path
       style="fill:#ffffff;fill-opacity:1;fill-rule:nonzero;stroke:none;stroke-width:0.11187789"
       d="m 37.77296,264.67396 0.61059,-2.86727 c 0.12145,-0.47877 0.53296,-0.76239 0.90659,-0.82256 l 1.63279,-0.15445 c 0.70083,-0.077 2.34694,-0.11178 3.22706,-0.11563 0.88013,0.004 2.52624,0.0385 3.22706,0.11563 l 1.63312,0.15445 c 0.37363,0.06 0.784823,0.34379 0.906263,0.82256 l 0.6106,2.86727 c -2.499983,-0.21898 -4.867043,-0.26837 -6.377043,-0.29566 -1.51002,0.0275 -3.87706,0.0764 -6.37703,0.29566 z"
       id="path836"
       inkscape:connector-curvature="0" />
    <path
       sodipodi:nodetypes="cccccccccccccccccccccc"
       inkscape:connector-curvature="0"
       id="path835"
       d="m 67.020033,259.74977 c 1.552652,0.0135 2.78693,0.15085 3.689821,0.23786 0.759079,0.0801 1.63119,0.63226 1.890249,1.66503 l 0.822881,3.18852 c 0.411811,0.18049 0.962178,0.81347 0.977008,1.86434 l -0.25713,3.03436 c -0.0612,0.56834 -0.267769,1.23777 -0.707257,1.49792 v 2.01218 h -1.9929 v -1.9929 c -1.283603,0.0922 -5.08118,0.13234 -5.592702,0.12857 -0.511519,0.004 -4.30943,-0.0359 -5.59303,-0.12857 v 1.9929 H 58.26439 v -2.01218 c -0.43949,-0.26015 -0.64606,-0.92958 -0.70726,-1.49792 L 57.3,266.70552 c 0.0149,-1.05087 0.56522,-1.68385 0.97702,-1.86434 l 0.82287,-3.18852 c 0.25907,-1.03277 1.131183,-1.58505 1.890263,-1.66503 0.90289,-0.0869 2.13716,-0.22442 3.68981,-0.23786 z"
       style="fill:#969696;fill-opacity:1;fill-rule:nonzero;stroke:none;stroke-width:0.11187789" />
    <path
       inkscape:connector-curvature="0"
       id="path837"
       d="m 72.227033,264.67396 -0.61059,-2.86727 c -0.121449,-0.47877 -0.532961,-0.76239 -0.906589,-0.82256 l -1.632792,-0.15445 c -0.700828,-0.077 -2.346938,-0.11178 -3.227059,-0.11563 -0.880129,0.004 -2.526239,0.0385 -3.227059,0.11563 l -1.633121,0.15445 c -0.37363,0.06 -0.784823,0.34379 -0.906263,0.82256 l -0.6106,2.86727 c 2.499983,-0.21898 4.867042,-0.26837 6.377043,-0.29566 1.510019,0.0275 3.877061,0.0764 6.37703,0.29566 z"
       style="fill:#ffffff;fill-opacity:1;fill-rule:nonzero;stroke:none;stroke-width:0.11187789" />
    <path
       sodipodi:nodetypes="ccccccc"
       inkscape:connector-curvature="0"
       id="path839"
       d="m 71.758407,241.96345 4.313351,3.46483 3.464824,4.31335 -41.295036,41.29503 -4.313352,-3.46482 -3.464823,-4.31335 z"
       style="opacity:1;fill:#000000;fill-opacity:1;fill-rule:nonzero;stroke:none;stroke-width:0.1058364;stroke-linecap:square;stroke-linejoin:round;stroke-miterlimit:4;stroke-dasharray:none;stroke-opacity:1;paint-order:stroke fill markers" />
    <path
       id="path841"
       d="M 55.000236,236.50005 A 30,30 0 0 0 25,266.50029 30,30 0 0 0 55.000236,296.5 30,30 0 0 0 84.999953,266.50029 30,30 0 0 0 55.000236,236.50005 Z m 0,0.99994 a 29,29 0 0 1 28.99978,29.0003 29,29 0 0 1 -28.99978,28.99978 29,29 0 0 1 -29.000297,-28.99978 29,29 0 0 1 29.000297,-29.0003 z"
       style="opacity:1;fill:#000000;fill-opacity:1;fill-rule:nonzero;stroke:none;stroke-width:0.1841092;stroke-linecap:square;stroke-linejoin:round;stroke-miterlimit:4;stroke-dasharray:none;stroke-opacity:1;paint-order:stroke fill markers"
       inkscape:connector-curvature="0" />
  </g>
</svg>
