<svg xmlns="http://www.w3.org/2000/svg" width="747" height="326" viewBox="0 0 747 326">
  <defs>
    <style>
      .cls-1 {
        fill: #626262;
      }

      .cls-2, .cls-3 {
        fill: #fff;
      }

      .cls-3 {
        fill-rule: evenodd;
        opacity: 0.18;
      }
    </style>
  </defs>
  <rect class="cls-1" width="747" height="326"/>
  <rect class="cls-2" x="20" y="145" width="134" height="36"/>
  <rect id="Rectangle_2_copy" data-name="Rectangle 2 copy" class="cls-2" x="593" y="145" width="134" height="36"/>
  <rect id="Rectangle_2_copy_2" data-name="Rectangle 2 copy 2" class="cls-2" x="402" y="145" width="134" height="36"/>
  <rect id="Rectangle_2_copy_3" data-name="Rectangle 2 copy 3" class="cls-2" x="211" y="145" width="134" height="36"/>
  <path id="teoria.pmix.net" class="cls-3" d="M331.619,297.571a1.431,1.431,0,0,1-.887.282,1.157,1.157,0,0,1-.962-0.365,1.984,1.984,0,0,1-.29-1.218v-4.783h2.139v-1.16H329.48v-2.512l-1.359.44v2.072h-1.459v1.16h1.459v5.023q0,2.487,2.23,2.487a2.631,2.631,0,0,0,1.268-.265v-1.161Zm8.5-3.373a4.49,4.49,0,0,0-.912-2.992,3.19,3.19,0,0,0-2.578-1.078,3.6,3.6,0,0,0-2.789,1.247,4.641,4.641,0,0,0-1.123,3.229,4.733,4.733,0,0,0,1.028,3.253,3.586,3.586,0,0,0,2.826,1.156,4.922,4.922,0,0,0,2.959-.812v-1.276a4.167,4.167,0,0,1-2.635.945,2.628,2.628,0,0,1-2.006-.771,3.177,3.177,0,0,1-.763-2.188h5.993V294.2Zm-5.976-.44a3.117,3.117,0,0,1,.829-1.8,2.194,2.194,0,0,1,1.633-.688,1.933,1.933,0,0,1,1.554.655,2.761,2.761,0,0,1,.567,1.831h-4.583Zm14.658,4.033a4.557,4.557,0,0,0,1.148-3.253,4.633,4.633,0,0,0-1.065-3.241,3.807,3.807,0,0,0-2.963-1.169,4.2,4.2,0,0,0-3.158,1.2,4.59,4.59,0,0,0-1.169,3.34,4.409,4.409,0,0,0,1.123,3.154,3.938,3.938,0,0,0,3,1.189A4.021,4.021,0,0,0,348.805,297.791Zm-0.953-5.657a3.764,3.764,0,0,1,.709,2.453,3.7,3.7,0,0,1-.709,2.429,2.485,2.485,0,0,1-2.026.854,2.621,2.621,0,0,1-2.064-.871,3.46,3.46,0,0,1-.771-2.379,3.66,3.66,0,0,1,.762-2.457,2.587,2.587,0,0,1,2.073-.891A2.472,2.472,0,0,1,347.852,292.134Zm8.7-1.84a2.207,2.207,0,0,0-.812-0.116,2.025,2.025,0,0,0-1.335.5,2.971,2.971,0,0,0-.887,1.4h-0.033v-1.749h-1.359v8.487h1.359v-4.326a3.791,3.791,0,0,1,.585-2.238,1.734,1.734,0,0,1,1.454-.821,1.659,1.659,0,0,1,1.028.274v-1.409Zm2.806-2.379a0.886,0.886,0,0,0,0-1.256,0.881,0.881,0,0,0-.634-0.253,0.871,0.871,0,0,0-.879.887,0.841,0.841,0,0,0,.257.63,0.86,0.86,0,0,0,.622.249A0.872,0.872,0,0,0,359.357,287.915Zm0.029,2.412h-1.36v8.487h1.36v-8.487Zm8.827,2.967q0-3.166-2.992-3.166a5.252,5.252,0,0,0-2.884.8v1.392a4.178,4.178,0,0,1,2.768-1.044q1.749,0,1.749,2.163l-2.545.357q-2.8.389-2.8,2.768a2.326,2.326,0,0,0,.717,1.782,2.787,2.787,0,0,0,1.985.671,2.847,2.847,0,0,0,2.611-1.525h0.033v1.326h1.359v-5.52Zm-1.359,2.072a2.535,2.535,0,0,1-.659,1.8,2.183,2.183,0,0,1-1.67.709,1.714,1.714,0,0,1-1.181-.394,1.3,1.3,0,0,1-.444-1.015,1.35,1.35,0,0,1,.481-1.19,3.315,3.315,0,0,1,1.426-.468l2.047-.282v0.845Zm5.056,3.357a0.892,0.892,0,0,0,.273-0.654,0.907,0.907,0,0,0-.273-0.659,0.892,0.892,0,0,0-.663-0.278,0.872,0.872,0,0,0-.651.278,0.915,0.915,0,0,0-.269.659,0.9,0.9,0,0,0,.269.654,0.88,0.88,0,0,0,.651.274A0.9,0.9,0,0,0,371.91,298.723Zm6.482,0.29a3.446,3.446,0,0,0,2.834-1.28,5.26,5.26,0,0,0,1.036-3.411,4.717,4.717,0,0,0-.92-3.054,3.107,3.107,0,0,0-2.561-1.14,3.216,3.216,0,0,0-2.934,1.691h-0.033v-1.492h-1.359v12.391h1.359v-5.13h0.033a2.84,2.84,0,0,0,2.545,1.425h0Zm-1.857-6.916a2.408,2.408,0,0,1,1.906-.825,2.167,2.167,0,0,1,1.774.8,3.418,3.418,0,0,1,.655,2.221,4.343,4.343,0,0,1-.7,2.628,2.439,2.439,0,0,1-3.672.211,2.522,2.522,0,0,1-.684-1.786v-1.185A3.025,3.025,0,0,1,376.535,292.1Zm19.951,1.487q0-3.456-2.8-3.456a3.029,3.029,0,0,0-2.818,1.757,2.452,2.452,0,0,0-2.4-1.757,2.882,2.882,0,0,0-2.635,1.542h-0.034v-1.343h-1.359v8.487h1.359v-4.84a3.1,3.1,0,0,1,.581-1.952,1.787,1.787,0,0,1,1.475-.75q1.931,0,1.931,2.5v5.039h1.36v-4.84a3.044,3.044,0,0,1,.609-1.906,1.81,1.81,0,0,1,1.479-.8,1.65,1.65,0,0,1,1.463.63,3.677,3.677,0,0,1,.435,2.039v4.873h1.36v-5.23Zm3.9-5.669a0.886,0.886,0,0,0,0-1.256,0.881,0.881,0,0,0-.634-0.253,0.871,0.871,0,0,0-.879.887,0.841,0.841,0,0,0,.257.63,0.86,0.86,0,0,0,.622.249A0.872,0.872,0,0,0,400.386,287.915Zm0.029,2.412h-1.36v8.487h1.36v-8.487Zm7.451,0-2.122,3.564h-0.033c-0.116-.226-0.235-0.448-0.356-0.663l-1.641-2.9H402.13l2.769,4.327-2.893,4.16h1.567l1.7-2.751c0.232-.382.362-0.6,0.389-0.647H405.7c0.143,0.26.267,0.475,0.372,0.647l1.667,2.751h1.583l-2.8-4.194,2.851-4.293h-1.5Zm4.227,8.4a0.889,0.889,0,0,0,.274-0.654,0.9,0.9,0,0,0-.274-0.659,0.892,0.892,0,0,0-.663-0.278,0.868,0.868,0,0,0-.65.278,0.912,0.912,0,0,0-.27.659,0.9,0.9,0,0,0,.27.654,0.876,0.876,0,0,0,.65.274A0.9,0.9,0,0,0,412.093,298.723Zm9.59-5.1a4.013,4.013,0,0,0-.737-2.6,2.6,2.6,0,0,0-2.131-.9,3.064,3.064,0,0,0-2.785,1.608H416v-1.409h-1.359v8.487H416v-4.84a2.84,2.84,0,0,1,.668-1.935,2.136,2.136,0,0,1,1.686-.767q1.972,0,1.973,2.7v4.84h1.359v-5.188Zm9.383,0.572a4.49,4.49,0,0,0-.912-2.992,3.189,3.189,0,0,0-2.577-1.078,3.6,3.6,0,0,0-2.79,1.247,4.646,4.646,0,0,0-1.123,3.229,4.733,4.733,0,0,0,1.028,3.253,3.586,3.586,0,0,0,2.827,1.156,4.924,4.924,0,0,0,2.959-.812v-1.276a4.172,4.172,0,0,1-2.636.945,2.628,2.628,0,0,1-2.006-.771,3.177,3.177,0,0,1-.763-2.188h5.993V294.2Zm-5.976-.44a3.117,3.117,0,0,1,.829-1.8,2.194,2.194,0,0,1,1.633-.688,1.933,1.933,0,0,1,1.554.655,2.766,2.766,0,0,1,.568,1.831H425.09Zm11.969,3.813a1.431,1.431,0,0,1-.887.282,1.157,1.157,0,0,1-.962-0.365,1.984,1.984,0,0,1-.29-1.218v-4.783h2.139v-1.16H434.92v-2.512l-1.359.44v2.072H432.1v1.16h1.459v5.023q0,2.487,2.23,2.487a2.631,2.631,0,0,0,1.268-.265v-1.161Z"/>
</svg>
