<svg id="LOGO" xmlns="http://www.w3.org/2000/svg" width="747" height="326" viewBox="0 0 747 326">
  <defs>
    <style>
      .cls-1, .cls-5 {
        fill: #626262;
      }

      .cls-2, .cls-3, .cls-4 {
        fill: #fff;
      }

      .cls-2, .cls-3, .cls-5 {
        fill-rule: evenodd;
      }

      .cls-2 {
        opacity: 0.11;
      }
    </style>
  </defs>
  <rect class="cls-1" width="747" height="326"/>
  <path id="teoria.pmix.net" class="cls-2" d="M385.236,318.529a0.909,0.909,0,0,1-.578.19,0.742,0.742,0,0,1-.627-0.246,1.374,1.374,0,0,1-.189-0.822v-3.225h1.394v-0.782h-1.394V311.95l-0.887.3v1.4H382v0.782h0.951v3.387q0,1.677,1.454,1.677a1.652,1.652,0,0,0,.827-0.179v-0.782Zm5.546-2.275a3.1,3.1,0,0,0-.594-2.018,2.052,2.052,0,0,0-1.682-.726,2.313,2.313,0,0,0-1.818.841,3.192,3.192,0,0,0-.733,2.177,3.268,3.268,0,0,0,.67,2.194,2.306,2.306,0,0,0,1.844.779,3.133,3.133,0,0,0,1.929-.547v-0.861a2.662,2.662,0,0,1-1.719.637,1.683,1.683,0,0,1-1.308-.52,2.181,2.181,0,0,1-.5-1.475h3.908v-0.481Zm-3.9-.3a2.14,2.14,0,0,1,.54-1.213,1.411,1.411,0,0,1,1.065-.464,1.241,1.241,0,0,1,1.014.442,1.91,1.91,0,0,1,.37,1.235h-2.989Zm9.559,2.719a3.14,3.14,0,0,0,.749-2.194,3.193,3.193,0,0,0-.695-2.185,2.438,2.438,0,0,0-1.932-.788,2.7,2.7,0,0,0-2.06.81,3.159,3.159,0,0,0-.762,2.253,3.026,3.026,0,0,0,.733,2.126,2.522,2.522,0,0,0,1.959.8A2.577,2.577,0,0,0,396.444,318.677Zm-0.621-3.815a2.6,2.6,0,0,1,.462,1.655,2.555,2.555,0,0,1-.462,1.637,1.6,1.6,0,0,1-1.322.576,1.684,1.684,0,0,1-1.346-.587,2.386,2.386,0,0,1-.5-1.6,2.521,2.521,0,0,1,.5-1.657,1.659,1.659,0,0,1,1.351-.6A1.592,1.592,0,0,1,395.823,314.862Zm5.673-1.241a1.413,1.413,0,0,0-.53-0.078,1.294,1.294,0,0,0-.87.338,2.008,2.008,0,0,0-.579.942H399.5v-1.179h-0.887v5.723H399.5V316.45a2.621,2.621,0,0,1,.381-1.509,1.123,1.123,0,0,1,.948-0.554,1.06,1.06,0,0,1,.671.185v-0.951Zm1.829-1.6a0.609,0.609,0,0,0,0-.846,0.56,0.56,0,0,0-.413-0.171,0.548,0.548,0,0,0-.406.171,0.586,0.586,0,0,0-.167.427,0.578,0.578,0,0,0,.167.425A0.576,0.576,0,0,0,403.325,312.017Zm0.019,1.627h-0.886v5.723h0.886v-5.723Zm5.757,2q0-2.136-1.951-2.135a3.356,3.356,0,0,0-1.882.536v0.939a2.677,2.677,0,0,1,1.806-.7q1.14,0,1.14,1.459l-1.659.24a1.8,1.8,0,0,0-1.827,1.867,1.6,1.6,0,0,0,.467,1.2,1.788,1.788,0,0,0,1.3.452,1.846,1.846,0,0,0,1.7-1.028h0.021v0.894H409.1v-3.722Zm-0.887,1.4a1.742,1.742,0,0,1-.429,1.21,1.4,1.4,0,0,1-1.09.478,1.1,1.1,0,0,1-.77-0.265,0.888,0.888,0,0,1-.289-0.685,0.922,0.922,0,0,1,.314-0.8,2.115,2.115,0,0,1,.929-0.316l1.335-.19v0.57Zm3.3,2.264a0.612,0.612,0,0,0,.178-0.442,0.622,0.622,0,0,0-.178-0.444,0.575,0.575,0,0,0-.433-0.187,0.559,0.559,0,0,0-.424.187,0.628,0.628,0,0,0-.176.444,0.619,0.619,0,0,0,.176.442,0.563,0.563,0,0,0,.424.184A0.579,0.579,0,0,0,411.512,319.306Zm4.227,0.195a2.217,2.217,0,0,0,1.848-.863,3.627,3.627,0,0,0,.676-2.3,3.26,3.26,0,0,0-.6-2.06,2,2,0,0,0-1.67-.768,2.085,2.085,0,0,0-1.914,1.14h-0.021v-1.006h-0.887V322h0.887v-3.46h0.021a1.839,1.839,0,0,0,1.66.961h0Zm-1.211-4.664a1.546,1.546,0,0,1,1.243-.556,1.4,1.4,0,0,1,1.157.542,2.368,2.368,0,0,1,.427,1.5,2.994,2.994,0,0,1-.457,1.772,1.557,1.557,0,0,1-2.4.142,1.733,1.733,0,0,1-.445-1.2v-0.8A2.084,2.084,0,0,1,414.528,314.837Zm13.01,1q0-2.329-1.827-2.33a1.968,1.968,0,0,0-1.837,1.185,1.65,1.65,0,0,0-.579-0.858,1.567,1.567,0,0,0-.989-0.327,1.871,1.871,0,0,0-1.719,1.039h-0.021v-0.9h-0.887v5.723h0.887V316.1a2.142,2.142,0,0,1,.378-1.316,1.155,1.155,0,0,1,.962-0.506q1.26,0,1.26,1.688v3.4h0.886V316.1a2.1,2.1,0,0,1,.4-1.285,1.172,1.172,0,0,1,.965-0.537,1.062,1.062,0,0,1,.954.425,2.548,2.548,0,0,1,.284,1.375v3.286h0.886V315.84Zm2.544-3.823a0.611,0.611,0,0,0,0-.846,0.564,0.564,0,0,0-.414-0.171,0.546,0.546,0,0,0-.405.171,0.583,0.583,0,0,0-.168.427,0.575,0.575,0,0,0,.168.425,0.55,0.55,0,0,0,.405.168A0.559,0.559,0,0,0,430.082,312.017Zm0.019,1.627h-0.887v5.723H430.1v-5.723Zm4.859,0-1.384,2.4h-0.021q-0.114-.23-0.233-0.447l-1.07-1.956h-1.033l1.806,2.917-1.887,2.806h1.022l1.108-1.855q0.227-.387.254-0.436h0.022c0.093,0.175.175,0.32,0.243,0.436l1.086,1.855h1.033l-1.827-2.828,1.859-2.895H434.96Zm2.757,5.662a0.612,0.612,0,0,0,.178-0.442,0.622,0.622,0,0,0-.178-0.444,0.575,0.575,0,0,0-.433-0.187,0.559,0.559,0,0,0-.424.187,0.628,0.628,0,0,0-.176.444,0.619,0.619,0,0,0,.176.442,0.563,0.563,0,0,0,.424.184A0.579,0.579,0,0,0,437.717,319.306Zm6.254-3.438a2.772,2.772,0,0,0-.481-1.752,1.67,1.67,0,0,0-1.39-.606,1.987,1.987,0,0,0-1.816,1.084h-0.021v-0.95h-0.887v5.723h0.887V316.1a1.959,1.959,0,0,1,.435-1.305,1.374,1.374,0,0,1,1.1-.517q1.285,0,1.286,1.822v3.264h0.887v-3.5Zm6.119,0.386a3.1,3.1,0,0,0-.595-2.018,2.051,2.051,0,0,0-1.681-.726,2.315,2.315,0,0,0-1.819.841,3.2,3.2,0,0,0-.732,2.177,3.263,3.263,0,0,0,.67,2.194,2.3,2.3,0,0,0,1.843.779,3.138,3.138,0,0,0,1.93-.547v-0.861a2.666,2.666,0,0,1-1.719.637,1.683,1.683,0,0,1-1.308-.52,2.187,2.187,0,0,1-.5-1.475h3.909v-0.481Zm-3.9-.3a2.141,2.141,0,0,1,.541-1.213,1.411,1.411,0,0,1,1.065-.464,1.24,1.24,0,0,1,1.013.442,1.9,1.9,0,0,1,.37,1.235h-2.989ZM454,318.529a0.912,0.912,0,0,1-.579.19,0.742,0.742,0,0,1-.627-0.246,1.374,1.374,0,0,1-.189-0.822v-3.225H454v-0.782H452.6V311.95l-0.886.3v1.4h-0.952v0.782h0.952v3.387q0,1.677,1.454,1.677a1.655,1.655,0,0,0,.827-0.179v-0.782Z"/>
  <path class="cls-3" d="M-109-87l396,4L286.934,47.992S286.452,88.409,228,88c-6.949-.2-337,0-337,0V-87Z"/>
  <rect class="cls-4" x="-15" y="160" width="292" height="7"/>
  <rect id="Rectangle_8_copy_2" data-name="Rectangle 8 copy 2" class="cls-4" x="371" y="-214" width="7" height="292"/>
  <rect id="Rectangle_8_copy_3" data-name="Rectangle 8 copy 3" class="cls-4" x="371" y="255" width="7" height="292"/>
  <rect id="Rectangle_8_copy" data-name="Rectangle 8 copy" class="cls-4" x="470" y="160" width="292" height="7"/>
  <path id="Rectangle_7_copy_3" data-name="Rectangle 7 copy 3" class="cls-3" d="M-109,425l396-4-0.066-130.992S286.452,249.591,228,250c-6.949.2-337,0-337,0V425Z"/>
  <path id="Rectangle_7_copy" data-name="Rectangle 7 copy" class="cls-3" d="M856-87L460-83l0.066,130.992S460.548,88.409,519,88c6.949-.2,337,0,337,0V-87Z"/>
  <path id="Rectangle_7_copy_2" data-name="Rectangle 7 copy 2" class="cls-3" d="M856,425l-396-4,0.066-130.992S460.548,249.591,519,250c6.949,0.2,337,0,337,0V425Z"/>
  <path id="Color_Fill_2" data-name="Color Fill 2" class="cls-3" d="M371,78c-1.15,83.61-94,82-94,82v7s100.87,0,101-89h-7Z"/>
  <path class="cls-5" d="M363.121,101.284l15.58,3.642-1.822,7.79-15.58-3.642Z"/>
  <path id="Rectangle_9_copy_4" data-name="Rectangle 9 copy 4" class="cls-5" d="M366.273,75.528L387.323,77l-0.734,10.525-21.05-1.468Z"/>
  <path id="Rectangle_9_copy" data-name="Rectangle 9 copy" class="cls-5" d="M351.187,122.184l19.748,12.077-6.15,9.559-19.748-12.077Z"/>
  <path id="Rectangle_9_copy_2" data-name="Rectangle 9 copy 2" class="cls-5" d="M331.571,141.7l8.748,14.6-7.353,4.826-8.747-14.6Z"/>
  <path id="Rectangle_9_copy_3" data-name="Rectangle 9 copy 3" class="cls-5" d="M306.6,151.008l5.41,16.588-11.6,2.394L295,153.4Z"/>
  <path id="Rectangle_9_copy_5" data-name="Rectangle 9 copy 5" class="cls-5" d="M282.705,154.979l1.438,17.388-11.838-.345-1.437-17.388Z"/>
  <path id="Color_Fill_2-2" data-name="Color Fill 2" class="cls-3" d="M378,78c1.15,83.61,94,82,94,82v7s-100.87,0-101-89h7Z"/>
  <path class="cls-5" d="M385.879,101.284l-15.58,3.642,1.822,7.79,15.58-3.642Z"/>
  <path id="Rectangle_9_copy_9" data-name="Rectangle 9 copy 9" class="cls-5" d="M382.358,102.63l-15.639-.275-0.077,7.7,15.639,0.275Z"/>
  <path id="Rectangle_9_copy_4-2" data-name="Rectangle 9 copy 4" class="cls-5" d="M382.727,75.528L361.677,77l0.734,10.525,21.05-1.468Z"/>
  <path id="Rectangle_9_copy-2" data-name="Rectangle 9 copy" class="cls-5" d="M397.813,122.184l-19.748,12.077,6.15,9.559,19.748-12.077Z"/>
  <path id="Rectangle_9_copy_2-2" data-name="Rectangle 9 copy 2" class="cls-5" d="M417.429,141.7l-8.748,14.6,7.353,4.826,8.747-14.6Z"/>
  <path id="Rectangle_9_copy_3-2" data-name="Rectangle 9 copy 3" class="cls-5" d="M442.4,151.008l-5.41,16.588,11.6,2.394L454,153.4Z"/>
  <path id="Rectangle_9_copy_5-2" data-name="Rectangle 9 copy 5" class="cls-5" d="M466.3,154.979l-1.438,17.388,11.838-.345,1.437-17.388Z"/>
  <path id="Color_Fill_2-3" data-name="Color Fill 2" class="cls-3" d="M378,249c1.15-83.61,94-82,94-82v-7s-100.87,0-101,89h7Z"/>
  <path class="cls-5" d="M385.879,225.716l-15.58-3.642,1.822-7.79,15.58,3.642Z"/>
  <path id="Rectangle_9_copy_4-3" data-name="Rectangle 9 copy 4" class="cls-5" d="M382.727,251.472L361.677,250l0.734-10.524,21.05,1.468Z"/>
  <path id="Rectangle_9_copy-3" data-name="Rectangle 9 copy" class="cls-5" d="M397.813,204.816l-19.748-12.077,6.15-9.559,19.748,12.077Z"/>
  <path id="Rectangle_9_copy_2-3" data-name="Rectangle 9 copy 2" class="cls-5" d="M417.429,185.3l-8.748-14.6,7.353-4.826,8.747,14.6Z"/>
  <path id="Rectangle_9_copy_3-3" data-name="Rectangle 9 copy 3" class="cls-5" d="M443.083,176.992l-5.091-15.714,10.915-2.268L454,174.724Z"/>
  <path id="Rectangle_9_copy_6" data-name="Rectangle 9 copy 6" class="cls-5" d="M444.585,171.327l-0.607-16.507,11.12,0.8,0.607,16.508Z"/>
  <path id="Rectangle_9_copy_5-3" data-name="Rectangle 9 copy 5" class="cls-5" d="M466.3,172.021l-1.438-17.388,11.838,0.345,1.437,17.388Z"/>
  <path id="Color_Fill_2-4" data-name="Color Fill 2" class="cls-3" d="M371,249c-1.15-83.61-94-82-94-82v-7s100.87,0,101,89h-7Z"/>
  <path class="cls-5" d="M363.121,225.716l15.58-3.642-1.822-7.79-15.58,3.642Z"/>
  <path id="Rectangle_9_copy_8" data-name="Rectangle 9 copy 8" class="cls-5" d="M367.009,225.906l15.6-1.135-0.618-7.677-15.6,1.135Z"/>
  <path id="Rectangle_9_copy_4-4" data-name="Rectangle 9 copy 4" class="cls-5" d="M366.273,251.472L387.323,250l-0.734-10.524-21.05,1.468Z"/>
  <path id="Rectangle_9_copy-4" data-name="Rectangle 9 copy" class="cls-5" d="M351.187,204.816l19.748-12.077-6.15-9.559-19.748,12.077Z"/>
  <path id="Rectangle_9_copy_2-4" data-name="Rectangle 9 copy 2" class="cls-5" d="M331.571,185.3l8.748-14.6-7.353-4.826-8.747,14.6Z"/>
  <path id="Rectangle_9_copy_3-4" data-name="Rectangle 9 copy 3" class="cls-5" d="M306.235,176.993l4.773-14.842-10.234-2.142L296,174.85Z"/>
  <path id="Rectangle_9_copy_7" data-name="Rectangle 9 copy 7" class="cls-5" d="M305.536,170.988l0.7-13.959-8.966.265-0.7,13.959Z"/>
  <path id="Rectangle_9_copy_5-4" data-name="Rectangle 9 copy 5" class="cls-5" d="M282.705,172.021l1.438-17.388-11.838.345-1.437,17.388Z"/>
</svg>
