<?xml version="1.0" encoding="utf-8"?>
<svg viewBox="0 0 747 326" width="747px" height="326px" xmlns="http://www.w3.org/2000/svg">
  <defs>
    <style>
      .cls-1, .cls-5 {
        fill: #626262;
      }

      .cls-2, .cls-3, .cls-4 {
        fill: #fff;
      }

      .cls-2, .cls-3, .cls-5 {
        fill-rule: evenodd;
      }

      .cls-2 {
        opacity: 0.11;
      }
    </style>
  </defs>
  <rect class="cls-1" width="747" height="326" style=""/>
  <g/>
  <path fill="#f7fbf5" d="M 486.77 252.542 C 491.432 226.29 477.564 192.356 457.588 174.075 L 457.953 174.325 L 447.154 198.863 C 445.687 204.962 440.583 206.975 437.866 201.063 L 415.756 140.597 C 413.811 135.163 415.427 132.851 421.19 132.851 L 485.601 133.106 C 492.097 133.66 491.918 139.167 486.663 142.617 L 474.105 153.849 L 468.386 158.308 C 498.317 184.119 510.859 217.454 504.355 255.605 L 489.747 251.878" style="" transform="matrix(0.920841, -0.389938, 0.389938, 0.920841, -39.28421, 194.941345)"/>
  <path id="witte_pijl" fill="#f7fbf5" d="M 525.203 234.077 L 525.203 109.87 L 551.592 115.996 C 557.966 118.507 562.997 115.216 559.391 109.032 L 519.137 51.222 C 515.502 46.048 512.427 46.048 508.793 51.222 L 468.538 109.032 C 464.932 115.216 469.964 118.507 476.338 115.996 L 502.726 109.87 L 504.855 279.833 L 525.203 280.187" style=""/>
  <g>
    <title>2</title>
  </g>
  <path fill="#f7fbf5" d="M 693.034 134.385 C 697.697 160.637 683.829 194.571 663.853 212.852 L 664.217 212.602 L 653.418 188.064 C 651.952 181.965 646.847 179.952 644.131 185.864 L 622.021 246.33 C 620.075 251.764 621.692 254.076 627.454 254.076 L 691.866 253.821 C 698.362 253.267 698.182 247.76 692.928 244.31 L 680.369 233.078 L 674.65 228.619 C 704.581 202.809 717.124 169.473 710.619 131.322 L 696.011 135.05" style="" transform="matrix(-0.920841, -0.389938, 0.389938, -0.920841, 1205.607788, 630.140991)"/>
  <path id="path-2" fill="#f7fbf5" d="M 624.537 91.922 L 624.537 216.13 L 650.927 210.004 C 657.3 207.492 662.332 210.784 658.726 216.968 L 618.471 274.778 C 614.837 279.952 611.762 279.952 608.128 274.778 L 567.873 216.968 C 564.267 210.784 569.299 207.492 575.672 210.004 L 602.061 216.13 L 604.189 46.167 L 624.537 45.813" style="" transform="matrix(-1, 0, 0, -1, 1226.598999, 324.471497)"/>
  <path fill="#f7fbf5" d="M 148.034 267.453 C 153.52 236.566 137.203 196.64 113.7 175.131 L 114.129 175.425 L 101.423 204.296 C 99.698 211.472 93.692 213.84 90.496 206.884 L 64.482 135.742 C 62.193 129.349 64.095 126.628 70.875 126.628 L 146.659 126.928 C 154.302 127.58 154.091 134.06 147.909 138.119 L 133.133 151.334 L 126.404 156.58 C 161.62 186.948 176.377 226.169 168.724 271.057 L 151.537 266.671" style="" transform="matrix(0.920841, -0.389938, 0.389938, 0.920841, -68.264702, 61.41201)"/>
  <path id="path-3" fill="#f7fbf5" d="M 193.253 245.728 L 193.253 99.589 L 224.302 106.797 C 231.801 109.752 237.721 105.879 233.478 98.604 L 186.116 30.586 C 181.84 24.499 178.222 24.499 173.946 30.586 L 126.583 98.604 C 122.341 105.879 128.261 109.752 135.76 106.797 L 166.808 99.589 L 169.312 299.562 L 193.253 299.979"/>
  <path fill="#f7fbf5" d="M 277.403 129.815 C 282.889 160.702 266.572 200.628 243.069 222.137 L 243.498 221.843 L 230.792 192.972 C 229.067 185.796 223.061 183.428 219.865 190.384 L 193.851 261.526 C 191.562 267.919 193.464 270.64 200.244 270.64 L 276.028 270.34 C 283.671 269.688 283.46 263.208 277.278 259.149 L 262.502 245.934 L 255.773 240.688 C 290.989 210.32 305.746 171.099 298.093 126.211 L 280.906 130.597" style="" transform="matrix(-0.920841, -0.389938, 0.389938, -0.920841, 396.103912, 477.261627)"/>
  <rect x="366.596" y="-1.858" width="13.808" height="332.705" style="fill: rgb(255, 255, 255);"/>
  <path id="teoria.pmix.net" class="cls-2" d="M 406.764 314.175 C 406.31 314.528 405.748 314.713 405.172 314.699 C 404.522 314.762 403.88 314.511 403.445 314.021 C 403.037 313.341 402.855 312.547 402.924 311.757 L 402.924 302.873 L 406.764 302.873 L 406.764 300.719 L 402.924 300.719 L 402.924 296.052 L 400.481 296.879 L 400.481 300.735 L 397.85 300.735 L 397.85 302.889 L 400.47 302.889 L 400.47 312.22 C 400.47 315.299 401.806 316.839 404.475 316.839 C 405.266 316.875 406.051 316.704 406.753 316.346 L 406.753 314.192 L 406.764 314.175 Z M 422.042 307.908 C 422.16 305.922 421.582 303.955 420.405 302.349 C 419.259 300.991 417.546 300.25 415.772 300.35 C 413.838 300.322 411.995 301.173 410.764 302.666 C 409.37 304.347 408.651 306.484 408.745 308.663 C 408.61 310.834 409.265 312.983 410.59 314.707 C 411.869 316.159 413.739 316.949 415.67 316.853 C 417.56 316.947 419.425 316.418 420.984 315.346 L 420.984 312.974 C 419.662 314.101 417.984 314.724 416.249 314.729 C 414.896 314.801 413.579 314.277 412.645 313.297 C 411.701 312.159 411.21 310.71 411.268 309.233 L 422.033 309.233 L 422.033 307.908 L 422.042 307.908 Z M 411.298 307.082 C 411.428 305.84 411.949 304.669 412.786 303.741 C 413.535 302.914 414.604 302.449 415.72 302.462 C 416.791 302.407 417.824 302.859 418.513 303.68 C 419.237 304.661 419.598 305.864 419.532 307.082 L 411.298 307.082 Z M 437.631 314.572 C 439.063 312.894 439.801 310.732 439.694 308.528 C 439.823 306.355 439.14 304.209 437.779 302.509 C 436.421 301.024 434.468 300.228 432.457 300.339 C 430.333 300.237 428.267 301.049 426.783 302.57 C 425.301 304.286 424.549 306.512 424.683 308.776 C 424.579 310.917 425.303 313.013 426.703 314.633 C 428.091 316.123 430.063 316.927 432.099 316.836 C 434.187 316.938 436.215 316.115 437.639 314.583 L 437.631 314.572 Z M 435.92 304.063 C 436.848 305.393 437.297 307.002 437.193 308.622 C 437.294 310.225 436.845 311.817 435.92 313.131 C 435.027 314.208 433.675 314.798 432.278 314.718 C 430.86 314.776 429.493 314.178 428.57 313.101 C 427.592 311.848 427.105 310.28 427.193 308.694 C 427.099 307.057 427.587 305.44 428.57 304.129 C 429.482 303.024 430.862 302.413 432.292 302.476 C 433.689 302.399 435.041 302.991 435.928 304.074 L 435.92 304.063 Z M 451.547 300.644 C 451.079 300.479 450.583 300.407 450.087 300.429 C 449.2 300.432 448.346 300.763 447.691 301.361 C 446.928 302.06 446.374 302.958 446.096 303.955 L 446.057 303.955 L 446.057 300.708 L 443.614 300.708 L 443.614 316.473 L 446.057 316.473 L 446.057 308.448 C 445.977 306.988 446.344 305.539 447.107 304.292 C 447.652 303.363 448.641 302.785 449.718 302.765 C 450.374 302.721 451.027 302.903 451.567 303.275 L 451.567 300.655 L 451.547 300.644 Z M 456.586 296.237 C 457.214 295.587 457.214 294.556 456.586 293.906 C 456.288 293.598 455.875 293.427 455.448 293.435 C 455.026 293.43 454.619 293.601 454.33 293.906 C 454.024 294.22 453.856 294.645 453.87 295.083 C 453.856 295.521 454.021 295.942 454.33 296.253 C 454.955 296.881 455.977 296.876 456.594 296.237 L 456.586 296.237 Z M 456.638 300.719 L 454.197 300.719 L 454.197 316.484 L 456.638 316.484 L 456.638 300.719 Z M 472.497 306.228 C 472.497 302.305 470.706 300.344 467.122 300.347 C 465.285 300.314 463.481 300.826 461.938 301.823 L 461.938 304.41 C 463.299 303.168 465.073 302.482 466.913 302.482 C 469.007 302.482 470.053 303.82 470.053 306.501 L 465.483 307.162 C 462.643 307.118 460.343 309.465 460.45 312.305 C 460.398 313.539 460.864 314.737 461.737 315.611 C 462.718 316.487 464.007 316.936 465.318 316.856 C 467.296 316.903 469.125 315.798 470.001 314.024 L 470.059 314.024 L 470.059 316.487 L 472.502 316.487 L 472.502 306.234 L 472.497 306.228 Z M 470.053 310.085 C 470.097 311.305 469.676 312.498 468.872 313.418 C 468.117 314.283 467.015 314.765 465.869 314.735 C 465.095 314.77 464.335 314.511 463.748 314.005 C 463.219 313.523 462.93 312.834 462.952 312.118 C 462.858 311.286 463.183 310.462 463.817 309.914 C 464.591 309.426 465.467 309.129 466.376 309.043 L 470.053 308.52 L 470.053 310.09 L 470.053 310.085 Z M 479.144 316.321 C 479.466 315.999 479.642 315.558 479.634 315.104 C 479.64 314.646 479.463 314.206 479.144 313.881 C 478.838 313.547 478.403 313.36 477.951 313.366 C 477.505 313.36 477.081 313.547 476.783 313.881 C 476.466 314.208 476.293 314.649 476.298 315.104 C 476.29 315.558 476.466 315.996 476.783 316.321 C 477.081 316.649 477.508 316.834 477.951 316.828 C 478.406 316.834 478.838 316.649 479.147 316.316 L 479.144 316.321 Z M 490.788 316.858 C 492.771 316.941 494.669 316.054 495.879 314.481 C 497.201 312.641 497.857 310.407 497.741 308.145 C 497.846 306.121 497.264 304.121 496.088 302.471 C 494.989 301.06 493.273 300.272 491.488 300.355 C 489.27 300.297 487.218 301.518 486.215 303.495 L 486.157 303.495 L 486.157 300.724 L 483.714 300.724 L 483.714 323.737 L 486.157 323.737 L 486.157 314.206 L 486.215 314.206 C 487.121 315.875 488.887 316.897 490.788 316.853 L 490.788 316.858 Z M 487.452 304.011 C 488.295 302.997 489.559 302.432 490.876 302.479 C 492.116 302.435 493.303 302.991 494.063 303.972 C 494.912 305.176 495.325 306.633 495.24 308.104 C 495.339 309.823 494.901 311.531 493.981 312.985 C 492.391 315.167 489.204 315.354 487.369 313.377 C 486.554 312.47 486.116 311.288 486.144 310.071 L 486.144 307.867 C 486.094 306.462 486.56 305.088 487.455 304.005 L 487.452 304.011 Z M 523.291 306.765 C 523.291 302.487 521.613 300.35 518.258 300.347 C 516.065 300.311 514.068 301.6 513.197 303.611 C 512.933 302.672 512.374 301.843 511.602 301.248 C 510.823 300.644 509.862 300.328 508.878 300.347 C 506.878 300.3 505.033 301.416 504.143 303.209 L 504.085 303.209 L 504.085 300.73 L 501.641 300.73 L 501.641 316.495 L 504.085 316.495 L 504.085 307.484 C 504.027 306.195 504.391 304.92 505.126 303.859 C 505.721 302.983 506.716 302.46 507.776 302.465 C 510.09 302.465 511.247 304.016 511.247 307.115 L 511.247 316.481 L 513.688 316.481 L 513.688 307.484 C 513.657 306.214 514.043 304.972 514.79 303.944 C 515.374 303.038 516.371 302.484 517.448 302.465 C 518.47 302.369 519.464 302.812 520.076 303.636 C 520.687 304.801 520.957 306.112 520.858 307.424 L 520.858 316.476 L 523.299 316.476 L 523.299 306.768 L 523.291 306.765 Z M 530.299 296.234 C 530.924 295.584 530.924 294.554 530.299 293.904 C 530.001 293.595 529.588 293.424 529.158 293.433 C 528.737 293.427 528.332 293.598 528.043 293.904 C 527.734 294.215 527.566 294.642 527.58 295.08 C 527.566 295.518 527.734 295.942 528.043 296.251 C 528.335 296.554 528.739 296.722 529.158 296.713 C 529.588 296.722 530.004 296.548 530.301 296.237 L 530.299 296.234 Z M 530.351 300.716 L 527.908 300.716 L 527.908 316.481 L 530.351 316.481 L 530.351 300.716 Z M 543.736 300.716 L 539.924 307.327 L 539.866 307.327 C 539.656 306.906 539.441 306.495 539.224 306.096 L 536.276 300.708 L 533.431 300.708 L 538.406 308.743 L 533.208 316.473 L 536.023 316.473 L 539.075 311.363 C 539.491 310.652 539.725 310.253 539.775 310.162 L 539.835 310.162 C 540.092 310.644 540.317 311.043 540.505 311.363 L 543.496 316.473 L 546.342 316.473 L 541.309 308.683 L 546.43 300.708 L 543.739 300.708 L 543.736 300.716 Z M 551.331 316.313 C 551.653 315.991 551.829 315.55 551.821 315.095 C 551.827 314.638 551.65 314.197 551.331 313.872 C 551.025 313.539 550.59 313.352 550.138 313.357 C 549.692 313.352 549.267 313.539 548.97 313.872 C 548.653 314.2 548.48 314.641 548.485 315.095 C 548.477 315.55 548.653 315.988 548.97 316.313 C 549.267 316.641 549.694 316.825 550.138 316.82 C 550.59 316.828 551.025 316.646 551.333 316.316 L 551.331 316.313 Z M 568.559 306.842 C 568.672 305.132 568.206 303.429 567.234 302.016 C 566.297 300.878 564.876 300.259 563.405 300.347 C 561.303 300.297 559.358 301.46 558.402 303.333 L 558.344 303.333 L 558.344 300.716 L 555.901 300.716 L 555.901 316.481 L 558.344 316.481 L 558.344 307.484 C 558.295 306.181 558.722 304.903 559.542 303.889 C 560.275 302.969 561.396 302.443 562.573 302.465 C 564.933 302.465 566.112 304.137 566.115 307.484 L 566.115 316.476 L 568.559 316.476 L 568.559 306.834 L 568.559 306.842 Z M 585.415 307.906 C 585.533 305.92 584.955 303.953 583.776 302.347 C 582.632 300.989 580.916 300.25 579.145 300.347 C 577.208 300.319 575.365 301.17 574.134 302.664 C 572.743 304.344 572.024 306.482 572.118 308.66 C 571.98 310.831 572.636 312.98 573.963 314.704 C 575.239 316.156 577.109 316.947 579.04 316.85 C 580.93 316.944 582.798 316.415 584.357 315.343 L 584.357 312.972 C 583.035 314.098 581.357 314.721 579.621 314.726 C 578.269 314.798 576.952 314.275 576.018 313.294 C 575.076 312.153 574.586 310.707 574.641 309.231 L 585.409 309.231 L 585.409 307.906 L 585.415 307.906 Z M 574.671 307.079 C 574.801 305.837 575.324 304.666 576.162 303.738 C 576.911 302.911 577.98 302.446 579.095 302.46 C 580.164 302.405 581.197 302.856 581.886 303.677 C 582.61 304.658 582.971 305.862 582.905 307.079 L 574.671 307.079 Z M 596.188 314.175 C 595.731 314.528 595.169 314.713 594.593 314.699 C 593.943 314.762 593.301 314.511 592.866 314.021 C 592.458 313.341 592.277 312.547 592.345 311.757 L 592.345 302.873 L 596.188 302.873 L 596.188 300.719 L 592.332 300.719 L 592.332 296.052 L 589.891 296.879 L 589.891 300.735 L 587.269 300.735 L 587.269 302.889 L 589.891 302.889 L 589.891 312.22 C 589.891 315.299 591.227 316.839 593.896 316.839 C 594.687 316.875 595.472 316.704 596.174 316.346 L 596.174 314.192 L 596.188 314.175 Z" style="opacity: 0.02;"/>
</svg>