<svg id="SHM" xmlns="http://www.w3.org/2000/svg" width="747" height="326" viewBox="0 0 747 326">
  <defs>
    <style>
      .cls-1, .cls-3 {
        fill: #626262;
      }

      .cls-2, .cls-4, .cls-5 {
        fill: #fff;
      }

      .cls-2, .cls-3, .cls-4, .cls-5 {
        fill-rule: evenodd;
      }

      .cls-3, .cls-4 {
        stroke: #fff;
        stroke-linejoin: round;
      }

      .cls-3 {
        stroke-width: 15px;
      }

      .cls-4 {
        stroke-width: 10px;
      }

      .cls-5 {
        opacity: 0.1;
      }
    </style>
  </defs>
  <rect class="cls-1" width="747" height="326"/>
  <g>
    <path class="cls-2" d="M673.052,187.229l15.17,1.152c-2.791,28.32-18.7,71.132-23.552,76.887-0.935-.2-9.961-2.547-14.942-3.82A210.4,210.4,0,0,0,673.052,187.229Z"/>
    <path id="Color_Fill_1" data-name="Color Fill 1" class="cls-2" d="M662.865,186.549l21.4-27,14.638,31.678Z"/>
  </g>
  <g id="Group_5_copy_2" data-name="Group 5 copy 2">
    <path class="cls-2" d="M531.551,244.459l-13.057,7.808c-14.054-24.744-25.749-68.894-25.106-76.394,0.879-.376,9.607-3.664,14.41-5.5A210.392,210.392,0,0,0,531.551,244.459Z"/>
    <path id="Color_Fill_1-2" data-name="Color Fill 1" class="cls-2" d="M540.265,239.138l-1.911,34.405-30.228-17.436Z"/>
  </g>
  <g id="Group_5_copy" data-name="Group 5 copy">
    <path class="cls-2" d="M191.078,246.1l10.311,9.988-53.08,51.909L138,298.007Z"/>
    <path id="Color_Fill_1-3" data-name="Color Fill 1" class="cls-2" d="M182.411,240.019L213.99,232q-3.615,16.118-7.232,32.236Z"/>
  </g>
  <g id="Group_5_copy_3" data-name="Group 5 copy 3">
    <path class="cls-2" d="M46.283,278.222l-13.372.3L33.352,208.3l13.373-.3Z"/>
    <path id="Color_Fill_1-4" data-name="Color Fill 1" class="cls-2" d="M54.99,276.43l-15.4,26.578-16.6-26.3Z"/>
  </g>
  <path id="Color_Fill_3" data-name="Color Fill 3" class="cls-3" d="M592.036,287.541s-126.06-254.606-6.689-255.3S592.036,287.541,592.036,287.541Z"/>
  <path class="cls-2" d="M536.293,133.871L639.975,80.179V96.721L536.293,150.413V133.871Z"/>
  <path id="Rectangle_10_copy_3" data-name="Rectangle 10 copy 3" class="cls-2" d="M547.441,177.762l92.534-49.647q-0.984,7.944-1.969,15.887l-85.643,47.66Q549.9,184.712,547.441,177.762Z"/>
  <path id="Rectangle_10_copy_4" data-name="Rectangle 10 copy 4" class="cls-2" d="M558.59,215.761l73.581-37.477-1.989,15.78-65.626,35.5Q561.573,222.664,558.59,215.761Z"/>
  <path id="Rectangle_10_copy_5" data-name="Rectangle 10 copy 5" class="cls-2" d="M571.968,255.906l45.71-26.338-3.516,17.559-36.92,21.461Z"/>
  <path id="Rectangle_10_copy_6" data-name="Rectangle 10 copy 6" class="cls-2" d="M585.347,285.063l16.723-8.671-2.987,9.827L588.93,292Z"/>
  <path id="Rectangle_10_copy" data-name="Rectangle 10 copy" class="cls-2" d="M534.063,88.919L622.484,43.4l7.457,12.018-95.878,51.519V88.919Z"/>
  <path id="Rectangle_10_copy_2" data-name="Rectangle 10 copy 2" class="cls-2" d="M541.787,46.129l35.744-20.579,1.122,7.615L539.636,56.751Z"/>
  <path id="Color_Fill_4" data-name="Color Fill 4" class="cls-3" d="M77,307V30l288,0.855Z"/>
  <path class="cls-4" d="M80,172v-1l41.655,23L217,171v1l-95.345,24Z"/>
  <path id="Shape_1_copy_3" data-name="Shape 1 copy 3" class="cls-4" d="M80.009,125.126l0.1-.987,48.665,28.868,145.222-36-0.1.988L128.778,154Z"/>
  <path id="Shape_1_copy_4" data-name="Shape 1 copy 4" class="cls-4" d="M80.011,78.115l0.128-.986L140,106,320,70.011,319.871,71,140,107Z"/>
  <path id="Shape_1_copy_5" data-name="Shape 1 copy 5" class="cls-4" d="M96.012,29.994L96.146,29,158.792,58,303.019,29.879H304L158.792,59Z"/>
  <path id="Shape_1_copy" data-name="Shape 1 copy" class="cls-4" d="M77,214v-1l31.468,25L175,213v1l-66.532,25Z"/>
  <path id="Shape_1_copy_2" data-name="Shape 1 copy 2" class="cls-4" d="M77,258v-1l13.908,17L130,257v1L90.908,275Z"/>
  <path id="teoria.pmix.net" class="cls-5" d="M318.484,314a1.526,1.526,0,0,1-.98.329,1.248,1.248,0,0,1-1.063-.425,2.4,2.4,0,0,1-.32-1.419v-5.571h2.363v-1.351h-2.363v-2.926l-1.5.512v2.414h-1.612v1.351h1.612v5.851q0,2.895,2.463,2.9a2.777,2.777,0,0,0,1.4-.309V314Zm9.4-3.929a5.424,5.424,0,0,0-1.008-3.485,3.442,3.442,0,0,0-2.848-1.255,3.892,3.892,0,0,0-3.082,1.453,5.584,5.584,0,0,0-1.241,3.76,5.7,5.7,0,0,0,1.136,3.789,3.866,3.866,0,0,0,3.123,1.347,5.242,5.242,0,0,0,3.27-.946v-1.487a4.467,4.467,0,0,1-2.913,1.1,2.825,2.825,0,0,1-2.216-.9,3.814,3.814,0,0,1-.843-2.549h6.622v-0.83Zm-6.6-.512a3.725,3.725,0,0,1,.916-2.095,2.368,2.368,0,0,1,1.8-.8,2.09,2.09,0,0,1,1.718.763,3.339,3.339,0,0,1,.627,2.133h-5.065Zm16.2,4.7a5.482,5.482,0,0,0,1.268-3.789,5.59,5.59,0,0,0-1.176-3.775,4.1,4.1,0,0,0-3.275-1.361,4.516,4.516,0,0,0-3.489,1.4,5.52,5.52,0,0,0-1.292,3.89,5.3,5.3,0,0,0,1.241,3.674,4.24,4.24,0,0,0,3.32,1.385A4.329,4.329,0,0,0,337.475,314.26Zm-1.053-6.589a4.56,4.56,0,0,1,.783,2.858,4.481,4.481,0,0,1-.783,2.829,2.684,2.684,0,0,1-2.24.994,2.826,2.826,0,0,1-2.28-1.014,4.173,4.173,0,0,1-.852-2.771,4.417,4.417,0,0,1,.843-2.862,2.79,2.79,0,0,1,2.289-1.038A2.674,2.674,0,0,1,336.422,307.671Zm9.612-2.143a2.341,2.341,0,0,0-.9-0.135,2.171,2.171,0,0,0-1.475.584,3.476,3.476,0,0,0-.98,1.627h-0.037v-2.037h-1.5v9.886h1.5v-5.04a4.6,4.6,0,0,1,.646-2.607,1.9,1.9,0,0,1,1.607-.955,1.771,1.771,0,0,1,1.136.318v-1.641Zm3.1-2.771a1.069,1.069,0,0,0,0-1.462,0.94,0.94,0,0,0-.7-0.3,0.916,0.916,0,0,0-.687.3,1.017,1.017,0,0,0-.284.738,1,1,0,0,0,.284.734A0.965,0.965,0,0,0,349.134,302.757Zm0.032,2.81h-1.5v9.886h1.5v-9.886Zm9.755,3.456q0-3.688-3.307-3.688a5.589,5.589,0,0,0-3.187.927v1.622a4.484,4.484,0,0,1,3.059-1.217q1.932,0,1.933,2.52l-2.812.415q-3.1.454-3.1,3.225a2.785,2.785,0,0,0,.792,2.075,2.987,2.987,0,0,0,2.194.782,3.121,3.121,0,0,0,2.885-1.776h0.037v1.545h1.5v-6.43Zm-1.5,2.413a3.043,3.043,0,0,1-.728,2.09,2.354,2.354,0,0,1-1.846.826,1.831,1.831,0,0,1-1.305-.459,1.544,1.544,0,0,1-.49-1.182,1.615,1.615,0,0,1,.531-1.386,3.555,3.555,0,0,1,1.575-.545l2.263-.328v0.984Zm5.587,3.91a1.069,1.069,0,0,0,.3-0.762,1.09,1.09,0,0,0-.3-0.768,0.969,0.969,0,0,0-.733-0.323,0.943,0.943,0,0,0-.719.323,1.1,1.1,0,0,0-.3.768,1.078,1.078,0,0,0,.3.762,0.946,0.946,0,0,0,.719.319A0.972,0.972,0,0,0,363.006,315.346Zm7.162,0.338a3.737,3.737,0,0,0,3.133-1.491,6.36,6.36,0,0,0,1.144-3.973,5.7,5.7,0,0,0-1.016-3.558,3.363,3.363,0,0,0-2.83-1.327,3.524,3.524,0,0,0-3.243,1.969H367.32v-1.737h-1.5V320h1.5v-5.976h0.036A3.108,3.108,0,0,0,370.168,315.684Zm-2.051-8.056a2.6,2.6,0,0,1,2.106-.961,2.344,2.344,0,0,1,1.96.937,4.137,4.137,0,0,1,.724,2.587,5.249,5.249,0,0,1-.774,3.06,2.607,2.607,0,0,1-4.058.247,3.036,3.036,0,0,1-.755-2.081v-1.381A3.64,3.64,0,0,1,368.117,307.628Zm22.045,1.733q0-4.026-3.095-4.026a3.334,3.334,0,0,0-3.114,2.047,2.849,2.849,0,0,0-.98-1.482,2.623,2.623,0,0,0-1.677-.565,3.161,3.161,0,0,0-2.912,1.8h-0.037v-1.564h-1.5v9.886h1.5v-5.639a3.75,3.75,0,0,1,.641-2.273,1.946,1.946,0,0,1,1.631-.874q2.133,0,2.134,2.916v5.87h1.5v-5.639a3.674,3.674,0,0,1,.673-2.22,1.976,1.976,0,0,1,1.635-.927,1.785,1.785,0,0,1,1.616.734,4.468,4.468,0,0,1,.481,2.375v5.677h1.5v-6.092Zm4.31-6.6a1.072,1.072,0,0,0,0-1.462,0.944,0.944,0,0,0-.7-0.3,0.916,0.916,0,0,0-.687.3,1.021,1.021,0,0,0-.284.738,1.007,1.007,0,0,0,.284.734,0.925,0.925,0,0,0,.687.289A0.936,0.936,0,0,0,394.472,302.757Zm0.032,2.81H393v9.886h1.5v-9.886Zm8.234,0-2.345,4.151h-0.037q-0.192-.4-0.393-0.772l-1.814-3.379H396.4l3.059,5.039-3.2,4.847h1.731l1.878-3.206c0.256-.444.4-0.695,0.43-0.753h0.037q0.238,0.454.412,0.753l1.841,3.206h1.75l-3.1-4.886,3.151-5h-1.658Zm4.671,9.779a1.069,1.069,0,0,0,.3-0.762,1.09,1.09,0,0,0-.3-0.768,0.969,0.969,0,0,0-.733-0.323,0.943,0.943,0,0,0-.719.323,1.1,1.1,0,0,0-.3.768,1.078,1.078,0,0,0,.3.762,0.946,0.946,0,0,0,.719.319A0.972,0.972,0,0,0,407.409,315.346Zm10.6-5.937a4.853,4.853,0,0,0-.815-3.027,2.805,2.805,0,0,0-2.354-1.047,3.358,3.358,0,0,0-3.078,1.873h-0.036v-1.641h-1.5v9.886h1.5v-5.639a3.421,3.421,0,0,1,.737-2.254,2.317,2.317,0,0,1,1.864-.893q2.179,0,2.18,3.147v5.639h1.5v-6.044Zm10.368,0.666a5.424,5.424,0,0,0-1.008-3.485,3.442,3.442,0,0,0-2.848-1.255,3.892,3.892,0,0,0-3.082,1.453,5.584,5.584,0,0,0-1.241,3.76,5.7,5.7,0,0,0,1.136,3.789,3.866,3.866,0,0,0,3.123,1.347,5.242,5.242,0,0,0,3.27-.946v-1.487a4.467,4.467,0,0,1-2.913,1.1,2.825,2.825,0,0,1-2.216-.9,3.814,3.814,0,0,1-.843-2.549h6.622v-0.83Zm-6.6-.512a3.732,3.732,0,0,1,.916-2.095,2.368,2.368,0,0,1,1.8-.8,2.09,2.09,0,0,1,1.718.763,3.339,3.339,0,0,1,.627,2.133H421.77ZM435,314a1.526,1.526,0,0,1-.98.329,1.248,1.248,0,0,1-1.063-.425,2.411,2.411,0,0,1-.32-1.419v-5.571H435v-1.351h-2.363v-2.926l-1.5.512v2.414h-1.612v1.351h1.612v5.851q0,2.895,2.464,2.9a2.77,2.77,0,0,0,1.4-.309V314Z"/>
</svg>
