<svg id="LOGO" xmlns="http://www.w3.org/2000/svg" width="500" height="500" viewBox="0 0 500 500">
  <defs>
    <style>
      .cls-1 {
        fill: #fff;
      }

      .cls-2 {
        fill: red;
      }

      .cls-3 {
        fill: #ebebeb;
        fill-rule: evenodd;
        opacity: 0.46;
      }
    </style>
  </defs>
  <rect id="Rounded_Rectangle_1" data-name="Rounded Rectangle 1" x="150" y="16" width="200" height="468" rx="10" ry="10"/>
  <rect class="cls-1" x="156" y="22" width="188" height="456"/>
  <circle cx="250" cy="108" r="63"/>
  <circle id="Ellipse_1_copy" data-name="Ellipse 1 copy" cx="250" cy="392" r="63"/>
  <circle id="Ellipse_1_copy_2" data-name="Ellipse 1 copy 2" cx="250" cy="250" r="63"/>
  <circle id="Ellipse_1_copy_3" data-name="Ellipse 1 copy 3" class="cls-2" cx="250" cy="108" r="59"/>
  <circle id="Ellipse_1_copy_5" data-name="Ellipse 1 copy 5" class="cls-1" cx="250" cy="392" r="59"/>
  <circle id="Ellipse_1_copy_4" data-name="Ellipse 1 copy 4" class="cls-1" cx="250" cy="250" r="59"/>
  <path id="teoria.pmix.net" class="cls-3" d="M196.484,470a1.526,1.526,0,0,1-.98.329,1.248,1.248,0,0,1-1.063-.425,2.4,2.4,0,0,1-.32-1.419v-5.571h2.363v-1.351h-2.363v-2.926l-1.5.512v2.414h-1.612v1.351h1.612v5.851q0,2.895,2.463,2.9a2.777,2.777,0,0,0,1.4-.309V470Zm9.4-3.929a5.424,5.424,0,0,0-1.008-3.485,3.442,3.442,0,0,0-2.848-1.255,3.892,3.892,0,0,0-3.082,1.453,5.584,5.584,0,0,0-1.241,3.76,5.7,5.7,0,0,0,1.136,3.789,3.866,3.866,0,0,0,3.123,1.347,5.242,5.242,0,0,0,3.27-.946v-1.487a4.467,4.467,0,0,1-2.913,1.1,2.825,2.825,0,0,1-2.216-.9,3.814,3.814,0,0,1-.843-2.549h6.622v-0.83Zm-6.6-.512a3.725,3.725,0,0,1,.916-2.095,2.368,2.368,0,0,1,1.8-.8,2.09,2.09,0,0,1,1.718.763,3.339,3.339,0,0,1,.627,2.133h-5.065Zm16.2,4.7a5.482,5.482,0,0,0,1.268-3.789,5.59,5.59,0,0,0-1.176-3.775,4.1,4.1,0,0,0-3.275-1.361,4.516,4.516,0,0,0-3.489,1.4,5.52,5.52,0,0,0-1.292,3.89,5.3,5.3,0,0,0,1.241,3.674,4.24,4.24,0,0,0,3.32,1.385A4.329,4.329,0,0,0,215.475,470.26Zm-1.053-6.589a4.56,4.56,0,0,1,.783,2.858,4.481,4.481,0,0,1-.783,2.829,2.684,2.684,0,0,1-2.24.994,2.826,2.826,0,0,1-2.28-1.014,4.173,4.173,0,0,1-.852-2.771,4.417,4.417,0,0,1,.843-2.862,2.79,2.79,0,0,1,2.289-1.038A2.674,2.674,0,0,1,214.422,463.671Zm9.612-2.143a2.341,2.341,0,0,0-.9-0.135,2.171,2.171,0,0,0-1.475.584,3.476,3.476,0,0,0-.98,1.627h-0.037v-2.037h-1.5v9.886h1.5v-5.04a4.6,4.6,0,0,1,.646-2.607,1.9,1.9,0,0,1,1.607-.955,1.771,1.771,0,0,1,1.136.318v-1.641Zm3.1-2.771a1.069,1.069,0,0,0,0-1.462,0.94,0.94,0,0,0-.7-0.3,0.916,0.916,0,0,0-.687.3,1.017,1.017,0,0,0-.284.738,1,1,0,0,0,.284.734A0.965,0.965,0,0,0,227.134,458.757Zm0.032,2.81h-1.5v9.886h1.5v-9.886Zm9.755,3.456q0-3.688-3.307-3.688a5.589,5.589,0,0,0-3.187.927v1.622a4.484,4.484,0,0,1,3.059-1.217q1.932,0,1.933,2.52l-2.812.415q-3.1.454-3.1,3.225a2.785,2.785,0,0,0,.792,2.075,2.987,2.987,0,0,0,2.194.782,3.121,3.121,0,0,0,2.885-1.776h0.037v1.545h1.5v-6.43Zm-1.5,2.413a3.043,3.043,0,0,1-.728,2.09,2.354,2.354,0,0,1-1.846.826,1.831,1.831,0,0,1-1.305-.459,1.544,1.544,0,0,1-.49-1.182,1.615,1.615,0,0,1,.531-1.386,3.555,3.555,0,0,1,1.575-.545l2.263-.328v0.984Zm5.587,3.91a1.069,1.069,0,0,0,.3-0.762,1.09,1.09,0,0,0-.3-0.768,0.969,0.969,0,0,0-.733-0.323,0.943,0.943,0,0,0-.719.323,1.1,1.1,0,0,0-.3.768,1.078,1.078,0,0,0,.3.762,0.946,0.946,0,0,0,.719.319A0.972,0.972,0,0,0,241.006,471.346Zm7.162,0.338a3.737,3.737,0,0,0,3.133-1.491,6.36,6.36,0,0,0,1.144-3.973,5.7,5.7,0,0,0-1.016-3.558,3.363,3.363,0,0,0-2.83-1.327,3.524,3.524,0,0,0-3.243,1.969H245.32v-1.737h-1.5V476h1.5v-5.976h0.036A3.108,3.108,0,0,0,248.168,471.684Zm-2.051-8.056a2.6,2.6,0,0,1,2.106-.961,2.344,2.344,0,0,1,1.96.937,4.137,4.137,0,0,1,.724,2.587,5.249,5.249,0,0,1-.774,3.06,2.607,2.607,0,0,1-4.058.247,3.036,3.036,0,0,1-.755-2.081v-1.381A3.64,3.64,0,0,1,246.117,463.628Zm22.045,1.733q0-4.026-3.095-4.026a3.334,3.334,0,0,0-3.114,2.047,2.849,2.849,0,0,0-.98-1.482,2.623,2.623,0,0,0-1.677-.565,3.161,3.161,0,0,0-2.912,1.8h-0.037v-1.564h-1.5v9.886h1.5v-5.639a3.75,3.75,0,0,1,.641-2.273,1.946,1.946,0,0,1,1.631-.874q2.133,0,2.134,2.916v5.87h1.5v-5.639a3.674,3.674,0,0,1,.673-2.22,1.976,1.976,0,0,1,1.635-.927,1.785,1.785,0,0,1,1.616.734,4.468,4.468,0,0,1,.481,2.375v5.677h1.5v-6.092Zm4.31-6.6a1.072,1.072,0,0,0,0-1.462,0.944,0.944,0,0,0-.7-0.3,0.916,0.916,0,0,0-.687.3,1.021,1.021,0,0,0-.284.738,1.007,1.007,0,0,0,.284.734,0.925,0.925,0,0,0,.687.289A0.936,0.936,0,0,0,272.472,458.757Zm0.032,2.81H271v9.886h1.5v-9.886Zm8.234,0-2.345,4.151h-0.037q-0.192-.4-0.393-0.772l-1.814-3.379H274.4l3.059,5.039-3.2,4.847h1.731l1.878-3.206c0.256-.444.4-0.695,0.43-0.753h0.037q0.238,0.454.412,0.753l1.841,3.206h1.75l-3.1-4.886,3.151-5h-1.658Zm4.671,9.779a1.069,1.069,0,0,0,.3-0.762,1.09,1.09,0,0,0-.3-0.768,0.969,0.969,0,0,0-.733-0.323,0.943,0.943,0,0,0-.719.323,1.1,1.1,0,0,0-.3.768,1.078,1.078,0,0,0,.3.762,0.946,0.946,0,0,0,.719.319A0.972,0.972,0,0,0,285.409,471.346Zm10.6-5.937a4.853,4.853,0,0,0-.815-3.027,2.805,2.805,0,0,0-2.354-1.047,3.358,3.358,0,0,0-3.078,1.873h-0.036v-1.641h-1.5v9.886h1.5v-5.639a3.421,3.421,0,0,1,.737-2.254,2.317,2.317,0,0,1,1.864-.893q2.179,0,2.18,3.147v5.639h1.5v-6.044Zm10.368,0.666a5.424,5.424,0,0,0-1.008-3.485,3.442,3.442,0,0,0-2.848-1.255,3.892,3.892,0,0,0-3.082,1.453,5.584,5.584,0,0,0-1.241,3.76,5.7,5.7,0,0,0,1.136,3.789,3.866,3.866,0,0,0,3.123,1.347,5.242,5.242,0,0,0,3.27-.946v-1.487a4.467,4.467,0,0,1-2.913,1.1,2.825,2.825,0,0,1-2.216-.9,3.814,3.814,0,0,1-.843-2.549h6.622v-0.83Zm-6.6-.512a3.732,3.732,0,0,1,.916-2.095,2.368,2.368,0,0,1,1.8-.8,2.09,2.09,0,0,1,1.718.763,3.339,3.339,0,0,1,.627,2.133H299.77ZM313,470a1.526,1.526,0,0,1-.98.329,1.248,1.248,0,0,1-1.063-.425,2.411,2.411,0,0,1-.32-1.419v-5.571H313v-1.351h-2.363v-2.926l-1.5.512v2.414h-1.612v1.351h1.612v5.851q0,2.895,2.464,2.9a2.77,2.77,0,0,0,1.4-.309V470Z"/>
</svg>
