<?xml version="1.0" encoding="utf-8"?>
<svg viewBox="0 0 300 300" width="300px" height="300px" xmlns="http://www.w3.org/2000/svg">
  <rect id="blauw_vlak" width="300" height="300" fill="#0e518d"/>
  <path id="witte_bies" style="fill:none;stroke:#f7fbf5;stroke-width:6.7612772" d="M 276.33022,292.06475 C 285.02492,292.06475 292.09652,285.02651 292.09652,276.30011 L 292.09652,23.66726 C 292.09652,14.97345 285.02492,7.894449 276.33022,7.894449 L 23.66982,7.894449 C 14.94249,7.894449 7.86274,14.97345 7.86274,23.66726 L 7.86274,276.30011 C 7.86274,285.02651 14.94249,292.06475 23.66982,292.06475 L 276.33022,292.06475 z"/>
  <path id="letter_P" fill="#f7fbf5" d="M 118.858 276.354 L 87.623 276.354 L 87.623 108.293 L 158.96 108.293 C 192.87 108.293 212.377 131.497 212.377 162.13 C 212.377 188.586 196.17 215.746 159.134 215.746 L 118.858 215.746 L 118.858 276.354 Z M 148.489 186.396 C 175.271 186.396 180.71 173.354 180.71 163.039 C 180.71 151.987 176.38 138.9 148.489 138.9 L 118.858 138.9 L 118.858 186.396 L 148.489 186.396" style=""/>
  <path d="M 204.853 61.238 L 201.806 61.238 Q 196.825 61.238 192.372 57.546 Q 190.702 59.597 188.974 60.388 Q 187.099 61.238 183.73 61.238 L 179.159 61.238 L 179.159 56.14 L 183.642 56.14 Q 188.359 56.14 191.318 51.833 Q 193.075 49.255 195.741 47.351 Q 198.085 45.652 200.019 45.183 Q 204.853 52.507 204.853 56.14 Z M 201.484 55.466 Q 200.81 52.302 198.525 49.285 Q 196.357 49.841 194.628 52.683 Q 197.177 55.378 201.22 55.847 Z M 185.451 59.363 Q 185.451 60.505 185.26 61.824 Q 185.07 63.142 184.616 64.519 Q 184.162 65.896 183.429 67.258 Q 182.697 68.621 181.613 69.822 Q 179.093 72.634 176.559 73.953 Q 174.025 75.271 171.213 75.271 Q 169.748 75.271 168.063 74.963 Q 166.379 74.656 164.445 73.982 L 158.146 71.726 L 158.644 70.554 Q 161.633 71.228 163.698 71.565 Q 165.763 71.902 166.467 71.902 Q 169.074 71.902 171.55 71.111 Q 174.025 70.32 176.574 68.415 Q 177.394 67.8 178.376 66.936 Q 179.357 66.072 180.251 65.105 Q 181.144 64.138 181.862 63.142 Q 182.58 62.146 182.902 61.238 Q 180.676 61.238 178.962 61.062 Q 177.248 60.886 176.091 60.256 Q 174.933 59.626 174.347 58.396 Q 173.761 57.165 173.761 54.997 Q 173.761 54.324 173.937 53.371 Q 174.113 52.419 174.465 51.394 Q 174.816 50.369 175.314 49.358 Q 175.812 48.347 176.486 47.556 Q 177.16 46.765 177.966 46.267 Q 178.771 45.769 179.738 45.769 Q 180.91 45.769 181.95 46.355 Q 182.99 46.941 183.766 48.142 Q 184.543 49.343 184.997 51.233 Q 185.451 53.122 185.451 55.701 Z M 183.049 56.111 Q 182.697 54.675 182.228 53.679 Q 181.759 52.683 181.203 52.053 Q 180.646 51.423 180.031 51.13 Q 179.416 50.837 178.83 50.837 Q 177.892 50.837 177.204 51.482 Q 176.515 52.126 176.515 53.005 Q 176.515 54.704 178.083 55.408 Q 179.65 56.111 183.049 56.111 Z M 159.529 61.238 L 141.424 61.238 L 141.424 56.14 L 157.039 56.14 Q 157.039 53.533 156.424 51.247 Q 153.143 52.302 151.707 52.302 Q 149.568 52.302 148.221 51.218 Q 146.668 49.988 146.668 47.673 Q 146.668 43.63 148.162 40.554 Q 149.803 37.156 152.41 37.156 Q 155.984 37.156 157.918 42.781 Q 159.529 47.38 159.529 53.621 Z M 154.754 46.003 Q 154.344 44.978 153.436 43.865 Q 152.205 42.4 151.092 42.4 Q 150.301 42.4 149.788 43.074 Q 149.275 43.747 149.275 44.626 Q 149.275 46.97 151.854 46.97 Q 153.289 46.97 154.754 46.003 Z M 158.123 30.037 L 155.838 34.255 L 151.209 31.794 L 149.627 34.783 L 144.881 32.322 L 147.049 28.074 L 151.736 30.476 L 153.289 27.546 Z M 143.474 60.945 L 141.423 61.238 Q 140.838 61.238 140.149 60.974 Q 139.461 60.71 138.728 60.286 Q 137.996 59.861 137.293 59.319 Q 136.589 58.777 135.974 58.22 Q 133.894 59.275 131.257 60.066 Q 128.621 60.857 125.838 61.399 Q 123.054 61.941 120.3 62.204 Q 117.547 62.468 115.232 62.468 L 113.005 62.468 Q 109.05 62.468 106.355 61.985 Q 103.66 61.501 101.726 60.505 Q 99.441 59.275 98.372 57.268 Q 97.302 55.261 97.302 52.361 Q 97.302 51.247 97.551 49.944 Q 97.8 48.64 98.328 47.263 Q 98.65 46.413 99.265 45.271 Q 99.88 44.128 100.701 42.722 L 101.58 43.279 Q 100.496 45.417 99.998 46.999 Q 99.5 48.581 99.5 49.695 Q 99.5 53.533 103.162 55.452 Q 106.824 57.371 114.558 57.371 L 117.224 57.371 Q 119.129 57.371 121.209 57.195 Q 123.289 57.019 125.339 56.667 Q 127.39 56.316 129.309 55.832 Q 131.228 55.349 132.81 54.734 Q 132.283 53.972 131.887 53.122 Q 131.492 52.273 131.492 51.511 Q 131.492 49.49 132.151 47.483 Q 132.81 45.476 133.938 43.85 Q 135.066 42.224 136.546 41.213 Q 138.025 40.203 139.666 40.203 Q 140.662 40.203 141.467 40.906 Q 142.273 41.609 142.815 42.854 Q 143.357 44.099 143.65 45.798 Q 143.943 47.497 143.943 49.49 Q 143.943 51.247 143.079 52.639 Q 142.214 54.031 140.808 55.203 Q 141.511 55.613 142.2 55.876 Q 142.888 56.14 143.474 56.14 Z M 137.527 52.712 Q 139.05 51.892 140.003 51.16 Q 140.955 50.427 141.218 49.929 Q 141.16 49.636 140.925 48.933 Q 140.691 48.23 140.31 47.497 Q 139.929 46.765 139.446 46.194 Q 138.963 45.622 138.435 45.622 Q 137.849 45.622 137.19 45.886 Q 136.531 46.15 135.93 46.531 Q 135.33 46.912 134.876 47.366 Q 134.422 47.82 134.275 48.201 Q 134.597 49.402 135.388 50.427 Q 136.179 51.453 136.824 52.038 Z M 139.988 31.472 L 137.586 35.808 L 132.839 33.23 L 135.271 28.953 Z" transform="matrix(1.397983, 0, 0, 1.229236, -59.060822, -8.614962)" style="fill: rgb(255, 255, 255); white-space: pre;"/>
  <path d="M 217.936 281.188 Q 217.675 281.242 217.514 281.242 Q 217.282 281.242 217.116 281.166 Q 216.95 281.09 216.868 280.933 Q 216.786 280.775 216.786 280.37 L 216.786 278.092 L 216.313 278.092 L 216.313 277.79 L 216.786 277.79 L 216.786 276.92 L 217.189 276.664 L 217.189 277.79 L 217.829 277.79 L 217.829 278.092 L 217.189 278.092 L 217.189 280.319 Q 217.189 280.556 217.22 280.674 Q 217.25 280.792 217.338 280.85 Q 217.426 280.907 217.57 280.907 Q 217.68 280.907 217.885 280.866 Z M 221.316 279.54 L 218.701 279.54 Q 218.711 280.199 219.013 280.569 Q 219.314 280.939 219.846 280.939 Q 220.588 280.939 220.884 280.114 L 221.275 280.18 Q 221.074 280.761 220.714 281.012 Q 220.354 281.264 219.822 281.264 Q 219.102 281.264 218.694 280.788 Q 218.286 280.312 218.286 279.489 Q 218.286 278.666 218.696 278.19 Q 219.107 277.714 219.829 277.714 Q 221.304 277.714 221.316 279.54 Z M 220.884 279.21 Q 220.791 278.034 219.819 278.034 Q 219.378 278.034 219.076 278.339 Q 218.775 278.644 218.713 279.21 Z M 224.944 279.496 Q 224.944 280.336 224.548 280.8 Q 224.151 281.264 223.426 281.264 Q 223.077 281.264 222.801 281.142 Q 222.525 281.02 222.321 280.778 Q 222.117 280.536 222.015 280.219 Q 221.912 279.901 221.912 279.511 Q 221.912 279.105 222.001 278.787 Q 222.09 278.468 222.27 278.235 Q 222.449 278.002 222.723 277.858 Q 222.996 277.714 223.428 277.714 Q 224.122 277.714 224.533 278.164 Q 224.944 278.615 224.944 279.496 Z M 224.532 279.496 Q 224.532 279.04 224.398 278.711 Q 224.263 278.383 224.024 278.213 Q 223.785 278.043 223.441 278.043 Q 222.911 278.043 222.621 278.433 Q 222.332 278.822 222.332 279.479 Q 222.332 280.128 222.626 280.535 Q 222.921 280.941 223.445 280.941 Q 223.69 280.941 223.882 280.852 Q 224.075 280.763 224.223 280.578 Q 224.371 280.392 224.451 280.117 Q 224.532 279.843 224.532 279.496 Z M 227.548 277.919 L 227.395 278.263 Q 227.087 278.134 226.938 278.134 Q 226.818 278.134 226.72 278.172 Q 226.621 278.209 226.533 278.292 Q 226.445 278.375 226.381 278.485 Q 226.318 278.595 226.286 278.728 Q 226.255 278.861 226.228 279.121 Q 226.201 279.381 226.201 279.591 L 226.201 281.188 L 225.803 281.188 L 225.803 277.79 L 226.154 277.79 L 226.154 278.478 Q 226.406 277.714 226.948 277.714 Q 227.226 277.714 227.548 277.919 Z M 228.37 277.096 L 227.97 277.096 L 227.97 276.498 L 228.37 276.498 Z M 228.37 281.188 L 227.97 281.188 L 227.97 277.79 L 228.37 277.79 Z M 232.226 281.188 L 231.791 281.188 Q 231.696 280.949 231.667 280.67 Q 231.115 281.264 230.277 281.264 Q 229.972 281.264 229.732 281.157 Q 229.491 281.051 229.347 280.839 Q 229.203 280.626 229.203 280.321 Q 229.203 280.106 229.27 279.937 Q 229.338 279.767 229.474 279.639 Q 229.611 279.511 229.843 279.419 Q 230.075 279.328 230.678 279.245 Q 231.349 279.152 231.628 279.047 Q 231.628 278.756 231.612 278.6 Q 231.596 278.444 231.503 278.307 Q 231.41 278.17 231.217 278.097 Q 231.025 278.024 230.741 278.024 Q 229.86 278.024 229.682 278.778 L 229.276 278.717 Q 229.464 277.714 230.739 277.714 Q 231.139 277.714 231.411 277.805 Q 231.684 277.897 231.817 278.064 Q 231.95 278.231 231.99 278.478 Q 232.03 278.725 232.03 279.157 L 232.018 280.114 Q 232.013 280.497 232.054 280.702 Q 232.094 280.907 232.226 281.188 Z M 231.628 279.582 L 231.628 279.362 Q 231.288 279.491 230.553 279.618 Q 230.165 279.687 229.986 279.759 Q 229.806 279.831 229.715 279.967 Q 229.623 280.104 229.623 280.29 Q 229.623 280.568 229.829 280.738 Q 230.036 280.907 230.36 280.907 Q 230.551 280.907 230.736 280.857 Q 230.922 280.807 231.1 280.708 Q 231.278 280.609 231.398 280.469 Q 231.518 280.329 231.573 280.109 Q 231.628 279.889 231.628 279.582 Z M 233.76 281.188 L 233.204 281.188 L 233.204 280.568 L 233.76 280.568 Z M 235.299 280.673 L 235.299 282.487 L 234.901 282.487 L 234.901 277.79 L 235.299 277.79 L 235.299 278.344 Q 235.824 277.714 236.576 277.714 Q 236.913 277.714 237.181 277.823 Q 237.448 277.931 237.65 278.157 Q 237.853 278.383 237.969 278.716 Q 238.085 279.049 238.085 279.459 Q 238.085 280.275 237.677 280.769 Q 237.27 281.264 236.542 281.264 Q 235.795 281.264 235.299 280.673 Z M 237.672 279.496 Q 237.672 279.054 237.526 278.725 Q 237.38 278.395 237.13 278.223 Q 236.881 278.051 236.532 278.051 Q 236.244 278.051 236.02 278.146 Q 235.795 278.241 235.63 278.437 Q 235.465 278.632 235.38 278.91 Q 235.295 279.188 235.295 279.542 Q 235.295 280.189 235.619 280.562 Q 235.944 280.934 236.508 280.934 Q 236.776 280.934 236.989 280.832 Q 237.201 280.729 237.358 280.524 Q 237.514 280.319 237.593 280.061 Q 237.672 279.804 237.672 279.496 Z M 243.311 281.188 L 242.913 281.188 L 242.913 279.083 Q 242.913 278.617 242.837 278.43 Q 242.761 278.244 242.6 278.15 Q 242.439 278.056 242.217 278.056 Q 241.904 278.056 241.693 278.23 Q 241.482 278.405 241.395 278.709 Q 241.309 279.013 241.309 279.516 L 241.309 281.188 L 240.911 281.188 L 240.911 279.042 Q 240.911 278.688 240.851 278.488 Q 240.791 278.288 240.634 278.178 Q 240.476 278.068 240.234 278.068 Q 239.807 278.068 239.551 278.421 Q 239.295 278.773 239.295 279.376 L 239.295 281.188 L 238.897 281.188 L 238.897 277.79 L 239.295 277.79 L 239.295 278.28 Q 239.719 277.714 240.335 277.714 Q 240.984 277.714 241.238 278.28 Q 241.692 277.714 242.302 277.714 Q 243.311 277.714 243.311 278.876 Z M 244.761 277.096 L 244.36 277.096 L 244.36 276.498 L 244.761 276.498 Z M 244.761 281.188 L 244.36 281.188 L 244.36 277.79 L 244.761 277.79 Z M 248.514 281.188 L 248.021 281.188 L 246.937 279.711 L 245.85 281.188 L 245.35 281.188 L 246.705 279.416 L 245.447 277.79 L 245.945 277.79 L 246.937 279.093 L 247.923 277.79 L 248.419 277.79 L 247.161 279.376 Z M 249.76 281.188 L 249.204 281.188 L 249.204 280.568 L 249.76 280.568 Z M 253.542 281.188 L 253.139 281.188 L 253.139 279.079 Q 253.139 278.529 252.926 278.296 Q 252.714 278.063 252.35 278.063 Q 252.155 278.063 251.985 278.129 Q 251.816 278.195 251.671 278.325 Q 251.527 278.456 251.443 278.627 Q 251.359 278.798 251.326 279 Q 251.293 279.203 251.293 279.716 L 251.293 281.188 L 250.893 281.188 L 250.893 277.79 L 251.293 277.79 L 251.293 278.292 Q 251.75 277.714 252.387 277.714 Q 253.542 277.714 253.542 278.971 Z M 257.363 279.54 L 254.748 279.54 Q 254.758 280.199 255.059 280.569 Q 255.361 280.939 255.893 280.939 Q 256.635 280.939 256.931 280.114 L 257.321 280.18 Q 257.121 280.761 256.761 281.012 Q 256.401 281.264 255.869 281.264 Q 255.149 281.264 254.741 280.788 Q 254.333 280.312 254.333 279.489 Q 254.333 278.666 254.743 278.19 Q 255.153 277.714 255.876 277.714 Q 257.351 277.714 257.363 279.54 Z M 256.931 279.21 Q 256.838 278.034 255.866 278.034 Q 255.424 278.034 255.123 278.339 Q 254.821 278.644 254.76 279.21 Z M 259.452 281.188 Q 259.191 281.242 259.029 281.242 Q 258.797 281.242 258.631 281.166 Q 258.465 281.09 258.384 280.933 Q 258.302 280.775 258.302 280.37 L 258.302 278.092 L 257.828 278.092 L 257.828 277.79 L 258.302 277.79 L 258.302 276.92 L 258.705 276.664 L 258.705 277.79 L 259.344 277.79 L 259.344 278.092 L 258.705 278.092 L 258.705 280.319 Q 258.705 280.556 258.735 280.674 Q 258.766 280.792 258.854 280.85 Q 258.942 280.907 259.086 280.907 Q 259.195 280.907 259.401 280.866 Z" style="fill: rgb(51, 51, 51); white-space: pre; mix-blend-mode: screen; opacity: 0.2;"/>
</svg>