<?xml version="1.0" encoding="utf-8"?>
<svg viewBox="0 0 300 300" width="300px" height="300px" xmlns="http://www.w3.org/2000/svg">
  <rect id="blauw_vlak" width="300" height="300" style="fill: rgb(25, 131, 30);" x="0.512"/>
  <path id="witte_bies" style="fill: none; stroke: rgb(247, 251, 245); stroke-width: 6.76128;" d="M 276.33022,292.06475 C 285.02492,292.06475 292.09652,285.02651 292.09652,276.30011 L 292.09652,23.66726 C 292.09652,14.97345 285.02492,7.894449 276.33022,7.894449 L 23.66982,7.894449 C 14.94249,7.894449 7.86274,14.97345 7.86274,23.66726 L 7.86274,276.30011 C 7.86274,285.02651 14.94249,292.06475 23.66982,292.06475 L 276.33022,292.06475 z"/>
  <path id="path7894" style="opacity: 1; fill: rgb(255, 255, 255); fill-opacity: 1; fill-rule: nonzero; stroke: none; stroke-width: 8; stroke-miterlimit: 4; stroke-dasharray: none; stroke-opacity: 1;" d="M 187.807 226.1 C 156.005 220.162 132.819 190.896 132.819 156.689 L 199.361 156.689 L 187.807 226.1 Z" transform="matrix(-0.052025, 0.998646, -0.998646, -0.052025, 365.86615, 35.486725)"/>
  <circle r="66.035" cy="-187.15" cx="216.266" id="circle7916" style="opacity: 1; fill-opacity: 1; fill-rule: nonzero; stroke: none; stroke-width: 1.6; stroke-linecap: square; stroke-linejoin: miter; stroke-miterlimit: 4; stroke-dasharray: none; stroke-opacity: 0.653266; paint-order: fill markers; fill: rgb(25, 131, 30);" transform="matrix(0.398307, 0.259168, 0.306707, -0.471369, 155.321548, 71.552223)"/>
  <path id="path7949" d="M 219.122 155.423 L 204.656 192.683 C 203.698 195.091 200.298 195.112 199.311 192.713 L 191.764 174.161 L 177.191 160.418 C 175.309 158.634 176.557 155.47 179.149 155.446 L 219.122 155.423 Z" style="color: rgb(0, 0, 0); font: medium sans-serif; font-feature-settings: normal; text-indent: 0px; text-align: start; text-decoration: none solid rgb(0, 0, 0); letter-spacing: normal; word-spacing: normal; text-transform: none; writing-mode: lr-tb; direction: ltr; text-orientation: mixed; dominant-baseline: auto; baseline-shift: baseline; text-anchor: start; white-space: normal; clip-rule: nonzero; display: inline; overflow: visible; opacity: 1; isolation: auto; mix-blend-mode: normal; color-interpolation: srgb; color-interpolation-filters: linearrgb; vector-effect: none; fill: rgb(255, 255, 255); fill-opacity: 1; fill-rule: nonzero; stroke: none; stroke-width: 1.6; stroke-linecap: butt; stroke-linejoin: round; stroke-miterlimit: 4; stroke-dasharray: none; stroke-dashoffset: 0; stroke-opacity: 1; color-rendering: auto; image-rendering: auto; shape-rendering: auto; text-rendering: auto;" transform="matrix(0.83884, 0.544378, -0.544378, 0.83884, 127.10733, -79.428902)"/>
  <path style="clip-rule: evenodd; fill-opacity: 1; fill-rule: nonzero; stroke: none; stroke-width: 1.95062; fill: rgb(255, 255, 255);" d="M 118.612 225.678 L 110.387 225.678 L 110.387 181.503 L 99.322 181.503 L 99.322 225.678 L 91.095 225.678 L 104.853 240.161" id="polyline852" transform="matrix(0, 1, -1, 0, 315.685486, 105.9785)"/>
  <path id="path866" d="M 113.049 126.516 L 129.411 126.516 L 129.411 231.597 L 151.422 231.597 L 151.422 126.516 L 167.785 126.516 L 140.417 92.063" style="clip-rule: evenodd; fill: rgb(255, 255, 255); fill-opacity: 1; fill-rule: nonzero; stroke: none; stroke-width: 1.95062;"/>
  <path d="M 217.936 281.188 Q 217.675 281.242 217.514 281.242 Q 217.282 281.242 217.116 281.166 Q 216.95 281.09 216.868 280.933 Q 216.786 280.775 216.786 280.37 L 216.786 278.092 L 216.313 278.092 L 216.313 277.79 L 216.786 277.79 L 216.786 276.92 L 217.189 276.664 L 217.189 277.79 L 217.829 277.79 L 217.829 278.092 L 217.189 278.092 L 217.189 280.319 Q 217.189 280.556 217.22 280.674 Q 217.25 280.792 217.338 280.85 Q 217.426 280.907 217.57 280.907 Q 217.68 280.907 217.885 280.866 Z M 221.316 279.54 L 218.701 279.54 Q 218.711 280.199 219.013 280.569 Q 219.314 280.939 219.846 280.939 Q 220.588 280.939 220.884 280.114 L 221.275 280.18 Q 221.074 280.761 220.714 281.012 Q 220.354 281.264 219.822 281.264 Q 219.102 281.264 218.694 280.788 Q 218.286 280.312 218.286 279.489 Q 218.286 278.666 218.696 278.19 Q 219.107 277.714 219.829 277.714 Q 221.304 277.714 221.316 279.54 Z M 220.884 279.21 Q 220.791 278.034 219.819 278.034 Q 219.378 278.034 219.076 278.339 Q 218.775 278.644 218.713 279.21 Z M 224.944 279.496 Q 224.944 280.336 224.548 280.8 Q 224.151 281.264 223.426 281.264 Q 223.077 281.264 222.801 281.142 Q 222.525 281.02 222.321 280.778 Q 222.117 280.536 222.015 280.219 Q 221.912 279.901 221.912 279.511 Q 221.912 279.105 222.001 278.787 Q 222.09 278.468 222.27 278.235 Q 222.449 278.002 222.723 277.858 Q 222.996 277.714 223.428 277.714 Q 224.122 277.714 224.533 278.164 Q 224.944 278.615 224.944 279.496 Z M 224.532 279.496 Q 224.532 279.04 224.398 278.711 Q 224.263 278.383 224.024 278.213 Q 223.785 278.043 223.441 278.043 Q 222.911 278.043 222.621 278.433 Q 222.332 278.822 222.332 279.479 Q 222.332 280.128 222.626 280.535 Q 222.921 280.941 223.445 280.941 Q 223.69 280.941 223.882 280.852 Q 224.075 280.763 224.223 280.578 Q 224.371 280.392 224.451 280.117 Q 224.532 279.843 224.532 279.496 Z M 227.548 277.919 L 227.395 278.263 Q 227.087 278.134 226.938 278.134 Q 226.818 278.134 226.72 278.172 Q 226.621 278.209 226.533 278.292 Q 226.445 278.375 226.381 278.485 Q 226.318 278.595 226.286 278.728 Q 226.255 278.861 226.228 279.121 Q 226.201 279.381 226.201 279.591 L 226.201 281.188 L 225.803 281.188 L 225.803 277.79 L 226.154 277.79 L 226.154 278.478 Q 226.406 277.714 226.948 277.714 Q 227.226 277.714 227.548 277.919 Z M 228.37 277.096 L 227.97 277.096 L 227.97 276.498 L 228.37 276.498 Z M 228.37 281.188 L 227.97 281.188 L 227.97 277.79 L 228.37 277.79 Z M 232.226 281.188 L 231.791 281.188 Q 231.696 280.949 231.667 280.67 Q 231.115 281.264 230.277 281.264 Q 229.972 281.264 229.732 281.157 Q 229.491 281.051 229.347 280.839 Q 229.203 280.626 229.203 280.321 Q 229.203 280.106 229.27 279.937 Q 229.338 279.767 229.474 279.639 Q 229.611 279.511 229.843 279.419 Q 230.075 279.328 230.678 279.245 Q 231.349 279.152 231.628 279.047 Q 231.628 278.756 231.612 278.6 Q 231.596 278.444 231.503 278.307 Q 231.41 278.17 231.217 278.097 Q 231.025 278.024 230.741 278.024 Q 229.86 278.024 229.682 278.778 L 229.276 278.717 Q 229.464 277.714 230.739 277.714 Q 231.139 277.714 231.411 277.805 Q 231.684 277.897 231.817 278.064 Q 231.95 278.231 231.99 278.478 Q 232.03 278.725 232.03 279.157 L 232.018 280.114 Q 232.013 280.497 232.054 280.702 Q 232.094 280.907 232.226 281.188 Z M 231.628 279.582 L 231.628 279.362 Q 231.288 279.491 230.553 279.618 Q 230.165 279.687 229.986 279.759 Q 229.806 279.831 229.715 279.967 Q 229.623 280.104 229.623 280.29 Q 229.623 280.568 229.829 280.738 Q 230.036 280.907 230.36 280.907 Q 230.551 280.907 230.736 280.857 Q 230.922 280.807 231.1 280.708 Q 231.278 280.609 231.398 280.469 Q 231.518 280.329 231.573 280.109 Q 231.628 279.889 231.628 279.582 Z M 233.76 281.188 L 233.204 281.188 L 233.204 280.568 L 233.76 280.568 Z M 235.299 280.673 L 235.299 282.487 L 234.901 282.487 L 234.901 277.79 L 235.299 277.79 L 235.299 278.344 Q 235.824 277.714 236.576 277.714 Q 236.913 277.714 237.181 277.823 Q 237.448 277.931 237.65 278.157 Q 237.853 278.383 237.969 278.716 Q 238.085 279.049 238.085 279.459 Q 238.085 280.275 237.677 280.769 Q 237.27 281.264 236.542 281.264 Q 235.795 281.264 235.299 280.673 Z M 237.672 279.496 Q 237.672 279.054 237.526 278.725 Q 237.38 278.395 237.13 278.223 Q 236.881 278.051 236.532 278.051 Q 236.244 278.051 236.02 278.146 Q 235.795 278.241 235.63 278.437 Q 235.465 278.632 235.38 278.91 Q 235.295 279.188 235.295 279.542 Q 235.295 280.189 235.619 280.562 Q 235.944 280.934 236.508 280.934 Q 236.776 280.934 236.989 280.832 Q 237.201 280.729 237.358 280.524 Q 237.514 280.319 237.593 280.061 Q 237.672 279.804 237.672 279.496 Z M 243.311 281.188 L 242.913 281.188 L 242.913 279.083 Q 242.913 278.617 242.837 278.43 Q 242.761 278.244 242.6 278.15 Q 242.439 278.056 242.217 278.056 Q 241.904 278.056 241.693 278.23 Q 241.482 278.405 241.395 278.709 Q 241.309 279.013 241.309 279.516 L 241.309 281.188 L 240.911 281.188 L 240.911 279.042 Q 240.911 278.688 240.851 278.488 Q 240.791 278.288 240.634 278.178 Q 240.476 278.068 240.234 278.068 Q 239.807 278.068 239.551 278.421 Q 239.295 278.773 239.295 279.376 L 239.295 281.188 L 238.897 281.188 L 238.897 277.79 L 239.295 277.79 L 239.295 278.28 Q 239.719 277.714 240.335 277.714 Q 240.984 277.714 241.238 278.28 Q 241.692 277.714 242.302 277.714 Q 243.311 277.714 243.311 278.876 Z M 244.761 277.096 L 244.36 277.096 L 244.36 276.498 L 244.761 276.498 Z M 244.761 281.188 L 244.36 281.188 L 244.36 277.79 L 244.761 277.79 Z M 248.514 281.188 L 248.021 281.188 L 246.937 279.711 L 245.85 281.188 L 245.35 281.188 L 246.705 279.416 L 245.447 277.79 L 245.945 277.79 L 246.937 279.093 L 247.923 277.79 L 248.419 277.79 L 247.161 279.376 Z M 249.76 281.188 L 249.204 281.188 L 249.204 280.568 L 249.76 280.568 Z M 253.542 281.188 L 253.139 281.188 L 253.139 279.079 Q 253.139 278.529 252.926 278.296 Q 252.714 278.063 252.35 278.063 Q 252.155 278.063 251.985 278.129 Q 251.816 278.195 251.671 278.325 Q 251.527 278.456 251.443 278.627 Q 251.359 278.798 251.326 279 Q 251.293 279.203 251.293 279.716 L 251.293 281.188 L 250.893 281.188 L 250.893 277.79 L 251.293 277.79 L 251.293 278.292 Q 251.75 277.714 252.387 277.714 Q 253.542 277.714 253.542 278.971 Z M 257.363 279.54 L 254.748 279.54 Q 254.758 280.199 255.059 280.569 Q 255.361 280.939 255.893 280.939 Q 256.635 280.939 256.931 280.114 L 257.321 280.18 Q 257.121 280.761 256.761 281.012 Q 256.401 281.264 255.869 281.264 Q 255.149 281.264 254.741 280.788 Q 254.333 280.312 254.333 279.489 Q 254.333 278.666 254.743 278.19 Q 255.153 277.714 255.876 277.714 Q 257.351 277.714 257.363 279.54 Z M 256.931 279.21 Q 256.838 278.034 255.866 278.034 Q 255.424 278.034 255.123 278.339 Q 254.821 278.644 254.76 279.21 Z M 259.452 281.188 Q 259.191 281.242 259.029 281.242 Q 258.797 281.242 258.631 281.166 Q 258.465 281.09 258.384 280.933 Q 258.302 280.775 258.302 280.37 L 258.302 278.092 L 257.828 278.092 L 257.828 277.79 L 258.302 277.79 L 258.302 276.92 L 258.705 276.664 L 258.705 277.79 L 259.344 277.79 L 259.344 278.092 L 258.705 278.092 L 258.705 280.319 Q 258.705 280.556 258.735 280.674 Q 258.766 280.792 258.854 280.85 Q 258.942 280.907 259.086 280.907 Q 259.195 280.907 259.401 280.866 Z" style="fill: rgb(51, 51, 51); white-space: pre; mix-blend-mode: screen; opacity: 0.2;"/>
  <path d="M 172.962 45.227 Q 172.962 47.079 171.461 49.729 L 171.173 49.57 Q 171.237 48.931 171.269 48.46 Q 171.301 47.989 171.301 47.686 Q 171.301 45.546 170.918 41.634 Q 170.535 37.722 169.784 32.054 Q 170.056 31.431 170.415 30.713 Q 170.774 29.994 171.189 29.18 L 171.301 29.18 Q 172.131 34.96 172.547 38.952 Q 172.962 42.943 172.962 45.227 Z M 167.697 49.298 L 159.809 49.298 L 159.809 46.52 L 166.084 46.52 L 164.184 32.98 L 163.354 32.581 Q 163.354 31.495 163.554 30.529 Q 163.753 29.563 164.216 28.637 L 164.488 28.733 Q 164.504 29.196 164.687 29.523 Q 164.871 29.851 165.414 30.074 L 167.266 30.857 Q 167.266 31.703 167.066 32.517 Q 166.867 33.331 166.675 33.906 L 165.813 33.651 L 167.697 46.169 Z M 157.075 32.294 L 157.842 30.697 L 160.205 32.054 L 159.087 34.353 L 156.82 33.012 L 156.038 34.641 L 153.722 33.3 L 154.776 30.984 Z M 151.216 46.52 Q 151.487 46.52 151.91 46.496 Q 152.333 46.472 152.86 46.4 Q 153.387 46.328 153.978 46.201 Q 154.569 46.073 155.175 45.865 Q 154.856 45.434 154.625 44.947 Q 154.393 44.46 154.393 43.997 Q 154.393 42.896 154.76 41.802 Q 155.127 40.708 155.742 39.822 Q 156.357 38.936 157.163 38.385 Q 157.97 37.834 158.848 37.834 Q 159.391 37.834 159.822 38.193 Q 160.253 38.553 160.556 39.183 Q 160.86 39.814 161.027 40.684 Q 161.195 41.554 161.195 42.56 Q 161.195 43.566 160.7 44.412 Q 160.205 45.259 159.423 45.977 Q 159.822 46.217 160.205 46.368 Q 160.588 46.52 160.923 46.52 L 160.923 49.139 L 159.79 49.298 Q 159.47 49.298 159.111 49.163 Q 158.752 49.027 158.377 48.803 Q 158.002 48.58 157.618 48.292 Q 157.235 48.005 156.9 47.718 Q 155.255 48.612 153.802 48.955 Q 152.349 49.298 151.216 49.298 Z M 159.726 42.848 Q 159.694 42.704 159.558 42.369 Q 159.423 42.033 159.207 41.682 Q 158.991 41.331 158.728 41.059 Q 158.465 40.788 158.177 40.788 Q 157.874 40.788 157.515 40.932 Q 157.155 41.075 156.82 41.291 Q 156.485 41.506 156.237 41.746 Q 155.99 41.985 155.91 42.193 Q 156.085 42.848 156.517 43.407 Q 156.948 43.965 157.299 44.285 L 157.65 44.62 Q 158.512 44.077 159.047 43.598 Q 159.582 43.119 159.726 42.848 Z M 152.335 49.139 L 151.217 49.298 L 145.182 49.298 Q 144.288 49.298 143.553 48.771 Q 142.819 48.244 142.819 47.526 Q 142.819 46.344 143.122 45.339 L 143.489 45.339 Q 143.809 46.52 145.182 46.52 L 151.361 46.52 Q 151.361 40.309 147.258 39.032 L 147.497 35.934 Q 150.275 37.307 151.425 40.261 Q 152.335 42.64 152.335 46.52 Z M 141.299 49.298 L 140.181 49.298 Q 139.846 49.298 139.327 49.179 Q 138.808 49.059 138.257 48.867 Q 137.706 48.676 137.195 48.428 Q 136.684 48.181 136.365 47.909 Q 135.758 48.676 134.888 48.987 Q 134.018 49.298 132.916 49.298 L 131.527 49.298 Q 131.527 51.805 129.755 53.689 Q 127.264 56.34 122.171 56.34 Q 115.433 56.34 115.433 51.454 Q 115.433 50.56 115.584 49.634 Q 115.736 48.708 116.047 47.702 Q 116.359 46.696 116.814 45.586 Q 117.269 44.476 117.892 43.199 L 118.53 43.486 Q 116.694 47.255 116.694 49.538 Q 116.694 53.577 122.139 53.577 Q 125.236 53.577 127.615 52.508 Q 130.617 51.166 130.617 48.803 Q 130.617 45.929 128.717 43.598 L 129.994 40.421 L 130.09 40.421 Q 130.457 41.059 130.721 41.61 Q 130.984 42.161 131.128 42.64 Q 131.527 44.029 131.527 46.52 L 132.789 46.52 Q 133.97 46.52 134.665 46.201 Q 135.359 45.881 135.79 45.211 Q 135.998 44.891 136.118 44.572 Q 136.237 44.253 136.301 43.949 Q 136.365 43.646 136.397 43.375 Q 136.429 43.103 136.461 42.896 Q 136.493 42.752 136.525 42.624 Q 136.557 42.496 136.652 42.417 L 137.211 41.906 L 137.291 41.906 Q 137.323 42.129 137.347 42.56 Q 137.371 42.991 137.355 43.343 Q 137.339 43.822 137.307 44.333 Q 137.275 44.844 137.147 45.434 Q 137.451 45.658 137.834 45.881 Q 138.217 46.105 138.64 46.281 Q 139.063 46.456 139.527 46.576 Q 139.99 46.696 140.469 46.696 Q 140.469 45.929 140.277 45.219 Q 140.085 44.508 139.782 43.949 Q 139.511 43.438 139.287 43.159 Q 139.063 42.88 139.063 42.704 Q 139.063 42.576 139.127 42.433 Q 139.191 42.289 139.271 42.145 L 139.99 40.932 L 140.069 40.932 Q 140.437 41.522 140.652 41.922 Q 140.868 42.321 140.948 42.544 Q 141.299 43.534 141.299 45.466 Z" style="fill: rgb(255, 255, 255); white-space: pre;"/>
  <path d="M 85.726 67.258 L 89.583 67.258 L 89.583 74.029 Q 89.583 76.162 89.205 77.275 Q 88.827 78.388 87.684 79.161 Q 86.542 79.934 84.757 79.934 Q 82.871 79.934 81.835 79.424 Q 80.798 78.914 80.233 77.933 Q 79.668 76.952 79.566 75.507 L 83.245 75.006 Q 83.254 75.83 83.39 76.23 Q 83.526 76.629 83.848 76.875 Q 84.069 77.037 84.477 77.037 Q 85.123 77.037 85.424 76.557 Q 85.726 76.077 85.726 74.938 Z M 91.332 67.258 L 101.646 67.258 L 101.646 69.917 L 95.189 69.917 L 95.189 71.897 L 101.179 71.897 L 101.179 74.437 L 95.189 74.437 L 95.189 76.892 L 101.833 76.892 L 101.833 79.713 L 91.332 79.713 Z M 105.094 79.713 L 105.094 67.258 L 111.509 67.258 Q 113.293 67.258 114.236 67.564 Q 115.179 67.869 115.757 68.698 Q 116.335 69.526 116.335 70.716 Q 116.335 71.752 115.893 72.504 Q 115.451 73.256 114.678 73.723 Q 114.185 74.021 113.327 74.216 Q 114.015 74.445 114.33 74.675 Q 114.542 74.828 114.946 75.329 Q 115.349 75.83 115.485 76.102 L 117.346 79.713 L 112.996 79.713 L 110.94 75.907 Q 110.549 75.168 110.243 74.947 Q 109.827 74.658 109.3 74.658 L 108.96 74.658 L 108.96 79.713 Z M 108.96 72.304 L 110.583 72.304 Q 110.846 72.304 111.602 72.134 Q 111.985 72.058 112.227 71.744 Q 112.469 71.429 112.469 71.021 Q 112.469 70.418 112.087 70.095 Q 111.704 69.773 110.651 69.773 L 108.96 69.773 Z M 127.805 67.258 L 131.645 67.258 L 131.645 74.683 Q 131.645 75.788 131.301 76.769 Q 130.957 77.75 130.222 78.485 Q 129.487 79.22 128.68 79.518 Q 127.559 79.934 125.987 79.934 Q 125.078 79.934 124.003 79.806 Q 122.928 79.679 122.206 79.301 Q 121.484 78.923 120.885 78.226 Q 120.286 77.53 120.065 76.79 Q 119.708 75.601 119.708 74.683 L 119.708 67.258 L 123.548 67.258 L 123.548 74.862 Q 123.548 75.881 124.113 76.455 Q 124.678 77.028 125.681 77.028 Q 126.675 77.028 127.24 76.463 Q 127.805 75.898 127.805 74.862 Z M 133.7 75.592 L 137.362 75.363 Q 137.481 76.255 137.846 76.722 Q 138.441 77.479 139.546 77.479 Q 140.37 77.479 140.816 77.092 Q 141.262 76.705 141.262 76.196 Q 141.262 75.711 140.837 75.329 Q 140.412 74.947 138.866 74.607 Q 136.334 74.038 135.255 73.095 Q 134.168 72.151 134.168 70.69 Q 134.168 69.73 134.724 68.876 Q 135.281 68.022 136.398 67.534 Q 137.515 67.045 139.461 67.045 Q 141.848 67.045 143.101 67.933 Q 144.354 68.821 144.592 70.758 L 140.965 70.971 Q 140.82 70.129 140.357 69.747 Q 139.894 69.365 139.078 69.365 Q 138.407 69.365 138.067 69.649 Q 137.727 69.934 137.727 70.342 Q 137.727 70.639 138.008 70.877 Q 138.28 71.123 139.299 71.336 Q 141.823 71.88 142.914 72.436 Q 144.006 72.993 144.503 73.817 Q 145 74.641 145 75.66 Q 145 76.858 144.337 77.869 Q 143.675 78.88 142.485 79.403 Q 141.296 79.925 139.486 79.925 Q 136.309 79.925 135.085 78.702 Q 133.862 77.479 133.7 75.592 Z M 155.738 77.657 L 151.354 77.657 L 150.751 79.713 L 146.817 79.713 L 151.499 67.258 L 155.696 67.258 L 160.377 79.713 L 156.35 79.713 Z M 154.931 74.964 L 153.555 70.486 L 152.187 74.964 Z M 161.778 67.258 L 165.627 67.258 L 165.627 76.646 L 171.633 76.646 L 171.633 79.713 L 161.778 79.713 Z M 173.551 67.258 L 183.865 67.258 L 183.865 69.917 L 177.408 69.917 L 177.408 71.897 L 183.398 71.897 L 183.398 74.437 L 177.408 74.437 L 177.408 76.892 L 184.052 76.892 L 184.052 79.713 L 173.551 79.713 Z M 187.22 67.258 L 192.283 67.258 L 194.237 74.836 L 196.183 67.258 L 201.23 67.258 L 201.23 79.713 L 198.086 79.713 L 198.086 70.214 L 195.648 79.713 L 192.802 79.713 L 190.372 70.214 L 190.372 79.713 L 187.22 79.713 Z" style="fill: rgb(255, 255, 255); text-transform: uppercase; white-space: pre;"/>
  <path d="M 282.304 156.541 Q 282.304 158.938 279.493 161.394 Q 276.903 163.628 275.069 163.628 Q 273.649 163.628 271.77 163.007 Q 270.187 162.43 268.589 161.838 L 268.84 161.246 Q 271.932 161.838 272.79 161.838 Q 275.646 161.838 278.501 159.338 Q 281.238 156.926 281.238 154.766 Q 281.238 152.636 279.019 150.18 L 279.862 147.857 Q 282.304 150.106 282.304 152.946 Z M 266.095 152.769 Q 266.095 154.485 264.704 156.941 L 264.438 156.793 Q 264.497 156.201 264.527 155.765 Q 264.556 155.328 264.556 155.047 Q 264.556 153.065 264.201 149.44 Q 263.846 145.815 263.151 140.563 Q 263.402 139.986 263.735 139.32 Q 264.068 138.654 264.453 137.9 L 264.556 137.9 Q 265.326 143.256 265.71 146.954 Q 266.095 150.653 266.095 152.769 Z M 261.216 156.541 L 259.456 156.541 Q 257.103 156.541 255.15 157.059 Q 252.842 157.681 252.842 158.761 Q 252.842 159.929 253.523 162.119 Q 254.204 164.309 254.204 165.492 Q 254.204 166.291 253.893 167.504 L 253.775 167.504 Q 252.635 163.643 252.066 161.542 Q 251.496 159.441 251.496 159.131 Q 251.496 156.408 253.345 155.269 Q 254.1 154.81 255.409 154.485 Q 256.719 154.159 258.642 153.967 Q 257.754 153.035 257.488 152.843 Q 256.748 152.251 255.964 152.251 Q 255.121 152.251 254.174 153.361 L 253.493 152.931 Q 254.633 150.061 256.704 150.061 Q 258.686 150.061 261.216 153.967 Z M 243.504 152.858 Q 243.504 153.139 243.438 153.508 Q 243.371 153.878 243.297 154.1 Q 243.164 154.515 242.92 155.136 Q 242.676 155.757 242.336 156.527 Q 241.655 156.497 240.952 156.342 Q 240.25 156.186 239.606 155.868 Q 238.962 155.55 238.437 155.055 Q 237.912 154.559 237.601 153.849 Q 237.276 154.485 236.891 155.055 Q 236.506 155.624 236.026 156.046 Q 235.545 156.467 234.953 156.719 Q 234.361 156.971 233.607 156.971 Q 232.823 156.971 232.319 156.763 Q 231.816 156.556 231.498 156.157 Q 231.18 155.757 230.981 155.18 Q 230.781 154.603 230.633 153.864 L 230.485 153.864 L 229.02 155.654 Q 228.636 155.654 228.184 155.632 Q 227.733 155.609 227.274 155.572 Q 226.816 155.535 226.394 155.491 Q 225.972 155.447 225.647 155.402 Q 225.366 155.358 225.07 155.291 Q 224.774 155.225 224.53 155.121 Q 224.286 155.018 224.123 154.87 Q 223.96 154.722 223.96 154.529 Q 223.96 154.322 224.16 153.893 Q 224.36 153.464 224.626 152.998 Q 224.892 152.532 225.151 152.118 Q 225.41 151.704 225.543 151.511 Q 225.647 151.348 226.143 150.993 Q 226.638 150.638 227.319 150.224 Q 227.999 149.81 228.769 149.396 Q 229.538 148.981 230.219 148.715 L 230.293 147.191 L 231.447 145.578 L 231.595 145.578 L 231.595 148.759 Q 231.595 149.573 231.661 150.483 Q 231.728 151.393 231.89 152.192 Q 232.098 153.227 232.712 153.664 Q 233.326 154.1 234.169 154.1 Q 235.841 154.1 237.039 152.384 L 235.989 147.443 Q 235.944 147.206 235.885 146.917 Q 235.826 146.629 235.774 146.355 Q 235.722 146.081 235.693 145.83 Q 235.663 145.578 235.663 145.416 Q 235.663 144.794 236.033 144.055 Q 236.166 143.773 236.314 143.574 Q 236.462 143.374 236.699 143.078 L 236.847 143.078 Q 236.995 144.099 237.202 145.12 L 238.149 149.884 Q 238.267 150.446 238.511 151.001 Q 238.755 151.556 239.022 151.911 Q 239.229 152.207 239.547 152.48 Q 239.865 152.754 240.227 152.998 Q 240.59 153.242 240.989 153.42 Q 241.389 153.597 241.773 153.686 Q 242.099 153.582 242.099 153.109 Q 241.581 151.156 241.056 149.225 Q 240.531 147.295 240.116 145.327 Q 240.042 144.957 240.013 144.698 Q 239.983 144.439 239.983 144.291 Q 239.983 143.685 240.353 142.96 Q 240.516 142.649 240.627 142.427 Q 240.738 142.205 240.901 141.939 L 241.019 141.939 Q 241.063 142.19 241.13 142.449 Q 241.196 142.708 241.285 143.041 Q 241.374 143.374 241.485 143.803 Q 241.596 144.232 241.744 144.824 L 242.972 149.751 Q 243.223 150.771 243.364 151.578 Q 243.504 152.384 243.504 152.858 Z M 230.233 149.469 L 230.115 149.469 Q 229.982 149.839 229.723 150.187 Q 229.464 150.535 229.079 150.757 L 226.046 152.591 L 226.046 152.739 Q 226.254 152.813 226.638 152.895 Q 227.023 152.976 227.452 153.05 Q 227.881 153.124 228.295 153.176 Q 228.71 153.227 228.961 153.227 Q 229.375 153.227 229.753 153.05 Q 230.13 152.872 230.381 152.532 Z M 236.27 136.376 Q 236.27 136.761 236.1 137.271 Q 235.929 137.781 235.634 138.344 L 235.367 138.27 Q 235.397 137.989 235.412 137.789 Q 235.426 137.589 235.426 137.471 Q 235.426 137.012 235.375 136.605 Q 235.323 136.198 235.241 135.829 Q 235.16 135.459 235.042 135.096 Q 234.923 134.734 234.79 134.349 Q 234.909 134.068 235.094 133.646 Q 235.278 133.225 235.471 132.929 L 235.589 132.929 Q 235.841 133.669 236.055 134.564 Q 236.27 135.459 236.27 136.376 Z M 238.637 139.379 Q 238.637 140.474 238.237 141.184 Q 237.808 141.983 237.069 141.983 Q 236.58 141.983 236.077 141.613 Q 235.308 142.871 234.509 142.871 Q 233.266 142.871 233.266 141.303 Q 233.266 140.74 233.666 139.72 L 233.977 139.601 Q 233.977 139.734 233.947 139.986 Q 233.917 140.237 233.917 140.4 Q 233.917 141.244 234.45 141.244 Q 235.367 141.244 235.915 138.965 L 236.225 138.862 Q 236.477 140.223 237.009 140.223 Q 238.075 140.223 238.163 138.211 L 238.474 138.122 Q 238.637 139.024 238.637 139.379 Z M 247.588 152.769 Q 247.588 154.485 246.197 156.941 L 245.931 156.793 Q 245.99 156.201 246.02 155.765 Q 246.049 155.328 246.049 155.047 Q 246.049 153.065 245.694 149.44 Q 245.339 145.815 244.644 140.563 Q 244.895 139.986 245.228 139.32 Q 245.561 138.654 245.946 137.9 L 246.049 137.9 Q 246.819 143.256 247.203 146.954 Q 247.588 150.653 247.588 152.769 Z" style="fill: rgb(255, 255, 255); white-space: pre;"/>
  <path d="M 204.7 202.349 L 204.7 193.616 L 209.198 193.616 Q 210.449 193.616 211.11 193.83 Q 211.771 194.045 212.176 194.626 Q 212.581 195.207 212.581 196.041 Q 212.581 196.767 212.272 197.294 Q 211.962 197.822 211.42 198.149 Q 211.074 198.358 210.473 198.495 Q 210.955 198.656 211.176 198.816 Q 211.325 198.924 211.607 199.275 Q 211.89 199.627 211.986 199.817 L 213.29 202.349 L 210.24 202.349 L 208.799 199.68 Q 208.525 199.162 208.31 199.007 Q 208.018 198.805 207.649 198.805 L 207.411 198.805 L 207.411 202.349 Z M 207.411 197.154 L 208.549 197.154 Q 208.733 197.154 209.263 197.035 Q 209.531 196.982 209.701 196.761 Q 209.871 196.541 209.871 196.255 Q 209.871 195.832 209.603 195.606 Q 209.335 195.379 208.596 195.379 L 207.411 195.379 Z M 220.741 200.907 L 217.667 200.907 L 217.244 202.349 L 214.486 202.349 L 217.768 193.616 L 220.711 193.616 L 223.993 202.349 L 221.17 202.349 Z M 220.175 199.019 L 219.21 195.88 L 218.251 199.019 Z M 225.369 193.616 L 228.92 193.616 L 230.29 198.93 L 231.654 193.616 L 235.192 193.616 L 235.192 202.349 L 232.988 202.349 L 232.988 195.689 L 231.279 202.349 L 229.283 202.349 L 227.579 195.689 L 227.579 202.349 L 225.369 202.349 Z M 242.835 200.907 L 239.761 200.907 L 239.338 202.349 L 236.58 202.349 L 239.862 193.616 L 242.805 193.616 L 246.087 202.349 L 243.264 202.349 Z M 242.269 199.019 L 241.304 195.88 L 240.345 199.019 Z M 247.508 193.616 L 250.207 193.616 L 250.207 200.199 L 254.418 200.199 L 254.418 202.349 L 247.508 202.349 Z M 256.196 193.616 L 258.894 193.616 L 258.894 200.199 L 263.106 200.199 L 263.106 202.349 L 256.196 202.349 Z M 270.241 200.907 L 267.167 200.907 L 266.744 202.349 L 263.986 202.349 L 267.268 193.616 L 270.211 193.616 L 273.493 202.349 L 270.67 202.349 Z M 269.675 199.019 L 268.71 195.88 L 267.751 199.019 Z M 274.926 193.616 L 277.625 193.616 L 277.625 196.672 L 280.574 196.672 L 280.574 193.616 L 283.284 193.616 L 283.284 202.349 L 280.574 202.349 L 280.574 198.816 L 277.625 198.816 L 277.625 202.349 L 274.926 202.349 Z" style="fill: rgb(255, 255, 255); text-transform: capitalize; white-space: pre;"/>
  <path d="M 65.954 201.079 L 57.596 201.079 L 57.596 198.726 L 64.805 198.726 C 64.805 197.923 64.711 197.17 64.521 196.467 C 63.511 196.791 62.785 196.954 62.343 196.954 C 61.685 196.954 61.149 196.787 60.734 196.454 C 60.256 196.074 60.017 195.529 60.017 194.817 C 60.017 193.572 60.247 192.476 60.707 191.53 C 61.212 190.484 61.866 189.961 62.668 189.961 C 63.768 189.961 64.616 190.826 65.211 192.558 C 65.707 193.974 65.954 195.642 65.954 197.563 L 65.954 201.079 Z M 63.75 194.046 C 63.624 193.73 63.421 193.401 63.141 193.059 C 62.763 192.607 62.402 192.382 62.059 192.382 C 61.816 192.382 61.615 192.485 61.457 192.693 C 61.3 192.901 61.221 193.14 61.221 193.41 C 61.221 194.131 61.618 194.492 62.411 194.492 C 62.853 194.492 63.3 194.343 63.75 194.046 Z M 65.305 186.675 L 64.25 188.622 L 62.113 187.486 L 61.383 188.866 L 59.192 187.73 L 60.193 185.768 L 62.357 186.878 L 63.074 185.525 L 65.305 186.675 Z M 58.543 200.944 L 57.596 201.079 L 51.861 201.079 L 51.861 198.726 L 57.177 198.726 L 55.229 185.268 L 56.149 183.537 L 56.379 183.537 L 58.543 198.428 L 58.543 200.944 Z M 52.805 200.944 L 51.858 201.079 L 45.096 201.079 L 45.096 198.726 L 51.818 198.726 C 51.818 197.644 51.692 196.832 51.439 196.291 C 51.349 196.093 51.198 195.856 50.986 195.581 C 50.774 195.306 50.502 194.984 50.168 194.614 L 51.182 192.491 L 51.277 192.491 C 51.891 193.266 52.278 193.884 52.44 194.344 C 52.684 195.047 52.805 196.192 52.805 197.779 L 52.805 200.944 Z M 51.534 188.933 L 50.492 190.908 L 48.315 189.745 L 49.316 187.77 L 51.534 188.933 Z M 46.045 200.944 L 45.098 201.079 L 39.985 201.079 C 39.481 201.079 39.021 200.93 38.606 200.633 C 38.192 200.335 37.984 199.984 37.984 199.578 C 37.984 198.91 38.07 198.293 38.241 197.725 L 38.552 197.725 C 38.732 198.392 39.21 198.726 39.985 198.726 L 45.22 198.726 C 45.22 195.218 44.062 193.103 41.744 192.382 L 41.947 189.758 C 43.516 190.534 44.625 191.756 45.274 193.424 C 45.788 194.767 46.045 196.534 46.045 198.726 L 46.045 200.944 Z M 36.696 201.079 L 28.986 201.079 L 28.986 198.726 L 35.708 198.726 C 35.708 197.644 35.582 196.832 35.33 196.291 C 35.24 196.093 35.089 195.856 34.877 195.581 C 34.665 195.306 34.392 194.984 34.058 194.614 L 35.073 192.491 L 35.167 192.491 C 35.781 193.266 36.169 193.884 36.331 194.344 C 36.575 195.047 36.696 196.192 36.696 197.779 L 36.696 201.079 Z M 35.479 204.177 L 34.424 206.124 L 32.287 204.988 L 31.556 206.368 L 29.365 205.232 L 30.366 203.27 L 32.53 204.379 L 33.247 203.027 L 35.479 204.177 Z M 29.931 200.944 L 28.984 201.079 C 28.362 201.079 27.864 200.853 27.489 200.403 C 27.115 199.952 26.838 199.276 26.658 198.374 C 26.442 197.256 26.279 195.579 26.171 193.343 C 26.063 191.034 25.954 189.573 25.846 188.96 C 25.657 187.905 25.256 187.089 24.642 186.512 L 26.238 183.997 L 26.333 183.997 C 26.784 185.457 27.073 187.5 27.199 190.124 L 27.469 196.237 C 27.551 197.066 27.749 197.706 28.064 198.158 C 28.317 198.536 28.588 198.726 28.876 198.726 L 29.931 198.726 L 29.931 200.944 Z" style="fill: rgb(255, 255, 255); white-space: pre;"/>
  <path d="M 24.545 223.233 C 24.838 223.437 25.03 223.564 25.12 223.616 C 25.255 223.692 25.436 223.78 25.663 223.88 L 25.011 225.195 C 24.683 225.036 24.359 224.847 24.038 224.628 C 23.717 224.409 23.493 224.244 23.365 224.134 C 22.848 224.358 22.199 224.47 21.419 224.47 C 20.266 224.47 19.357 224.17 18.691 223.57 C 17.904 222.859 17.511 221.86 17.511 220.573 C 17.511 219.323 17.855 218.353 18.544 217.662 C 19.232 216.97 20.194 216.624 21.429 216.624 C 22.689 216.624 23.661 216.962 24.346 217.638 C 25.031 218.314 25.373 219.282 25.373 220.542 C 25.373 221.663 25.097 222.56 24.545 223.233 Z M 22.749 222.033 C 22.936 221.698 23.029 221.198 23.029 220.532 C 23.029 219.766 22.887 219.219 22.602 218.891 C 22.317 218.563 21.925 218.399 21.424 218.399 C 20.959 218.399 20.581 218.566 20.291 218.901 C 20.001 219.235 19.856 219.758 19.856 220.47 C 19.856 221.298 19.997 221.879 20.28 222.214 C 20.563 222.548 20.952 222.716 21.445 222.716 C 21.604 222.716 21.754 222.7 21.895 222.669 C 21.698 222.479 21.388 222.3 20.964 222.131 L 21.331 221.287 C 21.538 221.325 21.7 221.371 21.815 221.427 C 21.93 221.482 22.155 221.627 22.49 221.862 C 22.569 221.917 22.656 221.974 22.749 222.033 Z M 31.506 223.088 L 28.835 223.088 L 28.468 224.341 L 26.072 224.341 L 28.923 216.753 L 31.48 216.753 L 34.332 224.341 L 31.879 224.341 L 31.506 223.088 Z M 31.014 221.448 L 30.176 218.72 L 29.343 221.448 L 31.014 221.448 Z M 34.713 216.753 L 37.057 216.753 L 37.057 222.473 L 40.717 222.473 L 40.717 224.341 L 34.713 224.341 L 34.713 216.753 Z M 46.084 223.088 L 43.414 223.088 L 43.046 224.341 L 40.65 224.341 L 43.502 216.753 L 46.058 216.753 L 48.91 224.341 L 46.457 224.341 L 46.084 223.088 Z M 45.593 221.448 L 44.754 218.72 L 43.921 221.448 L 45.593 221.448 Z M 49.291 216.753 L 51.48 216.753 L 54.337 220.951 L 54.337 216.753 L 56.547 216.753 L 56.547 224.341 L 54.337 224.341 L 51.496 220.174 L 51.496 224.341 L 49.291 224.341 L 49.291 216.753 Z M 57.759 216.753 L 61.243 216.753 C 61.93 216.753 62.484 216.846 62.907 217.033 C 63.33 217.219 63.679 217.486 63.955 217.835 C 64.231 218.183 64.431 218.589 64.555 219.051 C 64.679 219.513 64.741 220.003 64.741 220.521 C 64.741 221.332 64.649 221.961 64.465 222.408 C 64.28 222.854 64.024 223.229 63.696 223.531 C 63.368 223.833 63.016 224.034 62.64 224.134 C 62.126 224.272 61.66 224.341 61.243 224.341 L 57.759 224.341 L 57.759 216.753 Z M 60.104 218.472 L 60.104 222.617 L 60.678 222.617 C 61.168 222.617 61.517 222.562 61.724 222.454 C 61.931 222.345 62.093 222.155 62.21 221.885 C 62.327 221.614 62.386 221.175 62.386 220.568 C 62.386 219.764 62.255 219.213 61.993 218.917 C 61.731 218.62 61.296 218.472 60.689 218.472 L 60.104 218.472 Z M 66.275 216.753 L 68.624 216.753 L 68.624 224.341 L 66.275 224.341 L 66.275 216.753 Z M 74.6 223.088 L 71.929 223.088 L 71.562 224.341 L 69.165 224.341 L 72.017 216.753 L 74.574 216.753 L 77.426 224.341 L 74.973 224.341 L 74.6 223.088 Z M 74.108 221.448 L 73.27 218.72 L 72.436 221.448 L 74.108 221.448 Z" style="fill: rgb(255, 255, 255); white-space: pre;"/>
  <g transform="matrix(0, -0.002338, -0.002338, 0, 58.790112, 260.576721)" fill="#000000" stroke="none" style="">
    <path d="M6313 11763 c-23 -16 -57 -48 -77 -72 -204 -246 -452 -1018 -505 -1576 -27 -275 -34 -870 -25 -2015 5 -630 7 -1181 4 -1225 l-5 -80 -80 -54 c-44 -30 -152 -104 -240 -165 -156 -107 -282 -179 -337 -192 -24 -5 -28 -2 -34 23 -12 45 -9 108 11 249 18 128 18 133 0 180 -43 115 -137 224 -233 271 -51 25 -67 28 -162 28 -95 0 -110 -3 -164 -29 -109 -53 -221 -195 -248 -315 -8 -36 -13 -126 -12 -251 0 -161 4 -213 22 -297 12 -55 22 -112 22 -126 0 -27 -14 -34 -175 -93 -55 -19 -188 -67 -295 -106 -212 -76 -826 -288 -1560 -538 -1073 -365 -1617 -554 -1785 -619 -140 -54 -192 -128 -180 -260 4 -47 2 -87 -4 -104 -6 -15 -62 -110 -125 -210 -63 -100 -118 -195 -122 -212 l-7 -30 28 25 c15 14 83 89 152 167 144 164 113 149 378 188 656 95 1791 269 1898 290 132 26 159 24 180 -11 5 -9 26 -14 53 -14 29 0 54 -7 68 -18 21 -16 35 -16 170 -7 81 6 151 8 155 5 4 -3 11 -34 16 -70 4 -36 11 -90 14 -120 9 -68 15 -56 41 90 12 63 26 120 31 127 6 6 33 13 62 16 29 2 102 9 162 16 401 42 627 62 633 56 7 -7 21 -91 29 -168 3 -38 9 -65 14 -60 4 4 15 58 24 118 9 61 21 115 28 122 7 6 62 18 124 26 104 14 114 17 140 46 24 27 38 33 108 42 104 15 339 -7 342 -31 1 -8 7 -68 13 -132 7 -65 16 -118 20 -118 10 0 38 93 49 168 12 73 16 82 41 82 14 0 20 -8 22 -33 l3 -32 115 -12 c63 -7 201 -24 305 -38 105 -14 217 -25 250 -25 l60 0 -4 -640 c-8 -1453 55 -2341 191 -2699 21 -57 38 -113 36 -125 -3 -21 -120 -78 -1093 -530 -159 -74 -436 -203 -615 -286 -178 -83 -328 -156 -332 -163 -10 -16 -10 -197 0 -197 4 0 34 5 67 10 222 36 2174 286 2290 292 l50 3 31 -64 c17 -36 39 -68 50 -71 27 -10 64 6 64 27 0 27 100 387 111 397 6 6 13 6 19 0 7 -7 0 -51 -24 -140 -19 -71 -32 -132 -30 -135 5 -9 57 -16 294 -39 113 -11 284 -29 380 -40 519 -58 925 -105 1261 -145 207 -25 392 -45 412 -45 35 0 35 0 41 54 8 63 0 120 -20 137 -7 6 -330 152 -716 324 -387 172 -788 352 -893 399 -104 48 -246 113 -314 143 l-124 56 6 72 c3 39 28 166 55 281 89 368 132 748 162 1414 26 597 21 1642 -8 1697 -9 16 -8 24 3 33 11 9 16 7 25 -10 6 -11 15 -18 19 -16 4 3 140 23 302 45 437 61 393 51 399 86 3 18 12 31 23 33 22 4 38 -33 67 -160 12 -54 25 -98 29 -98 10 0 31 147 31 212 0 27 6 53 14 61 24 23 197 35 379 26 l67 -4 -2 -35 -3 -35 90 -7 c115 -9 150 -15 164 -31 6 -7 20 -60 32 -118 12 -57 25 -108 29 -112 4 -4 12 39 20 95 17 137 20 142 79 134 25 -4 210 -22 410 -41 200 -19 365 -36 366 -37 2 -2 17 -61 35 -133 18 -71 35 -134 38 -140 9 -15 20 48 28 158 4 54 10 100 15 102 4 3 74 -2 155 -10 l147 -16 23 22 c20 18 31 21 70 15 44 -6 46 -5 57 24 7 20 17 28 26 25 50 -19 447 -76 1801 -255 l465 -61 138 -142 c76 -78 146 -154 155 -169 19 -32 32 -36 32 -9 0 22 -68 147 -108 199 -111 143 -148 223 -163 351 -13 115 -43 179 -104 221 -64 44 -155 76 -570 197 -198 57 -452 134 -565 169 -446 141 -2703 898 -2721 913 -20 16 -20 16 1 131 27 145 37 359 21 471 -16 110 -49 245 -71 289 -60 118 -218 189 -361 162 -183 -34 -334 -176 -369 -346 -8 -41 -10 -111 -5 -237 7 -160 6 -179 -9 -185 -10 -4 -29 4 -49 19 -18 14 -62 38 -98 54 -79 36 -271 152 -395 239 -203 141 -229 210 -200 537 13 149 16 354 16 1270 0 1104 -8 1490 -35 1672 -26 170 -157 651 -264 965 -148 437 -266 640 -372 640 -14 0 -44 -12 -66 -27z" style="fill: rgb(255, 255, 255);"/>
  </g>
</svg>