<?xml version="1.0" encoding="utf-8"?>
<svg viewBox="0 0 300 300" width="300px" height="300px" xmlns="http://www.w3.org/2000/svg">
  <rect id="blauw_vlak" width="300" height="300" style="fill: rgb(14, 81, 141);" x="0.512"/>
  <path id="witte_bies" style="fill: none; stroke: rgb(247, 251, 245); stroke-width: 6.76128;" d="M 276.33022,292.06475 C 285.02492,292.06475 292.09652,285.02651 292.09652,276.30011 L 292.09652,23.66726 C 292.09652,14.97345 285.02492,7.894449 276.33022,7.894449 L 23.66982,7.894449 C 14.94249,7.894449 7.86274,14.97345 7.86274,23.66726 L 7.86274,276.30011 C 7.86274,285.02651 14.94249,292.06475 23.66982,292.06475 L 276.33022,292.06475 z"/>
  <path id="path7894" style="opacity: 1; fill: rgb(255, 255, 255); fill-opacity: 1; fill-rule: nonzero; stroke: none; stroke-width: 8; stroke-miterlimit: 4; stroke-dasharray: none; stroke-opacity: 1;" d="M 171.768 170.718 C 147.766 166.237 130.267 144.149 130.267 118.332 L 180.488 118.332 L 171.768 170.718 Z" transform="matrix(-0.715008, 0.699116, -0.699116, -0.715008, 367.513428, 139.234589)"/>
  <circle r="66.035" cy="-187.15" cx="216.266" id="circle7916" style="opacity: 1; fill-opacity: 1; fill-rule: nonzero; stroke: none; stroke-width: 1.6; stroke-linecap: square; stroke-linejoin: miter; stroke-miterlimit: 4; stroke-dasharray: none; stroke-opacity: 0.653266; paint-order: fill markers; fill: rgb(14, 81, 141);" transform="matrix(0.088508, 0.347554, 0.411307, -0.104744, 210.694122, 72.503784)"/>
  <path id="path7949" d="M 197.493 136.827 L 186.575 164.948 C 185.852 166.765 183.286 166.781 182.541 164.971 L 176.845 150.969 L 165.847 140.597 C 164.426 139.25 165.368 136.862 167.324 136.844 L 197.493 136.827 Z" style="color: rgb(0, 0, 0); font: medium sans-serif; font-feature-settings: normal; text-indent: 0px; text-align: start; text-decoration: none solid rgb(0, 0, 0); letter-spacing: normal; word-spacing: normal; text-transform: none; writing-mode: lr-tb; direction: ltr; text-orientation: mixed; dominant-baseline: auto; baseline-shift: baseline; text-anchor: start; white-space: normal; clip-rule: nonzero; display: inline; overflow: visible; opacity: 1; isolation: auto; mix-blend-mode: normal; color-interpolation: srgb; color-interpolation-filters: linearrgb; vector-effect: none; fill: rgb(255, 255, 255); fill-opacity: 1; fill-rule: nonzero; stroke: none; stroke-width: 1.6; stroke-linecap: butt; stroke-linejoin: round; stroke-miterlimit: 4; stroke-dasharray: none; stroke-dashoffset: 0; stroke-opacity: 1; color-rendering: auto; image-rendering: auto; shape-rendering: auto; text-rendering: auto;" transform="matrix(0.247948, 0.968773, -0.968773, 0.247948, 283.208527, -61.675049)"/>
  <path style="clip-rule: evenodd; fill-opacity: 1; fill-rule: nonzero; stroke: none; stroke-width: 1.95062; fill: rgb(255, 255, 255);" d="M 79.398 261.078 L 71.173 261.078 L 71.173 216.903 L 60.108 216.903 L 60.108 261.078 L 51.881 261.078 L 65.639 275.561" id="polyline852" transform="matrix(0, 1, -1, 0, 311.87149, 180.592499)"/>
  <path id="path866" d="M 103.225 96.757 L 116.651 96.757 L 116.651 182.979 L 134.711 182.979 L 134.711 96.757 L 148.138 96.757 L 125.681 68.487" style="clip-rule: evenodd; fill: rgb(255, 255, 255); fill-opacity: 1; fill-rule: nonzero; stroke: none; stroke-width: 1.95062;"/>
  <path d="M 217.936 281.188 Q 217.675 281.242 217.514 281.242 Q 217.282 281.242 217.116 281.166 Q 216.95 281.09 216.868 280.933 Q 216.786 280.775 216.786 280.37 L 216.786 278.092 L 216.313 278.092 L 216.313 277.79 L 216.786 277.79 L 216.786 276.92 L 217.189 276.664 L 217.189 277.79 L 217.829 277.79 L 217.829 278.092 L 217.189 278.092 L 217.189 280.319 Q 217.189 280.556 217.22 280.674 Q 217.25 280.792 217.338 280.85 Q 217.426 280.907 217.57 280.907 Q 217.68 280.907 217.885 280.866 Z M 221.316 279.54 L 218.701 279.54 Q 218.711 280.199 219.013 280.569 Q 219.314 280.939 219.846 280.939 Q 220.588 280.939 220.884 280.114 L 221.275 280.18 Q 221.074 280.761 220.714 281.012 Q 220.354 281.264 219.822 281.264 Q 219.102 281.264 218.694 280.788 Q 218.286 280.312 218.286 279.489 Q 218.286 278.666 218.696 278.19 Q 219.107 277.714 219.829 277.714 Q 221.304 277.714 221.316 279.54 Z M 220.884 279.21 Q 220.791 278.034 219.819 278.034 Q 219.378 278.034 219.076 278.339 Q 218.775 278.644 218.713 279.21 Z M 224.944 279.496 Q 224.944 280.336 224.548 280.8 Q 224.151 281.264 223.426 281.264 Q 223.077 281.264 222.801 281.142 Q 222.525 281.02 222.321 280.778 Q 222.117 280.536 222.015 280.219 Q 221.912 279.901 221.912 279.511 Q 221.912 279.105 222.001 278.787 Q 222.09 278.468 222.27 278.235 Q 222.449 278.002 222.723 277.858 Q 222.996 277.714 223.428 277.714 Q 224.122 277.714 224.533 278.164 Q 224.944 278.615 224.944 279.496 Z M 224.532 279.496 Q 224.532 279.04 224.398 278.711 Q 224.263 278.383 224.024 278.213 Q 223.785 278.043 223.441 278.043 Q 222.911 278.043 222.621 278.433 Q 222.332 278.822 222.332 279.479 Q 222.332 280.128 222.626 280.535 Q 222.921 280.941 223.445 280.941 Q 223.69 280.941 223.882 280.852 Q 224.075 280.763 224.223 280.578 Q 224.371 280.392 224.451 280.117 Q 224.532 279.843 224.532 279.496 Z M 227.548 277.919 L 227.395 278.263 Q 227.087 278.134 226.938 278.134 Q 226.818 278.134 226.72 278.172 Q 226.621 278.209 226.533 278.292 Q 226.445 278.375 226.381 278.485 Q 226.318 278.595 226.286 278.728 Q 226.255 278.861 226.228 279.121 Q 226.201 279.381 226.201 279.591 L 226.201 281.188 L 225.803 281.188 L 225.803 277.79 L 226.154 277.79 L 226.154 278.478 Q 226.406 277.714 226.948 277.714 Q 227.226 277.714 227.548 277.919 Z M 228.37 277.096 L 227.97 277.096 L 227.97 276.498 L 228.37 276.498 Z M 228.37 281.188 L 227.97 281.188 L 227.97 277.79 L 228.37 277.79 Z M 232.226 281.188 L 231.791 281.188 Q 231.696 280.949 231.667 280.67 Q 231.115 281.264 230.277 281.264 Q 229.972 281.264 229.732 281.157 Q 229.491 281.051 229.347 280.839 Q 229.203 280.626 229.203 280.321 Q 229.203 280.106 229.27 279.937 Q 229.338 279.767 229.474 279.639 Q 229.611 279.511 229.843 279.419 Q 230.075 279.328 230.678 279.245 Q 231.349 279.152 231.628 279.047 Q 231.628 278.756 231.612 278.6 Q 231.596 278.444 231.503 278.307 Q 231.41 278.17 231.217 278.097 Q 231.025 278.024 230.741 278.024 Q 229.86 278.024 229.682 278.778 L 229.276 278.717 Q 229.464 277.714 230.739 277.714 Q 231.139 277.714 231.411 277.805 Q 231.684 277.897 231.817 278.064 Q 231.95 278.231 231.99 278.478 Q 232.03 278.725 232.03 279.157 L 232.018 280.114 Q 232.013 280.497 232.054 280.702 Q 232.094 280.907 232.226 281.188 Z M 231.628 279.582 L 231.628 279.362 Q 231.288 279.491 230.553 279.618 Q 230.165 279.687 229.986 279.759 Q 229.806 279.831 229.715 279.967 Q 229.623 280.104 229.623 280.29 Q 229.623 280.568 229.829 280.738 Q 230.036 280.907 230.36 280.907 Q 230.551 280.907 230.736 280.857 Q 230.922 280.807 231.1 280.708 Q 231.278 280.609 231.398 280.469 Q 231.518 280.329 231.573 280.109 Q 231.628 279.889 231.628 279.582 Z M 233.76 281.188 L 233.204 281.188 L 233.204 280.568 L 233.76 280.568 Z M 235.299 280.673 L 235.299 282.487 L 234.901 282.487 L 234.901 277.79 L 235.299 277.79 L 235.299 278.344 Q 235.824 277.714 236.576 277.714 Q 236.913 277.714 237.181 277.823 Q 237.448 277.931 237.65 278.157 Q 237.853 278.383 237.969 278.716 Q 238.085 279.049 238.085 279.459 Q 238.085 280.275 237.677 280.769 Q 237.27 281.264 236.542 281.264 Q 235.795 281.264 235.299 280.673 Z M 237.672 279.496 Q 237.672 279.054 237.526 278.725 Q 237.38 278.395 237.13 278.223 Q 236.881 278.051 236.532 278.051 Q 236.244 278.051 236.02 278.146 Q 235.795 278.241 235.63 278.437 Q 235.465 278.632 235.38 278.91 Q 235.295 279.188 235.295 279.542 Q 235.295 280.189 235.619 280.562 Q 235.944 280.934 236.508 280.934 Q 236.776 280.934 236.989 280.832 Q 237.201 280.729 237.358 280.524 Q 237.514 280.319 237.593 280.061 Q 237.672 279.804 237.672 279.496 Z M 243.311 281.188 L 242.913 281.188 L 242.913 279.083 Q 242.913 278.617 242.837 278.43 Q 242.761 278.244 242.6 278.15 Q 242.439 278.056 242.217 278.056 Q 241.904 278.056 241.693 278.23 Q 241.482 278.405 241.395 278.709 Q 241.309 279.013 241.309 279.516 L 241.309 281.188 L 240.911 281.188 L 240.911 279.042 Q 240.911 278.688 240.851 278.488 Q 240.791 278.288 240.634 278.178 Q 240.476 278.068 240.234 278.068 Q 239.807 278.068 239.551 278.421 Q 239.295 278.773 239.295 279.376 L 239.295 281.188 L 238.897 281.188 L 238.897 277.79 L 239.295 277.79 L 239.295 278.28 Q 239.719 277.714 240.335 277.714 Q 240.984 277.714 241.238 278.28 Q 241.692 277.714 242.302 277.714 Q 243.311 277.714 243.311 278.876 Z M 244.761 277.096 L 244.36 277.096 L 244.36 276.498 L 244.761 276.498 Z M 244.761 281.188 L 244.36 281.188 L 244.36 277.79 L 244.761 277.79 Z M 248.514 281.188 L 248.021 281.188 L 246.937 279.711 L 245.85 281.188 L 245.35 281.188 L 246.705 279.416 L 245.447 277.79 L 245.945 277.79 L 246.937 279.093 L 247.923 277.79 L 248.419 277.79 L 247.161 279.376 Z M 249.76 281.188 L 249.204 281.188 L 249.204 280.568 L 249.76 280.568 Z M 253.542 281.188 L 253.139 281.188 L 253.139 279.079 Q 253.139 278.529 252.926 278.296 Q 252.714 278.063 252.35 278.063 Q 252.155 278.063 251.985 278.129 Q 251.816 278.195 251.671 278.325 Q 251.527 278.456 251.443 278.627 Q 251.359 278.798 251.326 279 Q 251.293 279.203 251.293 279.716 L 251.293 281.188 L 250.893 281.188 L 250.893 277.79 L 251.293 277.79 L 251.293 278.292 Q 251.75 277.714 252.387 277.714 Q 253.542 277.714 253.542 278.971 Z M 257.363 279.54 L 254.748 279.54 Q 254.758 280.199 255.059 280.569 Q 255.361 280.939 255.893 280.939 Q 256.635 280.939 256.931 280.114 L 257.321 280.18 Q 257.121 280.761 256.761 281.012 Q 256.401 281.264 255.869 281.264 Q 255.149 281.264 254.741 280.788 Q 254.333 280.312 254.333 279.489 Q 254.333 278.666 254.743 278.19 Q 255.153 277.714 255.876 277.714 Q 257.351 277.714 257.363 279.54 Z M 256.931 279.21 Q 256.838 278.034 255.866 278.034 Q 255.424 278.034 255.123 278.339 Q 254.821 278.644 254.76 279.21 Z M 259.452 281.188 Q 259.191 281.242 259.029 281.242 Q 258.797 281.242 258.631 281.166 Q 258.465 281.09 258.384 280.933 Q 258.302 280.775 258.302 280.37 L 258.302 278.092 L 257.828 278.092 L 257.828 277.79 L 258.302 277.79 L 258.302 276.92 L 258.705 276.664 L 258.705 277.79 L 259.344 277.79 L 259.344 278.092 L 258.705 278.092 L 258.705 280.319 Q 258.705 280.556 258.735 280.674 Q 258.766 280.792 258.854 280.85 Q 258.942 280.907 259.086 280.907 Q 259.195 280.907 259.401 280.866 Z" style="fill: rgb(51, 51, 51); white-space: pre; mix-blend-mode: screen; opacity: 0.2;"/>
  <path d="M 148.758 31.738 Q 142.277 34.125 135.631 34.125 L 131.059 34.125 L 131.059 30.93 L 135.631 30.93 Q 135.043 29.957 134.74 29.094 Q 134.437 28.231 134.437 27.148 Q 134.437 26.707 134.529 26.212 Q 134.621 25.716 134.832 25.239 Q 135.043 24.761 135.365 24.312 Q 135.686 23.862 136.126 23.495 Q 137.099 22.723 138.118 22.237 Q 139.137 21.75 140.459 21.75 Q 141.708 21.75 142.69 22.09 Q 143.672 22.43 144.425 22.999 Q 144.719 23.219 145.26 23.715 Q 145.802 24.211 146.573 25.11 L 146.224 25.422 Q 143.709 24.725 141.855 24.725 Q 139.321 24.725 137.852 25.294 Q 137.155 25.588 136.65 25.973 Q 136.145 26.359 136.145 26.763 Q 136.145 27.185 136.457 27.699 Q 136.769 28.213 137.311 28.745 Q 137.852 29.278 138.568 29.783 Q 139.284 30.288 140.11 30.691 Q 141.34 30.508 142.543 30.278 Q 143.746 30.049 144.957 29.764 Q 146.169 29.48 147.417 29.14 Q 148.666 28.8 150.024 28.397 Z M 142.332 17.014 L 140.918 19.694 L 137.962 18.115 L 139.321 15.435 Z M 132.096 33.941 L 131.068 34.125 L 128.387 34.125 L 128.387 30.93 L 132.096 30.93 Z M 129.408 33.941 L 128.38 34.125 L 125.7 34.125 L 125.7 30.93 L 129.408 30.93 Z M 114.315 28.048 Q 114.315 28.543 114.251 29.131 Q 114.187 29.718 114.077 30.297 Q 113.967 30.875 113.801 31.389 Q 113.636 31.903 113.453 32.27 Q 112.847 33.427 111.635 33.969 Q 110.423 34.51 108.698 34.51 Q 107.376 34.51 106.476 33.923 Q 105.466 33.207 105.466 31.995 Q 105.466 30.6 106.127 28.69 Q 106.421 27.882 106.761 27.121 Q 107.1 26.359 107.467 25.569 L 106.88 25.349 L 108.092 22.081 L 108.257 22.081 Q 108.808 22.375 109.358 22.696 Q 109.909 23.017 110.414 23.329 Q 110.919 23.641 111.341 23.935 Q 111.764 24.229 112.057 24.486 Q 113.159 25.422 113.737 26.285 Q 114.315 27.148 114.315 28.048 Z M 108.844 26.395 Q 108.183 27.277 107.761 28.094 Q 107.339 28.911 107.339 29.461 Q 107.339 30.563 107.816 30.958 Q 108.294 31.352 109.267 31.352 Q 109.781 31.352 110.322 31.261 Q 110.864 31.169 111.369 30.976 Q 111.874 30.783 112.296 30.462 Q 112.718 30.141 112.994 29.7 Q 112.81 29.186 111.8 28.305 Q 110.79 27.423 108.844 26.395 Z M 114.058 17.399 L 112.626 20.043 L 109.726 18.501 L 108.734 20.373 L 105.76 18.831 L 107.119 16.169 L 110.056 17.675 L 111.029 15.839 Z" style="fill: rgb(255, 255, 255); white-space: pre;"/>
  <path d="M 99.322 59.15 L 99.322 55.397 L 107.936 55.397 L 107.936 63.088 Q 105.462 64.773 103.561 65.383 Q 101.66 65.992 99.052 65.992 Q 95.84 65.992 93.816 64.896 Q 91.792 63.801 90.678 61.636 Q 89.565 59.47 89.565 56.665 Q 89.565 53.712 90.783 51.527 Q 92.001 49.343 94.351 48.211 Q 96.185 47.338 99.285 47.338 Q 102.275 47.338 103.758 47.879 Q 105.241 48.421 106.219 49.559 Q 107.197 50.697 107.689 52.444 L 102.312 53.404 Q 101.98 52.383 101.186 51.841 Q 100.393 51.3 99.162 51.3 Q 97.329 51.3 96.24 52.573 Q 95.151 53.847 95.151 56.603 Q 95.151 59.532 96.252 60.787 Q 97.354 62.042 99.322 62.042 Q 100.257 62.042 101.106 61.771 Q 101.955 61.5 103.051 60.848 L 103.051 59.15 Z M 124.946 62.706 L 118.597 62.706 L 117.723 65.684 L 112.026 65.684 L 118.806 47.645 L 124.885 47.645 L 131.665 65.684 L 125.832 65.684 Z M 123.777 58.806 L 121.784 52.321 L 119.803 58.806 Z M 134.205 47.645 L 149.979 47.645 L 149.979 51.251 L 139.865 61.808 L 150.348 61.808 L 150.348 65.684 L 133.233 65.684 L 133.233 61.943 L 143.236 51.497 L 134.205 51.497 Z M 165.149 62.706 L 158.8 62.706 L 157.927 65.684 L 152.229 65.684 L 159.009 47.645 L 165.088 47.645 L 171.868 65.684 L 166.035 65.684 Z M 163.98 58.806 L 161.987 52.321 L 160.006 58.806 Z" style="fill: rgb(255, 255, 255); text-transform: uppercase; white-space: pre;"/>
  <path d="M 257.621 171.798 Q 257.621 174.006 255.831 177.168 L 255.488 176.977 Q 255.564 176.215 255.602 175.654 Q 255.64 175.092 255.64 174.73 Q 255.64 172.178 255.183 167.513 Q 254.726 162.847 253.831 156.087 Q 254.155 155.344 254.583 154.487 Q 255.012 153.631 255.507 152.659 L 255.64 152.659 Q 256.631 159.553 257.126 164.314 Q 257.621 169.074 257.621 171.798 Z M 251.333 176.653 L 241.926 176.653 L 241.926 173.34 L 249.409 173.34 L 247.143 157.192 L 246.153 156.715 Q 246.153 155.421 246.391 154.268 Q 246.629 153.116 247.181 152.012 L 247.505 152.126 Q 247.524 152.678 247.743 153.069 Q 247.962 153.459 248.61 153.726 L 250.819 154.659 Q 250.819 155.668 250.581 156.639 Q 250.342 157.61 250.114 158.296 L 249.086 157.991 L 251.333 172.921 Z M 238.68 156.373 L 239.594 154.468 L 242.412 156.087 L 241.079 158.829 L 238.375 157.23 L 237.442 159.172 L 234.681 157.572 L 235.938 154.811 Z M 231.691 173.34 Q 232.015 173.34 232.52 173.311 Q 233.024 173.283 233.653 173.197 Q 234.281 173.111 234.986 172.959 Q 235.69 172.807 236.414 172.559 Q 236.033 172.045 235.757 171.464 Q 235.481 170.883 235.481 170.331 Q 235.481 169.017 235.919 167.713 Q 236.357 166.408 237.09 165.351 Q 237.823 164.295 238.785 163.638 Q 239.746 162.981 240.794 162.981 Q 241.441 162.981 241.955 163.409 Q 242.469 163.838 242.831 164.59 Q 243.193 165.342 243.393 166.38 Q 243.593 167.418 243.593 168.617 Q 243.593 169.817 243.003 170.826 Q 242.412 171.836 241.479 172.693 Q 241.955 172.978 242.412 173.159 Q 242.869 173.34 243.269 173.34 L 243.269 176.463 L 241.917 176.653 Q 241.536 176.653 241.108 176.492 Q 240.679 176.33 240.232 176.063 Q 239.784 175.797 239.327 175.454 Q 238.87 175.111 238.47 174.768 Q 236.509 175.835 234.776 176.244 Q 233.043 176.653 231.691 176.653 Z M 241.841 168.96 Q 241.803 168.789 241.641 168.389 Q 241.479 167.989 241.222 167.57 Q 240.965 167.151 240.651 166.827 Q 240.337 166.504 239.994 166.504 Q 239.632 166.504 239.204 166.675 Q 238.775 166.846 238.375 167.103 Q 237.975 167.36 237.68 167.646 Q 237.385 167.932 237.29 168.179 Q 237.499 168.96 238.013 169.627 Q 238.528 170.293 238.947 170.674 L 239.365 171.074 Q 240.394 170.426 241.032 169.855 Q 241.67 169.284 241.841 168.96 Z M 233.011 176.463 L 231.678 176.653 L 224.48 176.653 Q 223.413 176.653 222.537 176.025 Q 221.661 175.397 221.661 174.54 Q 221.661 173.131 222.023 171.931 L 222.461 171.931 Q 222.842 173.34 224.48 173.34 L 231.849 173.34 Q 231.849 165.932 226.955 164.409 L 227.241 160.714 Q 230.554 162.352 231.926 165.875 Q 233.011 168.713 233.011 173.34 Z M 219.851 176.653 L 218.518 176.653 Q 218.118 176.653 217.499 176.511 Q 216.881 176.368 216.224 176.139 Q 215.567 175.911 214.957 175.616 Q 214.348 175.32 213.967 174.997 Q 213.243 175.911 212.206 176.282 Q 211.168 176.653 209.854 176.653 L 208.197 176.653 Q 208.197 179.643 206.083 181.89 Q 203.113 185.051 197.038 185.051 Q 189.002 185.051 189.002 179.224 Q 189.002 178.158 189.183 177.053 Q 189.363 175.949 189.735 174.749 Q 190.106 173.549 190.649 172.226 Q 191.192 170.902 191.934 169.379 L 192.696 169.722 Q 190.506 174.216 190.506 176.939 Q 190.506 181.757 197 181.757 Q 200.694 181.757 203.531 180.481 Q 207.112 178.881 207.112 176.063 Q 207.112 172.635 204.845 169.855 L 206.369 166.066 L 206.483 166.066 Q 206.921 166.827 207.235 167.484 Q 207.55 168.141 207.721 168.713 Q 208.197 170.369 208.197 173.34 L 209.701 173.34 Q 211.111 173.34 211.939 172.959 Q 212.767 172.578 213.281 171.778 Q 213.529 171.398 213.672 171.017 Q 213.815 170.636 213.891 170.274 Q 213.967 169.912 214.005 169.589 Q 214.043 169.265 214.081 169.017 Q 214.119 168.846 214.157 168.693 Q 214.196 168.541 214.31 168.446 L 214.976 167.837 L 215.072 167.837 Q 215.11 168.103 215.138 168.617 Q 215.167 169.131 215.148 169.55 Q 215.129 170.122 215.091 170.731 Q 215.052 171.34 214.9 172.045 Q 215.262 172.312 215.719 172.578 Q 216.176 172.845 216.681 173.054 Q 217.185 173.264 217.738 173.407 Q 218.29 173.549 218.861 173.549 Q 218.861 172.635 218.633 171.788 Q 218.404 170.941 218.042 170.274 Q 217.718 169.665 217.452 169.331 Q 217.185 168.998 217.185 168.789 Q 217.185 168.636 217.261 168.465 Q 217.338 168.294 217.433 168.122 L 218.29 166.675 L 218.385 166.675 Q 218.823 167.38 219.08 167.856 Q 219.337 168.332 219.432 168.598 Q 219.851 169.779 219.851 172.083 Z" style="fill: rgb(255, 255, 255); white-space: pre;"/>
  <path d="M 152.65 192.93 L 156.375 192.93 L 156.375 199.468 Q 156.375 201.527 156.01 202.602 Q 155.645 203.676 154.541 204.423 Q 153.438 205.169 151.715 205.169 Q 149.894 205.169 148.893 204.677 Q 147.893 204.185 147.347 203.237 Q 146.802 202.29 146.703 200.895 L 150.255 200.411 Q 150.263 201.207 150.395 201.593 Q 150.526 201.978 150.837 202.216 Q 151.051 202.372 151.445 202.372 Q 152.068 202.372 152.359 201.909 Q 152.65 201.445 152.65 200.346 Z M 159.232 192.93 L 169.191 192.93 L 169.191 195.498 L 162.956 195.498 L 162.956 197.409 L 168.739 197.409 L 168.739 199.862 L 162.956 199.862 L 162.956 202.233 L 169.371 202.233 L 169.371 204.956 L 159.232 204.956 Z M 173.68 204.956 L 173.68 192.93 L 179.873 192.93 Q 181.596 192.93 182.507 193.226 Q 183.417 193.521 183.975 194.321 Q 184.533 195.12 184.533 196.269 Q 184.533 197.27 184.106 197.996 Q 183.68 198.722 182.933 199.173 Q 182.457 199.46 181.629 199.649 Q 182.293 199.87 182.597 200.092 Q 182.802 200.239 183.192 200.723 Q 183.581 201.207 183.712 201.47 L 185.509 204.956 L 181.309 204.956 L 179.324 201.281 Q 178.946 200.567 178.651 200.354 Q 178.249 200.075 177.741 200.075 L 177.412 200.075 L 177.412 204.956 Z M 177.412 197.803 L 178.979 197.803 Q 179.234 197.803 179.964 197.639 Q 180.333 197.565 180.567 197.261 Q 180.8 196.958 180.8 196.564 Q 180.8 195.982 180.431 195.67 Q 180.062 195.358 179.045 195.358 L 177.412 195.358 Z M 196.785 192.93 L 200.493 192.93 L 200.493 200.1 Q 200.493 201.166 200.16 202.114 Q 199.828 203.061 199.119 203.771 Q 198.409 204.48 197.63 204.767 Q 196.547 205.169 195.029 205.169 Q 194.152 205.169 193.114 205.046 Q 192.076 204.923 191.379 204.558 Q 190.682 204.193 190.103 203.52 Q 189.525 202.848 189.312 202.134 Q 188.967 200.986 188.967 200.1 L 188.967 192.93 L 192.675 192.93 L 192.675 200.272 Q 192.675 201.256 193.22 201.81 Q 193.766 202.364 194.734 202.364 Q 195.694 202.364 196.239 201.818 Q 196.785 201.273 196.785 200.272 Z M 203.639 200.977 L 207.175 200.756 Q 207.289 201.617 207.642 202.068 Q 208.216 202.799 209.283 202.799 Q 210.079 202.799 210.509 202.425 Q 210.94 202.052 210.94 201.56 Q 210.94 201.092 210.53 200.723 Q 210.12 200.354 208.627 200.026 Q 206.182 199.476 205.14 198.566 Q 204.09 197.655 204.09 196.244 Q 204.09 195.317 204.628 194.493 Q 205.165 193.668 206.244 193.197 Q 207.322 192.725 209.201 192.725 Q 211.506 192.725 212.716 193.582 Q 213.926 194.44 214.155 196.31 L 210.653 196.515 Q 210.513 195.703 210.066 195.334 Q 209.619 194.965 208.832 194.965 Q 208.184 194.965 207.855 195.239 Q 207.527 195.514 207.527 195.908 Q 207.527 196.195 207.798 196.425 Q 208.061 196.663 209.045 196.868 Q 211.481 197.393 212.535 197.93 Q 213.589 198.467 214.069 199.263 Q 214.549 200.059 214.549 201.043 Q 214.549 202.2 213.909 203.176 Q 213.27 204.152 212.121 204.657 Q 210.973 205.161 209.225 205.161 Q 206.157 205.161 204.976 203.98 Q 203.795 202.799 203.639 200.977 Z M 226.077 202.971 L 221.844 202.971 L 221.262 204.956 L 217.464 204.956 L 221.984 192.93 L 226.036 192.93 L 230.556 204.956 L 226.668 204.956 Z M 225.298 200.37 L 223.969 196.047 L 222.648 200.37 Z M 233.084 192.93 L 236.8 192.93 L 236.8 201.995 L 242.6 201.995 L 242.6 204.956 L 233.084 204.956 Z M 245.607 192.93 L 255.566 192.93 L 255.566 195.498 L 249.331 195.498 L 249.331 197.409 L 255.114 197.409 L 255.114 199.862 L 249.331 199.862 L 249.331 202.233 L 255.746 202.233 L 255.746 204.956 L 245.607 204.956 Z M 259.98 192.93 L 264.87 192.93 L 266.756 200.247 L 268.635 192.93 L 273.507 192.93 L 273.507 204.956 L 270.472 204.956 L 270.472 195.785 L 268.118 204.956 L 265.37 204.956 L 263.024 195.785 L 263.024 204.956 L 259.98 204.956 Z" style="fill: rgb(255, 255, 255); text-transform: uppercase; white-space: pre;"/>
  <rect x="50.81" y="234.523" width="46.03" height="25.817" style="fill: rgb(14, 81, 141);"/>
  <rect x="116.585" y="93.773" width="18.238" height="186.877" style="fill: rgb(255, 255, 255);"/>
  <path style="fill: none; stroke: rgb(255, 255, 255);" d="M 195.93 216.464 C 181.695 240.421 128.494 241.068 50.715 240.434"/>
  <path style="stroke: rgb(255, 255, 255); fill: none;" d="M 209.906 219.778 C 195.439 255.17 116.846 253.334 50.863 252.267"/>
  <path d="M 126.36 35.563 Q 126.36 38.253 123.206 41.009 Q 120.301 43.516 118.242 43.516 Q 116.648 43.516 114.54 42.818 Q 112.764 42.171 110.971 41.507 L 111.253 40.843 Q 114.723 41.507 115.685 41.507 Q 118.89 41.507 122.094 38.701 Q 125.165 35.995 125.165 33.571 Q 125.165 31.181 122.675 28.425 L 123.621 25.818 Q 126.36 28.342 126.36 31.529 Z M 123.87 20.107 L 122.592 22.531 L 119.919 21.103 L 121.147 18.68 Z" style="fill: rgb(255, 255, 255); white-space: pre;"/>
</svg>