<?xml version="1.0" encoding="utf-8"?>
<svg viewBox="1.013 1.021 477.974 711.266" width="477.974px" height="711.266px" xmlns="http://www.w3.org/2000/svg">
  <g id="layer1" transform="matrix(1, 0, 0, 1, 0, -339.062195)" style="">
    <g id="g3048" transform="matrix(1.0174609,0,0,1.0174609,-30.353904,470.92496)" style="">
      <path id="path3669" style="fill-opacity: 1; fill-rule: evenodd; stroke-width: 1.99082; stroke-linecap: butt; stroke-linejoin: miter; stroke-miterlimit: 4; stroke-opacity: 1; stroke-dasharray: none; fill: rgb(14, 81, 141);" d="m 56.92021,-128.59638 420.01304,0 c 10.81602,0.78342 23.07234,11.735 23.66692,24.63643 l 0,649.78711 c 0,11.61435 -9.93977,24.63644 -25.16484,24.63644 l -419.413865,0 c -13.939126,0 -24.86525,-11.9913 -24.86525,-24.93327 L 30.8284,-103.89487 c 0,-14.05686 11.732534,-24.70151 26.09181,-24.70151 z"/>
      <path id="path2774" style="fill-opacity: 1; fill-rule: evenodd; stroke-width: 13; stroke-linecap: butt; stroke-linejoin: miter; stroke-miterlimit: 4; stroke-opacity: 1; stroke-dasharray: none; fill: rgb(14, 81, 141);" d="m 419.7112,-116.20334 -309.35547,0 -49.624534,0.0309 c -11.775334,-0.50833 -18.496293,7.42305 -18.05382,20.114426 l 0,634.622474 c 0.04661,8.55634 3.732838,18.82657 15.707135,19.03464 l 414.956239,0.52447 c 11.97429,-0.20811 15.69182,-10.4783 15.73842,-19.03466 l 0,-635.208624 c 0.44246,-12.691376 -6.27848,-20.622766 -18.05382,-20.114426 l -51.31415,0.0309 z"/>
      <path d="M 271.562 514.782 L 438.748 514.782 L 438.748 482.787 L 271.562 482.787 L 271.562 514.782" style="fill: rgb(255, 255, 255);"/>
      <path d="M 289.851 417.548 L 318.834 340.457 L 355.094 353.79 C 362.177 356.42 363.797 351.281 363.797 351.281 L 372.57 327.935 C 372.57 327.935 374.747 323.083 367.663 320.48 L 331.405 307.121 L 332.249 304.876 L 319.971 282.486 L 262.101 261.193 L 244.335 272.495 L 177.688 273.88 C 151.704 322.058 136.33 361.463 136.597 361.535 C 136.33 361.463 121.972 401.132 109.689 454.421 L 159.269 498.484 L 165.313 518.556 L 223.088 539.826 L 247.188 530.768 L 248.034 528.546 L 284.389 541.882 C 291.47 544.509 293.068 539.37 293.068 539.37 L 301.745 516.118 C 301.745 516.118 304.018 511.172 296.838 508.569 L 260.579 495.211 L 289.561 418.121 L 289.851 417.548" style="fill: rgb(255, 255, 255);" transform="matrix(0.478244, 0.878227, -0.878227, 0.478244, 478.862471, -2.205309)"/>
      <path d="M 242.521 341.422 C 242.231 341.328 269.232 275.612 284.051 244.067 L 284.051 243.781 L 233.068 244.81 C 207.203 292.985 194.925 323.86 195.214 323.955 C 194.925 323.86 183.779 355.235 171.502 408.452 L 209.378 442.146 L 209.547 441.957 C 219.29 408.524 242.231 341.328 242.521 341.422" style="fill: rgb(14, 81, 141);" transform="matrix(0.478244, 0.878227, -0.878227, 0.478244, 420.043569, -21.096204)"/>
      <path d="M 343.853 411.016 L 360.095 367.882 C 361.788 363.22 357.078 361.165 357.078 361.165 L 334.595 352.852 C 334.595 352.852 329.59 351.369 327.899 356.029 L 314.483 391.779 C 312.693 396.341 315.354 399.257 316.562 400.358 C 318.449 402.15 337.158 414.264 337.158 414.264 C 341.677 415.962 343.853 411.016 343.853 411.016" style="fill: rgb(14, 81, 141);" transform="matrix(0.478244, 0.878227, -0.878227, 0.478244, 512.82984, -95.95577)"/>
      <path d="M 169.445 391.659 L 153.201 434.765 C 151.509 439.452 146.604 437.946 146.604 437.946 L 124.027 429.654 C 124.027 429.654 119.312 427.599 121.004 422.914 L 134.516 387.261 C 136.21 382.6 140.172 382.125 141.769 382.026 C 144.427 381.933 166.519 384.85 166.519 384.85 C 171.042 386.52 169.445 391.659 169.445 391.659" style="fill: rgb(14, 81, 141);" transform="matrix(0.478244, 0.878227, -0.878227, 0.478244, 435.908561, 86.472966)"/>
      <path d="M 111.279 514.822 L 312.51 514.822 L 312.51 507.972 L 111.279 507.972 L 111.279 514.822" style="fill: rgb(255, 255, 255);"/>
      <rect x="200.666" y="400.827" width="79.58" height="16.873" style="fill: rgb(14, 81, 141);" transform="matrix(0.98986, -0.142049, 0.142049, 0.98986, -51.464958, 46.991604)" rx="2.394" ry="2.394"/>
      <rect x="161.982" y="-7.88" width="208.411" height="202.805" style="fill: rgb(14, 81, 141);" rx="15.814" ry="15.814"/>
      <path id="parkeren_wit" d="M 214.769 14.25 L 214.769 88.41 L 214.769 115.675 L 214.769 177.838 L 242.032 177.838 L 242.032 115.675 L 281.839 115.675 C 309.832 115.675 332.552 93.3 332.552 65.271 C 332.552 37.241 309.832 14.25 281.839 14.25 L 214.769 14.25 Z M 242.032 41.515 L 281.839 41.515 C 281.851 41.515 281.862 41.515 281.873 41.515 C 294.841 41.515 305.289 51.919 305.289 64.759 C 305.289 77.6 294.911 88.41 281.941 88.41 C 281.906 88.41 281.873 88.411 281.839 88.41 L 242.032 88.41 L 242.032 41.515" style="fill: rgb(255, 255, 255);"/>
      <path d="M 375.952 551.251 C 375.665 551.31 375.433 551.34 375.256 551.34 C 375.001 551.34 374.781 551.298 374.598 551.214 C 374.416 551.13 374.279 551.003 374.189 550.829 C 374.099 550.656 374.053 550.346 374.053 549.9 L 374.053 546.138 L 373.272 546.138 L 373.272 545.639 L 374.053 545.639 L 374.053 544.202 L 374.719 543.781 L 374.719 545.639 L 375.776 545.639 L 375.776 546.138 L 374.719 546.138 L 374.719 549.816 C 374.719 550.077 374.736 550.272 374.771 550.403 C 374.803 550.534 374.868 550.63 374.966 550.693 C 375.062 550.756 375.189 550.787 375.349 550.787 C 375.47 550.787 375.643 550.764 375.868 550.719 L 375.952 551.251 Z M 381.536 548.529 L 377.217 548.529 C 377.229 549.255 377.401 549.821 377.733 550.23 C 378.064 550.636 378.523 550.84 379.109 550.84 C 379.926 550.84 380.497 550.386 380.823 549.477 L 381.467 549.586 C 381.247 550.226 380.939 550.683 380.543 550.961 C 380.146 551.238 379.655 551.377 379.069 551.377 C 378.276 551.377 377.656 551.115 377.206 550.591 C 376.757 550.067 376.532 549.351 376.532 548.445 C 376.532 547.539 376.759 546.824 377.209 546.299 C 377.661 545.775 378.284 545.515 379.081 545.515 C 380.704 545.515 381.524 546.519 381.536 548.529 Z M 380.823 547.985 C 380.721 546.689 380.134 546.042 379.064 546.042 C 378.577 546.042 378.168 546.21 377.837 546.546 C 377.505 546.882 377.305 547.361 377.238 547.985 L 380.823 547.985 Z M 387.531 548.457 C 387.531 549.381 387.313 550.1 386.877 550.611 C 386.441 551.122 385.822 551.377 385.024 551.377 C 384.639 551.377 384.296 551.31 383.992 551.176 C 383.688 551.041 383.424 550.841 383.199 550.574 C 382.974 550.307 382.806 549.999 382.693 549.652 C 382.581 549.3 382.524 548.911 382.524 548.482 C 382.524 548.035 382.573 547.635 382.672 547.286 C 382.769 546.935 382.917 546.63 383.115 546.375 C 383.312 546.118 383.562 545.91 383.863 545.752 C 384.164 545.594 384.552 545.515 385.027 545.515 C 385.792 545.515 386.4 545.762 386.852 546.257 C 387.304 546.753 387.531 547.487 387.531 548.457 Z M 386.851 548.457 C 386.851 547.954 386.777 547.523 386.627 547.16 C 386.481 546.8 386.274 546.525 386.012 546.338 C 385.748 546.151 385.427 546.057 385.048 546.057 C 384.465 546.057 384.014 546.272 383.695 546.701 C 383.377 547.129 383.218 547.706 383.218 548.428 C 383.218 549.142 383.379 549.724 383.703 550.172 C 384.028 550.619 384.478 550.843 385.056 550.843 C 385.325 550.843 385.565 550.794 385.777 550.697 C 385.99 550.598 386.178 550.448 386.34 550.243 C 386.503 550.04 386.629 549.784 386.718 549.482 C 386.807 549.181 386.851 548.838 386.851 548.457 Z M 391.811 545.852 L 391.555 546.42 C 391.216 546.279 390.966 546.207 390.801 546.207 C 390.67 546.207 390.551 546.229 390.441 546.271 C 390.332 546.313 390.23 546.378 390.132 546.471 C 390.035 546.561 389.952 546.667 389.884 546.787 C 389.813 546.908 389.759 547.042 389.724 547.188 C 389.69 547.334 389.658 547.551 389.628 547.837 C 389.6 548.124 389.584 548.383 389.584 548.613 L 389.584 551.251 L 388.927 551.251 L 388.927 545.639 L 389.509 545.639 L 389.509 546.775 C 389.784 545.935 390.221 545.515 390.818 545.515 C 391.124 545.515 391.455 545.627 391.811 545.852 Z M 393.194 544.493 L 392.533 544.493 L 392.533 543.505 L 393.194 543.505 L 393.194 544.493 Z M 393.194 551.251 L 392.533 551.251 L 392.533 545.639 L 393.194 545.639 L 393.194 551.251 Z M 399.562 551.251 L 398.846 551.251 C 398.74 550.987 398.672 550.703 398.64 550.396 C 398.033 551.05 397.268 551.377 396.346 551.377 C 396.01 551.377 395.709 551.318 395.444 551.201 C 395.18 551.083 394.968 550.908 394.808 550.675 C 394.651 550.44 394.572 550.156 394.572 549.82 C 394.572 549.583 394.609 549.371 394.682 549.184 C 394.756 548.998 394.869 548.833 395.019 548.692 C 395.17 548.553 395.373 548.432 395.628 548.329 C 395.882 548.23 396.343 548.134 397.008 548.042 C 397.746 547.939 398.268 547.83 398.574 547.716 C 398.574 547.395 398.566 547.15 398.549 546.977 C 398.53 546.805 398.472 546.644 398.369 546.493 C 398.268 546.343 398.11 546.227 397.897 546.146 C 397.685 546.066 397.423 546.025 397.112 546.025 C 396.141 546.025 395.558 546.441 395.361 547.271 L 394.693 547.17 C 394.899 546.066 395.704 545.515 397.109 545.515 C 397.549 545.515 397.919 545.563 398.218 545.664 C 398.517 545.765 398.74 545.908 398.887 546.093 C 399.033 546.276 399.129 546.504 399.174 546.775 C 399.218 547.047 399.239 547.422 399.239 547.897 L 399.221 549.477 C 399.214 549.899 399.234 550.223 399.278 550.448 C 399.323 550.675 399.418 550.942 399.562 551.251 Z M 398.574 548.598 L 398.574 548.235 C 398.201 548.378 397.61 548.519 396.801 548.659 C 396.375 548.734 396.06 548.811 395.864 548.89 C 395.665 548.971 395.516 549.085 395.415 549.235 C 395.316 549.386 395.266 549.563 395.266 549.768 C 395.266 550.073 395.378 550.32 395.605 550.509 C 395.832 550.693 396.124 550.787 396.482 550.787 C 396.692 550.787 396.899 550.759 397.104 550.705 C 397.309 550.65 397.509 550.567 397.704 550.458 C 397.9 550.349 398.065 550.218 398.196 550.063 C 398.327 549.91 398.423 549.712 398.483 549.468 C 398.544 549.226 398.574 548.937 398.574 548.598 Z M 402.074 551.251 L 401.157 551.251 L 401.157 550.228 L 402.074 550.228 L 402.074 551.251 Z M 404.618 550.401 L 404.618 553.397 L 403.959 553.397 L 403.959 545.639 L 404.618 545.639 L 404.618 546.555 C 405.196 545.861 405.899 545.515 406.727 545.515 C 407.097 545.515 407.429 545.573 407.723 545.694 C 408.019 545.812 408.278 545.997 408.5 546.246 C 408.723 546.494 408.9 546.802 409.027 547.168 C 409.155 547.536 409.219 547.944 409.219 548.398 C 409.219 549.295 408.994 550.015 408.545 550.559 C 408.096 551.103 407.471 551.377 406.67 551.377 C 405.848 551.377 405.164 551.051 404.618 550.401 Z M 408.537 548.457 C 408.537 547.97 408.456 547.546 408.295 547.183 C 408.133 546.82 407.915 546.543 407.641 546.355 C 407.367 546.165 407.038 546.071 406.653 546.071 C 406.337 546.071 406.055 546.123 405.808 546.227 C 405.561 546.331 405.346 546.493 405.164 546.708 C 404.983 546.923 404.845 547.183 404.751 547.489 C 404.657 547.797 404.61 548.144 404.61 548.534 C 404.61 549.245 404.788 549.806 405.146 550.218 C 405.504 550.626 405.993 550.831 406.614 550.831 C 406.908 550.831 407.174 550.776 407.409 550.663 C 407.641 550.551 407.844 550.381 408.016 550.154 C 408.189 549.929 408.318 549.673 408.406 549.389 C 408.493 549.107 408.537 548.796 408.537 548.457 Z M 417.852 551.251 L 417.195 551.251 L 417.195 547.776 C 417.195 547.262 417.153 546.903 417.069 546.696 C 416.985 546.491 416.856 546.338 416.678 546.234 C 416.501 546.13 416.29 546.079 416.046 546.079 C 415.701 546.079 415.412 546.175 415.181 546.367 C 414.949 546.558 414.784 546.822 414.688 547.156 C 414.594 547.492 414.545 547.936 414.545 548.49 L 414.545 551.251 L 413.888 551.251 L 413.888 547.707 C 413.888 547.318 413.856 547.012 413.789 546.792 C 413.724 546.572 413.604 546.402 413.431 546.281 C 413.257 546.158 413.036 546.098 412.771 546.098 C 412.3 546.098 411.924 546.293 411.643 546.681 C 411.361 547.069 411.22 547.595 411.22 548.259 L 411.22 551.251 L 410.563 551.251 L 410.563 545.639 L 411.22 545.639 L 411.22 546.449 C 411.687 545.826 412.258 545.515 412.937 545.515 C 413.651 545.515 414.149 545.826 414.429 546.449 C 414.928 545.826 415.515 545.515 416.185 545.515 C 417.296 545.515 417.852 546.153 417.852 547.434 L 417.852 551.251 Z M 420.225 544.493 L 419.564 544.493 L 419.564 543.505 L 420.225 543.505 L 420.225 544.493 Z M 420.225 551.251 L 419.564 551.251 L 419.564 545.639 L 420.225 545.639 L 420.225 551.251 Z M 426.425 551.251 L 425.61 551.251 L 423.821 548.811 L 422.026 551.251 L 421.199 551.251 L 423.438 548.324 L 421.361 545.639 L 422.182 545.639 L 423.821 547.791 L 425.449 545.639 L 426.269 545.639 L 424.19 548.259 L 426.425 551.251 Z M 428.487 551.251 L 427.566 551.251 L 427.566 550.228 L 428.487 550.228 L 428.487 551.251 Z M 434.733 551.251 L 434.067 551.251 L 434.067 547.768 C 434.067 547.163 433.95 546.731 433.716 546.476 C 433.482 546.219 433.167 546.091 432.765 546.091 C 432.55 546.091 432.35 546.126 432.162 546.199 C 431.975 546.272 431.802 546.38 431.644 546.523 C 431.485 546.667 431.36 546.834 431.268 547.022 C 431.175 547.21 431.11 547.415 431.075 547.639 C 431.038 547.862 431.019 548.255 431.019 548.82 L 431.019 551.251 L 430.357 551.251 L 430.357 545.639 L 431.019 545.639 L 431.019 546.471 C 431.522 545.832 432.123 545.515 432.824 545.515 C 434.096 545.515 434.733 546.205 434.733 547.59 L 434.733 551.251 Z M 441.045 548.529 L 436.729 548.529 C 436.739 549.255 436.91 549.821 437.243 550.23 C 437.574 550.636 438.034 550.84 438.619 550.84 C 439.436 550.84 440.007 550.386 440.331 549.477 L 440.978 549.586 C 440.758 550.226 440.449 550.683 440.052 550.961 C 439.656 551.238 439.165 551.377 438.579 551.377 C 437.786 551.377 437.164 551.115 436.715 550.591 C 436.267 550.067 436.043 549.351 436.043 548.445 C 436.043 547.539 436.268 546.824 436.72 546.299 C 437.172 545.775 437.796 545.515 438.592 545.515 C 440.214 545.515 441.032 546.519 441.045 548.529 Z M 440.331 547.985 C 440.231 546.689 439.646 546.042 438.575 546.042 C 438.088 546.042 437.678 546.21 437.345 546.546 C 437.014 546.882 436.816 547.361 436.749 547.985 L 440.331 547.985 Z M 444.473 551.251 C 444.186 551.31 443.952 551.34 443.776 551.34 C 443.521 551.34 443.3 551.298 443.117 551.214 C 442.936 551.13 442.798 551.003 442.709 550.829 C 442.62 550.656 442.575 550.346 442.575 549.9 L 442.575 546.138 L 441.792 546.138 L 441.792 545.639 L 442.575 545.639 L 442.575 544.202 L 443.24 543.781 L 443.24 545.639 L 444.295 545.639 L 444.295 546.138 L 443.24 546.138 L 443.24 549.816 C 443.24 550.077 443.257 550.272 443.29 550.403 C 443.324 550.534 443.39 550.63 443.485 550.693 C 443.581 550.756 443.709 550.787 443.868 550.787 C 443.989 550.787 444.162 550.764 444.388 550.719 L 444.473 551.251 Z" style="fill: rgb(51, 51, 51); white-space: pre; mix-blend-mode: screen; opacity: 0.2;"/>
      <rect x="126.974" y="-36.52" width="249.333" height="27.737" style="fill: rgb(255, 255, 255);"/>
      <g style="" transform="matrix(1.311077, 0, 0, 0.83689, -48.377777, -2.648739)">
        <rect x="155.517" y="-16.239" width="20.675" height="232.356" style="fill: rgb(255, 255, 255);"/>
      </g>
      <g transform="matrix(1.222198, 0, 0, 0.893526, 160.960205, -14.946486)" style="">
        <rect x="155.517" y="-16.239" width="20.675" height="232.356" style="fill: rgb(255, 255, 255);"/>
      </g>
    </g>
  </g>
</svg>