<?xml version="1.0" encoding="utf-8"?>
<svg viewBox="0 0 300 300" width="300px" height="300px" xmlns="http://www.w3.org/2000/svg">
  <rect id="blauw_vlak" width="300" height="300" style="fill: rgb(14, 81, 141);" x="-0.488" y="-2"/>
  <path id="witte_bies" style="fill: none; stroke: rgb(247, 251, 245); stroke-width: 6.76128;" d="M 276.33 292.065 C 285.025 292.065 292.097 285.027 292.097 276.3 L 292.097 23.667 C 292.097 14.973 285.025 7.894 276.33 7.894 L 23.67 7.894 C 14.942 7.894 7.863 14.973 7.863 23.667 L 7.863 276.3 C 7.863 285.027 14.942 292.065 23.67 292.065 L 276.33 292.065 Z"/>
  <path d="M 217.936 281.188 C 217.762 281.224 217.621 281.242 217.514 281.242 C 217.359 281.242 217.227 281.217 217.116 281.166 C 217.005 281.115 216.923 281.038 216.868 280.933 C 216.813 280.828 216.786 280.64 216.786 280.37 L 216.786 278.092 L 216.313 278.092 L 216.313 277.79 L 216.786 277.79 L 216.786 276.92 L 217.189 276.664 L 217.189 277.79 L 217.829 277.79 L 217.829 278.092 L 217.189 278.092 L 217.189 280.319 C 217.189 280.477 217.199 280.595 217.22 280.674 C 217.24 280.753 217.279 280.811 217.338 280.85 C 217.397 280.888 217.474 280.907 217.57 280.907 C 217.643 280.907 217.748 280.893 217.885 280.866 L 217.936 281.188 Z M 221.316 279.54 L 218.701 279.54 C 218.708 279.979 218.812 280.322 219.013 280.569 C 219.214 280.816 219.491 280.939 219.846 280.939 C 220.341 280.939 220.687 280.664 220.884 280.114 L 221.275 280.18 C 221.141 280.567 220.954 280.845 220.714 281.012 C 220.474 281.18 220.177 281.264 219.822 281.264 C 219.342 281.264 218.966 281.105 218.694 280.788 C 218.422 280.471 218.286 280.038 218.286 279.489 C 218.286 278.94 218.423 278.507 218.696 278.19 C 218.97 277.873 219.348 277.714 219.829 277.714 C 220.812 277.714 221.308 278.323 221.316 279.54 Z M 220.884 279.21 C 220.822 278.426 220.467 278.034 219.819 278.034 C 219.525 278.034 219.277 278.136 219.076 278.339 C 218.875 278.542 218.754 278.833 218.713 279.21 L 220.884 279.21 Z M 224.944 279.496 C 224.944 280.056 224.812 280.491 224.548 280.8 C 224.283 281.109 223.909 281.264 223.426 281.264 C 223.193 281.264 222.985 281.223 222.801 281.142 C 222.617 281.061 222.457 280.939 222.321 280.778 C 222.185 280.617 222.083 280.43 222.015 280.219 C 221.946 280.007 221.912 279.771 221.912 279.511 C 221.912 279.24 221.942 278.999 222.001 278.787 C 222.06 278.574 222.15 278.39 222.27 278.235 C 222.389 278.08 222.54 277.954 222.723 277.858 C 222.905 277.762 223.14 277.714 223.428 277.714 C 223.891 277.714 224.259 277.864 224.533 278.164 C 224.807 278.465 224.944 278.909 224.944 279.496 Z M 224.532 279.496 C 224.532 279.192 224.487 278.93 224.398 278.711 C 224.308 278.492 224.183 278.326 224.024 278.213 C 223.865 278.1 223.67 278.043 223.441 278.043 C 223.088 278.043 222.814 278.173 222.621 278.433 C 222.428 278.692 222.332 279.041 222.332 279.479 C 222.332 279.912 222.43 280.264 222.626 280.535 C 222.823 280.806 223.096 280.941 223.445 280.941 C 223.608 280.941 223.754 280.911 223.882 280.852 C 224.011 280.793 224.124 280.701 224.223 280.578 C 224.322 280.454 224.398 280.3 224.451 280.117 C 224.505 279.934 224.532 279.727 224.532 279.496 Z M 227.548 277.919 L 227.395 278.263 C 227.19 278.177 227.037 278.134 226.938 278.134 C 226.858 278.134 226.785 278.147 226.72 278.172 C 226.654 278.197 226.592 278.237 226.533 278.292 C 226.474 278.347 226.424 278.412 226.381 278.485 C 226.339 278.558 226.307 278.639 226.286 278.728 C 226.265 278.817 226.246 278.948 226.228 279.121 C 226.21 279.294 226.201 279.451 226.201 279.591 L 226.201 281.188 L 225.803 281.188 L 225.803 277.79 L 226.154 277.79 L 226.154 278.478 C 226.322 277.969 226.587 277.714 226.948 277.714 C 227.133 277.714 227.333 277.782 227.548 277.919 Z M 228.37 277.096 L 227.97 277.096 L 227.97 276.498 L 228.37 276.498 L 228.37 277.096 Z M 228.37 281.188 L 227.97 281.188 L 227.97 277.79 L 228.37 277.79 L 228.37 281.188 Z M 232.226 281.188 L 231.791 281.188 C 231.728 281.029 231.686 280.856 231.667 280.67 C 231.299 281.066 230.836 281.264 230.277 281.264 C 230.074 281.264 229.892 281.228 229.732 281.157 C 229.571 281.086 229.443 280.98 229.347 280.839 C 229.251 280.697 229.203 280.524 229.203 280.321 C 229.203 280.178 229.225 280.05 229.27 279.937 C 229.315 279.824 229.383 279.724 229.474 279.639 C 229.565 279.554 229.688 279.48 229.843 279.419 C 229.998 279.358 230.276 279.3 230.678 279.245 C 231.125 279.183 231.442 279.117 231.628 279.047 C 231.628 278.853 231.623 278.704 231.612 278.6 C 231.601 278.496 231.565 278.398 231.503 278.307 C 231.441 278.216 231.346 278.146 231.217 278.097 C 231.089 278.048 230.93 278.024 230.741 278.024 C 230.154 278.024 229.801 278.275 229.682 278.778 L 229.276 278.717 C 229.401 278.048 229.889 277.714 230.739 277.714 C 231.006 277.714 231.23 277.744 231.411 277.805 C 231.593 277.866 231.728 277.953 231.817 278.064 C 231.906 278.175 231.963 278.313 231.99 278.478 C 232.017 278.643 232.03 278.869 232.03 279.157 L 232.018 280.114 C 232.015 280.369 232.027 280.565 232.054 280.702 C 232.081 280.839 232.138 281.001 232.226 281.188 Z M 231.628 279.582 L 231.628 279.362 C 231.401 279.448 231.043 279.533 230.553 279.618 C 230.294 279.664 230.105 279.711 229.986 279.759 C 229.866 279.807 229.776 279.876 229.715 279.967 C 229.654 280.058 229.623 280.166 229.623 280.29 C 229.623 280.475 229.692 280.625 229.829 280.738 C 229.967 280.851 230.144 280.907 230.36 280.907 C 230.487 280.907 230.613 280.89 230.736 280.857 C 230.86 280.824 230.981 280.774 231.1 280.708 C 231.219 280.642 231.318 280.562 231.398 280.469 C 231.478 280.376 231.536 280.256 231.573 280.109 C 231.61 279.962 231.628 279.787 231.628 279.582 Z M 233.76 281.188 L 233.204 281.188 L 233.204 280.568 L 233.76 280.568 L 233.76 281.188 Z M 235.299 280.673 L 235.299 282.487 L 234.901 282.487 L 234.901 277.79 L 235.299 277.79 L 235.299 278.344 C 235.649 277.924 236.075 277.714 236.576 277.714 C 236.801 277.714 237.002 277.75 237.181 277.823 C 237.359 277.895 237.515 278.006 237.65 278.157 C 237.785 278.308 237.892 278.494 237.969 278.716 C 238.046 278.938 238.085 279.186 238.085 279.459 C 238.085 280.003 237.949 280.44 237.677 280.769 C 237.406 281.099 237.027 281.264 236.542 281.264 C 236.044 281.264 235.63 281.067 235.299 280.673 Z M 237.672 279.496 C 237.672 279.201 237.623 278.944 237.526 278.725 C 237.429 278.505 237.297 278.338 237.13 278.223 C 236.964 278.108 236.765 278.051 236.532 278.051 C 236.34 278.051 236.169 278.083 236.02 278.146 C 235.87 278.209 235.74 278.306 235.63 278.437 C 235.52 278.567 235.437 278.725 235.38 278.91 C 235.323 279.095 235.295 279.306 235.295 279.542 C 235.295 279.973 235.403 280.313 235.619 280.562 C 235.836 280.81 236.132 280.934 236.508 280.934 C 236.687 280.934 236.847 280.9 236.989 280.832 C 237.13 280.763 237.253 280.661 237.358 280.524 C 237.462 280.387 237.54 280.233 237.593 280.061 C 237.646 279.89 237.672 279.701 237.672 279.496 Z M 243.311 281.188 L 242.913 281.188 L 242.913 279.083 C 242.913 278.772 242.888 278.555 242.837 278.43 C 242.786 278.306 242.707 278.213 242.6 278.15 C 242.493 278.087 242.365 278.056 242.217 278.056 C 242.008 278.056 241.834 278.114 241.693 278.23 C 241.552 278.347 241.453 278.506 241.395 278.709 C 241.338 278.912 241.309 279.181 241.309 279.516 L 241.309 281.188 L 240.911 281.188 L 240.911 279.042 C 240.911 278.806 240.891 278.621 240.851 278.488 C 240.811 278.355 240.739 278.251 240.634 278.178 C 240.529 278.105 240.395 278.068 240.234 278.068 C 239.949 278.068 239.722 278.186 239.551 278.421 C 239.38 278.656 239.295 278.974 239.295 279.376 L 239.295 281.188 L 238.897 281.188 L 238.897 277.79 L 239.295 277.79 L 239.295 278.28 C 239.578 277.903 239.924 277.714 240.335 277.714 C 240.768 277.714 241.069 277.903 241.238 278.28 C 241.541 277.903 241.895 277.714 242.302 277.714 C 242.975 277.714 243.311 278.101 243.311 278.876 L 243.311 281.188 Z M 244.761 277.096 L 244.36 277.096 L 244.36 276.498 L 244.761 276.498 L 244.761 277.096 Z M 244.761 281.188 L 244.36 281.188 L 244.36 277.79 L 244.761 277.79 L 244.761 281.188 Z M 248.514 281.188 L 248.021 281.188 L 246.937 279.711 L 245.85 281.188 L 245.35 281.188 L 246.705 279.416 L 245.447 277.79 L 245.945 277.79 L 246.937 279.093 L 247.923 277.79 L 248.419 277.79 L 247.161 279.376 L 248.514 281.188 Z M 249.76 281.188 L 249.204 281.188 L 249.204 280.568 L 249.76 280.568 L 249.76 281.188 Z M 253.542 281.188 L 253.139 281.188 L 253.139 279.079 C 253.139 278.712 253.068 278.451 252.926 278.296 C 252.785 278.141 252.593 278.063 252.35 278.063 C 252.22 278.063 252.098 278.085 251.985 278.129 C 251.872 278.173 251.768 278.238 251.671 278.325 C 251.575 278.412 251.499 278.513 251.443 278.627 C 251.387 278.741 251.348 278.865 251.326 279 C 251.304 279.135 251.293 279.374 251.293 279.716 L 251.293 281.188 L 250.893 281.188 L 250.893 277.79 L 251.293 277.79 L 251.293 278.292 C 251.598 277.907 251.962 277.714 252.387 277.714 C 253.157 277.714 253.542 278.133 253.542 278.971 L 253.542 281.188 Z M 257.363 279.54 L 254.748 279.54 C 254.755 279.979 254.858 280.322 255.059 280.569 C 255.26 280.816 255.538 280.939 255.893 280.939 C 256.388 280.939 256.734 280.664 256.931 280.114 L 257.321 280.18 C 257.188 280.567 257.001 280.845 256.761 281.012 C 256.521 281.18 256.224 281.264 255.869 281.264 C 255.389 281.264 255.013 281.105 254.741 280.788 C 254.469 280.471 254.333 280.038 254.333 279.489 C 254.333 278.94 254.47 278.507 254.743 278.19 C 255.016 277.873 255.394 277.714 255.876 277.714 C 256.859 277.714 257.355 278.323 257.363 279.54 Z M 256.931 279.21 C 256.869 278.426 256.514 278.034 255.866 278.034 C 255.571 278.034 255.324 278.136 255.123 278.339 C 254.922 278.542 254.801 278.833 254.76 279.21 L 256.931 279.21 Z M 259.452 281.188 C 259.278 281.224 259.137 281.242 259.029 281.242 C 258.874 281.242 258.742 281.217 258.631 281.166 C 258.52 281.115 258.438 281.038 258.384 280.933 C 258.329 280.828 258.302 280.64 258.302 280.37 L 258.302 278.092 L 257.828 278.092 L 257.828 277.79 L 258.302 277.79 L 258.302 276.92 L 258.705 276.664 L 258.705 277.79 L 259.344 277.79 L 259.344 278.092 L 258.705 278.092 L 258.705 280.319 C 258.705 280.477 258.715 280.595 258.735 280.674 C 258.756 280.753 258.795 280.811 258.854 280.85 C 258.913 280.888 258.99 280.907 259.086 280.907 C 259.159 280.907 259.264 280.893 259.401 280.866 L 259.452 281.188 Z" style="fill: rgb(51, 51, 51); white-space: pre; mix-blend-mode: screen; opacity: 0.2;"/>
  <path id="path13453" style="fill: rgb(255, 255, 255); fill-opacity: 1; fill-rule: nonzero; stroke: none;" d="M 195.979 219.927 L 220.374 221.375 L 221.094 231.2 L 236.761 241.773 L 238.211 243.589 L 238.577 245.77 L 238.211 247.952 L 236.761 249.4 L 234.946 250.497 L 232.75 250.851 L 230.934 250.133 L 210.552 241.393 L 209.088 235.214 L 208.367 233.75 L 207.268 232.666 L 205.804 232.666 L 204.355 233.397 L 203.989 233.75 L 197.078 259.593 L 195.979 261.775 L 194.515 263.239 L 192.349 263.59 L 190.152 263.59 L 187.971 262.506 L 186.522 260.691 L 186.155 258.509 L 186.155 256.679 L 195.979 219.928"/>
  <path id="path13455" style="fill: rgb(255, 255, 255); fill-opacity: 1; fill-rule: nonzero; stroke: none;" d="M 195.613 215.564 L 220.007 217.013 L 218.91 203.175 L 226.567 207.538 L 225.469 225.389 L 225.469 226.47 L 226.567 227.937 L 228.016 228.652 L 229.466 228.652 L 231.297 227.937 L 232.029 226.47 L 234.562 206.822 L 234.562 204.641 L 233.475 202.444 L 232.025 200.629 L 217.823 188.989 L 217.456 188.622 L 215.275 187.525 L 212.727 187.525 C 191.064 190.498 190.638 185.999 184.689 206.822 L 176.678 204.275 L 174.864 203.908 L 173.049 204.641 L 171.583 206.457 L 171.216 208.271 L 171.583 210.088 L 172.67 211.552 L 173.401 212.269 L 186.873 216.647 L 188.703 217.013 L 190.885 216.281 L 191.982 214.831 L 195.248 210.086 L 195.613 215.564"/>
  <circle style="opacity: 1; fill: rgb(255, 255, 255); fill-opacity: 1; stroke: none; stroke-width: 1.00172; stroke-linejoin: miter; stroke-miterlimit: 4; stroke-dasharray: none; stroke-dashoffset: 0; stroke-opacity: 1;" id="path13466" cx="154.261" cy="258.637" r="10.053"/>
  <circle style="opacity: 1; fill: rgb(255, 255, 255); fill-opacity: 1; stroke: none; stroke-width: 2; stroke-linejoin: miter; stroke-miterlimit: 4; stroke-dasharray: none; stroke-dashoffset: 0; stroke-opacity: 1;" id="path13477" cx="201.071" cy="173.657" r="10.193"/>
  <path d="M 53 189.887 L 57.278 167.609 L 46.655 170.712 L 44.306 201.249 C 43.909 201.6 42.71 201.694 42.227 201.694 C 41.274 201.694 39.877 201.485 38.986 201.102 C 36.771 200.1 34.869 197.045 35.004 194.608 L 35.004 164.072 L 69.08 143.702 C 70.763 142.599 73.421 141.637 75.423 141.637 L 77.787 141.637 C 81.992 141.637 88.052 146.187 89.301 150.194 L 100.223 175.872 L 113.791 184.727 C 115.2 185.271 116.883 187.795 116.883 189.303 L 116.883 190.776 C 116.883 191.232 116.018 193.458 115.557 193.721 L 90.92 187.674 L 84.426 179.571 L 81.035 189.887 L 53 189.887 Z" style="fill: rgb(255, 255, 255); fill-opacity: 1; fill-rule: nonzero; stroke: none; stroke-width: 0.0292805; stroke-linecap: butt; stroke-linejoin: miter; stroke-miterlimit: 3.864; stroke-dasharray: none; stroke-opacity: 1;" id="path31408"/>
  <path d="M 67.754 215.927 L 49.46 272.288 C 43.685 272.569 38.836 268.713 38.836 262.702 C 38.836 262.184 39.046 261.454 39.116 260.932 L 51.656 197.038 L 77.767 197.038 L 96.95 233.041 L 104.916 270.369 C 104.46 270.776 101.204 271.112 100.488 271.112 C 95.676 271.112 91.124 267.427 89.579 263 L 81.02 236.296 L 67.754 215.927 Z" style="fill: rgb(255, 255, 255); fill-opacity: 1; fill-rule: nonzero; stroke: none; stroke-width: 0.0292805; stroke-linecap: butt; stroke-linejoin: miter; stroke-miterlimit: 3.864; stroke-dasharray: none; stroke-opacity: 1;" id="path31410"/>
  <circle style="fill: rgb(255, 255, 255); fill-opacity: 1; stroke: none; stroke-width: 15.6104; stroke-linecap: square; stroke-linejoin: round; stroke-miterlimit: 4; stroke-dasharray: none; stroke-opacity: 1; paint-order: normal;" id="path33753" cx="80.815" cy="127.236" r="11.758"/>
  <path d="M 198.594 122.023 L 208.52 95.621 L 220.939 100.187 C 223.365 101.088 223.92 99.329 223.92 99.329 L 226.924 91.334 C 226.924 91.334 227.67 89.672 225.243 88.781 L 212.826 84.204 L 213.115 83.436 L 208.91 75.769 L 189.09 68.475 L 183.007 72.347 L 160.181 72.82 C 151.283 89.321 146.018 102.816 146.109 102.84 C 146.018 102.816 141.1 116.401 136.894 134.652 L 153.873 149.742 L 155.943 156.616 L 175.73 163.9 L 183.984 160.799 L 184.273 160.038 L 196.724 164.605 C 199.149 165.504 199.696 163.744 199.696 163.744 L 202.669 155.781 C 202.669 155.781 203.447 154.088 200.988 153.196 L 188.57 148.622 L 198.495 122.22 L 198.594 122.023" style="fill: rgb(255, 255, 255);" transform="matrix(0.353399, 0.935473, -0.935473, 0.353399, 226.797119, -94.783905)"/>
  <path d="M 185.194 95.509 C 185.096 95.476 194.343 72.97 199.418 62.167 L 199.418 62.069 L 181.958 62.422 C 173.1 78.92 168.895 89.495 168.993 89.526 C 168.895 89.495 165.077 100.239 160.872 118.464 L 173.844 130.005 L 173.903 129.94 C 177.239 118.49 185.096 95.476 185.194 95.509" style="fill: rgb(14, 81, 141);" transform="matrix(0.353399, 0.935473, -0.935473, 0.353399, 206.321945, -106.423096)"/>
  <path d="M 217.636 124.345 L 223.199 109.573 C 223.78 107.976 222.166 107.271 222.166 107.271 L 214.466 104.426 C 214.466 104.426 212.752 103.917 212.173 105.513 L 207.578 117.757 C 206.965 119.319 207.876 120.317 208.29 120.695 C 208.938 121.308 215.343 125.457 215.343 125.457 C 216.891 126.039 217.636 124.345 217.636 124.345" style="fill: rgb(14, 81, 141);" transform="matrix(0.353399, 0.935473, -0.935473, 0.353399, 246.790115, -127.117058)"/>
  <path d="M 157.285 108.62 L 151.72 123.382 C 151.141 124.987 149.462 124.472 149.462 124.472 L 141.73 121.632 C 141.73 121.632 140.115 120.929 140.694 119.324 L 145.322 107.113 C 145.902 105.519 147.259 105.354 147.806 105.321 C 148.715 105.289 156.283 106.288 156.283 106.288 C 157.831 106.86 157.285 108.62 157.285 108.62" style="fill: rgb(14, 81, 141);" transform="matrix(0.353399, 0.935473, -0.935473, 0.353399, 203.845444, -65.043282)"/>
  <rect x="68.723" y="137.273" width="27.254" height="5.779" style="fill: rgb(14, 81, 141);" transform="matrix(0.999987, -0.005079, 0.005079, 0.999987, 99.305641, -17.472403)" rx="2.394" ry="2.394"/>
</svg>