<?xml version="1.0" encoding="utf-8"?>
<svg viewBox="0 0 300 300" width="300px" height="300px" xmlns="http://www.w3.org/2000/svg">
  <rect id="blauw_vlak" width="300" height="300" fill="#0e518d"/>
  <path id="witte_bies" style="fill:none;stroke:#f7fbf5;stroke-width:6.75" d="M 276.33521,292.12448 C 285.0442,292.12448 292.12448,285.03576 292.12448,276.33521 L 292.12448,23.664791 C 292.12448,14.922045 285.0442,7.8755274 276.33521,7.8755274 L 23.66479,7.8755274 C 14.930481,7.8755274 7.8755248,14.922045 7.8755248,23.664791 L 7.8755248,276.33521 C 7.8755248,285.03576 14.930481,292.12448 23.66479,292.12448 L 276.33521,292.12448"/>
  <path id="witte_driehoek" fill="#f7fbf5" d="M 150.66221,29.398532 L 271.95119,241.14389 L 27.71139,241.14389 L 150.66221,29.398532"/>
  <path id="zwart_zebrapad" fill="#2a2d2f" d="M 72.395 231.654 L 46.135 231.654 L 72.395 183.443 L 92.43 183.443 L 72.395 231.654 Z M 117.636 231.654 L 90.558 231.654 L 106.24 183.443 L 126.013 183.443 L 123.919 195.495 C 123.919 195.495 117.939 197.384 114.527 200.417 L 113.203 204.081 L 121.701 207.797 L 117.636 231.654 Z M 144.496 183.443 L 160.152 183.443 L 164.202 231.654 L 137.114 231.654 L 140.379 193.001 L 144.496 183.443 Z M 183.091 183.443 L 195.076 183.443 L 210.767 231.654 L 183.713 231.654 L 179.627 208.427 L 190.031 202.799 L 183.091 183.443 Z M 228.921 231.654 L 255.181 231.654 L 228.921 183.443 L 208.886 183.443 L 228.921 231.654"/>
  <path id="path962" d="M 134.629 167.406 C 134.988 166.487 147.179 141.145 147.484 138.986 C 147.791 136.873 145.235 119.143 144.837 118.767 C 144.406 118.34 125.927 132.417 125.164 132.468 C 124.384 132.468 123.581 131.522 123.154 131.545 C 122.823 131.567 120.692 133.655 119.628 134.15 C 119.271 134.342 118.866 134.455 118.421 134.484 C 116.765 134.549 115.339 133.036 115.269 131.142 C 115.218 130.026 115.698 128.89 116.124 128.414 C 116.574 127.936 117.26 127.323 117.804 127.18 C 118.345 127.009 119.057 126.993 119.46 126.754 C 119.816 126.564 119.794 124.902 119.794 124.902 C 119.794 124.902 135.905 113.338 136.643 112.604 C 137.401 111.867 143.462 95.634 144.594 94.445 C 145.706 93.283 150.418 88.686 150.418 88.686 L 150.487 86.696 C 150.487 86.696 146.273 85.345 145.966 84.656 C 145.683 83.949 143.27 75.553 143.27 75.553 L 138.534 74.085 L 138.349 72.664 L 144.189 70.006 L 144.312 66.616 C 144.312 66.616 148.927 64.223 152.075 64.51 C 155.198 64.817 158.301 66.308 158.349 67.137 C 158.361 67.991 158.465 70.906 158.465 70.906 L 164.927 73.586 L 164.86 74.983 L 158.776 78.517 L 159.44 88 C 159.44 88 171.159 93.381 171.838 94.183 C 172.503 95.017 186.573 111.18 187.025 112.032 C 187.426 112.841 191.329 134.315 190.903 134.315 C 190.549 134.339 189.033 135.693 189.033 135.693 C 189.033 135.693 189.603 140.171 188.517 141.761 C 188.465 141.845 188.396 141.897 188.346 141.949 C 187.801 142.944 186.826 143.632 185.644 143.676 C 183.849 143.746 182.282 142.21 182.213 140.219 C 182.213 139.767 182.265 139.341 182.387 138.934 L 182.6 137.204 L 181.274 135.996 C 181.274 135.996 178.856 118.72 178.312 118.316 C 177.77 117.934 167.604 108.598 167.604 108.598 L 171.439 139.861 C 171.506 141.545 170.493 142.99 169.07 143.438 L 186.784 200.475 C 187.236 201.634 186.832 202.986 185.792 203.555 L 170.619 211.237 C 169.768 211.684 168.75 211.258 168.326 210.307 C 167.92 209.39 169.531 207.255 169.199 207.681 C 169.411 207.375 170.12 206.424 171.021 205.048 C 172.274 203.129 171.846 201.564 170.762 199.123 C 170.762 199.123 157.996 157.831 157.449 157.831 C 156.904 157.831 147.202 175.586 146.656 176.181 L 146.605 176.229 L 135.905 206.169 C 135.455 207.352 134.583 208.228 133.449 208.041 L 117.019 204.673 C 116.05 204.486 115.438 203.512 115.599 202.469 C 115.772 201.447 116.546 201.234 117.613 200.926 C 118.677 200.62 119.034 200.497 121.543 199.887 C 123.927 199.551 125.162 197.964 125.728 195.761 C 125.728 195.761 134.249 168.313 134.629 167.413" style="fill-opacity: 1; fill-rule: nonzero; stroke: none; stroke-width: 0.0297563; fill: rgb(43, 43, 43);"/>
  <path d="M 224.655 279.865 Q 224.394 279.919 224.233 279.919 Q 224.001 279.919 223.835 279.843 Q 223.669 279.767 223.587 279.61 Q 223.505 279.452 223.505 279.047 L 223.505 276.769 L 223.032 276.769 L 223.032 276.467 L 223.505 276.467 L 223.505 275.597 L 223.908 275.341 L 223.908 276.467 L 224.548 276.467 L 224.548 276.769 L 223.908 276.769 L 223.908 278.996 Q 223.908 279.233 223.939 279.351 Q 223.969 279.469 224.057 279.527 Q 224.145 279.584 224.289 279.584 Q 224.399 279.584 224.604 279.543 Z M 228.035 278.217 L 225.42 278.217 Q 225.43 278.876 225.732 279.246 Q 226.033 279.616 226.565 279.616 Q 227.307 279.616 227.603 278.791 L 227.994 278.857 Q 227.793 279.438 227.433 279.689 Q 227.073 279.941 226.541 279.941 Q 225.821 279.941 225.413 279.465 Q 225.005 278.989 225.005 278.166 Q 225.005 277.343 225.415 276.867 Q 225.826 276.391 226.548 276.391 Q 228.023 276.391 228.035 278.217 Z M 227.603 277.887 Q 227.51 276.711 226.538 276.711 Q 226.097 276.711 225.795 277.016 Q 225.494 277.321 225.432 277.887 Z M 231.663 278.173 Q 231.663 279.013 231.267 279.477 Q 230.87 279.941 230.145 279.941 Q 229.796 279.941 229.52 279.819 Q 229.244 279.697 229.04 279.455 Q 228.836 279.213 228.734 278.896 Q 228.631 278.578 228.631 278.188 Q 228.631 277.782 228.72 277.464 Q 228.809 277.145 228.989 276.912 Q 229.168 276.679 229.442 276.535 Q 229.715 276.391 230.147 276.391 Q 230.841 276.391 231.252 276.841 Q 231.663 277.292 231.663 278.173 Z M 231.251 278.173 Q 231.251 277.717 231.117 277.388 Q 230.982 277.06 230.743 276.89 Q 230.504 276.72 230.16 276.72 Q 229.63 276.72 229.34 277.11 Q 229.051 277.499 229.051 278.156 Q 229.051 278.805 229.345 279.212 Q 229.64 279.618 230.164 279.618 Q 230.409 279.618 230.601 279.529 Q 230.794 279.44 230.942 279.255 Q 231.09 279.069 231.17 278.794 Q 231.251 278.52 231.251 278.173 Z M 234.267 276.596 L 234.114 276.94 Q 233.806 276.811 233.657 276.811 Q 233.537 276.811 233.439 276.849 Q 233.34 276.886 233.252 276.969 Q 233.164 277.052 233.1 277.162 Q 233.037 277.272 233.005 277.405 Q 232.973 277.538 232.947 277.798 Q 232.92 278.058 232.92 278.268 L 232.92 279.865 L 232.522 279.865 L 232.522 276.467 L 232.873 276.467 L 232.873 277.155 Q 233.125 276.391 233.667 276.391 Q 233.945 276.391 234.267 276.596 Z M 235.089 275.773 L 234.689 275.773 L 234.689 275.175 L 235.089 275.175 Z M 235.089 279.865 L 234.689 279.865 L 234.689 276.467 L 235.089 276.467 Z M 238.945 279.865 L 238.51 279.865 Q 238.415 279.626 238.386 279.347 Q 237.834 279.941 236.996 279.941 Q 236.691 279.941 236.451 279.834 Q 236.21 279.728 236.066 279.516 Q 235.922 279.303 235.922 278.998 Q 235.922 278.783 235.989 278.614 Q 236.057 278.444 236.193 278.316 Q 236.33 278.188 236.562 278.096 Q 236.794 278.005 237.397 277.922 Q 238.068 277.829 238.347 277.724 Q 238.347 277.433 238.331 277.277 Q 238.315 277.121 238.222 276.984 Q 238.129 276.847 237.936 276.774 Q 237.744 276.701 237.46 276.701 Q 236.579 276.701 236.401 277.455 L 235.995 277.394 Q 236.183 276.391 237.458 276.391 Q 237.858 276.391 238.13 276.482 Q 238.403 276.574 238.536 276.741 Q 238.669 276.908 238.709 277.155 Q 238.749 277.402 238.749 277.834 L 238.737 278.791 Q 238.732 279.174 238.773 279.379 Q 238.813 279.584 238.945 279.865 Z M 238.347 278.259 L 238.347 278.039 Q 238.007 278.168 237.272 278.295 Q 236.884 278.364 236.705 278.436 Q 236.525 278.508 236.434 278.644 Q 236.342 278.781 236.342 278.967 Q 236.342 279.245 236.548 279.415 Q 236.755 279.584 237.079 279.584 Q 237.27 279.584 237.455 279.534 Q 237.641 279.484 237.819 279.385 Q 237.997 279.286 238.117 279.146 Q 238.237 279.006 238.292 278.786 Q 238.347 278.566 238.347 278.259 Z M 240.479 279.865 L 239.923 279.865 L 239.923 279.245 L 240.479 279.245 Z M 242.018 279.35 L 242.018 281.164 L 241.62 281.164 L 241.62 276.467 L 242.018 276.467 L 242.018 277.021 Q 242.543 276.391 243.295 276.391 Q 243.632 276.391 243.9 276.5 Q 244.167 276.608 244.369 276.834 Q 244.572 277.06 244.688 277.393 Q 244.804 277.726 244.804 278.136 Q 244.804 278.952 244.396 279.446 Q 243.989 279.941 243.261 279.941 Q 242.514 279.941 242.018 279.35 Z M 244.391 278.173 Q 244.391 277.731 244.245 277.402 Q 244.098 277.072 243.849 276.9 Q 243.6 276.728 243.251 276.728 Q 242.963 276.728 242.739 276.823 Q 242.514 276.918 242.349 277.114 Q 242.184 277.309 242.099 277.587 Q 242.014 277.865 242.014 278.219 Q 242.014 278.866 242.338 279.239 Q 242.663 279.611 243.227 279.611 Q 243.495 279.611 243.708 279.509 Q 243.92 279.406 244.077 279.201 Q 244.233 278.996 244.312 278.738 Q 244.391 278.481 244.391 278.173 Z M 250.03 279.865 L 249.632 279.865 L 249.632 277.76 Q 249.632 277.294 249.556 277.107 Q 249.48 276.921 249.319 276.827 Q 249.158 276.733 248.936 276.733 Q 248.623 276.733 248.412 276.907 Q 248.201 277.082 248.114 277.386 Q 248.028 277.69 248.028 278.193 L 248.028 279.865 L 247.63 279.865 L 247.63 277.719 Q 247.63 277.365 247.57 277.165 Q 247.51 276.965 247.353 276.855 Q 247.195 276.745 246.953 276.745 Q 246.526 276.745 246.27 277.098 Q 246.014 277.45 246.014 278.053 L 246.014 279.865 L 245.616 279.865 L 245.616 276.467 L 246.014 276.467 L 246.014 276.957 Q 246.438 276.391 247.054 276.391 Q 247.703 276.391 247.957 276.957 Q 248.411 276.391 249.021 276.391 Q 250.03 276.391 250.03 277.553 Z M 251.48 275.773 L 251.079 275.773 L 251.079 275.175 L 251.48 275.175 Z M 251.48 279.865 L 251.079 279.865 L 251.079 276.467 L 251.48 276.467 Z M 255.233 279.865 L 254.74 279.865 L 253.656 278.388 L 252.569 279.865 L 252.069 279.865 L 253.424 278.093 L 252.166 276.467 L 252.664 276.467 L 253.656 277.77 L 254.642 276.467 L 255.138 276.467 L 253.88 278.053 Z M 256.479 279.865 L 255.923 279.865 L 255.923 279.245 L 256.479 279.245 Z M 260.261 279.865 L 259.858 279.865 L 259.858 277.756 Q 259.858 277.206 259.645 276.973 Q 259.433 276.74 259.069 276.74 Q 258.874 276.74 258.704 276.806 Q 258.535 276.872 258.391 277.002 Q 258.246 277.133 258.162 277.304 Q 258.078 277.475 258.045 277.677 Q 258.012 277.88 258.012 278.393 L 258.012 279.865 L 257.612 279.865 L 257.612 276.467 L 258.012 276.467 L 258.012 276.969 Q 258.469 276.391 259.106 276.391 Q 260.261 276.391 260.261 277.648 Z M 264.082 278.217 L 261.467 278.217 Q 261.477 278.876 261.778 279.246 Q 262.08 279.616 262.612 279.616 Q 263.354 279.616 263.65 278.791 L 264.04 278.857 Q 263.84 279.438 263.48 279.689 Q 263.12 279.941 262.588 279.941 Q 261.868 279.941 261.46 279.465 Q 261.052 278.989 261.052 278.166 Q 261.052 277.343 261.462 276.867 Q 261.872 276.391 262.595 276.391 Q 264.07 276.391 264.082 278.217 Z M 263.65 277.887 Q 263.557 276.711 262.585 276.711 Q 262.143 276.711 261.842 277.016 Q 261.54 277.321 261.479 277.887 Z M 266.171 279.865 Q 265.91 279.919 265.748 279.919 Q 265.516 279.919 265.35 279.843 Q 265.184 279.767 265.103 279.61 Q 265.021 279.452 265.021 279.047 L 265.021 276.769 L 264.547 276.769 L 264.547 276.467 L 265.021 276.467 L 265.021 275.597 L 265.424 275.341 L 265.424 276.467 L 266.063 276.467 L 266.063 276.769 L 265.424 276.769 L 265.424 278.996 Q 265.424 279.233 265.454 279.351 Q 265.485 279.469 265.573 279.527 Q 265.661 279.584 265.805 279.584 Q 265.914 279.584 266.12 279.543 Z" style="fill: rgb(51, 51, 51); white-space: pre; mix-blend-mode: screen; opacity: 0.2;"/>
</svg>