<?xml version="1.0" encoding="utf-8"?>
<svg viewBox="0 0 847.15857 743.62268" width="847.159px" height="743.623px" xmlns="http://www.w3.org/2000/svg">
  <g transform="matrix(1.25, 0, 0, -1.25, 0, 743.622681)" id="g3384">
    <g id="g3386">
      <path id="path3388" style="fill: rgb(255, 255, 255); fill-opacity: 1; fill-rule: nonzero; stroke: none;" d="m 338.859,594.5 c 7.512,0 15.028,-2.867 20.758,-8.598 1.879,-1.879 3.446,-3.953 4.707,-6.152 l 15.246,-26.157 0.071,0 293.101,-508.039 c 0.055,-0.097 0.098,-0.195 0.153,-0.293 1.488,-2.394 2.656,-5.043 3.425,-7.91 4.196,-15.656 -5.097,-31.754 -20.757,-35.949 -2.586,-0.695 -5.184,-1.012 -7.739,-1 l -618.066,0 c -16.215,0 -29.356,13.141 -29.356,29.356 0,5.304 1.414,10.281 3.879,14.578 0.02,0.031 0.035,0.062 0.051,0.097 l 304.367,528.41 c 3.864,6.665 5.653,9.305 9.406,13.059 5.731,5.731 13.243,8.598 20.754,8.598 z"/>
      <path id="path3390" style="fill: rgb(193, 18, 28); fill-opacity: 1; fill-rule: nonzero; stroke: none;" d="m 338.859,587.144 c 7.125,0.051 14.95,-3.59 18.782,-10.406 L 666.934,40.847 c 1.785,-3.648 2.535,-6.82 2.558,-10.449 0,-6.496 -2.875,-12.66 -7.847,-16.84 -4.383,-3.394 -8.536,-5.16 -14.122,-5.16 l -617.906,0 C 25.848,8.363 22.07,9.269 18.641,11.531 12.188,15.429 8.238,22.414 8.23,29.957 c 0.184,3.894 1.145,8 2.879,10.89 l 309.114,535.981 c 0.027,0.047 0.058,0.094 0.09,0.14 0.031,0.047 0.062,0.094 0.093,0.145 1.098,1.754 2.473,3.305 4.039,4.633 3.59,3.109 8.086,4.976 12.825,5.316 0.531,0.047 1.062,0.078 1.589,0.082 z M 647.523,8.398 l 1.524,0 -1.555,0 0.031,0 z M 339.18,480.933 103.477,72.398 l 471.738,0 -236.035,408.535 z"/>
      <path id="path3392" style="fill: rgb(0, 0, 0); fill-opacity: 1; fill-rule: nonzero; stroke: none; visibility: hidden;" d="m 338.859,594.898 c 7.618,0 15.231,-2.906 21.039,-8.715 1.907,-1.902 3.493,-4.008 4.774,-6.234 l 15.129,-25.957 0.07,0 293.215,-508.238 c 0.066,-0.118 0.113,-0.219 0.16,-0.301 1.504,-2.422 2.684,-5.102 3.461,-7.996 C 680.957,21.586 671.535,5.269 655.668,1.015 653.047,0.312 650.41,-0.008 647.824,0 L 29.758,0 C 13.328,0 0,13.328 0,29.758 c 0,5.375 1.438,10.417 3.934,14.773 0.011,0.019 0.027,0.051 0.05,0.098 l 304.364,528.414 c 3.871,6.668 5.695,9.363 9.468,13.14 5.809,5.809 13.426,8.715 21.039,8.715 l 0.004,0 z m 0,-0.398 c -7.511,0 -15.023,-2.867 -20.754,-8.598 -3.753,-3.754 -5.542,-6.394 -9.406,-13.059 L 4.336,44.433 C 4.316,44.398 4.301,44.367 4.281,44.336 1.816,40.039 0.402,35.062 0.402,29.758 0.402,13.543 13.543,0.402 29.758,0.402 l 618.066,0 c 2.555,-0.012 5.153,0.305 7.739,1 15.66,4.195 24.953,20.293 20.757,35.949 -0.765,2.867 -1.937,5.516 -3.425,7.91 -0.055,0.098 -0.098,0.196 -0.153,0.293 l -293.101,508.039 -0.071,0 -15.246,26.157 c -1.261,2.199 -2.828,4.273 -4.707,6.152 -5.73,5.731 -13.242,8.598 -20.758,8.598 z"/>
      <path id="path3394" style="fill:#000000;fill-opacity:1;fill-rule:nonzero;stroke:none" d="m 342.805,102.695 33.308,39.785 c 1.848,0.926 3.703,2.774 5.551,2.774 l 6.477,2.777 c 3.703,0.926 7.402,3.703 10.179,6.477 l 23.129,26.828 c 10.176,12.953 28.68,13.879 40.707,3.703 1.848,-0.926 3.703,-2.778 4.625,-4.625 l 60.141,-77.715 c 1.848,-2.777 1.848,-6.477 -0.93,-8.328 -0.926,-0.926 -2.773,-1.848 -3.699,-1.848 l -174.863,0 c -3.703,0 -5.551,2.774 -5.551,6.477 0,0.925 0,2.773 0.926,3.699 l 0,-0.004 z m 44.41,223.898 c 0,-12.027 -10.176,-22.207 -22.203,-22.207 -12.028,0 -22.207,10.18 -22.207,22.207 0,12.028 10.179,21.278 22.207,21.278 12.027,0 22.203,-9.25 22.203,-21.278 z m -120.274,-93.445 32.379,61.063 -23.129,0 -13.878,-25.907 13.878,-12.027 -4.625,-8.324 -13.878,11.101 -6.473,-12.027 c -10.18,5.551 -13.879,18.504 -8.328,27.754 l 16.652,32.383 c 2.774,4.625 7.402,7.402 12.953,7.402 l 51.809,0 c 12.953,0 23.133,-10.18 23.133,-23.133 l 0,-1.847 -5.551,-86.969 54.586,-46.258 c -1.848,-1.848 -4.625,-3.703 -8.328,-5.551 l -47.184,39.782 -0.926,-10.176 c -11.105,0.926 -19.429,10.176 -18.504,21.277 l 0,4.629 -13.879,11.102 4.625,8.324 10.176,-7.399 1.852,36.082 -21.281,-40.711 -36.082,19.43 0.003,0 z M 327.078,92.519 c -12.953,0 -24.055,10.176 -24.055,23.129 l -1.847,49.035 -24.055,37.008 -58.289,-109.172 c -11.102,6.477 -15.727,20.356 -9.25,32.383 l 54.586,102.695 36.082,-18.504 23.129,-36.082 c 0,-0.925 0.926,-1.847 0.926,-2.777"/>
    </g>
  </g>
  <path d="M 361.26 702.663 C 360.65 702.789 360.157 702.852 359.781 702.852 C 359.238 702.852 358.774 702.764 358.386 702.586 C 357.998 702.409 357.708 702.136 357.517 701.769 C 357.325 701.4 357.229 700.743 357.229 699.796 L 357.229 691.813 L 355.571 691.813 L 355.571 690.754 L 357.229 690.754 L 357.229 687.705 L 358.642 686.808 L 358.642 690.754 L 360.885 690.754 L 360.885 691.813 L 358.642 691.813 L 358.642 699.618 C 358.642 700.171 358.678 700.586 358.75 700.862 C 358.82 701.14 358.958 701.345 359.164 701.479 C 359.369 701.612 359.64 701.678 359.977 701.678 C 360.234 701.678 360.602 701.63 361.081 701.535 L 361.26 702.663 Z M 373.109 696.888 L 363.944 696.888 C 363.967 698.427 364.332 699.629 365.037 700.494 C 365.741 701.358 366.714 701.791 367.957 701.791 C 369.69 701.791 370.903 700.827 371.595 698.899 L 372.961 699.131 C 372.494 700.488 371.84 701.46 370.999 702.046 C 370.158 702.635 369.116 702.93 367.873 702.93 C 366.191 702.93 364.873 702.373 363.92 701.261 C 362.966 700.149 362.49 698.632 362.49 696.709 C 362.49 694.786 362.969 693.268 363.927 692.156 C 364.884 691.044 366.208 690.488 367.897 690.488 C 371.344 690.488 373.081 692.621 373.109 696.888 Z M 371.595 695.731 C 371.377 692.983 370.133 691.61 367.862 691.61 C 366.83 691.61 365.962 691.966 365.258 692.678 C 364.553 693.391 364.129 694.409 363.986 695.731 L 371.595 695.731 Z M 385.83 696.733 C 385.83 698.696 385.368 700.219 384.443 701.303 C 383.515 702.387 382.204 702.93 380.51 702.93 C 379.695 702.93 378.965 702.787 378.32 702.502 C 377.675 702.217 377.114 701.792 376.638 701.226 C 376.161 700.661 375.804 700.008 375.565 699.267 C 375.325 698.524 375.204 697.697 375.204 696.786 C 375.204 695.837 375.308 694.992 375.516 694.249 C 375.724 693.503 376.039 692.858 376.459 692.314 C 376.877 691.77 377.407 691.329 378.047 690.993 C 378.685 690.656 379.508 690.488 380.517 690.488 C 382.139 690.488 383.43 691.014 384.39 692.065 C 385.35 693.119 385.83 694.675 385.83 696.733 Z M 384.387 696.733 C 384.387 695.668 384.229 694.751 383.913 693.982 C 383.6 693.216 383.165 692.634 382.606 692.237 C 382.048 691.84 381.366 691.641 380.56 691.641 C 379.324 691.641 378.367 692.097 377.689 693.008 C 377.014 693.917 376.676 695.139 376.676 696.674 C 376.676 698.19 377.02 699.424 377.707 700.375 C 378.394 701.323 379.35 701.798 380.577 701.798 C 381.147 701.798 381.658 701.694 382.109 701.486 C 382.56 701.278 382.958 700.958 383.304 700.525 C 383.649 700.091 383.916 699.552 384.103 698.91 C 384.292 698.27 384.387 697.544 384.387 696.733 Z M 394.911 691.207 L 394.371 692.412 C 393.652 692.111 393.118 691.96 392.77 691.96 C 392.492 691.96 392.237 692.004 392.006 692.093 C 391.774 692.182 391.556 692.323 391.35 692.517 C 391.145 692.711 390.968 692.935 390.821 693.19 C 390.672 693.447 390.559 693.731 390.485 694.042 C 390.412 694.353 390.344 694.812 390.281 695.419 C 390.218 696.027 390.187 696.576 390.187 697.066 L 390.187 702.663 L 388.792 702.663 L 388.792 690.754 L 390.026 690.754 L 390.026 693.166 C 390.612 691.381 391.538 690.488 392.805 690.488 C 393.454 690.488 394.156 690.728 394.911 691.207 Z M 397.848 688.322 L 396.446 688.322 L 396.446 686.226 L 397.848 686.226 L 397.848 688.322 Z M 397.848 702.663 L 396.446 702.663 L 396.446 690.754 L 397.848 690.754 L 397.848 702.663 Z M 411.362 702.663 L 409.841 702.663 C 409.619 702.105 409.473 701.5 409.403 700.848 C 408.115 702.236 406.493 702.93 404.535 702.93 C 403.822 702.93 403.184 702.806 402.621 702.558 C 402.06 702.308 401.612 701.935 401.275 701.44 C 400.939 700.942 400.771 700.337 400.771 699.625 C 400.771 699.122 400.849 698.674 401.006 698.279 C 401.162 697.882 401.4 697.534 401.721 697.234 C 402.041 696.935 402.472 696.678 403.014 696.463 C 403.553 696.251 404.529 696.048 405.94 695.854 C 407.508 695.636 408.616 695.405 409.266 695.16 C 409.266 694.48 409.247 693.958 409.21 693.593 C 409.173 693.229 409.046 692.886 408.831 692.566 C 408.614 692.246 408.28 692.001 407.829 691.83 C 407.378 691.66 406.822 691.575 406.161 691.575 C 404.102 691.575 402.864 692.455 402.446 694.217 L 401.027 694.003 C 401.466 691.66 403.175 690.488 406.154 690.488 C 407.088 690.488 407.873 690.594 408.509 690.807 C 409.144 691.022 409.618 691.325 409.928 691.715 C 410.239 692.105 410.442 692.589 410.538 693.166 C 410.632 693.743 410.678 694.536 410.678 695.545 L 410.636 698.899 C 410.625 699.794 410.666 700.481 410.759 700.96 C 410.855 701.439 411.056 702.007 411.362 702.663 Z M 409.266 697.035 L 409.266 696.264 C 408.474 696.565 407.219 696.864 405.502 697.161 C 404.595 697.322 403.932 697.487 403.511 697.655 C 403.093 697.823 402.777 698.066 402.562 698.384 C 402.349 698.704 402.243 699.081 402.243 699.516 C 402.243 700.166 402.483 700.689 402.965 701.086 C 403.446 701.481 404.066 701.678 404.826 701.678 C 405.272 701.678 405.711 701.62 406.143 701.503 C 406.578 701.386 407.003 701.212 407.419 700.981 C 407.835 700.75 408.183 700.47 408.463 700.143 C 408.741 699.816 408.945 699.396 409.073 698.882 C 409.202 698.368 409.266 697.752 409.266 697.035 Z M 416.692 702.663 L 414.744 702.663 L 414.744 700.49 L 416.692 700.49 L 416.692 702.663 Z M 422.089 700.858 L 422.089 707.216 L 420.695 707.216 L 420.695 690.754 L 422.089 690.754 L 422.089 692.696 C 423.316 691.224 424.808 690.488 426.565 690.488 C 427.352 690.488 428.058 690.615 428.682 690.87 C 429.308 691.122 429.857 691.513 430.329 692.041 C 430.803 692.569 431.176 693.222 431.447 694 C 431.718 694.778 431.853 695.647 431.853 696.607 C 431.853 698.511 431.377 700.041 430.423 701.195 C 429.473 702.351 428.147 702.93 426.446 702.93 C 424.7 702.93 423.248 702.239 422.089 700.858 Z M 430.406 696.733 C 430.406 695.701 430.235 694.8 429.894 694.031 C 429.551 693.26 429.088 692.674 428.506 692.272 C 427.925 691.87 427.226 691.669 426.411 691.669 C 425.738 691.669 425.14 691.78 424.616 692.002 C 424.091 692.224 423.635 692.564 423.249 693.022 C 422.864 693.478 422.572 694.03 422.373 694.68 C 422.172 695.331 422.072 696.071 422.072 696.898 C 422.072 698.407 422.452 699.598 423.211 700.469 C 423.97 701.338 425.009 701.773 426.327 701.773 C 426.953 701.773 427.515 701.654 428.012 701.416 C 428.508 701.175 428.938 700.815 429.302 700.336 C 429.669 699.857 429.944 699.316 430.129 698.713 C 430.314 698.113 430.406 697.453 430.406 696.733 Z M 450.176 702.663 L 448.781 702.663 L 448.781 695.289 C 448.781 694.198 448.692 693.434 448.514 692.997 C 448.337 692.563 448.06 692.236 447.684 692.016 C 447.308 691.796 446.86 691.687 446.342 691.687 C 445.61 691.687 444.998 691.89 444.505 692.296 C 444.012 692.705 443.664 693.265 443.461 693.975 C 443.26 694.685 443.159 695.628 443.159 696.803 L 443.159 702.663 L 441.764 702.663 L 441.764 695.142 C 441.764 694.315 441.694 693.668 441.554 693.201 C 441.414 692.733 441.16 692.371 440.794 692.114 C 440.425 691.857 439.957 691.729 439.392 691.729 C 438.394 691.729 437.596 692.141 436.998 692.966 C 436.4 693.788 436.101 694.904 436.101 696.313 L 436.101 702.663 L 434.706 702.663 L 434.706 690.754 L 436.101 690.754 L 436.101 692.472 C 437.092 691.149 438.307 690.488 439.746 690.488 C 441.262 690.488 442.317 691.149 442.91 692.472 C 443.971 691.149 445.214 690.488 446.639 690.488 C 448.997 690.488 450.176 691.846 450.176 694.56 L 450.176 702.663 Z M 455.212 688.322 L 453.81 688.322 L 453.81 686.226 L 455.212 686.226 L 455.212 688.322 Z M 455.212 702.663 L 453.81 702.663 L 453.81 690.754 L 455.212 690.754 L 455.212 702.663 Z M 468.368 702.663 L 466.64 702.663 L 462.841 697.487 L 459.032 702.663 L 457.279 702.663 L 462.028 696.453 L 457.619 690.754 L 459.365 690.754 L 462.841 695.321 L 466.297 690.754 L 468.035 690.754 L 463.626 696.313 L 468.368 702.663 Z M 472.742 702.663 L 470.79 702.663 L 470.79 700.49 L 472.742 700.49 L 472.742 702.663 Z M 485.996 702.663 L 484.584 702.663 L 484.584 695.272 C 484.584 693.987 484.336 693.072 483.841 692.528 C 483.346 691.983 482.673 691.711 481.822 691.711 C 481.367 691.711 480.94 691.788 480.543 691.943 C 480.146 692.097 479.779 692.326 479.443 692.629 C 479.106 692.935 478.84 693.288 478.644 693.688 C 478.447 694.087 478.311 694.524 478.234 694.999 C 478.157 695.47 478.118 696.306 478.118 697.504 L 478.118 702.663 L 476.713 702.663 L 476.713 690.754 L 478.118 690.754 L 478.118 692.517 C 479.183 691.164 480.46 690.488 481.949 690.488 C 484.647 690.488 485.996 691.957 485.996 694.893 L 485.996 702.663 Z M 499.395 696.888 L 490.234 696.888 C 490.255 698.427 490.618 699.629 491.324 700.494 C 492.029 701.358 493.003 701.791 494.246 701.791 C 495.98 701.791 497.191 700.827 497.881 698.899 L 499.251 699.131 C 498.784 700.488 498.13 701.46 497.288 702.046 C 496.447 702.635 495.404 702.93 494.159 702.93 C 492.477 702.93 491.159 702.373 490.206 701.261 C 489.255 700.149 488.779 698.632 488.779 696.709 C 488.779 694.786 489.258 693.268 490.216 692.156 C 491.174 691.044 492.498 690.488 494.187 690.488 C 497.631 690.488 499.367 692.621 499.395 696.888 Z M 497.881 695.731 C 497.666 692.983 496.423 691.61 494.152 691.61 C 493.119 691.61 492.25 691.966 491.544 692.678 C 490.841 693.391 490.418 694.409 490.276 695.731 L 497.881 695.731 Z M 506.67 702.663 C 506.058 702.789 505.564 702.852 505.188 702.852 C 504.646 702.852 504.181 702.764 503.793 702.586 C 503.405 702.409 503.115 702.136 502.924 701.769 C 502.735 701.4 502.64 700.743 502.64 699.796 L 502.64 691.813 L 500.979 691.813 L 500.979 690.754 L 502.64 690.754 L 502.64 687.705 L 504.052 686.808 L 504.052 690.754 L 506.292 690.754 L 506.292 691.813 L 504.052 691.813 L 504.052 699.618 C 504.052 700.171 504.087 700.586 504.157 700.862 C 504.23 701.14 504.368 701.345 504.571 701.479 C 504.777 701.612 505.048 701.678 505.384 701.678 C 505.641 701.678 506.009 701.63 506.488 701.535 L 506.67 702.663 Z" style="fill: rgb(51, 51, 51); white-space: pre; mix-blend-mode: screen; opacity: 0.2;"/>
</svg>