<?xml version="1.0" encoding="UTF-8" standalone="no"?>
<!-- Created with Inkscape (http://www.inkscape.org/) -->

<svg
   xmlns:dc="http://purl.org/dc/elements/1.1/"
   xmlns:cc="http://creativecommons.org/ns#"
   xmlns:rdf="http://www.w3.org/1999/02/22-rdf-syntax-ns#"
   xmlns:svg="http://www.w3.org/2000/svg"
   xmlns="http://www.w3.org/2000/svg"
   xmlns:sodipodi="http://sodipodi.sourceforge.net/DTD/sodipodi-0.dtd"
   xmlns:inkscape="http://www.inkscape.org/namespaces/inkscape"
   version="1.1"
   id="svg10"
   width="663.17249"
   height="585.88812"
   viewBox="0 0 663.17249 585.88812"
   sodipodi:docname="Saudi_Arabia_-_Road_Sign_-_Traffic signals ahead.svg"
   inkscape:version="0.92.4 (5da689c313, 2019-01-14)">
  <metadata
     id="metadata16">
    <rdf:RDF>
      <cc:Work
         rdf:about="">
        <dc:format>image/svg+xml</dc:format>
        <dc:type
           rdf:resource="http://purl.org/dc/dcmitype/StillImage" />
        <dc:title></dc:title>
      </cc:Work>
    </rdf:RDF>
  </metadata>
  <defs
     id="defs14">
    <clipPath
       id="clipPath2832">
      <path
         inkscape:connector-curvature="0"
         id="path2834"
         d="M -0.24,595.138 H 317.24 V -0.138 H -0.24 Z" />
    </clipPath>
    <clipPath
       id="clipPath2840">
      <path
         inkscape:connector-curvature="0"
         id="path2842"
         d="M 0.03,595.32 H 317.49 V 0 H 0.03 Z" />
    </clipPath>
    <clipPath
       id="clipPath2858">
      <path
         inkscape:connector-curvature="0"
         id="path2860"
         d="M -0.24,595.138 H 317.24 V -0.138 H -0.24 Z" />
    </clipPath>
    <clipPath
       id="clipPath2864">
      <path
         inkscape:connector-curvature="0"
         id="path2866"
         d="M 0.03,595.32 H 317.49 V 0 H 0.03 Z" />
    </clipPath>
    <clipPath
       id="clipPath3306">
      <path
         inkscape:connector-curvature="0"
         id="path3308"
         d="m 199.238,472.977 v -29.74 h 29.744 v 29.74" />
    </clipPath>
    <clipPath
       id="clipPath3322">
      <path
         inkscape:connector-curvature="0"
         id="path3324"
         d="M -0.24,595.138 H 317.24 V -0.138 H -0.24 Z" />
    </clipPath>
    <clipPath
       id="clipPath3330">
      <path
         inkscape:connector-curvature="0"
         id="path3332"
         d="M 0.03,595.32 H 317.49 V 0 H 0.03 Z" />
    </clipPath>
    <clipPath
       id="clipPath3344">
      <path
         inkscape:connector-curvature="0"
         id="path3346"
         d="m 88.233,387.221 v -28.335 h 32.08 v 28.335" />
    </clipPath>
    <clipPath
       id="clipPath3462">
      <path
         inkscape:connector-curvature="0"
         id="path3464"
         d="M -0.24,595.138 H 317.24 V -0.138 H -0.24 Z" />
    </clipPath>
    <clipPath
       id="clipPath3470">
      <path
         inkscape:connector-curvature="0"
         id="path3472"
         d="M 0.03,595.32 H 317.49 V 0 H 0.03 Z" />
    </clipPath>
    <clipPath
       id="clipPath3490">
      <path
         inkscape:connector-curvature="0"
         id="path3492"
         d="M -0.24,595.138 H 317.24 V -0.138 H -0.24 Z" />
    </clipPath>
    <clipPath
       id="clipPath3496">
      <path
         inkscape:connector-curvature="0"
         id="path3498"
         d="M 0.03,595.32 H 317.49 V 0 H 0.03 Z" />
    </clipPath>
    <clipPath
       id="clipPath3520">
      <path
         inkscape:connector-curvature="0"
         id="path3522"
         d="m 254.788,326.215 v -28.309 h 28.326 v 28.309" />
    </clipPath>
    <clipPath
       id="clipPath3544">
      <path
         inkscape:connector-curvature="0"
         id="path3546"
         d="m 145.049,326.142 v -28.333 h 28.342 v 28.333" />
    </clipPath>
    <clipPath
       id="clipPath3682">
      <path
         inkscape:connector-curvature="0"
         id="path3684"
         d="M -0.24,595.138 H 317.24 V -0.138 H -0.24 Z" />
    </clipPath>
    <clipPath
       id="clipPath3690">
      <path
         inkscape:connector-curvature="0"
         id="path3692"
         d="M 0.03,595.32 H 317.49 V 0 H 0.03 Z" />
    </clipPath>
    <clipPath
       id="clipPath3980">
      <path
         inkscape:connector-curvature="0"
         id="path3982"
         d="M -0.24,595.138 H 317.24 V -0.138 H -0.24 Z" />
    </clipPath>
    <clipPath
       id="clipPath3988">
      <path
         inkscape:connector-curvature="0"
         id="path3990"
         d="M 0.03,595.32 H 317.49 V 0 H 0.03 Z" />
    </clipPath>
    <clipPath
       id="clipPath4010">
      <path
         inkscape:connector-curvature="0"
         id="path4012"
         d="M -0.24,595.138 H 317.24 V -0.138 H -0.24 Z" />
    </clipPath>
    <clipPath
       id="clipPath4016">
      <path
         inkscape:connector-curvature="0"
         id="path4018"
         d="M 0.03,595.32 H 317.49 V 0 H 0.03 Z" />
    </clipPath>
    <clipPath
       id="clipPath4062">
      <path
         inkscape:connector-curvature="0"
         id="path4064"
         d="m 200.163,177.773 v -28.284 h 28.283 v 28.284" />
    </clipPath>
    <clipPath
       id="clipPath4090">
      <path
         inkscape:connector-curvature="0"
         id="path4092"
         d="m 34.886,177.515 v -51.632 h 30.367 v 51.632" />
    </clipPath>
    <clipPath
       id="clipPath4106">
      <path
         inkscape:connector-curvature="0"
         id="path4108"
         d="m 34.886,177.515 v -51.632 h 30.367 v 51.632" />
    </clipPath>
    <clipPath
       id="clipPath4272">
      <path
         inkscape:connector-curvature="0"
         id="path4274"
         d="m 34.886,177.515 v -51.632 h 30.367 v 51.632" />
    </clipPath>
    <clipPath
       id="clipPath4304">
      <path
         inkscape:connector-curvature="0"
         id="path4306"
         d="m 254.653,176.442 v -48.167 h 28.317 v 48.167" />
    </clipPath>
    <clipPath
       id="clipPath4310">
      <path
         inkscape:connector-curvature="0"
         id="path4312"
         d="m 253.565,177.983 h 31.181 V 128.8 h -31.181 z" />
    </clipPath>
    <clipPath
       id="clipPath4316">
      <path
         inkscape:connector-curvature="0"
         id="path4318"
         d="M -0.24,595.138 H 317.24 V -0.138 H -0.24 Z" />
    </clipPath>
    <clipPath
       id="clipPath4322">
      <path
         inkscape:connector-curvature="0"
         id="path4324"
         d="M 0.03,595.32 H 317.49 V 0 H 0.03 Z" />
    </clipPath>
    <clipPath
       id="clipPath4456">
      <path
         inkscape:connector-curvature="0"
         id="path4458"
         d="M -0.24,595.138 H 317.24 V -0.138 H -0.24 Z" />
    </clipPath>
    <clipPath
       id="clipPath4464">
      <path
         inkscape:connector-curvature="0"
         id="path4466"
         d="M 0.03,595.32 H 317.49 V 0 H 0.03 Z" />
    </clipPath>
  </defs>
  <sodipodi:namedview
     pagecolor="#ffffff"
     bordercolor="#666666"
     borderopacity="1"
     objecttolerance="10"
     gridtolerance="10"
     guidetolerance="10"
     inkscape:pageopacity="0"
     inkscape:pageshadow="2"
     inkscape:window-width="1920"
     inkscape:window-height="1027"
     id="namedview12"
     showgrid="false"
     inkscape:zoom="0.42131779"
     inkscape:cx="170.55007"
     inkscape:cy="252.3805"
     inkscape:window-x="-8"
     inkscape:window-y="-8"
     inkscape:window-maximized="1"
     inkscape:current-layer="g214" />
  <g
     id="g214"
     transform="matrix(-1.6227733,0,0,-1.6227733,-49.496368,555.56836)">
    <path
       sodipodi:nodetypes="scccscscccss"
       inkscape:connector-curvature="0"
       id="path3101"
       d="m -411.84604,-18.683932 c -9.82369,0 -18.82982,5.1737 -23.67103,13.6233568 -4.86689,8.4368068 -4.86689,18.8557212 0,27.3182272 l 176.923,306.512038 c 4.8926,8.4368 13.8428,13.5876 23.56376,13.5876 0.0357,0 0.0715,1.3e-4 0.10721,0 0.0357,1.3e-4 0.0715,0 0.10722,0 9.72096,0 18.67118,-5.1508 23.56376,-13.5876 L -34.151274,22.257652 c 4.866901,-8.462506 4.866901,-18.8814204 0,-27.3182272 -4.841213,-8.4496568 -13.847326,-13.6233568 -23.67103,-13.6233568 z"
       style="fill:#dc0a14;fill-opacity:1;fill-rule:evenodd;stroke:none;stroke-width:1.14421892;stroke-opacity:1" />
    <path
       sodipodi:nodetypes="cccc"
       d="M -69.305379,14.972753 H -395.98405 L -234.1431,300.58311 Z"
       id="path3121"
       style="fill:#ffffff;fill-opacity:1;fill-rule:evenodd;stroke:none;stroke-width:1.13712609;stroke-opacity:1"
       inkscape:connector-curvature="0" />
  </g>
  <g
     transform="matrix(3.5263866,0,0,3.5263866,-4266.032,868.08733)"
     id="layer1"
     inkscape:label="Layer 1">
    <rect
       y="-192.52917"
       x="1285.8121"
       height="92.420502"
       width="33.978127"
       id="rect9565"
       style="opacity:1;fill:#000000;fill-opacity:1;fill-rule:nonzero;stroke:none;stroke-width:0;stroke-linecap:square;stroke-linejoin:miter;stroke-miterlimit:10;stroke-dasharray:none;stroke-opacity:1;paint-order:fill markers stroke" />
    <path
       id="path9567"
       transform="matrix(0.26458332,0,0,0.26458332,1173.048,-335.22175)"
       style="opacity:1;fill:#ffe514;fill-opacity:1;fill-rule:nonzero;stroke:none;stroke-width:0;stroke-linecap:square;stroke-linejoin:miter;stroke-miterlimit:10;stroke-dasharray:none;stroke-opacity:1;paint-order:fill markers stroke"
       d="m 490.40625,667.73242 c -25.53287,-4.2e-4 -46.23177,20.6976 -46.23242,46.23047 -4.2e-4,25.53363 20.69878,46.23284 46.23242,46.23242 25.53364,4.2e-4 46.23284,-20.69879 46.23242,-46.23242 -6.5e-4,-25.53287 -20.69955,-46.23089 -46.23242,-46.23047 z"
       inkscape:connector-curvature="0"
       sodipodi:nodetypes="ccccc" />
    <path
       id="ellipse9569"
       transform="matrix(0.26458332,0,0,0.26458332,1173.048,-335.22175)"
       style="opacity:1;fill:#1fa928;fill-opacity:1;fill-rule:nonzero;stroke:none;stroke-width:0;stroke-linecap:square;stroke-linejoin:miter;stroke-miterlimit:10;stroke-dasharray:none;stroke-opacity:1;paint-order:fill markers stroke"
       d="m 490.40625,770.46875 c -25.53364,-4.2e-4 -46.23284,20.69879 -46.23242,46.23242 6.5e-4,25.53287 20.69955,46.23089 46.23242,46.23047 25.53287,4.2e-4 46.23177,-20.6976 46.23242,-46.23047 4.2e-4,-25.53363 -20.69878,-46.23284 -46.23242,-46.23242 z"
       inkscape:connector-curvature="0"
       sodipodi:nodetypes="ccccc" />
    <path
       id="ellipse9574"
       transform="matrix(0.26458332,0,0,0.26458332,1173.048,-335.22175)"
       style="opacity:1;fill:#b50300;fill-opacity:1;fill-rule:nonzero;stroke:none;stroke-width:0;stroke-linecap:square;stroke-linejoin:miter;stroke-miterlimit:10;stroke-dasharray:none;stroke-opacity:1;paint-order:fill markers stroke"
       d="m 490.40625,564.99414 c -25.53364,-4.2e-4 -46.23284,20.69879 -46.23242,46.23242 -4.2e-4,25.53363 20.69878,46.23284 46.23242,46.23242 25.53364,4.2e-4 46.23284,-20.69879 46.23242,-46.23242 4.2e-4,-25.53363 -20.69878,-46.23284 -46.23242,-46.23242 z"
       inkscape:connector-curvature="0"
       sodipodi:nodetypes="ccccc" />
  </g>
</svg>
