<?xml version="1.0" encoding="utf-8"?>
<svg viewBox="0 0 500 500" width="500px" height="500px" xmlns="http://www.w3.org/2000/svg">
  <defs>
    <style>
      .cls-1, .cls-2, .cls-7 {
        fill: #fff;
      }

      .cls-2 {
        stroke: #000;
        stroke-linejoin: round;
        stroke-width: 10px;
      }

      .cls-2, .cls-3, .cls-5, .cls-7 {
        fill-rule: evenodd;
      }

      .cls-3 {
        fill: #ff1b2b;
      }

      .cls-4 {
        font-size: 36.01px;
        font-family: "Ubuntu Arabic";
        font-weight: 700;
      }

      .cls-6 {
        font-size: 15.01px;
        opacity: 0.21;
        fill: #ff8080;
        font-family: "Segoe UI Emoji";
      }
    </style>
  </defs>
  <rect class="cls-1" x="-4" y="-3" width="509" height="506"/>
  <g id="_2" data-name="2">
    <path class="cls-2" d="M326.9,6.943H470.413V485.337H326.9V6.943Z"/>
  </g>
  <g id="_3" data-name="3">
    <path id="Color_Fill_3_copy_3" data-name="Color Fill 3 copy 3" class="cls-3" d="M466.009,223.008v43.416L331.986,333V291.027Z"/>
    <path id="Color_Fill_3_copy_6" data-name="Color Fill 3 copy 6" class="cls-3" d="M466.009,307.008v43.416L331.986,417V375.027Z"/>
    <path d="M 369.33 187.729 L 364.446 187.729 L 364.446 150.825 Q 363.88 151.391 362.793 152.121 Q 361.705 152.851 360.35 153.565 Q 358.995 154.28 357.491 154.906 Q 355.987 155.531 354.557 155.889 L 354.557 150.944 Q 356.165 150.498 357.967 149.738 Q 359.769 148.979 361.512 148.04 Q 363.254 147.102 364.803 146.074 Q 366.352 145.047 367.484 144.064 L 369.33 144.064 Z M 405.838 156.216 Q 405.838 154.25 405.228 152.791 Q 404.617 151.332 403.56 150.364 Q 402.502 149.396 401.073 148.919 Q 399.643 148.442 397.975 148.442 Q 396.545 148.442 395.175 148.83 Q 393.805 149.217 392.509 149.902 Q 391.214 150.587 390.007 151.54 Q 388.801 152.493 387.759 153.655 L 387.759 148.413 Q 389.814 146.417 392.36 145.36 Q 394.907 144.302 398.571 144.302 Q 401.192 144.302 403.426 145.062 Q 405.66 145.821 407.298 147.281 Q 408.936 148.74 409.874 150.885 Q 410.812 153.029 410.812 155.799 Q 410.812 158.331 410.232 160.386 Q 409.651 162.441 408.474 164.258 Q 407.298 166.075 405.511 167.743 Q 403.724 169.411 401.311 171.139 Q 398.303 173.283 396.352 174.802 Q 394.401 176.321 393.254 177.647 Q 392.107 178.972 391.646 180.298 Q 391.184 181.623 391.184 183.351 L 412.451 183.351 L 412.451 187.729 L 386.091 187.729 L 386.091 185.614 Q 386.091 182.874 386.686 180.789 Q 387.282 178.704 388.652 176.828 Q 390.022 174.951 392.241 173.075 Q 394.46 171.198 397.677 168.845 Q 400 167.177 401.564 165.658 Q 403.128 164.139 404.081 162.62 Q 405.034 161.101 405.436 159.537 Q 405.838 157.974 405.838 156.216 Z M 448.319 166.194 Q 448.319 171.556 447.351 175.696 Q 446.383 179.836 444.551 182.68 Q 442.719 185.525 440.053 186.999 Q 437.388 188.474 433.992 188.474 Q 430.775 188.474 428.258 187.059 Q 425.742 185.644 424.014 182.934 Q 422.286 180.223 421.393 176.277 Q 420.499 172.33 420.499 167.237 Q 420.499 161.637 421.438 157.348 Q 422.376 153.059 424.193 150.155 Q 426.01 147.251 428.705 145.777 Q 431.401 144.302 434.886 144.302 Q 448.319 144.302 448.319 166.194 Z M 443.315 166.671 Q 443.315 148.442 434.647 148.442 Q 425.503 148.442 425.503 166.999 Q 425.503 184.304 434.469 184.304 Q 443.315 184.304 443.315 166.671 Z" style="line-height: 67.3103px; white-space: pre;"/>
  </g>
  <path id="Color_Fill_3_copy_5" data-name="Color Fill 3 copy 5" class="cls-5" d="M473.661,19.641V55.2L330.143,132.726V98.351Z"/>
  <path transform="matrix(1.131, 0, 0, 1.131, 194.306, 465.813995)" style="white-space: pre;"/>
  <path id="Color_Fill_3" data-name="Color Fill 3" class="cls-7" d="M477.661,38.487l-181.21,98.578V-19.5h182.66Q478.386,9.493,477.661,38.487Z"/>
  <g id="_2-2" data-name="2">
    <path class="cls-2" d="M26.83,6.943H170.348V485.337H26.83V6.943Z"/>
  </g>
  <g id="_3-2" data-name="3">
    <path id="Color_Fill_3_copy_3-2" data-name="Color Fill 3 copy 3" class="cls-3" d="M31.984,223.008v43.416L165.006,333V291.027Z"/>
    <path id="Color_Fill_3_copy_7" data-name="Color Fill 3 copy 7" class="cls-3" d="M31.984,308.008v43.416L165.006,418V376.027Z"/>
  </g>
  <path id="Color_Fill_3_copy_5-2" data-name="Color Fill 3 copy 5" class="cls-5" d="M24.031,18.641V54.2L167.55,131.726V97.351Z"/>
  <path id="Color_Fill_3_copy" data-name="Color Fill 3 copy" class="cls-7" d="M-0.714,24.99L180.5,123.568V-33H-2.164Z"/>
  <path d="M 64.496 188.764 L 59.612 188.764 L 59.612 151.86 Q 59.046 152.426 57.959 153.156 Q 56.871 153.886 55.516 154.6 Q 54.161 155.315 52.657 155.941 Q 51.153 156.566 49.723 156.924 L 49.723 151.979 Q 51.331 151.533 53.133 150.773 Q 54.935 150.014 56.678 149.075 Q 58.42 148.137 59.969 147.109 Q 61.518 146.082 62.65 145.099 L 64.496 145.099 Z M 101.004 157.251 Q 101.004 155.285 100.394 153.826 Q 99.783 152.367 98.726 151.399 Q 97.668 150.431 96.239 149.954 Q 94.809 149.477 93.141 149.477 Q 91.711 149.477 90.341 149.865 Q 88.971 150.252 87.675 150.937 Q 86.38 151.622 85.173 152.575 Q 83.967 153.528 82.925 154.69 L 82.925 149.448 Q 84.98 147.452 87.526 146.395 Q 90.073 145.337 93.737 145.337 Q 96.358 145.337 98.592 146.097 Q 100.826 146.856 102.464 148.316 Q 104.102 149.775 105.04 151.92 Q 105.978 154.064 105.978 156.834 Q 105.978 159.366 105.398 161.421 Q 104.817 163.476 103.64 165.293 Q 102.464 167.11 100.677 168.778 Q 98.89 170.446 96.477 172.174 Q 93.469 174.318 91.518 175.837 Q 89.567 177.356 88.42 178.682 Q 87.273 180.007 86.812 181.333 Q 86.35 182.658 86.35 184.386 L 107.617 184.386 L 107.617 188.764 L 81.257 188.764 L 81.257 186.649 Q 81.257 183.909 81.852 181.824 Q 82.448 179.739 83.818 177.863 Q 85.188 175.986 87.407 174.11 Q 89.626 172.233 92.843 169.88 Q 95.166 168.212 96.73 166.693 Q 98.294 165.174 99.247 163.655 Q 100.2 162.136 100.602 160.572 Q 101.004 159.009 101.004 157.251 Z M 143.485 167.229 Q 143.485 172.591 142.517 176.731 Q 141.549 180.871 139.717 183.715 Q 137.885 186.56 135.219 188.034 Q 132.554 189.509 129.158 189.509 Q 125.941 189.509 123.424 188.094 Q 120.908 186.679 119.18 183.969 Q 117.453 181.258 116.559 177.312 Q 115.665 173.365 115.665 168.272 Q 115.665 162.672 116.604 158.383 Q 117.542 154.094 119.359 151.19 Q 121.176 148.286 123.871 146.812 Q 126.567 145.337 130.052 145.337 Q 143.485 145.337 143.485 167.229 Z M 138.481 167.706 Q 138.481 149.477 129.813 149.477 Q 120.669 149.477 120.669 168.034 Q 120.669 185.339 129.635 185.339 Q 138.481 185.339 138.481 167.706 Z" style="line-height: 67.3103px; white-space: pre;"/>
</svg>