<svg id="_1_copy_3" data-name="1 copy 3" xmlns="http://www.w3.org/2000/svg" width="500" height="500" viewBox="0 0 500 500">
  <defs>
    <style>
      .cls-1, .cls-2, .cls-3, .cls-4 {
        fill: #fff;
      }

      .cls-2, .cls-3 {
        stroke: #000;
        stroke-linejoin: round;
        stroke-width: 10px;
      }

      .cls-3, .cls-4, .cls-5, .cls-6 {
        fill-rule: evenodd;
      }

      .cls-5 {
        fill: #ff1b2b;
      }

      .cls-7 {
        font-size: 15.01px;
        opacity: 0.21;
        fill: #ff8080;
        font-family: "Segoe UI Emoji";
      }
    </style>
  </defs>
  <rect class="cls-1" x="-4" y="-3" width="509" height="506"/>
  <g id="_2" data-name="2">
    <rect class="cls-2" x="335" y="164" width="99" height="330"/>
  </g>
  <g id="_1" data-name="1">
    <path id="Color_Fill_1" data-name="Color Fill 1" class="cls-3" d="M487,175L384,6,281,175H487Z"/>
    <g>
      <path id="Color_Fill_2_copy" data-name="Color Fill 2 copy" class="cls-4" d="M436,116c3.667-3,12.333-11,16-14,3.333,5.333,7.667,10.667,11,16-3.333,3.333-5.45,4.538-16,15S419.269,129.755,436,116Z"/>
      <path id="Color_Fill_2_copy_7" data-name="Color Fill 2 copy 7" class="cls-4" d="M402,64c3.667-3,12.333-11,16-14,3.333,5.333,7.667,10.667,11,16-3.333,3.333-5.45,4.537-16,15S385.269,77.755,402,64Z"/>
      <path id="Color_Fill_2_copy_8" data-name="Color Fill 2 copy 8" class="cls-4" d="M362,68c-3.667-3-12.333-11-16-14-3.333,5.333-7.667,10.667-11,16,3.333,3.333,5.45,4.537,16,15S378.731,81.755,362,68Z"/>
      <path id="Color_Fill_2_copy_10" data-name="Color Fill 2 copy 10" class="cls-4" d="M331,119c-3.667-3-12.333-11-16-14-3.333,5.333-7.667,10.667-11,16,3.333,3.333,5.45,4.538,16,15S347.731,132.755,331,119Z"/>
    </g>
    <path id="Color_Fill_2_copy_2" data-name="Color Fill 2 copy 2" class="cls-4" d="M340,180V165h23v15H340Z"/>
    <path id="Color_Fill_2_copy_4" data-name="Color Fill 2 copy 4" class="cls-4" d="M406,180V165h40v15H406Z"/>
  </g>
  <g id="_3" data-name="3">
    <path id="Color_Fill_3_copy_4" data-name="Color Fill 3 copy 4" class="cls-5" d="M429,349v30l-89,46V396Z"/>
  </g>
  <path id="Color_Fill_3_copy_5" data-name="Color Fill 3 copy 5" class="cls-6" d="M439,170v24.53l-99,53.477V224.3Z"/>
  <path id="Color_Fill_2" data-name="Color Fill 2" class="cls-6" d="M398,323V298H374v9l-15-13,15-12v8h33v33h-9Z"/>
  <g id="_2-2" data-name="2">
    <rect class="cls-2" x="64" y="164" width="99" height="330"/>
  </g>
  <g id="_1-2" data-name="1">
    <path id="Color_Fill_1-2" data-name="Color Fill 1" class="cls-3" d="M11,175L114,6,217,175H11Z"/>
    <g>
      <path id="Color_Fill_2_copy-2" data-name="Color Fill 2 copy" class="cls-4" d="M62,116c-3.667-3-12.333-11-16-14-3.333,5.333-7.667,10.667-11,16,3.333,3.333,5.45,4.538,16,15S78.731,129.755,62,116Z"/>
      <path id="Color_Fill_2_copy_7-2" data-name="Color Fill 2 copy 7" class="cls-4" d="M96,64c-3.667-3-12.333-11-16-14-3.333,5.333-7.667,10.667-11,16,3.333,3.333,5.45,4.537,16,15S112.731,77.755,96,64Z"/>
      <path id="Color_Fill_2_copy_8-2" data-name="Color Fill 2 copy 8" class="cls-4" d="M136,68c3.667-3,12.333-11,16-14,3.333,5.333,7.667,10.667,11,16-3.333,3.333-5.45,4.537-16,15S119.269,81.755,136,68Z"/>
      <path id="Color_Fill_2_copy_10-2" data-name="Color Fill 2 copy 10" class="cls-4" d="M167,119c3.667-3,12.333-11,16-14,3.333,5.333,7.667,10.667,11,16-3.333,3.333-5.45,4.538-16,15S150.269,132.755,167,119Z"/>
    </g>
    <path id="Color_Fill_2_copy_2-2" data-name="Color Fill 2 copy 2" class="cls-4" d="M158,180V165H135v15h23Z"/>
    <path id="Color_Fill_2_copy_4-2" data-name="Color Fill 2 copy 4" class="cls-4" d="M92,180V165H52v15H92Z"/>
  </g>
  <g id="_3-2" data-name="3">
    <path id="Color_Fill_3_copy_4-2" data-name="Color Fill 3 copy 4" class="cls-5" d="M69,349v30l89,46V396Z"/>
  </g>
  <path id="Color_Fill_3_copy_5-2" data-name="Color Fill 3 copy 5" class="cls-6" d="M59,170v24.53l99,53.477V224.3Z"/>
  <path id="Color_Fill_2-2" data-name="Color Fill 2" class="cls-6" d="M128,323V298H104v9L89,294l15-12v8h33v33h-9Z"/>
  <text id="teoria.pmix.net" class="cls-7" x="204.91" y="478.346">teoria.pmix.net</text>
</svg>
