<?xml version="1.0" encoding="UTF-8" standalone="no"?>
<svg
   viewBox="0 0 568.125 497.228"
   height="497.228"
   width="568.125"
   xml:space="preserve"
   version="1.1"
   id="svg3522"
   sodipodi:docname="Tram_sign_israel.svg"
   inkscape:version="1.1.2 (b8e25be833, 2022-02-05)"
   xmlns:inkscape="http://www.inkscape.org/namespaces/inkscape"
   xmlns:sodipodi="http://sodipodi.sourceforge.net/DTD/sodipodi-0.dtd"
   xmlns="http://www.w3.org/2000/svg"
   xmlns:svg="http://www.w3.org/2000/svg"
   xmlns:rdf="http://www.w3.org/1999/02/22-rdf-syntax-ns#"
   xmlns:cc="http://creativecommons.org/ns#"
   xmlns:dc="http://purl.org/dc/elements/1.1/"><sodipodi:namedview
     id="namedview11"
     pagecolor="#ffffff"
     bordercolor="#666666"
     borderopacity="1.0"
     inkscape:pageshadow="2"
     inkscape:pageopacity="0.0"
     inkscape:pagecheckerboard="true"
     showgrid="false"
     showguides="true"
     inkscape:guide-bbox="true"
     inkscape:snap-intersection-paths="true"
     inkscape:snap-smooth-nodes="true"
     inkscape:snap-bbox="true"
     inkscape:snap-bbox-edge-midpoints="true"
     inkscape:bbox-nodes="true"
     inkscape:zoom="1"
     inkscape:cx="362.5"
     inkscape:cy="277.5"
     inkscape:window-width="1920"
     inkscape:window-height="1001"
     inkscape:window-x="-9"
     inkscape:window-y="-9"
     inkscape:window-maximized="1"
     inkscape:current-layer="svg3522"
     width="568.125px"
     inkscape:snap-global="false" /><metadata
     id="metadata3528"><rdf:RDF><cc:Work
         rdf:about=""><dc:format>image/svg+xml</dc:format><dc:type
           rdf:resource="http://purl.org/dc/dcmitype/StillImage" /></cc:Work></rdf:RDF></metadata><defs
     id="defs3526" /><path
     id="rect2419"
     style="display:inline;fill:#ffffff;fill-opacity:1;stroke-width:1.41526;stroke-linecap:round"
     d="M 284.06233,42.768626 519.25791,454.45937 H 48.866745 Z"
     sodipodi:nodetypes="cccc" /><path
     id="path1287-2"
     style="display:inline;fill:#c0111e;fill-opacity:1;fill-rule:nonzero;stroke:none;stroke-width:0.859147"
     d="M 284.06233,4.5425685e-4 C 277.94091,-0.04336226 271.21873,3.083666 267.92647,8.9396153 L 2.1975383,469.35001 C 0.66396013,472.48418 0.01976039,475.20891 0,478.32676 0,489.21753 8.9379258,497.228 18.874395,497.228 H 549.25027 c 9.93647,0 18.87439,-8.01047 18.87439,-18.90124 -0.0197,-3.11785 -0.66396,-5.84258 -2.19753,-8.97675 L 300.19819,8.9396153 C 296.90594,3.083666 290.18376,-0.04336226 284.06233,4.5425685e-4 Z M 283.78714,91.251306 l 0.27519,0.476559 0.2752,-0.476559 L 487.1272,442.24256 H 80.997471 Z"
     sodipodi:nodetypes="cccccccccccccccc" /><path
     id="path1578"
     style="fill:#000000;stroke-width:0.187643;fill-opacity:0"
     d="M 245.20117 235.59766 L 190.24023 290.55664 L 190.24023 368.28125 L 245.20117 423.24023 L 322.92383 423.24023 L 377.88477 368.28125 L 377.88477 290.55664 L 322.92383 235.59766 L 245.20117 235.59766 z M 246.82031 239.50781 L 321.30469 239.50781 L 373.97461 292.17578 L 373.97461 366.66211 L 321.30469 419.33203 L 246.82031 419.33203 L 194.15039 366.66211 L 194.15039 292.17578 L 246.82031 239.50781 z " /><path
     id="use15"
     style="fill:#000000;stroke-width:0.156369;fill-opacity:1"
     d="M 251.67773 251.23438 L 205.87695 297.03516 L 205.87695 361.80469 L 251.67773 407.60352 L 316.44727 407.60352 L 362.24609 361.80469 L 362.24609 297.03516 L 316.44727 251.23438 L 251.67773 251.23438 z M 283.97852 272.77344 L 288.38281 286.68359 L 298.63672 285.99609 z " /></svg>
