<?xml version="1.0" encoding="utf-8"?>
<svg viewBox="0 0 91 80.537003" width="91mm" height="80.537mm" xmlns="http://www.w3.org/2000/svg">
  <g id="layer1" transform="matrix(1, 0, 0, 1, 0, -216.462997)">
    <path id="path814" d="M 84.550414,290.54997 45.499941,222.91262 6.4496006,290.54992 Z" style="opacity: 1; fill: none; fill-opacity: 1; stroke: rgb(220, 10, 20); stroke-width: 11.9001; stroke-linecap: butt; stroke-linejoin: round; stroke-miterlimit: 4; stroke-dasharray: none; stroke-dashoffset: 0; stroke-opacity: 1;"/>
    <path id="path818" d="M 81.173022,288.59999 45.499989,226.81248 9.8269506,288.59995 Z" style="opacity:1;fill:#ffffff;fill-opacity:1;stroke:none;stroke-width:11.93114281;stroke-linecap:butt;stroke-linejoin:round;stroke-miterlimit:4;stroke-dasharray:none;stroke-dashoffset:0;stroke-opacity:1"/>
    <path style="opacity: 0.99; stroke-width: 0px; stroke: rgb(0, 0, 0);" d="M 68.721 288.627 L 63.562 288.604 C 63.537 288.629 67.933 282.532 60.703 281.791 C 51.98 280.898 30.112 283.24 25.18 277.473 C 23.225 274.629 33.605 272.976 33.451 273.762 C 33.097 273.352 27.377 276.054 29.62 277.168 C 41.727 281.796 66.838 277.279 68.731 282.277 C 70.014 285.662 68.66 288.75 68.721 288.627 Z"/>
    <path style="stroke-width: 0px; stroke: rgb(0, 0, 0);" d="M 51.396 276.256 C 51.403 276.217 46.424 277.003 44.956 278.489 C 42.684 280.92 45.961 282.466 48.719 282.522 C 54.324 282.901 55.37 287.341 53.621 288.634 L 48.015 288.621 C 48.464 288.806 49.712 285.953 47.626 284.956 C 44.848 283.627 41.698 284.84 41.116 280.392 C 40.627 275.473 51.479 275.163 51.396 276.256 Z"/>
    <path id="path2764" d="M 48.535 252.128 C 46.231 251.401 43.752 250.701 42.165 250.589 C 40.773 250.491 40.666 250.43 39.786 251.834 L 36.615 256.582 C 35.919 256.651 34.8 257.323 34.273 258.871 L 33.195 263.483 C 33.012 264.354 32.996 265.443 33.521 266.039 L 32.554 269.016 L 35.502 269.974 L 36.46 267.026 C 38.315 267.78 43.914 269.664 44.672 269.905 C 45.427 270.156 51.065 271.923 53.009 272.403 L 52.051 275.351 L 54.999 276.309 L 55.966 273.332 C 56.741 273.159 57.368 272.267 57.732 271.456 L 59.571 267.091 C 60.054 265.529 59.544 264.328 59.022 263.863 L 59.149 257.811 C 59.262 256.159 58.839 256.149 57.754 255.666 C 56.46 255.103 54.287 254.019 51.997 253.253 L 48.535 252.128 Z" style="fill:#000000;fill-opacity:1;fill-rule:nonzero;stroke:none;stroke-width:0.17403179" transform="matrix(0.989425, -0.145048, 0.145048, 0.989425, -37.728083, 9.481644)"/>
    <path id="path2766" d="M 37.592 256.685 L 39.873 252.736 C 40.283 252.087 41.028 251.865 41.61 251.955 L 44.1 252.512 C 45.174 252.735 47.626 253.475 48.929 253.892 C 50.23 254.321 52.648 255.163 53.648 255.614 L 55.99 256.628 C 56.514 256.896 56.986 257.514 56.935 258.28 L 56.46 262.816 C 52.867 261.29 49.389 260.079 47.168 259.313 C 44.921 258.627 41.395 257.563 37.592 256.685 Z" style="fill:#ffffff;fill-opacity:1;fill-rule:nonzero;stroke:none;stroke-width:0.17403181" transform="matrix(0.989425, -0.145048, 0.145048, 0.989425, -36.831992, 9.577591)"/>
    <path d="M 46.536 263.247 C 49.543 263.357 49.517 262.445 49.645 264.085 C 49.773 265.725 49.435 264.986 46.536 264.986 C 43.636 264.986 43.69 265.445 43.495 264.117 C 43.299 262.789 43.528 263.137 46.536 263.247 Z" style="stroke-width: 0px; fill-rule: nonzero; stroke-linejoin: round; stroke-dashoffset: -11px; fill: rgb(206, 206, 206);" transform="matrix(0.986161, 0.165789, -0.165789, 0.986161, 44.432791, -4.06325)"/>
    <ellipse style="fill: rgb(216, 216, 216);" cx="58.327" cy="265.252" rx="0.981" ry="1.336" transform="matrix(0.987986, 0.154545, -0.154545, 0.987986, 41.083169, -6.200451)"/>
    <ellipse style="fill: rgb(216, 216, 216);" cx="55.814" cy="264.792" rx="0.993" ry="1.284" transform="matrix(0.916649, 0.399693, -0.309263, 0.95608, 66.611023, -14.405225)"/>
    <path d="M 32.714 293.241 C 32.61 293.263 32.527 293.273 32.463 293.273 C 32.371 293.273 32.293 293.258 32.227 293.228 C 32.161 293.198 32.112 293.152 32.08 293.09 C 32.047 293.027 32.031 292.916 32.031 292.756 L 32.031 291.404 L 31.751 291.404 L 31.751 291.225 L 32.031 291.225 L 32.031 290.709 L 32.27 290.557 L 32.27 291.225 L 32.65 291.225 L 32.65 291.404 L 32.27 291.404 L 32.27 292.726 C 32.27 292.819 32.276 292.889 32.289 292.936 C 32.301 292.983 32.324 293.018 32.359 293.041 C 32.394 293.063 32.439 293.075 32.496 293.075 C 32.54 293.075 32.602 293.066 32.683 293.05 L 32.714 293.241 Z M 34.72 292.264 L 33.168 292.264 C 33.172 292.524 33.234 292.727 33.353 292.874 C 33.472 293.02 33.637 293.094 33.847 293.094 C 34.141 293.094 34.346 292.93 34.463 292.604 L 34.695 292.643 C 34.616 292.873 34.505 293.037 34.362 293.137 C 34.22 293.237 34.044 293.286 33.833 293.286 C 33.548 293.286 33.325 293.192 33.164 293.004 C 33.002 292.815 32.922 292.558 32.922 292.233 C 32.922 291.908 33.003 291.651 33.165 291.463 C 33.327 291.274 33.551 291.18 33.837 291.18 C 34.421 291.18 34.715 291.541 34.72 292.264 Z M 34.463 292.068 C 34.426 291.603 34.216 291.37 33.831 291.37 C 33.656 291.37 33.51 291.43 33.391 291.551 C 33.271 291.671 33.199 291.843 33.175 292.068 L 34.463 292.068 Z M 36.873 292.237 C 36.873 292.57 36.795 292.827 36.638 293.011 C 36.481 293.194 36.259 293.286 35.973 293.286 C 35.834 293.286 35.711 293.262 35.602 293.214 C 35.493 293.165 35.398 293.094 35.317 292.998 C 35.236 292.902 35.176 292.792 35.135 292.666 C 35.095 292.541 35.074 292.401 35.074 292.246 C 35.074 292.086 35.092 291.943 35.127 291.817 C 35.162 291.69 35.216 291.581 35.287 291.489 C 35.357 291.397 35.447 291.323 35.556 291.266 C 35.664 291.209 35.803 291.18 35.974 291.18 C 36.249 291.18 36.467 291.269 36.629 291.447 C 36.792 291.625 36.873 291.889 36.873 292.237 Z M 36.629 292.237 C 36.629 292.057 36.602 291.902 36.549 291.772 C 36.496 291.642 36.422 291.543 36.327 291.476 C 36.233 291.409 36.117 291.375 35.981 291.375 C 35.772 291.375 35.61 291.452 35.495 291.607 C 35.381 291.76 35.324 291.967 35.324 292.227 C 35.324 292.484 35.382 292.692 35.498 292.854 C 35.614 293.014 35.776 293.095 35.984 293.095 C 36.081 293.095 36.167 293.077 36.243 293.042 C 36.32 293.006 36.387 292.952 36.446 292.879 C 36.504 292.806 36.549 292.714 36.581 292.606 C 36.613 292.497 36.629 292.374 36.629 292.237 Z M 38.411 291.302 L 38.319 291.506 C 38.198 291.455 38.107 291.429 38.048 291.429 C 38.001 291.429 37.958 291.436 37.919 291.452 C 37.88 291.467 37.843 291.49 37.808 291.524 C 37.773 291.556 37.743 291.594 37.718 291.638 C 37.693 291.681 37.674 291.729 37.661 291.782 C 37.649 291.834 37.637 291.912 37.627 292.015 C 37.616 292.118 37.611 292.211 37.611 292.294 L 37.611 293.241 L 37.375 293.241 L 37.375 291.225 L 37.584 291.225 L 37.584 291.633 C 37.683 291.331 37.84 291.18 38.054 291.18 C 38.164 291.18 38.283 291.22 38.411 291.302 Z M 38.908 290.813 L 38.67 290.813 L 38.67 290.459 L 38.908 290.459 L 38.908 290.813 Z M 38.908 293.241 L 38.67 293.241 L 38.67 291.225 L 38.908 291.225 L 38.908 293.241 Z M 41.196 293.241 L 40.938 293.241 C 40.901 293.146 40.876 293.044 40.864 292.934 C 40.646 293.169 40.372 293.286 40.04 293.286 C 39.919 293.286 39.811 293.265 39.716 293.224 C 39.621 293.181 39.545 293.118 39.488 293.034 C 39.431 292.95 39.403 292.847 39.403 292.727 C 39.403 292.641 39.416 292.566 39.442 292.499 C 39.469 292.431 39.509 292.373 39.563 292.322 C 39.617 292.271 39.69 292.228 39.782 292.192 C 39.874 292.156 40.039 292.121 40.278 292.088 C 40.543 292.052 40.731 292.013 40.841 291.971 C 40.841 291.856 40.838 291.768 40.831 291.706 C 40.825 291.644 40.803 291.586 40.767 291.532 C 40.73 291.477 40.674 291.436 40.598 291.407 C 40.521 291.378 40.427 291.364 40.315 291.364 C 39.967 291.364 39.757 291.513 39.686 291.811 L 39.446 291.775 C 39.52 291.378 39.81 291.18 40.314 291.18 C 40.472 291.18 40.605 291.198 40.713 291.234 C 40.82 291.27 40.9 291.321 40.953 291.388 C 41.006 291.454 41.04 291.536 41.056 291.633 C 41.072 291.731 41.08 291.865 41.08 292.036 L 41.073 292.604 C 41.071 292.755 41.078 292.872 41.094 292.953 C 41.11 293.034 41.144 293.13 41.196 293.241 Z M 40.841 292.288 L 40.841 292.158 C 40.707 292.209 40.494 292.259 40.204 292.31 C 40.05 292.337 39.938 292.365 39.867 292.393 C 39.796 292.422 39.742 292.463 39.706 292.517 C 39.67 292.571 39.652 292.635 39.652 292.709 C 39.652 292.818 39.693 292.907 39.774 292.974 C 39.855 293.041 39.96 293.075 40.089 293.075 C 40.164 293.075 40.239 293.065 40.312 293.045 C 40.386 293.025 40.458 292.996 40.528 292.957 C 40.599 292.917 40.658 292.87 40.705 292.815 C 40.752 292.759 40.786 292.688 40.808 292.601 C 40.83 292.514 40.841 292.409 40.841 292.288 Z M 42.098 293.241 L 41.768 293.241 L 41.768 292.873 L 42.098 292.873 L 42.098 293.241 Z M 43.012 292.936 L 43.012 294.012 L 42.776 294.012 L 42.776 291.225 L 43.012 291.225 L 43.012 291.554 C 43.219 291.305 43.472 291.18 43.769 291.18 C 43.903 291.18 44.022 291.201 44.128 291.245 C 44.234 291.288 44.327 291.353 44.407 291.443 C 44.487 291.532 44.55 291.643 44.596 291.775 C 44.642 291.906 44.665 292.053 44.665 292.216 C 44.665 292.538 44.584 292.797 44.423 292.993 C 44.262 293.189 44.037 293.286 43.749 293.286 C 43.454 293.286 43.208 293.17 43.012 292.936 Z M 44.42 292.237 C 44.42 292.062 44.391 291.91 44.333 291.78 C 44.275 291.649 44.197 291.55 44.098 291.482 C 44 291.414 43.882 291.38 43.743 291.38 C 43.629 291.38 43.528 291.398 43.44 291.436 C 43.351 291.474 43.273 291.531 43.208 291.609 C 43.143 291.686 43.094 291.779 43.06 291.89 C 43.026 292 43.009 292.125 43.009 292.265 C 43.009 292.52 43.073 292.722 43.202 292.87 C 43.33 293.017 43.506 293.091 43.729 293.091 C 43.835 293.091 43.93 293.07 44.015 293.03 C 44.098 292.989 44.171 292.928 44.233 292.847 C 44.295 292.766 44.341 292.675 44.373 292.573 C 44.404 292.471 44.42 292.359 44.42 292.237 Z M 47.767 293.241 L 47.531 293.241 L 47.531 291.993 C 47.531 291.808 47.516 291.679 47.485 291.605 C 47.455 291.531 47.408 291.476 47.345 291.439 C 47.281 291.401 47.205 291.383 47.118 291.383 C 46.994 291.383 46.89 291.417 46.807 291.486 C 46.723 291.555 46.664 291.65 46.63 291.77 C 46.596 291.89 46.579 292.05 46.579 292.249 L 46.579 293.241 L 46.343 293.241 L 46.343 291.968 C 46.343 291.828 46.331 291.718 46.307 291.639 C 46.283 291.56 46.241 291.499 46.178 291.455 C 46.116 291.412 46.037 291.39 45.941 291.39 C 45.772 291.39 45.637 291.46 45.536 291.6 C 45.434 291.738 45.384 291.928 45.384 292.166 L 45.384 293.241 L 45.148 293.241 L 45.148 291.225 L 45.384 291.225 L 45.384 291.516 C 45.552 291.292 45.757 291.18 46.001 291.18 C 46.258 291.18 46.436 291.292 46.537 291.516 C 46.716 291.292 46.927 291.18 47.168 291.18 C 47.567 291.18 47.767 291.41 47.767 291.87 L 47.767 293.241 Z M 48.619 290.813 L 48.382 290.813 L 48.382 290.459 L 48.619 290.459 L 48.619 290.813 Z M 48.619 293.241 L 48.382 293.241 L 48.382 291.225 L 48.619 291.225 L 48.619 293.241 Z M 50.847 293.241 L 50.554 293.241 L 49.911 292.365 L 49.266 293.241 L 48.969 293.241 L 49.773 292.19 L 49.027 291.225 L 49.322 291.225 L 49.911 291.998 L 50.496 291.225 L 50.79 291.225 L 50.044 292.166 L 50.847 293.241 Z M 51.587 293.241 L 51.257 293.241 L 51.257 292.873 L 51.587 292.873 L 51.587 293.241 Z M 53.831 293.241 L 53.592 293.241 L 53.592 291.99 C 53.592 291.772 53.55 291.617 53.466 291.525 C 53.382 291.433 53.269 291.387 53.124 291.387 C 53.047 291.387 52.975 291.4 52.908 291.426 C 52.841 291.452 52.778 291.491 52.721 291.543 C 52.665 291.594 52.619 291.654 52.586 291.722 C 52.553 291.789 52.53 291.863 52.517 291.944 C 52.504 292.023 52.497 292.165 52.497 292.368 L 52.497 293.241 L 52.259 293.241 L 52.259 291.225 L 52.497 291.225 L 52.497 291.524 C 52.678 291.295 52.894 291.18 53.146 291.18 C 53.603 291.18 53.831 291.429 53.831 291.926 L 53.831 293.241 Z M 56.099 292.264 L 54.548 292.264 C 54.552 292.524 54.614 292.727 54.733 292.874 C 54.852 293.02 55.017 293.094 55.228 293.094 C 55.521 293.094 55.726 292.93 55.843 292.604 L 56.075 292.643 C 55.996 292.873 55.885 293.037 55.743 293.137 C 55.6 293.237 55.423 293.286 55.213 293.286 C 54.928 293.286 54.705 293.192 54.544 293.004 C 54.383 292.815 54.302 292.558 54.302 292.233 C 54.302 291.908 54.383 291.651 54.545 291.463 C 54.707 291.274 54.932 291.18 55.218 291.18 C 55.801 291.18 56.095 291.541 56.099 292.264 Z M 55.843 292.068 C 55.807 291.603 55.596 291.37 55.212 291.37 C 55.037 291.37 54.889 291.43 54.77 291.551 C 54.651 291.671 54.58 291.843 54.555 292.068 L 55.843 292.068 Z M 57.331 293.241 C 57.227 293.263 57.144 293.273 57.08 293.273 C 56.988 293.273 56.91 293.258 56.844 293.228 C 56.778 293.198 56.729 293.152 56.697 293.09 C 56.665 293.027 56.649 292.916 56.649 292.756 L 56.649 291.404 L 56.367 291.404 L 56.367 291.225 L 56.649 291.225 L 56.649 290.709 L 56.888 290.557 L 56.888 291.225 L 57.267 291.225 L 57.267 291.404 L 56.888 291.404 L 56.888 292.726 C 56.888 292.819 56.894 292.889 56.906 292.936 C 56.918 292.983 56.941 293.018 56.976 293.041 C 57.011 293.063 57.056 293.075 57.113 293.075 C 57.157 293.075 57.219 293.066 57.3 293.05 L 57.331 293.241 Z" style="fill: rgb(51, 51, 51); white-space: pre; mix-blend-mode: screen; opacity: 0.2;"/>
  </g>
</svg>