<?xml version="1.0" encoding="utf-8"?>
<svg viewBox="0 0 568.125 497.228" width="568.125px" height="497.228px" xmlns="http://www.w3.org/2000/svg">
  <path id="rect2419" style="display:inline;fill:#ffffff;fill-opacity:1;stroke-width:1.41526;stroke-linecap:round" d="M 284.06233,42.768626 519.25791,454.45937 H 48.866745 Z"/>
  <path id="path1287-2" style="display:inline;fill:#dc0a14;fill-opacity:1;fill-rule:nonzero;stroke:none;stroke-width:0.859147" d="M 284.06233,4.5425685e-4 C 277.94091,-0.04336226 271.21873,3.083666 267.92647,8.9396153 L 2.1975383,469.35001 C 0.66396013,472.48418 0.01976039,475.20891 0,478.32676 0,489.21753 8.9379258,497.228 18.874395,497.228 H 549.25027 c 9.93647,0 18.87439,-8.01047 18.87439,-18.90124 -0.0197,-3.11785 -0.66396,-5.84258 -2.19753,-8.97675 L 300.19819,8.9396153 C 296.90594,3.083666 290.18376,-0.04336226 284.06233,4.5425685e-4 Z M 283.78714,91.251306 l 0.27519,0.476559 0.2752,-0.476559 L 487.1272,442.24256 H 80.997471 Z"/>
  <path style="color: rgb(0, 0, 0); font: medium Sans; text-indent: 0px; text-align: start; text-decoration: none; letter-spacing: normal; word-spacing: normal; text-transform: none; writing-mode: lr-tb; direction: ltr; baseline-shift: baseline; text-anchor: start; display: inline; overflow: visible; fill: rgb(0, 0, 0); fill-opacity: 1; fill-rule: evenodd; stroke: none; stroke-width: 0; marker: none; visibility: hidden;" d="M 186.386 343.936 C 186.386 343.936 217.664 288.721 234.307 265.666 C 249.953 243.992 270.215 228.098 292.118 228.14 C 337.571 228.227 417.185 377.229 417.185 377.229 L 417.732 377.231 L 389.561 373.675 L 377.253 396.923 L 377.8 395.967 C 377.8 395.967 376.918 393.832 376.356 392.826 C 350.139 345.9 315.517 270.235 287.989 270.144 C 271.318 270.089 218.838 363.093 218.838 363.093 L 186.386 343.936 Z" id="path3774-2"/>
  <path style="" d="M 404.077 388.104 C 378.531 320.365 344.15 236.29 288.431 235.777 C 233.215 235.269 190.107 352.952 190.107 352.952 L 225.396 368.325 C 225.396 368.325 265.583 275.578 289.364 276.036 C 315.346 276.537 360.678 404.441 360.678 404.441 L 371.356 373.691 L 404.077 388.104 Z" transform="matrix(0.998366, -0.057151, 0.057151, 0.998366, -17.808912, 17.502298)"/>
  <path d="M -193.11 -338.165 Q -187.04 -346.643 -180.847 -338.165 L -140.749 -283.272 Q -134.556 -274.794 -146.82 -274.794 L -226.22 -274.794 Q -238.484 -274.794 -232.414 -283.272 Z" style="" transform="matrix(-0.95538, -0.29538, 0.29538, -0.95538, 121.72303, 22.858042)"/>
  <path d="M 344.879 476.959 C 344.353 477.068 343.93 477.122 343.604 477.122 C 343.139 477.122 342.737 477.046 342.401 476.892 C 342.069 476.738 341.818 476.505 341.652 476.188 C 341.489 475.871 341.404 475.303 341.404 474.487 L 341.404 467.603 L 339.975 467.603 L 339.975 466.69 L 341.404 466.69 L 341.404 464.061 L 342.622 463.288 L 342.622 466.69 L 344.556 466.69 L 344.556 467.603 L 342.622 467.603 L 342.622 474.333 C 342.622 474.81 342.655 475.167 342.716 475.406 C 342.776 475.644 342.897 475.823 343.072 475.937 C 343.25 476.052 343.483 476.11 343.773 476.11 C 343.997 476.11 344.314 476.067 344.725 475.986 L 344.879 476.959 Z M 355.096 471.979 L 347.194 471.979 C 347.215 473.305 347.529 474.342 348.137 475.088 C 348.744 475.835 349.584 476.206 350.654 476.206 C 352.15 476.206 353.196 475.375 353.791 473.713 L 354.969 473.913 C 354.568 475.082 354.002 475.922 353.277 476.427 C 352.552 476.935 351.654 477.188 350.582 477.188 C 349.131 477.188 347.995 476.708 347.173 475.75 C 346.351 474.792 345.94 473.484 345.94 471.825 C 345.94 470.165 346.354 468.857 347.179 467.899 C 348.007 466.941 349.146 466.461 350.603 466.461 C 353.576 466.461 355.072 468.301 355.096 471.979 Z M 353.791 470.981 C 353.604 468.612 352.531 467.428 350.573 467.428 C 349.684 467.428 348.935 467.736 348.327 468.349 C 347.72 468.963 347.354 469.842 347.23 470.981 L 353.791 470.981 Z M 366.066 471.846 C 366.066 473.538 365.667 474.853 364.869 475.786 C 364.071 476.72 362.941 477.188 361.479 477.188 C 360.778 477.188 360.146 477.065 359.59 476.82 C 359.034 476.575 358.55 476.206 358.139 475.72 C 357.728 475.233 357.42 474.668 357.215 474.031 C 357.009 473.39 356.903 472.677 356.903 471.891 C 356.903 471.072 356.994 470.344 357.172 469.703 C 357.354 469.059 357.623 468.503 357.985 468.035 C 358.348 467.567 358.804 467.186 359.354 466.896 C 359.904 466.606 360.614 466.461 361.485 466.461 C 362.884 466.461 363.996 466.914 364.824 467.82 C 365.652 468.73 366.066 470.072 366.066 471.846 Z M 364.821 471.846 C 364.821 470.927 364.685 470.135 364.413 469.473 C 364.144 468.812 363.769 468.31 363.286 467.969 C 362.805 467.627 362.216 467.455 361.521 467.455 C 360.457 467.455 359.632 467.848 359.046 468.633 C 358.466 469.416 358.173 470.471 358.173 471.794 C 358.173 473.103 358.469 474.167 359.061 474.985 C 359.653 475.804 360.478 476.212 361.536 476.212 C 362.029 476.212 362.47 476.122 362.857 475.943 C 363.246 475.765 363.591 475.487 363.887 475.115 C 364.186 474.741 364.416 474.275 364.576 473.722 C 364.739 473.169 364.821 472.544 364.821 471.846 Z M 373.896 467.08 L 373.43 468.12 C 372.811 467.86 372.352 467.73 372.049 467.73 C 371.811 467.73 371.59 467.769 371.391 467.845 C 371.191 467.92 371.004 468.044 370.825 468.21 C 370.65 468.377 370.496 468.57 370.369 468.791 C 370.242 469.011 370.146 469.256 370.079 469.525 C 370.019 469.794 369.958 470.19 369.904 470.712 C 369.849 471.235 369.822 471.71 369.822 472.133 L 369.822 476.959 L 368.619 476.959 L 368.619 466.69 L 369.683 466.69 L 369.683 468.769 C 370.191 467.231 370.989 466.461 372.08 466.461 C 372.642 466.461 373.246 466.666 373.896 467.08 Z M 376.428 464.593 L 375.219 464.593 L 375.219 462.786 L 376.428 462.786 L 376.428 464.593 Z M 376.428 476.959 L 375.219 476.959 L 375.219 466.69 L 376.428 466.69 L 376.428 476.959 Z M 388.081 476.959 L 386.769 476.959 C 386.579 476.478 386.452 475.956 386.391 475.393 C 385.282 476.59 383.883 477.188 382.194 477.188 C 381.581 477.188 381.031 477.083 380.544 476.868 C 380.06 476.654 379.674 476.33 379.384 475.904 C 379.093 475.475 378.948 474.952 378.948 474.339 C 378.948 473.907 379.018 473.52 379.151 473.178 C 379.287 472.837 379.492 472.535 379.767 472.278 C 380.045 472.021 380.417 471.797 380.882 471.613 C 381.348 471.429 382.191 471.253 383.406 471.087 C 384.76 470.9 385.715 470.7 386.274 470.489 C 386.274 469.903 386.258 469.452 386.225 469.138 C 386.195 468.824 386.086 468.528 385.899 468.253 C 385.712 467.978 385.424 467.766 385.035 467.618 C 384.648 467.47 384.167 467.397 383.596 467.397 C 381.822 467.397 380.756 468.156 380.393 469.676 L 379.169 469.492 C 379.55 467.47 381.021 466.461 383.59 466.461 C 384.397 466.461 385.074 466.551 385.621 466.736 C 386.171 466.92 386.579 467.183 386.845 467.518 C 387.114 467.854 387.289 468.271 387.371 468.769 C 387.452 469.268 387.491 469.951 387.491 470.821 L 387.455 473.713 C 387.446 474.484 387.482 475.076 387.561 475.49 C 387.646 475.904 387.818 476.394 388.081 476.959 Z M 386.274 472.106 L 386.274 471.441 C 385.591 471.701 384.509 471.957 383.028 472.214 C 382.248 472.353 381.674 472.495 381.312 472.64 C 380.952 472.786 380.68 472.994 380.493 473.269 C 380.311 473.544 380.218 473.87 380.218 474.245 C 380.218 474.804 380.426 475.257 380.84 475.599 C 381.257 475.94 381.792 476.11 382.445 476.11 C 382.832 476.11 383.209 476.058 383.581 475.959 C 383.956 475.859 384.324 475.708 384.681 475.508 C 385.041 475.309 385.34 475.067 385.582 474.786 C 385.823 474.505 385.999 474.142 386.107 473.698 C 386.219 473.254 386.274 472.725 386.274 472.106 Z M 392.677 476.959 L 390.997 476.959 L 390.997 475.085 L 392.677 475.085 L 392.677 476.959 Z M 397.331 475.402 L 397.331 480.884 L 396.128 480.884 L 396.128 466.69 L 397.331 466.69 L 397.331 468.364 C 398.388 467.095 399.676 466.461 401.19 466.461 C 401.87 466.461 402.477 466.569 403.015 466.79 C 403.556 467.008 404.03 467.343 404.435 467.799 C 404.846 468.256 405.167 468.818 405.399 469.489 C 405.635 470.159 405.75 470.909 405.75 471.737 C 405.75 473.378 405.339 474.698 404.517 475.693 C 403.698 476.69 402.556 477.188 401.087 477.188 C 399.582 477.188 398.331 476.593 397.331 475.402 Z M 404.502 471.846 C 404.502 470.954 404.357 470.178 404.061 469.516 C 403.764 468.851 403.366 468.346 402.864 467.999 C 402.362 467.651 401.761 467.479 401.057 467.479 C 400.477 467.479 399.963 467.576 399.51 467.766 C 399.056 467.956 398.663 468.25 398.331 468.645 C 397.999 469.038 397.748 469.516 397.576 470.075 C 397.403 470.637 397.316 471.275 397.316 471.988 C 397.316 473.29 397.645 474.315 398.298 475.067 C 398.954 475.816 399.848 476.191 400.984 476.191 C 401.525 476.191 402.009 476.088 402.438 475.883 C 402.867 475.674 403.236 475.366 403.55 474.952 C 403.867 474.538 404.106 474.073 404.263 473.553 C 404.423 473.036 404.502 472.465 404.502 471.846 Z M 421.549 476.959 L 420.346 476.959 L 420.346 470.601 C 420.346 469.661 420.27 469.002 420.116 468.624 C 419.965 468.25 419.726 467.969 419.4 467.778 C 419.077 467.588 418.69 467.494 418.243 467.494 C 417.614 467.494 417.085 467.669 416.659 468.02 C 416.236 468.373 415.934 468.854 415.759 469.467 C 415.586 470.081 415.499 470.894 415.499 471.906 L 415.499 476.959 L 414.296 476.959 L 414.296 470.474 C 414.296 469.761 414.235 469.201 414.115 468.8 C 413.994 468.398 413.776 468.083 413.459 467.863 C 413.142 467.642 412.74 467.53 412.25 467.53 C 411.392 467.53 410.703 467.887 410.186 468.597 C 409.672 469.307 409.412 470.268 409.412 471.483 L 409.412 476.959 L 408.21 476.959 L 408.21 466.69 L 409.412 466.69 L 409.412 468.171 C 410.268 467.032 411.316 466.461 412.555 466.461 C 413.864 466.461 414.773 467.032 415.284 468.171 C 416.2 467.032 417.273 466.461 418.499 466.461 C 420.533 466.461 421.549 467.63 421.549 469.972 L 421.549 476.959 Z M 425.891 464.593 L 424.682 464.593 L 424.682 462.786 L 425.891 462.786 L 425.891 464.593 Z M 425.891 476.959 L 424.682 476.959 L 424.682 466.69 L 425.891 466.69 L 425.891 476.959 Z M 437.235 476.959 L 435.746 476.959 L 432.47 472.495 L 429.185 476.959 L 427.674 476.959 L 431.769 471.604 L 427.967 466.69 L 429.472 466.69 L 432.47 470.628 L 435.449 466.69 L 436.948 466.69 L 433.147 471.483 L 437.235 476.959 Z M 441.007 476.959 L 439.324 476.959 L 439.324 475.085 L 441.007 475.085 L 441.007 476.959 Z M 452.436 476.959 L 451.218 476.959 L 451.218 470.586 C 451.218 469.476 451.006 468.688 450.577 468.219 C 450.151 467.751 449.571 467.515 448.837 467.515 C 448.444 467.515 448.078 467.582 447.734 467.715 C 447.392 467.848 447.075 468.044 446.785 468.307 C 446.495 468.57 446.265 468.875 446.096 469.22 C 445.926 469.564 445.809 469.942 445.742 470.35 C 445.676 470.758 445.642 471.477 445.642 472.511 L 445.642 476.959 L 444.431 476.959 L 444.431 466.69 L 445.642 466.69 L 445.642 468.21 C 446.561 467.044 447.664 466.461 448.945 466.461 C 451.272 466.461 452.436 467.727 452.436 470.259 L 452.436 476.959 Z M 463.988 471.979 L 456.089 471.979 C 456.107 473.305 456.422 474.342 457.029 475.088 C 457.639 475.835 458.48 476.206 459.549 476.206 C 461.045 476.206 462.091 475.375 462.683 473.713 L 463.865 473.913 C 463.463 475.082 462.898 475.922 462.172 476.427 C 461.447 476.935 460.55 477.188 459.474 477.188 C 458.023 477.188 456.887 476.708 456.065 475.75 C 455.246 474.792 454.835 473.484 454.835 471.825 C 454.835 470.165 455.249 468.857 456.074 467.899 C 456.902 466.941 458.041 466.461 459.498 466.461 C 462.468 466.461 463.964 468.301 463.988 471.979 Z M 462.683 470.981 C 462.499 468.612 461.426 467.428 459.468 467.428 C 458.579 467.428 457.83 467.736 457.219 468.349 C 456.615 468.963 456.249 469.842 456.125 470.981 L 462.683 470.981 Z M 470.262 476.959 C 469.736 477.068 469.31 477.122 468.984 477.122 C 468.518 477.122 468.116 477.046 467.781 476.892 C 467.449 476.738 467.198 476.505 467.032 476.188 C 466.868 475.871 466.787 475.303 466.787 474.487 L 466.787 467.603 L 465.354 467.603 L 465.354 466.69 L 466.787 466.69 L 466.787 464.061 L 468.005 463.288 L 468.005 466.69 L 469.936 466.69 L 469.936 467.603 L 468.005 467.603 L 468.005 474.333 C 468.005 474.81 468.035 475.167 468.095 475.406 C 468.159 475.644 468.277 475.823 468.452 475.937 C 468.63 476.052 468.863 476.11 469.153 476.11 C 469.377 476.11 469.694 476.067 470.105 475.986 L 470.262 476.959 Z" style="fill: rgb(51, 51, 51); white-space: pre; mix-blend-mode: screen; opacity: 0.3;"/>
</svg>