<svg xmlns="http://www.w3.org/2000/svg" width="1280" height="1038" viewBox="0 0 1280 1038">
  <defs>
    <style>
      .cls-1 {
        fill: #d6c400;
        stroke: #000;
        stroke-linejoin: round;
        stroke-width: 29px;
      }

      .cls-1, .cls-2, .cls-3 {
        fill-rule: evenodd;
      }

      .cls-3 {
        fill: #c1b100;
        opacity: 0.21;
      }
    </style>
  </defs>
  <path class="cls-1" d="M1,1L1278,2q1.005,517.5,2,1035-640,.495-1280,1Z"/>
  <path id="تمهل" class="cls-2" d="M464.792,392.056V333.878H406.666V147.6l-48.8,50.643L361.1,390.3Q325.038,422.2,287.722,422.2q-27.271,0-41.621-16.823-13.278-15.771-13.276-42.757,0-23.3,5.921-57.828Q209.32,367.7,209.324,407.126q0,30.138,20.093,51.344t50.95,21.2q27.087,0,61.714-15.421,15.427-6.834,35.881-20.5,3.767-8.238,4.485-9.988,2.868-7.188,4.844-13.318l7.176-22.255,2.332-6.133h67.993Zm178.326-58.178A127.742,127.742,0,0,0,654.6,316.705l9.149-16.472q3.05-5.43,3.05-14.019,0-14.365-12.917-36.974a345.789,345.789,0,0,0-29.063-43.809L518.613,333.878H447.749v58.178h49.874a97.872,97.872,0,0,0-1.794,16.823q0,47.136,20.631,63.084t48.8,15.947q16.86,0,37.136-7.535,22.423-7.887,31.933-19.452,6.279-7.536,21.708-40.829a301.519,301.519,0,0,0,11.482-28.038H726.54V333.878H643.118Zm-20.452-32.243q0,9.639-6.817,18.487t-16.326,11.653q-7,2.1-20.631,2.1H564.54L611.9,272.546Q622.666,288.317,622.666,301.635Zm-42.7,131.777q-16.509,0-29.064-8.412-13.817-9.289-13.814-24.708l1.077-8.236h24.219q13.994,0,19.376.351,15.784,1.052,24.039,6.483a52.874,52.874,0,0,1,10.226,8.937,134.74,134.74,0,0,1,8.432,10.514Q601.675,433.41,579.969,433.412Zm327.767-99.534V290.771l-0.358-10.339a75.778,75.778,0,0,0-1.077-11.916q-4.844-12.092-29.422-12.092-44.852,0-72.478,30.842-19.375,21.907-26.372,46.612H709.676v58.178h51.13l13.455-19.8,102.977,57.477,17.582-37.676L1011,392q-0.5-29-1-58Zm-95.262-7.535q10.4-11.388,19.017-16.121t22.963-4.732q19.376,0,19.375,14.72v41.355Zm201.286-29.089q12.915,12.616,19.92,36.624L974,334q1,29,2,58l70.06,0.056q6.99-14.719,13.27-31.893,11.31-30.49,11.3-48.89,0-32.943-22.78-59.93Zm17.94-133.529-20.09,18.05-21.349-18.05L961.916,189.31l37.495,33.645,19.909-17.173,21.35,17.173,29.96-25.76Z"/>
  <rect x="937" y="334" width="91" height="58"/>
  <rect x="667" y="334" width="92" height="58"/>
  <rect x="411" y="334" width="86" height="58"/>
  <path id="teoria.pmix.net" class="cls-3" d="M466.17,980.329a4.969,4.969,0,0,1-3.068.967,4.021,4.021,0,0,1-3.327-1.252,6.759,6.759,0,0,1-1-4.183V959.443h7.4v-3.984h-7.4v-8.621l-4.7,1.508v7.113h-5.047v3.984h5.047v17.244q0,8.535,7.714,8.536a9.127,9.127,0,0,0,4.388-.911v-3.983Zm29.424-11.581q0-6.573-3.154-10.272t-8.919-3.7a12.5,12.5,0,0,0-9.651,4.282,15.855,15.855,0,0,0-3.886,11.083q0,7.2,3.557,11.168t9.779,3.97q6.366,0,10.238-2.789v-4.382a14.5,14.5,0,0,1-9.12,3.244,9.134,9.134,0,0,1-6.94-2.646q-2.523-2.646-2.638-7.512h20.734v-2.447Zm-20.677-1.508a10.681,10.681,0,0,1,2.868-6.175,7.628,7.628,0,0,1,5.65-2.362,6.72,6.72,0,0,1,5.377,2.248,9.449,9.449,0,0,1,1.964,6.289H474.917Zm50.718,13.843q3.972-4.2,3.972-11.169,0-7.113-3.686-11.125t-10.252-4.012q-6.884,0-10.926,4.125T500.7,970.37q0,6.742,3.886,10.827a13.676,13.676,0,0,0,10.4,4.083Q521.662,985.28,525.635,981.083Zm-3.3-19.42q2.451,2.959,2.452,8.422,0,5.406-2.452,8.337a8.63,8.63,0,0,1-7.012,2.931,9.1,9.1,0,0,1-7.141-2.988q-2.667-2.986-2.667-8.166,0-5.377,2.638-8.437a8.979,8.979,0,0,1,7.17-3.059A8.592,8.592,0,0,1,522.337,961.663Zm30.1-6.317a7.731,7.731,0,0,0-2.811-.4,7.026,7.026,0,0,0-4.617,1.722,10.166,10.166,0,0,0-3.069,4.794h-0.114v-6h-4.7V984.6h4.7V969.744a12.954,12.954,0,0,1,2.021-7.683,6.014,6.014,0,0,1,5.033-2.817,5.788,5.788,0,0,1,3.557.939v-4.837Zm9.707-8.167a3.022,3.022,0,0,0,0-4.311,3.051,3.051,0,0,0-2.194-.868,2.97,2.97,0,0,0-2.151.868,2.921,2.921,0,0,0-.889,2.177,2.873,2.873,0,0,0,.889,2.163A3.154,3.154,0,0,0,562.142,947.179Zm0.1,8.28h-4.7V984.6h4.7V955.459Zm30.542,10.187q0-10.869-10.353-10.869a18.305,18.305,0,0,0-9.98,2.731v4.781a14.519,14.519,0,0,1,9.579-3.586q6.05,0,6.051,7.427l-8.8,1.223q-9.693,1.338-9.693,9.5a7.954,7.954,0,0,0,2.481,6.118,9.7,9.7,0,0,0,6.868,2.3,9.859,9.859,0,0,0,9.034-5.236h0.115V984.6h4.7V965.646Zm-4.7,7.114a8.652,8.652,0,0,1-2.28,6.16,7.579,7.579,0,0,1-5.779,2.433A5.954,5.954,0,0,1,575.936,980a4.428,4.428,0,0,1-1.534-3.485q0-2.931,1.663-4.083A11.563,11.563,0,0,1,581,970.825l7.084-.968v2.9Zm17.494,11.524a3.058,3.058,0,0,0,.946-2.248,3.242,3.242,0,0,0-3.241-3.215,3.031,3.031,0,0,0-2.251.953,3.129,3.129,0,0,0-.932,2.262,3.194,3.194,0,0,0,3.183,3.187A3.138,3.138,0,0,0,605.576,984.284Zm22.426,1a11.978,11.978,0,0,0,9.808-4.4q3.585-4.4,3.585-11.709,0-6.573-3.184-10.486a10.79,10.79,0,0,0-8.861-3.912,11.136,11.136,0,0,0-10.152,5.8h-0.115v-5.122h-4.7V998h4.7V980.386H619.2a9.84,9.84,0,0,0,8.8,4.894h0Zm-6.424-23.746a8.364,8.364,0,0,1,6.6-2.831,7.524,7.524,0,0,1,6.137,2.76q2.265,2.762,2.266,7.626,0,5.777-2.424,9.02a8.484,8.484,0,0,1-12.7.726,8.628,8.628,0,0,1-2.366-6.132v-4.069A10.349,10.349,0,0,1,621.578,961.534Zm69.029,5.108q0-11.865-9.694-11.865-6.482,0-9.75,6.032a8.376,8.376,0,0,0-3.069-4.368,8.544,8.544,0,0,0-5.248-1.664,9.991,9.991,0,0,0-9.12,5.292h-0.114v-4.61h-4.7V984.6h4.7V967.979a10.59,10.59,0,0,1,2.007-6.7,6.207,6.207,0,0,1,5.105-2.575q6.681,0,6.682,8.594v17.3h4.7V967.979a10.4,10.4,0,0,1,2.108-6.544,6.283,6.283,0,0,1,5.119-2.732q3.556,0,5.062,2.163t1.5,7V984.6h4.7V966.642ZM704.1,947.179a3.024,3.024,0,0,0,0-4.311,3.053,3.053,0,0,0-2.194-.868,2.968,2.968,0,0,0-2.151.868,2.917,2.917,0,0,0-.889,2.177,2.869,2.869,0,0,0,.889,2.163,2.992,2.992,0,0,0,2.151.853A3.024,3.024,0,0,0,704.1,947.179Zm0.1,8.28h-4.7V984.6h4.7V955.459Zm25.782,0L722.64,967.7h-0.114q-0.6-1.167-1.233-2.276l-5.679-9.96h-5.477l9.578,14.854L709.706,984.6h5.421l5.879-9.447q1.2-1.963,1.348-2.219h0.114q0.746,1.336,1.291,2.219l5.764,9.447H735l-9.694-14.4,9.866-14.74h-5.191Zm14.626,28.825a3.054,3.054,0,0,0,.946-2.248,3.242,3.242,0,0,0-3.24-3.215,3.033,3.033,0,0,0-2.252.953,3.129,3.129,0,0,0-.932,2.262,3.194,3.194,0,0,0,3.184,3.187A3.137,3.137,0,0,0,744.608,984.284Zm33.181-17.5q0-5.832-2.553-8.92t-7.37-3.087a10.615,10.615,0,0,0-9.636,5.52h-0.115v-4.838h-4.7V984.6h4.7V967.979a9.711,9.711,0,0,1,2.309-6.644,7.431,7.431,0,0,1,5.836-2.632q6.825,0,6.826,9.276V984.6h4.7V966.784Zm32.464,1.964q0-6.573-3.155-10.272t-8.919-3.7a12.5,12.5,0,0,0-9.65,4.282,15.855,15.855,0,0,0-3.886,11.083q0,7.2,3.556,11.168t9.779,3.97q6.367,0,10.239-2.789v-4.382a14.5,14.5,0,0,1-9.12,3.244,9.132,9.132,0,0,1-6.94-2.646q-2.524-2.646-2.639-7.512h20.735v-2.447Zm-20.677-1.508a10.686,10.686,0,0,1,2.867-6.175,7.63,7.63,0,0,1,5.65-2.362,6.719,6.719,0,0,1,5.377,2.248,9.449,9.449,0,0,1,1.965,6.289H789.576Zm41.411,13.089a4.969,4.969,0,0,1-3.068.967,4.021,4.021,0,0,1-3.327-1.252,6.759,6.759,0,0,1-1-4.183V959.443h7.4v-3.984h-7.4v-8.621l-4.7,1.508v7.113h-5.047v3.984h5.047v17.244q0,8.535,7.714,8.536a9.127,9.127,0,0,0,4.388-.911v-3.983Z"/>
  <path id="SLOW" class="cls-2" d="M178.759,895.483a151.984,151.984,0,0,0,17.671,4.556q9.327,1.841,18.3,2.8a145.864,145.864,0,0,0,15.07.964,163.434,163.434,0,0,0,34.8-3.593,88.863,88.863,0,0,0,29.153-11.653,60.269,60.269,0,0,0,20.093-20.94q7.443-12.88,7.445-31.455a54.594,54.594,0,0,0-5.471-24.883,72.619,72.619,0,0,0-14.8-19.8,119.463,119.463,0,0,0-21.708-16.3q-12.378-7.359-26.192-14.019-13.457-6.48-23.771-11.916a107.971,107.971,0,0,1-17.492-11.215,40.978,40.978,0,0,1-10.854-12.792,35.355,35.355,0,0,1-3.678-16.647q0-10.338,4.844-17.523a38.6,38.6,0,0,1,12.558-11.741,56.576,56.576,0,0,1,17.582-6.572,98.544,98.544,0,0,1,19.734-2.015q35.7,0,58.485,15.421V653.046q-17.4-8.937-55.435-8.937a134.006,134.006,0,0,0-32.741,4.03,93.092,93.092,0,0,0-28.615,12.266,65.294,65.294,0,0,0-20.272,20.941q-7.716,12.707-7.714,29.878,0,14.02,4.933,24.445a62.852,62.852,0,0,0,13.545,18.662A108.447,108.447,0,0,0,204.5,769.4q11.66,6.836,25.116,13.494,12.736,6.308,23.771,12A126.207,126.207,0,0,1,272.5,806.814a50.791,50.791,0,0,1,12.648,13.756,33.441,33.441,0,0,1,4.575,17.7q0,18.925-13.725,29t-41.531,10.076a108.01,108.01,0,0,1-17.582-1.577,145.473,145.473,0,0,1-18.927-4.469,119.918,119.918,0,0,1-17.94-7.1,69.044,69.044,0,0,1-14.621-9.462v34.7A55.479,55.479,0,0,0,178.759,895.483Zm327.32-22.518H402.743V648.314H372.6V899.6H506.079V872.965Zm219.947-4.906Q759.4,832.311,759.4,770.8q0-56.6-32.562-91.647t-85.844-35.047q-57.768,0-91.316,36.1t-33.548,96.73q0,56.427,32.92,91.647t87.638,35.223Q692.657,903.807,726.026,868.059ZM704.139,697.906q23.681,27.164,23.681,76.928,0,48.542-24.4,75.526t-66.738,26.986q-39.649,0-64.315-28.3T547.7,774.308q0-46.434,25.3-75t65.84-28.564Q680.455,670.744,704.139,697.906Zm378.181-49.592-52.57,193.459q-4.125,15.073-4.84,24.183h-0.72a139.8,139.8,0,0,0-4.3-23.482l-54.542-194.16H936.465L879.594,841.072q-4.667,15.948-5.561,25.234h-0.9a124.144,124.144,0,0,0-4.306-25.234L814.112,648.314H780.923L856.272,899.6h34.983l53.283-184a127.066,127.066,0,0,0,4.664-25.233h0.718a112.314,112.314,0,0,0,4.126,25.584L1006.97,899.6h35.34l72.66-251.287h-32.65Z"/>
</svg>
